G04 #@! TF.GenerationSoftware,KiCad,Pcbnew,(6.0.0)*
G04 #@! TF.CreationDate,2022-11-09T00:35:18-05:00*
G04 #@! TF.ProjectId,Sorcerer Internal SRAM,536f7263-6572-4657-9220-496e7465726e,rev?*
G04 #@! TF.SameCoordinates,Original*
G04 #@! TF.FileFunction,Legend,Bot*
G04 #@! TF.FilePolarity,Positive*
%FSLAX46Y46*%
G04 Gerber Fmt 4.6, Leading zero omitted, Abs format (unit mm)*
G04 Created by KiCad (PCBNEW (6.0.0)) date 2022-11-09 00:35:18*
%MOMM*%
%LPD*%
G01*
G04 APERTURE LIST*
%ADD10C,0.150000*%
%ADD11R,1.600000X1.600000*%
%ADD12O,1.600000X1.600000*%
%ADD13C,3.200000*%
%ADD14R,1.700000X1.700000*%
%ADD15O,1.700000X1.700000*%
%ADD16C,1.600000*%
G04 APERTURE END LIST*
D10*
X122674047Y-93162380D02*
X122674047Y-92162380D01*
X122435952Y-92162380D01*
X122293094Y-92210000D01*
X122197856Y-92305238D01*
X122150237Y-92400476D01*
X122102618Y-92590952D01*
X122102618Y-92733809D01*
X122150237Y-92924285D01*
X122197856Y-93019523D01*
X122293094Y-93114761D01*
X122435952Y-93162380D01*
X122674047Y-93162380D01*
X121245475Y-92162380D02*
X121435952Y-92162380D01*
X121531190Y-92210000D01*
X121578809Y-92257619D01*
X121674047Y-92400476D01*
X121721666Y-92590952D01*
X121721666Y-92971904D01*
X121674047Y-93067142D01*
X121626428Y-93114761D01*
X121531190Y-93162380D01*
X121340713Y-93162380D01*
X121245475Y-93114761D01*
X121197856Y-93067142D01*
X121150237Y-92971904D01*
X121150237Y-92733809D01*
X121197856Y-92638571D01*
X121245475Y-92590952D01*
X121340713Y-92543333D01*
X121531190Y-92543333D01*
X121626428Y-92590952D01*
X121674047Y-92638571D01*
X121721666Y-92733809D01*
X113966667Y-98242380D02*
X113966667Y-97242380D01*
X113728572Y-97242380D01*
X113585714Y-97290000D01*
X113490476Y-97385238D01*
X113442857Y-97480476D01*
X113395238Y-97670952D01*
X113395238Y-97813809D01*
X113442857Y-98004285D01*
X113490476Y-98099523D01*
X113585714Y-98194761D01*
X113728572Y-98242380D01*
X113966667Y-98242380D01*
X113014286Y-97337619D02*
X112966667Y-97290000D01*
X112871429Y-97242380D01*
X112633333Y-97242380D01*
X112538095Y-97290000D01*
X112490476Y-97337619D01*
X112442857Y-97432857D01*
X112442857Y-97528095D01*
X112490476Y-97670952D01*
X113061905Y-98242380D01*
X112442857Y-98242380D01*
X114220476Y-67476666D02*
X113744285Y-67476666D01*
X114315714Y-67762380D02*
X113982380Y-66762380D01*
X113649047Y-67762380D01*
X112791904Y-67762380D02*
X113363333Y-67762380D01*
X113077619Y-67762380D02*
X113077619Y-66762380D01*
X113172857Y-66905238D01*
X113268095Y-67000476D01*
X113363333Y-67048095D01*
X111934761Y-67095714D02*
X111934761Y-67762380D01*
X112172857Y-66714761D02*
X112410952Y-67429047D01*
X111791904Y-67429047D01*
X122650237Y-75096666D02*
X122174047Y-75096666D01*
X122745475Y-75382380D02*
X122412142Y-74382380D01*
X122078809Y-75382380D01*
X121602618Y-74810952D02*
X121697856Y-74763333D01*
X121745475Y-74715714D01*
X121793094Y-74620476D01*
X121793094Y-74572857D01*
X121745475Y-74477619D01*
X121697856Y-74430000D01*
X121602618Y-74382380D01*
X121412142Y-74382380D01*
X121316904Y-74430000D01*
X121269285Y-74477619D01*
X121221666Y-74572857D01*
X121221666Y-74620476D01*
X121269285Y-74715714D01*
X121316904Y-74763333D01*
X121412142Y-74810952D01*
X121602618Y-74810952D01*
X121697856Y-74858571D01*
X121745475Y-74906190D01*
X121793094Y-75001428D01*
X121793094Y-75191904D01*
X121745475Y-75287142D01*
X121697856Y-75334761D01*
X121602618Y-75382380D01*
X121412142Y-75382380D01*
X121316904Y-75334761D01*
X121269285Y-75287142D01*
X121221666Y-75191904D01*
X121221666Y-75001428D01*
X121269285Y-74906190D01*
X121316904Y-74858571D01*
X121412142Y-74810952D01*
X123110476Y-72556666D02*
X122634285Y-72556666D01*
X123205714Y-72842380D02*
X122872380Y-71842380D01*
X122539047Y-72842380D01*
X121681904Y-72842380D02*
X122253333Y-72842380D01*
X121967619Y-72842380D02*
X121967619Y-71842380D01*
X122062857Y-71985238D01*
X122158095Y-72080476D01*
X122253333Y-72128095D01*
X121348571Y-71842380D02*
X120729523Y-71842380D01*
X121062857Y-72223333D01*
X120920000Y-72223333D01*
X120824761Y-72270952D01*
X120777142Y-72318571D01*
X120729523Y-72413809D01*
X120729523Y-72651904D01*
X120777142Y-72747142D01*
X120824761Y-72794761D01*
X120920000Y-72842380D01*
X121205714Y-72842380D01*
X121300952Y-72794761D01*
X121348571Y-72747142D01*
X147237380Y-71129523D02*
X148046904Y-71129523D01*
X148142142Y-71177142D01*
X148189761Y-71224761D01*
X148237380Y-71320000D01*
X148237380Y-71510476D01*
X148189761Y-71605714D01*
X148142142Y-71653333D01*
X148046904Y-71700952D01*
X147237380Y-71700952D01*
X148237380Y-72700952D02*
X148237380Y-72129523D01*
X148237380Y-72415238D02*
X147237380Y-72415238D01*
X147380238Y-72320000D01*
X147475476Y-72224761D01*
X147523095Y-72129523D01*
X147189761Y-73843809D02*
X148475476Y-72986666D01*
X147237380Y-74177142D02*
X148046904Y-74177142D01*
X148142142Y-74224761D01*
X148189761Y-74272380D01*
X148237380Y-74367619D01*
X148237380Y-74558095D01*
X148189761Y-74653333D01*
X148142142Y-74700952D01*
X148046904Y-74748571D01*
X147237380Y-74748571D01*
X147332619Y-75177142D02*
X147285000Y-75224761D01*
X147237380Y-75320000D01*
X147237380Y-75558095D01*
X147285000Y-75653333D01*
X147332619Y-75700952D01*
X147427857Y-75748571D01*
X147523095Y-75748571D01*
X147665952Y-75700952D01*
X148237380Y-75129523D01*
X148237380Y-75748571D01*
X147189761Y-76891428D02*
X148475476Y-76034285D01*
X148142142Y-77796190D02*
X148189761Y-77748571D01*
X148237380Y-77605714D01*
X148237380Y-77510476D01*
X148189761Y-77367619D01*
X148094523Y-77272380D01*
X147999285Y-77224761D01*
X147808809Y-77177142D01*
X147665952Y-77177142D01*
X147475476Y-77224761D01*
X147380238Y-77272380D01*
X147285000Y-77367619D01*
X147237380Y-77510476D01*
X147237380Y-77605714D01*
X147285000Y-77748571D01*
X147332619Y-77796190D01*
X148237380Y-78748571D02*
X148237380Y-78177142D01*
X148237380Y-78462857D02*
X147237380Y-78462857D01*
X147380238Y-78367619D01*
X147475476Y-78272380D01*
X147523095Y-78177142D01*
X147189761Y-79891428D02*
X148475476Y-79034285D01*
X148142142Y-80796190D02*
X148189761Y-80748571D01*
X148237380Y-80605714D01*
X148237380Y-80510476D01*
X148189761Y-80367619D01*
X148094523Y-80272380D01*
X147999285Y-80224761D01*
X147808809Y-80177142D01*
X147665952Y-80177142D01*
X147475476Y-80224761D01*
X147380238Y-80272380D01*
X147285000Y-80367619D01*
X147237380Y-80510476D01*
X147237380Y-80605714D01*
X147285000Y-80748571D01*
X147332619Y-80796190D01*
X147332619Y-81177142D02*
X147285000Y-81224761D01*
X147237380Y-81320000D01*
X147237380Y-81558095D01*
X147285000Y-81653333D01*
X147332619Y-81700952D01*
X147427857Y-81748571D01*
X147523095Y-81748571D01*
X147665952Y-81700952D01*
X148237380Y-81129523D01*
X148237380Y-81748571D01*
X148237380Y-82939047D02*
X147570714Y-82939047D01*
X147665952Y-82939047D02*
X147618333Y-82986666D01*
X147570714Y-83081904D01*
X147570714Y-83224761D01*
X147618333Y-83320000D01*
X147713571Y-83367619D01*
X148237380Y-83367619D01*
X147713571Y-83367619D02*
X147618333Y-83415238D01*
X147570714Y-83510476D01*
X147570714Y-83653333D01*
X147618333Y-83748571D01*
X147713571Y-83796190D01*
X148237380Y-83796190D01*
X147570714Y-84700952D02*
X148237380Y-84700952D01*
X147570714Y-84272380D02*
X148094523Y-84272380D01*
X148189761Y-84320000D01*
X148237380Y-84415238D01*
X148237380Y-84558095D01*
X148189761Y-84653333D01*
X148142142Y-84700952D01*
X147570714Y-85034285D02*
X147570714Y-85415238D01*
X147237380Y-85177142D02*
X148094523Y-85177142D01*
X148189761Y-85224761D01*
X148237380Y-85320000D01*
X148237380Y-85415238D01*
X147570714Y-86177142D02*
X148237380Y-86177142D01*
X147570714Y-85748571D02*
X148094523Y-85748571D01*
X148189761Y-85796190D01*
X148237380Y-85891428D01*
X148237380Y-86034285D01*
X148189761Y-86129523D01*
X148142142Y-86177142D01*
X148237380Y-87081904D02*
X147713571Y-87081904D01*
X147618333Y-87034285D01*
X147570714Y-86939047D01*
X147570714Y-86748571D01*
X147618333Y-86653333D01*
X148189761Y-87081904D02*
X148237380Y-86986666D01*
X148237380Y-86748571D01*
X148189761Y-86653333D01*
X148094523Y-86605714D01*
X147999285Y-86605714D01*
X147904047Y-86653333D01*
X147856428Y-86748571D01*
X147856428Y-86986666D01*
X147808809Y-87081904D01*
X148237380Y-87700952D02*
X148189761Y-87605714D01*
X148094523Y-87558095D01*
X147237380Y-87558095D01*
X148237380Y-88224761D02*
X148189761Y-88129523D01*
X148094523Y-88081904D01*
X147237380Y-88081904D01*
X147570714Y-88510476D02*
X148237380Y-88748571D01*
X147570714Y-88986666D02*
X148237380Y-88748571D01*
X148475476Y-88653333D01*
X148523095Y-88605714D01*
X148570714Y-88510476D01*
X148189761Y-90510476D02*
X148237380Y-90415238D01*
X148237380Y-90224761D01*
X148189761Y-90129523D01*
X148094523Y-90081904D01*
X147713571Y-90081904D01*
X147618333Y-90129523D01*
X147570714Y-90224761D01*
X147570714Y-90415238D01*
X147618333Y-90510476D01*
X147713571Y-90558095D01*
X147808809Y-90558095D01*
X147904047Y-90081904D01*
X148237380Y-90891428D02*
X147570714Y-91415238D01*
X147570714Y-90891428D02*
X148237380Y-91415238D01*
X148189761Y-92224761D02*
X148237380Y-92129523D01*
X148237380Y-91939047D01*
X148189761Y-91843809D01*
X148142142Y-91796190D01*
X148046904Y-91748571D01*
X147761190Y-91748571D01*
X147665952Y-91796190D01*
X147618333Y-91843809D01*
X147570714Y-91939047D01*
X147570714Y-92129523D01*
X147618333Y-92224761D01*
X148237380Y-92796190D02*
X148189761Y-92700952D01*
X148094523Y-92653333D01*
X147237380Y-92653333D01*
X147570714Y-93605714D02*
X148237380Y-93605714D01*
X147570714Y-93177142D02*
X148094523Y-93177142D01*
X148189761Y-93224761D01*
X148237380Y-93320000D01*
X148237380Y-93462857D01*
X148189761Y-93558095D01*
X148142142Y-93605714D01*
X148189761Y-94034285D02*
X148237380Y-94129523D01*
X148237380Y-94320000D01*
X148189761Y-94415238D01*
X148094523Y-94462857D01*
X148046904Y-94462857D01*
X147951666Y-94415238D01*
X147904047Y-94320000D01*
X147904047Y-94177142D01*
X147856428Y-94081904D01*
X147761190Y-94034285D01*
X147713571Y-94034285D01*
X147618333Y-94081904D01*
X147570714Y-94177142D01*
X147570714Y-94320000D01*
X147618333Y-94415238D01*
X148237380Y-94891428D02*
X147570714Y-94891428D01*
X147237380Y-94891428D02*
X147285000Y-94843809D01*
X147332619Y-94891428D01*
X147285000Y-94939047D01*
X147237380Y-94891428D01*
X147332619Y-94891428D01*
X147570714Y-95272380D02*
X148237380Y-95510476D01*
X147570714Y-95748571D01*
X148189761Y-96510476D02*
X148237380Y-96415238D01*
X148237380Y-96224761D01*
X148189761Y-96129523D01*
X148094523Y-96081904D01*
X147713571Y-96081904D01*
X147618333Y-96129523D01*
X147570714Y-96224761D01*
X147570714Y-96415238D01*
X147618333Y-96510476D01*
X147713571Y-96558095D01*
X147808809Y-96558095D01*
X147904047Y-96081904D01*
X149180714Y-76153333D02*
X149847380Y-76343809D01*
X149371190Y-76534285D01*
X149847380Y-76724761D01*
X149180714Y-76915238D01*
X149847380Y-77296190D02*
X149180714Y-77296190D01*
X148847380Y-77296190D02*
X148895000Y-77248571D01*
X148942619Y-77296190D01*
X148895000Y-77343809D01*
X148847380Y-77296190D01*
X148942619Y-77296190D01*
X149180714Y-77629523D02*
X149180714Y-78010476D01*
X148847380Y-77772380D02*
X149704523Y-77772380D01*
X149799761Y-77820000D01*
X149847380Y-77915238D01*
X149847380Y-78010476D01*
X149847380Y-78343809D02*
X148847380Y-78343809D01*
X149847380Y-78772380D02*
X149323571Y-78772380D01*
X149228333Y-78724761D01*
X149180714Y-78629523D01*
X149180714Y-78486666D01*
X149228333Y-78391428D01*
X149275952Y-78343809D01*
X149180714Y-80010476D02*
X150037857Y-80010476D01*
X150133095Y-79962857D01*
X150180714Y-79867619D01*
X150180714Y-79820000D01*
X148847380Y-80010476D02*
X148895000Y-79962857D01*
X148942619Y-80010476D01*
X148895000Y-80058095D01*
X148847380Y-80010476D01*
X148942619Y-80010476D01*
X149180714Y-80915238D02*
X149847380Y-80915238D01*
X149180714Y-80486666D02*
X149704523Y-80486666D01*
X149799761Y-80534285D01*
X149847380Y-80629523D01*
X149847380Y-80772380D01*
X149799761Y-80867619D01*
X149752142Y-80915238D01*
X149847380Y-81391428D02*
X149180714Y-81391428D01*
X149275952Y-81391428D02*
X149228333Y-81439047D01*
X149180714Y-81534285D01*
X149180714Y-81677142D01*
X149228333Y-81772380D01*
X149323571Y-81820000D01*
X149847380Y-81820000D01*
X149323571Y-81820000D02*
X149228333Y-81867619D01*
X149180714Y-81962857D01*
X149180714Y-82105714D01*
X149228333Y-82200952D01*
X149323571Y-82248571D01*
X149847380Y-82248571D01*
X149180714Y-82724761D02*
X150180714Y-82724761D01*
X149228333Y-82724761D02*
X149180714Y-82820000D01*
X149180714Y-83010476D01*
X149228333Y-83105714D01*
X149275952Y-83153333D01*
X149371190Y-83200952D01*
X149656904Y-83200952D01*
X149752142Y-83153333D01*
X149799761Y-83105714D01*
X149847380Y-83010476D01*
X149847380Y-82820000D01*
X149799761Y-82724761D01*
X149799761Y-84010476D02*
X149847380Y-83915238D01*
X149847380Y-83724761D01*
X149799761Y-83629523D01*
X149704523Y-83581904D01*
X149323571Y-83581904D01*
X149228333Y-83629523D01*
X149180714Y-83724761D01*
X149180714Y-83915238D01*
X149228333Y-84010476D01*
X149323571Y-84058095D01*
X149418809Y-84058095D01*
X149514047Y-83581904D01*
X149847380Y-84486666D02*
X149180714Y-84486666D01*
X149371190Y-84486666D02*
X149275952Y-84534285D01*
X149228333Y-84581904D01*
X149180714Y-84677142D01*
X149180714Y-84772380D01*
X149752142Y-86439047D02*
X149799761Y-86391428D01*
X149847380Y-86248571D01*
X149847380Y-86153333D01*
X149799761Y-86010476D01*
X149704523Y-85915238D01*
X149609285Y-85867619D01*
X149418809Y-85820000D01*
X149275952Y-85820000D01*
X149085476Y-85867619D01*
X148990238Y-85915238D01*
X148895000Y-86010476D01*
X148847380Y-86153333D01*
X148847380Y-86248571D01*
X148895000Y-86391428D01*
X148942619Y-86439047D01*
X149180714Y-87486666D02*
X149180714Y-87867619D01*
X148847380Y-87629523D02*
X149704523Y-87629523D01*
X149799761Y-87677142D01*
X149847380Y-87772380D01*
X149847380Y-87867619D01*
X149847380Y-88343809D02*
X149799761Y-88248571D01*
X149752142Y-88200952D01*
X149656904Y-88153333D01*
X149371190Y-88153333D01*
X149275952Y-88200952D01*
X149228333Y-88248571D01*
X149180714Y-88343809D01*
X149180714Y-88486666D01*
X149228333Y-88581904D01*
X149275952Y-88629523D01*
X149371190Y-88677142D01*
X149656904Y-88677142D01*
X149752142Y-88629523D01*
X149799761Y-88581904D01*
X149847380Y-88486666D01*
X149847380Y-88343809D01*
X148847380Y-89867619D02*
X149656904Y-89867619D01*
X149752142Y-89915238D01*
X149799761Y-89962857D01*
X149847380Y-90058095D01*
X149847380Y-90248571D01*
X149799761Y-90343809D01*
X149752142Y-90391428D01*
X149656904Y-90439047D01*
X148847380Y-90439047D01*
X148847380Y-90820000D02*
X148847380Y-91439047D01*
X149228333Y-91105714D01*
X149228333Y-91248571D01*
X149275952Y-91343809D01*
X149323571Y-91391428D01*
X149418809Y-91439047D01*
X149656904Y-91439047D01*
X149752142Y-91391428D01*
X149799761Y-91343809D01*
X149847380Y-91248571D01*
X149847380Y-90962857D01*
X149799761Y-90867619D01*
X149752142Y-90820000D01*
X167287380Y-64057142D02*
X166287380Y-64057142D01*
X166287380Y-64438095D01*
X166335000Y-64533333D01*
X166382619Y-64580952D01*
X166477857Y-64628571D01*
X166620714Y-64628571D01*
X166715952Y-64580952D01*
X166763571Y-64533333D01*
X166811190Y-64438095D01*
X166811190Y-64057142D01*
X167287380Y-65200000D02*
X167239761Y-65104761D01*
X167192142Y-65057142D01*
X167096904Y-65009523D01*
X166811190Y-65009523D01*
X166715952Y-65057142D01*
X166668333Y-65104761D01*
X166620714Y-65200000D01*
X166620714Y-65342857D01*
X166668333Y-65438095D01*
X166715952Y-65485714D01*
X166811190Y-65533333D01*
X167096904Y-65533333D01*
X167192142Y-65485714D01*
X167239761Y-65438095D01*
X167287380Y-65342857D01*
X167287380Y-65200000D01*
X166620714Y-65961904D02*
X167620714Y-65961904D01*
X166668333Y-65961904D02*
X166620714Y-66057142D01*
X166620714Y-66247619D01*
X166668333Y-66342857D01*
X166715952Y-66390476D01*
X166811190Y-66438095D01*
X167096904Y-66438095D01*
X167192142Y-66390476D01*
X167239761Y-66342857D01*
X167287380Y-66247619D01*
X167287380Y-66057142D01*
X167239761Y-65961904D01*
X166620714Y-67295238D02*
X167287380Y-67295238D01*
X166620714Y-66866666D02*
X167144523Y-66866666D01*
X167239761Y-66914285D01*
X167287380Y-67009523D01*
X167287380Y-67152380D01*
X167239761Y-67247619D01*
X167192142Y-67295238D01*
X167287380Y-67914285D02*
X167239761Y-67819047D01*
X167144523Y-67771428D01*
X166287380Y-67771428D01*
X167287380Y-68723809D02*
X166763571Y-68723809D01*
X166668333Y-68676190D01*
X166620714Y-68580952D01*
X166620714Y-68390476D01*
X166668333Y-68295238D01*
X167239761Y-68723809D02*
X167287380Y-68628571D01*
X167287380Y-68390476D01*
X167239761Y-68295238D01*
X167144523Y-68247619D01*
X167049285Y-68247619D01*
X166954047Y-68295238D01*
X166906428Y-68390476D01*
X166906428Y-68628571D01*
X166858809Y-68723809D01*
X166620714Y-69057142D02*
X166620714Y-69438095D01*
X166287380Y-69200000D02*
X167144523Y-69200000D01*
X167239761Y-69247619D01*
X167287380Y-69342857D01*
X167287380Y-69438095D01*
X167239761Y-70152380D02*
X167287380Y-70057142D01*
X167287380Y-69866666D01*
X167239761Y-69771428D01*
X167144523Y-69723809D01*
X166763571Y-69723809D01*
X166668333Y-69771428D01*
X166620714Y-69866666D01*
X166620714Y-70057142D01*
X166668333Y-70152380D01*
X166763571Y-70200000D01*
X166858809Y-70200000D01*
X166954047Y-69723809D01*
X166287380Y-71390476D02*
X167096904Y-71390476D01*
X167192142Y-71438095D01*
X167239761Y-71485714D01*
X167287380Y-71580952D01*
X167287380Y-71771428D01*
X167239761Y-71866666D01*
X167192142Y-71914285D01*
X167096904Y-71961904D01*
X166287380Y-71961904D01*
X166620714Y-72866666D02*
X167287380Y-72866666D01*
X166239761Y-72628571D02*
X166954047Y-72390476D01*
X166954047Y-73009523D01*
X166620714Y-74009523D02*
X166620714Y-74390476D01*
X166287380Y-74152380D02*
X167144523Y-74152380D01*
X167239761Y-74200000D01*
X167287380Y-74295238D01*
X167287380Y-74390476D01*
X167287380Y-74866666D02*
X167239761Y-74771428D01*
X167192142Y-74723809D01*
X167096904Y-74676190D01*
X166811190Y-74676190D01*
X166715952Y-74723809D01*
X166668333Y-74771428D01*
X166620714Y-74866666D01*
X166620714Y-75009523D01*
X166668333Y-75104761D01*
X166715952Y-75152380D01*
X166811190Y-75200000D01*
X167096904Y-75200000D01*
X167192142Y-75152380D01*
X167239761Y-75104761D01*
X167287380Y-75009523D01*
X167287380Y-74866666D01*
X167287380Y-76390476D02*
X166620714Y-76390476D01*
X166811190Y-76390476D02*
X166715952Y-76438095D01*
X166668333Y-76485714D01*
X166620714Y-76580952D01*
X166620714Y-76676190D01*
X167239761Y-77390476D02*
X167287380Y-77295238D01*
X167287380Y-77104761D01*
X167239761Y-77009523D01*
X167144523Y-76961904D01*
X166763571Y-76961904D01*
X166668333Y-77009523D01*
X166620714Y-77104761D01*
X166620714Y-77295238D01*
X166668333Y-77390476D01*
X166763571Y-77438095D01*
X166858809Y-77438095D01*
X166954047Y-76961904D01*
X166620714Y-77866666D02*
X167620714Y-77866666D01*
X166668333Y-77866666D02*
X166620714Y-77961904D01*
X166620714Y-78152380D01*
X166668333Y-78247619D01*
X166715952Y-78295238D01*
X166811190Y-78342857D01*
X167096904Y-78342857D01*
X167192142Y-78295238D01*
X167239761Y-78247619D01*
X167287380Y-78152380D01*
X167287380Y-77961904D01*
X167239761Y-77866666D01*
X167287380Y-78914285D02*
X167239761Y-78819047D01*
X167144523Y-78771428D01*
X166287380Y-78771428D01*
X167287380Y-79723809D02*
X166763571Y-79723809D01*
X166668333Y-79676190D01*
X166620714Y-79580952D01*
X166620714Y-79390476D01*
X166668333Y-79295238D01*
X167239761Y-79723809D02*
X167287380Y-79628571D01*
X167287380Y-79390476D01*
X167239761Y-79295238D01*
X167144523Y-79247619D01*
X167049285Y-79247619D01*
X166954047Y-79295238D01*
X166906428Y-79390476D01*
X166906428Y-79628571D01*
X166858809Y-79723809D01*
X167239761Y-80628571D02*
X167287380Y-80533333D01*
X167287380Y-80342857D01*
X167239761Y-80247619D01*
X167192142Y-80200000D01*
X167096904Y-80152380D01*
X166811190Y-80152380D01*
X166715952Y-80200000D01*
X166668333Y-80247619D01*
X166620714Y-80342857D01*
X166620714Y-80533333D01*
X166668333Y-80628571D01*
X167239761Y-81438095D02*
X167287380Y-81342857D01*
X167287380Y-81152380D01*
X167239761Y-81057142D01*
X167144523Y-81009523D01*
X166763571Y-81009523D01*
X166668333Y-81057142D01*
X166620714Y-81152380D01*
X166620714Y-81342857D01*
X166668333Y-81438095D01*
X166763571Y-81485714D01*
X166858809Y-81485714D01*
X166954047Y-81009523D01*
X167239761Y-82628571D02*
X167287380Y-82723809D01*
X167287380Y-82914285D01*
X167239761Y-83009523D01*
X167144523Y-83057142D01*
X167096904Y-83057142D01*
X167001666Y-83009523D01*
X166954047Y-82914285D01*
X166954047Y-82771428D01*
X166906428Y-82676190D01*
X166811190Y-82628571D01*
X166763571Y-82628571D01*
X166668333Y-82676190D01*
X166620714Y-82771428D01*
X166620714Y-82914285D01*
X166668333Y-83009523D01*
X167287380Y-83628571D02*
X167239761Y-83533333D01*
X167192142Y-83485714D01*
X167096904Y-83438095D01*
X166811190Y-83438095D01*
X166715952Y-83485714D01*
X166668333Y-83533333D01*
X166620714Y-83628571D01*
X166620714Y-83771428D01*
X166668333Y-83866666D01*
X166715952Y-83914285D01*
X166811190Y-83961904D01*
X167096904Y-83961904D01*
X167192142Y-83914285D01*
X167239761Y-83866666D01*
X167287380Y-83771428D01*
X167287380Y-83628571D01*
X167287380Y-84390476D02*
X166620714Y-84390476D01*
X166811190Y-84390476D02*
X166715952Y-84438095D01*
X166668333Y-84485714D01*
X166620714Y-84580952D01*
X166620714Y-84676190D01*
X167239761Y-85438095D02*
X167287380Y-85342857D01*
X167287380Y-85152380D01*
X167239761Y-85057142D01*
X167192142Y-85009523D01*
X167096904Y-84961904D01*
X166811190Y-84961904D01*
X166715952Y-85009523D01*
X166668333Y-85057142D01*
X166620714Y-85152380D01*
X166620714Y-85342857D01*
X166668333Y-85438095D01*
X167239761Y-86247619D02*
X167287380Y-86152380D01*
X167287380Y-85961904D01*
X167239761Y-85866666D01*
X167144523Y-85819047D01*
X166763571Y-85819047D01*
X166668333Y-85866666D01*
X166620714Y-85961904D01*
X166620714Y-86152380D01*
X166668333Y-86247619D01*
X166763571Y-86295238D01*
X166858809Y-86295238D01*
X166954047Y-85819047D01*
X167287380Y-86723809D02*
X166620714Y-86723809D01*
X166811190Y-86723809D02*
X166715952Y-86771428D01*
X166668333Y-86819047D01*
X166620714Y-86914285D01*
X166620714Y-87009523D01*
X167239761Y-87723809D02*
X167287380Y-87628571D01*
X167287380Y-87438095D01*
X167239761Y-87342857D01*
X167144523Y-87295238D01*
X166763571Y-87295238D01*
X166668333Y-87342857D01*
X166620714Y-87438095D01*
X166620714Y-87628571D01*
X166668333Y-87723809D01*
X166763571Y-87771428D01*
X166858809Y-87771428D01*
X166954047Y-87295238D01*
X167287380Y-88200000D02*
X166620714Y-88200000D01*
X166811190Y-88200000D02*
X166715952Y-88247619D01*
X166668333Y-88295238D01*
X166620714Y-88390476D01*
X166620714Y-88485714D01*
X168897380Y-70200000D02*
X167897380Y-70200000D01*
X167897380Y-70438095D01*
X167945000Y-70580952D01*
X168040238Y-70676190D01*
X168135476Y-70723809D01*
X168325952Y-70771428D01*
X168468809Y-70771428D01*
X168659285Y-70723809D01*
X168754523Y-70676190D01*
X168849761Y-70580952D01*
X168897380Y-70438095D01*
X168897380Y-70200000D01*
X168897380Y-71771428D02*
X168421190Y-71438095D01*
X168897380Y-71200000D02*
X167897380Y-71200000D01*
X167897380Y-71580952D01*
X167945000Y-71676190D01*
X167992619Y-71723809D01*
X168087857Y-71771428D01*
X168230714Y-71771428D01*
X168325952Y-71723809D01*
X168373571Y-71676190D01*
X168421190Y-71580952D01*
X168421190Y-71200000D01*
X168611666Y-72152380D02*
X168611666Y-72628571D01*
X168897380Y-72057142D02*
X167897380Y-72390476D01*
X168897380Y-72723809D01*
X168897380Y-73057142D02*
X167897380Y-73057142D01*
X168611666Y-73390476D01*
X167897380Y-73723809D01*
X168897380Y-73723809D01*
X168230714Y-75390476D02*
X168897380Y-75390476D01*
X168230714Y-74961904D02*
X168754523Y-74961904D01*
X168849761Y-75009523D01*
X168897380Y-75104761D01*
X168897380Y-75247619D01*
X168849761Y-75342857D01*
X168802142Y-75390476D01*
X168230714Y-75866666D02*
X169230714Y-75866666D01*
X168278333Y-75866666D02*
X168230714Y-75961904D01*
X168230714Y-76152380D01*
X168278333Y-76247619D01*
X168325952Y-76295238D01*
X168421190Y-76342857D01*
X168706904Y-76342857D01*
X168802142Y-76295238D01*
X168849761Y-76247619D01*
X168897380Y-76152380D01*
X168897380Y-75961904D01*
X168849761Y-75866666D01*
X168230714Y-77390476D02*
X168230714Y-77771428D01*
X167897380Y-77533333D02*
X168754523Y-77533333D01*
X168849761Y-77580952D01*
X168897380Y-77676190D01*
X168897380Y-77771428D01*
X168897380Y-78247619D02*
X168849761Y-78152380D01*
X168802142Y-78104761D01*
X168706904Y-78057142D01*
X168421190Y-78057142D01*
X168325952Y-78104761D01*
X168278333Y-78152380D01*
X168230714Y-78247619D01*
X168230714Y-78390476D01*
X168278333Y-78485714D01*
X168325952Y-78533333D01*
X168421190Y-78580952D01*
X168706904Y-78580952D01*
X168802142Y-78533333D01*
X168849761Y-78485714D01*
X168897380Y-78390476D01*
X168897380Y-78247619D01*
X167897380Y-79676190D02*
X167897380Y-80295238D01*
X168278333Y-79961904D01*
X168278333Y-80104761D01*
X168325952Y-80200000D01*
X168373571Y-80247619D01*
X168468809Y-80295238D01*
X168706904Y-80295238D01*
X168802142Y-80247619D01*
X168849761Y-80200000D01*
X168897380Y-80104761D01*
X168897380Y-79819047D01*
X168849761Y-79723809D01*
X168802142Y-79676190D01*
X167992619Y-80676190D02*
X167945000Y-80723809D01*
X167897380Y-80819047D01*
X167897380Y-81057142D01*
X167945000Y-81152380D01*
X167992619Y-81200000D01*
X168087857Y-81247619D01*
X168183095Y-81247619D01*
X168325952Y-81200000D01*
X168897380Y-80628571D01*
X168897380Y-81247619D01*
X168897380Y-81676190D02*
X167897380Y-81676190D01*
X168897380Y-82247619D02*
X168325952Y-81819047D01*
X167897380Y-82247619D02*
X168468809Y-81676190D01*
X113942857Y-87796666D02*
X113466667Y-87796666D01*
X114038095Y-88082380D02*
X113704762Y-87082380D01*
X113371429Y-88082380D01*
X112514286Y-88082380D02*
X113085714Y-88082380D01*
X112800000Y-88082380D02*
X112800000Y-87082380D01*
X112895238Y-87225238D01*
X112990476Y-87320476D01*
X113085714Y-87368095D01*
X122562857Y-69350000D02*
X122658095Y-69302380D01*
X122800952Y-69302380D01*
X122943809Y-69350000D01*
X123039047Y-69445238D01*
X123086666Y-69540476D01*
X123134285Y-69730952D01*
X123134285Y-69873809D01*
X123086666Y-70064285D01*
X123039047Y-70159523D01*
X122943809Y-70254761D01*
X122800952Y-70302380D01*
X122705714Y-70302380D01*
X122562857Y-70254761D01*
X122515238Y-70207142D01*
X122515238Y-69873809D01*
X122705714Y-69873809D01*
X122086666Y-69635714D02*
X122086666Y-70302380D01*
X122086666Y-69730952D02*
X122039047Y-69683333D01*
X121943809Y-69635714D01*
X121800952Y-69635714D01*
X121705714Y-69683333D01*
X121658095Y-69778571D01*
X121658095Y-70302380D01*
X120753333Y-70302380D02*
X120753333Y-69302380D01*
X120753333Y-70254761D02*
X120848571Y-70302380D01*
X121039047Y-70302380D01*
X121134285Y-70254761D01*
X121181904Y-70207142D01*
X121229523Y-70111904D01*
X121229523Y-69826190D01*
X121181904Y-69730952D01*
X121134285Y-69683333D01*
X121039047Y-69635714D01*
X120848571Y-69635714D01*
X120753333Y-69683333D01*
X113942857Y-82716666D02*
X113466667Y-82716666D01*
X114038095Y-83002380D02*
X113704762Y-82002380D01*
X113371429Y-83002380D01*
X113133333Y-82002380D02*
X112514286Y-82002380D01*
X112847619Y-82383333D01*
X112704762Y-82383333D01*
X112609524Y-82430952D01*
X112561905Y-82478571D01*
X112514286Y-82573809D01*
X112514286Y-82811904D01*
X112561905Y-82907142D01*
X112609524Y-82954761D01*
X112704762Y-83002380D01*
X112990476Y-83002380D01*
X113085714Y-82954761D01*
X113133333Y-82907142D01*
X113942857Y-72556666D02*
X113466667Y-72556666D01*
X114038095Y-72842380D02*
X113704762Y-71842380D01*
X113371429Y-72842380D01*
X113133333Y-71842380D02*
X112466667Y-71842380D01*
X112895238Y-72842380D01*
X123062857Y-59142380D02*
X122967619Y-59142380D01*
X122872380Y-59190000D01*
X122824761Y-59237619D01*
X122777142Y-59332857D01*
X122729523Y-59523333D01*
X122729523Y-59761428D01*
X122777142Y-59951904D01*
X122824761Y-60047142D01*
X122872380Y-60094761D01*
X122967619Y-60142380D01*
X123062857Y-60142380D01*
X123158095Y-60094761D01*
X123205714Y-60047142D01*
X123253333Y-59951904D01*
X123300952Y-59761428D01*
X123300952Y-59523333D01*
X123253333Y-59332857D01*
X123205714Y-59237619D01*
X123158095Y-59190000D01*
X123062857Y-59142380D01*
X122300952Y-59761428D02*
X121539047Y-59761428D01*
X121158095Y-59142380D02*
X120539047Y-59142380D01*
X120872380Y-59523333D01*
X120729523Y-59523333D01*
X120634285Y-59570952D01*
X120586666Y-59618571D01*
X120539047Y-59713809D01*
X120539047Y-59951904D01*
X120586666Y-60047142D01*
X120634285Y-60094761D01*
X120729523Y-60142380D01*
X121015238Y-60142380D01*
X121110476Y-60094761D01*
X121158095Y-60047142D01*
X113942857Y-80176666D02*
X113466667Y-80176666D01*
X114038095Y-80462380D02*
X113704762Y-79462380D01*
X113371429Y-80462380D01*
X112609524Y-79795714D02*
X112609524Y-80462380D01*
X112847619Y-79414761D02*
X113085714Y-80129047D01*
X112466667Y-80129047D01*
X122658095Y-67667142D02*
X122705714Y-67714761D01*
X122848571Y-67762380D01*
X122943809Y-67762380D01*
X123086666Y-67714761D01*
X123181904Y-67619523D01*
X123229523Y-67524285D01*
X123277142Y-67333809D01*
X123277142Y-67190952D01*
X123229523Y-67000476D01*
X123181904Y-66905238D01*
X123086666Y-66810000D01*
X122943809Y-66762380D01*
X122848571Y-66762380D01*
X122705714Y-66810000D01*
X122658095Y-66857619D01*
X122229523Y-67381428D02*
X121467619Y-67381428D01*
X120658095Y-67238571D02*
X120991428Y-67238571D01*
X120991428Y-67762380D02*
X120991428Y-66762380D01*
X120515238Y-66762380D01*
X113966667Y-95702380D02*
X113966667Y-94702380D01*
X113728572Y-94702380D01*
X113585714Y-94750000D01*
X113490476Y-94845238D01*
X113442857Y-94940476D01*
X113395238Y-95130952D01*
X113395238Y-95273809D01*
X113442857Y-95464285D01*
X113490476Y-95559523D01*
X113585714Y-95654761D01*
X113728572Y-95702380D01*
X113966667Y-95702380D01*
X112442857Y-95702380D02*
X113014286Y-95702380D01*
X112728572Y-95702380D02*
X112728572Y-94702380D01*
X112823810Y-94845238D01*
X112919048Y-94940476D01*
X113014286Y-94988095D01*
X122674047Y-98242380D02*
X122674047Y-97242380D01*
X122435952Y-97242380D01*
X122293094Y-97290000D01*
X122197856Y-97385238D01*
X122150237Y-97480476D01*
X122102618Y-97670952D01*
X122102618Y-97813809D01*
X122150237Y-98004285D01*
X122197856Y-98099523D01*
X122293094Y-98194761D01*
X122435952Y-98242380D01*
X122674047Y-98242380D01*
X121245475Y-97575714D02*
X121245475Y-98242380D01*
X121483571Y-97194761D02*
X121721666Y-97909047D01*
X121102618Y-97909047D01*
X113863095Y-65222380D02*
X114196428Y-64746190D01*
X114434523Y-65222380D02*
X114434523Y-64222380D01*
X114053571Y-64222380D01*
X113958333Y-64270000D01*
X113910714Y-64317619D01*
X113863095Y-64412857D01*
X113863095Y-64555714D01*
X113910714Y-64650952D01*
X113958333Y-64698571D01*
X114053571Y-64746190D01*
X114434523Y-64746190D01*
X113244047Y-64222380D02*
X113053571Y-64222380D01*
X112958333Y-64270000D01*
X112863095Y-64365238D01*
X112815476Y-64555714D01*
X112815476Y-64889047D01*
X112863095Y-65079523D01*
X112958333Y-65174761D01*
X113053571Y-65222380D01*
X113244047Y-65222380D01*
X113339285Y-65174761D01*
X113434523Y-65079523D01*
X113482142Y-64889047D01*
X113482142Y-64555714D01*
X113434523Y-64365238D01*
X113339285Y-64270000D01*
X113244047Y-64222380D01*
X112386904Y-65222380D02*
X112386904Y-64222380D01*
X112053571Y-64936666D01*
X111720238Y-64222380D01*
X111720238Y-65222380D01*
X110672619Y-65222380D02*
X111005952Y-64746190D01*
X111244047Y-65222380D02*
X111244047Y-64222380D01*
X110863095Y-64222380D01*
X110767857Y-64270000D01*
X110720238Y-64317619D01*
X110672619Y-64412857D01*
X110672619Y-64555714D01*
X110720238Y-64650952D01*
X110767857Y-64698571D01*
X110863095Y-64746190D01*
X111244047Y-64746190D01*
X110244047Y-65222380D02*
X110244047Y-64222380D01*
X110005952Y-64222380D01*
X109863095Y-64270000D01*
X109767857Y-64365238D01*
X109720238Y-64460476D01*
X109672619Y-64650952D01*
X109672619Y-64793809D01*
X109720238Y-64984285D01*
X109767857Y-65079523D01*
X109863095Y-65174761D01*
X110005952Y-65222380D01*
X110244047Y-65222380D01*
X108720238Y-65222380D02*
X109291666Y-65222380D01*
X109005952Y-65222380D02*
X109005952Y-64222380D01*
X109101190Y-64365238D01*
X109196428Y-64460476D01*
X109291666Y-64508095D01*
X107815476Y-64222380D02*
X108291666Y-64222380D01*
X108339285Y-64698571D01*
X108291666Y-64650952D01*
X108196428Y-64603333D01*
X107958333Y-64603333D01*
X107863095Y-64650952D01*
X107815476Y-64698571D01*
X107767857Y-64793809D01*
X107767857Y-65031904D01*
X107815476Y-65127142D01*
X107863095Y-65174761D01*
X107958333Y-65222380D01*
X108196428Y-65222380D01*
X108291666Y-65174761D01*
X108339285Y-65127142D01*
X113918809Y-61634761D02*
X114775952Y-62920476D01*
X113585476Y-62682380D02*
X113585476Y-61682380D01*
X113252142Y-62396666D01*
X112918809Y-61682380D01*
X112918809Y-62682380D01*
X112252142Y-61682380D02*
X112061666Y-61682380D01*
X111966428Y-61730000D01*
X111871190Y-61825238D01*
X111823571Y-62015714D01*
X111823571Y-62349047D01*
X111871190Y-62539523D01*
X111966428Y-62634761D01*
X112061666Y-62682380D01*
X112252142Y-62682380D01*
X112347380Y-62634761D01*
X112442619Y-62539523D01*
X112490238Y-62349047D01*
X112490238Y-62015714D01*
X112442619Y-61825238D01*
X112347380Y-61730000D01*
X112252142Y-61682380D01*
X111061666Y-62158571D02*
X111395000Y-62158571D01*
X111395000Y-62682380D02*
X111395000Y-61682380D01*
X110918809Y-61682380D01*
X110204523Y-62158571D02*
X110537857Y-62158571D01*
X110537857Y-62682380D02*
X110537857Y-61682380D01*
X110061666Y-61682380D01*
X113672857Y-99830000D02*
X113768095Y-99782380D01*
X113910952Y-99782380D01*
X114053809Y-99830000D01*
X114149047Y-99925238D01*
X114196666Y-100020476D01*
X114244285Y-100210952D01*
X114244285Y-100353809D01*
X114196666Y-100544285D01*
X114149047Y-100639523D01*
X114053809Y-100734761D01*
X113910952Y-100782380D01*
X113815714Y-100782380D01*
X113672857Y-100734761D01*
X113625238Y-100687142D01*
X113625238Y-100353809D01*
X113815714Y-100353809D01*
X113196666Y-100115714D02*
X113196666Y-100782380D01*
X113196666Y-100210952D02*
X113149047Y-100163333D01*
X113053809Y-100115714D01*
X112910952Y-100115714D01*
X112815714Y-100163333D01*
X112768095Y-100258571D01*
X112768095Y-100782380D01*
X111863333Y-100782380D02*
X111863333Y-99782380D01*
X111863333Y-100734761D02*
X111958571Y-100782380D01*
X112149047Y-100782380D01*
X112244285Y-100734761D01*
X112291904Y-100687142D01*
X112339523Y-100591904D01*
X112339523Y-100306190D01*
X112291904Y-100210952D01*
X112244285Y-100163333D01*
X112149047Y-100115714D01*
X111958571Y-100115714D01*
X111863333Y-100163333D01*
X122674047Y-90622380D02*
X122674047Y-89622380D01*
X122435952Y-89622380D01*
X122293094Y-89670000D01*
X122197856Y-89765238D01*
X122150237Y-89860476D01*
X122102618Y-90050952D01*
X122102618Y-90193809D01*
X122150237Y-90384285D01*
X122197856Y-90479523D01*
X122293094Y-90574761D01*
X122435952Y-90622380D01*
X122674047Y-90622380D01*
X121769285Y-89622380D02*
X121102618Y-89622380D01*
X121531190Y-90622380D01*
X113942857Y-77636666D02*
X113466667Y-77636666D01*
X114038095Y-77922380D02*
X113704762Y-76922380D01*
X113371429Y-77922380D01*
X112561905Y-76922380D02*
X113038095Y-76922380D01*
X113085714Y-77398571D01*
X113038095Y-77350952D01*
X112942857Y-77303333D01*
X112704762Y-77303333D01*
X112609524Y-77350952D01*
X112561905Y-77398571D01*
X112514286Y-77493809D01*
X112514286Y-77731904D01*
X112561905Y-77827142D01*
X112609524Y-77874761D01*
X112704762Y-77922380D01*
X112942857Y-77922380D01*
X113038095Y-77874761D01*
X113085714Y-77827142D01*
X113942857Y-75096666D02*
X113466667Y-75096666D01*
X114038095Y-75382380D02*
X113704762Y-74382380D01*
X113371429Y-75382380D01*
X112609524Y-74382380D02*
X112800000Y-74382380D01*
X112895238Y-74430000D01*
X112942857Y-74477619D01*
X113038095Y-74620476D01*
X113085714Y-74810952D01*
X113085714Y-75191904D01*
X113038095Y-75287142D01*
X112990476Y-75334761D01*
X112895238Y-75382380D01*
X112704762Y-75382380D01*
X112609524Y-75334761D01*
X112561905Y-75287142D01*
X112514286Y-75191904D01*
X112514286Y-74953809D01*
X112561905Y-74858571D01*
X112609524Y-74810952D01*
X112704762Y-74763333D01*
X112895238Y-74763333D01*
X112990476Y-74810952D01*
X113038095Y-74858571D01*
X113085714Y-74953809D01*
X113942857Y-85256666D02*
X113466667Y-85256666D01*
X114038095Y-85542380D02*
X113704762Y-84542380D01*
X113371429Y-85542380D01*
X113085714Y-84637619D02*
X113038095Y-84590000D01*
X112942857Y-84542380D01*
X112704762Y-84542380D01*
X112609524Y-84590000D01*
X112561905Y-84637619D01*
X112514286Y-84732857D01*
X112514286Y-84828095D01*
X112561905Y-84970952D01*
X113133333Y-85542380D01*
X112514286Y-85542380D01*
X122824761Y-62015714D02*
X122824761Y-62682380D01*
X123062857Y-61634761D02*
X123300952Y-62349047D01*
X122681904Y-62349047D01*
X122300952Y-62301428D02*
X121539047Y-62301428D01*
X121158095Y-61682380D02*
X120491428Y-61682380D01*
X120920000Y-62682380D01*
X122650237Y-77636666D02*
X122174047Y-77636666D01*
X122745475Y-77922380D02*
X122412142Y-76922380D01*
X122078809Y-77922380D01*
X121697856Y-77922380D02*
X121507380Y-77922380D01*
X121412142Y-77874761D01*
X121364523Y-77827142D01*
X121269285Y-77684285D01*
X121221666Y-77493809D01*
X121221666Y-77112857D01*
X121269285Y-77017619D01*
X121316904Y-76970000D01*
X121412142Y-76922380D01*
X121602618Y-76922380D01*
X121697856Y-76970000D01*
X121745475Y-77017619D01*
X121793094Y-77112857D01*
X121793094Y-77350952D01*
X121745475Y-77446190D01*
X121697856Y-77493809D01*
X121602618Y-77541428D01*
X121412142Y-77541428D01*
X121316904Y-77493809D01*
X121269285Y-77446190D01*
X121221666Y-77350952D01*
X137410714Y-73613333D02*
X137410714Y-73994285D01*
X138077380Y-73756190D02*
X137220238Y-73756190D01*
X137125000Y-73803809D01*
X137077380Y-73899047D01*
X137077380Y-73994285D01*
X138077380Y-74470476D02*
X138029761Y-74375238D01*
X137982142Y-74327619D01*
X137886904Y-74280000D01*
X137601190Y-74280000D01*
X137505952Y-74327619D01*
X137458333Y-74375238D01*
X137410714Y-74470476D01*
X137410714Y-74613333D01*
X137458333Y-74708571D01*
X137505952Y-74756190D01*
X137601190Y-74803809D01*
X137886904Y-74803809D01*
X137982142Y-74756190D01*
X138029761Y-74708571D01*
X138077380Y-74613333D01*
X138077380Y-74470476D01*
X138077380Y-75232380D02*
X137410714Y-75232380D01*
X137601190Y-75232380D02*
X137505952Y-75280000D01*
X137458333Y-75327619D01*
X137410714Y-75422857D01*
X137410714Y-75518095D01*
X137410714Y-77041904D02*
X138077380Y-77041904D01*
X137029761Y-76803809D02*
X137744047Y-76565714D01*
X137744047Y-77184761D01*
X137505952Y-77708571D02*
X137458333Y-77613333D01*
X137410714Y-77565714D01*
X137315476Y-77518095D01*
X137267857Y-77518095D01*
X137172619Y-77565714D01*
X137125000Y-77613333D01*
X137077380Y-77708571D01*
X137077380Y-77899047D01*
X137125000Y-77994285D01*
X137172619Y-78041904D01*
X137267857Y-78089523D01*
X137315476Y-78089523D01*
X137410714Y-78041904D01*
X137458333Y-77994285D01*
X137505952Y-77899047D01*
X137505952Y-77708571D01*
X137553571Y-77613333D01*
X137601190Y-77565714D01*
X137696428Y-77518095D01*
X137886904Y-77518095D01*
X137982142Y-77565714D01*
X138029761Y-77613333D01*
X138077380Y-77708571D01*
X138077380Y-77899047D01*
X138029761Y-77994285D01*
X137982142Y-78041904D01*
X137886904Y-78089523D01*
X137696428Y-78089523D01*
X137601190Y-78041904D01*
X137553571Y-77994285D01*
X137505952Y-77899047D01*
X138077380Y-78518095D02*
X137077380Y-78518095D01*
X138077380Y-79089523D02*
X137505952Y-78660952D01*
X137077380Y-79089523D02*
X137648809Y-78518095D01*
X137410714Y-80137142D02*
X137410714Y-80518095D01*
X137077380Y-80280000D02*
X137934523Y-80280000D01*
X138029761Y-80327619D01*
X138077380Y-80422857D01*
X138077380Y-80518095D01*
X138077380Y-80994285D02*
X138029761Y-80899047D01*
X137982142Y-80851428D01*
X137886904Y-80803809D01*
X137601190Y-80803809D01*
X137505952Y-80851428D01*
X137458333Y-80899047D01*
X137410714Y-80994285D01*
X137410714Y-81137142D01*
X137458333Y-81232380D01*
X137505952Y-81280000D01*
X137601190Y-81327619D01*
X137886904Y-81327619D01*
X137982142Y-81280000D01*
X138029761Y-81232380D01*
X138077380Y-81137142D01*
X138077380Y-80994285D01*
X137077380Y-82994285D02*
X137077380Y-82518095D01*
X137553571Y-82470476D01*
X137505952Y-82518095D01*
X137458333Y-82613333D01*
X137458333Y-82851428D01*
X137505952Y-82946666D01*
X137553571Y-82994285D01*
X137648809Y-83041904D01*
X137886904Y-83041904D01*
X137982142Y-82994285D01*
X138029761Y-82946666D01*
X138077380Y-82851428D01*
X138077380Y-82613333D01*
X138029761Y-82518095D01*
X137982142Y-82470476D01*
X137077380Y-83899047D02*
X137077380Y-83708571D01*
X137125000Y-83613333D01*
X137172619Y-83565714D01*
X137315476Y-83470476D01*
X137505952Y-83422857D01*
X137886904Y-83422857D01*
X137982142Y-83470476D01*
X138029761Y-83518095D01*
X138077380Y-83613333D01*
X138077380Y-83803809D01*
X138029761Y-83899047D01*
X137982142Y-83946666D01*
X137886904Y-83994285D01*
X137648809Y-83994285D01*
X137553571Y-83946666D01*
X137505952Y-83899047D01*
X137458333Y-83803809D01*
X137458333Y-83613333D01*
X137505952Y-83518095D01*
X137553571Y-83470476D01*
X137648809Y-83422857D01*
X138077380Y-84422857D02*
X137077380Y-84422857D01*
X138077380Y-84994285D02*
X137505952Y-84565714D01*
X137077380Y-84994285D02*
X137648809Y-84422857D01*
X138077380Y-86327619D02*
X138029761Y-86232380D01*
X137982142Y-86184761D01*
X137886904Y-86137142D01*
X137601190Y-86137142D01*
X137505952Y-86184761D01*
X137458333Y-86232380D01*
X137410714Y-86327619D01*
X137410714Y-86470476D01*
X137458333Y-86565714D01*
X137505952Y-86613333D01*
X137601190Y-86660952D01*
X137886904Y-86660952D01*
X137982142Y-86613333D01*
X138029761Y-86565714D01*
X138077380Y-86470476D01*
X138077380Y-86327619D01*
X137410714Y-87089523D02*
X138077380Y-87089523D01*
X137505952Y-87089523D02*
X137458333Y-87137142D01*
X137410714Y-87232380D01*
X137410714Y-87375238D01*
X137458333Y-87470476D01*
X137553571Y-87518095D01*
X138077380Y-87518095D01*
X138077380Y-88137142D02*
X138029761Y-88041904D01*
X137934523Y-87994285D01*
X137077380Y-87994285D01*
X137410714Y-88422857D02*
X138077380Y-88660952D01*
X137410714Y-88899047D02*
X138077380Y-88660952D01*
X138315476Y-88565714D01*
X138363095Y-88518095D01*
X138410714Y-88422857D01*
X139687380Y-70399047D02*
X138687380Y-70399047D01*
X138687380Y-70780000D01*
X138735000Y-70875238D01*
X138782619Y-70922857D01*
X138877857Y-70970476D01*
X139020714Y-70970476D01*
X139115952Y-70922857D01*
X139163571Y-70875238D01*
X139211190Y-70780000D01*
X139211190Y-70399047D01*
X139687380Y-71541904D02*
X139639761Y-71446666D01*
X139592142Y-71399047D01*
X139496904Y-71351428D01*
X139211190Y-71351428D01*
X139115952Y-71399047D01*
X139068333Y-71446666D01*
X139020714Y-71541904D01*
X139020714Y-71684761D01*
X139068333Y-71780000D01*
X139115952Y-71827619D01*
X139211190Y-71875238D01*
X139496904Y-71875238D01*
X139592142Y-71827619D01*
X139639761Y-71780000D01*
X139687380Y-71684761D01*
X139687380Y-71541904D01*
X139020714Y-72303809D02*
X140020714Y-72303809D01*
X139068333Y-72303809D02*
X139020714Y-72399047D01*
X139020714Y-72589523D01*
X139068333Y-72684761D01*
X139115952Y-72732380D01*
X139211190Y-72780000D01*
X139496904Y-72780000D01*
X139592142Y-72732380D01*
X139639761Y-72684761D01*
X139687380Y-72589523D01*
X139687380Y-72399047D01*
X139639761Y-72303809D01*
X139020714Y-73637142D02*
X139687380Y-73637142D01*
X139020714Y-73208571D02*
X139544523Y-73208571D01*
X139639761Y-73256190D01*
X139687380Y-73351428D01*
X139687380Y-73494285D01*
X139639761Y-73589523D01*
X139592142Y-73637142D01*
X139687380Y-74256190D02*
X139639761Y-74160952D01*
X139544523Y-74113333D01*
X138687380Y-74113333D01*
X139687380Y-75065714D02*
X139163571Y-75065714D01*
X139068333Y-75018095D01*
X139020714Y-74922857D01*
X139020714Y-74732380D01*
X139068333Y-74637142D01*
X139639761Y-75065714D02*
X139687380Y-74970476D01*
X139687380Y-74732380D01*
X139639761Y-74637142D01*
X139544523Y-74589523D01*
X139449285Y-74589523D01*
X139354047Y-74637142D01*
X139306428Y-74732380D01*
X139306428Y-74970476D01*
X139258809Y-75065714D01*
X139020714Y-75399047D02*
X139020714Y-75779999D01*
X138687380Y-75541904D02*
X139544523Y-75541904D01*
X139639761Y-75589523D01*
X139687380Y-75684761D01*
X139687380Y-75779999D01*
X139639761Y-76494285D02*
X139687380Y-76399047D01*
X139687380Y-76208571D01*
X139639761Y-76113333D01*
X139544523Y-76065714D01*
X139163571Y-76065714D01*
X139068333Y-76113333D01*
X139020714Y-76208571D01*
X139020714Y-76399047D01*
X139068333Y-76494285D01*
X139163571Y-76541904D01*
X139258809Y-76541904D01*
X139354047Y-76065714D01*
X138687380Y-77732380D02*
X139496904Y-77732380D01*
X139592142Y-77779999D01*
X139639761Y-77827619D01*
X139687380Y-77922857D01*
X139687380Y-78113333D01*
X139639761Y-78208571D01*
X139592142Y-78256190D01*
X139496904Y-78303809D01*
X138687380Y-78303809D01*
X139687380Y-79303809D02*
X139687380Y-78732380D01*
X139687380Y-79018095D02*
X138687380Y-79018095D01*
X138830238Y-78922857D01*
X138925476Y-78827619D01*
X138973095Y-78732380D01*
X138639761Y-80446666D02*
X139925476Y-79589523D01*
X138687380Y-80779999D02*
X139496904Y-80779999D01*
X139592142Y-80827619D01*
X139639761Y-80875238D01*
X139687380Y-80970476D01*
X139687380Y-81160952D01*
X139639761Y-81256190D01*
X139592142Y-81303809D01*
X139496904Y-81351428D01*
X138687380Y-81351428D01*
X138782619Y-81779999D02*
X138735000Y-81827619D01*
X138687380Y-81922857D01*
X138687380Y-82160952D01*
X138735000Y-82256190D01*
X138782619Y-82303809D01*
X138877857Y-82351428D01*
X138973095Y-82351428D01*
X139115952Y-82303809D01*
X139687380Y-81732380D01*
X139687380Y-82351428D01*
X138639761Y-83494285D02*
X139925476Y-82637142D01*
X139592142Y-84399047D02*
X139639761Y-84351428D01*
X139687380Y-84208571D01*
X139687380Y-84113333D01*
X139639761Y-83970476D01*
X139544523Y-83875238D01*
X139449285Y-83827619D01*
X139258809Y-83779999D01*
X139115952Y-83779999D01*
X138925476Y-83827619D01*
X138830238Y-83875238D01*
X138735000Y-83970476D01*
X138687380Y-84113333D01*
X138687380Y-84208571D01*
X138735000Y-84351428D01*
X138782619Y-84399047D01*
X139687380Y-85351428D02*
X139687380Y-84779999D01*
X139687380Y-85065714D02*
X138687380Y-85065714D01*
X138830238Y-84970476D01*
X138925476Y-84875238D01*
X138973095Y-84779999D01*
X138639761Y-86494285D02*
X139925476Y-85637142D01*
X139592142Y-87399047D02*
X139639761Y-87351428D01*
X139687380Y-87208571D01*
X139687380Y-87113333D01*
X139639761Y-86970476D01*
X139544523Y-86875238D01*
X139449285Y-86827619D01*
X139258809Y-86779999D01*
X139115952Y-86779999D01*
X138925476Y-86827619D01*
X138830238Y-86875238D01*
X138735000Y-86970476D01*
X138687380Y-87113333D01*
X138687380Y-87208571D01*
X138735000Y-87351428D01*
X138782619Y-87399047D01*
X138782619Y-87779999D02*
X138735000Y-87827619D01*
X138687380Y-87922857D01*
X138687380Y-88160952D01*
X138735000Y-88256190D01*
X138782619Y-88303809D01*
X138877857Y-88351428D01*
X138973095Y-88351428D01*
X139115952Y-88303809D01*
X139687380Y-87732380D01*
X139687380Y-88351428D01*
X139687380Y-89684761D02*
X139639761Y-89589523D01*
X139592142Y-89541904D01*
X139496904Y-89494285D01*
X139211190Y-89494285D01*
X139115952Y-89541904D01*
X139068333Y-89589523D01*
X139020714Y-89684761D01*
X139020714Y-89827619D01*
X139068333Y-89922857D01*
X139115952Y-89970476D01*
X139211190Y-90018095D01*
X139496904Y-90018095D01*
X139592142Y-89970476D01*
X139639761Y-89922857D01*
X139687380Y-89827619D01*
X139687380Y-89684761D01*
X139020714Y-90446666D02*
X139687380Y-90446666D01*
X139115952Y-90446666D02*
X139068333Y-90494285D01*
X139020714Y-90589523D01*
X139020714Y-90732380D01*
X139068333Y-90827619D01*
X139163571Y-90875238D01*
X139687380Y-90875238D01*
X139687380Y-91494285D02*
X139639761Y-91399047D01*
X139544523Y-91351428D01*
X138687380Y-91351428D01*
X139020714Y-91779999D02*
X139687380Y-92018095D01*
X139020714Y-92256190D02*
X139687380Y-92018095D01*
X139925476Y-91922857D01*
X139973095Y-91875238D01*
X140020714Y-91779999D01*
X123110476Y-85256666D02*
X122634285Y-85256666D01*
X123205714Y-85542380D02*
X122872380Y-84542380D01*
X122539047Y-85542380D01*
X121681904Y-85542380D02*
X122253333Y-85542380D01*
X121967619Y-85542380D02*
X121967619Y-84542380D01*
X122062857Y-84685238D01*
X122158095Y-84780476D01*
X122253333Y-84828095D01*
X121062857Y-84542380D02*
X120967619Y-84542380D01*
X120872380Y-84590000D01*
X120824761Y-84637619D01*
X120777142Y-84732857D01*
X120729523Y-84923333D01*
X120729523Y-85161428D01*
X120777142Y-85351904D01*
X120824761Y-85447142D01*
X120872380Y-85494761D01*
X120967619Y-85542380D01*
X121062857Y-85542380D01*
X121158095Y-85494761D01*
X121205714Y-85447142D01*
X121253333Y-85351904D01*
X121300952Y-85161428D01*
X121300952Y-84923333D01*
X121253333Y-84732857D01*
X121205714Y-84637619D01*
X121158095Y-84590000D01*
X121062857Y-84542380D01*
X114220476Y-70016666D02*
X113744285Y-70016666D01*
X114315714Y-70302380D02*
X113982380Y-69302380D01*
X113649047Y-70302380D01*
X112791904Y-70302380D02*
X113363333Y-70302380D01*
X113077619Y-70302380D02*
X113077619Y-69302380D01*
X113172857Y-69445238D01*
X113268095Y-69540476D01*
X113363333Y-69588095D01*
X112410952Y-69397619D02*
X112363333Y-69350000D01*
X112268095Y-69302380D01*
X112030000Y-69302380D01*
X111934761Y-69350000D01*
X111887142Y-69397619D01*
X111839523Y-69492857D01*
X111839523Y-69588095D01*
X111887142Y-69730952D01*
X112458571Y-70302380D01*
X111839523Y-70302380D01*
X122078809Y-87082380D02*
X122554999Y-87082380D01*
X122602618Y-87558571D01*
X122554999Y-87510952D01*
X122459761Y-87463333D01*
X122221666Y-87463333D01*
X122126428Y-87510952D01*
X122078809Y-87558571D01*
X122031190Y-87653809D01*
X122031190Y-87891904D01*
X122078809Y-87987142D01*
X122126428Y-88034761D01*
X122221666Y-88082380D01*
X122459761Y-88082380D01*
X122554999Y-88034761D01*
X122602618Y-87987142D01*
X121697856Y-87415714D02*
X121459761Y-88082380D01*
X121221666Y-87415714D01*
X122674047Y-95702380D02*
X122674047Y-94702380D01*
X122435952Y-94702380D01*
X122293094Y-94750000D01*
X122197856Y-94845238D01*
X122150237Y-94940476D01*
X122102618Y-95130952D01*
X122102618Y-95273809D01*
X122150237Y-95464285D01*
X122197856Y-95559523D01*
X122293094Y-95654761D01*
X122435952Y-95702380D01*
X122674047Y-95702380D01*
X121197856Y-94702380D02*
X121674047Y-94702380D01*
X121721666Y-95178571D01*
X121674047Y-95130952D01*
X121578809Y-95083333D01*
X121340713Y-95083333D01*
X121245475Y-95130952D01*
X121197856Y-95178571D01*
X121150237Y-95273809D01*
X121150237Y-95511904D01*
X121197856Y-95607142D01*
X121245475Y-95654761D01*
X121340713Y-95702380D01*
X121578809Y-95702380D01*
X121674047Y-95654761D01*
X121721666Y-95607142D01*
X123110476Y-80176666D02*
X122634285Y-80176666D01*
X123205714Y-80462380D02*
X122872380Y-79462380D01*
X122539047Y-80462380D01*
X121681904Y-80462380D02*
X122253333Y-80462380D01*
X121967619Y-80462380D02*
X121967619Y-79462380D01*
X122062857Y-79605238D01*
X122158095Y-79700476D01*
X122253333Y-79748095D01*
X120729523Y-80462380D02*
X121300952Y-80462380D01*
X121015238Y-80462380D02*
X121015238Y-79462380D01*
X121110476Y-79605238D01*
X121205714Y-79700476D01*
X121300952Y-79748095D01*
X113672857Y-59094761D02*
X114530000Y-60380476D01*
X113434761Y-59142380D02*
X113196666Y-60142380D01*
X113006190Y-59428095D01*
X112815714Y-60142380D01*
X112577619Y-59142380D01*
X111625238Y-60142380D02*
X111958571Y-59666190D01*
X112196666Y-60142380D02*
X112196666Y-59142380D01*
X111815714Y-59142380D01*
X111720476Y-59190000D01*
X111672857Y-59237619D01*
X111625238Y-59332857D01*
X111625238Y-59475714D01*
X111672857Y-59570952D01*
X111720476Y-59618571D01*
X111815714Y-59666190D01*
X112196666Y-59666190D01*
X127917380Y-68486666D02*
X126917380Y-68486666D01*
X126917380Y-68867619D01*
X126965000Y-68962857D01*
X127012619Y-69010476D01*
X127107857Y-69058095D01*
X127250714Y-69058095D01*
X127345952Y-69010476D01*
X127393571Y-68962857D01*
X127441190Y-68867619D01*
X127441190Y-68486666D01*
X127917380Y-69629523D02*
X127869761Y-69534285D01*
X127822142Y-69486666D01*
X127726904Y-69439047D01*
X127441190Y-69439047D01*
X127345952Y-69486666D01*
X127298333Y-69534285D01*
X127250714Y-69629523D01*
X127250714Y-69772380D01*
X127298333Y-69867619D01*
X127345952Y-69915238D01*
X127441190Y-69962857D01*
X127726904Y-69962857D01*
X127822142Y-69915238D01*
X127869761Y-69867619D01*
X127917380Y-69772380D01*
X127917380Y-69629523D01*
X127250714Y-70391428D02*
X128250714Y-70391428D01*
X127298333Y-70391428D02*
X127250714Y-70486666D01*
X127250714Y-70677142D01*
X127298333Y-70772380D01*
X127345952Y-70820000D01*
X127441190Y-70867619D01*
X127726904Y-70867619D01*
X127822142Y-70820000D01*
X127869761Y-70772380D01*
X127917380Y-70677142D01*
X127917380Y-70486666D01*
X127869761Y-70391428D01*
X127250714Y-71724761D02*
X127917380Y-71724761D01*
X127250714Y-71296190D02*
X127774523Y-71296190D01*
X127869761Y-71343809D01*
X127917380Y-71439047D01*
X127917380Y-71581904D01*
X127869761Y-71677142D01*
X127822142Y-71724761D01*
X127917380Y-72343809D02*
X127869761Y-72248571D01*
X127774523Y-72200952D01*
X126917380Y-72200952D01*
X127917380Y-73153333D02*
X127393571Y-73153333D01*
X127298333Y-73105714D01*
X127250714Y-73010476D01*
X127250714Y-72820000D01*
X127298333Y-72724761D01*
X127869761Y-73153333D02*
X127917380Y-73058095D01*
X127917380Y-72820000D01*
X127869761Y-72724761D01*
X127774523Y-72677142D01*
X127679285Y-72677142D01*
X127584047Y-72724761D01*
X127536428Y-72820000D01*
X127536428Y-73058095D01*
X127488809Y-73153333D01*
X127250714Y-73486666D02*
X127250714Y-73867619D01*
X126917380Y-73629523D02*
X127774523Y-73629523D01*
X127869761Y-73677142D01*
X127917380Y-73772380D01*
X127917380Y-73867619D01*
X127869761Y-74581904D02*
X127917380Y-74486666D01*
X127917380Y-74296190D01*
X127869761Y-74200952D01*
X127774523Y-74153333D01*
X127393571Y-74153333D01*
X127298333Y-74200952D01*
X127250714Y-74296190D01*
X127250714Y-74486666D01*
X127298333Y-74581904D01*
X127393571Y-74629523D01*
X127488809Y-74629523D01*
X127584047Y-74153333D01*
X126917380Y-75820000D02*
X127726904Y-75820000D01*
X127822142Y-75867619D01*
X127869761Y-75915238D01*
X127917380Y-76010476D01*
X127917380Y-76200952D01*
X127869761Y-76296190D01*
X127822142Y-76343809D01*
X127726904Y-76391428D01*
X126917380Y-76391428D01*
X126917380Y-76772380D02*
X126917380Y-77391428D01*
X127298333Y-77058095D01*
X127298333Y-77200952D01*
X127345952Y-77296190D01*
X127393571Y-77343809D01*
X127488809Y-77391428D01*
X127726904Y-77391428D01*
X127822142Y-77343809D01*
X127869761Y-77296190D01*
X127917380Y-77200952D01*
X127917380Y-76915238D01*
X127869761Y-76820000D01*
X127822142Y-76772380D01*
X127250714Y-78439047D02*
X127250714Y-78820000D01*
X126917380Y-78581904D02*
X127774523Y-78581904D01*
X127869761Y-78629523D01*
X127917380Y-78724761D01*
X127917380Y-78820000D01*
X127917380Y-79296190D02*
X127869761Y-79200952D01*
X127822142Y-79153333D01*
X127726904Y-79105714D01*
X127441190Y-79105714D01*
X127345952Y-79153333D01*
X127298333Y-79200952D01*
X127250714Y-79296190D01*
X127250714Y-79439047D01*
X127298333Y-79534285D01*
X127345952Y-79581904D01*
X127441190Y-79629523D01*
X127726904Y-79629523D01*
X127822142Y-79581904D01*
X127869761Y-79534285D01*
X127917380Y-79439047D01*
X127917380Y-79296190D01*
X127250714Y-81248571D02*
X127917380Y-81248571D01*
X127250714Y-80819999D02*
X127774523Y-80819999D01*
X127869761Y-80867619D01*
X127917380Y-80962857D01*
X127917380Y-81105714D01*
X127869761Y-81200952D01*
X127822142Y-81248571D01*
X127250714Y-81724761D02*
X128250714Y-81724761D01*
X127298333Y-81724761D02*
X127250714Y-81819999D01*
X127250714Y-82010476D01*
X127298333Y-82105714D01*
X127345952Y-82153333D01*
X127441190Y-82200952D01*
X127726904Y-82200952D01*
X127822142Y-82153333D01*
X127869761Y-82105714D01*
X127917380Y-82010476D01*
X127917380Y-81819999D01*
X127869761Y-81724761D01*
X127250714Y-83058095D02*
X128060238Y-83058095D01*
X128155476Y-83010476D01*
X128203095Y-82962857D01*
X128250714Y-82867619D01*
X128250714Y-82724761D01*
X128203095Y-82629523D01*
X127869761Y-83058095D02*
X127917380Y-82962857D01*
X127917380Y-82772380D01*
X127869761Y-82677142D01*
X127822142Y-82629523D01*
X127726904Y-82581904D01*
X127441190Y-82581904D01*
X127345952Y-82629523D01*
X127298333Y-82677142D01*
X127250714Y-82772380D01*
X127250714Y-82962857D01*
X127298333Y-83058095D01*
X127917380Y-83534285D02*
X127250714Y-83534285D01*
X127441190Y-83534285D02*
X127345952Y-83581904D01*
X127298333Y-83629523D01*
X127250714Y-83724761D01*
X127250714Y-83819999D01*
X127917380Y-84581904D02*
X127393571Y-84581904D01*
X127298333Y-84534285D01*
X127250714Y-84439047D01*
X127250714Y-84248571D01*
X127298333Y-84153333D01*
X127869761Y-84581904D02*
X127917380Y-84486666D01*
X127917380Y-84248571D01*
X127869761Y-84153333D01*
X127774523Y-84105714D01*
X127679285Y-84105714D01*
X127584047Y-84153333D01*
X127536428Y-84248571D01*
X127536428Y-84486666D01*
X127488809Y-84581904D01*
X127917380Y-85486666D02*
X126917380Y-85486666D01*
X127869761Y-85486666D02*
X127917380Y-85391428D01*
X127917380Y-85200952D01*
X127869761Y-85105714D01*
X127822142Y-85058095D01*
X127726904Y-85010476D01*
X127441190Y-85010476D01*
X127345952Y-85058095D01*
X127298333Y-85105714D01*
X127250714Y-85200952D01*
X127250714Y-85391428D01*
X127298333Y-85486666D01*
X127869761Y-86343809D02*
X127917380Y-86248571D01*
X127917380Y-86058095D01*
X127869761Y-85962857D01*
X127774523Y-85915238D01*
X127393571Y-85915238D01*
X127298333Y-85962857D01*
X127250714Y-86058095D01*
X127250714Y-86248571D01*
X127298333Y-86343809D01*
X127393571Y-86391428D01*
X127488809Y-86391428D01*
X127584047Y-85915238D01*
X126917380Y-87486666D02*
X126917380Y-88105714D01*
X127298333Y-87772380D01*
X127298333Y-87915238D01*
X127345952Y-88010476D01*
X127393571Y-88058095D01*
X127488809Y-88105714D01*
X127726904Y-88105714D01*
X127822142Y-88058095D01*
X127869761Y-88010476D01*
X127917380Y-87915238D01*
X127917380Y-87629523D01*
X127869761Y-87534285D01*
X127822142Y-87486666D01*
X127012619Y-88486666D02*
X126965000Y-88534285D01*
X126917380Y-88629523D01*
X126917380Y-88867619D01*
X126965000Y-88962857D01*
X127012619Y-89010476D01*
X127107857Y-89058095D01*
X127203095Y-89058095D01*
X127345952Y-89010476D01*
X127917380Y-88439047D01*
X127917380Y-89058095D01*
X127917380Y-89486666D02*
X126917380Y-89486666D01*
X127917380Y-90058095D02*
X127345952Y-89629523D01*
X126917380Y-90058095D02*
X127488809Y-89486666D01*
X127869761Y-91200952D02*
X127917380Y-91296190D01*
X127917380Y-91486666D01*
X127869761Y-91581904D01*
X127774523Y-91629523D01*
X127726904Y-91629523D01*
X127631666Y-91581904D01*
X127584047Y-91486666D01*
X127584047Y-91343809D01*
X127536428Y-91248571D01*
X127441190Y-91200952D01*
X127393571Y-91200952D01*
X127298333Y-91248571D01*
X127250714Y-91343809D01*
X127250714Y-91486666D01*
X127298333Y-91581904D01*
X127917380Y-92200952D02*
X127869761Y-92105714D01*
X127822142Y-92058095D01*
X127726904Y-92010476D01*
X127441190Y-92010476D01*
X127345952Y-92058095D01*
X127298333Y-92105714D01*
X127250714Y-92200952D01*
X127250714Y-92343809D01*
X127298333Y-92439047D01*
X127345952Y-92486666D01*
X127441190Y-92534285D01*
X127726904Y-92534285D01*
X127822142Y-92486666D01*
X127869761Y-92439047D01*
X127917380Y-92343809D01*
X127917380Y-92200952D01*
X127917380Y-92962857D02*
X127250714Y-92962857D01*
X127441190Y-92962857D02*
X127345952Y-93010476D01*
X127298333Y-93058095D01*
X127250714Y-93153333D01*
X127250714Y-93248571D01*
X127869761Y-94010476D02*
X127917380Y-93915238D01*
X127917380Y-93724761D01*
X127869761Y-93629523D01*
X127822142Y-93581904D01*
X127726904Y-93534285D01*
X127441190Y-93534285D01*
X127345952Y-93581904D01*
X127298333Y-93629523D01*
X127250714Y-93724761D01*
X127250714Y-93915238D01*
X127298333Y-94010476D01*
X127869761Y-94819999D02*
X127917380Y-94724761D01*
X127917380Y-94534285D01*
X127869761Y-94439047D01*
X127774523Y-94391428D01*
X127393571Y-94391428D01*
X127298333Y-94439047D01*
X127250714Y-94534285D01*
X127250714Y-94724761D01*
X127298333Y-94819999D01*
X127393571Y-94867619D01*
X127488809Y-94867619D01*
X127584047Y-94391428D01*
X127917380Y-95296190D02*
X127250714Y-95296190D01*
X127441190Y-95296190D02*
X127345952Y-95343809D01*
X127298333Y-95391428D01*
X127250714Y-95486666D01*
X127250714Y-95581904D01*
X127869761Y-96296190D02*
X127917380Y-96200952D01*
X127917380Y-96010476D01*
X127869761Y-95915238D01*
X127774523Y-95867619D01*
X127393571Y-95867619D01*
X127298333Y-95915238D01*
X127250714Y-96010476D01*
X127250714Y-96200952D01*
X127298333Y-96296190D01*
X127393571Y-96343809D01*
X127488809Y-96343809D01*
X127584047Y-95867619D01*
X127917380Y-96772380D02*
X127250714Y-96772380D01*
X127441190Y-96772380D02*
X127345952Y-96819999D01*
X127298333Y-96867619D01*
X127250714Y-96962857D01*
X127250714Y-97058095D01*
X127250714Y-98010476D02*
X127250714Y-98391428D01*
X126917380Y-98153333D02*
X127774523Y-98153333D01*
X127869761Y-98200952D01*
X127917380Y-98296190D01*
X127917380Y-98391428D01*
X127917380Y-98867619D02*
X127869761Y-98772380D01*
X127822142Y-98724761D01*
X127726904Y-98677142D01*
X127441190Y-98677142D01*
X127345952Y-98724761D01*
X127298333Y-98772380D01*
X127250714Y-98867619D01*
X127250714Y-99010476D01*
X127298333Y-99105714D01*
X127345952Y-99153333D01*
X127441190Y-99200952D01*
X127726904Y-99200952D01*
X127822142Y-99153333D01*
X127869761Y-99105714D01*
X127917380Y-99010476D01*
X127917380Y-98867619D01*
X128860714Y-74200952D02*
X129527380Y-74200952D01*
X128479761Y-73962857D02*
X129194047Y-73724761D01*
X129194047Y-74343809D01*
X128955952Y-74867619D02*
X128908333Y-74772380D01*
X128860714Y-74724761D01*
X128765476Y-74677142D01*
X128717857Y-74677142D01*
X128622619Y-74724761D01*
X128575000Y-74772380D01*
X128527380Y-74867619D01*
X128527380Y-75058095D01*
X128575000Y-75153333D01*
X128622619Y-75200952D01*
X128717857Y-75248571D01*
X128765476Y-75248571D01*
X128860714Y-75200952D01*
X128908333Y-75153333D01*
X128955952Y-75058095D01*
X128955952Y-74867619D01*
X129003571Y-74772380D01*
X129051190Y-74724761D01*
X129146428Y-74677142D01*
X129336904Y-74677142D01*
X129432142Y-74724761D01*
X129479761Y-74772380D01*
X129527380Y-74867619D01*
X129527380Y-75058095D01*
X129479761Y-75153333D01*
X129432142Y-75200952D01*
X129336904Y-75248571D01*
X129146428Y-75248571D01*
X129051190Y-75200952D01*
X129003571Y-75153333D01*
X128955952Y-75058095D01*
X129527380Y-75677142D02*
X128527380Y-75677142D01*
X129527380Y-76248571D02*
X128955952Y-75820000D01*
X128527380Y-76248571D02*
X129098809Y-75677142D01*
X129527380Y-77581904D02*
X129479761Y-77486666D01*
X129432142Y-77439047D01*
X129336904Y-77391428D01*
X129051190Y-77391428D01*
X128955952Y-77439047D01*
X128908333Y-77486666D01*
X128860714Y-77581904D01*
X128860714Y-77724761D01*
X128908333Y-77820000D01*
X128955952Y-77867619D01*
X129051190Y-77915238D01*
X129336904Y-77915238D01*
X129432142Y-77867619D01*
X129479761Y-77820000D01*
X129527380Y-77724761D01*
X129527380Y-77581904D01*
X129527380Y-78343809D02*
X128860714Y-78343809D01*
X129051190Y-78343809D02*
X128955952Y-78391428D01*
X128908333Y-78439047D01*
X128860714Y-78534285D01*
X128860714Y-78629523D01*
X128527380Y-80153333D02*
X128527380Y-79962857D01*
X128575000Y-79867619D01*
X128622619Y-79820000D01*
X128765476Y-79724761D01*
X128955952Y-79677142D01*
X129336904Y-79677142D01*
X129432142Y-79724761D01*
X129479761Y-79772380D01*
X129527380Y-79867619D01*
X129527380Y-80058095D01*
X129479761Y-80153333D01*
X129432142Y-80200952D01*
X129336904Y-80248571D01*
X129098809Y-80248571D01*
X129003571Y-80200952D01*
X128955952Y-80153333D01*
X128908333Y-80058095D01*
X128908333Y-79867619D01*
X128955952Y-79772380D01*
X129003571Y-79724761D01*
X129098809Y-79677142D01*
X128860714Y-81105714D02*
X129527380Y-81105714D01*
X128479761Y-80867619D02*
X129194047Y-80629523D01*
X129194047Y-81248571D01*
X129527380Y-81629523D02*
X128527380Y-81629523D01*
X129527380Y-82200952D02*
X128955952Y-81772380D01*
X128527380Y-82200952D02*
X129098809Y-81629523D01*
X129908333Y-83677142D02*
X129860714Y-83629523D01*
X129717857Y-83534285D01*
X129622619Y-83486666D01*
X129479761Y-83439047D01*
X129241666Y-83391428D01*
X129051190Y-83391428D01*
X128813095Y-83439047D01*
X128670238Y-83486666D01*
X128575000Y-83534285D01*
X128432142Y-83629523D01*
X128384523Y-83677142D01*
X129479761Y-84439047D02*
X129527380Y-84343809D01*
X129527380Y-84153333D01*
X129479761Y-84058095D01*
X129384523Y-84010476D01*
X129003571Y-84010476D01*
X128908333Y-84058095D01*
X128860714Y-84153333D01*
X128860714Y-84343809D01*
X128908333Y-84439047D01*
X129003571Y-84486666D01*
X129098809Y-84486666D01*
X129194047Y-84010476D01*
X129527380Y-84819999D02*
X128860714Y-85343809D01*
X128860714Y-84819999D02*
X129527380Y-85343809D01*
X128860714Y-85724761D02*
X129860714Y-85724761D01*
X128908333Y-85724761D02*
X128860714Y-85819999D01*
X128860714Y-86010476D01*
X128908333Y-86105714D01*
X128955952Y-86153333D01*
X129051190Y-86200952D01*
X129336904Y-86200952D01*
X129432142Y-86153333D01*
X129479761Y-86105714D01*
X129527380Y-86010476D01*
X129527380Y-85819999D01*
X129479761Y-85724761D01*
X129479761Y-87010476D02*
X129527380Y-86915238D01*
X129527380Y-86724761D01*
X129479761Y-86629523D01*
X129384523Y-86581904D01*
X129003571Y-86581904D01*
X128908333Y-86629523D01*
X128860714Y-86724761D01*
X128860714Y-86915238D01*
X128908333Y-87010476D01*
X129003571Y-87058095D01*
X129098809Y-87058095D01*
X129194047Y-86581904D01*
X129527380Y-87486666D02*
X128860714Y-87486666D01*
X129051190Y-87486666D02*
X128955952Y-87534285D01*
X128908333Y-87581904D01*
X128860714Y-87677142D01*
X128860714Y-87772380D01*
X129527380Y-88105714D02*
X128860714Y-88105714D01*
X128527380Y-88105714D02*
X128575000Y-88058095D01*
X128622619Y-88105714D01*
X128575000Y-88153333D01*
X128527380Y-88105714D01*
X128622619Y-88105714D01*
X129527380Y-88581904D02*
X128860714Y-88581904D01*
X128955952Y-88581904D02*
X128908333Y-88629523D01*
X128860714Y-88724761D01*
X128860714Y-88867619D01*
X128908333Y-88962857D01*
X129003571Y-89010476D01*
X129527380Y-89010476D01*
X129003571Y-89010476D02*
X128908333Y-89058095D01*
X128860714Y-89153333D01*
X128860714Y-89296190D01*
X128908333Y-89391428D01*
X129003571Y-89439047D01*
X129527380Y-89439047D01*
X129479761Y-90296190D02*
X129527380Y-90200952D01*
X129527380Y-90010476D01*
X129479761Y-89915238D01*
X129384523Y-89867619D01*
X129003571Y-89867619D01*
X128908333Y-89915238D01*
X128860714Y-90010476D01*
X128860714Y-90200952D01*
X128908333Y-90296190D01*
X129003571Y-90343809D01*
X129098809Y-90343809D01*
X129194047Y-89867619D01*
X128860714Y-90772380D02*
X129527380Y-90772380D01*
X128955952Y-90772380D02*
X128908333Y-90819999D01*
X128860714Y-90915238D01*
X128860714Y-91058095D01*
X128908333Y-91153333D01*
X129003571Y-91200952D01*
X129527380Y-91200952D01*
X128860714Y-91534285D02*
X128860714Y-91915238D01*
X128527380Y-91677142D02*
X129384523Y-91677142D01*
X129479761Y-91724761D01*
X129527380Y-91819999D01*
X129527380Y-91915238D01*
X129527380Y-92677142D02*
X129003571Y-92677142D01*
X128908333Y-92629523D01*
X128860714Y-92534285D01*
X128860714Y-92343809D01*
X128908333Y-92248571D01*
X129479761Y-92677142D02*
X129527380Y-92581904D01*
X129527380Y-92343809D01*
X129479761Y-92248571D01*
X129384523Y-92200952D01*
X129289285Y-92200952D01*
X129194047Y-92248571D01*
X129146428Y-92343809D01*
X129146428Y-92581904D01*
X129098809Y-92677142D01*
X129527380Y-93296190D02*
X129479761Y-93200952D01*
X129384523Y-93153333D01*
X128527380Y-93153333D01*
X129908333Y-93581904D02*
X129860714Y-93629523D01*
X129717857Y-93724761D01*
X129622619Y-93772380D01*
X129479761Y-93819999D01*
X129241666Y-93867619D01*
X129051190Y-93867619D01*
X128813095Y-93819999D01*
X128670238Y-93772380D01*
X128575000Y-93724761D01*
X128432142Y-93629523D01*
X128384523Y-93581904D01*
X113966667Y-93162380D02*
X113966667Y-92162380D01*
X113728572Y-92162380D01*
X113585714Y-92210000D01*
X113490476Y-92305238D01*
X113442857Y-92400476D01*
X113395238Y-92590952D01*
X113395238Y-92733809D01*
X113442857Y-92924285D01*
X113490476Y-93019523D01*
X113585714Y-93114761D01*
X113728572Y-93162380D01*
X113966667Y-93162380D01*
X112776191Y-92162380D02*
X112680952Y-92162380D01*
X112585714Y-92210000D01*
X112538095Y-92257619D01*
X112490476Y-92352857D01*
X112442857Y-92543333D01*
X112442857Y-92781428D01*
X112490476Y-92971904D01*
X112538095Y-93067142D01*
X112585714Y-93114761D01*
X112680952Y-93162380D01*
X112776191Y-93162380D01*
X112871429Y-93114761D01*
X112919048Y-93067142D01*
X112966667Y-92971904D01*
X113014286Y-92781428D01*
X113014286Y-92543333D01*
X112966667Y-92352857D01*
X112919048Y-92257619D01*
X112871429Y-92210000D01*
X112776191Y-92162380D01*
X122078809Y-82002380D02*
X122554999Y-82002380D01*
X122602618Y-82478571D01*
X122554999Y-82430952D01*
X122459761Y-82383333D01*
X122221666Y-82383333D01*
X122126428Y-82430952D01*
X122078809Y-82478571D01*
X122031190Y-82573809D01*
X122031190Y-82811904D01*
X122078809Y-82907142D01*
X122126428Y-82954761D01*
X122221666Y-83002380D01*
X122459761Y-83002380D01*
X122554999Y-82954761D01*
X122602618Y-82907142D01*
X121697856Y-82335714D02*
X121459761Y-83002380D01*
X121221666Y-82335714D01*
X123134285Y-64650952D02*
X123229523Y-64603333D01*
X123277142Y-64555714D01*
X123324761Y-64460476D01*
X123324761Y-64412857D01*
X123277142Y-64317619D01*
X123229523Y-64270000D01*
X123134285Y-64222380D01*
X122943809Y-64222380D01*
X122848571Y-64270000D01*
X122800952Y-64317619D01*
X122753333Y-64412857D01*
X122753333Y-64460476D01*
X122800952Y-64555714D01*
X122848571Y-64603333D01*
X122943809Y-64650952D01*
X123134285Y-64650952D01*
X123229523Y-64698571D01*
X123277142Y-64746190D01*
X123324761Y-64841428D01*
X123324761Y-65031904D01*
X123277142Y-65127142D01*
X123229523Y-65174761D01*
X123134285Y-65222380D01*
X122943809Y-65222380D01*
X122848571Y-65174761D01*
X122800952Y-65127142D01*
X122753333Y-65031904D01*
X122753333Y-64841428D01*
X122800952Y-64746190D01*
X122848571Y-64698571D01*
X122943809Y-64650952D01*
X122324761Y-64841428D02*
X121562857Y-64841428D01*
X120753333Y-64698571D02*
X120610476Y-64746190D01*
X120562857Y-64793809D01*
X120515238Y-64889047D01*
X120515238Y-65031904D01*
X120562857Y-65127142D01*
X120610476Y-65174761D01*
X120705714Y-65222380D01*
X121086666Y-65222380D01*
X121086666Y-64222380D01*
X120753333Y-64222380D01*
X120658095Y-64270000D01*
X120610476Y-64317619D01*
X120562857Y-64412857D01*
X120562857Y-64508095D01*
X120610476Y-64603333D01*
X120658095Y-64650952D01*
X120753333Y-64698571D01*
X121086666Y-64698571D01*
X122674047Y-100782380D02*
X122674047Y-99782380D01*
X122435952Y-99782380D01*
X122293094Y-99830000D01*
X122197856Y-99925238D01*
X122150237Y-100020476D01*
X122102618Y-100210952D01*
X122102618Y-100353809D01*
X122150237Y-100544285D01*
X122197856Y-100639523D01*
X122293094Y-100734761D01*
X122435952Y-100782380D01*
X122674047Y-100782380D01*
X121769285Y-99782380D02*
X121150237Y-99782380D01*
X121483571Y-100163333D01*
X121340713Y-100163333D01*
X121245475Y-100210952D01*
X121197856Y-100258571D01*
X121150237Y-100353809D01*
X121150237Y-100591904D01*
X121197856Y-100687142D01*
X121245475Y-100734761D01*
X121340713Y-100782380D01*
X121626428Y-100782380D01*
X121721666Y-100734761D01*
X121769285Y-100687142D01*
X155617380Y-61072142D02*
X155617380Y-61643571D01*
X156617380Y-61357857D02*
X155617380Y-61357857D01*
X156617380Y-61976904D02*
X155617380Y-61976904D01*
X156617380Y-62405476D02*
X156093571Y-62405476D01*
X155998333Y-62357857D01*
X155950714Y-62262619D01*
X155950714Y-62119761D01*
X155998333Y-62024523D01*
X156045952Y-61976904D01*
X156569761Y-63262619D02*
X156617380Y-63167380D01*
X156617380Y-62976904D01*
X156569761Y-62881666D01*
X156474523Y-62834047D01*
X156093571Y-62834047D01*
X155998333Y-62881666D01*
X155950714Y-62976904D01*
X155950714Y-63167380D01*
X155998333Y-63262619D01*
X156093571Y-63310238D01*
X156188809Y-63310238D01*
X156284047Y-62834047D01*
X156617380Y-63881666D02*
X156569761Y-63786428D01*
X156522142Y-63738809D01*
X156426904Y-63691190D01*
X156141190Y-63691190D01*
X156045952Y-63738809D01*
X155998333Y-63786428D01*
X155950714Y-63881666D01*
X155950714Y-64024523D01*
X155998333Y-64119761D01*
X156045952Y-64167380D01*
X156141190Y-64214999D01*
X156426904Y-64214999D01*
X156522142Y-64167380D01*
X156569761Y-64119761D01*
X156617380Y-64024523D01*
X156617380Y-63881666D01*
X156617380Y-64643571D02*
X155950714Y-64643571D01*
X156141190Y-64643571D02*
X156045952Y-64691190D01*
X155998333Y-64738809D01*
X155950714Y-64834047D01*
X155950714Y-64929285D01*
X156569761Y-65643571D02*
X156617380Y-65548333D01*
X156617380Y-65357857D01*
X156569761Y-65262619D01*
X156474523Y-65214999D01*
X156093571Y-65214999D01*
X155998333Y-65262619D01*
X155950714Y-65357857D01*
X155950714Y-65548333D01*
X155998333Y-65643571D01*
X156093571Y-65691190D01*
X156188809Y-65691190D01*
X156284047Y-65214999D01*
X155950714Y-65976904D02*
X155950714Y-66357857D01*
X155617380Y-66119761D02*
X156474523Y-66119761D01*
X156569761Y-66167380D01*
X156617380Y-66262619D01*
X156617380Y-66357857D01*
X156617380Y-66691190D02*
X155950714Y-66691190D01*
X155617380Y-66691190D02*
X155665000Y-66643571D01*
X155712619Y-66691190D01*
X155665000Y-66738809D01*
X155617380Y-66691190D01*
X155712619Y-66691190D01*
X156569761Y-67595952D02*
X156617380Y-67500714D01*
X156617380Y-67310238D01*
X156569761Y-67214999D01*
X156522142Y-67167380D01*
X156426904Y-67119761D01*
X156141190Y-67119761D01*
X156045952Y-67167380D01*
X155998333Y-67214999D01*
X155950714Y-67310238D01*
X155950714Y-67500714D01*
X155998333Y-67595952D01*
X156617380Y-68453095D02*
X156093571Y-68453095D01*
X155998333Y-68405476D01*
X155950714Y-68310238D01*
X155950714Y-68119761D01*
X155998333Y-68024523D01*
X156569761Y-68453095D02*
X156617380Y-68357857D01*
X156617380Y-68119761D01*
X156569761Y-68024523D01*
X156474523Y-67976904D01*
X156379285Y-67976904D01*
X156284047Y-68024523D01*
X156236428Y-68119761D01*
X156236428Y-68357857D01*
X156188809Y-68453095D01*
X156617380Y-69072142D02*
X156569761Y-68976904D01*
X156474523Y-68929285D01*
X155617380Y-68929285D01*
X156617380Y-69595952D02*
X156569761Y-69500714D01*
X156474523Y-69453095D01*
X155617380Y-69453095D01*
X155950714Y-69881666D02*
X156617380Y-70119761D01*
X155950714Y-70357857D02*
X156617380Y-70119761D01*
X156855476Y-70024523D01*
X156903095Y-69976904D01*
X156950714Y-69881666D01*
X155950714Y-71357857D02*
X155950714Y-71738809D01*
X155617380Y-71500714D02*
X156474523Y-71500714D01*
X156569761Y-71548333D01*
X156617380Y-71643571D01*
X156617380Y-71738809D01*
X156617380Y-72072142D02*
X155617380Y-72072142D01*
X156617380Y-72500714D02*
X156093571Y-72500714D01*
X155998333Y-72453095D01*
X155950714Y-72357857D01*
X155950714Y-72214999D01*
X155998333Y-72119761D01*
X156045952Y-72072142D01*
X156617380Y-72976904D02*
X155950714Y-72976904D01*
X155617380Y-72976904D02*
X155665000Y-72929285D01*
X155712619Y-72976904D01*
X155665000Y-73024523D01*
X155617380Y-72976904D01*
X155712619Y-72976904D01*
X156569761Y-73405476D02*
X156617380Y-73500714D01*
X156617380Y-73691190D01*
X156569761Y-73786428D01*
X156474523Y-73834047D01*
X156426904Y-73834047D01*
X156331666Y-73786428D01*
X156284047Y-73691190D01*
X156284047Y-73548333D01*
X156236428Y-73453095D01*
X156141190Y-73405476D01*
X156093571Y-73405476D01*
X155998333Y-73453095D01*
X155950714Y-73548333D01*
X155950714Y-73691190D01*
X155998333Y-73786428D01*
X156569761Y-75453095D02*
X156617380Y-75357857D01*
X156617380Y-75167380D01*
X156569761Y-75072142D01*
X156522142Y-75024523D01*
X156426904Y-74976904D01*
X156141190Y-74976904D01*
X156045952Y-75024523D01*
X155998333Y-75072142D01*
X155950714Y-75167380D01*
X155950714Y-75357857D01*
X155998333Y-75453095D01*
X156617380Y-76310238D02*
X156093571Y-76310238D01*
X155998333Y-76262619D01*
X155950714Y-76167380D01*
X155950714Y-75976904D01*
X155998333Y-75881666D01*
X156569761Y-76310238D02*
X156617380Y-76214999D01*
X156617380Y-75976904D01*
X156569761Y-75881666D01*
X156474523Y-75834047D01*
X156379285Y-75834047D01*
X156284047Y-75881666D01*
X156236428Y-75976904D01*
X156236428Y-76214999D01*
X156188809Y-76310238D01*
X155950714Y-76786428D02*
X156617380Y-76786428D01*
X156045952Y-76786428D02*
X155998333Y-76834047D01*
X155950714Y-76929285D01*
X155950714Y-77072142D01*
X155998333Y-77167380D01*
X156093571Y-77214999D01*
X156617380Y-77214999D01*
X158227380Y-55976904D02*
X157560714Y-55976904D01*
X157751190Y-55976904D02*
X157655952Y-56024523D01*
X157608333Y-56072142D01*
X157560714Y-56167380D01*
X157560714Y-56262619D01*
X158179761Y-56976904D02*
X158227380Y-56881666D01*
X158227380Y-56691190D01*
X158179761Y-56595952D01*
X158084523Y-56548333D01*
X157703571Y-56548333D01*
X157608333Y-56595952D01*
X157560714Y-56691190D01*
X157560714Y-56881666D01*
X157608333Y-56976904D01*
X157703571Y-57024523D01*
X157798809Y-57024523D01*
X157894047Y-56548333D01*
X157560714Y-57453095D02*
X158560714Y-57453095D01*
X157608333Y-57453095D02*
X157560714Y-57548333D01*
X157560714Y-57738809D01*
X157608333Y-57834047D01*
X157655952Y-57881666D01*
X157751190Y-57929285D01*
X158036904Y-57929285D01*
X158132142Y-57881666D01*
X158179761Y-57834047D01*
X158227380Y-57738809D01*
X158227380Y-57548333D01*
X158179761Y-57453095D01*
X158227380Y-58500714D02*
X158179761Y-58405476D01*
X158084523Y-58357857D01*
X157227380Y-58357857D01*
X158227380Y-59310238D02*
X157703571Y-59310238D01*
X157608333Y-59262619D01*
X157560714Y-59167380D01*
X157560714Y-58976904D01*
X157608333Y-58881666D01*
X158179761Y-59310238D02*
X158227380Y-59215000D01*
X158227380Y-58976904D01*
X158179761Y-58881666D01*
X158084523Y-58834047D01*
X157989285Y-58834047D01*
X157894047Y-58881666D01*
X157846428Y-58976904D01*
X157846428Y-59215000D01*
X157798809Y-59310238D01*
X158179761Y-60215000D02*
X158227380Y-60119761D01*
X158227380Y-59929285D01*
X158179761Y-59834047D01*
X158132142Y-59786428D01*
X158036904Y-59738809D01*
X157751190Y-59738809D01*
X157655952Y-59786428D01*
X157608333Y-59834047D01*
X157560714Y-59929285D01*
X157560714Y-60119761D01*
X157608333Y-60215000D01*
X158179761Y-61024523D02*
X158227380Y-60929285D01*
X158227380Y-60738809D01*
X158179761Y-60643571D01*
X158084523Y-60595952D01*
X157703571Y-60595952D01*
X157608333Y-60643571D01*
X157560714Y-60738809D01*
X157560714Y-60929285D01*
X157608333Y-61024523D01*
X157703571Y-61072142D01*
X157798809Y-61072142D01*
X157894047Y-60595952D01*
X158227380Y-62691190D02*
X157703571Y-62691190D01*
X157608333Y-62643571D01*
X157560714Y-62548333D01*
X157560714Y-62357857D01*
X157608333Y-62262619D01*
X158179761Y-62691190D02*
X158227380Y-62595952D01*
X158227380Y-62357857D01*
X158179761Y-62262619D01*
X158084523Y-62215000D01*
X157989285Y-62215000D01*
X157894047Y-62262619D01*
X157846428Y-62357857D01*
X157846428Y-62595952D01*
X157798809Y-62691190D01*
X158227380Y-63310238D02*
X158179761Y-63215000D01*
X158084523Y-63167380D01*
X157227380Y-63167380D01*
X158227380Y-63834047D02*
X158179761Y-63738809D01*
X158084523Y-63691190D01*
X157227380Y-63691190D01*
X157560714Y-64834047D02*
X157560714Y-65215000D01*
X157227380Y-64976904D02*
X158084523Y-64976904D01*
X158179761Y-65024523D01*
X158227380Y-65119761D01*
X158227380Y-65215000D01*
X158227380Y-65548333D02*
X157227380Y-65548333D01*
X158227380Y-65976904D02*
X157703571Y-65976904D01*
X157608333Y-65929285D01*
X157560714Y-65834047D01*
X157560714Y-65691190D01*
X157608333Y-65595952D01*
X157655952Y-65548333D01*
X158179761Y-66834047D02*
X158227380Y-66738809D01*
X158227380Y-66548333D01*
X158179761Y-66453095D01*
X158084523Y-66405476D01*
X157703571Y-66405476D01*
X157608333Y-66453095D01*
X157560714Y-66548333D01*
X157560714Y-66738809D01*
X157608333Y-66834047D01*
X157703571Y-66881666D01*
X157798809Y-66881666D01*
X157894047Y-66405476D01*
X158227380Y-68072142D02*
X157227380Y-68072142D01*
X157227380Y-68310238D01*
X157275000Y-68453095D01*
X157370238Y-68548333D01*
X157465476Y-68595952D01*
X157655952Y-68643571D01*
X157798809Y-68643571D01*
X157989285Y-68595952D01*
X158084523Y-68548333D01*
X158179761Y-68453095D01*
X158227380Y-68310238D01*
X158227380Y-68072142D01*
X158227380Y-69643571D02*
X157751190Y-69310238D01*
X158227380Y-69072142D02*
X157227380Y-69072142D01*
X157227380Y-69453095D01*
X157275000Y-69548333D01*
X157322619Y-69595952D01*
X157417857Y-69643571D01*
X157560714Y-69643571D01*
X157655952Y-69595952D01*
X157703571Y-69548333D01*
X157751190Y-69453095D01*
X157751190Y-69072142D01*
X157941666Y-70024523D02*
X157941666Y-70500714D01*
X158227380Y-69929285D02*
X157227380Y-70262619D01*
X158227380Y-70595952D01*
X158227380Y-70929285D02*
X157227380Y-70929285D01*
X157941666Y-71262619D01*
X157227380Y-71595952D01*
X158227380Y-71595952D01*
X158227380Y-72834047D02*
X157560714Y-72834047D01*
X157227380Y-72834047D02*
X157275000Y-72786428D01*
X157322619Y-72834047D01*
X157275000Y-72881666D01*
X157227380Y-72834047D01*
X157322619Y-72834047D01*
X157560714Y-73310238D02*
X158227380Y-73310238D01*
X157655952Y-73310238D02*
X157608333Y-73357857D01*
X157560714Y-73453095D01*
X157560714Y-73595952D01*
X157608333Y-73691190D01*
X157703571Y-73738809D01*
X158227380Y-73738809D01*
X158227380Y-75405476D02*
X157703571Y-75405476D01*
X157608333Y-75357857D01*
X157560714Y-75262619D01*
X157560714Y-75072142D01*
X157608333Y-74976904D01*
X158179761Y-75405476D02*
X158227380Y-75310238D01*
X158227380Y-75072142D01*
X158179761Y-74976904D01*
X158084523Y-74929285D01*
X157989285Y-74929285D01*
X157894047Y-74976904D01*
X157846428Y-75072142D01*
X157846428Y-75310238D01*
X157798809Y-75405476D01*
X158179761Y-76595952D02*
X158227380Y-76738809D01*
X158227380Y-76976904D01*
X158179761Y-77072142D01*
X158132142Y-77119761D01*
X158036904Y-77167380D01*
X157941666Y-77167380D01*
X157846428Y-77119761D01*
X157798809Y-77072142D01*
X157751190Y-76976904D01*
X157703571Y-76786428D01*
X157655952Y-76691190D01*
X157608333Y-76643571D01*
X157513095Y-76595952D01*
X157417857Y-76595952D01*
X157322619Y-76643571D01*
X157275000Y-76691190D01*
X157227380Y-76786428D01*
X157227380Y-77024523D01*
X157275000Y-77167380D01*
X158227380Y-77738809D02*
X158179761Y-77643571D01*
X158132142Y-77595952D01*
X158036904Y-77548333D01*
X157751190Y-77548333D01*
X157655952Y-77595952D01*
X157608333Y-77643571D01*
X157560714Y-77738809D01*
X157560714Y-77881666D01*
X157608333Y-77976904D01*
X157655952Y-78024523D01*
X157751190Y-78072142D01*
X158036904Y-78072142D01*
X158132142Y-78024523D01*
X158179761Y-77976904D01*
X158227380Y-77881666D01*
X158227380Y-77738809D01*
X158227380Y-78500714D02*
X157560714Y-78500714D01*
X157751190Y-78500714D02*
X157655952Y-78548333D01*
X157608333Y-78595952D01*
X157560714Y-78691190D01*
X157560714Y-78786428D01*
X158179761Y-79548333D02*
X158227380Y-79453095D01*
X158227380Y-79262619D01*
X158179761Y-79167380D01*
X158132142Y-79119761D01*
X158036904Y-79072142D01*
X157751190Y-79072142D01*
X157655952Y-79119761D01*
X157608333Y-79167380D01*
X157560714Y-79262619D01*
X157560714Y-79453095D01*
X157608333Y-79548333D01*
X158179761Y-80357857D02*
X158227380Y-80262619D01*
X158227380Y-80072142D01*
X158179761Y-79976904D01*
X158084523Y-79929285D01*
X157703571Y-79929285D01*
X157608333Y-79976904D01*
X157560714Y-80072142D01*
X157560714Y-80262619D01*
X157608333Y-80357857D01*
X157703571Y-80405476D01*
X157798809Y-80405476D01*
X157894047Y-79929285D01*
X158227380Y-80834047D02*
X157560714Y-80834047D01*
X157751190Y-80834047D02*
X157655952Y-80881666D01*
X157608333Y-80929285D01*
X157560714Y-81024523D01*
X157560714Y-81119761D01*
X158179761Y-81834047D02*
X158227380Y-81738809D01*
X158227380Y-81548333D01*
X158179761Y-81453095D01*
X158084523Y-81405476D01*
X157703571Y-81405476D01*
X157608333Y-81453095D01*
X157560714Y-81548333D01*
X157560714Y-81738809D01*
X157608333Y-81834047D01*
X157703571Y-81881666D01*
X157798809Y-81881666D01*
X157894047Y-81405476D01*
X158227380Y-82310238D02*
X157560714Y-82310238D01*
X157751190Y-82310238D02*
X157655952Y-82357857D01*
X157608333Y-82405476D01*
X157560714Y-82500714D01*
X157560714Y-82595952D01*
X159837380Y-55738809D02*
X159789761Y-55643571D01*
X159742142Y-55595952D01*
X159646904Y-55548333D01*
X159361190Y-55548333D01*
X159265952Y-55595952D01*
X159218333Y-55643571D01*
X159170714Y-55738809D01*
X159170714Y-55881666D01*
X159218333Y-55976904D01*
X159265952Y-56024523D01*
X159361190Y-56072142D01*
X159646904Y-56072142D01*
X159742142Y-56024523D01*
X159789761Y-55976904D01*
X159837380Y-55881666D01*
X159837380Y-55738809D01*
X159837380Y-56500714D02*
X159170714Y-56500714D01*
X159361190Y-56500714D02*
X159265952Y-56548333D01*
X159218333Y-56595952D01*
X159170714Y-56691190D01*
X159170714Y-56786428D01*
X159837380Y-57881666D02*
X158837380Y-57881666D01*
X159218333Y-57881666D02*
X159170714Y-57976904D01*
X159170714Y-58167380D01*
X159218333Y-58262619D01*
X159265952Y-58310238D01*
X159361190Y-58357857D01*
X159646904Y-58357857D01*
X159742142Y-58310238D01*
X159789761Y-58262619D01*
X159837380Y-58167380D01*
X159837380Y-57976904D01*
X159789761Y-57881666D01*
X159789761Y-59167380D02*
X159837380Y-59072142D01*
X159837380Y-58881666D01*
X159789761Y-58786428D01*
X159694523Y-58738809D01*
X159313571Y-58738809D01*
X159218333Y-58786428D01*
X159170714Y-58881666D01*
X159170714Y-59072142D01*
X159218333Y-59167380D01*
X159313571Y-59215000D01*
X159408809Y-59215000D01*
X159504047Y-58738809D01*
X159170714Y-60834047D02*
X159837380Y-60834047D01*
X159170714Y-60405476D02*
X159694523Y-60405476D01*
X159789761Y-60453095D01*
X159837380Y-60548333D01*
X159837380Y-60691190D01*
X159789761Y-60786428D01*
X159742142Y-60834047D01*
X159789761Y-61262619D02*
X159837380Y-61357857D01*
X159837380Y-61548333D01*
X159789761Y-61643571D01*
X159694523Y-61691190D01*
X159646904Y-61691190D01*
X159551666Y-61643571D01*
X159504047Y-61548333D01*
X159504047Y-61405476D01*
X159456428Y-61310238D01*
X159361190Y-61262619D01*
X159313571Y-61262619D01*
X159218333Y-61310238D01*
X159170714Y-61405476D01*
X159170714Y-61548333D01*
X159218333Y-61643571D01*
X159789761Y-62500714D02*
X159837380Y-62405476D01*
X159837380Y-62215000D01*
X159789761Y-62119761D01*
X159694523Y-62072142D01*
X159313571Y-62072142D01*
X159218333Y-62119761D01*
X159170714Y-62215000D01*
X159170714Y-62405476D01*
X159218333Y-62500714D01*
X159313571Y-62548333D01*
X159408809Y-62548333D01*
X159504047Y-62072142D01*
X159837380Y-63405476D02*
X158837380Y-63405476D01*
X159789761Y-63405476D02*
X159837380Y-63310238D01*
X159837380Y-63119761D01*
X159789761Y-63024523D01*
X159742142Y-62976904D01*
X159646904Y-62929285D01*
X159361190Y-62929285D01*
X159265952Y-62976904D01*
X159218333Y-63024523D01*
X159170714Y-63119761D01*
X159170714Y-63310238D01*
X159218333Y-63405476D01*
X159170714Y-64500714D02*
X159170714Y-64881666D01*
X158837380Y-64643571D02*
X159694523Y-64643571D01*
X159789761Y-64691190D01*
X159837380Y-64786428D01*
X159837380Y-64881666D01*
X159837380Y-65357857D02*
X159789761Y-65262619D01*
X159742142Y-65215000D01*
X159646904Y-65167380D01*
X159361190Y-65167380D01*
X159265952Y-65215000D01*
X159218333Y-65262619D01*
X159170714Y-65357857D01*
X159170714Y-65500714D01*
X159218333Y-65595952D01*
X159265952Y-65643571D01*
X159361190Y-65691190D01*
X159646904Y-65691190D01*
X159742142Y-65643571D01*
X159789761Y-65595952D01*
X159837380Y-65500714D01*
X159837380Y-65357857D01*
X159170714Y-67310238D02*
X159837380Y-67310238D01*
X159170714Y-66881666D02*
X159694523Y-66881666D01*
X159789761Y-66929285D01*
X159837380Y-67024523D01*
X159837380Y-67167380D01*
X159789761Y-67262619D01*
X159742142Y-67310238D01*
X159170714Y-67786428D02*
X160170714Y-67786428D01*
X159218333Y-67786428D02*
X159170714Y-67881666D01*
X159170714Y-68072142D01*
X159218333Y-68167380D01*
X159265952Y-68215000D01*
X159361190Y-68262619D01*
X159646904Y-68262619D01*
X159742142Y-68215000D01*
X159789761Y-68167380D01*
X159837380Y-68072142D01*
X159837380Y-67881666D01*
X159789761Y-67786428D01*
X159170714Y-69119761D02*
X159980238Y-69119761D01*
X160075476Y-69072142D01*
X160123095Y-69024523D01*
X160170714Y-68929285D01*
X160170714Y-68786428D01*
X160123095Y-68691190D01*
X159789761Y-69119761D02*
X159837380Y-69024523D01*
X159837380Y-68834047D01*
X159789761Y-68738809D01*
X159742142Y-68691190D01*
X159646904Y-68643571D01*
X159361190Y-68643571D01*
X159265952Y-68691190D01*
X159218333Y-68738809D01*
X159170714Y-68834047D01*
X159170714Y-69024523D01*
X159218333Y-69119761D01*
X159837380Y-69595952D02*
X159170714Y-69595952D01*
X159361190Y-69595952D02*
X159265952Y-69643571D01*
X159218333Y-69691190D01*
X159170714Y-69786428D01*
X159170714Y-69881666D01*
X159837380Y-70643571D02*
X159313571Y-70643571D01*
X159218333Y-70595952D01*
X159170714Y-70500714D01*
X159170714Y-70310238D01*
X159218333Y-70215000D01*
X159789761Y-70643571D02*
X159837380Y-70548333D01*
X159837380Y-70310238D01*
X159789761Y-70215000D01*
X159694523Y-70167380D01*
X159599285Y-70167380D01*
X159504047Y-70215000D01*
X159456428Y-70310238D01*
X159456428Y-70548333D01*
X159408809Y-70643571D01*
X159837380Y-71548333D02*
X158837380Y-71548333D01*
X159789761Y-71548333D02*
X159837380Y-71453095D01*
X159837380Y-71262619D01*
X159789761Y-71167380D01*
X159742142Y-71119761D01*
X159646904Y-71072142D01*
X159361190Y-71072142D01*
X159265952Y-71119761D01*
X159218333Y-71167380D01*
X159170714Y-71262619D01*
X159170714Y-71453095D01*
X159218333Y-71548333D01*
X159789761Y-72405476D02*
X159837380Y-72310238D01*
X159837380Y-72119761D01*
X159789761Y-72024523D01*
X159694523Y-71976904D01*
X159313571Y-71976904D01*
X159218333Y-72024523D01*
X159170714Y-72119761D01*
X159170714Y-72310238D01*
X159218333Y-72405476D01*
X159313571Y-72453095D01*
X159408809Y-72453095D01*
X159504047Y-71976904D01*
X159837380Y-74072142D02*
X159313571Y-74072142D01*
X159218333Y-74024523D01*
X159170714Y-73929285D01*
X159170714Y-73738809D01*
X159218333Y-73643571D01*
X159789761Y-74072142D02*
X159837380Y-73976904D01*
X159837380Y-73738809D01*
X159789761Y-73643571D01*
X159694523Y-73595952D01*
X159599285Y-73595952D01*
X159504047Y-73643571D01*
X159456428Y-73738809D01*
X159456428Y-73976904D01*
X159408809Y-74072142D01*
X159789761Y-75262619D02*
X159837380Y-75405476D01*
X159837380Y-75643571D01*
X159789761Y-75738809D01*
X159742142Y-75786428D01*
X159646904Y-75834047D01*
X159551666Y-75834047D01*
X159456428Y-75786428D01*
X159408809Y-75738809D01*
X159361190Y-75643571D01*
X159313571Y-75453095D01*
X159265952Y-75357857D01*
X159218333Y-75310238D01*
X159123095Y-75262619D01*
X159027857Y-75262619D01*
X158932619Y-75310238D01*
X158885000Y-75357857D01*
X158837380Y-75453095D01*
X158837380Y-75691190D01*
X158885000Y-75834047D01*
X159837380Y-76405476D02*
X159789761Y-76310238D01*
X159742142Y-76262619D01*
X159646904Y-76215000D01*
X159361190Y-76215000D01*
X159265952Y-76262619D01*
X159218333Y-76310238D01*
X159170714Y-76405476D01*
X159170714Y-76548333D01*
X159218333Y-76643571D01*
X159265952Y-76691190D01*
X159361190Y-76738809D01*
X159646904Y-76738809D01*
X159742142Y-76691190D01*
X159789761Y-76643571D01*
X159837380Y-76548333D01*
X159837380Y-76405476D01*
X159837380Y-77167380D02*
X159170714Y-77167380D01*
X159361190Y-77167380D02*
X159265952Y-77215000D01*
X159218333Y-77262619D01*
X159170714Y-77357857D01*
X159170714Y-77453095D01*
X159789761Y-78215000D02*
X159837380Y-78119761D01*
X159837380Y-77929285D01*
X159789761Y-77834047D01*
X159742142Y-77786428D01*
X159646904Y-77738809D01*
X159361190Y-77738809D01*
X159265952Y-77786428D01*
X159218333Y-77834047D01*
X159170714Y-77929285D01*
X159170714Y-78119761D01*
X159218333Y-78215000D01*
X159789761Y-79024523D02*
X159837380Y-78929285D01*
X159837380Y-78738809D01*
X159789761Y-78643571D01*
X159694523Y-78595952D01*
X159313571Y-78595952D01*
X159218333Y-78643571D01*
X159170714Y-78738809D01*
X159170714Y-78929285D01*
X159218333Y-79024523D01*
X159313571Y-79072142D01*
X159408809Y-79072142D01*
X159504047Y-78595952D01*
X159837380Y-79500714D02*
X159170714Y-79500714D01*
X159361190Y-79500714D02*
X159265952Y-79548333D01*
X159218333Y-79595952D01*
X159170714Y-79691190D01*
X159170714Y-79786428D01*
X159789761Y-80500714D02*
X159837380Y-80405476D01*
X159837380Y-80215000D01*
X159789761Y-80119761D01*
X159694523Y-80072142D01*
X159313571Y-80072142D01*
X159218333Y-80119761D01*
X159170714Y-80215000D01*
X159170714Y-80405476D01*
X159218333Y-80500714D01*
X159313571Y-80548333D01*
X159408809Y-80548333D01*
X159504047Y-80072142D01*
X159837380Y-80976904D02*
X159170714Y-80976904D01*
X159361190Y-80976904D02*
X159265952Y-81024523D01*
X159218333Y-81072142D01*
X159170714Y-81167380D01*
X159170714Y-81262619D01*
X159837380Y-82881666D02*
X159837380Y-82310238D01*
X159837380Y-82595952D02*
X158837380Y-82595952D01*
X158980238Y-82500714D01*
X159075476Y-82405476D01*
X159123095Y-82310238D01*
X160780714Y-58238809D02*
X160780714Y-58619761D01*
X160447380Y-58381666D02*
X161304523Y-58381666D01*
X161399761Y-58429285D01*
X161447380Y-58524523D01*
X161447380Y-58619761D01*
X161447380Y-59095952D02*
X161399761Y-59000714D01*
X161352142Y-58953095D01*
X161256904Y-58905476D01*
X160971190Y-58905476D01*
X160875952Y-58953095D01*
X160828333Y-59000714D01*
X160780714Y-59095952D01*
X160780714Y-59238809D01*
X160828333Y-59334047D01*
X160875952Y-59381666D01*
X160971190Y-59429285D01*
X161256904Y-59429285D01*
X161352142Y-59381666D01*
X161399761Y-59334047D01*
X161447380Y-59238809D01*
X161447380Y-59095952D01*
X160780714Y-61048333D02*
X161447380Y-61048333D01*
X160399761Y-60810238D02*
X161114047Y-60572142D01*
X161114047Y-61191190D01*
X160875952Y-61715000D02*
X160828333Y-61619761D01*
X160780714Y-61572142D01*
X160685476Y-61524523D01*
X160637857Y-61524523D01*
X160542619Y-61572142D01*
X160495000Y-61619761D01*
X160447380Y-61715000D01*
X160447380Y-61905476D01*
X160495000Y-62000714D01*
X160542619Y-62048333D01*
X160637857Y-62095952D01*
X160685476Y-62095952D01*
X160780714Y-62048333D01*
X160828333Y-62000714D01*
X160875952Y-61905476D01*
X160875952Y-61715000D01*
X160923571Y-61619761D01*
X160971190Y-61572142D01*
X161066428Y-61524523D01*
X161256904Y-61524523D01*
X161352142Y-61572142D01*
X161399761Y-61619761D01*
X161447380Y-61715000D01*
X161447380Y-61905476D01*
X161399761Y-62000714D01*
X161352142Y-62048333D01*
X161256904Y-62095952D01*
X161066428Y-62095952D01*
X160971190Y-62048333D01*
X160923571Y-62000714D01*
X160875952Y-61905476D01*
X161447380Y-62524523D02*
X160447380Y-62524523D01*
X161447380Y-63095952D02*
X160875952Y-62667380D01*
X160447380Y-63095952D02*
X161018809Y-62524523D01*
X161447380Y-64429285D02*
X161399761Y-64334047D01*
X161352142Y-64286428D01*
X161256904Y-64238809D01*
X160971190Y-64238809D01*
X160875952Y-64286428D01*
X160828333Y-64334047D01*
X160780714Y-64429285D01*
X160780714Y-64572142D01*
X160828333Y-64667380D01*
X160875952Y-64715000D01*
X160971190Y-64762619D01*
X161256904Y-64762619D01*
X161352142Y-64715000D01*
X161399761Y-64667380D01*
X161447380Y-64572142D01*
X161447380Y-64429285D01*
X161447380Y-65191190D02*
X160780714Y-65191190D01*
X160971190Y-65191190D02*
X160875952Y-65238809D01*
X160828333Y-65286428D01*
X160780714Y-65381666D01*
X160780714Y-65476904D01*
X161399761Y-66953095D02*
X161447380Y-66857857D01*
X161447380Y-66667380D01*
X161399761Y-66572142D01*
X161304523Y-66524523D01*
X160923571Y-66524523D01*
X160828333Y-66572142D01*
X160780714Y-66667380D01*
X160780714Y-66857857D01*
X160828333Y-66953095D01*
X160923571Y-67000714D01*
X161018809Y-67000714D01*
X161114047Y-66524523D01*
X160780714Y-67334047D02*
X161447380Y-67572142D01*
X160780714Y-67810238D01*
X161399761Y-68572142D02*
X161447380Y-68476904D01*
X161447380Y-68286428D01*
X161399761Y-68191190D01*
X161304523Y-68143571D01*
X160923571Y-68143571D01*
X160828333Y-68191190D01*
X160780714Y-68286428D01*
X160780714Y-68476904D01*
X160828333Y-68572142D01*
X160923571Y-68619761D01*
X161018809Y-68619761D01*
X161114047Y-68143571D01*
X160780714Y-69048333D02*
X161447380Y-69048333D01*
X160875952Y-69048333D02*
X160828333Y-69095952D01*
X160780714Y-69191190D01*
X160780714Y-69334047D01*
X160828333Y-69429285D01*
X160923571Y-69476904D01*
X161447380Y-69476904D01*
X160447380Y-71191190D02*
X160447380Y-70715000D01*
X160923571Y-70667380D01*
X160875952Y-70715000D01*
X160828333Y-70810238D01*
X160828333Y-71048333D01*
X160875952Y-71143571D01*
X160923571Y-71191190D01*
X161018809Y-71238809D01*
X161256904Y-71238809D01*
X161352142Y-71191190D01*
X161399761Y-71143571D01*
X161447380Y-71048333D01*
X161447380Y-70810238D01*
X161399761Y-70715000D01*
X161352142Y-70667380D01*
X160447380Y-72095952D02*
X160447380Y-71905476D01*
X160495000Y-71810238D01*
X160542619Y-71762619D01*
X160685476Y-71667380D01*
X160875952Y-71619761D01*
X161256904Y-71619761D01*
X161352142Y-71667380D01*
X161399761Y-71714999D01*
X161447380Y-71810238D01*
X161447380Y-72000714D01*
X161399761Y-72095952D01*
X161352142Y-72143571D01*
X161256904Y-72191190D01*
X161018809Y-72191190D01*
X160923571Y-72143571D01*
X160875952Y-72095952D01*
X160828333Y-72000714D01*
X160828333Y-71810238D01*
X160875952Y-71714999D01*
X160923571Y-71667380D01*
X161018809Y-71619761D01*
X161447380Y-72619761D02*
X160447380Y-72619761D01*
X161447380Y-73191190D02*
X160875952Y-72762619D01*
X160447380Y-73191190D02*
X161018809Y-72619761D01*
X161447380Y-74524523D02*
X161399761Y-74429285D01*
X161304523Y-74381666D01*
X160447380Y-74381666D01*
X161447380Y-74905476D02*
X160780714Y-74905476D01*
X160447380Y-74905476D02*
X160495000Y-74857857D01*
X160542619Y-74905476D01*
X160495000Y-74953095D01*
X160447380Y-74905476D01*
X160542619Y-74905476D01*
X161447380Y-75381666D02*
X160447380Y-75381666D01*
X161066428Y-75476904D02*
X161447380Y-75762619D01*
X160780714Y-75762619D02*
X161161666Y-75381666D01*
X161399761Y-76572142D02*
X161447380Y-76476904D01*
X161447380Y-76286428D01*
X161399761Y-76191190D01*
X161304523Y-76143571D01*
X160923571Y-76143571D01*
X160828333Y-76191190D01*
X160780714Y-76286428D01*
X160780714Y-76476904D01*
X160828333Y-76572142D01*
X160923571Y-76619761D01*
X161018809Y-76619761D01*
X161114047Y-76143571D01*
X161447380Y-77810238D02*
X160780714Y-77810238D01*
X160447380Y-77810238D02*
X160495000Y-77762619D01*
X160542619Y-77810238D01*
X160495000Y-77857857D01*
X160447380Y-77810238D01*
X160542619Y-77810238D01*
X160780714Y-78143571D02*
X160780714Y-78524523D01*
X161447380Y-78286428D02*
X160590238Y-78286428D01*
X160495000Y-78334047D01*
X160447380Y-78429285D01*
X160447380Y-78524523D01*
X161447380Y-80048333D02*
X160923571Y-80048333D01*
X160828333Y-80000714D01*
X160780714Y-79905476D01*
X160780714Y-79714999D01*
X160828333Y-79619761D01*
X161399761Y-80048333D02*
X161447380Y-79953095D01*
X161447380Y-79714999D01*
X161399761Y-79619761D01*
X161304523Y-79572142D01*
X161209285Y-79572142D01*
X161114047Y-79619761D01*
X161066428Y-79714999D01*
X161066428Y-79953095D01*
X161018809Y-80048333D01*
X163057380Y-61334047D02*
X162581190Y-61000714D01*
X163057380Y-60762619D02*
X162057380Y-60762619D01*
X162057380Y-61143571D01*
X162105000Y-61238809D01*
X162152619Y-61286428D01*
X162247857Y-61334047D01*
X162390714Y-61334047D01*
X162485952Y-61286428D01*
X162533571Y-61238809D01*
X162581190Y-61143571D01*
X162581190Y-60762619D01*
X162771666Y-61715000D02*
X162771666Y-62191190D01*
X163057380Y-61619761D02*
X162057380Y-61953095D01*
X163057380Y-62286428D01*
X163057380Y-62619761D02*
X162057380Y-62619761D01*
X162771666Y-62953095D01*
X162057380Y-63286428D01*
X163057380Y-63286428D01*
X163057380Y-64524523D02*
X162057380Y-64524523D01*
X162057380Y-64905476D01*
X162105000Y-65000714D01*
X162152619Y-65048333D01*
X162247857Y-65095952D01*
X162390714Y-65095952D01*
X162485952Y-65048333D01*
X162533571Y-65000714D01*
X162581190Y-64905476D01*
X162581190Y-64524523D01*
X162771666Y-65476904D02*
X162771666Y-65953095D01*
X163057380Y-65381666D02*
X162057380Y-65715000D01*
X163057380Y-66048333D01*
X162962142Y-66953095D02*
X163009761Y-66905476D01*
X163057380Y-66762619D01*
X163057380Y-66667380D01*
X163009761Y-66524523D01*
X162914523Y-66429285D01*
X162819285Y-66381666D01*
X162628809Y-66334047D01*
X162485952Y-66334047D01*
X162295476Y-66381666D01*
X162200238Y-66429285D01*
X162105000Y-66524523D01*
X162057380Y-66667380D01*
X162057380Y-66762619D01*
X162105000Y-66905476D01*
X162152619Y-66953095D01*
X162390714Y-68048333D02*
X163057380Y-68238809D01*
X162581190Y-68429285D01*
X163057380Y-68619761D01*
X162390714Y-68810238D01*
X163057380Y-69619761D02*
X162533571Y-69619761D01*
X162438333Y-69572142D01*
X162390714Y-69476904D01*
X162390714Y-69286428D01*
X162438333Y-69191190D01*
X163009761Y-69619761D02*
X163057380Y-69524523D01*
X163057380Y-69286428D01*
X163009761Y-69191190D01*
X162914523Y-69143571D01*
X162819285Y-69143571D01*
X162724047Y-69191190D01*
X162676428Y-69286428D01*
X162676428Y-69524523D01*
X162628809Y-69619761D01*
X163009761Y-70048333D02*
X163057380Y-70143571D01*
X163057380Y-70334047D01*
X163009761Y-70429285D01*
X162914523Y-70476904D01*
X162866904Y-70476904D01*
X162771666Y-70429285D01*
X162724047Y-70334047D01*
X162724047Y-70191190D01*
X162676428Y-70095952D01*
X162581190Y-70048333D01*
X162533571Y-70048333D01*
X162438333Y-70095952D01*
X162390714Y-70191190D01*
X162390714Y-70334047D01*
X162438333Y-70429285D01*
X163057380Y-71667380D02*
X162390714Y-71667380D01*
X162057380Y-71667380D02*
X162105000Y-71619761D01*
X162152619Y-71667380D01*
X162105000Y-71714999D01*
X162057380Y-71667380D01*
X162152619Y-71667380D01*
X162390714Y-72143571D02*
X163057380Y-72143571D01*
X162485952Y-72143571D02*
X162438333Y-72191190D01*
X162390714Y-72286428D01*
X162390714Y-72429285D01*
X162438333Y-72524523D01*
X162533571Y-72572142D01*
X163057380Y-72572142D01*
X163009761Y-73000714D02*
X163057380Y-73095952D01*
X163057380Y-73286428D01*
X163009761Y-73381666D01*
X162914523Y-73429285D01*
X162866904Y-73429285D01*
X162771666Y-73381666D01*
X162724047Y-73286428D01*
X162724047Y-73143571D01*
X162676428Y-73048333D01*
X162581190Y-73000714D01*
X162533571Y-73000714D01*
X162438333Y-73048333D01*
X162390714Y-73143571D01*
X162390714Y-73286428D01*
X162438333Y-73381666D01*
X162390714Y-73714999D02*
X162390714Y-74095952D01*
X162057380Y-73857857D02*
X162914523Y-73857857D01*
X163009761Y-73905476D01*
X163057380Y-74000714D01*
X163057380Y-74095952D01*
X163057380Y-74857857D02*
X162533571Y-74857857D01*
X162438333Y-74810238D01*
X162390714Y-74714999D01*
X162390714Y-74524523D01*
X162438333Y-74429285D01*
X163009761Y-74857857D02*
X163057380Y-74762619D01*
X163057380Y-74524523D01*
X163009761Y-74429285D01*
X162914523Y-74381666D01*
X162819285Y-74381666D01*
X162724047Y-74429285D01*
X162676428Y-74524523D01*
X162676428Y-74762619D01*
X162628809Y-74857857D01*
X163057380Y-75476904D02*
X163009761Y-75381666D01*
X162914523Y-75334047D01*
X162057380Y-75334047D01*
X163057380Y-76000714D02*
X163009761Y-75905476D01*
X162914523Y-75857857D01*
X162057380Y-75857857D01*
X163009761Y-76762619D02*
X163057380Y-76667380D01*
X163057380Y-76476904D01*
X163009761Y-76381666D01*
X162914523Y-76334047D01*
X162533571Y-76334047D01*
X162438333Y-76381666D01*
X162390714Y-76476904D01*
X162390714Y-76667380D01*
X162438333Y-76762619D01*
X162533571Y-76810238D01*
X162628809Y-76810238D01*
X162724047Y-76334047D01*
X163057380Y-77667380D02*
X162057380Y-77667380D01*
X163009761Y-77667380D02*
X163057380Y-77572142D01*
X163057380Y-77381666D01*
X163009761Y-77286428D01*
X162962142Y-77238809D01*
X162866904Y-77191190D01*
X162581190Y-77191190D01*
X162485952Y-77238809D01*
X162438333Y-77286428D01*
X162390714Y-77381666D01*
X162390714Y-77572142D01*
X162438333Y-77667380D01*
X113942857Y-90336666D02*
X113466667Y-90336666D01*
X114038095Y-90622380D02*
X113704762Y-89622380D01*
X113371429Y-90622380D01*
X112847619Y-89622380D02*
X112752381Y-89622380D01*
X112657143Y-89670000D01*
X112609524Y-89717619D01*
X112561905Y-89812857D01*
X112514286Y-90003333D01*
X112514286Y-90241428D01*
X112561905Y-90431904D01*
X112609524Y-90527142D01*
X112657143Y-90574761D01*
X112752381Y-90622380D01*
X112847619Y-90622380D01*
X112942857Y-90574761D01*
X112990476Y-90527142D01*
X113038095Y-90431904D01*
X113085714Y-90241428D01*
X113085714Y-90003333D01*
X113038095Y-89812857D01*
X112990476Y-89717619D01*
X112942857Y-89670000D01*
X112847619Y-89622380D01*
G36*
X170134364Y-92538552D02*
G01*
X169973148Y-92538552D01*
X169951833Y-92538557D01*
X169907135Y-92538657D01*
X169872579Y-92538980D01*
X169846483Y-92539651D01*
X169827165Y-92540797D01*
X169812943Y-92542541D01*
X169802136Y-92545009D01*
X169793062Y-92548326D01*
X169784039Y-92552618D01*
X169763807Y-92566596D01*
X169744808Y-92591211D01*
X169735030Y-92620339D01*
X169735323Y-92651073D01*
X169746539Y-92680510D01*
X169758766Y-92700564D01*
X169717025Y-92735211D01*
X169709116Y-92741699D01*
X169690800Y-92756104D01*
X169676956Y-92766110D01*
X169670103Y-92769859D01*
X169666371Y-92766637D01*
X169658697Y-92754721D01*
X169649643Y-92737038D01*
X169644084Y-92723604D01*
X169634588Y-92681320D01*
X169635965Y-92638812D01*
X169647909Y-92598677D01*
X169670115Y-92563510D01*
X169691479Y-92538552D01*
X169640492Y-92538552D01*
X169640492Y-92438527D01*
X170134364Y-92438527D01*
X170134364Y-92538552D01*
G37*
G36*
X169176582Y-93572654D02*
G01*
X169214055Y-93578981D01*
X169242669Y-93588063D01*
X169280762Y-93611048D01*
X169314331Y-93644489D01*
X169338832Y-93685169D01*
X169352858Y-93731256D01*
X169354265Y-93741045D01*
X169355441Y-93780970D01*
X169350546Y-93821214D01*
X169340182Y-93855858D01*
X169325797Y-93881615D01*
X169299539Y-93913392D01*
X169268013Y-93940370D01*
X169235035Y-93958811D01*
X169224799Y-93962674D01*
X169209735Y-93967143D01*
X169193039Y-93970118D01*
X169171993Y-93971898D01*
X169143881Y-93972784D01*
X169105986Y-93973076D01*
X169092509Y-93973061D01*
X169047476Y-93971988D01*
X169011867Y-93968824D01*
X168983289Y-93962932D01*
X168959350Y-93953676D01*
X168937655Y-93940421D01*
X168915813Y-93922529D01*
X168886796Y-93890192D01*
X168864438Y-93849966D01*
X168851922Y-93806715D01*
X168849733Y-93773771D01*
X168952823Y-93773771D01*
X168952825Y-93774487D01*
X168958568Y-93809170D01*
X168975289Y-93837888D01*
X169002856Y-93860414D01*
X169003891Y-93861015D01*
X169014874Y-93866345D01*
X169027566Y-93869888D01*
X169044662Y-93871989D01*
X169068861Y-93872996D01*
X169102860Y-93873255D01*
X169125778Y-93873048D01*
X169160510Y-93871256D01*
X169186462Y-93867008D01*
X169206017Y-93859564D01*
X169221558Y-93848187D01*
X169235466Y-93832136D01*
X169246316Y-93813176D01*
X169253735Y-93780133D01*
X169249881Y-93743593D01*
X169249820Y-93743355D01*
X169240895Y-93717675D01*
X169227919Y-93698484D01*
X169209248Y-93684962D01*
X169183237Y-93676290D01*
X169148243Y-93671648D01*
X169102622Y-93670217D01*
X169073170Y-93670393D01*
X169048809Y-93671430D01*
X169031081Y-93673778D01*
X169016870Y-93677871D01*
X169003059Y-93684146D01*
X168995788Y-93688209D01*
X168971670Y-93709344D01*
X168957473Y-93737643D01*
X168952823Y-93773771D01*
X168849733Y-93773771D01*
X168848968Y-93762257D01*
X168855294Y-93718414D01*
X168870621Y-93677002D01*
X168894667Y-93639843D01*
X168927152Y-93608754D01*
X168967796Y-93585555D01*
X168973404Y-93583405D01*
X169005000Y-93575502D01*
X169044460Y-93570506D01*
X169088440Y-93568386D01*
X169102622Y-93568614D01*
X169133596Y-93569112D01*
X169176582Y-93572654D01*
G37*
G36*
X170035740Y-91935723D02*
G01*
X170055757Y-91944078D01*
X170087802Y-91967420D01*
X170113586Y-92000089D01*
X170131616Y-92040455D01*
X170137020Y-92065842D01*
X170139812Y-92100582D01*
X170138875Y-92135599D01*
X170134088Y-92164828D01*
X170133657Y-92166309D01*
X170124380Y-92187683D01*
X170111687Y-92207026D01*
X170095743Y-92225975D01*
X170134364Y-92225975D01*
X170134364Y-92333349D01*
X169945255Y-92330792D01*
X169942355Y-92330753D01*
X169881620Y-92329725D01*
X169832473Y-92328452D01*
X169794040Y-92326887D01*
X169765444Y-92324988D01*
X169745811Y-92322708D01*
X169734265Y-92320002D01*
X169706681Y-92306557D01*
X169677763Y-92281718D01*
X169655477Y-92247099D01*
X169651171Y-92237947D01*
X169644373Y-92220213D01*
X169639986Y-92201330D01*
X169637268Y-92177514D01*
X169635479Y-92144980D01*
X169634870Y-92118568D01*
X169637008Y-92074985D01*
X169644034Y-92039575D01*
X169656543Y-92009909D01*
X169675132Y-91983560D01*
X169684729Y-91972830D01*
X169696123Y-91961539D01*
X169702491Y-91957159D01*
X169703031Y-91957307D01*
X169709955Y-91963389D01*
X169721767Y-91976604D01*
X169736248Y-91994496D01*
X169765244Y-92031834D01*
X169750518Y-92047723D01*
X169743351Y-92056730D01*
X169734342Y-92075847D01*
X169729474Y-92101413D01*
X169728014Y-92136310D01*
X169728657Y-92151706D01*
X169734125Y-92181852D01*
X169744349Y-92205268D01*
X169758331Y-92219220D01*
X169765205Y-92221660D01*
X169783354Y-92224762D01*
X169805065Y-92225975D01*
X169839179Y-92225975D01*
X169927094Y-92225975D01*
X169962272Y-92225975D01*
X169976452Y-92225396D01*
X170004494Y-92220275D01*
X170025439Y-92210665D01*
X170036712Y-92197549D01*
X170037600Y-92194845D01*
X170040827Y-92176831D01*
X170042946Y-92151829D01*
X170043796Y-92124293D01*
X170043214Y-92098672D01*
X170041036Y-92079418D01*
X170038911Y-92071359D01*
X170026711Y-92048535D01*
X170008733Y-92033156D01*
X169987599Y-92026257D01*
X169965929Y-92028873D01*
X169946344Y-92042039D01*
X169940676Y-92048659D01*
X169936213Y-92056613D01*
X169933238Y-92067551D01*
X169931340Y-92083852D01*
X169930111Y-92107897D01*
X169929141Y-92142063D01*
X169927094Y-92225975D01*
X169839179Y-92225975D01*
X169841805Y-92133765D01*
X169843565Y-92090996D01*
X169846623Y-92056170D01*
X169851508Y-92029320D01*
X169858814Y-92008137D01*
X169869137Y-91990312D01*
X169883071Y-91973538D01*
X169895966Y-91962051D01*
X169927197Y-91944497D01*
X169963625Y-91933583D01*
X169987599Y-91931501D01*
X170001167Y-91930322D01*
X170035740Y-91935723D01*
G37*
G36*
X169040344Y-94060833D02*
G01*
X169046771Y-94060835D01*
X169098487Y-94060886D01*
X169139436Y-94061080D01*
X169171183Y-94061523D01*
X169195292Y-94062318D01*
X169213328Y-94063569D01*
X169226855Y-94065383D01*
X169237436Y-94067862D01*
X169246638Y-94071111D01*
X169256022Y-94075235D01*
X169273573Y-94084395D01*
X169309845Y-94112647D01*
X169336638Y-94148802D01*
X169353307Y-94192083D01*
X169355289Y-94201687D01*
X169356291Y-94243322D01*
X169345917Y-94285748D01*
X169324650Y-94326699D01*
X169303754Y-94357749D01*
X169352921Y-94357749D01*
X169352921Y-94457774D01*
X168852798Y-94457774D01*
X168852798Y-94357749D01*
X169014014Y-94357749D01*
X169035468Y-94357744D01*
X169080131Y-94357644D01*
X169114655Y-94357321D01*
X169140721Y-94356649D01*
X169160008Y-94355504D01*
X169174197Y-94353759D01*
X169184969Y-94351291D01*
X169194003Y-94347974D01*
X169202980Y-94343683D01*
X169211387Y-94339032D01*
X169235627Y-94318314D01*
X169249554Y-94291195D01*
X169253845Y-94256515D01*
X169253738Y-94251631D01*
X169249097Y-94223753D01*
X169236186Y-94201121D01*
X169212994Y-94179967D01*
X169209993Y-94177831D01*
X169203882Y-94174445D01*
X169195918Y-94171814D01*
X169184580Y-94169819D01*
X169168346Y-94168342D01*
X169145694Y-94167263D01*
X169115104Y-94166463D01*
X169075054Y-94165826D01*
X169024023Y-94165230D01*
X168852302Y-94163384D01*
X168854113Y-94112092D01*
X168855924Y-94060801D01*
X169040344Y-94060833D01*
G37*
G36*
X170134364Y-91562566D02*
G01*
X169967135Y-91564502D01*
X169937512Y-91564855D01*
X169893597Y-91565481D01*
X169859697Y-91566217D01*
X169834222Y-91567195D01*
X169815577Y-91568549D01*
X169802172Y-91570413D01*
X169792412Y-91572920D01*
X169784706Y-91576203D01*
X169777461Y-91580397D01*
X169776494Y-91581008D01*
X169754799Y-91601851D01*
X169740771Y-91629488D01*
X169735062Y-91660479D01*
X169738325Y-91691380D01*
X169751214Y-91718751D01*
X169759294Y-91729018D01*
X169768344Y-91737756D01*
X169779322Y-91744472D01*
X169793738Y-91749429D01*
X169813103Y-91752893D01*
X169838927Y-91755127D01*
X169872721Y-91756397D01*
X169915995Y-91756966D01*
X169970261Y-91757100D01*
X170134364Y-91757109D01*
X170134364Y-91857646D01*
X169942129Y-91855827D01*
X169931827Y-91855729D01*
X169876085Y-91855129D01*
X169831100Y-91854314D01*
X169795373Y-91853002D01*
X169767404Y-91850912D01*
X169745694Y-91847760D01*
X169728744Y-91843265D01*
X169715054Y-91837145D01*
X169703126Y-91829116D01*
X169691460Y-91818897D01*
X169678557Y-91806206D01*
X169665508Y-91791044D01*
X169645927Y-91755329D01*
X169635566Y-91715208D01*
X169634657Y-91673609D01*
X169643430Y-91633462D01*
X169662116Y-91597695D01*
X169663586Y-91595666D01*
X169673746Y-91581225D01*
X169680376Y-91571126D01*
X169680602Y-91570299D01*
X169677698Y-91568180D01*
X169668631Y-91566508D01*
X169652346Y-91565239D01*
X169627785Y-91564329D01*
X169593893Y-91563734D01*
X169549612Y-91563410D01*
X169493886Y-91563312D01*
X169302781Y-91563312D01*
X169324443Y-91596132D01*
X169333433Y-91611338D01*
X169345327Y-91636560D01*
X169352693Y-91658771D01*
X169356451Y-91689806D01*
X169351887Y-91731864D01*
X169336972Y-91770758D01*
X169312870Y-91804496D01*
X169280746Y-91831086D01*
X169241763Y-91848536D01*
X169238742Y-91849348D01*
X169214146Y-91853505D01*
X169180661Y-91856441D01*
X169141333Y-91858156D01*
X169099209Y-91858651D01*
X169057334Y-91857928D01*
X169018754Y-91855986D01*
X168986517Y-91852827D01*
X168963668Y-91848452D01*
X168944939Y-91841756D01*
X168909125Y-91820352D01*
X168881222Y-91791270D01*
X168861821Y-91756328D01*
X168851514Y-91717346D01*
X168850892Y-91676145D01*
X168851589Y-91673142D01*
X168953596Y-91673142D01*
X168959064Y-91703605D01*
X168972914Y-91726298D01*
X168995828Y-91742714D01*
X169007489Y-91747425D01*
X169021916Y-91750669D01*
X169041514Y-91752677D01*
X169068724Y-91753699D01*
X169105986Y-91753984D01*
X169144380Y-91753502D01*
X169176556Y-91751518D01*
X169200193Y-91747468D01*
X169217347Y-91740790D01*
X169230073Y-91730924D01*
X169240429Y-91717309D01*
X169248480Y-91700244D01*
X169254127Y-91670777D01*
X169252293Y-91640349D01*
X169243372Y-91612881D01*
X169227764Y-91592296D01*
X169219379Y-91586301D01*
X169191046Y-91574033D01*
X169155414Y-91566243D01*
X169115623Y-91562912D01*
X169074815Y-91564021D01*
X169036130Y-91569551D01*
X169002709Y-91579484D01*
X168977694Y-91593800D01*
X168967959Y-91602655D01*
X168960372Y-91613522D01*
X168956336Y-91628125D01*
X168954032Y-91650847D01*
X168953596Y-91673142D01*
X168851589Y-91673142D01*
X168860547Y-91634543D01*
X168881070Y-91594362D01*
X168901965Y-91563312D01*
X168852798Y-91563312D01*
X168852798Y-91463287D01*
X170134364Y-91463287D01*
X170134364Y-91562566D01*
G37*
G36*
X169852044Y-94781669D02*
G01*
X169907588Y-94780588D01*
X169960463Y-94786521D01*
X170007828Y-94798988D01*
X170046842Y-94817506D01*
X170068242Y-94832364D01*
X170095475Y-94858273D01*
X170115912Y-94889568D01*
X170132229Y-94929765D01*
X170137181Y-94951808D01*
X170139604Y-94987902D01*
X170137480Y-95027094D01*
X170131135Y-95064620D01*
X170120895Y-95095716D01*
X170117955Y-95101807D01*
X170105974Y-95122925D01*
X170092124Y-95143413D01*
X170078394Y-95160698D01*
X170066774Y-95172209D01*
X170059256Y-95175374D01*
X170059097Y-95175301D01*
X170052625Y-95169471D01*
X170040762Y-95156777D01*
X170025952Y-95139828D01*
X169997278Y-95106080D01*
X170012629Y-95087837D01*
X170026108Y-95066300D01*
X170037553Y-95036054D01*
X170043929Y-95004311D01*
X170043702Y-94976567D01*
X170032814Y-94943449D01*
X170012784Y-94915246D01*
X169985845Y-94894956D01*
X169954091Y-94884723D01*
X169928063Y-94881232D01*
X169928063Y-95190777D01*
X169856836Y-95188051D01*
X169851763Y-95187853D01*
X169820901Y-95186280D01*
X169798369Y-95183949D01*
X169780495Y-95180105D01*
X169763609Y-95173994D01*
X169744040Y-95164860D01*
X169708225Y-95142934D01*
X169674336Y-95109865D01*
X169650766Y-95069924D01*
X169637762Y-95023552D01*
X169636518Y-94993808D01*
X169729240Y-94993808D01*
X169737018Y-95026408D01*
X169755292Y-95053100D01*
X169783287Y-95072943D01*
X169820224Y-95084995D01*
X169840541Y-95088867D01*
X169840541Y-94881232D01*
X169814513Y-94884723D01*
X169783679Y-94893919D01*
X169757012Y-94913280D01*
X169738467Y-94940879D01*
X169729577Y-94975083D01*
X169729240Y-94993808D01*
X169636518Y-94993808D01*
X169635572Y-94971192D01*
X169636027Y-94964924D01*
X169645742Y-94916421D01*
X169665773Y-94874701D01*
X169695736Y-94840117D01*
X169735243Y-94813023D01*
X169783909Y-94793771D01*
X169840541Y-94782871D01*
X169841349Y-94782715D01*
X169852044Y-94781669D01*
G37*
G36*
X169160644Y-90971611D02*
G01*
X169204692Y-90978113D01*
X169241065Y-90989568D01*
X169271840Y-91006617D01*
X169299091Y-91029899D01*
X169313032Y-91045457D01*
X169338863Y-91086470D01*
X169353036Y-91131458D01*
X169355788Y-91166686D01*
X169353121Y-91207255D01*
X169345277Y-91244483D01*
X169334783Y-91270070D01*
X169309732Y-91307097D01*
X169276289Y-91338178D01*
X169236896Y-91360695D01*
X169223802Y-91365041D01*
X169192798Y-91371031D01*
X169154595Y-91374834D01*
X169112443Y-91376445D01*
X169069595Y-91375863D01*
X169029300Y-91373084D01*
X168994811Y-91368106D01*
X168969377Y-91360926D01*
X168949878Y-91351497D01*
X168912228Y-91324243D01*
X168882967Y-91289871D01*
X168862456Y-91250176D01*
X168851056Y-91206955D01*
X168850199Y-91186961D01*
X168952361Y-91186961D01*
X168960271Y-91216431D01*
X168977171Y-91242162D01*
X169003059Y-91261675D01*
X169015271Y-91267328D01*
X169029273Y-91271657D01*
X169046421Y-91274189D01*
X169069832Y-91275359D01*
X169102622Y-91275604D01*
X169131827Y-91274991D01*
X169171015Y-91271390D01*
X169200494Y-91264182D01*
X169221791Y-91252929D01*
X169236431Y-91237193D01*
X169236454Y-91237158D01*
X169249496Y-91207301D01*
X169253697Y-91174090D01*
X169249083Y-91141617D01*
X169235678Y-91113969D01*
X169228094Y-91104509D01*
X169213574Y-91091023D01*
X169196180Y-91081830D01*
X169173524Y-91076187D01*
X169143214Y-91073347D01*
X169102860Y-91072566D01*
X169099198Y-91072568D01*
X169066228Y-91072882D01*
X169042807Y-91073976D01*
X169026236Y-91076198D01*
X169013818Y-91079893D01*
X169002856Y-91085407D01*
X168982609Y-91100882D01*
X168963528Y-91126709D01*
X168953446Y-91156228D01*
X168952361Y-91186961D01*
X168850199Y-91186961D01*
X168849129Y-91162003D01*
X168857034Y-91117116D01*
X168875134Y-91074089D01*
X168903789Y-91034719D01*
X168912975Y-91025248D01*
X168939849Y-91003249D01*
X168970103Y-90987378D01*
X169005908Y-90976924D01*
X169049437Y-90971174D01*
X169102860Y-90969416D01*
X169106846Y-90969424D01*
X169160644Y-90971611D01*
G37*
G36*
X170134364Y-94545295D02*
G01*
X169970261Y-94545305D01*
X169937446Y-94545338D01*
X169893757Y-94545559D01*
X169860000Y-94546070D01*
X169834591Y-94546964D01*
X169815944Y-94548335D01*
X169802474Y-94550277D01*
X169792595Y-94552882D01*
X169784722Y-94556245D01*
X169769290Y-94566153D01*
X169748292Y-94589887D01*
X169736753Y-94618879D01*
X169735525Y-94650401D01*
X169745462Y-94681728D01*
X169758221Y-94706206D01*
X169714346Y-94742301D01*
X169713397Y-94743080D01*
X169691992Y-94760049D01*
X169677879Y-94769490D01*
X169669283Y-94772377D01*
X169664426Y-94769685D01*
X169645579Y-94733657D01*
X169635391Y-94691050D01*
X169635800Y-94647323D01*
X169646756Y-94605140D01*
X169668210Y-94567163D01*
X169684889Y-94545295D01*
X169640492Y-94545295D01*
X169640492Y-94445271D01*
X170134364Y-94445271D01*
X170134364Y-94545295D01*
G37*
G36*
X169977442Y-92779886D02*
G01*
X169999143Y-92780897D01*
X170015095Y-92782615D01*
X170027291Y-92785223D01*
X170037724Y-92788907D01*
X170048388Y-92793851D01*
X170055791Y-92797805D01*
X170087005Y-92821302D01*
X170113135Y-92851657D01*
X170130505Y-92884795D01*
X170132243Y-92890202D01*
X170137683Y-92915154D01*
X170140122Y-92939978D01*
X170139651Y-92951487D01*
X170134859Y-92979078D01*
X170126148Y-93007305D01*
X170115019Y-93031795D01*
X170102975Y-93048171D01*
X170098290Y-93052648D01*
X170091470Y-93062775D01*
X170096086Y-93068274D01*
X170112483Y-93069932D01*
X170134364Y-93069932D01*
X170134364Y-93169957D01*
X169433665Y-93169957D01*
X169435491Y-93121508D01*
X169437317Y-93073058D01*
X169560785Y-93071363D01*
X169567201Y-93071268D01*
X169604317Y-93070420D01*
X169636464Y-93069193D01*
X169661758Y-93067695D01*
X169678315Y-93066033D01*
X169684253Y-93064314D01*
X169682273Y-93059540D01*
X169673881Y-93050380D01*
X169670796Y-93047526D01*
X169657342Y-93028405D01*
X169645674Y-93002133D01*
X169639874Y-92981662D01*
X169734486Y-92981662D01*
X169741665Y-93010259D01*
X169757231Y-93035249D01*
X169781152Y-93053875D01*
X169782958Y-93054794D01*
X169795206Y-93060003D01*
X169809052Y-93063476D01*
X169827222Y-93065547D01*
X169852439Y-93066546D01*
X169887428Y-93066805D01*
X169889233Y-93066804D01*
X169931573Y-93065976D01*
X169963550Y-93063121D01*
X169987164Y-93057537D01*
X170004413Y-93048519D01*
X170017296Y-93035363D01*
X170027811Y-93017365D01*
X170035832Y-92997004D01*
X170039449Y-92966227D01*
X170032097Y-92933451D01*
X170029566Y-92927281D01*
X170014740Y-92906431D01*
X169991685Y-92891300D01*
X169959552Y-92881603D01*
X169917486Y-92877056D01*
X169864638Y-92877372D01*
X169829000Y-92879862D01*
X169798902Y-92884445D01*
X169779312Y-92891028D01*
X169763578Y-92901776D01*
X169745411Y-92924665D01*
X169735724Y-92952212D01*
X169734486Y-92981662D01*
X169639874Y-92981662D01*
X169637443Y-92973083D01*
X169634302Y-92945627D01*
X169634433Y-92936283D01*
X169639481Y-92897105D01*
X169652925Y-92863730D01*
X169676230Y-92832188D01*
X169691443Y-92816274D01*
X169706465Y-92803704D01*
X169722877Y-92794322D01*
X169742528Y-92787671D01*
X169767270Y-92783295D01*
X169798955Y-92780735D01*
X169839432Y-92779534D01*
X169890554Y-92779236D01*
X169908820Y-92779244D01*
X169917486Y-92779278D01*
X169947999Y-92779396D01*
X169977442Y-92779886D01*
G37*
G36*
X169161558Y-94894743D02*
G01*
X169212106Y-94907320D01*
X169256354Y-94927355D01*
X169292062Y-94954283D01*
X169298200Y-94960687D01*
X169322577Y-94993798D01*
X169341771Y-95032084D01*
X169352867Y-95069997D01*
X169356394Y-95093978D01*
X169357908Y-95121670D01*
X169355074Y-95146901D01*
X169347619Y-95175201D01*
X169343538Y-95187013D01*
X169327273Y-95222092D01*
X169306747Y-95254455D01*
X169284882Y-95279257D01*
X169275808Y-95286684D01*
X169268513Y-95287232D01*
X169258459Y-95279257D01*
X169254658Y-95275622D01*
X169241044Y-95261005D01*
X169226782Y-95244038D01*
X169208296Y-95220728D01*
X169225423Y-95198273D01*
X169229027Y-95193332D01*
X169246417Y-95159322D01*
X169253831Y-95123431D01*
X169251672Y-95087967D01*
X169240349Y-95055235D01*
X169220264Y-95027541D01*
X169191825Y-95007192D01*
X169190244Y-95006424D01*
X169173391Y-94999469D01*
X169155822Y-94995301D01*
X169133618Y-94993284D01*
X169102860Y-94992784D01*
X169093915Y-94992823D01*
X169066334Y-94993651D01*
X169046228Y-94996075D01*
X169029631Y-95000785D01*
X169012574Y-95008468D01*
X168987155Y-95025104D01*
X168966800Y-95049968D01*
X168955986Y-95081789D01*
X168954096Y-95121761D01*
X168954829Y-95133017D01*
X168958086Y-95155578D01*
X168964754Y-95173529D01*
X168976636Y-95192527D01*
X168996942Y-95221336D01*
X168978697Y-95244342D01*
X168974039Y-95250083D01*
X168959426Y-95266847D01*
X168947195Y-95279316D01*
X168945144Y-95281160D01*
X168936479Y-95287440D01*
X168929261Y-95286071D01*
X168918254Y-95276551D01*
X168915425Y-95273813D01*
X168890751Y-95243014D01*
X168869886Y-95204930D01*
X168855443Y-95164236D01*
X168852973Y-95154168D01*
X168848847Y-95130509D01*
X168848690Y-95108430D01*
X168852238Y-95081129D01*
X168861047Y-95043008D01*
X168881097Y-94996166D01*
X168910091Y-94957973D01*
X168948168Y-94928298D01*
X168995468Y-94907010D01*
X169052132Y-94893978D01*
X169106952Y-94890187D01*
X169161558Y-94894743D01*
G37*
G36*
X170047519Y-93945896D02*
G01*
X170081522Y-93966830D01*
X170109309Y-93997546D01*
X170129415Y-94037277D01*
X170129592Y-94037775D01*
X170136670Y-94068050D01*
X170139914Y-94104335D01*
X170139122Y-94140789D01*
X170134088Y-94171572D01*
X170133657Y-94173052D01*
X170124380Y-94194426D01*
X170111687Y-94213770D01*
X170095743Y-94232718D01*
X170134364Y-94232718D01*
X170134364Y-94332743D01*
X169948380Y-94332708D01*
X169913627Y-94332618D01*
X169859609Y-94332087D01*
X169813939Y-94331110D01*
X169777654Y-94329719D01*
X169751792Y-94327948D01*
X169737391Y-94325832D01*
X169733610Y-94324686D01*
X169705853Y-94309895D01*
X169680037Y-94285988D01*
X169658802Y-94255910D01*
X169644788Y-94222603D01*
X169640206Y-94202099D01*
X169635574Y-94162431D01*
X169634642Y-94119894D01*
X169637434Y-94079419D01*
X169643971Y-94045934D01*
X169645500Y-94041323D01*
X169654593Y-94021592D01*
X169667137Y-94000931D01*
X169680921Y-93982395D01*
X169693735Y-93969034D01*
X169703369Y-93963902D01*
X169703840Y-93964007D01*
X169710775Y-93969878D01*
X169722545Y-93982957D01*
X169736889Y-94000759D01*
X169741106Y-94006263D01*
X169753615Y-94023425D01*
X169759431Y-94034094D01*
X169759568Y-94040803D01*
X169755041Y-94046083D01*
X169745698Y-94056791D01*
X169734890Y-94081017D01*
X169728970Y-94111142D01*
X169727950Y-94143722D01*
X169731843Y-94175317D01*
X169740661Y-94202483D01*
X169754416Y-94221778D01*
X169758986Y-94225080D01*
X169776354Y-94230906D01*
X169803151Y-94232718D01*
X169839395Y-94232718D01*
X169928063Y-94232718D01*
X169958914Y-94232718D01*
X169961370Y-94232708D01*
X169993220Y-94229746D01*
X170015765Y-94221007D01*
X170031041Y-94205727D01*
X170031552Y-94204897D01*
X170037004Y-94189592D01*
X170041400Y-94166737D01*
X170044227Y-94140875D01*
X170044973Y-94116551D01*
X170043129Y-94098310D01*
X170040948Y-94089019D01*
X170037062Y-94071582D01*
X170028436Y-94052430D01*
X170010406Y-94037943D01*
X169985890Y-94032868D01*
X169980813Y-94032994D01*
X169961719Y-94035887D01*
X169947699Y-94043704D01*
X169938037Y-94057942D01*
X169932020Y-94080100D01*
X169928933Y-94111674D01*
X169928063Y-94154163D01*
X169928063Y-94232718D01*
X169839395Y-94232718D01*
X169841639Y-94140508D01*
X169841901Y-94130272D01*
X169843178Y-94094625D01*
X169844992Y-94068330D01*
X169847665Y-94048849D01*
X169851518Y-94033641D01*
X169856873Y-94020166D01*
X169878461Y-93985470D01*
X169908661Y-93958204D01*
X169945731Y-93941160D01*
X169966733Y-93936442D01*
X169985890Y-93936018D01*
X170008767Y-93935511D01*
X170047519Y-93945896D01*
G37*
G36*
X169133025Y-95320549D02*
G01*
X169167379Y-95323012D01*
X169193969Y-95327300D01*
X169232741Y-95339903D01*
X169276724Y-95364298D01*
X169311624Y-95397048D01*
X169337074Y-95437788D01*
X169352708Y-95486152D01*
X169353295Y-95489130D01*
X169357426Y-95543105D01*
X169349787Y-95596452D01*
X169330941Y-95646918D01*
X169301447Y-95692250D01*
X169295882Y-95698731D01*
X169284868Y-95709910D01*
X169278207Y-95714333D01*
X169277966Y-95714302D01*
X169271179Y-95709211D01*
X169259098Y-95697093D01*
X169244170Y-95680388D01*
X169215169Y-95646443D01*
X169230524Y-95623816D01*
X169232850Y-95620265D01*
X169244624Y-95599103D01*
X169253217Y-95578955D01*
X169255786Y-95569095D01*
X169258513Y-95541681D01*
X169256956Y-95512149D01*
X169251555Y-95485254D01*
X169242748Y-95465750D01*
X169226790Y-95450184D01*
X169203823Y-95435490D01*
X169179144Y-95424703D01*
X169157799Y-95420511D01*
X169140369Y-95420511D01*
X169140369Y-95728186D01*
X169070039Y-95725622D01*
X169024718Y-95722417D01*
X168987731Y-95715639D01*
X168957451Y-95704270D01*
X168931071Y-95687249D01*
X168905789Y-95663516D01*
X168877394Y-95625916D01*
X168857477Y-95581096D01*
X168849200Y-95533392D01*
X168849910Y-95524202D01*
X168946571Y-95524202D01*
X168946768Y-95531051D01*
X168954359Y-95564667D01*
X168972311Y-95592028D01*
X168999713Y-95612114D01*
X169035656Y-95623909D01*
X169059099Y-95628203D01*
X169059099Y-95420511D01*
X169041328Y-95420511D01*
X169022786Y-95423550D01*
X168997124Y-95434765D01*
X168973933Y-95451437D01*
X168958170Y-95470581D01*
X168957698Y-95471480D01*
X168949620Y-95495697D01*
X168946571Y-95524202D01*
X168849910Y-95524202D01*
X168852995Y-95484267D01*
X168866291Y-95441671D01*
X168890633Y-95401169D01*
X168924780Y-95368239D01*
X168968495Y-95343106D01*
X169021537Y-95325994D01*
X169029494Y-95324460D01*
X169059099Y-95321278D01*
X169059472Y-95321238D01*
X169095519Y-95319946D01*
X169133025Y-95320549D01*
G37*
G36*
X169644205Y-93226252D02*
G01*
X169651929Y-93228528D01*
X169669824Y-93234056D01*
X169696349Y-93242348D01*
X169729962Y-93252914D01*
X169769123Y-93265265D01*
X169812290Y-93278913D01*
X169857923Y-93293369D01*
X169904480Y-93308143D01*
X169950421Y-93322747D01*
X169994204Y-93336692D01*
X170034289Y-93349488D01*
X170069135Y-93360648D01*
X170097200Y-93369681D01*
X170116944Y-93376099D01*
X170126825Y-93379413D01*
X170127237Y-93379583D01*
X170131492Y-93386095D01*
X170133366Y-93401579D01*
X170133076Y-93427726D01*
X170131238Y-93473123D01*
X169964291Y-93522643D01*
X169958166Y-93524463D01*
X169915454Y-93537337D01*
X169877276Y-93549155D01*
X169845128Y-93559431D01*
X169820504Y-93567679D01*
X169804899Y-93573412D01*
X169799806Y-93576145D01*
X169799938Y-93576274D01*
X169807492Y-93579366D01*
X169825325Y-93585436D01*
X169851880Y-93593992D01*
X169885601Y-93604537D01*
X169924932Y-93616580D01*
X169968315Y-93629625D01*
X170134364Y-93679124D01*
X170134364Y-93769272D01*
X170007770Y-93809824D01*
X169970180Y-93821855D01*
X169917832Y-93838585D01*
X169863767Y-93855840D01*
X169812526Y-93872173D01*
X169768649Y-93886133D01*
X169768288Y-93886248D01*
X169732513Y-93897638D01*
X169700618Y-93907836D01*
X169674612Y-93916194D01*
X169656505Y-93922068D01*
X169648306Y-93924810D01*
X169645595Y-93924557D01*
X169642595Y-93917722D01*
X169640977Y-93901597D01*
X169640492Y-93874593D01*
X169640495Y-93872263D01*
X169641390Y-93843142D01*
X169643953Y-93825500D01*
X169648306Y-93818463D01*
X169654707Y-93816522D01*
X169671867Y-93811664D01*
X169697913Y-93804434D01*
X169731149Y-93795300D01*
X169769880Y-93784730D01*
X169812409Y-93773192D01*
X169850260Y-93762867D01*
X169889124Y-93752070D01*
X169922524Y-93742581D01*
X169948806Y-93734879D01*
X169966314Y-93729441D01*
X169973395Y-93726744D01*
X169973400Y-93726434D01*
X169966638Y-93722813D01*
X169949696Y-93716048D01*
X169924018Y-93706658D01*
X169891047Y-93695158D01*
X169852228Y-93682066D01*
X169809002Y-93667897D01*
X169639911Y-93613219D01*
X169641764Y-93574839D01*
X169643618Y-93536459D01*
X169810724Y-93482927D01*
X169817491Y-93480757D01*
X169860207Y-93466936D01*
X169898542Y-93454330D01*
X169930989Y-93443449D01*
X169956040Y-93434805D01*
X169972185Y-93428908D01*
X169977917Y-93426270D01*
X169974573Y-93424701D01*
X169960741Y-93420165D01*
X169937694Y-93413258D01*
X169907062Y-93404456D01*
X169870475Y-93394233D01*
X169829565Y-93383065D01*
X169800819Y-93375303D01*
X169760316Y-93364362D01*
X169724124Y-93354582D01*
X169694182Y-93346486D01*
X169672430Y-93340600D01*
X169660810Y-93337448D01*
X169640492Y-93331909D01*
X169640492Y-93279065D01*
X169640550Y-93269526D01*
X169641203Y-93247387D01*
X169642426Y-93231992D01*
X169644029Y-93226221D01*
X169644205Y-93226252D01*
G37*
G36*
X169352921Y-92518890D02*
G01*
X169185693Y-92520906D01*
X169149193Y-92521361D01*
X169106886Y-92521999D01*
X169074355Y-92522755D01*
X169050000Y-92523768D01*
X169032222Y-92525179D01*
X169019420Y-92527127D01*
X169009994Y-92529752D01*
X169002343Y-92533193D01*
X168994869Y-92537592D01*
X168990537Y-92540404D01*
X168968786Y-92560657D01*
X168956614Y-92586441D01*
X168952823Y-92620109D01*
X168956765Y-92652501D01*
X168969841Y-92678871D01*
X168992742Y-92698681D01*
X168999182Y-92702038D01*
X169007755Y-92704933D01*
X169019551Y-92707209D01*
X169036116Y-92708989D01*
X169058997Y-92710394D01*
X169089741Y-92711549D01*
X169129895Y-92712575D01*
X169181004Y-92713595D01*
X169349796Y-92716720D01*
X169351619Y-92768787D01*
X169353443Y-92820853D01*
X169167199Y-92818799D01*
X169164587Y-92818770D01*
X169111735Y-92818146D01*
X169069759Y-92817497D01*
X169037104Y-92816704D01*
X169012211Y-92815651D01*
X168993524Y-92814218D01*
X168979486Y-92812289D01*
X168968541Y-92809745D01*
X168959130Y-92806470D01*
X168949697Y-92802344D01*
X168917025Y-92783806D01*
X168889184Y-92757855D01*
X168866819Y-92722972D01*
X168863112Y-92715102D01*
X168852882Y-92679442D01*
X168850572Y-92641247D01*
X168855800Y-92603838D01*
X168868183Y-92570534D01*
X168887339Y-92544655D01*
X168896500Y-92535349D01*
X168901696Y-92525851D01*
X168895629Y-92521096D01*
X168877804Y-92519797D01*
X168852798Y-92519797D01*
X168852798Y-92419772D01*
X169352921Y-92419772D01*
X169352921Y-92518890D01*
G37*
G36*
X169119975Y-91927797D02*
G01*
X169171625Y-91933068D01*
X169220000Y-91945207D01*
X169262730Y-91964244D01*
X169297443Y-91990209D01*
X169316949Y-92013373D01*
X169338874Y-92052452D01*
X169352715Y-92095516D01*
X169355811Y-92123307D01*
X169354766Y-92161941D01*
X169349114Y-92201580D01*
X169339376Y-92236701D01*
X169333062Y-92250673D01*
X169318007Y-92275872D01*
X169300966Y-92297857D01*
X169274777Y-92326349D01*
X169245185Y-92290488D01*
X169238494Y-92282330D01*
X169226362Y-92266584D01*
X169220842Y-92256438D01*
X169220788Y-92249121D01*
X169225052Y-92241864D01*
X169227275Y-92238796D01*
X169247592Y-92201179D01*
X169257834Y-92161307D01*
X169257639Y-92121809D01*
X169246645Y-92085314D01*
X169228031Y-92060116D01*
X169199670Y-92040862D01*
X169163812Y-92029532D01*
X169140369Y-92025359D01*
X169140369Y-92338502D01*
X169101297Y-92338455D01*
X169076930Y-92337960D01*
X169023407Y-92332514D01*
X168978594Y-92320600D01*
X168940759Y-92301648D01*
X168908165Y-92275090D01*
X168885489Y-92247717D01*
X168864044Y-92206787D01*
X168852312Y-92162448D01*
X168850532Y-92121499D01*
X168946741Y-92121499D01*
X168948494Y-92153414D01*
X168958170Y-92182156D01*
X168969653Y-92197195D01*
X168991635Y-92214667D01*
X169017179Y-92227339D01*
X169041328Y-92232226D01*
X169059099Y-92232226D01*
X169059099Y-92026238D01*
X169038781Y-92029906D01*
X169013361Y-92036796D01*
X168982597Y-92053016D01*
X168960720Y-92075299D01*
X168952794Y-92091371D01*
X168946741Y-92121499D01*
X168850532Y-92121499D01*
X168850332Y-92116907D01*
X168858143Y-92072372D01*
X168875782Y-92031052D01*
X168903288Y-91995152D01*
X168928073Y-91974798D01*
X168969101Y-91952894D01*
X169016342Y-91937740D01*
X169059099Y-91930729D01*
X169067424Y-91929364D01*
X169119975Y-91927797D01*
G37*
G36*
X169351611Y-94615625D02*
G01*
X169349796Y-94667200D01*
X169177878Y-94670326D01*
X169151424Y-94670813D01*
X169103364Y-94671830D01*
X169065612Y-94673058D01*
X169036674Y-94674791D01*
X169015055Y-94677320D01*
X168999263Y-94680940D01*
X168987801Y-94685943D01*
X168979178Y-94692622D01*
X168971898Y-94701270D01*
X168964468Y-94712180D01*
X168957232Y-94728775D01*
X168953181Y-94755885D01*
X168955096Y-94784575D01*
X168963054Y-94809512D01*
X168973286Y-94829297D01*
X168945863Y-94853309D01*
X168934505Y-94863083D01*
X168916055Y-94878374D01*
X168901784Y-94889520D01*
X168885129Y-94901720D01*
X168872421Y-94881158D01*
X168859594Y-94853683D01*
X168851486Y-94816295D01*
X168851265Y-94777384D01*
X168858593Y-94739995D01*
X168873131Y-94707175D01*
X168894542Y-94681969D01*
X168895481Y-94681185D01*
X168899819Y-94675912D01*
X168895413Y-94672804D01*
X168880400Y-94670326D01*
X168855924Y-94667200D01*
X168854108Y-94615625D01*
X168852293Y-94564050D01*
X169353427Y-94564050D01*
X169351611Y-94615625D01*
G37*
G36*
X166997380Y-91500797D02*
G01*
X167058530Y-91500837D01*
X167108474Y-91500979D01*
X167148368Y-91501272D01*
X167179366Y-91501766D01*
X167202623Y-91502511D01*
X167219295Y-91503556D01*
X167230537Y-91504952D01*
X167237504Y-91506747D01*
X167241351Y-91508992D01*
X167243233Y-91511736D01*
X167245385Y-91520039D01*
X167249547Y-91539235D01*
X167255416Y-91567843D01*
X167262702Y-91604411D01*
X167271116Y-91647488D01*
X167280369Y-91695623D01*
X167290173Y-91747366D01*
X167295726Y-91776755D01*
X167306767Y-91834136D01*
X167316034Y-91880523D01*
X167323736Y-91916839D01*
X167330085Y-91944007D01*
X167335289Y-91962950D01*
X167339560Y-91974591D01*
X167343108Y-91979853D01*
X167344600Y-91980744D01*
X167356358Y-91986317D01*
X167377708Y-91995638D01*
X167407110Y-92008062D01*
X167443027Y-92022942D01*
X167483920Y-92039635D01*
X167528250Y-92057495D01*
X167568008Y-92073286D01*
X167618836Y-92092969D01*
X167658990Y-92107786D01*
X167688911Y-92117889D01*
X167709039Y-92123435D01*
X167719813Y-92124576D01*
X167727173Y-92121348D01*
X167744078Y-92111653D01*
X167768802Y-92096351D01*
X167800050Y-92076274D01*
X167836529Y-92052256D01*
X167876944Y-92025129D01*
X167920001Y-91995726D01*
X167958495Y-91969383D01*
X167998662Y-91942266D01*
X168034781Y-91918271D01*
X168065609Y-91898204D01*
X168089907Y-91882871D01*
X168106434Y-91873080D01*
X168113948Y-91869637D01*
X168114879Y-91869934D01*
X168123668Y-91876386D01*
X168139950Y-91890549D01*
X168162715Y-91911468D01*
X168190948Y-91938186D01*
X168223639Y-91969750D01*
X168259775Y-92005205D01*
X168298343Y-92043595D01*
X168326412Y-92071776D01*
X168366395Y-92112169D01*
X168398566Y-92145090D01*
X168423638Y-92171321D01*
X168442324Y-92191647D01*
X168455336Y-92206852D01*
X168463387Y-92217720D01*
X168467190Y-92225034D01*
X168467458Y-92229578D01*
X168464169Y-92235464D01*
X168454400Y-92250918D01*
X168439073Y-92274333D01*
X168419033Y-92304443D01*
X168395125Y-92339980D01*
X168368193Y-92379677D01*
X168339082Y-92422267D01*
X168314526Y-92458302D01*
X168287542Y-92498503D01*
X168263644Y-92534761D01*
X168243642Y-92565813D01*
X168228350Y-92590396D01*
X168218579Y-92607246D01*
X168215141Y-92615100D01*
X168215687Y-92618031D01*
X168220812Y-92631659D01*
X168230468Y-92652967D01*
X168243594Y-92679676D01*
X168259128Y-92709504D01*
X168266123Y-92722773D01*
X168280502Y-92751394D01*
X168291838Y-92775850D01*
X168299117Y-92793888D01*
X168301325Y-92803256D01*
X168300138Y-92805152D01*
X168293986Y-92809712D01*
X168282039Y-92816383D01*
X168263651Y-92825450D01*
X168238179Y-92837197D01*
X168204977Y-92851907D01*
X168163400Y-92869866D01*
X168112804Y-92891357D01*
X168052543Y-92916664D01*
X167981973Y-92946071D01*
X167900449Y-92979862D01*
X167857880Y-92997443D01*
X167792673Y-93024260D01*
X167731273Y-93049376D01*
X167674647Y-93072403D01*
X167623760Y-93092953D01*
X167579580Y-93110637D01*
X167543075Y-93125067D01*
X167515210Y-93135855D01*
X167496954Y-93142612D01*
X167489273Y-93144951D01*
X167486090Y-93144398D01*
X167473750Y-93135766D01*
X167460067Y-93118382D01*
X167457721Y-93114788D01*
X167444425Y-93095222D01*
X167427478Y-93071114D01*
X167409960Y-93046860D01*
X167380131Y-93009829D01*
X167323696Y-92954853D01*
X167260520Y-92909528D01*
X167191825Y-92874328D01*
X167118831Y-92849726D01*
X167042763Y-92836194D01*
X166964841Y-92834205D01*
X166886288Y-92844233D01*
X166865870Y-92848907D01*
X166792745Y-92873525D01*
X166724523Y-92908850D01*
X166662286Y-92953869D01*
X166607119Y-93007567D01*
X166560104Y-93068930D01*
X166522327Y-93136943D01*
X166494870Y-93210592D01*
X166489961Y-93230475D01*
X166482619Y-93279236D01*
X166479439Y-93333444D01*
X166480421Y-93388790D01*
X166485565Y-93440965D01*
X166494870Y-93485660D01*
X166510173Y-93531639D01*
X166539533Y-93594487D01*
X166577993Y-93652189D01*
X166627248Y-93707589D01*
X166635386Y-93715644D01*
X166675485Y-93752393D01*
X166713186Y-93781112D01*
X166751811Y-93804103D01*
X166794684Y-93823669D01*
X166860314Y-93845391D01*
X166937516Y-93859458D01*
X167014636Y-93861842D01*
X167090501Y-93852874D01*
X167163939Y-93832886D01*
X167233777Y-93802213D01*
X167298842Y-93761184D01*
X167357961Y-93710133D01*
X167409960Y-93649392D01*
X167414131Y-93643684D01*
X167431793Y-93619060D01*
X167448132Y-93595656D01*
X167460067Y-93577870D01*
X167464321Y-93571657D01*
X167477847Y-93556759D01*
X167489273Y-93551301D01*
X167492824Y-93552237D01*
X167507276Y-93557403D01*
X167531694Y-93566743D01*
X167565111Y-93579869D01*
X167606561Y-93596393D01*
X167655076Y-93615927D01*
X167709689Y-93638081D01*
X167769434Y-93662469D01*
X167833343Y-93688701D01*
X167900449Y-93716390D01*
X167952472Y-93737935D01*
X168027107Y-93768967D01*
X168091190Y-93795790D01*
X168145365Y-93818691D01*
X168190276Y-93837951D01*
X168226569Y-93853857D01*
X168254888Y-93866691D01*
X168275879Y-93876738D01*
X168290185Y-93884281D01*
X168298452Y-93889606D01*
X168301325Y-93892996D01*
X168301047Y-93895887D01*
X168296494Y-93909329D01*
X168287313Y-93930454D01*
X168274520Y-93957011D01*
X168259128Y-93986747D01*
X168252219Y-93999814D01*
X168237591Y-94028579D01*
X168225827Y-94053245D01*
X168217990Y-94071529D01*
X168215141Y-94081152D01*
X168217601Y-94087149D01*
X168226434Y-94102673D01*
X168240915Y-94126128D01*
X168260232Y-94156250D01*
X168283574Y-94191776D01*
X168310128Y-94231442D01*
X168339082Y-94273985D01*
X168363514Y-94309708D01*
X168390865Y-94349970D01*
X168415330Y-94386281D01*
X168436066Y-94417375D01*
X168452229Y-94441983D01*
X168462975Y-94458838D01*
X168467458Y-94466673D01*
X168467681Y-94469115D01*
X168465376Y-94475229D01*
X168459106Y-94484583D01*
X168448161Y-94497962D01*
X168431827Y-94516149D01*
X168409390Y-94539928D01*
X168380140Y-94570083D01*
X168343362Y-94607398D01*
X168298343Y-94652656D01*
X168288165Y-94662840D01*
X168250130Y-94700561D01*
X168214790Y-94735098D01*
X168183158Y-94765498D01*
X168156246Y-94790804D01*
X168135065Y-94810062D01*
X168120628Y-94822317D01*
X168113948Y-94826615D01*
X168107635Y-94823828D01*
X168091972Y-94814648D01*
X168068411Y-94799844D01*
X168038192Y-94780223D01*
X168002557Y-94756592D01*
X167962746Y-94729757D01*
X167920001Y-94700526D01*
X167882226Y-94674704D01*
X167841409Y-94647245D01*
X167804366Y-94622791D01*
X167772391Y-94602175D01*
X167746777Y-94586228D01*
X167728820Y-94575784D01*
X167719813Y-94571675D01*
X167713701Y-94571947D01*
X167696780Y-94575988D01*
X167670215Y-94584535D01*
X167633565Y-94597743D01*
X167586390Y-94615766D01*
X167528250Y-94638757D01*
X167513684Y-94644600D01*
X167470294Y-94662154D01*
X167430836Y-94678333D01*
X167396850Y-94692493D01*
X167369875Y-94703987D01*
X167351448Y-94712171D01*
X167343108Y-94716399D01*
X167341601Y-94718017D01*
X167337757Y-94726011D01*
X167333095Y-94740796D01*
X167327406Y-94763294D01*
X167320480Y-94794429D01*
X167312106Y-94835124D01*
X167302073Y-94886302D01*
X167290173Y-94948886D01*
X167280496Y-94999964D01*
X167271233Y-95048156D01*
X167262806Y-95091310D01*
X167255504Y-95127973D01*
X167249615Y-95156696D01*
X167245428Y-95176027D01*
X167243233Y-95184515D01*
X167243069Y-95184881D01*
X167241007Y-95187561D01*
X167236839Y-95189748D01*
X167229409Y-95191492D01*
X167217563Y-95192842D01*
X167200144Y-95193848D01*
X167175997Y-95194559D01*
X167143969Y-95195026D01*
X167102903Y-95195298D01*
X167051644Y-95195424D01*
X166989037Y-95195455D01*
X166739510Y-95195455D01*
X166733600Y-95181389D01*
X166731378Y-95173209D01*
X166727099Y-95153892D01*
X166721158Y-95125144D01*
X166713851Y-95088453D01*
X166705474Y-95045311D01*
X166696325Y-94997208D01*
X166686699Y-94945633D01*
X166677689Y-94897676D01*
X166668311Y-94849392D01*
X166659570Y-94806017D01*
X166651780Y-94769031D01*
X166645253Y-94739912D01*
X166640301Y-94720142D01*
X166637235Y-94711200D01*
X166633343Y-94707960D01*
X166618900Y-94699636D01*
X166595799Y-94687962D01*
X166565833Y-94673714D01*
X166530794Y-94657669D01*
X166492476Y-94640604D01*
X166452672Y-94623294D01*
X166413174Y-94606517D01*
X166375776Y-94591049D01*
X166342271Y-94577667D01*
X166314451Y-94567147D01*
X166294109Y-94560265D01*
X166283039Y-94557798D01*
X166282674Y-94557815D01*
X166271809Y-94562018D01*
X166251026Y-94573595D01*
X166220440Y-94592476D01*
X166180165Y-94618586D01*
X166130317Y-94651854D01*
X166071009Y-94692207D01*
X166065138Y-94696227D01*
X166021082Y-94726147D01*
X165980031Y-94753600D01*
X165943195Y-94777809D01*
X165911784Y-94797993D01*
X165887008Y-94813375D01*
X165870076Y-94823175D01*
X165862199Y-94826615D01*
X165857539Y-94824040D01*
X165844664Y-94813659D01*
X165825176Y-94796411D01*
X165800271Y-94773472D01*
X165771147Y-94746015D01*
X165738999Y-94715218D01*
X165705023Y-94682254D01*
X165670415Y-94648298D01*
X165636373Y-94614527D01*
X165604092Y-94582115D01*
X165574767Y-94552237D01*
X165549596Y-94526068D01*
X165529775Y-94504784D01*
X165516500Y-94489560D01*
X165510967Y-94481570D01*
X165510499Y-94480120D01*
X165509597Y-94476639D01*
X165509616Y-94472709D01*
X165511169Y-94467342D01*
X165514870Y-94459552D01*
X165521336Y-94448353D01*
X165531181Y-94432759D01*
X165545019Y-94411782D01*
X165563465Y-94384437D01*
X165587134Y-94349738D01*
X165616641Y-94306697D01*
X165652601Y-94254329D01*
X165673294Y-94224103D01*
X165708517Y-94172064D01*
X165736719Y-94129477D01*
X165758158Y-94095931D01*
X165773093Y-94071018D01*
X165781783Y-94054327D01*
X165784485Y-94045449D01*
X165783981Y-94042546D01*
X165779611Y-94028374D01*
X165771387Y-94005463D01*
X165760071Y-93975669D01*
X165746422Y-93940846D01*
X165731200Y-93902848D01*
X165715166Y-93863530D01*
X165699079Y-93824746D01*
X165683700Y-93788352D01*
X165669788Y-93756202D01*
X165658103Y-93730149D01*
X165649406Y-93712050D01*
X165644457Y-93703759D01*
X165643946Y-93703407D01*
X165634161Y-93700165D01*
X165613705Y-93695050D01*
X165583968Y-93688355D01*
X165546339Y-93680379D01*
X165502209Y-93671416D01*
X165452967Y-93661763D01*
X165400004Y-93651715D01*
X165391196Y-93650068D01*
X165338520Y-93640095D01*
X165289621Y-93630633D01*
X165245921Y-93621971D01*
X165208839Y-93614398D01*
X165179795Y-93608204D01*
X165160210Y-93603678D01*
X165151505Y-93601108D01*
X165150010Y-93600235D01*
X165147228Y-93597686D01*
X165144980Y-93593246D01*
X165143207Y-93585734D01*
X165141854Y-93573972D01*
X165140864Y-93556781D01*
X165140181Y-93532982D01*
X165139748Y-93501396D01*
X165139508Y-93460844D01*
X165139406Y-93410147D01*
X165139385Y-93348126D01*
X165139388Y-93315631D01*
X165139442Y-93259430D01*
X165139603Y-93213962D01*
X165139928Y-93178048D01*
X165140476Y-93150510D01*
X165141302Y-93130166D01*
X165142464Y-93115837D01*
X165144019Y-93106345D01*
X165146024Y-93100509D01*
X165148535Y-93097149D01*
X165151610Y-93095087D01*
X165152217Y-93094818D01*
X165162783Y-93091906D01*
X165184002Y-93087091D01*
X165214450Y-93080659D01*
X165252706Y-93072901D01*
X165297349Y-93064106D01*
X165346957Y-93054562D01*
X165400108Y-93044559D01*
X165409436Y-93042818D01*
X165461856Y-93032836D01*
X165510320Y-93023288D01*
X165553436Y-93014470D01*
X165589812Y-93006680D01*
X165618058Y-93000213D01*
X165636782Y-92995367D01*
X165644591Y-92992437D01*
X165646118Y-92990342D01*
X165652716Y-92977773D01*
X165662748Y-92956153D01*
X165675451Y-92927340D01*
X165690066Y-92893190D01*
X165705832Y-92855561D01*
X165721987Y-92816311D01*
X165737772Y-92777298D01*
X165752425Y-92740379D01*
X165765186Y-92707412D01*
X165775293Y-92680254D01*
X165781986Y-92660764D01*
X165784505Y-92650797D01*
X165783922Y-92647440D01*
X165778311Y-92634772D01*
X165766554Y-92614052D01*
X165748396Y-92584878D01*
X165723582Y-92546848D01*
X165691858Y-92499558D01*
X165652970Y-92442606D01*
X165641042Y-92425252D01*
X165607091Y-92375830D01*
X165579409Y-92335424D01*
X165557381Y-92303047D01*
X165540393Y-92277712D01*
X165527831Y-92258434D01*
X165519079Y-92244224D01*
X165513523Y-92234096D01*
X165510549Y-92227065D01*
X165509541Y-92222143D01*
X165509885Y-92218344D01*
X165510967Y-92214682D01*
X165514512Y-92209196D01*
X165526125Y-92195520D01*
X165544557Y-92175516D01*
X165568611Y-92150359D01*
X165597093Y-92121224D01*
X165628804Y-92089287D01*
X165662550Y-92055722D01*
X165697134Y-92021706D01*
X165731359Y-91988412D01*
X165764030Y-91957016D01*
X165793950Y-91928693D01*
X165819924Y-91904619D01*
X165840754Y-91885968D01*
X165855244Y-91873916D01*
X165862199Y-91869637D01*
X165862667Y-91869697D01*
X165871787Y-91874005D01*
X165889805Y-91884573D01*
X165915510Y-91900622D01*
X165947693Y-91921372D01*
X165985143Y-91946045D01*
X166026652Y-91973863D01*
X166071009Y-92004045D01*
X166075208Y-92006922D01*
X166133896Y-92046810D01*
X166183116Y-92079608D01*
X166222756Y-92105244D01*
X166252699Y-92123645D01*
X166272831Y-92134739D01*
X166283039Y-92138453D01*
X166289070Y-92137397D01*
X166306357Y-92131978D01*
X166331753Y-92122648D01*
X166363465Y-92110183D01*
X166399699Y-92095360D01*
X166438663Y-92078955D01*
X166478564Y-92061744D01*
X166517609Y-92044504D01*
X166554004Y-92028012D01*
X166585958Y-92013044D01*
X166611676Y-92000377D01*
X166629366Y-91990787D01*
X166637235Y-91985051D01*
X166640017Y-91977119D01*
X166644846Y-91958070D01*
X166651271Y-91929567D01*
X166658982Y-91893090D01*
X166667665Y-91850120D01*
X166677008Y-91802136D01*
X166686699Y-91750618D01*
X166695626Y-91702759D01*
X166704820Y-91654347D01*
X166713264Y-91610787D01*
X166720660Y-91573568D01*
X166726713Y-91544181D01*
X166731125Y-91524116D01*
X166733600Y-91514862D01*
X166739510Y-91500796D01*
X166989037Y-91500796D01*
X166997380Y-91500797D01*
G37*
G36*
X169267685Y-93089020D02*
G01*
X169276242Y-93096159D01*
X169288355Y-93111168D01*
X169302200Y-93131422D01*
X169315956Y-93154295D01*
X169327800Y-93177164D01*
X169336572Y-93198134D01*
X169346252Y-93226655D01*
X169352356Y-93251227D01*
X169354276Y-93263821D01*
X169356589Y-93314133D01*
X169350800Y-93362563D01*
X169337634Y-93407152D01*
X169317812Y-93445943D01*
X169292060Y-93476979D01*
X169261098Y-93498302D01*
X169233604Y-93506763D01*
X169197819Y-93509401D01*
X169161406Y-93505066D01*
X169129383Y-93493924D01*
X169127092Y-93492725D01*
X169104241Y-93477663D01*
X169086351Y-93458596D01*
X169072699Y-93433838D01*
X169062565Y-93401705D01*
X169055225Y-93360511D01*
X169049958Y-93308572D01*
X169049950Y-93308470D01*
X169046876Y-93282941D01*
X169042231Y-93259993D01*
X169037017Y-93244585D01*
X169027077Y-93231354D01*
X169009409Y-93221969D01*
X168989678Y-93222470D01*
X168970755Y-93232593D01*
X168955511Y-93252074D01*
X168949058Y-93271099D01*
X168946109Y-93302299D01*
X168948912Y-93337288D01*
X168957083Y-93372154D01*
X168970241Y-93402984D01*
X168989826Y-93437687D01*
X168956261Y-93466362D01*
X168955233Y-93467238D01*
X168938032Y-93481270D01*
X168924483Y-93491224D01*
X168917442Y-93494994D01*
X168915712Y-93494498D01*
X168907151Y-93486357D01*
X168895807Y-93470322D01*
X168883462Y-93449117D01*
X168871902Y-93425464D01*
X168863958Y-93402668D01*
X168856275Y-93369637D01*
X168850866Y-93333993D01*
X168848432Y-93300511D01*
X168849672Y-93273966D01*
X168854969Y-93246948D01*
X168870908Y-93201194D01*
X168894083Y-93165596D01*
X168924461Y-93140189D01*
X168962007Y-93125006D01*
X169006686Y-93120082D01*
X169014215Y-93120411D01*
X169039819Y-93124509D01*
X169062225Y-93131760D01*
X169073849Y-93137707D01*
X169097793Y-93155437D01*
X169116253Y-93179083D01*
X169130022Y-93210236D01*
X169139892Y-93250491D01*
X169146656Y-93301439D01*
X169148527Y-93319366D01*
X169153525Y-93353711D01*
X169159940Y-93377918D01*
X169168542Y-93393649D01*
X169180105Y-93402565D01*
X169195399Y-93406327D01*
X169211094Y-93406179D01*
X169232300Y-93397679D01*
X169247297Y-93378687D01*
X169256206Y-93349015D01*
X169259148Y-93308478D01*
X169259144Y-93306777D01*
X169255304Y-93262364D01*
X169243264Y-93223532D01*
X169221552Y-93185459D01*
X169202204Y-93157338D01*
X169232239Y-93123092D01*
X169234063Y-93121020D01*
X169248995Y-93104719D01*
X169260578Y-93093172D01*
X169266437Y-93088766D01*
X169267685Y-93089020D01*
G37*
%LPC*%
D11*
X124460000Y-60965000D03*
D12*
X127000000Y-60965000D03*
D11*
X155395000Y-82550000D03*
D12*
X155395000Y-85090000D03*
X155395000Y-87630000D03*
X155395000Y-90170000D03*
X155395000Y-92710000D03*
X155395000Y-95250000D03*
X155395000Y-97790000D03*
X155395000Y-100330000D03*
X163015000Y-100330000D03*
X163015000Y-97790000D03*
X163015000Y-95250000D03*
X163015000Y-92710000D03*
X163015000Y-90170000D03*
X163015000Y-87630000D03*
X163015000Y-85090000D03*
X163015000Y-82550000D03*
D13*
X168275000Y-58420000D03*
D14*
X116205000Y-59690000D03*
D15*
X118745000Y-59690000D03*
X116205000Y-62230000D03*
X118745000Y-62230000D03*
X116205000Y-64770000D03*
X118745000Y-64770000D03*
X116205000Y-67310000D03*
X118745000Y-67310000D03*
X116205000Y-69850000D03*
X118745000Y-69850000D03*
X116205000Y-72390000D03*
X118745000Y-72390000D03*
X116205000Y-74930000D03*
X118745000Y-74930000D03*
X116205000Y-77470000D03*
X118745000Y-77470000D03*
X116205000Y-80010000D03*
X118745000Y-80010000D03*
X116205000Y-82550000D03*
X118745000Y-82550000D03*
X116205000Y-85090000D03*
X118745000Y-85090000D03*
X116205000Y-87630000D03*
X118745000Y-87630000D03*
X116205000Y-90170000D03*
X118745000Y-90170000D03*
X116205000Y-92710000D03*
X118745000Y-92710000D03*
X116205000Y-95250000D03*
X118745000Y-95250000D03*
X116205000Y-97790000D03*
X118745000Y-97790000D03*
X116205000Y-100330000D03*
X118745000Y-100330000D03*
D16*
X152915000Y-64135000D03*
D12*
X145415000Y-64135000D03*
D14*
X130175000Y-60960000D03*
D15*
X130175000Y-58420000D03*
X132715000Y-60960000D03*
X132715000Y-58420000D03*
D14*
X149225000Y-60960000D03*
D15*
X149225000Y-58420000D03*
X151765000Y-60960000D03*
X151765000Y-58420000D03*
D16*
X163075000Y-79375000D03*
D12*
X155575000Y-79375000D03*
D11*
X125095000Y-67310000D03*
D12*
X125095000Y-69850000D03*
X125095000Y-72390000D03*
X125095000Y-74930000D03*
X125095000Y-77470000D03*
X125095000Y-80010000D03*
X125095000Y-82550000D03*
X125095000Y-85090000D03*
X125095000Y-87630000D03*
X125095000Y-90170000D03*
X125095000Y-92710000D03*
X125095000Y-95250000D03*
X125095000Y-97790000D03*
X125095000Y-100330000D03*
X132715000Y-100330000D03*
X132715000Y-97790000D03*
X132715000Y-95250000D03*
X132715000Y-92710000D03*
X132715000Y-90170000D03*
X132715000Y-87630000D03*
X132715000Y-85090000D03*
X132715000Y-82550000D03*
X132715000Y-80010000D03*
X132715000Y-77470000D03*
X132715000Y-74930000D03*
X132715000Y-72390000D03*
X132715000Y-69850000D03*
X132715000Y-67310000D03*
D11*
X143510000Y-58420000D03*
D12*
X146050000Y-58420000D03*
D11*
X145415000Y-67310000D03*
D12*
X145415000Y-69850000D03*
X145415000Y-72390000D03*
X145415000Y-74930000D03*
X145415000Y-77470000D03*
X145415000Y-80010000D03*
X145415000Y-82550000D03*
X145415000Y-85090000D03*
X145415000Y-87630000D03*
X145415000Y-90170000D03*
X145415000Y-92710000D03*
X145415000Y-95250000D03*
X145415000Y-97790000D03*
X145415000Y-100330000D03*
X153035000Y-100330000D03*
X153035000Y-97790000D03*
X153035000Y-95250000D03*
X153035000Y-92710000D03*
X153035000Y-90170000D03*
X153035000Y-87630000D03*
X153035000Y-85090000D03*
X153035000Y-82550000D03*
X153035000Y-80010000D03*
X153035000Y-77470000D03*
X153035000Y-74930000D03*
X153035000Y-72390000D03*
X153035000Y-69850000D03*
X153035000Y-67310000D03*
D11*
X135255000Y-67310000D03*
D12*
X135255000Y-69850000D03*
X135255000Y-72390000D03*
X135255000Y-74930000D03*
X135255000Y-77470000D03*
X135255000Y-80010000D03*
X135255000Y-82550000D03*
X135255000Y-85090000D03*
X135255000Y-87630000D03*
X135255000Y-90170000D03*
X135255000Y-92710000D03*
X135255000Y-95250000D03*
X135255000Y-97790000D03*
X135255000Y-100330000D03*
X142875000Y-100330000D03*
X142875000Y-97790000D03*
X142875000Y-95250000D03*
X142875000Y-92710000D03*
X142875000Y-90170000D03*
X142875000Y-87630000D03*
X142875000Y-85090000D03*
X142875000Y-82550000D03*
X142875000Y-80010000D03*
X142875000Y-77470000D03*
X142875000Y-74930000D03*
X142875000Y-72390000D03*
X142875000Y-69850000D03*
X142875000Y-67310000D03*
D13*
X168275000Y-100330000D03*
D11*
X124460000Y-58425000D03*
D12*
X127000000Y-58425000D03*
D13*
X109855000Y-100330000D03*
D16*
X142755000Y-64135000D03*
D12*
X135255000Y-64135000D03*
D16*
X132595000Y-64135000D03*
D12*
X125095000Y-64135000D03*
D13*
X109855000Y-58420000D03*
D11*
X143510000Y-60960000D03*
D12*
X146050000Y-60960000D03*
M02*
