G04 #@! TF.GenerationSoftware,KiCad,Pcbnew,(6.0.0)*
G04 #@! TF.CreationDate,2022-11-09T00:35:18-05:00*
G04 #@! TF.ProjectId,Sorcerer Internal SRAM,536f7263-6572-4657-9220-496e7465726e,rev?*
G04 #@! TF.SameCoordinates,Original*
G04 #@! TF.FileFunction,Legend,Top*
G04 #@! TF.FilePolarity,Positive*
%FSLAX46Y46*%
G04 Gerber Fmt 4.6, Leading zero omitted, Abs format (unit mm)*
G04 Created by KiCad (PCBNEW (6.0.0)) date 2022-11-09 00:35:18*
%MOMM*%
%LPD*%
G01*
G04 APERTURE LIST*
%ADD10C,0.150000*%
%ADD11C,0.120000*%
%ADD12R,1.600000X1.600000*%
%ADD13O,1.600000X1.600000*%
%ADD14C,3.200000*%
%ADD15R,1.700000X1.700000*%
%ADD16O,1.700000X1.700000*%
%ADD17C,1.600000*%
G04 APERTURE END LIST*
D10*
X146050000Y-57093629D02*
X146685000Y-56486814D01*
X146050000Y-55880000D02*
X146050000Y-57093629D01*
X130810000Y-58420000D02*
X132080000Y-58420000D01*
X146050000Y-57093629D02*
X145415000Y-56515000D01*
X127000000Y-55880000D02*
X127000000Y-57098629D01*
X146050000Y-55880000D02*
X127000000Y-55880000D01*
X149860000Y-60990000D02*
X151130000Y-60990000D01*
X127000000Y-57098629D02*
X126365000Y-56515000D01*
X126365000Y-56515000D02*
X127635000Y-56489314D01*
X130810000Y-60960000D02*
X132080000Y-60990000D01*
X145415000Y-56515000D02*
X146685000Y-56486814D01*
X149860000Y-58420000D02*
X151130000Y-58420000D01*
X127000000Y-57098629D02*
X127635000Y-56489314D01*
X156845000Y-55880000D02*
X146050000Y-55880000D01*
X112950714Y-87796666D02*
X113426904Y-87796666D01*
X112855476Y-88082380D02*
X113188809Y-87082380D01*
X113522142Y-88082380D01*
X114379285Y-88082380D02*
X113807857Y-88082380D01*
X114093571Y-88082380D02*
X114093571Y-87082380D01*
X113998333Y-87225238D01*
X113903095Y-87320476D01*
X113807857Y-87368095D01*
X120546904Y-98242380D02*
X120546904Y-97242380D01*
X120785000Y-97242380D01*
X120927857Y-97290000D01*
X121023095Y-97385238D01*
X121070714Y-97480476D01*
X121118333Y-97670952D01*
X121118333Y-97813809D01*
X121070714Y-98004285D01*
X121023095Y-98099523D01*
X120927857Y-98194761D01*
X120785000Y-98242380D01*
X120546904Y-98242380D01*
X121975476Y-97575714D02*
X121975476Y-98242380D01*
X121737380Y-97194761D02*
X121499285Y-97909047D01*
X122118333Y-97909047D01*
X109148571Y-94018333D02*
X109148571Y-93685000D01*
X109672380Y-93542142D02*
X109672380Y-94018333D01*
X108672380Y-94018333D01*
X108672380Y-93542142D01*
X109672380Y-93208809D02*
X109005714Y-92685000D01*
X109005714Y-93208809D02*
X109672380Y-92685000D01*
X109672380Y-92304047D02*
X109005714Y-92304047D01*
X108672380Y-92304047D02*
X108720000Y-92351666D01*
X108767619Y-92304047D01*
X108720000Y-92256428D01*
X108672380Y-92304047D01*
X108767619Y-92304047D01*
X109672380Y-91399285D02*
X108672380Y-91399285D01*
X109624761Y-91399285D02*
X109672380Y-91494523D01*
X109672380Y-91685000D01*
X109624761Y-91780238D01*
X109577142Y-91827857D01*
X109481904Y-91875476D01*
X109196190Y-91875476D01*
X109100952Y-91827857D01*
X109053333Y-91780238D01*
X109005714Y-91685000D01*
X109005714Y-91494523D01*
X109053333Y-91399285D01*
X109005714Y-91018333D02*
X109672380Y-90780238D01*
X109005714Y-90542142D02*
X109672380Y-90780238D01*
X109910476Y-90875476D01*
X109958095Y-90923095D01*
X110005714Y-91018333D01*
X109624761Y-89446904D02*
X109672380Y-89304047D01*
X109672380Y-89065952D01*
X109624761Y-88970714D01*
X109577142Y-88923095D01*
X109481904Y-88875476D01*
X109386666Y-88875476D01*
X109291428Y-88923095D01*
X109243809Y-88970714D01*
X109196190Y-89065952D01*
X109148571Y-89256428D01*
X109100952Y-89351666D01*
X109053333Y-89399285D01*
X108958095Y-89446904D01*
X108862857Y-89446904D01*
X108767619Y-89399285D01*
X108720000Y-89351666D01*
X108672380Y-89256428D01*
X108672380Y-89018333D01*
X108720000Y-88875476D01*
X109672380Y-88304047D02*
X109624761Y-88399285D01*
X109577142Y-88446904D01*
X109481904Y-88494523D01*
X109196190Y-88494523D01*
X109100952Y-88446904D01*
X109053333Y-88399285D01*
X109005714Y-88304047D01*
X109005714Y-88161190D01*
X109053333Y-88065952D01*
X109100952Y-88018333D01*
X109196190Y-87970714D01*
X109481904Y-87970714D01*
X109577142Y-88018333D01*
X109624761Y-88065952D01*
X109672380Y-88161190D01*
X109672380Y-88304047D01*
X109672380Y-87542142D02*
X109005714Y-87542142D01*
X109196190Y-87542142D02*
X109100952Y-87494523D01*
X109053333Y-87446904D01*
X109005714Y-87351666D01*
X109005714Y-87256428D01*
X109624761Y-86494523D02*
X109672380Y-86589761D01*
X109672380Y-86780238D01*
X109624761Y-86875476D01*
X109577142Y-86923095D01*
X109481904Y-86970714D01*
X109196190Y-86970714D01*
X109100952Y-86923095D01*
X109053333Y-86875476D01*
X109005714Y-86780238D01*
X109005714Y-86589761D01*
X109053333Y-86494523D01*
X109624761Y-85685000D02*
X109672380Y-85780238D01*
X109672380Y-85970714D01*
X109624761Y-86065952D01*
X109529523Y-86113571D01*
X109148571Y-86113571D01*
X109053333Y-86065952D01*
X109005714Y-85970714D01*
X109005714Y-85780238D01*
X109053333Y-85685000D01*
X109148571Y-85637380D01*
X109243809Y-85637380D01*
X109339047Y-86113571D01*
X109672380Y-85208809D02*
X109005714Y-85208809D01*
X109196190Y-85208809D02*
X109100952Y-85161190D01*
X109053333Y-85113571D01*
X109005714Y-85018333D01*
X109005714Y-84923095D01*
X109624761Y-84208809D02*
X109672380Y-84304047D01*
X109672380Y-84494523D01*
X109624761Y-84589761D01*
X109529523Y-84637380D01*
X109148571Y-84637380D01*
X109053333Y-84589761D01*
X109005714Y-84494523D01*
X109005714Y-84304047D01*
X109053333Y-84208809D01*
X109148571Y-84161190D01*
X109243809Y-84161190D01*
X109339047Y-84637380D01*
X109672380Y-83732619D02*
X109005714Y-83732619D01*
X109196190Y-83732619D02*
X109100952Y-83685000D01*
X109053333Y-83637380D01*
X109005714Y-83542142D01*
X109005714Y-83446904D01*
X109672380Y-82351666D02*
X108672380Y-82351666D01*
X109005714Y-81875476D02*
X109672380Y-81875476D01*
X109100952Y-81875476D02*
X109053333Y-81827857D01*
X109005714Y-81732619D01*
X109005714Y-81589761D01*
X109053333Y-81494523D01*
X109148571Y-81446904D01*
X109672380Y-81446904D01*
X109005714Y-81113571D02*
X109005714Y-80732619D01*
X108672380Y-80970714D02*
X109529523Y-80970714D01*
X109624761Y-80923095D01*
X109672380Y-80827857D01*
X109672380Y-80732619D01*
X109624761Y-80018333D02*
X109672380Y-80113571D01*
X109672380Y-80304047D01*
X109624761Y-80399285D01*
X109529523Y-80446904D01*
X109148571Y-80446904D01*
X109053333Y-80399285D01*
X109005714Y-80304047D01*
X109005714Y-80113571D01*
X109053333Y-80018333D01*
X109148571Y-79970714D01*
X109243809Y-79970714D01*
X109339047Y-80446904D01*
X109672380Y-79542142D02*
X109005714Y-79542142D01*
X109196190Y-79542142D02*
X109100952Y-79494523D01*
X109053333Y-79446904D01*
X109005714Y-79351666D01*
X109005714Y-79256428D01*
X109005714Y-78923095D02*
X109672380Y-78923095D01*
X109100952Y-78923095D02*
X109053333Y-78875476D01*
X109005714Y-78780238D01*
X109005714Y-78637380D01*
X109053333Y-78542142D01*
X109148571Y-78494523D01*
X109672380Y-78494523D01*
X109672380Y-77589761D02*
X109148571Y-77589761D01*
X109053333Y-77637380D01*
X109005714Y-77732619D01*
X109005714Y-77923095D01*
X109053333Y-78018333D01*
X109624761Y-77589761D02*
X109672380Y-77685000D01*
X109672380Y-77923095D01*
X109624761Y-78018333D01*
X109529523Y-78065952D01*
X109434285Y-78065952D01*
X109339047Y-78018333D01*
X109291428Y-77923095D01*
X109291428Y-77685000D01*
X109243809Y-77589761D01*
X109672380Y-76970714D02*
X109624761Y-77065952D01*
X109529523Y-77113571D01*
X108672380Y-77113571D01*
X109624761Y-75875476D02*
X109672380Y-75732619D01*
X109672380Y-75494523D01*
X109624761Y-75399285D01*
X109577142Y-75351666D01*
X109481904Y-75304047D01*
X109386666Y-75304047D01*
X109291428Y-75351666D01*
X109243809Y-75399285D01*
X109196190Y-75494523D01*
X109148571Y-75685000D01*
X109100952Y-75780238D01*
X109053333Y-75827857D01*
X108958095Y-75875476D01*
X108862857Y-75875476D01*
X108767619Y-75827857D01*
X108720000Y-75780238D01*
X108672380Y-75685000D01*
X108672380Y-75446904D01*
X108720000Y-75304047D01*
X109672380Y-74304047D02*
X109196190Y-74637380D01*
X109672380Y-74875476D02*
X108672380Y-74875476D01*
X108672380Y-74494523D01*
X108720000Y-74399285D01*
X108767619Y-74351666D01*
X108862857Y-74304047D01*
X109005714Y-74304047D01*
X109100952Y-74351666D01*
X109148571Y-74399285D01*
X109196190Y-74494523D01*
X109196190Y-74875476D01*
X109386666Y-73923095D02*
X109386666Y-73446904D01*
X109672380Y-74018333D02*
X108672380Y-73685000D01*
X109672380Y-73351666D01*
X109672380Y-73018333D02*
X108672380Y-73018333D01*
X109386666Y-72685000D01*
X108672380Y-72351666D01*
X109672380Y-72351666D01*
X120546904Y-100782380D02*
X120546904Y-99782380D01*
X120785000Y-99782380D01*
X120927857Y-99830000D01*
X121023095Y-99925238D01*
X121070714Y-100020476D01*
X121118333Y-100210952D01*
X121118333Y-100353809D01*
X121070714Y-100544285D01*
X121023095Y-100639523D01*
X120927857Y-100734761D01*
X120785000Y-100782380D01*
X120546904Y-100782380D01*
X121451666Y-99782380D02*
X122070714Y-99782380D01*
X121737380Y-100163333D01*
X121880238Y-100163333D01*
X121975476Y-100210952D01*
X122023095Y-100258571D01*
X122070714Y-100353809D01*
X122070714Y-100591904D01*
X122023095Y-100687142D01*
X121975476Y-100734761D01*
X121880238Y-100782380D01*
X121594523Y-100782380D01*
X121499285Y-100734761D01*
X121451666Y-100687142D01*
X157297380Y-75920952D02*
X156297380Y-75920952D01*
X156630714Y-75444761D02*
X157297380Y-75444761D01*
X156725952Y-75444761D02*
X156678333Y-75397142D01*
X156630714Y-75301904D01*
X156630714Y-75159047D01*
X156678333Y-75063809D01*
X156773571Y-75016190D01*
X157297380Y-75016190D01*
X157249761Y-74587619D02*
X157297380Y-74492380D01*
X157297380Y-74301904D01*
X157249761Y-74206666D01*
X157154523Y-74159047D01*
X157106904Y-74159047D01*
X157011666Y-74206666D01*
X156964047Y-74301904D01*
X156964047Y-74444761D01*
X156916428Y-74540000D01*
X156821190Y-74587619D01*
X156773571Y-74587619D01*
X156678333Y-74540000D01*
X156630714Y-74444761D01*
X156630714Y-74301904D01*
X156678333Y-74206666D01*
X156630714Y-73873333D02*
X156630714Y-73492380D01*
X156297380Y-73730476D02*
X157154523Y-73730476D01*
X157249761Y-73682857D01*
X157297380Y-73587619D01*
X157297380Y-73492380D01*
X157297380Y-72730476D02*
X156773571Y-72730476D01*
X156678333Y-72778095D01*
X156630714Y-72873333D01*
X156630714Y-73063809D01*
X156678333Y-73159047D01*
X157249761Y-72730476D02*
X157297380Y-72825714D01*
X157297380Y-73063809D01*
X157249761Y-73159047D01*
X157154523Y-73206666D01*
X157059285Y-73206666D01*
X156964047Y-73159047D01*
X156916428Y-73063809D01*
X156916428Y-72825714D01*
X156868809Y-72730476D01*
X157297380Y-72111428D02*
X157249761Y-72206666D01*
X157154523Y-72254285D01*
X156297380Y-72254285D01*
X157297380Y-71587619D02*
X157249761Y-71682857D01*
X157154523Y-71730476D01*
X156297380Y-71730476D01*
X157297380Y-70016190D02*
X156297380Y-70016190D01*
X157249761Y-70016190D02*
X157297380Y-70111428D01*
X157297380Y-70301904D01*
X157249761Y-70397142D01*
X157202142Y-70444761D01*
X157106904Y-70492380D01*
X156821190Y-70492380D01*
X156725952Y-70444761D01*
X156678333Y-70397142D01*
X156630714Y-70301904D01*
X156630714Y-70111428D01*
X156678333Y-70016190D01*
X157297380Y-69540000D02*
X156630714Y-69540000D01*
X156297380Y-69540000D02*
X156345000Y-69587619D01*
X156392619Y-69540000D01*
X156345000Y-69492380D01*
X156297380Y-69540000D01*
X156392619Y-69540000D01*
X157297380Y-68920952D02*
X157249761Y-69016190D01*
X157202142Y-69063809D01*
X157106904Y-69111428D01*
X156821190Y-69111428D01*
X156725952Y-69063809D01*
X156678333Y-69016190D01*
X156630714Y-68920952D01*
X156630714Y-68778095D01*
X156678333Y-68682857D01*
X156725952Y-68635238D01*
X156821190Y-68587619D01*
X157106904Y-68587619D01*
X157202142Y-68635238D01*
X157249761Y-68682857D01*
X157297380Y-68778095D01*
X157297380Y-68920952D01*
X157297380Y-67730476D02*
X156297380Y-67730476D01*
X157249761Y-67730476D02*
X157297380Y-67825714D01*
X157297380Y-68016190D01*
X157249761Y-68111428D01*
X157202142Y-68159047D01*
X157106904Y-68206666D01*
X156821190Y-68206666D01*
X156725952Y-68159047D01*
X156678333Y-68111428D01*
X156630714Y-68016190D01*
X156630714Y-67825714D01*
X156678333Y-67730476D01*
X157249761Y-66873333D02*
X157297380Y-66968571D01*
X157297380Y-67159047D01*
X157249761Y-67254285D01*
X157154523Y-67301904D01*
X156773571Y-67301904D01*
X156678333Y-67254285D01*
X156630714Y-67159047D01*
X156630714Y-66968571D01*
X156678333Y-66873333D01*
X156773571Y-66825714D01*
X156868809Y-66825714D01*
X156964047Y-67301904D01*
X157249761Y-66444761D02*
X157297380Y-66349523D01*
X157297380Y-66159047D01*
X157249761Y-66063809D01*
X157154523Y-66016190D01*
X157106904Y-66016190D01*
X157011666Y-66063809D01*
X156964047Y-66159047D01*
X156964047Y-66301904D01*
X156916428Y-66397142D01*
X156821190Y-66444761D01*
X156773571Y-66444761D01*
X156678333Y-66397142D01*
X156630714Y-66301904D01*
X156630714Y-66159047D01*
X156678333Y-66063809D01*
X157297380Y-64682857D02*
X157249761Y-64778095D01*
X157154523Y-64825714D01*
X156297380Y-64825714D01*
X157297380Y-64301904D02*
X156630714Y-64301904D01*
X156297380Y-64301904D02*
X156345000Y-64349523D01*
X156392619Y-64301904D01*
X156345000Y-64254285D01*
X156297380Y-64301904D01*
X156392619Y-64301904D01*
X156630714Y-63825714D02*
X157297380Y-63825714D01*
X156725952Y-63825714D02*
X156678333Y-63778095D01*
X156630714Y-63682857D01*
X156630714Y-63540000D01*
X156678333Y-63444761D01*
X156773571Y-63397142D01*
X157297380Y-63397142D01*
X157249761Y-62540000D02*
X157297380Y-62635238D01*
X157297380Y-62825714D01*
X157249761Y-62920952D01*
X157154523Y-62968571D01*
X156773571Y-62968571D01*
X156678333Y-62920952D01*
X156630714Y-62825714D01*
X156630714Y-62635238D01*
X156678333Y-62540000D01*
X156773571Y-62492380D01*
X156868809Y-62492380D01*
X156964047Y-62968571D01*
X157249761Y-61349523D02*
X157297380Y-61254285D01*
X157297380Y-61063809D01*
X157249761Y-60968571D01*
X157154523Y-60920952D01*
X157106904Y-60920952D01*
X157011666Y-60968571D01*
X156964047Y-61063809D01*
X156964047Y-61206666D01*
X156916428Y-61301904D01*
X156821190Y-61349523D01*
X156773571Y-61349523D01*
X156678333Y-61301904D01*
X156630714Y-61206666D01*
X156630714Y-61063809D01*
X156678333Y-60968571D01*
X157297380Y-60492380D02*
X156630714Y-60492380D01*
X156297380Y-60492380D02*
X156345000Y-60540000D01*
X156392619Y-60492380D01*
X156345000Y-60444761D01*
X156297380Y-60492380D01*
X156392619Y-60492380D01*
X157297380Y-59587619D02*
X156297380Y-59587619D01*
X157249761Y-59587619D02*
X157297380Y-59682857D01*
X157297380Y-59873333D01*
X157249761Y-59968571D01*
X157202142Y-60016190D01*
X157106904Y-60063809D01*
X156821190Y-60063809D01*
X156725952Y-60016190D01*
X156678333Y-59968571D01*
X156630714Y-59873333D01*
X156630714Y-59682857D01*
X156678333Y-59587619D01*
X157249761Y-58730476D02*
X157297380Y-58825714D01*
X157297380Y-59016190D01*
X157249761Y-59111428D01*
X157154523Y-59159047D01*
X156773571Y-59159047D01*
X156678333Y-59111428D01*
X156630714Y-59016190D01*
X156630714Y-58825714D01*
X156678333Y-58730476D01*
X156773571Y-58682857D01*
X156868809Y-58682857D01*
X156964047Y-59159047D01*
X156630714Y-57063809D02*
X157297380Y-57063809D01*
X156630714Y-57492380D02*
X157154523Y-57492380D01*
X157249761Y-57444761D01*
X157297380Y-57349523D01*
X157297380Y-57206666D01*
X157249761Y-57111428D01*
X157202142Y-57063809D01*
X156630714Y-56587619D02*
X157630714Y-56587619D01*
X156678333Y-56587619D02*
X156630714Y-56492380D01*
X156630714Y-56301904D01*
X156678333Y-56206666D01*
X156725952Y-56159047D01*
X156821190Y-56111428D01*
X157106904Y-56111428D01*
X157202142Y-56159047D01*
X157249761Y-56206666D01*
X157297380Y-56301904D01*
X157297380Y-56492380D01*
X157249761Y-56587619D01*
X121181904Y-67667142D02*
X121134285Y-67714761D01*
X120991428Y-67762380D01*
X120896190Y-67762380D01*
X120753333Y-67714761D01*
X120658095Y-67619523D01*
X120610476Y-67524285D01*
X120562857Y-67333809D01*
X120562857Y-67190952D01*
X120610476Y-67000476D01*
X120658095Y-66905238D01*
X120753333Y-66810000D01*
X120896190Y-66762380D01*
X120991428Y-66762380D01*
X121134285Y-66810000D01*
X121181904Y-66857619D01*
X121610476Y-67381428D02*
X122372380Y-67381428D01*
X123181904Y-67238571D02*
X122848571Y-67238571D01*
X122848571Y-67762380D02*
X122848571Y-66762380D01*
X123324761Y-66762380D01*
X112950714Y-90336666D02*
X113426904Y-90336666D01*
X112855476Y-90622380D02*
X113188809Y-89622380D01*
X113522142Y-90622380D01*
X114045952Y-89622380D02*
X114141190Y-89622380D01*
X114236428Y-89670000D01*
X114284047Y-89717619D01*
X114331666Y-89812857D01*
X114379285Y-90003333D01*
X114379285Y-90241428D01*
X114331666Y-90431904D01*
X114284047Y-90527142D01*
X114236428Y-90574761D01*
X114141190Y-90622380D01*
X114045952Y-90622380D01*
X113950714Y-90574761D01*
X113903095Y-90527142D01*
X113855476Y-90431904D01*
X113807857Y-90241428D01*
X113807857Y-90003333D01*
X113855476Y-89812857D01*
X113903095Y-89717619D01*
X113950714Y-89670000D01*
X114045952Y-89622380D01*
X112950714Y-82716666D02*
X113426904Y-82716666D01*
X112855476Y-83002380D02*
X113188809Y-82002380D01*
X113522142Y-83002380D01*
X113760238Y-82002380D02*
X114379285Y-82002380D01*
X114045952Y-82383333D01*
X114188809Y-82383333D01*
X114284047Y-82430952D01*
X114331666Y-82478571D01*
X114379285Y-82573809D01*
X114379285Y-82811904D01*
X114331666Y-82907142D01*
X114284047Y-82954761D01*
X114188809Y-83002380D01*
X113903095Y-83002380D01*
X113807857Y-82954761D01*
X113760238Y-82907142D01*
X120705714Y-64650952D02*
X120610476Y-64603333D01*
X120562857Y-64555714D01*
X120515238Y-64460476D01*
X120515238Y-64412857D01*
X120562857Y-64317619D01*
X120610476Y-64270000D01*
X120705714Y-64222380D01*
X120896190Y-64222380D01*
X120991428Y-64270000D01*
X121039047Y-64317619D01*
X121086666Y-64412857D01*
X121086666Y-64460476D01*
X121039047Y-64555714D01*
X120991428Y-64603333D01*
X120896190Y-64650952D01*
X120705714Y-64650952D01*
X120610476Y-64698571D01*
X120562857Y-64746190D01*
X120515238Y-64841428D01*
X120515238Y-65031904D01*
X120562857Y-65127142D01*
X120610476Y-65174761D01*
X120705714Y-65222380D01*
X120896190Y-65222380D01*
X120991428Y-65174761D01*
X121039047Y-65127142D01*
X121086666Y-65031904D01*
X121086666Y-64841428D01*
X121039047Y-64746190D01*
X120991428Y-64698571D01*
X120896190Y-64650952D01*
X121515238Y-64841428D02*
X122277142Y-64841428D01*
X123086666Y-64698571D02*
X123229523Y-64746190D01*
X123277142Y-64793809D01*
X123324761Y-64889047D01*
X123324761Y-65031904D01*
X123277142Y-65127142D01*
X123229523Y-65174761D01*
X123134285Y-65222380D01*
X122753333Y-65222380D01*
X122753333Y-64222380D01*
X123086666Y-64222380D01*
X123181904Y-64270000D01*
X123229523Y-64317619D01*
X123277142Y-64412857D01*
X123277142Y-64508095D01*
X123229523Y-64603333D01*
X123181904Y-64650952D01*
X123086666Y-64698571D01*
X122753333Y-64698571D01*
X134810476Y-60745714D02*
X134810476Y-61412380D01*
X134572380Y-60364761D02*
X134334285Y-61079047D01*
X134953333Y-61079047D01*
X112926904Y-95702380D02*
X112926904Y-94702380D01*
X113165000Y-94702380D01*
X113307857Y-94750000D01*
X113403095Y-94845238D01*
X113450714Y-94940476D01*
X113498333Y-95130952D01*
X113498333Y-95273809D01*
X113450714Y-95464285D01*
X113403095Y-95559523D01*
X113307857Y-95654761D01*
X113165000Y-95702380D01*
X112926904Y-95702380D01*
X114450714Y-95702380D02*
X113879285Y-95702380D01*
X114165000Y-95702380D02*
X114165000Y-94702380D01*
X114069761Y-94845238D01*
X113974523Y-94940476D01*
X113879285Y-94988095D01*
X120729523Y-72556666D02*
X121205714Y-72556666D01*
X120634285Y-72842380D02*
X120967619Y-71842380D01*
X121300952Y-72842380D01*
X122158095Y-72842380D02*
X121586666Y-72842380D01*
X121872380Y-72842380D02*
X121872380Y-71842380D01*
X121777142Y-71985238D01*
X121681904Y-72080476D01*
X121586666Y-72128095D01*
X122491428Y-71842380D02*
X123110476Y-71842380D01*
X122777142Y-72223333D01*
X122920000Y-72223333D01*
X123015238Y-72270952D01*
X123062857Y-72318571D01*
X123110476Y-72413809D01*
X123110476Y-72651904D01*
X123062857Y-72747142D01*
X123015238Y-72794761D01*
X122920000Y-72842380D01*
X122634285Y-72842380D01*
X122539047Y-72794761D01*
X122491428Y-72747142D01*
X112387142Y-99830000D02*
X112291904Y-99782380D01*
X112149047Y-99782380D01*
X112006190Y-99830000D01*
X111910952Y-99925238D01*
X111863333Y-100020476D01*
X111815714Y-100210952D01*
X111815714Y-100353809D01*
X111863333Y-100544285D01*
X111910952Y-100639523D01*
X112006190Y-100734761D01*
X112149047Y-100782380D01*
X112244285Y-100782380D01*
X112387142Y-100734761D01*
X112434761Y-100687142D01*
X112434761Y-100353809D01*
X112244285Y-100353809D01*
X112863333Y-100115714D02*
X112863333Y-100782380D01*
X112863333Y-100210952D02*
X112910952Y-100163333D01*
X113006190Y-100115714D01*
X113149047Y-100115714D01*
X113244285Y-100163333D01*
X113291904Y-100258571D01*
X113291904Y-100782380D01*
X114196666Y-100782380D02*
X114196666Y-99782380D01*
X114196666Y-100734761D02*
X114101428Y-100782380D01*
X113910952Y-100782380D01*
X113815714Y-100734761D01*
X113768095Y-100687142D01*
X113720476Y-100591904D01*
X113720476Y-100306190D01*
X113768095Y-100210952D01*
X113815714Y-100163333D01*
X113910952Y-100115714D01*
X114101428Y-100115714D01*
X114196666Y-100163333D01*
X112926904Y-98242380D02*
X112926904Y-97242380D01*
X113165000Y-97242380D01*
X113307857Y-97290000D01*
X113403095Y-97385238D01*
X113450714Y-97480476D01*
X113498333Y-97670952D01*
X113498333Y-97813809D01*
X113450714Y-98004285D01*
X113403095Y-98099523D01*
X113307857Y-98194761D01*
X113165000Y-98242380D01*
X112926904Y-98242380D01*
X113879285Y-97337619D02*
X113926904Y-97290000D01*
X114022142Y-97242380D01*
X114260238Y-97242380D01*
X114355476Y-97290000D01*
X114403095Y-97337619D01*
X114450714Y-97432857D01*
X114450714Y-97528095D01*
X114403095Y-97670952D01*
X113831666Y-98242380D01*
X114450714Y-98242380D01*
X120570714Y-75096666D02*
X121046904Y-75096666D01*
X120475476Y-75382380D02*
X120808809Y-74382380D01*
X121142142Y-75382380D01*
X121618333Y-74810952D02*
X121523095Y-74763333D01*
X121475476Y-74715714D01*
X121427857Y-74620476D01*
X121427857Y-74572857D01*
X121475476Y-74477619D01*
X121523095Y-74430000D01*
X121618333Y-74382380D01*
X121808809Y-74382380D01*
X121904047Y-74430000D01*
X121951666Y-74477619D01*
X121999285Y-74572857D01*
X121999285Y-74620476D01*
X121951666Y-74715714D01*
X121904047Y-74763333D01*
X121808809Y-74810952D01*
X121618333Y-74810952D01*
X121523095Y-74858571D01*
X121475476Y-74906190D01*
X121427857Y-75001428D01*
X121427857Y-75191904D01*
X121475476Y-75287142D01*
X121523095Y-75334761D01*
X121618333Y-75382380D01*
X121808809Y-75382380D01*
X121904047Y-75334761D01*
X121951666Y-75287142D01*
X121999285Y-75191904D01*
X121999285Y-75001428D01*
X121951666Y-74906190D01*
X121904047Y-74858571D01*
X121808809Y-74810952D01*
X112387142Y-59094761D02*
X111530000Y-60380476D01*
X112625238Y-59142380D02*
X112863333Y-60142380D01*
X113053809Y-59428095D01*
X113244285Y-60142380D01*
X113482380Y-59142380D01*
X114434761Y-60142380D02*
X114101428Y-59666190D01*
X113863333Y-60142380D02*
X113863333Y-59142380D01*
X114244285Y-59142380D01*
X114339523Y-59190000D01*
X114387142Y-59237619D01*
X114434761Y-59332857D01*
X114434761Y-59475714D01*
X114387142Y-59570952D01*
X114339523Y-59618571D01*
X114244285Y-59666190D01*
X113863333Y-59666190D01*
X111839523Y-67476666D02*
X112315714Y-67476666D01*
X111744285Y-67762380D02*
X112077619Y-66762380D01*
X112410952Y-67762380D01*
X113268095Y-67762380D02*
X112696666Y-67762380D01*
X112982380Y-67762380D02*
X112982380Y-66762380D01*
X112887142Y-66905238D01*
X112791904Y-67000476D01*
X112696666Y-67048095D01*
X114125238Y-67095714D02*
X114125238Y-67762380D01*
X113887142Y-66714761D02*
X113649047Y-67429047D01*
X114268095Y-67429047D01*
X168092380Y-92042142D02*
X167568571Y-92042142D01*
X167473333Y-92089761D01*
X167425714Y-92185000D01*
X167425714Y-92375476D01*
X167473333Y-92470714D01*
X168044761Y-92042142D02*
X168092380Y-92137380D01*
X168092380Y-92375476D01*
X168044761Y-92470714D01*
X167949523Y-92518333D01*
X167854285Y-92518333D01*
X167759047Y-92470714D01*
X167711428Y-92375476D01*
X167711428Y-92137380D01*
X167663809Y-92042142D01*
X168092380Y-91565952D02*
X167092380Y-91565952D01*
X167473333Y-91565952D02*
X167425714Y-91470714D01*
X167425714Y-91280238D01*
X167473333Y-91185000D01*
X167520952Y-91137380D01*
X167616190Y-91089761D01*
X167901904Y-91089761D01*
X167997142Y-91137380D01*
X168044761Y-91185000D01*
X168092380Y-91280238D01*
X168092380Y-91470714D01*
X168044761Y-91565952D01*
X167425714Y-90756428D02*
X167425714Y-90232619D01*
X168092380Y-90756428D01*
X168092380Y-90232619D01*
X168092380Y-89851666D02*
X167425714Y-89851666D01*
X167520952Y-89851666D02*
X167473333Y-89804047D01*
X167425714Y-89708809D01*
X167425714Y-89565952D01*
X167473333Y-89470714D01*
X167568571Y-89423095D01*
X168092380Y-89423095D01*
X167568571Y-89423095D02*
X167473333Y-89375476D01*
X167425714Y-89280238D01*
X167425714Y-89137380D01*
X167473333Y-89042142D01*
X167568571Y-88994523D01*
X168092380Y-88994523D01*
X168092380Y-88089761D02*
X167568571Y-88089761D01*
X167473333Y-88137380D01*
X167425714Y-88232619D01*
X167425714Y-88423095D01*
X167473333Y-88518333D01*
X168044761Y-88089761D02*
X168092380Y-88185000D01*
X168092380Y-88423095D01*
X168044761Y-88518333D01*
X167949523Y-88565952D01*
X167854285Y-88565952D01*
X167759047Y-88518333D01*
X167711428Y-88423095D01*
X167711428Y-88185000D01*
X167663809Y-88089761D01*
X167425714Y-87613571D02*
X168092380Y-87613571D01*
X167520952Y-87613571D02*
X167473333Y-87565952D01*
X167425714Y-87470714D01*
X167425714Y-87327857D01*
X167473333Y-87232619D01*
X167568571Y-87185000D01*
X168092380Y-87185000D01*
X167187619Y-86756428D02*
X167140000Y-86708809D01*
X167092380Y-86613571D01*
X167092380Y-86375476D01*
X167140000Y-86280238D01*
X167187619Y-86232619D01*
X167282857Y-86185000D01*
X167378095Y-86185000D01*
X167520952Y-86232619D01*
X168092380Y-86804047D01*
X168092380Y-86185000D01*
X168092380Y-85756428D02*
X167092380Y-85756428D01*
X167711428Y-85661190D02*
X168092380Y-85375476D01*
X167425714Y-85375476D02*
X167806666Y-85756428D01*
X167997142Y-84946904D02*
X168044761Y-84899285D01*
X168092380Y-84946904D01*
X168044761Y-84994523D01*
X167997142Y-84946904D01*
X168092380Y-84946904D01*
X167425714Y-84565952D02*
X168092380Y-84375476D01*
X167616190Y-84185000D01*
X168092380Y-83994523D01*
X167425714Y-83804047D01*
X168092380Y-83280238D02*
X168044761Y-83375476D01*
X167997142Y-83423095D01*
X167901904Y-83470714D01*
X167616190Y-83470714D01*
X167520952Y-83423095D01*
X167473333Y-83375476D01*
X167425714Y-83280238D01*
X167425714Y-83137380D01*
X167473333Y-83042142D01*
X167520952Y-82994523D01*
X167616190Y-82946904D01*
X167901904Y-82946904D01*
X167997142Y-82994523D01*
X168044761Y-83042142D01*
X168092380Y-83137380D01*
X168092380Y-83280238D01*
X168092380Y-82518333D02*
X167425714Y-82518333D01*
X167616190Y-82518333D02*
X167520952Y-82470714D01*
X167473333Y-82423095D01*
X167425714Y-82327857D01*
X167425714Y-82232619D01*
X168092380Y-81470714D02*
X167092380Y-81470714D01*
X168044761Y-81470714D02*
X168092380Y-81565952D01*
X168092380Y-81756428D01*
X168044761Y-81851666D01*
X167997142Y-81899285D01*
X167901904Y-81946904D01*
X167616190Y-81946904D01*
X167520952Y-81899285D01*
X167473333Y-81851666D01*
X167425714Y-81756428D01*
X167425714Y-81565952D01*
X167473333Y-81470714D01*
X167425714Y-80994523D02*
X168425714Y-80994523D01*
X167473333Y-80994523D02*
X167425714Y-80899285D01*
X167425714Y-80708809D01*
X167473333Y-80613571D01*
X167520952Y-80565952D01*
X167616190Y-80518333D01*
X167901904Y-80518333D01*
X167997142Y-80565952D01*
X168044761Y-80613571D01*
X168092380Y-80708809D01*
X168092380Y-80899285D01*
X168044761Y-80994523D01*
X168092380Y-80089761D02*
X167425714Y-80089761D01*
X167616190Y-80089761D02*
X167520952Y-80042142D01*
X167473333Y-79994523D01*
X167425714Y-79899285D01*
X167425714Y-79804047D01*
X168044761Y-79089761D02*
X168092380Y-79185000D01*
X168092380Y-79375476D01*
X168044761Y-79470714D01*
X167949523Y-79518333D01*
X167568571Y-79518333D01*
X167473333Y-79470714D01*
X167425714Y-79375476D01*
X167425714Y-79185000D01*
X167473333Y-79089761D01*
X167568571Y-79042142D01*
X167663809Y-79042142D01*
X167759047Y-79518333D01*
X168044761Y-78661190D02*
X168092380Y-78565952D01*
X168092380Y-78375476D01*
X168044761Y-78280238D01*
X167949523Y-78232619D01*
X167901904Y-78232619D01*
X167806666Y-78280238D01*
X167759047Y-78375476D01*
X167759047Y-78518333D01*
X167711428Y-78613571D01*
X167616190Y-78661190D01*
X167568571Y-78661190D01*
X167473333Y-78613571D01*
X167425714Y-78518333D01*
X167425714Y-78375476D01*
X167473333Y-78280238D01*
X168044761Y-77851666D02*
X168092380Y-77756428D01*
X168092380Y-77565952D01*
X168044761Y-77470714D01*
X167949523Y-77423095D01*
X167901904Y-77423095D01*
X167806666Y-77470714D01*
X167759047Y-77565952D01*
X167759047Y-77708809D01*
X167711428Y-77804047D01*
X167616190Y-77851666D01*
X167568571Y-77851666D01*
X167473333Y-77804047D01*
X167425714Y-77708809D01*
X167425714Y-77565952D01*
X167473333Y-77470714D01*
X167997142Y-76994523D02*
X168044761Y-76946904D01*
X168092380Y-76994523D01*
X168044761Y-77042142D01*
X167997142Y-76994523D01*
X168092380Y-76994523D01*
X168044761Y-76089761D02*
X168092380Y-76185000D01*
X168092380Y-76375476D01*
X168044761Y-76470714D01*
X167997142Y-76518333D01*
X167901904Y-76565952D01*
X167616190Y-76565952D01*
X167520952Y-76518333D01*
X167473333Y-76470714D01*
X167425714Y-76375476D01*
X167425714Y-76185000D01*
X167473333Y-76089761D01*
X168092380Y-75518333D02*
X168044761Y-75613571D01*
X167997142Y-75661190D01*
X167901904Y-75708809D01*
X167616190Y-75708809D01*
X167520952Y-75661190D01*
X167473333Y-75613571D01*
X167425714Y-75518333D01*
X167425714Y-75375476D01*
X167473333Y-75280238D01*
X167520952Y-75232619D01*
X167616190Y-75185000D01*
X167901904Y-75185000D01*
X167997142Y-75232619D01*
X168044761Y-75280238D01*
X168092380Y-75375476D01*
X168092380Y-75518333D01*
X168092380Y-74756428D02*
X167425714Y-74756428D01*
X167520952Y-74756428D02*
X167473333Y-74708809D01*
X167425714Y-74613571D01*
X167425714Y-74470714D01*
X167473333Y-74375476D01*
X167568571Y-74327857D01*
X168092380Y-74327857D01*
X167568571Y-74327857D02*
X167473333Y-74280238D01*
X167425714Y-74185000D01*
X167425714Y-74042142D01*
X167473333Y-73946904D01*
X167568571Y-73899285D01*
X168092380Y-73899285D01*
X112950714Y-80176666D02*
X113426904Y-80176666D01*
X112855476Y-80462380D02*
X113188809Y-79462380D01*
X113522142Y-80462380D01*
X114284047Y-79795714D02*
X114284047Y-80462380D01*
X114045952Y-79414761D02*
X113807857Y-80129047D01*
X114426904Y-80129047D01*
X120729523Y-85256666D02*
X121205714Y-85256666D01*
X120634285Y-85542380D02*
X120967619Y-84542380D01*
X121300952Y-85542380D01*
X122158095Y-85542380D02*
X121586666Y-85542380D01*
X121872380Y-85542380D02*
X121872380Y-84542380D01*
X121777142Y-84685238D01*
X121681904Y-84780476D01*
X121586666Y-84828095D01*
X122777142Y-84542380D02*
X122872380Y-84542380D01*
X122967619Y-84590000D01*
X123015238Y-84637619D01*
X123062857Y-84732857D01*
X123110476Y-84923333D01*
X123110476Y-85161428D01*
X123062857Y-85351904D01*
X123015238Y-85447142D01*
X122967619Y-85494761D01*
X122872380Y-85542380D01*
X122777142Y-85542380D01*
X122681904Y-85494761D01*
X122634285Y-85447142D01*
X122586666Y-85351904D01*
X122539047Y-85161428D01*
X122539047Y-84923333D01*
X122586666Y-84732857D01*
X122634285Y-84637619D01*
X122681904Y-84590000D01*
X122777142Y-84542380D01*
X112926904Y-93162380D02*
X112926904Y-92162380D01*
X113165000Y-92162380D01*
X113307857Y-92210000D01*
X113403095Y-92305238D01*
X113450714Y-92400476D01*
X113498333Y-92590952D01*
X113498333Y-92733809D01*
X113450714Y-92924285D01*
X113403095Y-93019523D01*
X113307857Y-93114761D01*
X113165000Y-93162380D01*
X112926904Y-93162380D01*
X114117380Y-92162380D02*
X114212619Y-92162380D01*
X114307857Y-92210000D01*
X114355476Y-92257619D01*
X114403095Y-92352857D01*
X114450714Y-92543333D01*
X114450714Y-92781428D01*
X114403095Y-92971904D01*
X114355476Y-93067142D01*
X114307857Y-93114761D01*
X114212619Y-93162380D01*
X114117380Y-93162380D01*
X114022142Y-93114761D01*
X113974523Y-93067142D01*
X113926904Y-92971904D01*
X113879285Y-92781428D01*
X113879285Y-92543333D01*
X113926904Y-92352857D01*
X113974523Y-92257619D01*
X114022142Y-92210000D01*
X114117380Y-92162380D01*
X120729523Y-80176666D02*
X121205714Y-80176666D01*
X120634285Y-80462380D02*
X120967619Y-79462380D01*
X121300952Y-80462380D01*
X122158095Y-80462380D02*
X121586666Y-80462380D01*
X121872380Y-80462380D02*
X121872380Y-79462380D01*
X121777142Y-79605238D01*
X121681904Y-79700476D01*
X121586666Y-79748095D01*
X123110476Y-80462380D02*
X122539047Y-80462380D01*
X122824761Y-80462380D02*
X122824761Y-79462380D01*
X122729523Y-79605238D01*
X122634285Y-79700476D01*
X122539047Y-79748095D01*
X120546904Y-95702380D02*
X120546904Y-94702380D01*
X120785000Y-94702380D01*
X120927857Y-94750000D01*
X121023095Y-94845238D01*
X121070714Y-94940476D01*
X121118333Y-95130952D01*
X121118333Y-95273809D01*
X121070714Y-95464285D01*
X121023095Y-95559523D01*
X120927857Y-95654761D01*
X120785000Y-95702380D01*
X120546904Y-95702380D01*
X122023095Y-94702380D02*
X121546904Y-94702380D01*
X121499285Y-95178571D01*
X121546904Y-95130952D01*
X121642142Y-95083333D01*
X121880238Y-95083333D01*
X121975476Y-95130952D01*
X122023095Y-95178571D01*
X122070714Y-95273809D01*
X122070714Y-95511904D01*
X122023095Y-95607142D01*
X121975476Y-95654761D01*
X121880238Y-95702380D01*
X121642142Y-95702380D01*
X121546904Y-95654761D01*
X121499285Y-95607142D01*
X112950714Y-72556666D02*
X113426904Y-72556666D01*
X112855476Y-72842380D02*
X113188809Y-71842380D01*
X113522142Y-72842380D01*
X113760238Y-71842380D02*
X114426904Y-71842380D01*
X113998333Y-72842380D01*
X159722380Y-75920952D02*
X160436666Y-75920952D01*
X160579523Y-75968571D01*
X160674761Y-76063809D01*
X160722380Y-76206666D01*
X160722380Y-76301904D01*
X160055714Y-75016190D02*
X160722380Y-75016190D01*
X160055714Y-75444761D02*
X160579523Y-75444761D01*
X160674761Y-75397142D01*
X160722380Y-75301904D01*
X160722380Y-75159047D01*
X160674761Y-75063809D01*
X160627142Y-75016190D01*
X160722380Y-74540000D02*
X160055714Y-74540000D01*
X160150952Y-74540000D02*
X160103333Y-74492380D01*
X160055714Y-74397142D01*
X160055714Y-74254285D01*
X160103333Y-74159047D01*
X160198571Y-74111428D01*
X160722380Y-74111428D01*
X160198571Y-74111428D02*
X160103333Y-74063809D01*
X160055714Y-73968571D01*
X160055714Y-73825714D01*
X160103333Y-73730476D01*
X160198571Y-73682857D01*
X160722380Y-73682857D01*
X160055714Y-73206666D02*
X161055714Y-73206666D01*
X160103333Y-73206666D02*
X160055714Y-73111428D01*
X160055714Y-72920952D01*
X160103333Y-72825714D01*
X160150952Y-72778095D01*
X160246190Y-72730476D01*
X160531904Y-72730476D01*
X160627142Y-72778095D01*
X160674761Y-72825714D01*
X160722380Y-72920952D01*
X160722380Y-73111428D01*
X160674761Y-73206666D01*
X160674761Y-71920952D02*
X160722380Y-72016190D01*
X160722380Y-72206666D01*
X160674761Y-72301904D01*
X160579523Y-72349523D01*
X160198571Y-72349523D01*
X160103333Y-72301904D01*
X160055714Y-72206666D01*
X160055714Y-72016190D01*
X160103333Y-71920952D01*
X160198571Y-71873333D01*
X160293809Y-71873333D01*
X160389047Y-72349523D01*
X160722380Y-71444761D02*
X160055714Y-71444761D01*
X160246190Y-71444761D02*
X160150952Y-71397142D01*
X160103333Y-71349523D01*
X160055714Y-71254285D01*
X160055714Y-71159047D01*
X160674761Y-70873333D02*
X160722380Y-70778095D01*
X160722380Y-70587619D01*
X160674761Y-70492380D01*
X160579523Y-70444761D01*
X160531904Y-70444761D01*
X160436666Y-70492380D01*
X160389047Y-70587619D01*
X160389047Y-70730476D01*
X160341428Y-70825714D01*
X160246190Y-70873333D01*
X160198571Y-70873333D01*
X160103333Y-70825714D01*
X160055714Y-70730476D01*
X160055714Y-70587619D01*
X160103333Y-70492380D01*
X160055714Y-69254285D02*
X161055714Y-69254285D01*
X160103333Y-69254285D02*
X160055714Y-69159047D01*
X160055714Y-68968571D01*
X160103333Y-68873333D01*
X160150952Y-68825714D01*
X160246190Y-68778095D01*
X160531904Y-68778095D01*
X160627142Y-68825714D01*
X160674761Y-68873333D01*
X160722380Y-68968571D01*
X160722380Y-69159047D01*
X160674761Y-69254285D01*
X160722380Y-68206666D02*
X160674761Y-68301904D01*
X160579523Y-68349523D01*
X159722380Y-68349523D01*
X160722380Y-67397142D02*
X160198571Y-67397142D01*
X160103333Y-67444761D01*
X160055714Y-67540000D01*
X160055714Y-67730476D01*
X160103333Y-67825714D01*
X160674761Y-67397142D02*
X160722380Y-67492380D01*
X160722380Y-67730476D01*
X160674761Y-67825714D01*
X160579523Y-67873333D01*
X160484285Y-67873333D01*
X160389047Y-67825714D01*
X160341428Y-67730476D01*
X160341428Y-67492380D01*
X160293809Y-67397142D01*
X160674761Y-66492380D02*
X160722380Y-66587619D01*
X160722380Y-66778095D01*
X160674761Y-66873333D01*
X160627142Y-66920952D01*
X160531904Y-66968571D01*
X160246190Y-66968571D01*
X160150952Y-66920952D01*
X160103333Y-66873333D01*
X160055714Y-66778095D01*
X160055714Y-66587619D01*
X160103333Y-66492380D01*
X160674761Y-65682857D02*
X160722380Y-65778095D01*
X160722380Y-65968571D01*
X160674761Y-66063809D01*
X160579523Y-66111428D01*
X160198571Y-66111428D01*
X160103333Y-66063809D01*
X160055714Y-65968571D01*
X160055714Y-65778095D01*
X160103333Y-65682857D01*
X160198571Y-65635238D01*
X160293809Y-65635238D01*
X160389047Y-66111428D01*
X160674761Y-64492380D02*
X160722380Y-64349523D01*
X160722380Y-64111428D01*
X160674761Y-64016190D01*
X160627142Y-63968571D01*
X160531904Y-63920952D01*
X160436666Y-63920952D01*
X160341428Y-63968571D01*
X160293809Y-64016190D01*
X160246190Y-64111428D01*
X160198571Y-64301904D01*
X160150952Y-64397142D01*
X160103333Y-64444761D01*
X160008095Y-64492380D01*
X159912857Y-64492380D01*
X159817619Y-64444761D01*
X159770000Y-64397142D01*
X159722380Y-64301904D01*
X159722380Y-64063809D01*
X159770000Y-63920952D01*
X160722380Y-62920952D02*
X160246190Y-63254285D01*
X160722380Y-63492380D02*
X159722380Y-63492380D01*
X159722380Y-63111428D01*
X159770000Y-63016190D01*
X159817619Y-62968571D01*
X159912857Y-62920952D01*
X160055714Y-62920952D01*
X160150952Y-62968571D01*
X160198571Y-63016190D01*
X160246190Y-63111428D01*
X160246190Y-63492380D01*
X160436666Y-62540000D02*
X160436666Y-62063809D01*
X160722380Y-62635238D02*
X159722380Y-62301904D01*
X160722380Y-61968571D01*
X160722380Y-61635238D02*
X159722380Y-61635238D01*
X160436666Y-61301904D01*
X159722380Y-60968571D01*
X160722380Y-60968571D01*
X160722380Y-59730476D02*
X159722380Y-59730476D01*
X160103333Y-59730476D02*
X160055714Y-59635238D01*
X160055714Y-59444761D01*
X160103333Y-59349523D01*
X160150952Y-59301904D01*
X160246190Y-59254285D01*
X160531904Y-59254285D01*
X160627142Y-59301904D01*
X160674761Y-59349523D01*
X160722380Y-59444761D01*
X160722380Y-59635238D01*
X160674761Y-59730476D01*
X160722380Y-58397142D02*
X160198571Y-58397142D01*
X160103333Y-58444761D01*
X160055714Y-58540000D01*
X160055714Y-58730476D01*
X160103333Y-58825714D01*
X160674761Y-58397142D02*
X160722380Y-58492380D01*
X160722380Y-58730476D01*
X160674761Y-58825714D01*
X160579523Y-58873333D01*
X160484285Y-58873333D01*
X160389047Y-58825714D01*
X160341428Y-58730476D01*
X160341428Y-58492380D01*
X160293809Y-58397142D01*
X160055714Y-57920952D02*
X160722380Y-57920952D01*
X160150952Y-57920952D02*
X160103333Y-57873333D01*
X160055714Y-57778095D01*
X160055714Y-57635238D01*
X160103333Y-57540000D01*
X160198571Y-57492380D01*
X160722380Y-57492380D01*
X160722380Y-57016190D02*
X159722380Y-57016190D01*
X160341428Y-56920952D02*
X160722380Y-56635238D01*
X160055714Y-56635238D02*
X160436666Y-57016190D01*
X160674761Y-56254285D02*
X160722380Y-56159047D01*
X160722380Y-55968571D01*
X160674761Y-55873333D01*
X160579523Y-55825714D01*
X160531904Y-55825714D01*
X160436666Y-55873333D01*
X160389047Y-55968571D01*
X160389047Y-56111428D01*
X160341428Y-56206666D01*
X160246190Y-56254285D01*
X160198571Y-56254285D01*
X160103333Y-56206666D01*
X160055714Y-56111428D01*
X160055714Y-55968571D01*
X160103333Y-55873333D01*
X162332380Y-70682857D02*
X161665714Y-70682857D01*
X161332380Y-70682857D02*
X161380000Y-70730476D01*
X161427619Y-70682857D01*
X161380000Y-70635238D01*
X161332380Y-70682857D01*
X161427619Y-70682857D01*
X161665714Y-70206666D02*
X162332380Y-70206666D01*
X161760952Y-70206666D02*
X161713333Y-70159047D01*
X161665714Y-70063809D01*
X161665714Y-69920952D01*
X161713333Y-69825714D01*
X161808571Y-69778095D01*
X162332380Y-69778095D01*
X161665714Y-69444761D02*
X161665714Y-69063809D01*
X161332380Y-69301904D02*
X162189523Y-69301904D01*
X162284761Y-69254285D01*
X162332380Y-69159047D01*
X162332380Y-69063809D01*
X162332380Y-68587619D02*
X162284761Y-68682857D01*
X162237142Y-68730476D01*
X162141904Y-68778095D01*
X161856190Y-68778095D01*
X161760952Y-68730476D01*
X161713333Y-68682857D01*
X161665714Y-68587619D01*
X161665714Y-68444761D01*
X161713333Y-68349523D01*
X161760952Y-68301904D01*
X161856190Y-68254285D01*
X162141904Y-68254285D01*
X162237142Y-68301904D01*
X162284761Y-68349523D01*
X162332380Y-68444761D01*
X162332380Y-68587619D01*
X162284761Y-67111428D02*
X162332380Y-67016190D01*
X162332380Y-66825714D01*
X162284761Y-66730476D01*
X162189523Y-66682857D01*
X162141904Y-66682857D01*
X162046666Y-66730476D01*
X161999047Y-66825714D01*
X161999047Y-66968571D01*
X161951428Y-67063809D01*
X161856190Y-67111428D01*
X161808571Y-67111428D01*
X161713333Y-67063809D01*
X161665714Y-66968571D01*
X161665714Y-66825714D01*
X161713333Y-66730476D01*
X162332380Y-66111428D02*
X162284761Y-66206666D01*
X162237142Y-66254285D01*
X162141904Y-66301904D01*
X161856190Y-66301904D01*
X161760952Y-66254285D01*
X161713333Y-66206666D01*
X161665714Y-66111428D01*
X161665714Y-65968571D01*
X161713333Y-65873333D01*
X161760952Y-65825714D01*
X161856190Y-65778095D01*
X162141904Y-65778095D01*
X162237142Y-65825714D01*
X162284761Y-65873333D01*
X162332380Y-65968571D01*
X162332380Y-66111428D01*
X162332380Y-65349523D02*
X161665714Y-65349523D01*
X161856190Y-65349523D02*
X161760952Y-65301904D01*
X161713333Y-65254285D01*
X161665714Y-65159047D01*
X161665714Y-65063809D01*
X162284761Y-64301904D02*
X162332380Y-64397142D01*
X162332380Y-64587619D01*
X162284761Y-64682857D01*
X162237142Y-64730476D01*
X162141904Y-64778095D01*
X161856190Y-64778095D01*
X161760952Y-64730476D01*
X161713333Y-64682857D01*
X161665714Y-64587619D01*
X161665714Y-64397142D01*
X161713333Y-64301904D01*
X162284761Y-63492380D02*
X162332380Y-63587619D01*
X162332380Y-63778095D01*
X162284761Y-63873333D01*
X162189523Y-63920952D01*
X161808571Y-63920952D01*
X161713333Y-63873333D01*
X161665714Y-63778095D01*
X161665714Y-63587619D01*
X161713333Y-63492380D01*
X161808571Y-63444761D01*
X161903809Y-63444761D01*
X161999047Y-63920952D01*
X162332380Y-63016190D02*
X161665714Y-63016190D01*
X161856190Y-63016190D02*
X161760952Y-62968571D01*
X161713333Y-62920952D01*
X161665714Y-62825714D01*
X161665714Y-62730476D01*
X162284761Y-62016190D02*
X162332380Y-62111428D01*
X162332380Y-62301904D01*
X162284761Y-62397142D01*
X162189523Y-62444761D01*
X161808571Y-62444761D01*
X161713333Y-62397142D01*
X161665714Y-62301904D01*
X161665714Y-62111428D01*
X161713333Y-62016190D01*
X161808571Y-61968571D01*
X161903809Y-61968571D01*
X161999047Y-62444761D01*
X162332380Y-61540000D02*
X161665714Y-61540000D01*
X161856190Y-61540000D02*
X161760952Y-61492380D01*
X161713333Y-61444761D01*
X161665714Y-61349523D01*
X161665714Y-61254285D01*
X164552380Y-69897142D02*
X164552380Y-69801904D01*
X164600000Y-69706666D01*
X164647619Y-69659047D01*
X164742857Y-69611428D01*
X164933333Y-69563809D01*
X165171428Y-69563809D01*
X165361904Y-69611428D01*
X165457142Y-69659047D01*
X165504761Y-69706666D01*
X165552380Y-69801904D01*
X165552380Y-69897142D01*
X165504761Y-69992380D01*
X165457142Y-70040000D01*
X165361904Y-70087619D01*
X165171428Y-70135238D01*
X164933333Y-70135238D01*
X164742857Y-70087619D01*
X164647619Y-70040000D01*
X164600000Y-69992380D01*
X164552380Y-69897142D01*
X164552380Y-68944761D02*
X164552380Y-68849523D01*
X164600000Y-68754285D01*
X164647619Y-68706666D01*
X164742857Y-68659047D01*
X164933333Y-68611428D01*
X165171428Y-68611428D01*
X165361904Y-68659047D01*
X165457142Y-68706666D01*
X165504761Y-68754285D01*
X165552380Y-68849523D01*
X165552380Y-68944761D01*
X165504761Y-69040000D01*
X165457142Y-69087619D01*
X165361904Y-69135238D01*
X165171428Y-69182857D01*
X164933333Y-69182857D01*
X164742857Y-69135238D01*
X164647619Y-69087619D01*
X164600000Y-69040000D01*
X164552380Y-68944761D01*
X164552380Y-67992380D02*
X164552380Y-67897142D01*
X164600000Y-67801904D01*
X164647619Y-67754285D01*
X164742857Y-67706666D01*
X164933333Y-67659047D01*
X165171428Y-67659047D01*
X165361904Y-67706666D01*
X165457142Y-67754285D01*
X165504761Y-67801904D01*
X165552380Y-67897142D01*
X165552380Y-67992380D01*
X165504761Y-68087619D01*
X165457142Y-68135238D01*
X165361904Y-68182857D01*
X165171428Y-68230476D01*
X164933333Y-68230476D01*
X164742857Y-68182857D01*
X164647619Y-68135238D01*
X164600000Y-68087619D01*
X164552380Y-67992380D01*
X164552380Y-67040000D02*
X164552380Y-66944761D01*
X164600000Y-66849523D01*
X164647619Y-66801904D01*
X164742857Y-66754285D01*
X164933333Y-66706666D01*
X165171428Y-66706666D01*
X165361904Y-66754285D01*
X165457142Y-66801904D01*
X165504761Y-66849523D01*
X165552380Y-66944761D01*
X165552380Y-67040000D01*
X165504761Y-67135238D01*
X165457142Y-67182857D01*
X165361904Y-67230476D01*
X165171428Y-67278095D01*
X164933333Y-67278095D01*
X164742857Y-67230476D01*
X164647619Y-67182857D01*
X164600000Y-67135238D01*
X164552380Y-67040000D01*
X165171428Y-66278095D02*
X165171428Y-65516190D01*
X164552380Y-65135238D02*
X164552380Y-64516190D01*
X164933333Y-64849523D01*
X164933333Y-64706666D01*
X164980952Y-64611428D01*
X165028571Y-64563809D01*
X165123809Y-64516190D01*
X165361904Y-64516190D01*
X165457142Y-64563809D01*
X165504761Y-64611428D01*
X165552380Y-64706666D01*
X165552380Y-64992380D01*
X165504761Y-65087619D01*
X165457142Y-65135238D01*
X165028571Y-63754285D02*
X165028571Y-64087619D01*
X165552380Y-64087619D02*
X164552380Y-64087619D01*
X164552380Y-63611428D01*
X165028571Y-62897142D02*
X165028571Y-63230476D01*
X165552380Y-63230476D02*
X164552380Y-63230476D01*
X164552380Y-62754285D01*
X165028571Y-62040000D02*
X165028571Y-62373333D01*
X165552380Y-62373333D02*
X164552380Y-62373333D01*
X164552380Y-61897142D01*
X166495714Y-69659047D02*
X167162380Y-69659047D01*
X166114761Y-69897142D02*
X166829047Y-70135238D01*
X166829047Y-69516190D01*
X166162380Y-68944761D02*
X166162380Y-68849523D01*
X166210000Y-68754285D01*
X166257619Y-68706666D01*
X166352857Y-68659047D01*
X166543333Y-68611428D01*
X166781428Y-68611428D01*
X166971904Y-68659047D01*
X167067142Y-68706666D01*
X167114761Y-68754285D01*
X167162380Y-68849523D01*
X167162380Y-68944761D01*
X167114761Y-69040000D01*
X167067142Y-69087619D01*
X166971904Y-69135238D01*
X166781428Y-69182857D01*
X166543333Y-69182857D01*
X166352857Y-69135238D01*
X166257619Y-69087619D01*
X166210000Y-69040000D01*
X166162380Y-68944761D01*
X166162380Y-67992380D02*
X166162380Y-67897142D01*
X166210000Y-67801904D01*
X166257619Y-67754285D01*
X166352857Y-67706666D01*
X166543333Y-67659047D01*
X166781428Y-67659047D01*
X166971904Y-67706666D01*
X167067142Y-67754285D01*
X167114761Y-67801904D01*
X167162380Y-67897142D01*
X167162380Y-67992380D01*
X167114761Y-68087619D01*
X167067142Y-68135238D01*
X166971904Y-68182857D01*
X166781428Y-68230476D01*
X166543333Y-68230476D01*
X166352857Y-68182857D01*
X166257619Y-68135238D01*
X166210000Y-68087619D01*
X166162380Y-67992380D01*
X166162380Y-67040000D02*
X166162380Y-66944761D01*
X166210000Y-66849523D01*
X166257619Y-66801904D01*
X166352857Y-66754285D01*
X166543333Y-66706666D01*
X166781428Y-66706666D01*
X166971904Y-66754285D01*
X167067142Y-66801904D01*
X167114761Y-66849523D01*
X167162380Y-66944761D01*
X167162380Y-67040000D01*
X167114761Y-67135238D01*
X167067142Y-67182857D01*
X166971904Y-67230476D01*
X166781428Y-67278095D01*
X166543333Y-67278095D01*
X166352857Y-67230476D01*
X166257619Y-67182857D01*
X166210000Y-67135238D01*
X166162380Y-67040000D01*
X166781428Y-66278095D02*
X166781428Y-65516190D01*
X166162380Y-65135238D02*
X166162380Y-64468571D01*
X167162380Y-64897142D01*
X166638571Y-63754285D02*
X166638571Y-64087619D01*
X167162380Y-64087619D02*
X166162380Y-64087619D01*
X166162380Y-63611428D01*
X166638571Y-62897142D02*
X166638571Y-63230476D01*
X167162380Y-63230476D02*
X166162380Y-63230476D01*
X166162380Y-62754285D01*
X166638571Y-62040000D02*
X166638571Y-62373333D01*
X167162380Y-62373333D02*
X166162380Y-62373333D01*
X166162380Y-61897142D01*
X168200952Y-69968571D02*
X168153333Y-70063809D01*
X168105714Y-70111428D01*
X168010476Y-70159047D01*
X167962857Y-70159047D01*
X167867619Y-70111428D01*
X167820000Y-70063809D01*
X167772380Y-69968571D01*
X167772380Y-69778095D01*
X167820000Y-69682857D01*
X167867619Y-69635238D01*
X167962857Y-69587619D01*
X168010476Y-69587619D01*
X168105714Y-69635238D01*
X168153333Y-69682857D01*
X168200952Y-69778095D01*
X168200952Y-69968571D01*
X168248571Y-70063809D01*
X168296190Y-70111428D01*
X168391428Y-70159047D01*
X168581904Y-70159047D01*
X168677142Y-70111428D01*
X168724761Y-70063809D01*
X168772380Y-69968571D01*
X168772380Y-69778095D01*
X168724761Y-69682857D01*
X168677142Y-69635238D01*
X168581904Y-69587619D01*
X168391428Y-69587619D01*
X168296190Y-69635238D01*
X168248571Y-69682857D01*
X168200952Y-69778095D01*
X167772380Y-68968571D02*
X167772380Y-68873333D01*
X167820000Y-68778095D01*
X167867619Y-68730476D01*
X167962857Y-68682857D01*
X168153333Y-68635238D01*
X168391428Y-68635238D01*
X168581904Y-68682857D01*
X168677142Y-68730476D01*
X168724761Y-68778095D01*
X168772380Y-68873333D01*
X168772380Y-68968571D01*
X168724761Y-69063809D01*
X168677142Y-69111428D01*
X168581904Y-69159047D01*
X168391428Y-69206666D01*
X168153333Y-69206666D01*
X167962857Y-69159047D01*
X167867619Y-69111428D01*
X167820000Y-69063809D01*
X167772380Y-68968571D01*
X167772380Y-68016190D02*
X167772380Y-67920952D01*
X167820000Y-67825714D01*
X167867619Y-67778095D01*
X167962857Y-67730476D01*
X168153333Y-67682857D01*
X168391428Y-67682857D01*
X168581904Y-67730476D01*
X168677142Y-67778095D01*
X168724761Y-67825714D01*
X168772380Y-67920952D01*
X168772380Y-68016190D01*
X168724761Y-68111428D01*
X168677142Y-68159047D01*
X168581904Y-68206666D01*
X168391428Y-68254285D01*
X168153333Y-68254285D01*
X167962857Y-68206666D01*
X167867619Y-68159047D01*
X167820000Y-68111428D01*
X167772380Y-68016190D01*
X167772380Y-67063809D02*
X167772380Y-66968571D01*
X167820000Y-66873333D01*
X167867619Y-66825714D01*
X167962857Y-66778095D01*
X168153333Y-66730476D01*
X168391428Y-66730476D01*
X168581904Y-66778095D01*
X168677142Y-66825714D01*
X168724761Y-66873333D01*
X168772380Y-66968571D01*
X168772380Y-67063809D01*
X168724761Y-67159047D01*
X168677142Y-67206666D01*
X168581904Y-67254285D01*
X168391428Y-67301904D01*
X168153333Y-67301904D01*
X167962857Y-67254285D01*
X167867619Y-67206666D01*
X167820000Y-67159047D01*
X167772380Y-67063809D01*
X168391428Y-66301904D02*
X168391428Y-65540000D01*
X168248571Y-64730476D02*
X168296190Y-64587619D01*
X168343809Y-64540000D01*
X168439047Y-64492380D01*
X168581904Y-64492380D01*
X168677142Y-64540000D01*
X168724761Y-64587619D01*
X168772380Y-64682857D01*
X168772380Y-65063809D01*
X167772380Y-65063809D01*
X167772380Y-64730476D01*
X167820000Y-64635238D01*
X167867619Y-64587619D01*
X167962857Y-64540000D01*
X168058095Y-64540000D01*
X168153333Y-64587619D01*
X168200952Y-64635238D01*
X168248571Y-64730476D01*
X168248571Y-65063809D01*
X168248571Y-63730476D02*
X168248571Y-64063809D01*
X168772380Y-64063809D02*
X167772380Y-64063809D01*
X167772380Y-63587619D01*
X168248571Y-62873333D02*
X168248571Y-63206666D01*
X168772380Y-63206666D02*
X167772380Y-63206666D01*
X167772380Y-62730476D01*
X168248571Y-62016190D02*
X168248571Y-62349523D01*
X168772380Y-62349523D02*
X167772380Y-62349523D01*
X167772380Y-61873333D01*
X170287142Y-69492380D02*
X170334761Y-69540000D01*
X170382380Y-69682857D01*
X170382380Y-69778095D01*
X170334761Y-69920952D01*
X170239523Y-70016190D01*
X170144285Y-70063809D01*
X169953809Y-70111428D01*
X169810952Y-70111428D01*
X169620476Y-70063809D01*
X169525238Y-70016190D01*
X169430000Y-69920952D01*
X169382380Y-69778095D01*
X169382380Y-69682857D01*
X169430000Y-69540000D01*
X169477619Y-69492380D01*
X169382380Y-68873333D02*
X169382380Y-68778095D01*
X169430000Y-68682857D01*
X169477619Y-68635238D01*
X169572857Y-68587619D01*
X169763333Y-68540000D01*
X170001428Y-68540000D01*
X170191904Y-68587619D01*
X170287142Y-68635238D01*
X170334761Y-68682857D01*
X170382380Y-68778095D01*
X170382380Y-68873333D01*
X170334761Y-68968571D01*
X170287142Y-69016190D01*
X170191904Y-69063809D01*
X170001428Y-69111428D01*
X169763333Y-69111428D01*
X169572857Y-69063809D01*
X169477619Y-69016190D01*
X169430000Y-68968571D01*
X169382380Y-68873333D01*
X169382380Y-67920952D02*
X169382380Y-67825714D01*
X169430000Y-67730476D01*
X169477619Y-67682857D01*
X169572857Y-67635238D01*
X169763333Y-67587619D01*
X170001428Y-67587619D01*
X170191904Y-67635238D01*
X170287142Y-67682857D01*
X170334761Y-67730476D01*
X170382380Y-67825714D01*
X170382380Y-67920952D01*
X170334761Y-68016190D01*
X170287142Y-68063809D01*
X170191904Y-68111428D01*
X170001428Y-68159047D01*
X169763333Y-68159047D01*
X169572857Y-68111428D01*
X169477619Y-68063809D01*
X169430000Y-68016190D01*
X169382380Y-67920952D01*
X169382380Y-66968571D02*
X169382380Y-66873333D01*
X169430000Y-66778095D01*
X169477619Y-66730476D01*
X169572857Y-66682857D01*
X169763333Y-66635238D01*
X170001428Y-66635238D01*
X170191904Y-66682857D01*
X170287142Y-66730476D01*
X170334761Y-66778095D01*
X170382380Y-66873333D01*
X170382380Y-66968571D01*
X170334761Y-67063809D01*
X170287142Y-67111428D01*
X170191904Y-67159047D01*
X170001428Y-67206666D01*
X169763333Y-67206666D01*
X169572857Y-67159047D01*
X169477619Y-67111428D01*
X169430000Y-67063809D01*
X169382380Y-66968571D01*
X170001428Y-66206666D02*
X170001428Y-65444761D01*
X169858571Y-64635238D02*
X169858571Y-64968571D01*
X170382380Y-64968571D02*
X169382380Y-64968571D01*
X169382380Y-64492380D01*
X169858571Y-63778095D02*
X169858571Y-64111428D01*
X170382380Y-64111428D02*
X169382380Y-64111428D01*
X169382380Y-63635238D01*
X169858571Y-62920952D02*
X169858571Y-63254285D01*
X170382380Y-63254285D02*
X169382380Y-63254285D01*
X169382380Y-62778095D01*
X169858571Y-62063809D02*
X169858571Y-62397142D01*
X170382380Y-62397142D02*
X169382380Y-62397142D01*
X169382380Y-61920952D01*
X112950714Y-75096666D02*
X113426904Y-75096666D01*
X112855476Y-75382380D02*
X113188809Y-74382380D01*
X113522142Y-75382380D01*
X114284047Y-74382380D02*
X114093571Y-74382380D01*
X113998333Y-74430000D01*
X113950714Y-74477619D01*
X113855476Y-74620476D01*
X113807857Y-74810952D01*
X113807857Y-75191904D01*
X113855476Y-75287142D01*
X113903095Y-75334761D01*
X113998333Y-75382380D01*
X114188809Y-75382380D01*
X114284047Y-75334761D01*
X114331666Y-75287142D01*
X114379285Y-75191904D01*
X114379285Y-74953809D01*
X114331666Y-74858571D01*
X114284047Y-74810952D01*
X114188809Y-74763333D01*
X113998333Y-74763333D01*
X113903095Y-74810952D01*
X113855476Y-74858571D01*
X113807857Y-74953809D01*
X121142142Y-87082380D02*
X120665952Y-87082380D01*
X120618333Y-87558571D01*
X120665952Y-87510952D01*
X120761190Y-87463333D01*
X120999285Y-87463333D01*
X121094523Y-87510952D01*
X121142142Y-87558571D01*
X121189761Y-87653809D01*
X121189761Y-87891904D01*
X121142142Y-87987142D01*
X121094523Y-88034761D01*
X120999285Y-88082380D01*
X120761190Y-88082380D01*
X120665952Y-88034761D01*
X120618333Y-87987142D01*
X121523095Y-87415714D02*
X121761190Y-88082380D01*
X121999285Y-87415714D01*
X153979523Y-61317142D02*
X153931904Y-61364761D01*
X153789047Y-61412380D01*
X153693809Y-61412380D01*
X153550952Y-61364761D01*
X153455714Y-61269523D01*
X153408095Y-61174285D01*
X153360476Y-60983809D01*
X153360476Y-60840952D01*
X153408095Y-60650476D01*
X153455714Y-60555238D01*
X153550952Y-60460000D01*
X153693809Y-60412380D01*
X153789047Y-60412380D01*
X153931904Y-60460000D01*
X153979523Y-60507619D01*
X121142142Y-82002380D02*
X120665952Y-82002380D01*
X120618333Y-82478571D01*
X120665952Y-82430952D01*
X120761190Y-82383333D01*
X120999285Y-82383333D01*
X121094523Y-82430952D01*
X121142142Y-82478571D01*
X121189761Y-82573809D01*
X121189761Y-82811904D01*
X121142142Y-82907142D01*
X121094523Y-82954761D01*
X120999285Y-83002380D01*
X120761190Y-83002380D01*
X120665952Y-82954761D01*
X120618333Y-82907142D01*
X121523095Y-82335714D02*
X121761190Y-83002380D01*
X121999285Y-82335714D01*
X120777142Y-59142380D02*
X120872380Y-59142380D01*
X120967619Y-59190000D01*
X121015238Y-59237619D01*
X121062857Y-59332857D01*
X121110476Y-59523333D01*
X121110476Y-59761428D01*
X121062857Y-59951904D01*
X121015238Y-60047142D01*
X120967619Y-60094761D01*
X120872380Y-60142380D01*
X120777142Y-60142380D01*
X120681904Y-60094761D01*
X120634285Y-60047142D01*
X120586666Y-59951904D01*
X120539047Y-59761428D01*
X120539047Y-59523333D01*
X120586666Y-59332857D01*
X120634285Y-59237619D01*
X120681904Y-59190000D01*
X120777142Y-59142380D01*
X121539047Y-59761428D02*
X122300952Y-59761428D01*
X122681904Y-59142380D02*
X123300952Y-59142380D01*
X122967619Y-59523333D01*
X123110476Y-59523333D01*
X123205714Y-59570952D01*
X123253333Y-59618571D01*
X123300952Y-59713809D01*
X123300952Y-59951904D01*
X123253333Y-60047142D01*
X123205714Y-60094761D01*
X123110476Y-60142380D01*
X122824761Y-60142380D01*
X122729523Y-60094761D01*
X122681904Y-60047142D01*
X108386904Y-65222380D02*
X108053571Y-64746190D01*
X107815476Y-65222380D02*
X107815476Y-64222380D01*
X108196428Y-64222380D01*
X108291666Y-64270000D01*
X108339285Y-64317619D01*
X108386904Y-64412857D01*
X108386904Y-64555714D01*
X108339285Y-64650952D01*
X108291666Y-64698571D01*
X108196428Y-64746190D01*
X107815476Y-64746190D01*
X109005952Y-64222380D02*
X109196428Y-64222380D01*
X109291666Y-64270000D01*
X109386904Y-64365238D01*
X109434523Y-64555714D01*
X109434523Y-64889047D01*
X109386904Y-65079523D01*
X109291666Y-65174761D01*
X109196428Y-65222380D01*
X109005952Y-65222380D01*
X108910714Y-65174761D01*
X108815476Y-65079523D01*
X108767857Y-64889047D01*
X108767857Y-64555714D01*
X108815476Y-64365238D01*
X108910714Y-64270000D01*
X109005952Y-64222380D01*
X109863095Y-65222380D02*
X109863095Y-64222380D01*
X110196428Y-64936666D01*
X110529761Y-64222380D01*
X110529761Y-65222380D01*
X111577380Y-65222380D02*
X111244047Y-64746190D01*
X111005952Y-65222380D02*
X111005952Y-64222380D01*
X111386904Y-64222380D01*
X111482142Y-64270000D01*
X111529761Y-64317619D01*
X111577380Y-64412857D01*
X111577380Y-64555714D01*
X111529761Y-64650952D01*
X111482142Y-64698571D01*
X111386904Y-64746190D01*
X111005952Y-64746190D01*
X112005952Y-65222380D02*
X112005952Y-64222380D01*
X112244047Y-64222380D01*
X112386904Y-64270000D01*
X112482142Y-64365238D01*
X112529761Y-64460476D01*
X112577380Y-64650952D01*
X112577380Y-64793809D01*
X112529761Y-64984285D01*
X112482142Y-65079523D01*
X112386904Y-65174761D01*
X112244047Y-65222380D01*
X112005952Y-65222380D01*
X113529761Y-65222380D02*
X112958333Y-65222380D01*
X113244047Y-65222380D02*
X113244047Y-64222380D01*
X113148809Y-64365238D01*
X113053571Y-64460476D01*
X112958333Y-64508095D01*
X114434523Y-64222380D02*
X113958333Y-64222380D01*
X113910714Y-64698571D01*
X113958333Y-64650952D01*
X114053571Y-64603333D01*
X114291666Y-64603333D01*
X114386904Y-64650952D01*
X114434523Y-64698571D01*
X114482142Y-64793809D01*
X114482142Y-65031904D01*
X114434523Y-65127142D01*
X114386904Y-65174761D01*
X114291666Y-65222380D01*
X114053571Y-65222380D01*
X113958333Y-65174761D01*
X113910714Y-65127142D01*
X120546904Y-93162380D02*
X120546904Y-92162380D01*
X120785000Y-92162380D01*
X120927857Y-92210000D01*
X121023095Y-92305238D01*
X121070714Y-92400476D01*
X121118333Y-92590952D01*
X121118333Y-92733809D01*
X121070714Y-92924285D01*
X121023095Y-93019523D01*
X120927857Y-93114761D01*
X120785000Y-93162380D01*
X120546904Y-93162380D01*
X121975476Y-92162380D02*
X121785000Y-92162380D01*
X121689761Y-92210000D01*
X121642142Y-92257619D01*
X121546904Y-92400476D01*
X121499285Y-92590952D01*
X121499285Y-92971904D01*
X121546904Y-93067142D01*
X121594523Y-93114761D01*
X121689761Y-93162380D01*
X121880238Y-93162380D01*
X121975476Y-93114761D01*
X122023095Y-93067142D01*
X122070714Y-92971904D01*
X122070714Y-92733809D01*
X122023095Y-92638571D01*
X121975476Y-92590952D01*
X121880238Y-92543333D01*
X121689761Y-92543333D01*
X121594523Y-92590952D01*
X121546904Y-92638571D01*
X121499285Y-92733809D01*
X110871190Y-61634761D02*
X110014047Y-62920476D01*
X111204523Y-62682380D02*
X111204523Y-61682380D01*
X111537857Y-62396666D01*
X111871190Y-61682380D01*
X111871190Y-62682380D01*
X112537857Y-61682380D02*
X112728333Y-61682380D01*
X112823571Y-61730000D01*
X112918809Y-61825238D01*
X112966428Y-62015714D01*
X112966428Y-62349047D01*
X112918809Y-62539523D01*
X112823571Y-62634761D01*
X112728333Y-62682380D01*
X112537857Y-62682380D01*
X112442619Y-62634761D01*
X112347380Y-62539523D01*
X112299761Y-62349047D01*
X112299761Y-62015714D01*
X112347380Y-61825238D01*
X112442619Y-61730000D01*
X112537857Y-61682380D01*
X113728333Y-62158571D02*
X113395000Y-62158571D01*
X113395000Y-62682380D02*
X113395000Y-61682380D01*
X113871190Y-61682380D01*
X114585476Y-62158571D02*
X114252142Y-62158571D01*
X114252142Y-62682380D02*
X114252142Y-61682380D01*
X114728333Y-61682380D01*
X134572380Y-57872380D02*
X134667619Y-57872380D01*
X134762857Y-57920000D01*
X134810476Y-57967619D01*
X134858095Y-58062857D01*
X134905714Y-58253333D01*
X134905714Y-58491428D01*
X134858095Y-58681904D01*
X134810476Y-58777142D01*
X134762857Y-58824761D01*
X134667619Y-58872380D01*
X134572380Y-58872380D01*
X134477142Y-58824761D01*
X134429523Y-58777142D01*
X134381904Y-58681904D01*
X134334285Y-58491428D01*
X134334285Y-58253333D01*
X134381904Y-58062857D01*
X134429523Y-57967619D01*
X134477142Y-57920000D01*
X134572380Y-57872380D01*
X121277142Y-69350000D02*
X121181904Y-69302380D01*
X121039047Y-69302380D01*
X120896190Y-69350000D01*
X120800952Y-69445238D01*
X120753333Y-69540476D01*
X120705714Y-69730952D01*
X120705714Y-69873809D01*
X120753333Y-70064285D01*
X120800952Y-70159523D01*
X120896190Y-70254761D01*
X121039047Y-70302380D01*
X121134285Y-70302380D01*
X121277142Y-70254761D01*
X121324761Y-70207142D01*
X121324761Y-69873809D01*
X121134285Y-69873809D01*
X121753333Y-69635714D02*
X121753333Y-70302380D01*
X121753333Y-69730952D02*
X121800952Y-69683333D01*
X121896190Y-69635714D01*
X122039047Y-69635714D01*
X122134285Y-69683333D01*
X122181904Y-69778571D01*
X122181904Y-70302380D01*
X123086666Y-70302380D02*
X123086666Y-69302380D01*
X123086666Y-70254761D02*
X122991428Y-70302380D01*
X122800952Y-70302380D01*
X122705714Y-70254761D01*
X122658095Y-70207142D01*
X122610476Y-70111904D01*
X122610476Y-69826190D01*
X122658095Y-69730952D01*
X122705714Y-69683333D01*
X122800952Y-69635714D01*
X122991428Y-69635714D01*
X123086666Y-69683333D01*
X120570714Y-77636666D02*
X121046904Y-77636666D01*
X120475476Y-77922380D02*
X120808809Y-76922380D01*
X121142142Y-77922380D01*
X121523095Y-77922380D02*
X121713571Y-77922380D01*
X121808809Y-77874761D01*
X121856428Y-77827142D01*
X121951666Y-77684285D01*
X121999285Y-77493809D01*
X121999285Y-77112857D01*
X121951666Y-77017619D01*
X121904047Y-76970000D01*
X121808809Y-76922380D01*
X121618333Y-76922380D01*
X121523095Y-76970000D01*
X121475476Y-77017619D01*
X121427857Y-77112857D01*
X121427857Y-77350952D01*
X121475476Y-77446190D01*
X121523095Y-77493809D01*
X121618333Y-77541428D01*
X121808809Y-77541428D01*
X121904047Y-77493809D01*
X121951666Y-77446190D01*
X121999285Y-77350952D01*
X111839523Y-70016666D02*
X112315714Y-70016666D01*
X111744285Y-70302380D02*
X112077619Y-69302380D01*
X112410952Y-70302380D01*
X113268095Y-70302380D02*
X112696666Y-70302380D01*
X112982380Y-70302380D02*
X112982380Y-69302380D01*
X112887142Y-69445238D01*
X112791904Y-69540476D01*
X112696666Y-69588095D01*
X113649047Y-69397619D02*
X113696666Y-69350000D01*
X113791904Y-69302380D01*
X114030000Y-69302380D01*
X114125238Y-69350000D01*
X114172857Y-69397619D01*
X114220476Y-69492857D01*
X114220476Y-69588095D01*
X114172857Y-69730952D01*
X113601428Y-70302380D01*
X114220476Y-70302380D01*
X120546904Y-90622380D02*
X120546904Y-89622380D01*
X120785000Y-89622380D01*
X120927857Y-89670000D01*
X121023095Y-89765238D01*
X121070714Y-89860476D01*
X121118333Y-90050952D01*
X121118333Y-90193809D01*
X121070714Y-90384285D01*
X121023095Y-90479523D01*
X120927857Y-90574761D01*
X120785000Y-90622380D01*
X120546904Y-90622380D01*
X121451666Y-89622380D02*
X122118333Y-89622380D01*
X121689761Y-90622380D01*
X112950714Y-85256666D02*
X113426904Y-85256666D01*
X112855476Y-85542380D02*
X113188809Y-84542380D01*
X113522142Y-85542380D01*
X113807857Y-84637619D02*
X113855476Y-84590000D01*
X113950714Y-84542380D01*
X114188809Y-84542380D01*
X114284047Y-84590000D01*
X114331666Y-84637619D01*
X114379285Y-84732857D01*
X114379285Y-84828095D01*
X114331666Y-84970952D01*
X113760238Y-85542380D01*
X114379285Y-85542380D01*
X112950714Y-77636666D02*
X113426904Y-77636666D01*
X112855476Y-77922380D02*
X113188809Y-76922380D01*
X113522142Y-77922380D01*
X114331666Y-76922380D02*
X113855476Y-76922380D01*
X113807857Y-77398571D01*
X113855476Y-77350952D01*
X113950714Y-77303333D01*
X114188809Y-77303333D01*
X114284047Y-77350952D01*
X114331666Y-77398571D01*
X114379285Y-77493809D01*
X114379285Y-77731904D01*
X114331666Y-77827142D01*
X114284047Y-77874761D01*
X114188809Y-77922380D01*
X113950714Y-77922380D01*
X113855476Y-77874761D01*
X113807857Y-77827142D01*
X121015238Y-62015714D02*
X121015238Y-62682380D01*
X120777142Y-61634761D02*
X120539047Y-62349047D01*
X121158095Y-62349047D01*
X121539047Y-62301428D02*
X122300952Y-62301428D01*
X122681904Y-61682380D02*
X123348571Y-61682380D01*
X122920000Y-62682380D01*
X153574761Y-58300952D02*
X153479523Y-58253333D01*
X153431904Y-58205714D01*
X153384285Y-58110476D01*
X153384285Y-58062857D01*
X153431904Y-57967619D01*
X153479523Y-57920000D01*
X153574761Y-57872380D01*
X153765238Y-57872380D01*
X153860476Y-57920000D01*
X153908095Y-57967619D01*
X153955714Y-58062857D01*
X153955714Y-58110476D01*
X153908095Y-58205714D01*
X153860476Y-58253333D01*
X153765238Y-58300952D01*
X153574761Y-58300952D01*
X153479523Y-58348571D01*
X153431904Y-58396190D01*
X153384285Y-58491428D01*
X153384285Y-58681904D01*
X153431904Y-58777142D01*
X153479523Y-58824761D01*
X153574761Y-58872380D01*
X153765238Y-58872380D01*
X153860476Y-58824761D01*
X153908095Y-58777142D01*
X153955714Y-58681904D01*
X153955714Y-58491428D01*
X153908095Y-58396190D01*
X153860476Y-58348571D01*
X153765238Y-58300952D01*
X158443095Y-90892380D02*
X158443095Y-91701904D01*
X158490714Y-91797142D01*
X158538333Y-91844761D01*
X158633571Y-91892380D01*
X158824047Y-91892380D01*
X158919285Y-91844761D01*
X158966904Y-91797142D01*
X159014523Y-91701904D01*
X159014523Y-90892380D01*
X160014523Y-91892380D02*
X159443095Y-91892380D01*
X159728809Y-91892380D02*
X159728809Y-90892380D01*
X159633571Y-91035238D01*
X159538333Y-91130476D01*
X159443095Y-91178095D01*
X156085952Y-102112380D02*
X156752619Y-102112380D01*
X156324047Y-103112380D01*
X157562142Y-102445714D02*
X157562142Y-103112380D01*
X157324047Y-102064761D02*
X157085952Y-102779047D01*
X157705000Y-102779047D01*
X158562142Y-103112380D02*
X158085952Y-103112380D01*
X158085952Y-102112380D01*
X158847857Y-103064761D02*
X158990714Y-103112380D01*
X159228809Y-103112380D01*
X159324047Y-103064761D01*
X159371666Y-103017142D01*
X159419285Y-102921904D01*
X159419285Y-102826666D01*
X159371666Y-102731428D01*
X159324047Y-102683809D01*
X159228809Y-102636190D01*
X159038333Y-102588571D01*
X158943095Y-102540952D01*
X158895476Y-102493333D01*
X158847857Y-102398095D01*
X158847857Y-102302857D01*
X158895476Y-102207619D01*
X158943095Y-102160000D01*
X159038333Y-102112380D01*
X159276428Y-102112380D01*
X159419285Y-102160000D01*
X160371666Y-103112380D02*
X159800238Y-103112380D01*
X160085952Y-103112380D02*
X160085952Y-102112380D01*
X159990714Y-102255238D01*
X159895476Y-102350476D01*
X159800238Y-102398095D01*
X160705000Y-102112380D02*
X161324047Y-102112380D01*
X160990714Y-102493333D01*
X161133571Y-102493333D01*
X161228809Y-102540952D01*
X161276428Y-102588571D01*
X161324047Y-102683809D01*
X161324047Y-102921904D01*
X161276428Y-103017142D01*
X161228809Y-103064761D01*
X161133571Y-103112380D01*
X160847857Y-103112380D01*
X160752619Y-103064761D01*
X160705000Y-103017142D01*
X161895476Y-102540952D02*
X161800238Y-102493333D01*
X161752619Y-102445714D01*
X161705000Y-102350476D01*
X161705000Y-102302857D01*
X161752619Y-102207619D01*
X161800238Y-102160000D01*
X161895476Y-102112380D01*
X162085952Y-102112380D01*
X162181190Y-102160000D01*
X162228809Y-102207619D01*
X162276428Y-102302857D01*
X162276428Y-102350476D01*
X162228809Y-102445714D01*
X162181190Y-102493333D01*
X162085952Y-102540952D01*
X161895476Y-102540952D01*
X161800238Y-102588571D01*
X161752619Y-102636190D01*
X161705000Y-102731428D01*
X161705000Y-102921904D01*
X161752619Y-103017142D01*
X161800238Y-103064761D01*
X161895476Y-103112380D01*
X162085952Y-103112380D01*
X162181190Y-103064761D01*
X162228809Y-103017142D01*
X162276428Y-102921904D01*
X162276428Y-102731428D01*
X162228809Y-102636190D01*
X162181190Y-102588571D01*
X162085952Y-102540952D01*
X117141666Y-56602380D02*
X117141666Y-57316666D01*
X117094047Y-57459523D01*
X116998809Y-57554761D01*
X116855952Y-57602380D01*
X116760714Y-57602380D01*
X118141666Y-57602380D02*
X117570238Y-57602380D01*
X117855952Y-57602380D02*
X117855952Y-56602380D01*
X117760714Y-56745238D01*
X117665476Y-56840476D01*
X117570238Y-56888095D01*
X148998333Y-64492142D02*
X148950714Y-64539761D01*
X148807857Y-64587380D01*
X148712619Y-64587380D01*
X148569761Y-64539761D01*
X148474523Y-64444523D01*
X148426904Y-64349285D01*
X148379285Y-64158809D01*
X148379285Y-64015952D01*
X148426904Y-63825476D01*
X148474523Y-63730238D01*
X148569761Y-63635000D01*
X148712619Y-63587380D01*
X148807857Y-63587380D01*
X148950714Y-63635000D01*
X148998333Y-63682619D01*
X149379285Y-63682619D02*
X149426904Y-63635000D01*
X149522142Y-63587380D01*
X149760238Y-63587380D01*
X149855476Y-63635000D01*
X149903095Y-63682619D01*
X149950714Y-63777857D01*
X149950714Y-63873095D01*
X149903095Y-64015952D01*
X149331666Y-64587380D01*
X149950714Y-64587380D01*
X159158333Y-79732142D02*
X159110714Y-79779761D01*
X158967857Y-79827380D01*
X158872619Y-79827380D01*
X158729761Y-79779761D01*
X158634523Y-79684523D01*
X158586904Y-79589285D01*
X158539285Y-79398809D01*
X158539285Y-79255952D01*
X158586904Y-79065476D01*
X158634523Y-78970238D01*
X158729761Y-78875000D01*
X158872619Y-78827380D01*
X158967857Y-78827380D01*
X159110714Y-78875000D01*
X159158333Y-78922619D01*
X160110714Y-79827380D02*
X159539285Y-79827380D01*
X159825000Y-79827380D02*
X159825000Y-78827380D01*
X159729761Y-78970238D01*
X159634523Y-79065476D01*
X159539285Y-79113095D01*
X128143095Y-83272380D02*
X128143095Y-84081904D01*
X128190714Y-84177142D01*
X128238333Y-84224761D01*
X128333571Y-84272380D01*
X128524047Y-84272380D01*
X128619285Y-84224761D01*
X128666904Y-84177142D01*
X128714523Y-84081904D01*
X128714523Y-83272380D01*
X129619285Y-83605714D02*
X129619285Y-84272380D01*
X129381190Y-83224761D02*
X129143095Y-83939047D01*
X129762142Y-83939047D01*
X126405000Y-103017142D02*
X126357380Y-103064761D01*
X126214523Y-103112380D01*
X126119285Y-103112380D01*
X125976428Y-103064761D01*
X125881190Y-102969523D01*
X125833571Y-102874285D01*
X125785952Y-102683809D01*
X125785952Y-102540952D01*
X125833571Y-102350476D01*
X125881190Y-102255238D01*
X125976428Y-102160000D01*
X126119285Y-102112380D01*
X126214523Y-102112380D01*
X126357380Y-102160000D01*
X126405000Y-102207619D01*
X127024047Y-102636190D02*
X127024047Y-103112380D01*
X126690714Y-102112380D02*
X127024047Y-102636190D01*
X127357380Y-102112380D01*
X128119285Y-102112380D02*
X127928809Y-102112380D01*
X127833571Y-102160000D01*
X127785952Y-102207619D01*
X127690714Y-102350476D01*
X127643095Y-102540952D01*
X127643095Y-102921904D01*
X127690714Y-103017142D01*
X127738333Y-103064761D01*
X127833571Y-103112380D01*
X128024047Y-103112380D01*
X128119285Y-103064761D01*
X128166904Y-103017142D01*
X128214523Y-102921904D01*
X128214523Y-102683809D01*
X128166904Y-102588571D01*
X128119285Y-102540952D01*
X128024047Y-102493333D01*
X127833571Y-102493333D01*
X127738333Y-102540952D01*
X127690714Y-102588571D01*
X127643095Y-102683809D01*
X128595476Y-102207619D02*
X128643095Y-102160000D01*
X128738333Y-102112380D01*
X128976428Y-102112380D01*
X129071666Y-102160000D01*
X129119285Y-102207619D01*
X129166904Y-102302857D01*
X129166904Y-102398095D01*
X129119285Y-102540952D01*
X128547857Y-103112380D01*
X129166904Y-103112380D01*
X129547857Y-102207619D02*
X129595476Y-102160000D01*
X129690714Y-102112380D01*
X129928809Y-102112380D01*
X130024047Y-102160000D01*
X130071666Y-102207619D01*
X130119285Y-102302857D01*
X130119285Y-102398095D01*
X130071666Y-102540952D01*
X129500238Y-103112380D01*
X130119285Y-103112380D01*
X131024047Y-102112380D02*
X130547857Y-102112380D01*
X130500238Y-102588571D01*
X130547857Y-102540952D01*
X130643095Y-102493333D01*
X130881190Y-102493333D01*
X130976428Y-102540952D01*
X131024047Y-102588571D01*
X131071666Y-102683809D01*
X131071666Y-102921904D01*
X131024047Y-103017142D01*
X130976428Y-103064761D01*
X130881190Y-103112380D01*
X130643095Y-103112380D01*
X130547857Y-103064761D01*
X130500238Y-103017142D01*
X131928809Y-102112380D02*
X131738333Y-102112380D01*
X131643095Y-102160000D01*
X131595476Y-102207619D01*
X131500238Y-102350476D01*
X131452619Y-102540952D01*
X131452619Y-102921904D01*
X131500238Y-103017142D01*
X131547857Y-103064761D01*
X131643095Y-103112380D01*
X131833571Y-103112380D01*
X131928809Y-103064761D01*
X131976428Y-103017142D01*
X132024047Y-102921904D01*
X132024047Y-102683809D01*
X131976428Y-102588571D01*
X131928809Y-102540952D01*
X131833571Y-102493333D01*
X131643095Y-102493333D01*
X131547857Y-102540952D01*
X131500238Y-102588571D01*
X131452619Y-102683809D01*
X148523095Y-83272380D02*
X148523095Y-84081904D01*
X148570714Y-84177142D01*
X148618333Y-84224761D01*
X148713571Y-84272380D01*
X148904047Y-84272380D01*
X148999285Y-84224761D01*
X149046904Y-84177142D01*
X149094523Y-84081904D01*
X149094523Y-83272380D01*
X149523095Y-83367619D02*
X149570714Y-83320000D01*
X149665952Y-83272380D01*
X149904047Y-83272380D01*
X149999285Y-83320000D01*
X150046904Y-83367619D01*
X150094523Y-83462857D01*
X150094523Y-83558095D01*
X150046904Y-83700952D01*
X149475476Y-84272380D01*
X150094523Y-84272380D01*
X146701190Y-103017142D02*
X146653571Y-103064761D01*
X146510714Y-103112380D01*
X146415476Y-103112380D01*
X146272619Y-103064761D01*
X146177380Y-102969523D01*
X146129761Y-102874285D01*
X146082142Y-102683809D01*
X146082142Y-102540952D01*
X146129761Y-102350476D01*
X146177380Y-102255238D01*
X146272619Y-102160000D01*
X146415476Y-102112380D01*
X146510714Y-102112380D01*
X146653571Y-102160000D01*
X146701190Y-102207619D01*
X147320238Y-102636190D02*
X147320238Y-103112380D01*
X146986904Y-102112380D02*
X147320238Y-102636190D01*
X147653571Y-102112380D01*
X147891666Y-102112380D02*
X148558333Y-102112380D01*
X148129761Y-103112380D01*
X149510714Y-103017142D02*
X149463095Y-103064761D01*
X149320238Y-103112380D01*
X149225000Y-103112380D01*
X149082142Y-103064761D01*
X148986904Y-102969523D01*
X148939285Y-102874285D01*
X148891666Y-102683809D01*
X148891666Y-102540952D01*
X148939285Y-102350476D01*
X148986904Y-102255238D01*
X149082142Y-102160000D01*
X149225000Y-102112380D01*
X149320238Y-102112380D01*
X149463095Y-102160000D01*
X149510714Y-102207619D01*
X150463095Y-103112380D02*
X149891666Y-103112380D01*
X150177380Y-103112380D02*
X150177380Y-102112380D01*
X150082142Y-102255238D01*
X149986904Y-102350476D01*
X149891666Y-102398095D01*
X151034523Y-102540952D02*
X150939285Y-102493333D01*
X150891666Y-102445714D01*
X150844047Y-102350476D01*
X150844047Y-102302857D01*
X150891666Y-102207619D01*
X150939285Y-102160000D01*
X151034523Y-102112380D01*
X151225000Y-102112380D01*
X151320238Y-102160000D01*
X151367857Y-102207619D01*
X151415476Y-102302857D01*
X151415476Y-102350476D01*
X151367857Y-102445714D01*
X151320238Y-102493333D01*
X151225000Y-102540952D01*
X151034523Y-102540952D01*
X150939285Y-102588571D01*
X150891666Y-102636190D01*
X150844047Y-102731428D01*
X150844047Y-102921904D01*
X150891666Y-103017142D01*
X150939285Y-103064761D01*
X151034523Y-103112380D01*
X151225000Y-103112380D01*
X151320238Y-103064761D01*
X151367857Y-103017142D01*
X151415476Y-102921904D01*
X151415476Y-102731428D01*
X151367857Y-102636190D01*
X151320238Y-102588571D01*
X151225000Y-102540952D01*
X152320238Y-102112380D02*
X151844047Y-102112380D01*
X151796428Y-102588571D01*
X151844047Y-102540952D01*
X151939285Y-102493333D01*
X152177380Y-102493333D01*
X152272619Y-102540952D01*
X152320238Y-102588571D01*
X152367857Y-102683809D01*
X152367857Y-102921904D01*
X152320238Y-103017142D01*
X152272619Y-103064761D01*
X152177380Y-103112380D01*
X151939285Y-103112380D01*
X151844047Y-103064761D01*
X151796428Y-103017142D01*
X138303095Y-83272380D02*
X138303095Y-84081904D01*
X138350714Y-84177142D01*
X138398333Y-84224761D01*
X138493571Y-84272380D01*
X138684047Y-84272380D01*
X138779285Y-84224761D01*
X138826904Y-84177142D01*
X138874523Y-84081904D01*
X138874523Y-83272380D01*
X139255476Y-83272380D02*
X139874523Y-83272380D01*
X139541190Y-83653333D01*
X139684047Y-83653333D01*
X139779285Y-83700952D01*
X139826904Y-83748571D01*
X139874523Y-83843809D01*
X139874523Y-84081904D01*
X139826904Y-84177142D01*
X139779285Y-84224761D01*
X139684047Y-84272380D01*
X139398333Y-84272380D01*
X139303095Y-84224761D01*
X139255476Y-84177142D01*
X136565000Y-103017142D02*
X136517380Y-103064761D01*
X136374523Y-103112380D01*
X136279285Y-103112380D01*
X136136428Y-103064761D01*
X136041190Y-102969523D01*
X135993571Y-102874285D01*
X135945952Y-102683809D01*
X135945952Y-102540952D01*
X135993571Y-102350476D01*
X136041190Y-102255238D01*
X136136428Y-102160000D01*
X136279285Y-102112380D01*
X136374523Y-102112380D01*
X136517380Y-102160000D01*
X136565000Y-102207619D01*
X137184047Y-102636190D02*
X137184047Y-103112380D01*
X136850714Y-102112380D02*
X137184047Y-102636190D01*
X137517380Y-102112380D01*
X138279285Y-102112380D02*
X138088809Y-102112380D01*
X137993571Y-102160000D01*
X137945952Y-102207619D01*
X137850714Y-102350476D01*
X137803095Y-102540952D01*
X137803095Y-102921904D01*
X137850714Y-103017142D01*
X137898333Y-103064761D01*
X137993571Y-103112380D01*
X138184047Y-103112380D01*
X138279285Y-103064761D01*
X138326904Y-103017142D01*
X138374523Y-102921904D01*
X138374523Y-102683809D01*
X138326904Y-102588571D01*
X138279285Y-102540952D01*
X138184047Y-102493333D01*
X137993571Y-102493333D01*
X137898333Y-102540952D01*
X137850714Y-102588571D01*
X137803095Y-102683809D01*
X138755476Y-102207619D02*
X138803095Y-102160000D01*
X138898333Y-102112380D01*
X139136428Y-102112380D01*
X139231666Y-102160000D01*
X139279285Y-102207619D01*
X139326904Y-102302857D01*
X139326904Y-102398095D01*
X139279285Y-102540952D01*
X138707857Y-103112380D01*
X139326904Y-103112380D01*
X139707857Y-102207619D02*
X139755476Y-102160000D01*
X139850714Y-102112380D01*
X140088809Y-102112380D01*
X140184047Y-102160000D01*
X140231666Y-102207619D01*
X140279285Y-102302857D01*
X140279285Y-102398095D01*
X140231666Y-102540952D01*
X139660238Y-103112380D01*
X140279285Y-103112380D01*
X141184047Y-102112380D02*
X140707857Y-102112380D01*
X140660238Y-102588571D01*
X140707857Y-102540952D01*
X140803095Y-102493333D01*
X141041190Y-102493333D01*
X141136428Y-102540952D01*
X141184047Y-102588571D01*
X141231666Y-102683809D01*
X141231666Y-102921904D01*
X141184047Y-103017142D01*
X141136428Y-103064761D01*
X141041190Y-103112380D01*
X140803095Y-103112380D01*
X140707857Y-103064761D01*
X140660238Y-103017142D01*
X142088809Y-102112380D02*
X141898333Y-102112380D01*
X141803095Y-102160000D01*
X141755476Y-102207619D01*
X141660238Y-102350476D01*
X141612619Y-102540952D01*
X141612619Y-102921904D01*
X141660238Y-103017142D01*
X141707857Y-103064761D01*
X141803095Y-103112380D01*
X141993571Y-103112380D01*
X142088809Y-103064761D01*
X142136428Y-103017142D01*
X142184047Y-102921904D01*
X142184047Y-102683809D01*
X142136428Y-102588571D01*
X142088809Y-102540952D01*
X141993571Y-102493333D01*
X141803095Y-102493333D01*
X141707857Y-102540952D01*
X141660238Y-102588571D01*
X141612619Y-102683809D01*
X138838333Y-64492142D02*
X138790714Y-64539761D01*
X138647857Y-64587380D01*
X138552619Y-64587380D01*
X138409761Y-64539761D01*
X138314523Y-64444523D01*
X138266904Y-64349285D01*
X138219285Y-64158809D01*
X138219285Y-64015952D01*
X138266904Y-63825476D01*
X138314523Y-63730238D01*
X138409761Y-63635000D01*
X138552619Y-63587380D01*
X138647857Y-63587380D01*
X138790714Y-63635000D01*
X138838333Y-63682619D01*
X139171666Y-63587380D02*
X139790714Y-63587380D01*
X139457380Y-63968333D01*
X139600238Y-63968333D01*
X139695476Y-64015952D01*
X139743095Y-64063571D01*
X139790714Y-64158809D01*
X139790714Y-64396904D01*
X139743095Y-64492142D01*
X139695476Y-64539761D01*
X139600238Y-64587380D01*
X139314523Y-64587380D01*
X139219285Y-64539761D01*
X139171666Y-64492142D01*
X128678333Y-64492142D02*
X128630714Y-64539761D01*
X128487857Y-64587380D01*
X128392619Y-64587380D01*
X128249761Y-64539761D01*
X128154523Y-64444523D01*
X128106904Y-64349285D01*
X128059285Y-64158809D01*
X128059285Y-64015952D01*
X128106904Y-63825476D01*
X128154523Y-63730238D01*
X128249761Y-63635000D01*
X128392619Y-63587380D01*
X128487857Y-63587380D01*
X128630714Y-63635000D01*
X128678333Y-63682619D01*
X129535476Y-63920714D02*
X129535476Y-64587380D01*
X129297380Y-63539761D02*
X129059285Y-64254047D01*
X129678333Y-64254047D01*
D11*
X125673629Y-60965000D02*
X125560000Y-60965000D01*
X128326371Y-60965000D02*
G75*
G03*
X128326371Y-60965000I-1326371J0D01*
G01*
X161855000Y-101660000D02*
X161855000Y-81220000D01*
X156555000Y-81220000D02*
X156555000Y-101660000D01*
X156555000Y-101660000D02*
X161855000Y-101660000D01*
X158205000Y-81220000D02*
X156555000Y-81220000D01*
X161855000Y-81220000D02*
X160205000Y-81220000D01*
X158205000Y-81220000D02*
G75*
G03*
X160205000Y-81220000I1000000J0D01*
G01*
X114875000Y-60960000D02*
X114875000Y-101660000D01*
X114875000Y-60960000D02*
X117475000Y-60960000D01*
X120075000Y-58360000D02*
X120075000Y-101660000D01*
X114875000Y-101660000D02*
X120075000Y-101660000D01*
X114875000Y-59690000D02*
X114875000Y-58360000D01*
X117475000Y-58360000D02*
X120075000Y-58360000D01*
X117475000Y-60960000D02*
X117475000Y-58360000D01*
X114875000Y-58360000D02*
X116205000Y-58360000D01*
X151185000Y-62715000D02*
X147145000Y-62715000D01*
X147145000Y-62715000D02*
X147145000Y-65555000D01*
X151185000Y-65555000D02*
X151185000Y-62715000D01*
X147145000Y-65555000D02*
X151185000Y-65555000D01*
X151875000Y-64135000D02*
X151185000Y-64135000D01*
X146455000Y-64135000D02*
X147145000Y-64135000D01*
X128845000Y-59690000D02*
X128845000Y-57090000D01*
X131445000Y-59690000D02*
X128845000Y-59690000D01*
X131445000Y-62290000D02*
X131445000Y-59690000D01*
X128845000Y-57090000D02*
X134045000Y-57090000D01*
X131445000Y-62290000D02*
X134045000Y-62290000D01*
X128845000Y-62290000D02*
X128845000Y-60960000D01*
X130175000Y-62290000D02*
X128845000Y-62290000D01*
X134045000Y-62290000D02*
X134045000Y-57090000D01*
X147895000Y-59690000D02*
X147895000Y-57090000D01*
X149225000Y-62290000D02*
X147895000Y-62290000D01*
X150495000Y-62290000D02*
X150495000Y-59690000D01*
X150495000Y-62290000D02*
X153095000Y-62290000D01*
X147895000Y-62290000D02*
X147895000Y-60960000D01*
X150495000Y-59690000D02*
X147895000Y-59690000D01*
X153095000Y-62290000D02*
X153095000Y-57090000D01*
X147895000Y-57090000D02*
X153095000Y-57090000D01*
X157305000Y-77955000D02*
X157305000Y-80795000D01*
X157305000Y-80795000D02*
X161345000Y-80795000D01*
X161345000Y-80795000D02*
X161345000Y-77955000D01*
X156615000Y-79375000D02*
X157305000Y-79375000D01*
X161345000Y-77955000D02*
X157305000Y-77955000D01*
X162035000Y-79375000D02*
X161345000Y-79375000D01*
X131555000Y-65980000D02*
X129905000Y-65980000D01*
X126255000Y-65980000D02*
X126255000Y-101660000D01*
X126255000Y-101660000D02*
X131555000Y-101660000D01*
X127905000Y-65980000D02*
X126255000Y-65980000D01*
X131555000Y-101660000D02*
X131555000Y-65980000D01*
X127905000Y-65980000D02*
G75*
G03*
X129905000Y-65980000I1000000J0D01*
G01*
X144723629Y-58420000D02*
X144610000Y-58420000D01*
X147376371Y-58420000D02*
G75*
G03*
X147376371Y-58420000I-1326371J0D01*
G01*
X146575000Y-65980000D02*
X146575000Y-101660000D01*
X151875000Y-65980000D02*
X150225000Y-65980000D01*
X146575000Y-101660000D02*
X151875000Y-101660000D01*
X148225000Y-65980000D02*
X146575000Y-65980000D01*
X151875000Y-101660000D02*
X151875000Y-65980000D01*
X148225000Y-65980000D02*
G75*
G03*
X150225000Y-65980000I1000000J0D01*
G01*
X141715000Y-101660000D02*
X141715000Y-65980000D01*
X138065000Y-65980000D02*
X136415000Y-65980000D01*
X136415000Y-101660000D02*
X141715000Y-101660000D01*
X136415000Y-65980000D02*
X136415000Y-101660000D01*
X141715000Y-65980000D02*
X140065000Y-65980000D01*
X138065000Y-65980000D02*
G75*
G03*
X140065000Y-65980000I1000000J0D01*
G01*
X125673629Y-58425000D02*
X125560000Y-58425000D01*
X128326371Y-58425000D02*
G75*
G03*
X128326371Y-58425000I-1326371J0D01*
G01*
X141025000Y-62715000D02*
X136985000Y-62715000D01*
X136985000Y-62715000D02*
X136985000Y-65555000D01*
X136295000Y-64135000D02*
X136985000Y-64135000D01*
X136985000Y-65555000D02*
X141025000Y-65555000D01*
X141715000Y-64135000D02*
X141025000Y-64135000D01*
X141025000Y-65555000D02*
X141025000Y-62715000D01*
X126135000Y-64135000D02*
X126825000Y-64135000D01*
X130865000Y-62715000D02*
X126825000Y-62715000D01*
X131555000Y-64135000D02*
X130865000Y-64135000D01*
X126825000Y-62715000D02*
X126825000Y-65555000D01*
X126825000Y-65555000D02*
X130865000Y-65555000D01*
X130865000Y-65555000D02*
X130865000Y-62715000D01*
G36*
X166450622Y-94520863D02*
G01*
X166522574Y-94521006D01*
X166587074Y-94521230D01*
X166642329Y-94521527D01*
X166686546Y-94521883D01*
X166717930Y-94522290D01*
X166734690Y-94522736D01*
X166737030Y-94522983D01*
X166732347Y-94530565D01*
X166719881Y-94549208D01*
X166701776Y-94575730D01*
X166688755Y-94594600D01*
X166618675Y-94710690D01*
X166562275Y-94836294D01*
X166520608Y-94969007D01*
X166515648Y-94989576D01*
X166500563Y-95054682D01*
X166178359Y-95378056D01*
X165856154Y-95701431D01*
X165812722Y-95696581D01*
X165786377Y-95693603D01*
X165748232Y-95689246D01*
X165703732Y-95684132D01*
X165665120Y-95679673D01*
X165611411Y-95673604D01*
X165551621Y-95667082D01*
X165494705Y-95661075D01*
X165465462Y-95658100D01*
X165422796Y-95653713D01*
X165383163Y-95649397D01*
X165351815Y-95645735D01*
X165337420Y-95643848D01*
X165304867Y-95639109D01*
X165304867Y-94852209D01*
X165337420Y-94847471D01*
X165359651Y-94844636D01*
X165393914Y-94840734D01*
X165434954Y-94836346D01*
X165465462Y-94833243D01*
X165517369Y-94827851D01*
X165577018Y-94821295D01*
X165634929Y-94814631D01*
X165660780Y-94811525D01*
X165710838Y-94805727D01*
X165764312Y-94800072D01*
X165813277Y-94795378D01*
X165837320Y-94793352D01*
X165873289Y-94789562D01*
X165900435Y-94784736D01*
X165915136Y-94779582D01*
X165916677Y-94777812D01*
X165924428Y-94752087D01*
X165936049Y-94716292D01*
X165949895Y-94675206D01*
X165964318Y-94633603D01*
X165977674Y-94596261D01*
X165988315Y-94567956D01*
X165992531Y-94557706D01*
X166008824Y-94520813D01*
X166373011Y-94520813D01*
X166450622Y-94520863D01*
G37*
G36*
X169015835Y-93326236D02*
G01*
X169035309Y-93342357D01*
X169065294Y-93369466D01*
X169105004Y-93406821D01*
X169153655Y-93453680D01*
X169210463Y-93509303D01*
X169274643Y-93572947D01*
X169296337Y-93594614D01*
X169575908Y-93874283D01*
X169453599Y-94026102D01*
X169417347Y-94071078D01*
X169384046Y-94112347D01*
X169355486Y-94147694D01*
X169333456Y-94174906D01*
X169319745Y-94191769D01*
X169316832Y-94195314D01*
X169305249Y-94209492D01*
X169286016Y-94233288D01*
X169262318Y-94262752D01*
X169248208Y-94280353D01*
X169194045Y-94348000D01*
X169232326Y-94423556D01*
X169252184Y-94463486D01*
X169271928Y-94504420D01*
X169288220Y-94539399D01*
X169292591Y-94549180D01*
X169314575Y-94599249D01*
X169058269Y-94855993D01*
X169003448Y-94910723D01*
X168952451Y-94961278D01*
X168906568Y-95006405D01*
X168867090Y-95044854D01*
X168835304Y-95075370D01*
X168812503Y-95096703D01*
X168799976Y-95107598D01*
X168797957Y-95108731D01*
X168794624Y-95098713D01*
X168789860Y-95076489D01*
X168785102Y-95049321D01*
X168755751Y-94920007D01*
X168709530Y-94792822D01*
X168646905Y-94668967D01*
X168619601Y-94624115D01*
X168577526Y-94558142D01*
X168577937Y-94111949D01*
X168578347Y-93665755D01*
X168627643Y-93626691D01*
X168654886Y-93605039D01*
X168678910Y-93585833D01*
X168694508Y-93573237D01*
X168708210Y-93562123D01*
X168732100Y-93542852D01*
X168763769Y-93517360D01*
X168800806Y-93487582D01*
X168840801Y-93455453D01*
X168881344Y-93422907D01*
X168920025Y-93391879D01*
X168954434Y-93364304D01*
X168982160Y-93342117D01*
X169000794Y-93327254D01*
X169007656Y-93321843D01*
X169015835Y-93326236D01*
G37*
G36*
X167317170Y-95764521D02*
G01*
X167238627Y-95719085D01*
X167164349Y-95659297D01*
X167144742Y-95640635D01*
X167079793Y-95567373D01*
X167029972Y-95489009D01*
X166993108Y-95401918D01*
X166983691Y-95371607D01*
X166973276Y-95333112D01*
X166966919Y-95301721D01*
X166963961Y-95271102D01*
X166963736Y-95234920D01*
X166964277Y-95220236D01*
X167131305Y-95220236D01*
X167135451Y-95275614D01*
X167149245Y-95326922D01*
X167157067Y-95344236D01*
X167195970Y-95401433D01*
X167248330Y-95451287D01*
X167310999Y-95491522D01*
X167380827Y-95519859D01*
X167410233Y-95527389D01*
X167439636Y-95533720D01*
X167464802Y-95539227D01*
X167472895Y-95541038D01*
X167492427Y-95545477D01*
X167492378Y-95308760D01*
X167492044Y-95242539D01*
X167491122Y-95181517D01*
X167489695Y-95128191D01*
X167487846Y-95085057D01*
X167485656Y-95054613D01*
X167483536Y-95040383D01*
X167468391Y-95008810D01*
X167442702Y-94988602D01*
X167404768Y-94978771D01*
X167375236Y-94977443D01*
X167313517Y-94986417D01*
X167256158Y-95011079D01*
X167205575Y-95049868D01*
X167164184Y-95101218D01*
X167152458Y-95121598D01*
X167136932Y-95166870D01*
X167131305Y-95220236D01*
X166964277Y-95220236D01*
X166965209Y-95194906D01*
X166972002Y-95118920D01*
X166985862Y-95053820D01*
X167008449Y-94993995D01*
X167041419Y-94933833D01*
X167043214Y-94930964D01*
X167094327Y-94865535D01*
X167158467Y-94809696D01*
X167233253Y-94765034D01*
X167316304Y-94733140D01*
X167353534Y-94723838D01*
X167396089Y-94717327D01*
X167444630Y-94713834D01*
X167494999Y-94713225D01*
X167543038Y-94715367D01*
X167584590Y-94720124D01*
X167615497Y-94727364D01*
X167626905Y-94732645D01*
X167648681Y-94746914D01*
X167648681Y-95545147D01*
X167685575Y-95544842D01*
X167768333Y-95536327D01*
X167845712Y-95512999D01*
X167915660Y-95476083D01*
X167976123Y-95426803D01*
X168025049Y-95366383D01*
X168045690Y-95330080D01*
X168059478Y-95301604D01*
X168068715Y-95279222D01*
X168074312Y-95258174D01*
X168077181Y-95233698D01*
X168078233Y-95201034D01*
X168078380Y-95159315D01*
X168078056Y-95113498D01*
X168076620Y-95080486D01*
X168073375Y-95055726D01*
X168067626Y-95034668D01*
X168058676Y-95012758D01*
X168054626Y-95003977D01*
X168034771Y-94967971D01*
X168007265Y-94926253D01*
X167976290Y-94884548D01*
X167946027Y-94848582D01*
X167927417Y-94829806D01*
X167913128Y-94812147D01*
X167911219Y-94793626D01*
X167922277Y-94770981D01*
X167942542Y-94745791D01*
X167975979Y-94708112D01*
X168025656Y-94738164D01*
X168106246Y-94796504D01*
X168174289Y-94865979D01*
X168228702Y-94945265D01*
X168268405Y-95033035D01*
X168269994Y-95037651D01*
X168281109Y-95073664D01*
X168288480Y-95107324D01*
X168292992Y-95144504D01*
X168295533Y-95191075D01*
X168296126Y-95210936D01*
X168296519Y-95256899D01*
X168295520Y-95301299D01*
X168293331Y-95338559D01*
X168290755Y-95360052D01*
X168272088Y-95431017D01*
X168242187Y-95504598D01*
X168204074Y-95573495D01*
X168199647Y-95580268D01*
X168143628Y-95649169D01*
X168074762Y-95707929D01*
X167994683Y-95755991D01*
X167905020Y-95792796D01*
X167807408Y-95817785D01*
X167703477Y-95830399D01*
X167594859Y-95830080D01*
X167501108Y-95819395D01*
X167492427Y-95817436D01*
X167403491Y-95797370D01*
X167317170Y-95764521D01*
G37*
G36*
X166491601Y-95379284D02*
G01*
X166496453Y-95399017D01*
X166498664Y-95412765D01*
X166505141Y-95448693D01*
X166515772Y-95495266D01*
X166529030Y-95546721D01*
X166543387Y-95597298D01*
X166557316Y-95641235D01*
X166564578Y-95661360D01*
X166586823Y-95713103D01*
X166615198Y-95770849D01*
X166645761Y-95826961D01*
X166673083Y-95871575D01*
X166702475Y-95915877D01*
X166702475Y-96836588D01*
X166681991Y-96850010D01*
X166662040Y-96864403D01*
X166649438Y-96875043D01*
X166638665Y-96884351D01*
X166617006Y-96902276D01*
X166587155Y-96926617D01*
X166551803Y-96955172D01*
X166533199Y-96970105D01*
X166491657Y-97003419D01*
X166449937Y-97036936D01*
X166412214Y-97067298D01*
X166382662Y-97091147D01*
X166376208Y-97096373D01*
X166346827Y-97119856D01*
X166319078Y-97141473D01*
X166298627Y-97156815D01*
X166297494Y-97157626D01*
X166271602Y-97176063D01*
X165713540Y-96617225D01*
X165754436Y-96563961D01*
X165771380Y-96542255D01*
X165796852Y-96510076D01*
X165828493Y-96470363D01*
X165863943Y-96426053D01*
X165900845Y-96380085D01*
X165936837Y-96335397D01*
X165969561Y-96294926D01*
X165996657Y-96261611D01*
X166015766Y-96238391D01*
X166018318Y-96235340D01*
X166031992Y-96218623D01*
X166051099Y-96194750D01*
X166063454Y-96179119D01*
X166093942Y-96140330D01*
X166060960Y-96079290D01*
X166040444Y-96039437D01*
X166018224Y-95993376D01*
X165999075Y-95951006D01*
X165998898Y-95950594D01*
X165969817Y-95882938D01*
X166225411Y-95627235D01*
X166280287Y-95572475D01*
X166331411Y-95521729D01*
X166377474Y-95476277D01*
X166417168Y-95437397D01*
X166449185Y-95406368D01*
X166472216Y-95384467D01*
X166484953Y-95372975D01*
X166487038Y-95371531D01*
X166491601Y-95379284D01*
G37*
G36*
X168042529Y-92938739D02*
G01*
X168045364Y-92960970D01*
X168049266Y-92995232D01*
X168053654Y-93036273D01*
X168056757Y-93066780D01*
X168062149Y-93118688D01*
X168068705Y-93178336D01*
X168075369Y-93236247D01*
X168078475Y-93262098D01*
X168084273Y-93312157D01*
X168089928Y-93365631D01*
X168094622Y-93414596D01*
X168096648Y-93438638D01*
X168100436Y-93474589D01*
X168105262Y-93501741D01*
X168110413Y-93516464D01*
X168112188Y-93518017D01*
X168144643Y-93527764D01*
X168186966Y-93541457D01*
X168232770Y-93556946D01*
X168275666Y-93572083D01*
X168301911Y-93581844D01*
X168360506Y-93604397D01*
X168360506Y-93967116D01*
X168360415Y-94044573D01*
X168360156Y-94116375D01*
X168359748Y-94180722D01*
X168359211Y-94235817D01*
X168358563Y-94279863D01*
X168357825Y-94311060D01*
X168357016Y-94327613D01*
X168356582Y-94329836D01*
X168348113Y-94325214D01*
X168329212Y-94312968D01*
X168303602Y-94295526D01*
X168297471Y-94291258D01*
X168224605Y-94245095D01*
X168144100Y-94202134D01*
X168064711Y-94166980D01*
X168052338Y-94162255D01*
X168013143Y-94148686D01*
X167969289Y-94135121D01*
X167925114Y-94122726D01*
X167884955Y-94112663D01*
X167853149Y-94106097D01*
X167835809Y-94104135D01*
X167824983Y-94097999D01*
X167802569Y-94079557D01*
X167768513Y-94048758D01*
X167722761Y-94005550D01*
X167665258Y-93949882D01*
X167595950Y-93881702D01*
X167514783Y-93800959D01*
X167502442Y-93788621D01*
X167187016Y-93473106D01*
X167192576Y-93421857D01*
X167195882Y-93392032D01*
X167200542Y-93350859D01*
X167205885Y-93304230D01*
X167210261Y-93266438D01*
X167216358Y-93212732D01*
X167222902Y-93152945D01*
X167228922Y-93096031D01*
X167231900Y-93066780D01*
X167236287Y-93024115D01*
X167240603Y-92984482D01*
X167244265Y-92953133D01*
X167246152Y-92938739D01*
X167250891Y-92906186D01*
X168037791Y-92906186D01*
X168042529Y-92938739D01*
G37*
G36*
X169251558Y-96216166D02*
G01*
X169272902Y-96241448D01*
X169296459Y-96270196D01*
X169303595Y-96279102D01*
X169317331Y-96296299D01*
X169339827Y-96324375D01*
X169368961Y-96360683D01*
X169402607Y-96402576D01*
X169438643Y-96447407D01*
X169446060Y-96456630D01*
X169480679Y-96499697D01*
X169511793Y-96538452D01*
X169537690Y-96570755D01*
X169556657Y-96594471D01*
X169566981Y-96607461D01*
X169568157Y-96608974D01*
X169563764Y-96617153D01*
X169547643Y-96636628D01*
X169520534Y-96666612D01*
X169483179Y-96706322D01*
X169436320Y-96754974D01*
X169380697Y-96811782D01*
X169317053Y-96875962D01*
X169295386Y-96897656D01*
X169015717Y-97177226D01*
X168863898Y-97054918D01*
X168818922Y-97018665D01*
X168777653Y-96985364D01*
X168742306Y-96956804D01*
X168715094Y-96934774D01*
X168698231Y-96921064D01*
X168694686Y-96918150D01*
X168680508Y-96906567D01*
X168656712Y-96887334D01*
X168627248Y-96863637D01*
X168609647Y-96849527D01*
X168542000Y-96795363D01*
X168466444Y-96833645D01*
X168426217Y-96853639D01*
X168384696Y-96873644D01*
X168348989Y-96890254D01*
X168339176Y-96894636D01*
X168287463Y-96917347D01*
X168033178Y-96663171D01*
X167978573Y-96608446D01*
X167927987Y-96557469D01*
X167882702Y-96511555D01*
X167843999Y-96472015D01*
X167813163Y-96440164D01*
X167791474Y-96417313D01*
X167780216Y-96404776D01*
X167778893Y-96402823D01*
X167786527Y-96397665D01*
X167805466Y-96392586D01*
X167811446Y-96391542D01*
X167943415Y-96363410D01*
X168069660Y-96321769D01*
X168187138Y-96267745D01*
X168258462Y-96225810D01*
X168317644Y-96187525D01*
X169226787Y-96187525D01*
X169251558Y-96216166D01*
G37*
G36*
X166942492Y-96166507D02*
G01*
X166964321Y-96181437D01*
X166991311Y-96200157D01*
X166993796Y-96201892D01*
X167062943Y-96245642D01*
X167140439Y-96287139D01*
X167217436Y-96321745D01*
X167236343Y-96329064D01*
X167272061Y-96341437D01*
X167313303Y-96354308D01*
X167355759Y-96366496D01*
X167395119Y-96376820D01*
X167427073Y-96384100D01*
X167447311Y-96387156D01*
X167448532Y-96387184D01*
X167458052Y-96393204D01*
X167478154Y-96410326D01*
X167507439Y-96437138D01*
X167544505Y-96472228D01*
X167587954Y-96514187D01*
X167636385Y-96561604D01*
X167688400Y-96613066D01*
X167742597Y-96667164D01*
X167797578Y-96722487D01*
X167851943Y-96777623D01*
X167904292Y-96831162D01*
X167953225Y-96881693D01*
X167997343Y-96927804D01*
X168035246Y-96968086D01*
X168065534Y-97001126D01*
X168086807Y-97025515D01*
X168097666Y-97039841D01*
X168098782Y-97042627D01*
X168096805Y-97064226D01*
X168094464Y-97085987D01*
X168085458Y-97163921D01*
X168078164Y-97227508D01*
X168072261Y-97279643D01*
X168067427Y-97323221D01*
X168063340Y-97361136D01*
X168059678Y-97396284D01*
X168056820Y-97424538D01*
X168052417Y-97467203D01*
X168048088Y-97506835D01*
X168044419Y-97538184D01*
X168042529Y-97552580D01*
X168037791Y-97585133D01*
X167250891Y-97585133D01*
X167246152Y-97552580D01*
X167243318Y-97530349D01*
X167239415Y-97496086D01*
X167235027Y-97455046D01*
X167231925Y-97424538D01*
X167226532Y-97372631D01*
X167219977Y-97312982D01*
X167213313Y-97255071D01*
X167210207Y-97229220D01*
X167204408Y-97179162D01*
X167198754Y-97125688D01*
X167194060Y-97076723D01*
X167192034Y-97052680D01*
X167188244Y-97016711D01*
X167183417Y-96989565D01*
X167178264Y-96974864D01*
X167176493Y-96973323D01*
X167150768Y-96965572D01*
X167114974Y-96953951D01*
X167073887Y-96940105D01*
X167032284Y-96925682D01*
X166994942Y-96912326D01*
X166966637Y-96901685D01*
X166956388Y-96897469D01*
X166919495Y-96881176D01*
X166919495Y-96516477D01*
X166919591Y-96424355D01*
X166919906Y-96348320D01*
X166920478Y-96287099D01*
X166921346Y-96239418D01*
X166922548Y-96204004D01*
X166924123Y-96179584D01*
X166926110Y-96164883D01*
X166928546Y-96158629D01*
X166930346Y-96158462D01*
X166942492Y-96166507D01*
G37*
G36*
X169472204Y-94794239D02*
G01*
X169500214Y-94797435D01*
X169539812Y-94801982D01*
X169585338Y-94807228D01*
X169623562Y-94811646D01*
X169677271Y-94817715D01*
X169737060Y-94824236D01*
X169793977Y-94830244D01*
X169823220Y-94833218D01*
X169865885Y-94837606D01*
X169905518Y-94841922D01*
X169936867Y-94845583D01*
X169951261Y-94847471D01*
X169983814Y-94852209D01*
X169983814Y-95639109D01*
X169951261Y-95643848D01*
X169929030Y-95646682D01*
X169894768Y-95650585D01*
X169853727Y-95654973D01*
X169823220Y-95658075D01*
X169771312Y-95663468D01*
X169711664Y-95670023D01*
X169653753Y-95676687D01*
X169627902Y-95679793D01*
X169577843Y-95685592D01*
X169524369Y-95691246D01*
X169475404Y-95695940D01*
X169451362Y-95697966D01*
X169415393Y-95701756D01*
X169388247Y-95706583D01*
X169373545Y-95711736D01*
X169372004Y-95713507D01*
X169364254Y-95739232D01*
X169352632Y-95775026D01*
X169338787Y-95816113D01*
X169324363Y-95857716D01*
X169311008Y-95895058D01*
X169300367Y-95923363D01*
X169296151Y-95933612D01*
X169279858Y-95970505D01*
X168915158Y-95970505D01*
X168823036Y-95970409D01*
X168747002Y-95970094D01*
X168685781Y-95969522D01*
X168638100Y-95968654D01*
X168602686Y-95967452D01*
X168578265Y-95965877D01*
X168563565Y-95963890D01*
X168557310Y-95961454D01*
X168557143Y-95959654D01*
X168565189Y-95947508D01*
X168580119Y-95925679D01*
X168598838Y-95898689D01*
X168600574Y-95896204D01*
X168644323Y-95827057D01*
X168685821Y-95749561D01*
X168720426Y-95672564D01*
X168727745Y-95653657D01*
X168740119Y-95617939D01*
X168752990Y-95576697D01*
X168765177Y-95534241D01*
X168775502Y-95494881D01*
X168782782Y-95462927D01*
X168785837Y-95442689D01*
X168785865Y-95441468D01*
X168791842Y-95432876D01*
X168809008Y-95413264D01*
X168836216Y-95383826D01*
X168872318Y-95345760D01*
X168916168Y-95300260D01*
X168966618Y-95248523D01*
X169022520Y-95191745D01*
X169082728Y-95131120D01*
X169105441Y-95108380D01*
X169425016Y-94788892D01*
X169472204Y-94794239D01*
G37*
G36*
X166290655Y-93329441D02*
G01*
X166311371Y-93345971D01*
X166340735Y-93369477D01*
X166376313Y-93398001D01*
X166415668Y-93429587D01*
X166456363Y-93462277D01*
X166495962Y-93494115D01*
X166532029Y-93523143D01*
X166562128Y-93547405D01*
X166583821Y-93564944D01*
X166593995Y-93573237D01*
X166608179Y-93584795D01*
X166631974Y-93604004D01*
X166661426Y-93627678D01*
X166678917Y-93641697D01*
X166746447Y-93695766D01*
X166839481Y-93649272D01*
X166879476Y-93629689D01*
X166917103Y-93611983D01*
X166947804Y-93598259D01*
X166965341Y-93591190D01*
X166998166Y-93579603D01*
X167249637Y-93830962D01*
X167303923Y-93885357D01*
X167354185Y-93935977D01*
X167399133Y-93981504D01*
X167437478Y-94020619D01*
X167467931Y-94052007D01*
X167489202Y-94074348D01*
X167500003Y-94086326D01*
X167501108Y-94087959D01*
X167494224Y-94095482D01*
X167487376Y-94098866D01*
X167467365Y-94103242D01*
X167454288Y-94104135D01*
X167432138Y-94106813D01*
X167397975Y-94114066D01*
X167356170Y-94124725D01*
X167311092Y-94137619D01*
X167267113Y-94151580D01*
X167236343Y-94162471D01*
X167162207Y-94192901D01*
X167095571Y-94226476D01*
X167029904Y-94266012D01*
X166971038Y-94303793D01*
X166061895Y-94303793D01*
X166037123Y-94275153D01*
X166015779Y-94249888D01*
X165992197Y-94221154D01*
X165985018Y-94212217D01*
X165971504Y-94195342D01*
X165949119Y-94167483D01*
X165919896Y-94131166D01*
X165885870Y-94088919D01*
X165849073Y-94043267D01*
X165835230Y-94026102D01*
X165712774Y-93874283D01*
X165992344Y-93594614D01*
X166058691Y-93528588D01*
X166117914Y-93470350D01*
X166169228Y-93420641D01*
X166211850Y-93380202D01*
X166244993Y-93349774D01*
X166267875Y-93330099D01*
X166279709Y-93321919D01*
X166281026Y-93321843D01*
X166290655Y-93329441D01*
G37*
X144723629Y-60960000D02*
X144610000Y-60960000D01*
X147376371Y-60960000D02*
G75*
G03*
X147376371Y-60960000I-1326371J0D01*
G01*
%LPC*%
D12*
X124460000Y-60965000D03*
D13*
X127000000Y-60965000D03*
D12*
X155395000Y-82550000D03*
D13*
X155395000Y-85090000D03*
X155395000Y-87630000D03*
X155395000Y-90170000D03*
X155395000Y-92710000D03*
X155395000Y-95250000D03*
X155395000Y-97790000D03*
X155395000Y-100330000D03*
X163015000Y-100330000D03*
X163015000Y-97790000D03*
X163015000Y-95250000D03*
X163015000Y-92710000D03*
X163015000Y-90170000D03*
X163015000Y-87630000D03*
X163015000Y-85090000D03*
X163015000Y-82550000D03*
D14*
X168275000Y-58420000D03*
D15*
X116205000Y-59690000D03*
D16*
X118745000Y-59690000D03*
X116205000Y-62230000D03*
X118745000Y-62230000D03*
X116205000Y-64770000D03*
X118745000Y-64770000D03*
X116205000Y-67310000D03*
X118745000Y-67310000D03*
X116205000Y-69850000D03*
X118745000Y-69850000D03*
X116205000Y-72390000D03*
X118745000Y-72390000D03*
X116205000Y-74930000D03*
X118745000Y-74930000D03*
X116205000Y-77470000D03*
X118745000Y-77470000D03*
X116205000Y-80010000D03*
X118745000Y-80010000D03*
X116205000Y-82550000D03*
X118745000Y-82550000D03*
X116205000Y-85090000D03*
X118745000Y-85090000D03*
X116205000Y-87630000D03*
X118745000Y-87630000D03*
X116205000Y-90170000D03*
X118745000Y-90170000D03*
X116205000Y-92710000D03*
X118745000Y-92710000D03*
X116205000Y-95250000D03*
X118745000Y-95250000D03*
X116205000Y-97790000D03*
X118745000Y-97790000D03*
X116205000Y-100330000D03*
X118745000Y-100330000D03*
D17*
X152915000Y-64135000D03*
D13*
X145415000Y-64135000D03*
D15*
X130175000Y-60960000D03*
D16*
X130175000Y-58420000D03*
X132715000Y-60960000D03*
X132715000Y-58420000D03*
D15*
X149225000Y-60960000D03*
D16*
X149225000Y-58420000D03*
X151765000Y-60960000D03*
X151765000Y-58420000D03*
D17*
X163075000Y-79375000D03*
D13*
X155575000Y-79375000D03*
D12*
X125095000Y-67310000D03*
D13*
X125095000Y-69850000D03*
X125095000Y-72390000D03*
X125095000Y-74930000D03*
X125095000Y-77470000D03*
X125095000Y-80010000D03*
X125095000Y-82550000D03*
X125095000Y-85090000D03*
X125095000Y-87630000D03*
X125095000Y-90170000D03*
X125095000Y-92710000D03*
X125095000Y-95250000D03*
X125095000Y-97790000D03*
X125095000Y-100330000D03*
X132715000Y-100330000D03*
X132715000Y-97790000D03*
X132715000Y-95250000D03*
X132715000Y-92710000D03*
X132715000Y-90170000D03*
X132715000Y-87630000D03*
X132715000Y-85090000D03*
X132715000Y-82550000D03*
X132715000Y-80010000D03*
X132715000Y-77470000D03*
X132715000Y-74930000D03*
X132715000Y-72390000D03*
X132715000Y-69850000D03*
X132715000Y-67310000D03*
D12*
X143510000Y-58420000D03*
D13*
X146050000Y-58420000D03*
D12*
X145415000Y-67310000D03*
D13*
X145415000Y-69850000D03*
X145415000Y-72390000D03*
X145415000Y-74930000D03*
X145415000Y-77470000D03*
X145415000Y-80010000D03*
X145415000Y-82550000D03*
X145415000Y-85090000D03*
X145415000Y-87630000D03*
X145415000Y-90170000D03*
X145415000Y-92710000D03*
X145415000Y-95250000D03*
X145415000Y-97790000D03*
X145415000Y-100330000D03*
X153035000Y-100330000D03*
X153035000Y-97790000D03*
X153035000Y-95250000D03*
X153035000Y-92710000D03*
X153035000Y-90170000D03*
X153035000Y-87630000D03*
X153035000Y-85090000D03*
X153035000Y-82550000D03*
X153035000Y-80010000D03*
X153035000Y-77470000D03*
X153035000Y-74930000D03*
X153035000Y-72390000D03*
X153035000Y-69850000D03*
X153035000Y-67310000D03*
D12*
X135255000Y-67310000D03*
D13*
X135255000Y-69850000D03*
X135255000Y-72390000D03*
X135255000Y-74930000D03*
X135255000Y-77470000D03*
X135255000Y-80010000D03*
X135255000Y-82550000D03*
X135255000Y-85090000D03*
X135255000Y-87630000D03*
X135255000Y-90170000D03*
X135255000Y-92710000D03*
X135255000Y-95250000D03*
X135255000Y-97790000D03*
X135255000Y-100330000D03*
X142875000Y-100330000D03*
X142875000Y-97790000D03*
X142875000Y-95250000D03*
X142875000Y-92710000D03*
X142875000Y-90170000D03*
X142875000Y-87630000D03*
X142875000Y-85090000D03*
X142875000Y-82550000D03*
X142875000Y-80010000D03*
X142875000Y-77470000D03*
X142875000Y-74930000D03*
X142875000Y-72390000D03*
X142875000Y-69850000D03*
X142875000Y-67310000D03*
D14*
X168275000Y-100330000D03*
D12*
X124460000Y-58425000D03*
D13*
X127000000Y-58425000D03*
D14*
X109855000Y-100330000D03*
D17*
X142755000Y-64135000D03*
D13*
X135255000Y-64135000D03*
D17*
X132595000Y-64135000D03*
D13*
X125095000Y-64135000D03*
D14*
X109855000Y-58420000D03*
D12*
X143510000Y-60960000D03*
D13*
X146050000Y-60960000D03*
M02*
