M48
; DRILL file {KiCad (6.0.0)} date Wed Nov  9 00:35:20 2022
; FORMAT={-:-/ absolute / metric / decimal}
; #@! TF.CreationDate,2022-11-09T00:35:20-05:00
; #@! TF.GenerationSoftware,Kicad,Pcbnew,(6.0.0)
; #@! TF.FileFunction,Plated,1,2,PTH
FMAT,2
METRIC
; #@! TA.AperFunction,Plated,PTH,ViaDrill
T1C0.400
; #@! TA.AperFunction,Plated,PTH,ComponentDrill
T2C0.800
; #@! TA.AperFunction,Plated,PTH,ComponentDrill
T3C1.000
%
G90
G05
T1
X118.745Y-57.15
X121.285Y-69.85
X121.92Y-58.42
X121.92Y-67.31
X123.19Y-68.58
X129.54Y-82.55
X137.795Y-58.42
X137.795Y-61.595
X138.43Y-81.915
X139.7Y-57.15
X139.7Y-62.865
X149.225Y-82.55
X151.13Y-64.135
X151.765Y-71.12
X151.765Y-81.28
X154.305Y-59.69
X154.305Y-66.04
X154.305Y-76.2
X161.925Y-88.9
T2
X124.46Y-58.425
X124.46Y-60.965
X125.095Y-64.135
X125.095Y-67.31
X125.095Y-69.85
X125.095Y-72.39
X125.095Y-74.93
X125.095Y-77.47
X125.095Y-80.01
X125.095Y-82.55
X125.095Y-85.09
X125.095Y-87.63
X125.095Y-90.17
X125.095Y-92.71
X125.095Y-95.25
X125.095Y-97.79
X125.095Y-100.33
X127.0Y-58.425
X127.0Y-60.965
X132.595Y-64.135
X132.715Y-67.31
X132.715Y-69.85
X132.715Y-72.39
X132.715Y-74.93
X132.715Y-77.47
X132.715Y-80.01
X132.715Y-82.55
X132.715Y-85.09
X132.715Y-87.63
X132.715Y-90.17
X132.715Y-92.71
X132.715Y-95.25
X132.715Y-97.79
X132.715Y-100.33
X135.255Y-64.135
X135.255Y-67.31
X135.255Y-69.85
X135.255Y-72.39
X135.255Y-74.93
X135.255Y-77.47
X135.255Y-80.01
X135.255Y-82.55
X135.255Y-85.09
X135.255Y-87.63
X135.255Y-90.17
X135.255Y-92.71
X135.255Y-95.25
X135.255Y-97.79
X135.255Y-100.33
X142.755Y-64.135
X142.875Y-67.31
X142.875Y-69.85
X142.875Y-72.39
X142.875Y-74.93
X142.875Y-77.47
X142.875Y-80.01
X142.875Y-82.55
X142.875Y-85.09
X142.875Y-87.63
X142.875Y-90.17
X142.875Y-92.71
X142.875Y-95.25
X142.875Y-97.79
X142.875Y-100.33
X143.51Y-58.42
X143.51Y-60.96
X145.415Y-64.135
X145.415Y-67.31
X145.415Y-69.85
X145.415Y-72.39
X145.415Y-74.93
X145.415Y-77.47
X145.415Y-80.01
X145.415Y-82.55
X145.415Y-85.09
X145.415Y-87.63
X145.415Y-90.17
X145.415Y-92.71
X145.415Y-95.25
X145.415Y-97.79
X145.415Y-100.33
X146.05Y-58.42
X146.05Y-60.96
X152.915Y-64.135
X153.035Y-67.31
X153.035Y-69.85
X153.035Y-72.39
X153.035Y-74.93
X153.035Y-77.47
X153.035Y-80.01
X153.035Y-82.55
X153.035Y-85.09
X153.035Y-87.63
X153.035Y-90.17
X153.035Y-92.71
X153.035Y-95.25
X153.035Y-97.79
X153.035Y-100.33
X155.395Y-82.55
X155.395Y-85.09
X155.395Y-87.63
X155.395Y-90.17
X155.395Y-92.71
X155.395Y-95.25
X155.395Y-97.79
X155.395Y-100.33
X155.575Y-79.375
X163.015Y-82.55
X163.015Y-85.09
X163.015Y-87.63
X163.015Y-90.17
X163.015Y-92.71
X163.015Y-95.25
X163.015Y-97.79
X163.015Y-100.33
X163.075Y-79.375
T3
X116.205Y-59.69
X116.205Y-62.23
X116.205Y-64.77
X116.205Y-67.31
X116.205Y-69.85
X116.205Y-72.39
X116.205Y-74.93
X116.205Y-77.47
X116.205Y-80.01
X116.205Y-82.55
X116.205Y-85.09
X116.205Y-87.63
X116.205Y-90.17
X116.205Y-92.71
X116.205Y-95.25
X116.205Y-97.79
X116.205Y-100.33
X118.745Y-59.69
X118.745Y-62.23
X118.745Y-64.77
X118.745Y-67.31
X118.745Y-69.85
X118.745Y-72.39
X118.745Y-74.93
X118.745Y-77.47
X118.745Y-80.01
X118.745Y-82.55
X118.745Y-85.09
X118.745Y-87.63
X118.745Y-90.17
X118.745Y-92.71
X118.745Y-95.25
X118.745Y-97.79
X118.745Y-100.33
X130.175Y-58.42
X130.175Y-60.96
X132.715Y-58.42
X132.715Y-60.96
X149.225Y-58.42
X149.225Y-60.96
X151.765Y-58.42
X151.765Y-60.96
T0
M30
