%FSLAX45Y45*%
G04 Gerber Fmt 4.5, Leading zero omitted, Abs format (unit mm)*
G04 Created by KiCad (PCBNEW (6.0.0)) date 2022-11-09 00:35:21*
%MOMM*%
%LPD*%
G01*
G04 APERTURE LIST*
%TA.AperFunction,Profile*%
%ADD10C,0.100000*%
%TD*%
%ADD11C,0.200000*%
%ADD12C,0.320000*%
G04 APERTURE END LIST*
D10*
X10985500Y-5461000D02*
G75*
G03*
X10604500Y-5842000I0J-381000D01*
G01*
X17208500Y-5842000D02*
G75*
G03*
X16827500Y-5461000I-381000J0D01*
G01*
X16827500Y-10419255D02*
X10985500Y-10414000D01*
X16827500Y-5461000D02*
X10985500Y-5461000D01*
X10604500Y-5842000D02*
X10604500Y-10033000D01*
X17208500Y-9969500D02*
X17208500Y-5842000D01*
X16827500Y-10419255D02*
G75*
G03*
X17208500Y-9969500I0J386255D01*
G01*
X10604500Y-10033000D02*
G75*
G03*
X10985500Y-10414000I381000J0D01*
G01*
D11*
D12*
X10825500Y-5682000D02*
X11145500Y-6002000D01*
X11145500Y-5682000D02*
X10825500Y-6002000D01*
X10825500Y-9873000D02*
X11145500Y-10193000D01*
X11145500Y-9873000D02*
X10825500Y-10193000D01*
X16667500Y-5682000D02*
X16987500Y-6002000D01*
X16987500Y-5682000D02*
X16667500Y-6002000D01*
X16667500Y-9873000D02*
X16987500Y-10193000D01*
X16987500Y-9873000D02*
X16667500Y-10193000D01*
D11*
X10857119Y-10734732D02*
X10857119Y-10534732D01*
X10904738Y-10534732D01*
X10933310Y-10544255D01*
X10952357Y-10563303D01*
X10961881Y-10582351D01*
X10971405Y-10620446D01*
X10971405Y-10649017D01*
X10961881Y-10687113D01*
X10952357Y-10706160D01*
X10933310Y-10725208D01*
X10904738Y-10734732D01*
X10857119Y-10734732D01*
X11057119Y-10734732D02*
X11057119Y-10601398D01*
X11057119Y-10639493D02*
X11066643Y-10620446D01*
X11076167Y-10610922D01*
X11095214Y-10601398D01*
X11114262Y-10601398D01*
X11180929Y-10734732D02*
X11180929Y-10601398D01*
X11180929Y-10534732D02*
X11171405Y-10544255D01*
X11180929Y-10553779D01*
X11190452Y-10544255D01*
X11180929Y-10534732D01*
X11180929Y-10553779D01*
X11304738Y-10734732D02*
X11285690Y-10725208D01*
X11276167Y-10706160D01*
X11276167Y-10534732D01*
X11409500Y-10734732D02*
X11390452Y-10725208D01*
X11380928Y-10706160D01*
X11380928Y-10534732D01*
X11638071Y-10734732D02*
X11638071Y-10534732D01*
X11704738Y-10677589D01*
X11771405Y-10534732D01*
X11771405Y-10734732D01*
X11952357Y-10734732D02*
X11952357Y-10629970D01*
X11942833Y-10610922D01*
X11923786Y-10601398D01*
X11885690Y-10601398D01*
X11866643Y-10610922D01*
X11952357Y-10725208D02*
X11933309Y-10734732D01*
X11885690Y-10734732D01*
X11866643Y-10725208D01*
X11857119Y-10706160D01*
X11857119Y-10687113D01*
X11866643Y-10668065D01*
X11885690Y-10658541D01*
X11933309Y-10658541D01*
X11952357Y-10649017D01*
X12047595Y-10601398D02*
X12047595Y-10801398D01*
X12047595Y-10610922D02*
X12066643Y-10601398D01*
X12104738Y-10601398D01*
X12123786Y-10610922D01*
X12133309Y-10620446D01*
X12142833Y-10639493D01*
X12142833Y-10696636D01*
X12133309Y-10715684D01*
X12123786Y-10725208D01*
X12104738Y-10734732D01*
X12066643Y-10734732D01*
X12047595Y-10725208D01*
X12228548Y-10715684D02*
X12238071Y-10725208D01*
X12228548Y-10734732D01*
X12219024Y-10725208D01*
X12228548Y-10715684D01*
X12228548Y-10734732D01*
X12228548Y-10610922D02*
X12238071Y-10620446D01*
X12228548Y-10629970D01*
X12219024Y-10620446D01*
X12228548Y-10610922D01*
X12228548Y-10629970D01*
X10399500Y-10964255D02*
X10599500Y-11164255D01*
X10599500Y-10964255D02*
X10399500Y-11164255D01*
X10838071Y-10954732D02*
X10961881Y-10954732D01*
X10895214Y-11030922D01*
X10923786Y-11030922D01*
X10942833Y-11040446D01*
X10952357Y-11049970D01*
X10961881Y-11069017D01*
X10961881Y-11116636D01*
X10952357Y-11135684D01*
X10942833Y-11145208D01*
X10923786Y-11154732D01*
X10866643Y-11154732D01*
X10847595Y-11145208D01*
X10838071Y-11135684D01*
X11047595Y-11135684D02*
X11057119Y-11145208D01*
X11047595Y-11154732D01*
X11038071Y-11145208D01*
X11047595Y-11135684D01*
X11047595Y-11154732D01*
X11133310Y-10973779D02*
X11142833Y-10964255D01*
X11161881Y-10954732D01*
X11209500Y-10954732D01*
X11228548Y-10964255D01*
X11238071Y-10973779D01*
X11247595Y-10992827D01*
X11247595Y-11011874D01*
X11238071Y-11040446D01*
X11123786Y-11154732D01*
X11247595Y-11154732D01*
X11371405Y-10954732D02*
X11390452Y-10954732D01*
X11409500Y-10964255D01*
X11419024Y-10973779D01*
X11428548Y-10992827D01*
X11438071Y-11030922D01*
X11438071Y-11078541D01*
X11428548Y-11116636D01*
X11419024Y-11135684D01*
X11409500Y-11145208D01*
X11390452Y-11154732D01*
X11371405Y-11154732D01*
X11352357Y-11145208D01*
X11342833Y-11135684D01*
X11333309Y-11116636D01*
X11323786Y-11078541D01*
X11323786Y-11030922D01*
X11333309Y-10992827D01*
X11342833Y-10973779D01*
X11352357Y-10964255D01*
X11371405Y-10954732D01*
X11561881Y-10954732D02*
X11580928Y-10954732D01*
X11599976Y-10964255D01*
X11609500Y-10973779D01*
X11619024Y-10992827D01*
X11628548Y-11030922D01*
X11628548Y-11078541D01*
X11619024Y-11116636D01*
X11609500Y-11135684D01*
X11599976Y-11145208D01*
X11580928Y-11154732D01*
X11561881Y-11154732D01*
X11542833Y-11145208D01*
X11533309Y-11135684D01*
X11523786Y-11116636D01*
X11514262Y-11078541D01*
X11514262Y-11030922D01*
X11523786Y-10992827D01*
X11533309Y-10973779D01*
X11542833Y-10964255D01*
X11561881Y-10954732D01*
X11714262Y-11154732D02*
X11714262Y-11021398D01*
X11714262Y-11040446D02*
X11723786Y-11030922D01*
X11742833Y-11021398D01*
X11771405Y-11021398D01*
X11790452Y-11030922D01*
X11799976Y-11049970D01*
X11799976Y-11154732D01*
X11799976Y-11049970D02*
X11809500Y-11030922D01*
X11828548Y-11021398D01*
X11857119Y-11021398D01*
X11876167Y-11030922D01*
X11885690Y-11049970D01*
X11885690Y-11154732D01*
X11980928Y-11154732D02*
X11980928Y-11021398D01*
X11980928Y-11040446D02*
X11990452Y-11030922D01*
X12009500Y-11021398D01*
X12038071Y-11021398D01*
X12057119Y-11030922D01*
X12066643Y-11049970D01*
X12066643Y-11154732D01*
X12066643Y-11049970D02*
X12076167Y-11030922D01*
X12095214Y-11021398D01*
X12123786Y-11021398D01*
X12142833Y-11030922D01*
X12152357Y-11049970D01*
X12152357Y-11154732D01*
X12542833Y-10945208D02*
X12371405Y-11202351D01*
X12799976Y-10954732D02*
X12819024Y-10954732D01*
X12838071Y-10964255D01*
X12847595Y-10973779D01*
X12857119Y-10992827D01*
X12866643Y-11030922D01*
X12866643Y-11078541D01*
X12857119Y-11116636D01*
X12847595Y-11135684D01*
X12838071Y-11145208D01*
X12819024Y-11154732D01*
X12799976Y-11154732D01*
X12780928Y-11145208D01*
X12771405Y-11135684D01*
X12761881Y-11116636D01*
X12752357Y-11078541D01*
X12752357Y-11030922D01*
X12761881Y-10992827D01*
X12771405Y-10973779D01*
X12780928Y-10964255D01*
X12799976Y-10954732D01*
X12952357Y-11135684D02*
X12961881Y-11145208D01*
X12952357Y-11154732D01*
X12942833Y-11145208D01*
X12952357Y-11135684D01*
X12952357Y-11154732D01*
X13152357Y-11154732D02*
X13038071Y-11154732D01*
X13095214Y-11154732D02*
X13095214Y-10954732D01*
X13076167Y-10983303D01*
X13057119Y-11002351D01*
X13038071Y-11011874D01*
X13228548Y-10973779D02*
X13238071Y-10964255D01*
X13257119Y-10954732D01*
X13304738Y-10954732D01*
X13323786Y-10964255D01*
X13333309Y-10973779D01*
X13342833Y-10992827D01*
X13342833Y-11011874D01*
X13333309Y-11040446D01*
X13219024Y-11154732D01*
X13342833Y-11154732D01*
X13514262Y-10954732D02*
X13476167Y-10954732D01*
X13457119Y-10964255D01*
X13447595Y-10973779D01*
X13428548Y-11002351D01*
X13419024Y-11040446D01*
X13419024Y-11116636D01*
X13428548Y-11135684D01*
X13438071Y-11145208D01*
X13457119Y-11154732D01*
X13495214Y-11154732D01*
X13514262Y-11145208D01*
X13523786Y-11135684D01*
X13533309Y-11116636D01*
X13533309Y-11069017D01*
X13523786Y-11049970D01*
X13514262Y-11040446D01*
X13495214Y-11030922D01*
X13457119Y-11030922D01*
X13438071Y-11040446D01*
X13428548Y-11049970D01*
X13419024Y-11069017D01*
X13657119Y-10954732D02*
X13676167Y-10954732D01*
X13695214Y-10964255D01*
X13704738Y-10973779D01*
X13714262Y-10992827D01*
X13723786Y-11030922D01*
X13723786Y-11078541D01*
X13714262Y-11116636D01*
X13704738Y-11135684D01*
X13695214Y-11145208D01*
X13676167Y-11154732D01*
X13657119Y-11154732D01*
X13638071Y-11145208D01*
X13628548Y-11135684D01*
X13619024Y-11116636D01*
X13609500Y-11078541D01*
X13609500Y-11030922D01*
X13619024Y-10992827D01*
X13628548Y-10973779D01*
X13638071Y-10964255D01*
X13657119Y-10954732D01*
X13799976Y-10954732D02*
X13799976Y-10992827D01*
X13876167Y-10954732D02*
X13876167Y-10992827D01*
X14171405Y-11230922D02*
X14161881Y-11221398D01*
X14142833Y-11192827D01*
X14133309Y-11173779D01*
X14123786Y-11145208D01*
X14114262Y-11097589D01*
X14114262Y-11059493D01*
X14123786Y-11011874D01*
X14133309Y-10983303D01*
X14142833Y-10964255D01*
X14161881Y-10935684D01*
X14171405Y-10926160D01*
X14333309Y-11021398D02*
X14333309Y-11154732D01*
X14285690Y-10945208D02*
X14238071Y-11088065D01*
X14361881Y-11088065D01*
X14590452Y-11154732D02*
X14590452Y-10954732D01*
X14676167Y-11154732D02*
X14676167Y-11049970D01*
X14666643Y-11030922D01*
X14647595Y-11021398D01*
X14619024Y-11021398D01*
X14599976Y-11030922D01*
X14590452Y-11040446D01*
X14799976Y-11154732D02*
X14780928Y-11145208D01*
X14771405Y-11135684D01*
X14761881Y-11116636D01*
X14761881Y-11059493D01*
X14771405Y-11040446D01*
X14780928Y-11030922D01*
X14799976Y-11021398D01*
X14828548Y-11021398D01*
X14847595Y-11030922D01*
X14857119Y-11040446D01*
X14866643Y-11059493D01*
X14866643Y-11116636D01*
X14857119Y-11135684D01*
X14847595Y-11145208D01*
X14828548Y-11154732D01*
X14799976Y-11154732D01*
X14980928Y-11154732D02*
X14961881Y-11145208D01*
X14952357Y-11126160D01*
X14952357Y-10954732D01*
X15133309Y-11145208D02*
X15114262Y-11154732D01*
X15076167Y-11154732D01*
X15057119Y-11145208D01*
X15047595Y-11126160D01*
X15047595Y-11049970D01*
X15057119Y-11030922D01*
X15076167Y-11021398D01*
X15114262Y-11021398D01*
X15133309Y-11030922D01*
X15142833Y-11049970D01*
X15142833Y-11069017D01*
X15047595Y-11088065D01*
X15219024Y-11145208D02*
X15238071Y-11154732D01*
X15276167Y-11154732D01*
X15295214Y-11145208D01*
X15304738Y-11126160D01*
X15304738Y-11116636D01*
X15295214Y-11097589D01*
X15276167Y-11088065D01*
X15247595Y-11088065D01*
X15228548Y-11078541D01*
X15219024Y-11059493D01*
X15219024Y-11049970D01*
X15228548Y-11030922D01*
X15247595Y-11021398D01*
X15276167Y-11021398D01*
X15295214Y-11030922D01*
X15371405Y-11230922D02*
X15380928Y-11221398D01*
X15399976Y-11192827D01*
X15409500Y-11173779D01*
X15419024Y-11145208D01*
X15428548Y-11097589D01*
X15428548Y-11059493D01*
X15419024Y-11011874D01*
X15409500Y-10983303D01*
X15399976Y-10964255D01*
X15380928Y-10935684D01*
X15371405Y-10926160D01*
X15733309Y-11230922D02*
X15723786Y-11221398D01*
X15704738Y-11192827D01*
X15695214Y-11173779D01*
X15685690Y-11145208D01*
X15676167Y-11097589D01*
X15676167Y-11059493D01*
X15685690Y-11011874D01*
X15695214Y-10983303D01*
X15704738Y-10964255D01*
X15723786Y-10935684D01*
X15733309Y-10926160D01*
X15809500Y-11021398D02*
X15809500Y-11154732D01*
X15809500Y-11040446D02*
X15819024Y-11030922D01*
X15838071Y-11021398D01*
X15866643Y-11021398D01*
X15885690Y-11030922D01*
X15895214Y-11049970D01*
X15895214Y-11154732D01*
X16019024Y-11154732D02*
X15999976Y-11145208D01*
X15990452Y-11135684D01*
X15980928Y-11116636D01*
X15980928Y-11059493D01*
X15990452Y-11040446D01*
X15999976Y-11030922D01*
X16019024Y-11021398D01*
X16047595Y-11021398D01*
X16066643Y-11030922D01*
X16076167Y-11040446D01*
X16085690Y-11059493D01*
X16085690Y-11116636D01*
X16076167Y-11135684D01*
X16066643Y-11145208D01*
X16047595Y-11154732D01*
X16019024Y-11154732D01*
X16142833Y-11021398D02*
X16219024Y-11021398D01*
X16171405Y-10954732D02*
X16171405Y-11126160D01*
X16180928Y-11145208D01*
X16199976Y-11154732D01*
X16219024Y-11154732D01*
X16438071Y-11021398D02*
X16438071Y-11221398D01*
X16438071Y-11030922D02*
X16457119Y-11021398D01*
X16495214Y-11021398D01*
X16514262Y-11030922D01*
X16523786Y-11040446D01*
X16533309Y-11059493D01*
X16533309Y-11116636D01*
X16523786Y-11135684D01*
X16514262Y-11145208D01*
X16495214Y-11154732D01*
X16457119Y-11154732D01*
X16438071Y-11145208D01*
X16647595Y-11154732D02*
X16628548Y-11145208D01*
X16619024Y-11126160D01*
X16619024Y-10954732D01*
X16809500Y-11154732D02*
X16809500Y-11049970D01*
X16799976Y-11030922D01*
X16780929Y-11021398D01*
X16742833Y-11021398D01*
X16723786Y-11030922D01*
X16809500Y-11145208D02*
X16790452Y-11154732D01*
X16742833Y-11154732D01*
X16723786Y-11145208D01*
X16714262Y-11126160D01*
X16714262Y-11107113D01*
X16723786Y-11088065D01*
X16742833Y-11078541D01*
X16790452Y-11078541D01*
X16809500Y-11069017D01*
X16876167Y-11021398D02*
X16952357Y-11021398D01*
X16904738Y-10954732D02*
X16904738Y-11126160D01*
X16914262Y-11145208D01*
X16933310Y-11154732D01*
X16952357Y-11154732D01*
X17095214Y-11145208D02*
X17076167Y-11154732D01*
X17038071Y-11154732D01*
X17019024Y-11145208D01*
X17009500Y-11126160D01*
X17009500Y-11049970D01*
X17019024Y-11030922D01*
X17038071Y-11021398D01*
X17076167Y-11021398D01*
X17095214Y-11030922D01*
X17104738Y-11049970D01*
X17104738Y-11069017D01*
X17009500Y-11088065D01*
X17276167Y-11154732D02*
X17276167Y-10954732D01*
X17276167Y-11145208D02*
X17257119Y-11154732D01*
X17219024Y-11154732D01*
X17199976Y-11145208D01*
X17190452Y-11135684D01*
X17180929Y-11116636D01*
X17180929Y-11059493D01*
X17190452Y-11040446D01*
X17199976Y-11030922D01*
X17219024Y-11021398D01*
X17257119Y-11021398D01*
X17276167Y-11030922D01*
X17352357Y-11230922D02*
X17361881Y-11221398D01*
X17380929Y-11192827D01*
X17390452Y-11173779D01*
X17399976Y-11145208D01*
X17409500Y-11097589D01*
X17409500Y-11059493D01*
X17399976Y-11011874D01*
X17390452Y-10983303D01*
X17380929Y-10964255D01*
X17361881Y-10935684D01*
X17352357Y-10926160D01*
M02*
