G04 #@! TF.GenerationSoftware,KiCad,Pcbnew,(6.0.0)*
G04 #@! TF.CreationDate,2022-11-09T00:35:18-05:00*
G04 #@! TF.ProjectId,Sorcerer Internal SRAM,536f7263-6572-4657-9220-496e7465726e,rev?*
G04 #@! TF.SameCoordinates,Original*
G04 #@! TF.FileFunction,Copper,L1,Top*
G04 #@! TF.FilePolarity,Positive*
%FSLAX46Y46*%
G04 Gerber Fmt 4.6, Leading zero omitted, Abs format (unit mm)*
G04 Created by KiCad (PCBNEW (6.0.0)) date 2022-11-09 00:35:18*
%MOMM*%
%LPD*%
G01*
G04 APERTURE LIST*
G04 #@! TA.AperFunction,ComponentPad*
%ADD10R,1.600000X1.600000*%
G04 #@! TD*
G04 #@! TA.AperFunction,ComponentPad*
%ADD11O,1.600000X1.600000*%
G04 #@! TD*
G04 #@! TA.AperFunction,ComponentPad*
%ADD12R,1.700000X1.700000*%
G04 #@! TD*
G04 #@! TA.AperFunction,ComponentPad*
%ADD13O,1.700000X1.700000*%
G04 #@! TD*
G04 #@! TA.AperFunction,ComponentPad*
%ADD14C,1.600000*%
G04 #@! TD*
G04 #@! TA.AperFunction,ViaPad*
%ADD15C,0.800000*%
G04 #@! TD*
G04 #@! TA.AperFunction,Conductor*
%ADD16C,0.400000*%
G04 #@! TD*
G04 APERTURE END LIST*
D10*
X124460000Y-60965000D03*
D11*
X127000000Y-60965000D03*
D10*
X155395000Y-82550000D03*
D11*
X155395000Y-85090000D03*
X155395000Y-87630000D03*
X155395000Y-90170000D03*
X155395000Y-92710000D03*
X155395000Y-95250000D03*
X155395000Y-97790000D03*
X155395000Y-100330000D03*
X163015000Y-100330000D03*
X163015000Y-97790000D03*
X163015000Y-95250000D03*
X163015000Y-92710000D03*
X163015000Y-90170000D03*
X163015000Y-87630000D03*
X163015000Y-85090000D03*
X163015000Y-82550000D03*
D12*
X116205000Y-59690000D03*
D13*
X118745000Y-59690000D03*
X116205000Y-62230000D03*
X118745000Y-62230000D03*
X116205000Y-64770000D03*
X118745000Y-64770000D03*
X116205000Y-67310000D03*
X118745000Y-67310000D03*
X116205000Y-69850000D03*
X118745000Y-69850000D03*
X116205000Y-72390000D03*
X118745000Y-72390000D03*
X116205000Y-74930000D03*
X118745000Y-74930000D03*
X116205000Y-77470000D03*
X118745000Y-77470000D03*
X116205000Y-80010000D03*
X118745000Y-80010000D03*
X116205000Y-82550000D03*
X118745000Y-82550000D03*
X116205000Y-85090000D03*
X118745000Y-85090000D03*
X116205000Y-87630000D03*
X118745000Y-87630000D03*
X116205000Y-90170000D03*
X118745000Y-90170000D03*
X116205000Y-92710000D03*
X118745000Y-92710000D03*
X116205000Y-95250000D03*
X118745000Y-95250000D03*
X116205000Y-97790000D03*
X118745000Y-97790000D03*
X116205000Y-100330000D03*
X118745000Y-100330000D03*
D14*
X152915000Y-64135000D03*
D11*
X145415000Y-64135000D03*
D12*
X130175000Y-60960000D03*
D13*
X130175000Y-58420000D03*
X132715000Y-60960000D03*
X132715000Y-58420000D03*
D12*
X149225000Y-60960000D03*
D13*
X149225000Y-58420000D03*
X151765000Y-60960000D03*
X151765000Y-58420000D03*
D14*
X163075000Y-79375000D03*
D11*
X155575000Y-79375000D03*
D10*
X125095000Y-67310000D03*
D11*
X125095000Y-69850000D03*
X125095000Y-72390000D03*
X125095000Y-74930000D03*
X125095000Y-77470000D03*
X125095000Y-80010000D03*
X125095000Y-82550000D03*
X125095000Y-85090000D03*
X125095000Y-87630000D03*
X125095000Y-90170000D03*
X125095000Y-92710000D03*
X125095000Y-95250000D03*
X125095000Y-97790000D03*
X125095000Y-100330000D03*
X132715000Y-100330000D03*
X132715000Y-97790000D03*
X132715000Y-95250000D03*
X132715000Y-92710000D03*
X132715000Y-90170000D03*
X132715000Y-87630000D03*
X132715000Y-85090000D03*
X132715000Y-82550000D03*
X132715000Y-80010000D03*
X132715000Y-77470000D03*
X132715000Y-74930000D03*
X132715000Y-72390000D03*
X132715000Y-69850000D03*
X132715000Y-67310000D03*
D10*
X143510000Y-58420000D03*
D11*
X146050000Y-58420000D03*
D10*
X145415000Y-67310000D03*
D11*
X145415000Y-69850000D03*
X145415000Y-72390000D03*
X145415000Y-74930000D03*
X145415000Y-77470000D03*
X145415000Y-80010000D03*
X145415000Y-82550000D03*
X145415000Y-85090000D03*
X145415000Y-87630000D03*
X145415000Y-90170000D03*
X145415000Y-92710000D03*
X145415000Y-95250000D03*
X145415000Y-97790000D03*
X145415000Y-100330000D03*
X153035000Y-100330000D03*
X153035000Y-97790000D03*
X153035000Y-95250000D03*
X153035000Y-92710000D03*
X153035000Y-90170000D03*
X153035000Y-87630000D03*
X153035000Y-85090000D03*
X153035000Y-82550000D03*
X153035000Y-80010000D03*
X153035000Y-77470000D03*
X153035000Y-74930000D03*
X153035000Y-72390000D03*
X153035000Y-69850000D03*
X153035000Y-67310000D03*
D10*
X135255000Y-67310000D03*
D11*
X135255000Y-69850000D03*
X135255000Y-72390000D03*
X135255000Y-74930000D03*
X135255000Y-77470000D03*
X135255000Y-80010000D03*
X135255000Y-82550000D03*
X135255000Y-85090000D03*
X135255000Y-87630000D03*
X135255000Y-90170000D03*
X135255000Y-92710000D03*
X135255000Y-95250000D03*
X135255000Y-97790000D03*
X135255000Y-100330000D03*
X142875000Y-100330000D03*
X142875000Y-97790000D03*
X142875000Y-95250000D03*
X142875000Y-92710000D03*
X142875000Y-90170000D03*
X142875000Y-87630000D03*
X142875000Y-85090000D03*
X142875000Y-82550000D03*
X142875000Y-80010000D03*
X142875000Y-77470000D03*
X142875000Y-74930000D03*
X142875000Y-72390000D03*
X142875000Y-69850000D03*
X142875000Y-67310000D03*
D10*
X124460000Y-58425000D03*
D11*
X127000000Y-58425000D03*
D14*
X142755000Y-64135000D03*
D11*
X135255000Y-64135000D03*
D14*
X132595000Y-64135000D03*
D11*
X125095000Y-64135000D03*
D10*
X143510000Y-60960000D03*
D11*
X146050000Y-60960000D03*
D15*
X121920000Y-67310000D03*
X154305000Y-76200000D03*
X121285000Y-69850000D03*
X129540000Y-82550000D03*
X138430000Y-81915000D03*
X149225000Y-82550000D03*
X137795000Y-61595000D03*
X137795000Y-58420000D03*
X123190000Y-68580000D03*
X121920000Y-58420000D03*
X151765000Y-81280000D03*
X151765000Y-71120000D03*
X154305000Y-59690000D03*
X154305000Y-66040000D03*
X139700000Y-62865000D03*
X139700000Y-57150000D03*
X151130000Y-64135000D03*
X118745000Y-57150000D03*
X161925000Y-88900000D03*
D16*
X132595000Y-64135000D02*
X130690000Y-66040000D01*
X142755000Y-64135000D02*
X143954511Y-65334511D01*
X143954511Y-65334511D02*
X151715489Y-65334511D01*
X161170000Y-77470000D02*
X155575000Y-77470000D01*
X133794511Y-65334511D02*
X141555489Y-65334511D01*
X151715489Y-65334511D02*
X152915000Y-64135000D01*
X123190000Y-66040000D02*
X121920000Y-67310000D01*
X155575000Y-77470000D02*
X154305000Y-76200000D01*
X163075000Y-79375000D02*
X161170000Y-77470000D01*
X130690000Y-66040000D02*
X123190000Y-66040000D01*
X141555489Y-65334511D02*
X142755000Y-64135000D01*
X132595000Y-64135000D02*
X133794511Y-65334511D01*
X145059123Y-81209511D02*
X145979511Y-81209511D01*
X137797108Y-81282108D02*
X134617892Y-81282108D01*
X143718634Y-82550000D02*
X145059123Y-81209511D01*
X139065000Y-82550000D02*
X138430000Y-81915000D01*
X149225000Y-82550000D02*
X153035000Y-82550000D01*
X145979511Y-81209511D02*
X147320000Y-82550000D01*
X133350000Y-82550000D02*
X132715000Y-82550000D01*
X147320000Y-82550000D02*
X149225000Y-82550000D01*
X142875000Y-82550000D02*
X143718634Y-82550000D01*
X121285000Y-69850000D02*
X118745000Y-69850000D01*
X142875000Y-82550000D02*
X139065000Y-82550000D01*
X134617892Y-81282108D02*
X133350000Y-82550000D01*
X138430000Y-81915000D02*
X137797108Y-81282108D01*
X129628634Y-65405000D02*
X132168634Y-62865000D01*
X138430000Y-62865000D02*
X140335000Y-60960000D01*
X118745000Y-67310000D02*
X120650000Y-67310000D01*
X122555000Y-65405000D02*
X129628634Y-65405000D01*
X120650000Y-67310000D02*
X122555000Y-65405000D01*
X140335000Y-60960000D02*
X143510000Y-60960000D01*
X132168634Y-62865000D02*
X138430000Y-62865000D01*
X146050000Y-58420000D02*
X149225000Y-58420000D01*
X131250295Y-62935489D02*
X131955784Y-62230000D01*
X143510000Y-58420000D02*
X137795000Y-58420000D01*
X124598145Y-62935489D02*
X131250295Y-62935489D01*
X122763634Y-64770000D02*
X124598145Y-62935489D01*
X118745000Y-64770000D02*
X122763634Y-64770000D01*
X136525000Y-62230000D02*
X137160000Y-62230000D01*
X137160000Y-62230000D02*
X137795000Y-61595000D01*
X131955784Y-62230000D02*
X136525000Y-62230000D01*
X123195000Y-62230000D02*
X124460000Y-60965000D01*
X118745000Y-62230000D02*
X123195000Y-62230000D01*
X130170000Y-58425000D02*
X130175000Y-58420000D01*
X127000000Y-58425000D02*
X130170000Y-58425000D01*
X118745000Y-59690000D02*
X121920000Y-59690000D01*
X124460000Y-58425000D02*
X123185000Y-58425000D01*
X121920000Y-59690000D02*
X123185000Y-58425000D01*
X130170000Y-60965000D02*
X130175000Y-60960000D01*
X127000000Y-60965000D02*
X130170000Y-60965000D01*
X127635000Y-90170000D02*
X128834511Y-91369511D01*
X142378145Y-91369511D02*
X143580489Y-91369511D01*
X135255000Y-90170000D02*
X134479022Y-90170000D01*
X117495489Y-91460489D02*
X116205000Y-90170000D01*
X144780000Y-90170000D02*
X143580489Y-91369511D01*
X145415000Y-90170000D02*
X144780000Y-90170000D01*
X121940489Y-91460489D02*
X117495489Y-91460489D01*
X135854520Y-90769520D02*
X141778154Y-90769520D01*
X125095000Y-90170000D02*
X123230978Y-90170000D01*
X135255000Y-90170000D02*
X135854520Y-90769520D01*
X133279511Y-91369511D02*
X128834511Y-91369511D01*
X125095000Y-90170000D02*
X127635000Y-90170000D01*
X134479022Y-90170000D02*
X133279511Y-91369511D01*
X123230978Y-90170000D02*
X121940489Y-91460489D01*
X141778154Y-90769520D02*
X142378145Y-91369511D01*
X117495489Y-94000489D02*
X116205000Y-92710000D01*
X125095000Y-92710000D02*
X127635000Y-92710000D01*
X144780000Y-92710000D02*
X143580489Y-93909511D01*
X121940489Y-94000489D02*
X117495489Y-94000489D01*
X123230978Y-92710000D02*
X121940489Y-94000489D01*
X125095000Y-92710000D02*
X123230978Y-92710000D01*
X135255000Y-92710000D02*
X134411366Y-92710000D01*
X140757150Y-92710000D02*
X135255000Y-92710000D01*
X127635000Y-92710000D02*
X128834511Y-93909511D01*
X134411366Y-92710000D02*
X133211855Y-93909511D01*
X145415000Y-92710000D02*
X144780000Y-92710000D01*
X143580489Y-93909511D02*
X141956661Y-93909511D01*
X141956661Y-93909511D02*
X140757150Y-92710000D01*
X133211855Y-93909511D02*
X128834511Y-93909511D01*
X144780000Y-87630000D02*
X143510000Y-88900000D01*
X139912850Y-87630000D02*
X141182850Y-88900000D01*
X125095000Y-87630000D02*
X123230978Y-87630000D01*
X133279511Y-88829511D02*
X128975489Y-88829511D01*
X127775978Y-87630000D02*
X128975489Y-88829511D01*
X135255000Y-87630000D02*
X134479022Y-87630000D01*
X134479022Y-87630000D02*
X133279511Y-88829511D01*
X135255000Y-87630000D02*
X139912850Y-87630000D01*
X125095000Y-87630000D02*
X127775978Y-87630000D01*
X141182850Y-88900000D02*
X143510000Y-88900000D01*
X121940489Y-88920489D02*
X117495489Y-88920489D01*
X117495489Y-88920489D02*
X116205000Y-87630000D01*
X123230978Y-87630000D02*
X121940489Y-88920489D01*
X145415000Y-87630000D02*
X144780000Y-87630000D01*
X125095000Y-95250000D02*
X127775978Y-95250000D01*
X117495489Y-96540489D02*
X116205000Y-95250000D01*
X121899511Y-96540489D02*
X117495489Y-96540489D01*
X144780000Y-95250000D02*
X143580489Y-96449511D01*
X141778154Y-95849520D02*
X135854520Y-95849520D01*
X143580489Y-96449511D02*
X142378145Y-96449511D01*
X133211855Y-96449511D02*
X128975489Y-96449511D01*
X127775978Y-95250000D02*
X128975489Y-96449511D01*
X123190000Y-95250000D02*
X121899511Y-96540489D01*
X125095000Y-95250000D02*
X123190000Y-95250000D01*
X134411366Y-95250000D02*
X133211855Y-96449511D01*
X135854520Y-95849520D02*
X135255000Y-95250000D01*
X135255000Y-95250000D02*
X134411366Y-95250000D01*
X145415000Y-95250000D02*
X144780000Y-95250000D01*
X142378145Y-96449511D02*
X141778154Y-95849520D01*
X145415000Y-85090000D02*
X144780000Y-85090000D01*
X134411366Y-85090000D02*
X133211855Y-86289511D01*
X133211855Y-86289511D02*
X128975489Y-86289511D01*
X125095000Y-85090000D02*
X123230978Y-85090000D01*
X140757150Y-85090000D02*
X141956661Y-86289511D01*
X141956661Y-86289511D02*
X143580489Y-86289511D01*
X117495489Y-86380489D02*
X116205000Y-85090000D01*
X121940489Y-86380489D02*
X117495489Y-86380489D01*
X135255000Y-85090000D02*
X134411366Y-85090000D01*
X125095000Y-85090000D02*
X127775978Y-85090000D01*
X123230978Y-85090000D02*
X121940489Y-86380489D01*
X127775978Y-85090000D02*
X128975489Y-86289511D01*
X135255000Y-85090000D02*
X140757150Y-85090000D01*
X144780000Y-85090000D02*
X143580489Y-86289511D01*
X142448634Y-99060000D02*
X141778154Y-98389520D01*
X117475000Y-99060000D02*
X116205000Y-97790000D01*
X143510000Y-99060000D02*
X142448634Y-99060000D01*
X144780000Y-97790000D02*
X143510000Y-99060000D01*
X121920000Y-99060000D02*
X117475000Y-99060000D01*
X133211855Y-98989511D02*
X128975489Y-98989511D01*
X141778154Y-98389520D02*
X135854520Y-98389520D01*
X134411366Y-97790000D02*
X133211855Y-98989511D01*
X135255000Y-97790000D02*
X134411366Y-97790000D01*
X145415000Y-97790000D02*
X144780000Y-97790000D01*
X123190000Y-97790000D02*
X121920000Y-99060000D01*
X127775978Y-97790000D02*
X128975489Y-98989511D01*
X125095000Y-97790000D02*
X127775978Y-97790000D01*
X125095000Y-97790000D02*
X123190000Y-97790000D01*
X135854520Y-98389520D02*
X135255000Y-97790000D01*
X125095000Y-82550000D02*
X123230978Y-82550000D01*
X125095000Y-82550000D02*
X127775978Y-82550000D01*
X135255000Y-82550000D02*
X134411366Y-82550000D01*
X121940489Y-83840489D02*
X117495489Y-83840489D01*
X145415000Y-82550000D02*
X144780000Y-82550000D01*
X123230978Y-82550000D02*
X121940489Y-83840489D01*
X127775978Y-82550000D02*
X128975489Y-83749511D01*
X134411366Y-82550000D02*
X133211855Y-83749511D01*
X135255000Y-82550000D02*
X135854520Y-83149520D01*
X142378145Y-83749511D02*
X143580489Y-83749511D01*
X144780000Y-82550000D02*
X143580489Y-83749511D01*
X135854520Y-83149520D02*
X141778154Y-83149520D01*
X117495489Y-83840489D02*
X116205000Y-82550000D01*
X141778154Y-83149520D02*
X142378145Y-83749511D01*
X133211855Y-83749511D02*
X128975489Y-83749511D01*
X123190000Y-99060000D02*
X121920000Y-100330000D01*
X143718634Y-100330000D02*
X144988634Y-99060000D01*
X151765000Y-99060000D02*
X153035000Y-100330000D01*
X127635000Y-99060000D02*
X123190000Y-99060000D01*
X132715000Y-100330000D02*
X128905000Y-100330000D01*
X132715000Y-100330000D02*
X133558634Y-100330000D01*
X128905000Y-100330000D02*
X127635000Y-99060000D01*
X141605000Y-100330000D02*
X140335000Y-99060000D01*
X142875000Y-100330000D02*
X141605000Y-100330000D01*
X121920000Y-100330000D02*
X118745000Y-100330000D01*
X144988634Y-99060000D02*
X151765000Y-99060000D01*
X133558634Y-100330000D02*
X134828634Y-99060000D01*
X134828634Y-99060000D02*
X140335000Y-99060000D01*
X142875000Y-100330000D02*
X143718634Y-100330000D01*
X121920000Y-81280000D02*
X117475000Y-81280000D01*
X127635000Y-80010000D02*
X128834511Y-81209511D01*
X125095000Y-80010000D02*
X123190000Y-80010000D01*
X135854520Y-80609520D02*
X141569520Y-80609520D01*
X134411366Y-80010000D02*
X133211855Y-81209511D01*
X117475000Y-81280000D02*
X116205000Y-80010000D01*
X141569520Y-80609520D02*
X142169511Y-81209511D01*
X123190000Y-80010000D02*
X121920000Y-81280000D01*
X142169511Y-81209511D02*
X143580489Y-81209511D01*
X135255000Y-80010000D02*
X135854520Y-80609520D01*
X135255000Y-80010000D02*
X134411366Y-80010000D01*
X144780000Y-80010000D02*
X143580489Y-81209511D01*
X133211855Y-81209511D02*
X128834511Y-81209511D01*
X125095000Y-80010000D02*
X127635000Y-80010000D01*
X145415000Y-80010000D02*
X144780000Y-80010000D01*
X132715000Y-97790000D02*
X133558634Y-97790000D01*
X142875000Y-97790000D02*
X143510000Y-97790000D01*
X127635000Y-96520000D02*
X128905000Y-97790000D01*
X123190000Y-96520000D02*
X127635000Y-96520000D01*
X143510000Y-97790000D02*
X144780000Y-96520000D01*
X128905000Y-97790000D02*
X132715000Y-97790000D01*
X141605000Y-97790000D02*
X140405489Y-96590489D01*
X121920000Y-97790000D02*
X123190000Y-96520000D01*
X142875000Y-97790000D02*
X141605000Y-97790000D01*
X134758145Y-96590489D02*
X140405489Y-96590489D01*
X151765000Y-96520000D02*
X153035000Y-97790000D01*
X118745000Y-97790000D02*
X121920000Y-97790000D01*
X144780000Y-96520000D02*
X151765000Y-96520000D01*
X133558634Y-97790000D02*
X134758145Y-96590489D01*
X125095000Y-77470000D02*
X123230978Y-77470000D01*
X142378145Y-78669511D02*
X141778154Y-78069520D01*
X127775978Y-77470000D02*
X128975489Y-78669511D01*
X117495489Y-78760489D02*
X116205000Y-77470000D01*
X134411366Y-77470000D02*
X133211855Y-78669511D01*
X141778154Y-78069520D02*
X135854520Y-78069520D01*
X133211855Y-78669511D02*
X128975489Y-78669511D01*
X125095000Y-77470000D02*
X127775978Y-77470000D01*
X144639022Y-77470000D02*
X143439511Y-78669511D01*
X123230978Y-77470000D02*
X121940489Y-78760489D01*
X121940489Y-78760489D02*
X117495489Y-78760489D01*
X135255000Y-77470000D02*
X134411366Y-77470000D01*
X143439511Y-78669511D02*
X142378145Y-78669511D01*
X145415000Y-77470000D02*
X144639022Y-77470000D01*
X135854520Y-78069520D02*
X135255000Y-77470000D01*
X121920000Y-95250000D02*
X123190000Y-93980000D01*
X142875000Y-95250000D02*
X143718634Y-95250000D01*
X142875000Y-95250000D02*
X141605000Y-95250000D01*
X144988634Y-93980000D02*
X151765000Y-93980000D01*
X132715000Y-95250000D02*
X133558634Y-95250000D01*
X143718634Y-95250000D02*
X144988634Y-93980000D01*
X134828634Y-93980000D02*
X140335000Y-93980000D01*
X141605000Y-95250000D02*
X140335000Y-93980000D01*
X133558634Y-95250000D02*
X134828634Y-93980000D01*
X128905000Y-95250000D02*
X132715000Y-95250000D01*
X118745000Y-95250000D02*
X121920000Y-95250000D01*
X151765000Y-93980000D02*
X153035000Y-95250000D01*
X127635000Y-93980000D02*
X128905000Y-95250000D01*
X123190000Y-93980000D02*
X127635000Y-93980000D01*
X125095000Y-74930000D02*
X127775978Y-74930000D01*
X127775978Y-74930000D02*
X128975489Y-76129511D01*
X133211855Y-76129511D02*
X134411366Y-74930000D01*
X135854520Y-75529520D02*
X135255000Y-74930000D01*
X141569520Y-75529520D02*
X135854520Y-75529520D01*
X145415000Y-74930000D02*
X144639022Y-74930000D01*
X123230978Y-74930000D02*
X121940489Y-76220489D01*
X121940489Y-76220489D02*
X117495489Y-76220489D01*
X125095000Y-74930000D02*
X123230978Y-74930000D01*
X143439511Y-76129511D02*
X142169511Y-76129511D01*
X128975489Y-76129511D02*
X133211855Y-76129511D01*
X142169511Y-76129511D02*
X141569520Y-75529520D01*
X134411366Y-74930000D02*
X135255000Y-74930000D01*
X144639022Y-74930000D02*
X143439511Y-76129511D01*
X117495489Y-76220489D02*
X116205000Y-74930000D01*
X121920000Y-92710000D02*
X123190000Y-91440000D01*
X134828634Y-91440000D02*
X140335000Y-91440000D01*
X133558634Y-92710000D02*
X134828634Y-91440000D01*
X127635000Y-91440000D02*
X128905000Y-92710000D01*
X128905000Y-92710000D02*
X132715000Y-92710000D01*
X144847656Y-91440000D02*
X151765000Y-91440000D01*
X132715000Y-92710000D02*
X133558634Y-92710000D01*
X142875000Y-92710000D02*
X141605000Y-92710000D01*
X143577656Y-92710000D02*
X144847656Y-91440000D01*
X118745000Y-92710000D02*
X121920000Y-92710000D01*
X141605000Y-92710000D02*
X140335000Y-91440000D01*
X123190000Y-91440000D02*
X127635000Y-91440000D01*
X151765000Y-91440000D02*
X153035000Y-92710000D01*
X142875000Y-92710000D02*
X143577656Y-92710000D01*
X135854520Y-72989520D02*
X135255000Y-72390000D01*
X133211855Y-73589511D02*
X128975489Y-73589511D01*
X142169511Y-73589511D02*
X141569520Y-72989520D01*
X145415000Y-72390000D02*
X144571366Y-72390000D01*
X141569520Y-72989520D02*
X135854520Y-72989520D01*
X117454511Y-73639511D02*
X116205000Y-72390000D01*
X121940489Y-73639511D02*
X117454511Y-73639511D01*
X143371855Y-73589511D02*
X142169511Y-73589511D01*
X134411366Y-72390000D02*
X133211855Y-73589511D01*
X135255000Y-72390000D02*
X134411366Y-72390000D01*
X144571366Y-72390000D02*
X143371855Y-73589511D01*
X123190000Y-72390000D02*
X121940489Y-73639511D01*
X127775978Y-72390000D02*
X128975489Y-73589511D01*
X125095000Y-72390000D02*
X123190000Y-72390000D01*
X125095000Y-72390000D02*
X127775978Y-72390000D01*
X128905000Y-90170000D02*
X132715000Y-90170000D01*
X142875000Y-90170000D02*
X143577656Y-90170000D01*
X144847656Y-88900000D02*
X151765000Y-88900000D01*
X118745000Y-90170000D02*
X121920000Y-90170000D01*
X151765000Y-88900000D02*
X153035000Y-90170000D01*
X142875000Y-90170000D02*
X141605000Y-90170000D01*
X140335000Y-88900000D02*
X134828634Y-88900000D01*
X143577656Y-90170000D02*
X144847656Y-88900000D01*
X133558634Y-90170000D02*
X132715000Y-90170000D01*
X123190000Y-88900000D02*
X127635000Y-88900000D01*
X134828634Y-88900000D02*
X133558634Y-90170000D01*
X141605000Y-90170000D02*
X140335000Y-88900000D01*
X121920000Y-90170000D02*
X123190000Y-88900000D01*
X127635000Y-88900000D02*
X128905000Y-90170000D01*
X142875000Y-74930000D02*
X143577656Y-74930000D01*
X141605000Y-74930000D02*
X140335000Y-73660000D01*
X143577656Y-74930000D02*
X144847656Y-73660000D01*
X144847656Y-73660000D02*
X151765000Y-73660000D01*
X142875000Y-74930000D02*
X141605000Y-74930000D01*
X133350000Y-74930000D02*
X134620000Y-73660000D01*
X128905000Y-74930000D02*
X132715000Y-74930000D01*
X132715000Y-74930000D02*
X133350000Y-74930000D01*
X118745000Y-74930000D02*
X121920000Y-74930000D01*
X127635000Y-73660000D02*
X128905000Y-74930000D01*
X134620000Y-73660000D02*
X140335000Y-73660000D01*
X121920000Y-74930000D02*
X123190000Y-73660000D01*
X151765000Y-73660000D02*
X153035000Y-74930000D01*
X123190000Y-73660000D02*
X127635000Y-73660000D01*
X121920000Y-77470000D02*
X123190000Y-76200000D01*
X144988634Y-76200000D02*
X151765000Y-76200000D01*
X132715000Y-77470000D02*
X133558634Y-77470000D01*
X118745000Y-77470000D02*
X121920000Y-77470000D01*
X123190000Y-76200000D02*
X127635000Y-76200000D01*
X142875000Y-77470000D02*
X143718634Y-77470000D01*
X141605000Y-77470000D02*
X140335000Y-76200000D01*
X128905000Y-77470000D02*
X132715000Y-77470000D01*
X151765000Y-76200000D02*
X153035000Y-77470000D01*
X134828634Y-76200000D02*
X140335000Y-76200000D01*
X143718634Y-77470000D02*
X144988634Y-76200000D01*
X127635000Y-76200000D02*
X128905000Y-77470000D01*
X133558634Y-77470000D02*
X134828634Y-76200000D01*
X142875000Y-77470000D02*
X141605000Y-77470000D01*
X128905000Y-85090000D02*
X132715000Y-85090000D01*
X133985000Y-84663634D02*
X134828634Y-83820000D01*
X121920000Y-85090000D02*
X123190000Y-83820000D01*
X132715000Y-85090000D02*
X133563516Y-85090000D01*
X134828634Y-83820000D02*
X140335000Y-83820000D01*
X143577656Y-85090000D02*
X144847656Y-83820000D01*
X118745000Y-85090000D02*
X121920000Y-85090000D01*
X144847656Y-83820000D02*
X151765000Y-83820000D01*
X133985000Y-84668516D02*
X133985000Y-84663634D01*
X133563516Y-85090000D02*
X133985000Y-84668516D01*
X141605000Y-85090000D02*
X140335000Y-83820000D01*
X142875000Y-85090000D02*
X143577656Y-85090000D01*
X127635000Y-83820000D02*
X128905000Y-85090000D01*
X142875000Y-85090000D02*
X141605000Y-85090000D01*
X123190000Y-83820000D02*
X127635000Y-83820000D01*
X151765000Y-83820000D02*
X153035000Y-85090000D01*
X121920000Y-80010000D02*
X123190000Y-78740000D01*
X133558634Y-80010000D02*
X134828634Y-78740000D01*
X118745000Y-80010000D02*
X121920000Y-80010000D01*
X142875000Y-80010000D02*
X141605000Y-80010000D01*
X143718634Y-80010000D02*
X144988634Y-78740000D01*
X134828634Y-78740000D02*
X140335000Y-78740000D01*
X151765000Y-78740000D02*
X153035000Y-80010000D01*
X141605000Y-80010000D02*
X140335000Y-78740000D01*
X132715000Y-80010000D02*
X133558634Y-80010000D01*
X127635000Y-78740000D02*
X128905000Y-80010000D01*
X128905000Y-80010000D02*
X132715000Y-80010000D01*
X123190000Y-78740000D02*
X127635000Y-78740000D01*
X144988634Y-78740000D02*
X151765000Y-78740000D01*
X142875000Y-80010000D02*
X143718634Y-80010000D01*
X123190000Y-69850000D02*
X121940489Y-71099511D01*
X144571366Y-69850000D02*
X143371855Y-71049511D01*
X135854520Y-70449520D02*
X135255000Y-69850000D01*
X121940489Y-71099511D02*
X117454511Y-71099511D01*
X145415000Y-69850000D02*
X144571366Y-69850000D01*
X135255000Y-69850000D02*
X134411366Y-69850000D01*
X125095000Y-69850000D02*
X123190000Y-69850000D01*
X134411366Y-69850000D02*
X133211855Y-71049511D01*
X142378145Y-71049511D02*
X141778154Y-70449520D01*
X141778154Y-70449520D02*
X135854520Y-70449520D01*
X127775978Y-69850000D02*
X128975489Y-71049511D01*
X125095000Y-69850000D02*
X127775978Y-69850000D01*
X117454511Y-71099511D02*
X116205000Y-69850000D01*
X133211855Y-71049511D02*
X128975489Y-71049511D01*
X143371855Y-71049511D02*
X142378145Y-71049511D01*
X144145000Y-68580000D02*
X151765000Y-68580000D01*
X132715000Y-69850000D02*
X133350000Y-69850000D01*
X133350000Y-69850000D02*
X134620000Y-68580000D01*
X127635000Y-68580000D02*
X123190000Y-68580000D01*
X142875000Y-69850000D02*
X141605000Y-69850000D01*
X134620000Y-68580000D02*
X140335000Y-68580000D01*
X128905000Y-69850000D02*
X127635000Y-68580000D01*
X121920000Y-58420000D02*
X117475000Y-58420000D01*
X141605000Y-69850000D02*
X140335000Y-68580000D01*
X142875000Y-69850000D02*
X144145000Y-68580000D01*
X151765000Y-68580000D02*
X153035000Y-69850000D01*
X117475000Y-58420000D02*
X116205000Y-59690000D01*
X132715000Y-69850000D02*
X128905000Y-69850000D01*
X151765000Y-81280000D02*
X154125000Y-81280000D01*
X144780000Y-71120000D02*
X151765000Y-71120000D01*
X132715000Y-72390000D02*
X133350000Y-72390000D01*
X142875000Y-72390000D02*
X141605000Y-72390000D01*
X128905000Y-72390000D02*
X132715000Y-72390000D01*
X133350000Y-72390000D02*
X134620000Y-71120000D01*
X127635000Y-71120000D02*
X128905000Y-72390000D01*
X142875000Y-72390000D02*
X143510000Y-72390000D01*
X134620000Y-71120000D02*
X140335000Y-71120000D01*
X141605000Y-72390000D02*
X140335000Y-71120000D01*
X123190000Y-71120000D02*
X127635000Y-71120000D01*
X118745000Y-72390000D02*
X121920000Y-72390000D01*
X121920000Y-72390000D02*
X123190000Y-71120000D01*
X154125000Y-81280000D02*
X155395000Y-82550000D01*
X143510000Y-72390000D02*
X144780000Y-71120000D01*
X123190000Y-59690000D02*
X154305000Y-59690000D01*
X116205000Y-62230000D02*
X117495489Y-60939511D01*
X117495489Y-60939511D02*
X121940489Y-60939511D01*
X121940489Y-60939511D02*
X123190000Y-59690000D01*
X123190000Y-67310000D02*
X121940489Y-68559511D01*
X125095000Y-67310000D02*
X127775978Y-67310000D01*
X117454511Y-68559511D02*
X116205000Y-67310000D01*
X121940489Y-68559511D02*
X117454511Y-68559511D01*
X134411366Y-67310000D02*
X135255000Y-67310000D01*
X140970000Y-67310000D02*
X135255000Y-67310000D01*
X133211855Y-68509511D02*
X134411366Y-67310000D01*
X142240000Y-66040000D02*
X140970000Y-67310000D01*
X154305000Y-66040000D02*
X142240000Y-66040000D01*
X127775978Y-67310000D02*
X128975489Y-68509511D01*
X128975489Y-68509511D02*
X133211855Y-68509511D01*
X125095000Y-67310000D02*
X123190000Y-67310000D01*
X139700000Y-57150000D02*
X118745000Y-57150000D01*
X149860000Y-62865000D02*
X139700000Y-62865000D01*
X151130000Y-64135000D02*
X149860000Y-62865000D01*
X154305000Y-88900000D02*
X161925000Y-88900000D01*
X153035000Y-87630000D02*
X154305000Y-88900000D01*
X146050000Y-60960000D02*
X149225000Y-60960000D01*
G04 #@! TA.AperFunction,Conductor*
G36*
X168245057Y-55119500D02*
G01*
X168259858Y-55121805D01*
X168259861Y-55121805D01*
X168268730Y-55123186D01*
X168287411Y-55120743D01*
X168310342Y-55119852D01*
X168613557Y-55135743D01*
X168626665Y-55137120D01*
X168866285Y-55175072D01*
X168955002Y-55189123D01*
X168967902Y-55191865D01*
X169289000Y-55277903D01*
X169301536Y-55281977D01*
X169574358Y-55386703D01*
X169611876Y-55401105D01*
X169623924Y-55406469D01*
X169920120Y-55557388D01*
X169931536Y-55563979D01*
X170210334Y-55745033D01*
X170220996Y-55752779D01*
X170479344Y-55961984D01*
X170489145Y-55970810D01*
X170724190Y-56205855D01*
X170733015Y-56215655D01*
X170936753Y-56467251D01*
X170942221Y-56474004D01*
X170949967Y-56484666D01*
X171131018Y-56763459D01*
X171137612Y-56774880D01*
X171288531Y-57071076D01*
X171293895Y-57083124D01*
X171298053Y-57093955D01*
X171405282Y-57373295D01*
X171413021Y-57393456D01*
X171417097Y-57405999D01*
X171421666Y-57423051D01*
X171503135Y-57727098D01*
X171505877Y-57739998D01*
X171554730Y-58048444D01*
X171557879Y-58068329D01*
X171559257Y-58081443D01*
X171569823Y-58283049D01*
X171574764Y-58377330D01*
X171573436Y-58403312D01*
X171573195Y-58404856D01*
X171573195Y-58404860D01*
X171571814Y-58413730D01*
X171572978Y-58422632D01*
X171572978Y-58422635D01*
X171575936Y-58445251D01*
X171577000Y-58461589D01*
X171577000Y-99623105D01*
X171576849Y-99625402D01*
X171576210Y-99627676D01*
X171576278Y-99634055D01*
X171576278Y-99634058D01*
X171576993Y-99700897D01*
X171577000Y-99702244D01*
X171577000Y-99731477D01*
X171577287Y-99733478D01*
X171577361Y-99735289D01*
X171577766Y-99773183D01*
X171580378Y-99781773D01*
X171583320Y-99791449D01*
X171587951Y-99813760D01*
X171622159Y-100112292D01*
X171622969Y-100125127D01*
X171626916Y-100454630D01*
X171626413Y-100467481D01*
X171596751Y-100795652D01*
X171594942Y-100808385D01*
X171531978Y-101131850D01*
X171528879Y-101144331D01*
X171486073Y-101285524D01*
X171438357Y-101442916D01*
X171433278Y-101459668D01*
X171428928Y-101471758D01*
X171340175Y-101683757D01*
X171301666Y-101775740D01*
X171296100Y-101787334D01*
X171138531Y-102076728D01*
X171131815Y-102087692D01*
X170945547Y-102359544D01*
X170937752Y-102369759D01*
X170724757Y-102621191D01*
X170715955Y-102630567D01*
X170478441Y-102858976D01*
X170468728Y-102867406D01*
X170209165Y-103070415D01*
X170198643Y-103077811D01*
X169919745Y-103253299D01*
X169908525Y-103259584D01*
X169758133Y-103334005D01*
X169613174Y-103405738D01*
X169601380Y-103410842D01*
X169437350Y-103472097D01*
X169292675Y-103526124D01*
X169280414Y-103530002D01*
X168961571Y-103613214D01*
X168948994Y-103615819D01*
X168623308Y-103666099D01*
X168610531Y-103667408D01*
X168343918Y-103681032D01*
X168317772Y-103682368D01*
X168291961Y-103681032D01*
X168290147Y-103680750D01*
X168281270Y-103679368D01*
X168250025Y-103683454D01*
X168233591Y-103684517D01*
X109904493Y-103632044D01*
X109885230Y-103630544D01*
X109874409Y-103628860D01*
X109870141Y-103628195D01*
X109870140Y-103628195D01*
X109861270Y-103626814D01*
X109842589Y-103629257D01*
X109819658Y-103630148D01*
X109516443Y-103614257D01*
X109503335Y-103612880D01*
X109263715Y-103574928D01*
X109174998Y-103560877D01*
X109162098Y-103558135D01*
X108841000Y-103472097D01*
X108828464Y-103468023D01*
X108518125Y-103348895D01*
X108506076Y-103343531D01*
X108209880Y-103192612D01*
X108198464Y-103186021D01*
X107919666Y-103004967D01*
X107909004Y-102997221D01*
X107650656Y-102788016D01*
X107640855Y-102779190D01*
X107405810Y-102544145D01*
X107396984Y-102534344D01*
X107187776Y-102275992D01*
X107180033Y-102265334D01*
X106998979Y-101986536D01*
X106992388Y-101975120D01*
X106841469Y-101678924D01*
X106836105Y-101666876D01*
X106810507Y-101600191D01*
X106716977Y-101356536D01*
X106712903Y-101344000D01*
X106710813Y-101336198D01*
X106656925Y-101135088D01*
X106626865Y-101022902D01*
X106624123Y-101010002D01*
X106606545Y-100899017D01*
X106572120Y-100681665D01*
X106570743Y-100668554D01*
X106566490Y-100587401D01*
X106559955Y-100462703D01*
X107745743Y-100462703D01*
X107746302Y-100466947D01*
X107746302Y-100466951D01*
X107759000Y-100563402D01*
X107783268Y-100747734D01*
X107859129Y-101025036D01*
X107860813Y-101028984D01*
X107941068Y-101217137D01*
X107971923Y-101289476D01*
X108018637Y-101367529D01*
X108076593Y-101464366D01*
X108119561Y-101536161D01*
X108299313Y-101760528D01*
X108507851Y-101958423D01*
X108741317Y-102126186D01*
X108745112Y-102128195D01*
X108745113Y-102128196D01*
X108766869Y-102139715D01*
X108995392Y-102260712D01*
X109265373Y-102359511D01*
X109546264Y-102420755D01*
X109574841Y-102423004D01*
X109769282Y-102438307D01*
X109769291Y-102438307D01*
X109771739Y-102438500D01*
X109927271Y-102438500D01*
X109929407Y-102438354D01*
X109929418Y-102438354D01*
X110137548Y-102424165D01*
X110137554Y-102424164D01*
X110141825Y-102423873D01*
X110146020Y-102423004D01*
X110146022Y-102423004D01*
X110403133Y-102369759D01*
X110423342Y-102365574D01*
X110694343Y-102269607D01*
X110949812Y-102137750D01*
X110953313Y-102135289D01*
X110953317Y-102135287D01*
X111067417Y-102055096D01*
X111185023Y-101972441D01*
X111384222Y-101787334D01*
X111392479Y-101779661D01*
X111392481Y-101779658D01*
X111395622Y-101776740D01*
X111577713Y-101554268D01*
X111727927Y-101309142D01*
X111731927Y-101300031D01*
X111841757Y-101049830D01*
X111843483Y-101045898D01*
X111850213Y-101022274D01*
X111910530Y-100810528D01*
X111922244Y-100769406D01*
X111946643Y-100597966D01*
X114873257Y-100597966D01*
X114903565Y-100732446D01*
X114906645Y-100742275D01*
X114986770Y-100939603D01*
X114991413Y-100948794D01*
X115102694Y-101130388D01*
X115108777Y-101138699D01*
X115248213Y-101299667D01*
X115255580Y-101306883D01*
X115419434Y-101442916D01*
X115427881Y-101448831D01*
X115611756Y-101556279D01*
X115621042Y-101560729D01*
X115820001Y-101636703D01*
X115829899Y-101639579D01*
X115933250Y-101660606D01*
X115947299Y-101659410D01*
X115951000Y-101649065D01*
X115951000Y-100602115D01*
X115946525Y-100586876D01*
X115945135Y-100585671D01*
X115937452Y-100584000D01*
X114888225Y-100584000D01*
X114874694Y-100587973D01*
X114873257Y-100597966D01*
X111946643Y-100597966D01*
X111962751Y-100484784D01*
X111962845Y-100466951D01*
X111964235Y-100201583D01*
X111964235Y-100201576D01*
X111964257Y-100197297D01*
X111951700Y-100101913D01*
X111927292Y-99916522D01*
X111926732Y-99912266D01*
X111911007Y-99854783D01*
X111878317Y-99735291D01*
X111850871Y-99634964D01*
X111787204Y-99485700D01*
X111739763Y-99374476D01*
X111739761Y-99374472D01*
X111738077Y-99370524D01*
X111633668Y-99196069D01*
X111592643Y-99127521D01*
X111592640Y-99127517D01*
X111590439Y-99123839D01*
X111410687Y-98899472D01*
X111202149Y-98701577D01*
X110968683Y-98533814D01*
X110946843Y-98522250D01*
X110812760Y-98451257D01*
X110714608Y-98399288D01*
X110444627Y-98300489D01*
X110163736Y-98239245D01*
X110132685Y-98236801D01*
X109940718Y-98221693D01*
X109940709Y-98221693D01*
X109938261Y-98221500D01*
X109782729Y-98221500D01*
X109780593Y-98221646D01*
X109780582Y-98221646D01*
X109572452Y-98235835D01*
X109572446Y-98235836D01*
X109568175Y-98236127D01*
X109563980Y-98236996D01*
X109563978Y-98236996D01*
X109434232Y-98263865D01*
X109286658Y-98294426D01*
X109015657Y-98390393D01*
X108760188Y-98522250D01*
X108756687Y-98524711D01*
X108756683Y-98524713D01*
X108743734Y-98533814D01*
X108524977Y-98687559D01*
X108314378Y-98883260D01*
X108132287Y-99105732D01*
X107982073Y-99350858D01*
X107980347Y-99354791D01*
X107980346Y-99354792D01*
X107920901Y-99490211D01*
X107866517Y-99614102D01*
X107865342Y-99618229D01*
X107865341Y-99618230D01*
X107841793Y-99700897D01*
X107787756Y-99890594D01*
X107747249Y-100175216D01*
X107747227Y-100179505D01*
X107747226Y-100179512D01*
X107746035Y-100406920D01*
X107745743Y-100462703D01*
X106559955Y-100462703D01*
X106555236Y-100372666D01*
X106556564Y-100346688D01*
X106556805Y-100345144D01*
X106556805Y-100345140D01*
X106558186Y-100336270D01*
X106556651Y-100324525D01*
X106554064Y-100304749D01*
X106553000Y-100288411D01*
X106553000Y-97756695D01*
X114842251Y-97756695D01*
X114842548Y-97761848D01*
X114842548Y-97761851D01*
X114844171Y-97790000D01*
X114855110Y-97979715D01*
X114856247Y-97984761D01*
X114856248Y-97984767D01*
X114864955Y-98023402D01*
X114904222Y-98197639D01*
X114945614Y-98299575D01*
X114986103Y-98399288D01*
X114988266Y-98404616D01*
X115104987Y-98595088D01*
X115251250Y-98763938D01*
X115423126Y-98906632D01*
X115490163Y-98945805D01*
X115496955Y-98949774D01*
X115545679Y-99001412D01*
X115558750Y-99071195D01*
X115532019Y-99136967D01*
X115491562Y-99170327D01*
X115483457Y-99174546D01*
X115474738Y-99180036D01*
X115304433Y-99307905D01*
X115296726Y-99314748D01*
X115149590Y-99468717D01*
X115143104Y-99476727D01*
X115023098Y-99652649D01*
X115018000Y-99661623D01*
X114928338Y-99854783D01*
X114924775Y-99864470D01*
X114869389Y-100064183D01*
X114870912Y-100072607D01*
X114883292Y-100076000D01*
X116333000Y-100076000D01*
X116401121Y-100096002D01*
X116447614Y-100149658D01*
X116459000Y-100202000D01*
X116459000Y-101648517D01*
X116463064Y-101662359D01*
X116476478Y-101664393D01*
X116483184Y-101663534D01*
X116493262Y-101661392D01*
X116697255Y-101600191D01*
X116706842Y-101596433D01*
X116898095Y-101502739D01*
X116906945Y-101497464D01*
X117080328Y-101373792D01*
X117088200Y-101367139D01*
X117239052Y-101216812D01*
X117245730Y-101208965D01*
X117373022Y-101031819D01*
X117374279Y-101032722D01*
X117421373Y-100989362D01*
X117491311Y-100977145D01*
X117556751Y-101004678D01*
X117584579Y-101036511D01*
X117592741Y-101049830D01*
X117644987Y-101135088D01*
X117791250Y-101303938D01*
X117963126Y-101446632D01*
X118156000Y-101559338D01*
X118160825Y-101561180D01*
X118160826Y-101561181D01*
X118231328Y-101588103D01*
X118364692Y-101639030D01*
X118369760Y-101640061D01*
X118369763Y-101640062D01*
X118464862Y-101659410D01*
X118583597Y-101683567D01*
X118588772Y-101683757D01*
X118588774Y-101683757D01*
X118801673Y-101691564D01*
X118801677Y-101691564D01*
X118806837Y-101691753D01*
X118811957Y-101691097D01*
X118811959Y-101691097D01*
X119023288Y-101664025D01*
X119023289Y-101664025D01*
X119028416Y-101663368D01*
X119033366Y-101661883D01*
X119237429Y-101600661D01*
X119237434Y-101600659D01*
X119242384Y-101599174D01*
X119442994Y-101500896D01*
X119624860Y-101371173D01*
X119656788Y-101339357D01*
X119779435Y-101217137D01*
X119783096Y-101213489D01*
X119836838Y-101138699D01*
X119871132Y-101090974D01*
X119927127Y-101047326D01*
X119973455Y-101038500D01*
X121891088Y-101038500D01*
X121899658Y-101038792D01*
X121949776Y-101042209D01*
X121949780Y-101042209D01*
X121957352Y-101042725D01*
X121964829Y-101041420D01*
X121964830Y-101041420D01*
X122019841Y-101031819D01*
X122020303Y-101031738D01*
X122026821Y-101030777D01*
X122090242Y-101023102D01*
X122097343Y-101020419D01*
X122099952Y-101019778D01*
X122116262Y-101015315D01*
X122118798Y-101014550D01*
X122126284Y-101013243D01*
X122184800Y-100987556D01*
X122190904Y-100985065D01*
X122199646Y-100981762D01*
X122250656Y-100962487D01*
X122256919Y-100958183D01*
X122259285Y-100956946D01*
X122274097Y-100948701D01*
X122276351Y-100947368D01*
X122283305Y-100944315D01*
X122334002Y-100905413D01*
X122339332Y-100901541D01*
X122385720Y-100869661D01*
X122385725Y-100869656D01*
X122391981Y-100865357D01*
X122433436Y-100818829D01*
X122438416Y-100813554D01*
X122655448Y-100596522D01*
X123812273Y-100596522D01*
X123859764Y-100773761D01*
X123863510Y-100784053D01*
X123955586Y-100981511D01*
X123961069Y-100991007D01*
X124086028Y-101169467D01*
X124093084Y-101177875D01*
X124247125Y-101331916D01*
X124255533Y-101338972D01*
X124433993Y-101463931D01*
X124443489Y-101469414D01*
X124640947Y-101561490D01*
X124651239Y-101565236D01*
X124823503Y-101611394D01*
X124837599Y-101611058D01*
X124841000Y-101603116D01*
X124841000Y-101597967D01*
X125349000Y-101597967D01*
X125352973Y-101611498D01*
X125361522Y-101612727D01*
X125538761Y-101565236D01*
X125549053Y-101561490D01*
X125746511Y-101469414D01*
X125756007Y-101463931D01*
X125934467Y-101338972D01*
X125942875Y-101331916D01*
X126096916Y-101177875D01*
X126103972Y-101169467D01*
X126228931Y-100991007D01*
X126234414Y-100981511D01*
X126326490Y-100784053D01*
X126330236Y-100773761D01*
X126376394Y-100601497D01*
X126376058Y-100587401D01*
X126368116Y-100584000D01*
X125367115Y-100584000D01*
X125351876Y-100588475D01*
X125350671Y-100589865D01*
X125349000Y-100597548D01*
X125349000Y-101597967D01*
X124841000Y-101597967D01*
X124841000Y-100602115D01*
X124836525Y-100586876D01*
X124835135Y-100585671D01*
X124827452Y-100584000D01*
X123827033Y-100584000D01*
X123813502Y-100587973D01*
X123812273Y-100596522D01*
X122655448Y-100596522D01*
X123446566Y-99805405D01*
X123508878Y-99771379D01*
X123535661Y-99768500D01*
X123727106Y-99768500D01*
X123795227Y-99788502D01*
X123841720Y-99842158D01*
X123851824Y-99912432D01*
X123848813Y-99927111D01*
X123813606Y-100058503D01*
X123813942Y-100072599D01*
X123821884Y-100076000D01*
X126362967Y-100076000D01*
X126376498Y-100072027D01*
X126377727Y-100063478D01*
X126341187Y-99927111D01*
X126342877Y-99856135D01*
X126382671Y-99797339D01*
X126447935Y-99769391D01*
X126462894Y-99768500D01*
X127289340Y-99768500D01*
X127357461Y-99788502D01*
X127378435Y-99805405D01*
X127890490Y-100317461D01*
X128383557Y-100810528D01*
X128389411Y-100816793D01*
X128427439Y-100860385D01*
X128479729Y-100897136D01*
X128484971Y-100901028D01*
X128535282Y-100940476D01*
X128542201Y-100943600D01*
X128544493Y-100944988D01*
X128559165Y-100953357D01*
X128561525Y-100954622D01*
X128567739Y-100958990D01*
X128574818Y-100961750D01*
X128574820Y-100961751D01*
X128627275Y-100982202D01*
X128633344Y-100984753D01*
X128691573Y-101011045D01*
X128699046Y-101012430D01*
X128701612Y-101013234D01*
X128717835Y-101017855D01*
X128720427Y-101018520D01*
X128727509Y-101021282D01*
X128735044Y-101022274D01*
X128790861Y-101029622D01*
X128797377Y-101030654D01*
X128803663Y-101031819D01*
X128860186Y-101042295D01*
X128867766Y-101041858D01*
X128867767Y-101041858D01*
X128922380Y-101038709D01*
X128929633Y-101038500D01*
X131548122Y-101038500D01*
X131616243Y-101058502D01*
X131651335Y-101092229D01*
X131705418Y-101169467D01*
X131708802Y-101174300D01*
X131870700Y-101336198D01*
X131875208Y-101339355D01*
X131875211Y-101339357D01*
X131924931Y-101374171D01*
X132058251Y-101467523D01*
X132063233Y-101469846D01*
X132063238Y-101469849D01*
X132259765Y-101561490D01*
X132265757Y-101564284D01*
X132271065Y-101565706D01*
X132271067Y-101565707D01*
X132481598Y-101622119D01*
X132481600Y-101622119D01*
X132486913Y-101623543D01*
X132715000Y-101643498D01*
X132943087Y-101623543D01*
X132948400Y-101622119D01*
X132948402Y-101622119D01*
X133158933Y-101565707D01*
X133158935Y-101565706D01*
X133164243Y-101564284D01*
X133170235Y-101561490D01*
X133366762Y-101469849D01*
X133366767Y-101469846D01*
X133371749Y-101467523D01*
X133505069Y-101374171D01*
X133554789Y-101339357D01*
X133554792Y-101339355D01*
X133559300Y-101336198D01*
X133721198Y-101174300D01*
X133745923Y-101138990D01*
X133841611Y-101002333D01*
X133885217Y-100964026D01*
X133889290Y-100962487D01*
X133895551Y-100958185D01*
X133897920Y-100956946D01*
X133912731Y-100948701D01*
X133914985Y-100947368D01*
X133921939Y-100944315D01*
X133927962Y-100939693D01*
X133934501Y-100935826D01*
X133935273Y-100937131D01*
X133993493Y-100914626D01*
X134063041Y-100928893D01*
X134113092Y-100977190D01*
X134121069Y-100991006D01*
X134246028Y-101169467D01*
X134253084Y-101177875D01*
X134407125Y-101331916D01*
X134415533Y-101338972D01*
X134593993Y-101463931D01*
X134603489Y-101469414D01*
X134800947Y-101561490D01*
X134811239Y-101565236D01*
X134983503Y-101611394D01*
X134997599Y-101611058D01*
X135001000Y-101603116D01*
X135001000Y-101597967D01*
X135509000Y-101597967D01*
X135512973Y-101611498D01*
X135521522Y-101612727D01*
X135698761Y-101565236D01*
X135709053Y-101561490D01*
X135906511Y-101469414D01*
X135916007Y-101463931D01*
X136094467Y-101338972D01*
X136102875Y-101331916D01*
X136256916Y-101177875D01*
X136263972Y-101169467D01*
X136388931Y-100991007D01*
X136394414Y-100981511D01*
X136486490Y-100784053D01*
X136490236Y-100773761D01*
X136536394Y-100601497D01*
X136536058Y-100587401D01*
X136528116Y-100584000D01*
X135527115Y-100584000D01*
X135511876Y-100588475D01*
X135510671Y-100589865D01*
X135509000Y-100597548D01*
X135509000Y-101597967D01*
X135001000Y-101597967D01*
X135001000Y-100202000D01*
X135021002Y-100133879D01*
X135074658Y-100087386D01*
X135127000Y-100076000D01*
X136522967Y-100076000D01*
X136536498Y-100072027D01*
X136537727Y-100063478D01*
X136501187Y-99927111D01*
X136502877Y-99856135D01*
X136542671Y-99797339D01*
X136607935Y-99769391D01*
X136622894Y-99768500D01*
X139989340Y-99768500D01*
X140057461Y-99788502D01*
X140078435Y-99805405D01*
X140590490Y-100317461D01*
X141083557Y-100810528D01*
X141089411Y-100816793D01*
X141127439Y-100860385D01*
X141179729Y-100897136D01*
X141184971Y-100901028D01*
X141235282Y-100940476D01*
X141242201Y-100943600D01*
X141244493Y-100944988D01*
X141259165Y-100953357D01*
X141261525Y-100954622D01*
X141267739Y-100958990D01*
X141274818Y-100961750D01*
X141274820Y-100961751D01*
X141327275Y-100982202D01*
X141333344Y-100984753D01*
X141391573Y-101011045D01*
X141399046Y-101012430D01*
X141401612Y-101013234D01*
X141417835Y-101017855D01*
X141420427Y-101018520D01*
X141427509Y-101021282D01*
X141435044Y-101022274D01*
X141490861Y-101029622D01*
X141497377Y-101030654D01*
X141503663Y-101031819D01*
X141560186Y-101042295D01*
X141567766Y-101041858D01*
X141567767Y-101041858D01*
X141622380Y-101038709D01*
X141629633Y-101038500D01*
X141708122Y-101038500D01*
X141776243Y-101058502D01*
X141811335Y-101092229D01*
X141865418Y-101169467D01*
X141868802Y-101174300D01*
X142030700Y-101336198D01*
X142035208Y-101339355D01*
X142035211Y-101339357D01*
X142084931Y-101374171D01*
X142218251Y-101467523D01*
X142223233Y-101469846D01*
X142223238Y-101469849D01*
X142419765Y-101561490D01*
X142425757Y-101564284D01*
X142431065Y-101565706D01*
X142431067Y-101565707D01*
X142641598Y-101622119D01*
X142641600Y-101622119D01*
X142646913Y-101623543D01*
X142875000Y-101643498D01*
X143103087Y-101623543D01*
X143108400Y-101622119D01*
X143108402Y-101622119D01*
X143318933Y-101565707D01*
X143318935Y-101565706D01*
X143324243Y-101564284D01*
X143330235Y-101561490D01*
X143526762Y-101469849D01*
X143526767Y-101469846D01*
X143531749Y-101467523D01*
X143665069Y-101374171D01*
X143714789Y-101339357D01*
X143714792Y-101339355D01*
X143719300Y-101336198D01*
X143881198Y-101174300D01*
X143905923Y-101138990D01*
X144001611Y-101002333D01*
X144045217Y-100964026D01*
X144049290Y-100962487D01*
X144055551Y-100958185D01*
X144057920Y-100956946D01*
X144072731Y-100948701D01*
X144074985Y-100947368D01*
X144081939Y-100944315D01*
X144087962Y-100939693D01*
X144094501Y-100935826D01*
X144095273Y-100937131D01*
X144153493Y-100914626D01*
X144223041Y-100928893D01*
X144273092Y-100977190D01*
X144281069Y-100991006D01*
X144406028Y-101169467D01*
X144413084Y-101177875D01*
X144567125Y-101331916D01*
X144575533Y-101338972D01*
X144753993Y-101463931D01*
X144763489Y-101469414D01*
X144960947Y-101561490D01*
X144971239Y-101565236D01*
X145143503Y-101611394D01*
X145157599Y-101611058D01*
X145161000Y-101603116D01*
X145161000Y-101597967D01*
X145669000Y-101597967D01*
X145672973Y-101611498D01*
X145681522Y-101612727D01*
X145858761Y-101565236D01*
X145869053Y-101561490D01*
X146066511Y-101469414D01*
X146076007Y-101463931D01*
X146254467Y-101338972D01*
X146262875Y-101331916D01*
X146416916Y-101177875D01*
X146423972Y-101169467D01*
X146548931Y-100991007D01*
X146554414Y-100981511D01*
X146646490Y-100784053D01*
X146650236Y-100773761D01*
X146696394Y-100601497D01*
X146696058Y-100587401D01*
X146688116Y-100584000D01*
X145687115Y-100584000D01*
X145671876Y-100588475D01*
X145670671Y-100589865D01*
X145669000Y-100597548D01*
X145669000Y-101597967D01*
X145161000Y-101597967D01*
X145161000Y-100202000D01*
X145181002Y-100133879D01*
X145234658Y-100087386D01*
X145287000Y-100076000D01*
X146682967Y-100076000D01*
X146696498Y-100072027D01*
X146697727Y-100063478D01*
X146661187Y-99927111D01*
X146662877Y-99856135D01*
X146702671Y-99797339D01*
X146767935Y-99769391D01*
X146782894Y-99768500D01*
X151419339Y-99768500D01*
X151487460Y-99788502D01*
X151508434Y-99805405D01*
X151705018Y-100001989D01*
X151739044Y-100064301D01*
X151741444Y-100102063D01*
X151721502Y-100330000D01*
X151741457Y-100558087D01*
X151742881Y-100563400D01*
X151742881Y-100563402D01*
X151752143Y-100597966D01*
X151800716Y-100779243D01*
X151803039Y-100784224D01*
X151803039Y-100784225D01*
X151895151Y-100981762D01*
X151895154Y-100981767D01*
X151897477Y-100986749D01*
X151929668Y-101032722D01*
X152004078Y-101138990D01*
X152028802Y-101174300D01*
X152190700Y-101336198D01*
X152195208Y-101339355D01*
X152195211Y-101339357D01*
X152244931Y-101374171D01*
X152378251Y-101467523D01*
X152383233Y-101469846D01*
X152383238Y-101469849D01*
X152579765Y-101561490D01*
X152585757Y-101564284D01*
X152591065Y-101565706D01*
X152591067Y-101565707D01*
X152801598Y-101622119D01*
X152801600Y-101622119D01*
X152806913Y-101623543D01*
X153035000Y-101643498D01*
X153263087Y-101623543D01*
X153268400Y-101622119D01*
X153268402Y-101622119D01*
X153478933Y-101565707D01*
X153478935Y-101565706D01*
X153484243Y-101564284D01*
X153490235Y-101561490D01*
X153686762Y-101469849D01*
X153686767Y-101469846D01*
X153691749Y-101467523D01*
X153825069Y-101374171D01*
X153874789Y-101339357D01*
X153874792Y-101339355D01*
X153879300Y-101336198D01*
X154041198Y-101174300D01*
X154065923Y-101138990D01*
X154112092Y-101073053D01*
X154167549Y-101028725D01*
X154238168Y-101021416D01*
X154301529Y-101053447D01*
X154318518Y-101073053D01*
X154386028Y-101169467D01*
X154393084Y-101177875D01*
X154547125Y-101331916D01*
X154555533Y-101338972D01*
X154733993Y-101463931D01*
X154743489Y-101469414D01*
X154940947Y-101561490D01*
X154951239Y-101565236D01*
X155123503Y-101611394D01*
X155137599Y-101611058D01*
X155141000Y-101603116D01*
X155141000Y-101597967D01*
X155649000Y-101597967D01*
X155652973Y-101611498D01*
X155661522Y-101612727D01*
X155838761Y-101565236D01*
X155849053Y-101561490D01*
X156046511Y-101469414D01*
X156056007Y-101463931D01*
X156234467Y-101338972D01*
X156242875Y-101331916D01*
X156396916Y-101177875D01*
X156403972Y-101169467D01*
X156528931Y-100991007D01*
X156534414Y-100981511D01*
X156626490Y-100784053D01*
X156630236Y-100773761D01*
X156676394Y-100601497D01*
X156676058Y-100587401D01*
X156668116Y-100584000D01*
X155667115Y-100584000D01*
X155651876Y-100588475D01*
X155650671Y-100589865D01*
X155649000Y-100597548D01*
X155649000Y-101597967D01*
X155141000Y-101597967D01*
X155141000Y-100202000D01*
X155161002Y-100133879D01*
X155214658Y-100087386D01*
X155267000Y-100076000D01*
X156662967Y-100076000D01*
X156676498Y-100072027D01*
X156677727Y-100063478D01*
X156630236Y-99886239D01*
X156626490Y-99875947D01*
X156534414Y-99678489D01*
X156528931Y-99668993D01*
X156403972Y-99490533D01*
X156396916Y-99482125D01*
X156242875Y-99328084D01*
X156234467Y-99321028D01*
X156056007Y-99196069D01*
X156046511Y-99190586D01*
X156011951Y-99174471D01*
X155958666Y-99127554D01*
X155939205Y-99059277D01*
X155959747Y-98991317D01*
X156011951Y-98946081D01*
X156046762Y-98929849D01*
X156046767Y-98929846D01*
X156051749Y-98927523D01*
X156156611Y-98854098D01*
X156234789Y-98799357D01*
X156234792Y-98799355D01*
X156239300Y-98796198D01*
X156401198Y-98634300D01*
X156425923Y-98598990D01*
X156485515Y-98513883D01*
X156532523Y-98446749D01*
X156534846Y-98441767D01*
X156534849Y-98441762D01*
X156626961Y-98244225D01*
X156626961Y-98244224D01*
X156629284Y-98239243D01*
X156637772Y-98207568D01*
X156687119Y-98023402D01*
X156687119Y-98023400D01*
X156688543Y-98018087D01*
X156708498Y-97790000D01*
X156688543Y-97561913D01*
X156682593Y-97539707D01*
X156630707Y-97346067D01*
X156630706Y-97346065D01*
X156629284Y-97340757D01*
X156619281Y-97319305D01*
X156534849Y-97138238D01*
X156534846Y-97138233D01*
X156532523Y-97133251D01*
X156401198Y-96945700D01*
X156239300Y-96783802D01*
X156234792Y-96780645D01*
X156234789Y-96780643D01*
X156156611Y-96725902D01*
X156051749Y-96652477D01*
X156046767Y-96650154D01*
X156046762Y-96650151D01*
X156012543Y-96634195D01*
X155959258Y-96587278D01*
X155939797Y-96519001D01*
X155960339Y-96451041D01*
X156012543Y-96405805D01*
X156046762Y-96389849D01*
X156046767Y-96389846D01*
X156051749Y-96387523D01*
X156156611Y-96314098D01*
X156234789Y-96259357D01*
X156234792Y-96259355D01*
X156239300Y-96256198D01*
X156401198Y-96094300D01*
X156425923Y-96058990D01*
X156485515Y-95973883D01*
X156532523Y-95906749D01*
X156534846Y-95901767D01*
X156534849Y-95901762D01*
X156626961Y-95704225D01*
X156626961Y-95704224D01*
X156629284Y-95699243D01*
X156637772Y-95667568D01*
X156687119Y-95483402D01*
X156687119Y-95483400D01*
X156688543Y-95478087D01*
X156708498Y-95250000D01*
X156688543Y-95021913D01*
X156682593Y-94999707D01*
X156630707Y-94806067D01*
X156630706Y-94806065D01*
X156629284Y-94800757D01*
X156617092Y-94774610D01*
X156534849Y-94598238D01*
X156534846Y-94598233D01*
X156532523Y-94593251D01*
X156401198Y-94405700D01*
X156239300Y-94243802D01*
X156234792Y-94240645D01*
X156234789Y-94240643D01*
X156156611Y-94185902D01*
X156051749Y-94112477D01*
X156046767Y-94110154D01*
X156046762Y-94110151D01*
X156011951Y-94093919D01*
X155958666Y-94047002D01*
X155939205Y-93978725D01*
X155959747Y-93910765D01*
X156011951Y-93865529D01*
X156046511Y-93849414D01*
X156056007Y-93843931D01*
X156234467Y-93718972D01*
X156242875Y-93711916D01*
X156396916Y-93557875D01*
X156403972Y-93549467D01*
X156528931Y-93371007D01*
X156534414Y-93361511D01*
X156626490Y-93164053D01*
X156630236Y-93153761D01*
X156676394Y-92981497D01*
X156676058Y-92967401D01*
X156668116Y-92964000D01*
X155267000Y-92964000D01*
X155198879Y-92943998D01*
X155152386Y-92890342D01*
X155141000Y-92838000D01*
X155141000Y-92437885D01*
X155649000Y-92437885D01*
X155653475Y-92453124D01*
X155654865Y-92454329D01*
X155662548Y-92456000D01*
X156662967Y-92456000D01*
X156676498Y-92452027D01*
X156677727Y-92443478D01*
X156630236Y-92266239D01*
X156626490Y-92255947D01*
X156534414Y-92058489D01*
X156528931Y-92048993D01*
X156403972Y-91870533D01*
X156396916Y-91862125D01*
X156242875Y-91708084D01*
X156234467Y-91701028D01*
X156056007Y-91576069D01*
X156046511Y-91570586D01*
X156011359Y-91554195D01*
X155958074Y-91507278D01*
X155938613Y-91439001D01*
X155959155Y-91371041D01*
X156011359Y-91325805D01*
X156046511Y-91309414D01*
X156056007Y-91303931D01*
X156234467Y-91178972D01*
X156242875Y-91171916D01*
X156396916Y-91017875D01*
X156403972Y-91009467D01*
X156528931Y-90831007D01*
X156534414Y-90821511D01*
X156626490Y-90624053D01*
X156630236Y-90613761D01*
X156676394Y-90441497D01*
X156676058Y-90427401D01*
X156668116Y-90424000D01*
X155667115Y-90424000D01*
X155651876Y-90428475D01*
X155650671Y-90429865D01*
X155649000Y-90437548D01*
X155649000Y-92437885D01*
X155141000Y-92437885D01*
X155141000Y-90042000D01*
X155161002Y-89973879D01*
X155214658Y-89927386D01*
X155267000Y-89916000D01*
X156662967Y-89916000D01*
X156676498Y-89912027D01*
X156677727Y-89903478D01*
X156641187Y-89767111D01*
X156642877Y-89696135D01*
X156682671Y-89637339D01*
X156747935Y-89609391D01*
X156762894Y-89608500D01*
X161313595Y-89608500D01*
X161381716Y-89628502D01*
X161387656Y-89632564D01*
X161390929Y-89634942D01*
X161454881Y-89681406D01*
X161468248Y-89691118D01*
X161474276Y-89693802D01*
X161474278Y-89693803D01*
X161636683Y-89766110D01*
X161636685Y-89766111D01*
X161642712Y-89768794D01*
X161645451Y-89769376D01*
X161702892Y-89808657D01*
X161730527Y-89874054D01*
X161727055Y-89921020D01*
X161721457Y-89941913D01*
X161701502Y-90170000D01*
X161721457Y-90398087D01*
X161722881Y-90403400D01*
X161722881Y-90403402D01*
X161772229Y-90587568D01*
X161780716Y-90619243D01*
X161783039Y-90624224D01*
X161783039Y-90624225D01*
X161875151Y-90821762D01*
X161875154Y-90821767D01*
X161877477Y-90826749D01*
X161880634Y-90831257D01*
X161984078Y-90978990D01*
X162008802Y-91014300D01*
X162170700Y-91176198D01*
X162175208Y-91179355D01*
X162175211Y-91179357D01*
X162253389Y-91234098D01*
X162358251Y-91307523D01*
X162363233Y-91309846D01*
X162363238Y-91309849D01*
X162397457Y-91325805D01*
X162450742Y-91372722D01*
X162470203Y-91440999D01*
X162449661Y-91508959D01*
X162397457Y-91554195D01*
X162363238Y-91570151D01*
X162363233Y-91570154D01*
X162358251Y-91572477D01*
X162253389Y-91645902D01*
X162175211Y-91700643D01*
X162175208Y-91700645D01*
X162170700Y-91703802D01*
X162008802Y-91865700D01*
X161877477Y-92053251D01*
X161875154Y-92058233D01*
X161875151Y-92058238D01*
X161792908Y-92234610D01*
X161780716Y-92260757D01*
X161779294Y-92266065D01*
X161779293Y-92266067D01*
X161728400Y-92456000D01*
X161721457Y-92481913D01*
X161701502Y-92710000D01*
X161721457Y-92938087D01*
X161722881Y-92943400D01*
X161722881Y-92943402D01*
X161772229Y-93127568D01*
X161780716Y-93159243D01*
X161783039Y-93164224D01*
X161783039Y-93164225D01*
X161875151Y-93361762D01*
X161875154Y-93361767D01*
X161877477Y-93366749D01*
X161880634Y-93371257D01*
X161984078Y-93518990D01*
X162008802Y-93554300D01*
X162170700Y-93716198D01*
X162175208Y-93719355D01*
X162175211Y-93719357D01*
X162253389Y-93774098D01*
X162358251Y-93847523D01*
X162363233Y-93849846D01*
X162363238Y-93849849D01*
X162397457Y-93865805D01*
X162450742Y-93912722D01*
X162470203Y-93980999D01*
X162449661Y-94048959D01*
X162397457Y-94094195D01*
X162363238Y-94110151D01*
X162363233Y-94110154D01*
X162358251Y-94112477D01*
X162253389Y-94185902D01*
X162175211Y-94240643D01*
X162175208Y-94240645D01*
X162170700Y-94243802D01*
X162008802Y-94405700D01*
X161877477Y-94593251D01*
X161875154Y-94598233D01*
X161875151Y-94598238D01*
X161792908Y-94774610D01*
X161780716Y-94800757D01*
X161779294Y-94806065D01*
X161779293Y-94806067D01*
X161727407Y-94999707D01*
X161721457Y-95021913D01*
X161701502Y-95250000D01*
X161721457Y-95478087D01*
X161722881Y-95483400D01*
X161722881Y-95483402D01*
X161772229Y-95667568D01*
X161780716Y-95699243D01*
X161783039Y-95704224D01*
X161783039Y-95704225D01*
X161875151Y-95901762D01*
X161875154Y-95901767D01*
X161877477Y-95906749D01*
X161924485Y-95973883D01*
X161984078Y-96058990D01*
X162008802Y-96094300D01*
X162170700Y-96256198D01*
X162175208Y-96259355D01*
X162175211Y-96259357D01*
X162253389Y-96314098D01*
X162358251Y-96387523D01*
X162363233Y-96389846D01*
X162363238Y-96389849D01*
X162397457Y-96405805D01*
X162450742Y-96452722D01*
X162470203Y-96520999D01*
X162449661Y-96588959D01*
X162397457Y-96634195D01*
X162363238Y-96650151D01*
X162363233Y-96650154D01*
X162358251Y-96652477D01*
X162253389Y-96725902D01*
X162175211Y-96780643D01*
X162175208Y-96780645D01*
X162170700Y-96783802D01*
X162008802Y-96945700D01*
X161877477Y-97133251D01*
X161875154Y-97138233D01*
X161875151Y-97138238D01*
X161790719Y-97319305D01*
X161780716Y-97340757D01*
X161779294Y-97346065D01*
X161779293Y-97346067D01*
X161727407Y-97539707D01*
X161721457Y-97561913D01*
X161701502Y-97790000D01*
X161721457Y-98018087D01*
X161722881Y-98023400D01*
X161722881Y-98023402D01*
X161772229Y-98207568D01*
X161780716Y-98239243D01*
X161783039Y-98244224D01*
X161783039Y-98244225D01*
X161875151Y-98441762D01*
X161875154Y-98441767D01*
X161877477Y-98446749D01*
X161924485Y-98513883D01*
X161984078Y-98598990D01*
X162008802Y-98634300D01*
X162170700Y-98796198D01*
X162175208Y-98799355D01*
X162175211Y-98799357D01*
X162253389Y-98854098D01*
X162358251Y-98927523D01*
X162363233Y-98929846D01*
X162363238Y-98929849D01*
X162397457Y-98945805D01*
X162450742Y-98992722D01*
X162470203Y-99060999D01*
X162449661Y-99128959D01*
X162397457Y-99174195D01*
X162363238Y-99190151D01*
X162363233Y-99190154D01*
X162358251Y-99192477D01*
X162253389Y-99265902D01*
X162175211Y-99320643D01*
X162175208Y-99320645D01*
X162170700Y-99323802D01*
X162008802Y-99485700D01*
X161877477Y-99673251D01*
X161875154Y-99678233D01*
X161875151Y-99678238D01*
X161815853Y-99805405D01*
X161780716Y-99880757D01*
X161779294Y-99886065D01*
X161779293Y-99886067D01*
X161723041Y-100096002D01*
X161721457Y-100101913D01*
X161701502Y-100330000D01*
X161721457Y-100558087D01*
X161722881Y-100563400D01*
X161722881Y-100563402D01*
X161732143Y-100597966D01*
X161780716Y-100779243D01*
X161783039Y-100784224D01*
X161783039Y-100784225D01*
X161875151Y-100981762D01*
X161875154Y-100981767D01*
X161877477Y-100986749D01*
X161909668Y-101032722D01*
X161984078Y-101138990D01*
X162008802Y-101174300D01*
X162170700Y-101336198D01*
X162175208Y-101339355D01*
X162175211Y-101339357D01*
X162224931Y-101374171D01*
X162358251Y-101467523D01*
X162363233Y-101469846D01*
X162363238Y-101469849D01*
X162559765Y-101561490D01*
X162565757Y-101564284D01*
X162571065Y-101565706D01*
X162571067Y-101565707D01*
X162781598Y-101622119D01*
X162781600Y-101622119D01*
X162786913Y-101623543D01*
X163015000Y-101643498D01*
X163243087Y-101623543D01*
X163248400Y-101622119D01*
X163248402Y-101622119D01*
X163458933Y-101565707D01*
X163458935Y-101565706D01*
X163464243Y-101564284D01*
X163470235Y-101561490D01*
X163666762Y-101469849D01*
X163666767Y-101469846D01*
X163671749Y-101467523D01*
X163805069Y-101374171D01*
X163854789Y-101339357D01*
X163854792Y-101339355D01*
X163859300Y-101336198D01*
X164021198Y-101174300D01*
X164045923Y-101138990D01*
X164120332Y-101032722D01*
X164152523Y-100986749D01*
X164154846Y-100981767D01*
X164154849Y-100981762D01*
X164246961Y-100784225D01*
X164246961Y-100784224D01*
X164249284Y-100779243D01*
X164297858Y-100597966D01*
X164307119Y-100563402D01*
X164307119Y-100563400D01*
X164308543Y-100558087D01*
X164316888Y-100462703D01*
X166165743Y-100462703D01*
X166166302Y-100466947D01*
X166166302Y-100466951D01*
X166179000Y-100563402D01*
X166203268Y-100747734D01*
X166279129Y-101025036D01*
X166280813Y-101028984D01*
X166361068Y-101217137D01*
X166391923Y-101289476D01*
X166438637Y-101367529D01*
X166496593Y-101464366D01*
X166539561Y-101536161D01*
X166719313Y-101760528D01*
X166927851Y-101958423D01*
X167161317Y-102126186D01*
X167165112Y-102128195D01*
X167165113Y-102128196D01*
X167186869Y-102139715D01*
X167415392Y-102260712D01*
X167685373Y-102359511D01*
X167966264Y-102420755D01*
X167994841Y-102423004D01*
X168189282Y-102438307D01*
X168189291Y-102438307D01*
X168191739Y-102438500D01*
X168347271Y-102438500D01*
X168349407Y-102438354D01*
X168349418Y-102438354D01*
X168557548Y-102424165D01*
X168557554Y-102424164D01*
X168561825Y-102423873D01*
X168566020Y-102423004D01*
X168566022Y-102423004D01*
X168823133Y-102369759D01*
X168843342Y-102365574D01*
X169114343Y-102269607D01*
X169369812Y-102137750D01*
X169373313Y-102135289D01*
X169373317Y-102135287D01*
X169487418Y-102055095D01*
X169605023Y-101972441D01*
X169804222Y-101787334D01*
X169812479Y-101779661D01*
X169812481Y-101779658D01*
X169815622Y-101776740D01*
X169997713Y-101554268D01*
X170147927Y-101309142D01*
X170151927Y-101300031D01*
X170261757Y-101049830D01*
X170263483Y-101045898D01*
X170270213Y-101022274D01*
X170330530Y-100810528D01*
X170342244Y-100769406D01*
X170382751Y-100484784D01*
X170382845Y-100466951D01*
X170384235Y-100201583D01*
X170384235Y-100201576D01*
X170384257Y-100197297D01*
X170371700Y-100101913D01*
X170347292Y-99916522D01*
X170346732Y-99912266D01*
X170331007Y-99854783D01*
X170298317Y-99735291D01*
X170270871Y-99634964D01*
X170207204Y-99485700D01*
X170159763Y-99374476D01*
X170159761Y-99374472D01*
X170158077Y-99370524D01*
X170053668Y-99196069D01*
X170012643Y-99127521D01*
X170012640Y-99127517D01*
X170010439Y-99123839D01*
X169830687Y-98899472D01*
X169622149Y-98701577D01*
X169388683Y-98533814D01*
X169366843Y-98522250D01*
X169232760Y-98451257D01*
X169134608Y-98399288D01*
X168864627Y-98300489D01*
X168583736Y-98239245D01*
X168552685Y-98236801D01*
X168360718Y-98221693D01*
X168360709Y-98221693D01*
X168358261Y-98221500D01*
X168202729Y-98221500D01*
X168200593Y-98221646D01*
X168200582Y-98221646D01*
X167992452Y-98235835D01*
X167992446Y-98235836D01*
X167988175Y-98236127D01*
X167983980Y-98236996D01*
X167983978Y-98236996D01*
X167854232Y-98263865D01*
X167706658Y-98294426D01*
X167435657Y-98390393D01*
X167180188Y-98522250D01*
X167176687Y-98524711D01*
X167176683Y-98524713D01*
X167163734Y-98533814D01*
X166944977Y-98687559D01*
X166734378Y-98883260D01*
X166552287Y-99105732D01*
X166402073Y-99350858D01*
X166400347Y-99354791D01*
X166400346Y-99354792D01*
X166340901Y-99490211D01*
X166286517Y-99614102D01*
X166285342Y-99618229D01*
X166285341Y-99618230D01*
X166261793Y-99700897D01*
X166207756Y-99890594D01*
X166167249Y-100175216D01*
X166167227Y-100179505D01*
X166167226Y-100179512D01*
X166166035Y-100406920D01*
X166165743Y-100462703D01*
X164316888Y-100462703D01*
X164328498Y-100330000D01*
X164308543Y-100101913D01*
X164306959Y-100096002D01*
X164250707Y-99886067D01*
X164250706Y-99886065D01*
X164249284Y-99880757D01*
X164214147Y-99805405D01*
X164154849Y-99678238D01*
X164154846Y-99678233D01*
X164152523Y-99673251D01*
X164021198Y-99485700D01*
X163859300Y-99323802D01*
X163854792Y-99320645D01*
X163854789Y-99320643D01*
X163776611Y-99265902D01*
X163671749Y-99192477D01*
X163666767Y-99190154D01*
X163666762Y-99190151D01*
X163632543Y-99174195D01*
X163579258Y-99127278D01*
X163559797Y-99059001D01*
X163580339Y-98991041D01*
X163632543Y-98945805D01*
X163666762Y-98929849D01*
X163666767Y-98929846D01*
X163671749Y-98927523D01*
X163776611Y-98854098D01*
X163854789Y-98799357D01*
X163854792Y-98799355D01*
X163859300Y-98796198D01*
X164021198Y-98634300D01*
X164045923Y-98598990D01*
X164105515Y-98513883D01*
X164152523Y-98446749D01*
X164154846Y-98441767D01*
X164154849Y-98441762D01*
X164246961Y-98244225D01*
X164246961Y-98244224D01*
X164249284Y-98239243D01*
X164257772Y-98207568D01*
X164307119Y-98023402D01*
X164307119Y-98023400D01*
X164308543Y-98018087D01*
X164328498Y-97790000D01*
X164308543Y-97561913D01*
X164302593Y-97539707D01*
X164250707Y-97346067D01*
X164250706Y-97346065D01*
X164249284Y-97340757D01*
X164239281Y-97319305D01*
X164154849Y-97138238D01*
X164154846Y-97138233D01*
X164152523Y-97133251D01*
X164021198Y-96945700D01*
X163859300Y-96783802D01*
X163854792Y-96780645D01*
X163854789Y-96780643D01*
X163776611Y-96725902D01*
X163671749Y-96652477D01*
X163666767Y-96650154D01*
X163666762Y-96650151D01*
X163632543Y-96634195D01*
X163579258Y-96587278D01*
X163559797Y-96519001D01*
X163580339Y-96451041D01*
X163632543Y-96405805D01*
X163666762Y-96389849D01*
X163666767Y-96389846D01*
X163671749Y-96387523D01*
X163776611Y-96314098D01*
X163854789Y-96259357D01*
X163854792Y-96259355D01*
X163859300Y-96256198D01*
X164021198Y-96094300D01*
X164045923Y-96058990D01*
X164105515Y-95973883D01*
X164152523Y-95906749D01*
X164154846Y-95901767D01*
X164154849Y-95901762D01*
X164246961Y-95704225D01*
X164246961Y-95704224D01*
X164249284Y-95699243D01*
X164257772Y-95667568D01*
X164307119Y-95483402D01*
X164307119Y-95483400D01*
X164308543Y-95478087D01*
X164328498Y-95250000D01*
X164308543Y-95021913D01*
X164302593Y-94999707D01*
X164250707Y-94806067D01*
X164250706Y-94806065D01*
X164249284Y-94800757D01*
X164237092Y-94774610D01*
X164154849Y-94598238D01*
X164154846Y-94598233D01*
X164152523Y-94593251D01*
X164021198Y-94405700D01*
X163859300Y-94243802D01*
X163854792Y-94240645D01*
X163854789Y-94240643D01*
X163776611Y-94185902D01*
X163671749Y-94112477D01*
X163666767Y-94110154D01*
X163666762Y-94110151D01*
X163632543Y-94094195D01*
X163579258Y-94047278D01*
X163559797Y-93979001D01*
X163580339Y-93911041D01*
X163632543Y-93865805D01*
X163666762Y-93849849D01*
X163666767Y-93849846D01*
X163671749Y-93847523D01*
X163776611Y-93774098D01*
X163854789Y-93719357D01*
X163854792Y-93719355D01*
X163859300Y-93716198D01*
X164021198Y-93554300D01*
X164045923Y-93518990D01*
X164149366Y-93371257D01*
X164152523Y-93366749D01*
X164154846Y-93361767D01*
X164154849Y-93361762D01*
X164246961Y-93164225D01*
X164246961Y-93164224D01*
X164249284Y-93159243D01*
X164257772Y-93127568D01*
X164307119Y-92943402D01*
X164307119Y-92943400D01*
X164308543Y-92938087D01*
X164328498Y-92710000D01*
X164308543Y-92481913D01*
X164301600Y-92456000D01*
X164250707Y-92266067D01*
X164250706Y-92266065D01*
X164249284Y-92260757D01*
X164237092Y-92234610D01*
X164154849Y-92058238D01*
X164154846Y-92058233D01*
X164152523Y-92053251D01*
X164021198Y-91865700D01*
X163859300Y-91703802D01*
X163854792Y-91700645D01*
X163854789Y-91700643D01*
X163776611Y-91645902D01*
X163671749Y-91572477D01*
X163666767Y-91570154D01*
X163666762Y-91570151D01*
X163632543Y-91554195D01*
X163579258Y-91507278D01*
X163559797Y-91439001D01*
X163580339Y-91371041D01*
X163632543Y-91325805D01*
X163666762Y-91309849D01*
X163666767Y-91309846D01*
X163671749Y-91307523D01*
X163776611Y-91234098D01*
X163854789Y-91179357D01*
X163854792Y-91179355D01*
X163859300Y-91176198D01*
X164021198Y-91014300D01*
X164045923Y-90978990D01*
X164149366Y-90831257D01*
X164152523Y-90826749D01*
X164154846Y-90821767D01*
X164154849Y-90821762D01*
X164246961Y-90624225D01*
X164246961Y-90624224D01*
X164249284Y-90619243D01*
X164257772Y-90587568D01*
X164307119Y-90403402D01*
X164307119Y-90403400D01*
X164308543Y-90398087D01*
X164328498Y-90170000D01*
X164308543Y-89941913D01*
X164307119Y-89936598D01*
X164250707Y-89726067D01*
X164250706Y-89726065D01*
X164249284Y-89720757D01*
X164235463Y-89691118D01*
X164154849Y-89518238D01*
X164154846Y-89518233D01*
X164152523Y-89513251D01*
X164021198Y-89325700D01*
X163859300Y-89163802D01*
X163854792Y-89160645D01*
X163854789Y-89160643D01*
X163776611Y-89105902D01*
X163671749Y-89032477D01*
X163666767Y-89030154D01*
X163666762Y-89030151D01*
X163632543Y-89014195D01*
X163579258Y-88967278D01*
X163559797Y-88899001D01*
X163580339Y-88831041D01*
X163632543Y-88785805D01*
X163666762Y-88769849D01*
X163666767Y-88769846D01*
X163671749Y-88767523D01*
X163776611Y-88694098D01*
X163854789Y-88639357D01*
X163854792Y-88639355D01*
X163859300Y-88636198D01*
X164021198Y-88474300D01*
X164045923Y-88438990D01*
X164149366Y-88291257D01*
X164152523Y-88286749D01*
X164154846Y-88281767D01*
X164154849Y-88281762D01*
X164246961Y-88084225D01*
X164246961Y-88084224D01*
X164249284Y-88079243D01*
X164257772Y-88047568D01*
X164307119Y-87863402D01*
X164307120Y-87863399D01*
X164308543Y-87858087D01*
X164328498Y-87630000D01*
X164308543Y-87401913D01*
X164302593Y-87379707D01*
X164250707Y-87186067D01*
X164250706Y-87186065D01*
X164249284Y-87180757D01*
X164237092Y-87154610D01*
X164154849Y-86978238D01*
X164154845Y-86978231D01*
X164152523Y-86973251D01*
X164048202Y-86824266D01*
X164024357Y-86790211D01*
X164024355Y-86790208D01*
X164021198Y-86785700D01*
X163859300Y-86623802D01*
X163854792Y-86620645D01*
X163854789Y-86620643D01*
X163689202Y-86504698D01*
X163671749Y-86492477D01*
X163666767Y-86490154D01*
X163666762Y-86490151D01*
X163632543Y-86474195D01*
X163579258Y-86427278D01*
X163559797Y-86359001D01*
X163580339Y-86291041D01*
X163632543Y-86245805D01*
X163666762Y-86229849D01*
X163666767Y-86229846D01*
X163671749Y-86227523D01*
X163803221Y-86135465D01*
X163854789Y-86099357D01*
X163854792Y-86099355D01*
X163859300Y-86096198D01*
X164021198Y-85934300D01*
X164045923Y-85898990D01*
X164109704Y-85807901D01*
X164152523Y-85746749D01*
X164154846Y-85741767D01*
X164154849Y-85741762D01*
X164246961Y-85544225D01*
X164246961Y-85544224D01*
X164249284Y-85539243D01*
X164259150Y-85502425D01*
X164307119Y-85323402D01*
X164307119Y-85323400D01*
X164308543Y-85318087D01*
X164328498Y-85090000D01*
X164308543Y-84861913D01*
X164302593Y-84839707D01*
X164250707Y-84646067D01*
X164250706Y-84646065D01*
X164249284Y-84640757D01*
X164237092Y-84614610D01*
X164154849Y-84438238D01*
X164154846Y-84438233D01*
X164152523Y-84433251D01*
X164021198Y-84245700D01*
X163859300Y-84083802D01*
X163854792Y-84080645D01*
X163854789Y-84080643D01*
X163776611Y-84025902D01*
X163671749Y-83952477D01*
X163666767Y-83950154D01*
X163666762Y-83950151D01*
X163632543Y-83934195D01*
X163579258Y-83887278D01*
X163559797Y-83819001D01*
X163580339Y-83751041D01*
X163632543Y-83705805D01*
X163666762Y-83689849D01*
X163666767Y-83689846D01*
X163671749Y-83687523D01*
X163813464Y-83588293D01*
X163854789Y-83559357D01*
X163854792Y-83559355D01*
X163859300Y-83556198D01*
X164021198Y-83394300D01*
X164045923Y-83358990D01*
X164149366Y-83211257D01*
X164152523Y-83206749D01*
X164154846Y-83201767D01*
X164154849Y-83201762D01*
X164246961Y-83004225D01*
X164246961Y-83004224D01*
X164249284Y-82999243D01*
X164257772Y-82967568D01*
X164307119Y-82783402D01*
X164307119Y-82783400D01*
X164308543Y-82778087D01*
X164328498Y-82550000D01*
X164308543Y-82321913D01*
X164301600Y-82296000D01*
X164250707Y-82106067D01*
X164250706Y-82106065D01*
X164249284Y-82100757D01*
X164235463Y-82071118D01*
X164154849Y-81898238D01*
X164154846Y-81898233D01*
X164152523Y-81893251D01*
X164065402Y-81768830D01*
X164024357Y-81710211D01*
X164024355Y-81710208D01*
X164021198Y-81705700D01*
X163859300Y-81543802D01*
X163854792Y-81540645D01*
X163854789Y-81540643D01*
X163689202Y-81424698D01*
X163671749Y-81412477D01*
X163666767Y-81410154D01*
X163666762Y-81410151D01*
X163469225Y-81318039D01*
X163469224Y-81318039D01*
X163464243Y-81315716D01*
X163458935Y-81314294D01*
X163458933Y-81314293D01*
X163248402Y-81257881D01*
X163248400Y-81257881D01*
X163243087Y-81256457D01*
X163015000Y-81236502D01*
X162786913Y-81256457D01*
X162781600Y-81257881D01*
X162781598Y-81257881D01*
X162571067Y-81314293D01*
X162571065Y-81314294D01*
X162565757Y-81315716D01*
X162560776Y-81318039D01*
X162560775Y-81318039D01*
X162363238Y-81410151D01*
X162363233Y-81410154D01*
X162358251Y-81412477D01*
X162340798Y-81424698D01*
X162175211Y-81540643D01*
X162175208Y-81540645D01*
X162170700Y-81543802D01*
X162008802Y-81705700D01*
X162005645Y-81710208D01*
X162005643Y-81710211D01*
X161964598Y-81768830D01*
X161877477Y-81893251D01*
X161875154Y-81898233D01*
X161875151Y-81898238D01*
X161794537Y-82071118D01*
X161780716Y-82100757D01*
X161779294Y-82106065D01*
X161779293Y-82106067D01*
X161728400Y-82296000D01*
X161721457Y-82321913D01*
X161701502Y-82550000D01*
X161721457Y-82778087D01*
X161722881Y-82783400D01*
X161722881Y-82783402D01*
X161772229Y-82967568D01*
X161780716Y-82999243D01*
X161783039Y-83004224D01*
X161783039Y-83004225D01*
X161875151Y-83201762D01*
X161875154Y-83201767D01*
X161877477Y-83206749D01*
X161880634Y-83211257D01*
X161984078Y-83358990D01*
X162008802Y-83394300D01*
X162170700Y-83556198D01*
X162175208Y-83559355D01*
X162175211Y-83559357D01*
X162216536Y-83588293D01*
X162358251Y-83687523D01*
X162363233Y-83689846D01*
X162363238Y-83689849D01*
X162397457Y-83705805D01*
X162450742Y-83752722D01*
X162470203Y-83820999D01*
X162449661Y-83888959D01*
X162397457Y-83934195D01*
X162363238Y-83950151D01*
X162363233Y-83950154D01*
X162358251Y-83952477D01*
X162253389Y-84025902D01*
X162175211Y-84080643D01*
X162175208Y-84080645D01*
X162170700Y-84083802D01*
X162008802Y-84245700D01*
X161877477Y-84433251D01*
X161875154Y-84438233D01*
X161875151Y-84438238D01*
X161792908Y-84614610D01*
X161780716Y-84640757D01*
X161779294Y-84646065D01*
X161779293Y-84646067D01*
X161727407Y-84839707D01*
X161721457Y-84861913D01*
X161701502Y-85090000D01*
X161721457Y-85318087D01*
X161722881Y-85323400D01*
X161722881Y-85323402D01*
X161770851Y-85502425D01*
X161780716Y-85539243D01*
X161783039Y-85544224D01*
X161783039Y-85544225D01*
X161875151Y-85741762D01*
X161875154Y-85741767D01*
X161877477Y-85746749D01*
X161920296Y-85807901D01*
X161984078Y-85898990D01*
X162008802Y-85934300D01*
X162170700Y-86096198D01*
X162175208Y-86099355D01*
X162175211Y-86099357D01*
X162226779Y-86135465D01*
X162358251Y-86227523D01*
X162363233Y-86229846D01*
X162363238Y-86229849D01*
X162397457Y-86245805D01*
X162450742Y-86292722D01*
X162470203Y-86360999D01*
X162449661Y-86428959D01*
X162397457Y-86474195D01*
X162363238Y-86490151D01*
X162363233Y-86490154D01*
X162358251Y-86492477D01*
X162340798Y-86504698D01*
X162175211Y-86620643D01*
X162175208Y-86620645D01*
X162170700Y-86623802D01*
X162008802Y-86785700D01*
X162005645Y-86790208D01*
X162005643Y-86790211D01*
X161981798Y-86824266D01*
X161877477Y-86973251D01*
X161875155Y-86978231D01*
X161875151Y-86978238D01*
X161792908Y-87154610D01*
X161780716Y-87180757D01*
X161779294Y-87186065D01*
X161779293Y-87186067D01*
X161727407Y-87379707D01*
X161721457Y-87401913D01*
X161701502Y-87630000D01*
X161721457Y-87858087D01*
X161727055Y-87878978D01*
X161725365Y-87949952D01*
X161685571Y-88008748D01*
X161645916Y-88030525D01*
X161642712Y-88031206D01*
X161636685Y-88033889D01*
X161636683Y-88033890D01*
X161474278Y-88106197D01*
X161474276Y-88106198D01*
X161468248Y-88108882D01*
X161462907Y-88112762D01*
X161462906Y-88112763D01*
X161387656Y-88167436D01*
X161320789Y-88191294D01*
X161313595Y-88191500D01*
X156763412Y-88191500D01*
X156695291Y-88171498D01*
X156648798Y-88117842D01*
X156638694Y-88047568D01*
X156641705Y-88032889D01*
X156687119Y-87863402D01*
X156687120Y-87863399D01*
X156688543Y-87858087D01*
X156708498Y-87630000D01*
X156688543Y-87401913D01*
X156682593Y-87379707D01*
X156630707Y-87186067D01*
X156630706Y-87186065D01*
X156629284Y-87180757D01*
X156617092Y-87154610D01*
X156534849Y-86978238D01*
X156534845Y-86978231D01*
X156532523Y-86973251D01*
X156428202Y-86824266D01*
X156404357Y-86790211D01*
X156404355Y-86790208D01*
X156401198Y-86785700D01*
X156239300Y-86623802D01*
X156234792Y-86620645D01*
X156234789Y-86620643D01*
X156069202Y-86504698D01*
X156051749Y-86492477D01*
X156046767Y-86490154D01*
X156046762Y-86490151D01*
X156012543Y-86474195D01*
X155959258Y-86427278D01*
X155939797Y-86359001D01*
X155960339Y-86291041D01*
X156012543Y-86245805D01*
X156046762Y-86229849D01*
X156046767Y-86229846D01*
X156051749Y-86227523D01*
X156183221Y-86135465D01*
X156234789Y-86099357D01*
X156234792Y-86099355D01*
X156239300Y-86096198D01*
X156401198Y-85934300D01*
X156425923Y-85898990D01*
X156489704Y-85807901D01*
X156532523Y-85746749D01*
X156534846Y-85741767D01*
X156534849Y-85741762D01*
X156626961Y-85544225D01*
X156626961Y-85544224D01*
X156629284Y-85539243D01*
X156639150Y-85502425D01*
X156687119Y-85323402D01*
X156687119Y-85323400D01*
X156688543Y-85318087D01*
X156708498Y-85090000D01*
X156688543Y-84861913D01*
X156682593Y-84839707D01*
X156630707Y-84646067D01*
X156630706Y-84646065D01*
X156629284Y-84640757D01*
X156617092Y-84614610D01*
X156534849Y-84438238D01*
X156534846Y-84438233D01*
X156532523Y-84433251D01*
X156401198Y-84245700D01*
X156239300Y-84083802D01*
X156234789Y-84080643D01*
X156230576Y-84077108D01*
X156231527Y-84075974D01*
X156191529Y-84025929D01*
X156184224Y-83955310D01*
X156216258Y-83891951D01*
X156277462Y-83855970D01*
X156294517Y-83852918D01*
X156305316Y-83851745D01*
X156441705Y-83800615D01*
X156558261Y-83713261D01*
X156645615Y-83596705D01*
X156696745Y-83460316D01*
X156703500Y-83398134D01*
X156703500Y-81701866D01*
X156696745Y-81639684D01*
X156645615Y-81503295D01*
X156558261Y-81386739D01*
X156441705Y-81299385D01*
X156305316Y-81248255D01*
X156243134Y-81241500D01*
X155140660Y-81241500D01*
X155072539Y-81221498D01*
X155051565Y-81204595D01*
X154646450Y-80799480D01*
X154640596Y-80793215D01*
X154640201Y-80792762D01*
X154602561Y-80749615D01*
X154550280Y-80712871D01*
X154544986Y-80708939D01*
X154500693Y-80674209D01*
X154494718Y-80669524D01*
X154487802Y-80666401D01*
X154485516Y-80665017D01*
X154470835Y-80656643D01*
X154468475Y-80655378D01*
X154462261Y-80651010D01*
X154455182Y-80648250D01*
X154455180Y-80648249D01*
X154402725Y-80627798D01*
X154396656Y-80625247D01*
X154340910Y-80600076D01*
X154287057Y-80553814D01*
X154266764Y-80485780D01*
X154271056Y-80452630D01*
X154328543Y-80238087D01*
X154330715Y-80238669D01*
X154357939Y-80183706D01*
X154418845Y-80147222D01*
X154489806Y-80149458D01*
X154548294Y-80189703D01*
X154553730Y-80196904D01*
X154566026Y-80214464D01*
X154573084Y-80222875D01*
X154727125Y-80376916D01*
X154735533Y-80383972D01*
X154913993Y-80508931D01*
X154923489Y-80514414D01*
X155120947Y-80606490D01*
X155131239Y-80610236D01*
X155303503Y-80656394D01*
X155317599Y-80656058D01*
X155321000Y-80648116D01*
X155321000Y-80642967D01*
X155829000Y-80642967D01*
X155832973Y-80656498D01*
X155841522Y-80657727D01*
X156018761Y-80610236D01*
X156029053Y-80606490D01*
X156226511Y-80514414D01*
X156236007Y-80508931D01*
X156414467Y-80383972D01*
X156422875Y-80376916D01*
X156576916Y-80222875D01*
X156583972Y-80214467D01*
X156708931Y-80036007D01*
X156714414Y-80026511D01*
X156806490Y-79829053D01*
X156810236Y-79818761D01*
X156856394Y-79646497D01*
X156856058Y-79632401D01*
X156848116Y-79629000D01*
X155847115Y-79629000D01*
X155831876Y-79633475D01*
X155830671Y-79634865D01*
X155829000Y-79642548D01*
X155829000Y-80642967D01*
X155321000Y-80642967D01*
X155321000Y-79247000D01*
X155341002Y-79178879D01*
X155394658Y-79132386D01*
X155447000Y-79121000D01*
X156842967Y-79121000D01*
X156856498Y-79117027D01*
X156857727Y-79108478D01*
X156810236Y-78931239D01*
X156806490Y-78920947D01*
X156714414Y-78723489D01*
X156708931Y-78713993D01*
X156583972Y-78535533D01*
X156576916Y-78527125D01*
X156443386Y-78393595D01*
X156409360Y-78331283D01*
X156414425Y-78260468D01*
X156456972Y-78203632D01*
X156523492Y-78178821D01*
X156532481Y-78178500D01*
X160824340Y-78178500D01*
X160892461Y-78198502D01*
X160913435Y-78215405D01*
X161745018Y-79046988D01*
X161779044Y-79109300D01*
X161781444Y-79147063D01*
X161761502Y-79375000D01*
X161781457Y-79603087D01*
X161782881Y-79608400D01*
X161782881Y-79608402D01*
X161832262Y-79792691D01*
X161840716Y-79824243D01*
X161843039Y-79829224D01*
X161843039Y-79829225D01*
X161935151Y-80026762D01*
X161935154Y-80026767D01*
X161937477Y-80031749D01*
X161940634Y-80036257D01*
X162065416Y-80214464D01*
X162068802Y-80219300D01*
X162230700Y-80381198D01*
X162235208Y-80384355D01*
X162235211Y-80384357D01*
X162275541Y-80412596D01*
X162418251Y-80512523D01*
X162423233Y-80514846D01*
X162423238Y-80514849D01*
X162596272Y-80595535D01*
X162625757Y-80609284D01*
X162631065Y-80610706D01*
X162631067Y-80610707D01*
X162841598Y-80667119D01*
X162841600Y-80667119D01*
X162846913Y-80668543D01*
X163075000Y-80688498D01*
X163303087Y-80668543D01*
X163308400Y-80667119D01*
X163308402Y-80667119D01*
X163518933Y-80610707D01*
X163518935Y-80610706D01*
X163524243Y-80609284D01*
X163553728Y-80595535D01*
X163726762Y-80514849D01*
X163726767Y-80514846D01*
X163731749Y-80512523D01*
X163874459Y-80412596D01*
X163914789Y-80384357D01*
X163914792Y-80384355D01*
X163919300Y-80381198D01*
X164081198Y-80219300D01*
X164084585Y-80214464D01*
X164209366Y-80036257D01*
X164212523Y-80031749D01*
X164214846Y-80026767D01*
X164214849Y-80026762D01*
X164306961Y-79829225D01*
X164306961Y-79829224D01*
X164309284Y-79824243D01*
X164317739Y-79792691D01*
X164367119Y-79608402D01*
X164367119Y-79608400D01*
X164368543Y-79603087D01*
X164388498Y-79375000D01*
X164368543Y-79146913D01*
X164367119Y-79141598D01*
X164310707Y-78931067D01*
X164310706Y-78931065D01*
X164309284Y-78925757D01*
X164306961Y-78920775D01*
X164214849Y-78723238D01*
X164214846Y-78723233D01*
X164212523Y-78718251D01*
X164081198Y-78530700D01*
X163919300Y-78368802D01*
X163914792Y-78365645D01*
X163914789Y-78365643D01*
X163835021Y-78309789D01*
X163731749Y-78237477D01*
X163726767Y-78235154D01*
X163726762Y-78235151D01*
X163529225Y-78143039D01*
X163529224Y-78143039D01*
X163524243Y-78140716D01*
X163518935Y-78139294D01*
X163518933Y-78139293D01*
X163308402Y-78082881D01*
X163308400Y-78082881D01*
X163303087Y-78081457D01*
X163075000Y-78061502D01*
X162847064Y-78081444D01*
X162777460Y-78067455D01*
X162746988Y-78045018D01*
X161691450Y-76989480D01*
X161685596Y-76983215D01*
X161684018Y-76981406D01*
X161647561Y-76939615D01*
X161595280Y-76902871D01*
X161589986Y-76898939D01*
X161545693Y-76864209D01*
X161539718Y-76859524D01*
X161532802Y-76856401D01*
X161530516Y-76855017D01*
X161515835Y-76846643D01*
X161513475Y-76845378D01*
X161507261Y-76841010D01*
X161500182Y-76838250D01*
X161500180Y-76838249D01*
X161447725Y-76817798D01*
X161441656Y-76815247D01*
X161383427Y-76788955D01*
X161375960Y-76787571D01*
X161373405Y-76786770D01*
X161357152Y-76782141D01*
X161354572Y-76781478D01*
X161347491Y-76778718D01*
X161339960Y-76777727D01*
X161339958Y-76777726D01*
X161310339Y-76773827D01*
X161284139Y-76770378D01*
X161277641Y-76769348D01*
X161214814Y-76757704D01*
X161207234Y-76758141D01*
X161207233Y-76758141D01*
X161152608Y-76761291D01*
X161145354Y-76761500D01*
X155920660Y-76761500D01*
X155852539Y-76741498D01*
X155831565Y-76724595D01*
X155239665Y-76132695D01*
X155205639Y-76070383D01*
X155203450Y-76056770D01*
X155202385Y-76046632D01*
X155198542Y-76010072D01*
X155139527Y-75828444D01*
X155044040Y-75663056D01*
X154916253Y-75521134D01*
X154817157Y-75449136D01*
X154767094Y-75412763D01*
X154767093Y-75412762D01*
X154761752Y-75408882D01*
X154755724Y-75406198D01*
X154755722Y-75406197D01*
X154593319Y-75333891D01*
X154593318Y-75333891D01*
X154587288Y-75331206D01*
X154464622Y-75305132D01*
X154427017Y-75297139D01*
X154364543Y-75263410D01*
X154330222Y-75201261D01*
X154329262Y-75158150D01*
X154328543Y-75158087D01*
X154348019Y-74935475D01*
X154348498Y-74930000D01*
X154328543Y-74701913D01*
X154322593Y-74679707D01*
X154270707Y-74486067D01*
X154270706Y-74486065D01*
X154269284Y-74480757D01*
X154257092Y-74454610D01*
X154174849Y-74278238D01*
X154174846Y-74278233D01*
X154172523Y-74273251D01*
X154041198Y-74085700D01*
X153879300Y-73923802D01*
X153874792Y-73920645D01*
X153874789Y-73920643D01*
X153796611Y-73865902D01*
X153691749Y-73792477D01*
X153686767Y-73790154D01*
X153686762Y-73790151D01*
X153652543Y-73774195D01*
X153599258Y-73727278D01*
X153579797Y-73659001D01*
X153600339Y-73591041D01*
X153652543Y-73545805D01*
X153686762Y-73529849D01*
X153686767Y-73529846D01*
X153691749Y-73527523D01*
X153796611Y-73454098D01*
X153874789Y-73399357D01*
X153874792Y-73399355D01*
X153879300Y-73396198D01*
X154041198Y-73234300D01*
X154065923Y-73198990D01*
X154169366Y-73051257D01*
X154172523Y-73046749D01*
X154174846Y-73041767D01*
X154174849Y-73041762D01*
X154266961Y-72844225D01*
X154266961Y-72844224D01*
X154269284Y-72839243D01*
X154277772Y-72807568D01*
X154327119Y-72623402D01*
X154327119Y-72623400D01*
X154328543Y-72618087D01*
X154348498Y-72390000D01*
X154328543Y-72161913D01*
X154322593Y-72139707D01*
X154270707Y-71946067D01*
X154270706Y-71946065D01*
X154269284Y-71940757D01*
X154255463Y-71911118D01*
X154174849Y-71738238D01*
X154174846Y-71738233D01*
X154172523Y-71733251D01*
X154041198Y-71545700D01*
X153879300Y-71383802D01*
X153874792Y-71380645D01*
X153874789Y-71380643D01*
X153796611Y-71325902D01*
X153691749Y-71252477D01*
X153686767Y-71250154D01*
X153686762Y-71250151D01*
X153652543Y-71234195D01*
X153599258Y-71187278D01*
X153579797Y-71119001D01*
X153600339Y-71051041D01*
X153652543Y-71005805D01*
X153686762Y-70989849D01*
X153686767Y-70989846D01*
X153691749Y-70987523D01*
X153796611Y-70914098D01*
X153874789Y-70859357D01*
X153874792Y-70859355D01*
X153879300Y-70856198D01*
X154041198Y-70694300D01*
X154065923Y-70658990D01*
X154169366Y-70511257D01*
X154172523Y-70506749D01*
X154174846Y-70501767D01*
X154174849Y-70501762D01*
X154266961Y-70304225D01*
X154266961Y-70304224D01*
X154269284Y-70299243D01*
X154277772Y-70267568D01*
X154327119Y-70083402D01*
X154327119Y-70083400D01*
X154328543Y-70078087D01*
X154348498Y-69850000D01*
X154328543Y-69621913D01*
X154327119Y-69616598D01*
X154270707Y-69406067D01*
X154270706Y-69406065D01*
X154269284Y-69400757D01*
X154234147Y-69325405D01*
X154174849Y-69198238D01*
X154174846Y-69198233D01*
X154172523Y-69193251D01*
X154041198Y-69005700D01*
X153879300Y-68843802D01*
X153874792Y-68840645D01*
X153874789Y-68840643D01*
X153796611Y-68785902D01*
X153691749Y-68712477D01*
X153686767Y-68710154D01*
X153686762Y-68710151D01*
X153652543Y-68694195D01*
X153599258Y-68647278D01*
X153579797Y-68579001D01*
X153600339Y-68511041D01*
X153652543Y-68465805D01*
X153686762Y-68449849D01*
X153686767Y-68449846D01*
X153691749Y-68447523D01*
X153796611Y-68374098D01*
X153874789Y-68319357D01*
X153874792Y-68319355D01*
X153879300Y-68316198D01*
X154041198Y-68154300D01*
X154065923Y-68118990D01*
X154138842Y-68014850D01*
X154172523Y-67966749D01*
X154174846Y-67961767D01*
X154174849Y-67961762D01*
X154266961Y-67764225D01*
X154266961Y-67764224D01*
X154269284Y-67759243D01*
X154272967Y-67745500D01*
X154327119Y-67543402D01*
X154327120Y-67543399D01*
X154328543Y-67538087D01*
X154348498Y-67310000D01*
X154328543Y-67081913D01*
X154329815Y-67081802D01*
X154337002Y-67017419D01*
X154381773Y-66962319D01*
X154427017Y-66942861D01*
X154464622Y-66934868D01*
X154587288Y-66908794D01*
X154683255Y-66866067D01*
X154755722Y-66833803D01*
X154755724Y-66833802D01*
X154761752Y-66831118D01*
X154774085Y-66822158D01*
X154817157Y-66790864D01*
X154916253Y-66718866D01*
X154936633Y-66696232D01*
X155039621Y-66581852D01*
X155039622Y-66581851D01*
X155044040Y-66576944D01*
X155116097Y-66452138D01*
X155136223Y-66417279D01*
X155136224Y-66417278D01*
X155139527Y-66411556D01*
X155198542Y-66229928D01*
X155204249Y-66175634D01*
X155217814Y-66046565D01*
X155218504Y-66040000D01*
X155215492Y-66011344D01*
X155199232Y-65856635D01*
X155199232Y-65856633D01*
X155198542Y-65850072D01*
X155139527Y-65668444D01*
X155044040Y-65503056D01*
X155016147Y-65472077D01*
X154920675Y-65366045D01*
X154920674Y-65366044D01*
X154916253Y-65361134D01*
X154793311Y-65271811D01*
X154767094Y-65252763D01*
X154767093Y-65252762D01*
X154761752Y-65248882D01*
X154755724Y-65246198D01*
X154755722Y-65246197D01*
X154593319Y-65173891D01*
X154593318Y-65173891D01*
X154587288Y-65171206D01*
X154493887Y-65151353D01*
X154406944Y-65132872D01*
X154406939Y-65132872D01*
X154400487Y-65131500D01*
X154209513Y-65131500D01*
X154203061Y-65132872D01*
X154203056Y-65132872D01*
X154058457Y-65163608D01*
X153987666Y-65158206D01*
X153931034Y-65115389D01*
X153906540Y-65048751D01*
X153921961Y-64979450D01*
X153929047Y-64968090D01*
X153931374Y-64964767D01*
X154052523Y-64791749D01*
X154054846Y-64786767D01*
X154054849Y-64786762D01*
X154146961Y-64589225D01*
X154146961Y-64589224D01*
X154149284Y-64584243D01*
X154157772Y-64552568D01*
X154207119Y-64368402D01*
X154207119Y-64368400D01*
X154208543Y-64363087D01*
X154228498Y-64135000D01*
X154208543Y-63906913D01*
X154207119Y-63901598D01*
X154150707Y-63691067D01*
X154150706Y-63691065D01*
X154149284Y-63685757D01*
X154143255Y-63672828D01*
X154054849Y-63483238D01*
X154054846Y-63483233D01*
X154052523Y-63478251D01*
X153958048Y-63343327D01*
X153924357Y-63295211D01*
X153924355Y-63295208D01*
X153921198Y-63290700D01*
X153759300Y-63128802D01*
X153754792Y-63125645D01*
X153754789Y-63125643D01*
X153655578Y-63056175D01*
X153571749Y-62997477D01*
X153566767Y-62995154D01*
X153566762Y-62995151D01*
X153369225Y-62903039D01*
X153369224Y-62903039D01*
X153364243Y-62900716D01*
X153358935Y-62899294D01*
X153358933Y-62899293D01*
X153148402Y-62842881D01*
X153148400Y-62842881D01*
X153143087Y-62841457D01*
X152915000Y-62821502D01*
X152686913Y-62841457D01*
X152681600Y-62842881D01*
X152681598Y-62842881D01*
X152471067Y-62899293D01*
X152471065Y-62899294D01*
X152465757Y-62900716D01*
X152460776Y-62903039D01*
X152460775Y-62903039D01*
X152263238Y-62995151D01*
X152263233Y-62995154D01*
X152258251Y-62997477D01*
X152174422Y-63056175D01*
X152075211Y-63125643D01*
X152075208Y-63125645D01*
X152070700Y-63128802D01*
X151908802Y-63290700D01*
X151905645Y-63295208D01*
X151905643Y-63295211D01*
X151849070Y-63376006D01*
X151793613Y-63420334D01*
X151722994Y-63427643D01*
X151671800Y-63405673D01*
X151586752Y-63343882D01*
X151580724Y-63341198D01*
X151580722Y-63341197D01*
X151418319Y-63268891D01*
X151418318Y-63268891D01*
X151412288Y-63266206D01*
X151259431Y-63233715D01*
X151196533Y-63199563D01*
X150387817Y-62390847D01*
X150353791Y-62328535D01*
X150358856Y-62257720D01*
X150401347Y-62200927D01*
X150438261Y-62173261D01*
X150525615Y-62056705D01*
X150545309Y-62004171D01*
X150569598Y-61939382D01*
X150612240Y-61882618D01*
X150678802Y-61857918D01*
X150748150Y-61873126D01*
X150782817Y-61901114D01*
X150811250Y-61933938D01*
X150983126Y-62076632D01*
X151176000Y-62189338D01*
X151384692Y-62269030D01*
X151389760Y-62270061D01*
X151389763Y-62270062D01*
X151434939Y-62279253D01*
X151603597Y-62313567D01*
X151608772Y-62313757D01*
X151608774Y-62313757D01*
X151821673Y-62321564D01*
X151821677Y-62321564D01*
X151826837Y-62321753D01*
X151831957Y-62321097D01*
X151831959Y-62321097D01*
X152043288Y-62294025D01*
X152043289Y-62294025D01*
X152048416Y-62293368D01*
X152086391Y-62281975D01*
X152257429Y-62230661D01*
X152257434Y-62230659D01*
X152262384Y-62229174D01*
X152462994Y-62130896D01*
X152644860Y-62001173D01*
X152679958Y-61966198D01*
X152768747Y-61877718D01*
X152803096Y-61843489D01*
X152834498Y-61799789D01*
X152930435Y-61666277D01*
X152933453Y-61662077D01*
X152936166Y-61656589D01*
X153030136Y-61466453D01*
X153030137Y-61466451D01*
X153032430Y-61461811D01*
X153097370Y-61248069D01*
X153126529Y-61026590D01*
X153128156Y-60960000D01*
X153109852Y-60737361D01*
X153064095Y-60555195D01*
X153066899Y-60484254D01*
X153107612Y-60426091D01*
X153173307Y-60399172D01*
X153186299Y-60398500D01*
X153693595Y-60398500D01*
X153761716Y-60418502D01*
X153767656Y-60422564D01*
X153835916Y-60472158D01*
X153848248Y-60481118D01*
X153854276Y-60483802D01*
X153854278Y-60483803D01*
X154016681Y-60556109D01*
X154022712Y-60558794D01*
X154116113Y-60578647D01*
X154203056Y-60597128D01*
X154203061Y-60597128D01*
X154209513Y-60598500D01*
X154400487Y-60598500D01*
X154406939Y-60597128D01*
X154406944Y-60597128D01*
X154493887Y-60578647D01*
X154587288Y-60558794D01*
X154593319Y-60556109D01*
X154755722Y-60483803D01*
X154755724Y-60483802D01*
X154761752Y-60481118D01*
X154774085Y-60472158D01*
X154847935Y-60418502D01*
X154916253Y-60368866D01*
X155044040Y-60226944D01*
X155139527Y-60061556D01*
X155198542Y-59879928D01*
X155218504Y-59690000D01*
X155198542Y-59500072D01*
X155139527Y-59318444D01*
X155044040Y-59153056D01*
X155013362Y-59118984D01*
X154920675Y-59016045D01*
X154920674Y-59016044D01*
X154916253Y-59011134D01*
X154793311Y-58921811D01*
X154767094Y-58902763D01*
X154767093Y-58902762D01*
X154761752Y-58898882D01*
X154755724Y-58896198D01*
X154755722Y-58896197D01*
X154593319Y-58823891D01*
X154593318Y-58823891D01*
X154587288Y-58821206D01*
X154465331Y-58795283D01*
X154406944Y-58782872D01*
X154406939Y-58782872D01*
X154400487Y-58781500D01*
X154209513Y-58781500D01*
X154203061Y-58782872D01*
X154203056Y-58782872D01*
X154144669Y-58795283D01*
X154022712Y-58821206D01*
X154016682Y-58823891D01*
X154016681Y-58823891D01*
X153854278Y-58896197D01*
X153854276Y-58896198D01*
X153848248Y-58898882D01*
X153842907Y-58902762D01*
X153842906Y-58902763D01*
X153767656Y-58957436D01*
X153700789Y-58981294D01*
X153693595Y-58981500D01*
X153184264Y-58981500D01*
X153116143Y-58961498D01*
X153069650Y-58907842D01*
X153059546Y-58837568D01*
X153063705Y-58818872D01*
X153068090Y-58804441D01*
X153097370Y-58708069D01*
X153117825Y-58552703D01*
X166165743Y-58552703D01*
X166203268Y-58837734D01*
X166279129Y-59115036D01*
X166391923Y-59379476D01*
X166539561Y-59626161D01*
X166719313Y-59850528D01*
X166927851Y-60048423D01*
X167161317Y-60216186D01*
X167165112Y-60218195D01*
X167165113Y-60218196D01*
X167186869Y-60229715D01*
X167415392Y-60350712D01*
X167685373Y-60449511D01*
X167966264Y-60510755D01*
X167994841Y-60513004D01*
X168189282Y-60528307D01*
X168189291Y-60528307D01*
X168191739Y-60528500D01*
X168347271Y-60528500D01*
X168349407Y-60528354D01*
X168349418Y-60528354D01*
X168557548Y-60514165D01*
X168557554Y-60514164D01*
X168561825Y-60513873D01*
X168566020Y-60513004D01*
X168566022Y-60513004D01*
X168719994Y-60481118D01*
X168843342Y-60455574D01*
X169114343Y-60359607D01*
X169202362Y-60314177D01*
X169366005Y-60229715D01*
X169366006Y-60229715D01*
X169369812Y-60227750D01*
X169373313Y-60225289D01*
X169373317Y-60225287D01*
X169598139Y-60067279D01*
X169605023Y-60062441D01*
X169815622Y-59866740D01*
X169997713Y-59644268D01*
X170147927Y-59399142D01*
X170263483Y-59135898D01*
X170342244Y-58859406D01*
X170382751Y-58574784D01*
X170382845Y-58556951D01*
X170384235Y-58291583D01*
X170384235Y-58291576D01*
X170384257Y-58287297D01*
X170346732Y-58002266D01*
X170270871Y-57724964D01*
X170254654Y-57686944D01*
X170159763Y-57464476D01*
X170159761Y-57464472D01*
X170158077Y-57460524D01*
X170054704Y-57287800D01*
X170012643Y-57217521D01*
X170012640Y-57217517D01*
X170010439Y-57213839D01*
X169830687Y-56989472D01*
X169622149Y-56791577D01*
X169388683Y-56623814D01*
X169366843Y-56612250D01*
X169343654Y-56599972D01*
X169134608Y-56489288D01*
X168864627Y-56390489D01*
X168583736Y-56329245D01*
X168552685Y-56326801D01*
X168360718Y-56311693D01*
X168360709Y-56311693D01*
X168358261Y-56311500D01*
X168202729Y-56311500D01*
X168200593Y-56311646D01*
X168200582Y-56311646D01*
X167992452Y-56325835D01*
X167992446Y-56325836D01*
X167988175Y-56326127D01*
X167983980Y-56326996D01*
X167983978Y-56326996D01*
X167847416Y-56355277D01*
X167706658Y-56384426D01*
X167435657Y-56480393D01*
X167431848Y-56482359D01*
X167188136Y-56608148D01*
X167180188Y-56612250D01*
X167176687Y-56614711D01*
X167176683Y-56614713D01*
X167170905Y-56618774D01*
X166944977Y-56777559D01*
X166734378Y-56973260D01*
X166552287Y-57195732D01*
X166402073Y-57440858D01*
X166400347Y-57444791D01*
X166400346Y-57444792D01*
X166320923Y-57625722D01*
X166286517Y-57704102D01*
X166285342Y-57708229D01*
X166285341Y-57708230D01*
X166282484Y-57718260D01*
X166207756Y-57980594D01*
X166167249Y-58265216D01*
X166167227Y-58269505D01*
X166167226Y-58269512D01*
X166165765Y-58548417D01*
X166165743Y-58552703D01*
X153117825Y-58552703D01*
X153126529Y-58486590D01*
X153127340Y-58453388D01*
X153128074Y-58423365D01*
X153128074Y-58423361D01*
X153128156Y-58420000D01*
X153109852Y-58197361D01*
X153055431Y-57980702D01*
X152966354Y-57775840D01*
X152872508Y-57630776D01*
X152847822Y-57592617D01*
X152847820Y-57592614D01*
X152845014Y-57588277D01*
X152694670Y-57423051D01*
X152690619Y-57419852D01*
X152690615Y-57419848D01*
X152523414Y-57287800D01*
X152523410Y-57287798D01*
X152519359Y-57284598D01*
X152511304Y-57280151D01*
X152459145Y-57251358D01*
X152323789Y-57176638D01*
X152318920Y-57174914D01*
X152318916Y-57174912D01*
X152118087Y-57103795D01*
X152118083Y-57103794D01*
X152113212Y-57102069D01*
X152108119Y-57101162D01*
X152108116Y-57101161D01*
X151898373Y-57063800D01*
X151898367Y-57063799D01*
X151893284Y-57062894D01*
X151819452Y-57061992D01*
X151675081Y-57060228D01*
X151675079Y-57060228D01*
X151669911Y-57060165D01*
X151449091Y-57093955D01*
X151236756Y-57163357D01*
X151038607Y-57266507D01*
X151034474Y-57269610D01*
X151034471Y-57269612D01*
X150864100Y-57397530D01*
X150859965Y-57400635D01*
X150856393Y-57404373D01*
X150733181Y-57533307D01*
X150705629Y-57562138D01*
X150598201Y-57719621D01*
X150543293Y-57764621D01*
X150472768Y-57772792D01*
X150409021Y-57741538D01*
X150388324Y-57717054D01*
X150307822Y-57592617D01*
X150307820Y-57592614D01*
X150305014Y-57588277D01*
X150154670Y-57423051D01*
X150150619Y-57419852D01*
X150150615Y-57419848D01*
X149983414Y-57287800D01*
X149983410Y-57287798D01*
X149979359Y-57284598D01*
X149971304Y-57280151D01*
X149919145Y-57251358D01*
X149783789Y-57176638D01*
X149778920Y-57174914D01*
X149778916Y-57174912D01*
X149578087Y-57103795D01*
X149578083Y-57103794D01*
X149573212Y-57102069D01*
X149568119Y-57101162D01*
X149568116Y-57101161D01*
X149358373Y-57063800D01*
X149358367Y-57063799D01*
X149353284Y-57062894D01*
X149279452Y-57061992D01*
X149135081Y-57060228D01*
X149135079Y-57060228D01*
X149129911Y-57060165D01*
X148909091Y-57093955D01*
X148696756Y-57163357D01*
X148498607Y-57266507D01*
X148494474Y-57269610D01*
X148494471Y-57269612D01*
X148324100Y-57397530D01*
X148319965Y-57400635D01*
X148316393Y-57404373D01*
X148193181Y-57533307D01*
X148165629Y-57562138D01*
X148162720Y-57566403D01*
X148162714Y-57566411D01*
X148147798Y-57588277D01*
X148103224Y-57653621D01*
X148101257Y-57656504D01*
X148046346Y-57701507D01*
X147997169Y-57711500D01*
X147216878Y-57711500D01*
X147148757Y-57691498D01*
X147113665Y-57657771D01*
X147059357Y-57580211D01*
X147059355Y-57580208D01*
X147056198Y-57575700D01*
X146894300Y-57413802D01*
X146889792Y-57410645D01*
X146889789Y-57410643D01*
X146779424Y-57333365D01*
X146706749Y-57282477D01*
X146701767Y-57280154D01*
X146701762Y-57280151D01*
X146504225Y-57188039D01*
X146504224Y-57188039D01*
X146499243Y-57185716D01*
X146493935Y-57184294D01*
X146493933Y-57184293D01*
X146283402Y-57127881D01*
X146283400Y-57127881D01*
X146278087Y-57126457D01*
X146050000Y-57106502D01*
X145821913Y-57126457D01*
X145816600Y-57127881D01*
X145816598Y-57127881D01*
X145606067Y-57184293D01*
X145606065Y-57184294D01*
X145600757Y-57185716D01*
X145595776Y-57188039D01*
X145595775Y-57188039D01*
X145398238Y-57280151D01*
X145398233Y-57280154D01*
X145393251Y-57282477D01*
X145320576Y-57333365D01*
X145210211Y-57410643D01*
X145210208Y-57410645D01*
X145205700Y-57413802D01*
X145043802Y-57575700D01*
X145040643Y-57580211D01*
X145037108Y-57584424D01*
X145035974Y-57583473D01*
X144985929Y-57623471D01*
X144915310Y-57630776D01*
X144851951Y-57598742D01*
X144815970Y-57537538D01*
X144812918Y-57520483D01*
X144811745Y-57509684D01*
X144760615Y-57373295D01*
X144673261Y-57256739D01*
X144556705Y-57169385D01*
X144420316Y-57118255D01*
X144358134Y-57111500D01*
X142661866Y-57111500D01*
X142599684Y-57118255D01*
X142463295Y-57169385D01*
X142346739Y-57256739D01*
X142259385Y-57373295D01*
X142208255Y-57509684D01*
X142201500Y-57571866D01*
X142201500Y-57585500D01*
X142181498Y-57653621D01*
X142127842Y-57700114D01*
X142075500Y-57711500D01*
X140643101Y-57711500D01*
X140574980Y-57691498D01*
X140528487Y-57637842D01*
X140518383Y-57567568D01*
X140530014Y-57533964D01*
X140528539Y-57533307D01*
X140531223Y-57527279D01*
X140534527Y-57521556D01*
X140593542Y-57339928D01*
X140599249Y-57285634D01*
X140612814Y-57156565D01*
X140613504Y-57150000D01*
X140593542Y-56960072D01*
X140534527Y-56778444D01*
X140529075Y-56769000D01*
X140497314Y-56713990D01*
X140439040Y-56613056D01*
X140323445Y-56484674D01*
X140315675Y-56476045D01*
X140315674Y-56476044D01*
X140311253Y-56471134D01*
X140156752Y-56358882D01*
X140150724Y-56356198D01*
X140150722Y-56356197D01*
X139988319Y-56283891D01*
X139988318Y-56283891D01*
X139982288Y-56281206D01*
X139888887Y-56261353D01*
X139801944Y-56242872D01*
X139801939Y-56242872D01*
X139795487Y-56241500D01*
X139604513Y-56241500D01*
X139598061Y-56242872D01*
X139598056Y-56242872D01*
X139511113Y-56261353D01*
X139417712Y-56281206D01*
X139411682Y-56283891D01*
X139411681Y-56283891D01*
X139249278Y-56356197D01*
X139249276Y-56356198D01*
X139243248Y-56358882D01*
X139237907Y-56362762D01*
X139237906Y-56362763D01*
X139162656Y-56417436D01*
X139095789Y-56441294D01*
X139088595Y-56441500D01*
X119356405Y-56441500D01*
X119288284Y-56421498D01*
X119282344Y-56417436D01*
X119207094Y-56362763D01*
X119207093Y-56362762D01*
X119201752Y-56358882D01*
X119195724Y-56356198D01*
X119195722Y-56356197D01*
X119033319Y-56283891D01*
X119033318Y-56283891D01*
X119027288Y-56281206D01*
X118933887Y-56261353D01*
X118846944Y-56242872D01*
X118846939Y-56242872D01*
X118840487Y-56241500D01*
X118649513Y-56241500D01*
X118643061Y-56242872D01*
X118643056Y-56242872D01*
X118556113Y-56261353D01*
X118462712Y-56281206D01*
X118456682Y-56283891D01*
X118456681Y-56283891D01*
X118294278Y-56356197D01*
X118294276Y-56356198D01*
X118288248Y-56358882D01*
X118133747Y-56471134D01*
X118129326Y-56476044D01*
X118129325Y-56476045D01*
X118121556Y-56484674D01*
X118005960Y-56613056D01*
X117947686Y-56713990D01*
X117915926Y-56769000D01*
X117910473Y-56778444D01*
X117851458Y-56960072D01*
X117831496Y-57150000D01*
X117832186Y-57156565D01*
X117845752Y-57285634D01*
X117851458Y-57339928D01*
X117910473Y-57521556D01*
X117913777Y-57527279D01*
X117916461Y-57533307D01*
X117913915Y-57534441D01*
X117927756Y-57591497D01*
X117904534Y-57658589D01*
X117848727Y-57702475D01*
X117801899Y-57711500D01*
X117503912Y-57711500D01*
X117495342Y-57711208D01*
X117445224Y-57707791D01*
X117445220Y-57707791D01*
X117437648Y-57707275D01*
X117430171Y-57708580D01*
X117430170Y-57708580D01*
X117415113Y-57711208D01*
X117374703Y-57718261D01*
X117368186Y-57719222D01*
X117304758Y-57726898D01*
X117297650Y-57729584D01*
X117295056Y-57730221D01*
X117278750Y-57734682D01*
X117276199Y-57735452D01*
X117268716Y-57736758D01*
X117261764Y-57739810D01*
X117261763Y-57739810D01*
X117210212Y-57762439D01*
X117204105Y-57764931D01*
X117162665Y-57780590D01*
X117144344Y-57787513D01*
X117138083Y-57791816D01*
X117135717Y-57793053D01*
X117120937Y-57801280D01*
X117118652Y-57802631D01*
X117111695Y-57805685D01*
X117105675Y-57810305D01*
X117105669Y-57810308D01*
X117074542Y-57834194D01*
X117060998Y-57844587D01*
X117055668Y-57848459D01*
X117009280Y-57880339D01*
X117009275Y-57880344D01*
X117003019Y-57884643D01*
X116997968Y-57890313D01*
X116997966Y-57890314D01*
X116961565Y-57931170D01*
X116956584Y-57936446D01*
X116598435Y-58294595D01*
X116536123Y-58328621D01*
X116509340Y-58331500D01*
X115306866Y-58331500D01*
X115244684Y-58338255D01*
X115108295Y-58389385D01*
X114991739Y-58476739D01*
X114904385Y-58593295D01*
X114853255Y-58729684D01*
X114846500Y-58791866D01*
X114846500Y-60588134D01*
X114853255Y-60650316D01*
X114904385Y-60786705D01*
X114991739Y-60903261D01*
X115108295Y-60990615D01*
X115116704Y-60993767D01*
X115116705Y-60993768D01*
X115225451Y-61034535D01*
X115282216Y-61077176D01*
X115306916Y-61143738D01*
X115291709Y-61213087D01*
X115272316Y-61239568D01*
X115145629Y-61372138D01*
X115019743Y-61556680D01*
X115017564Y-61561375D01*
X114956233Y-61693502D01*
X114925688Y-61759305D01*
X114865989Y-61974570D01*
X114842251Y-62196695D01*
X114842548Y-62201848D01*
X114842548Y-62201851D01*
X114853981Y-62400132D01*
X114855110Y-62419715D01*
X114856247Y-62424761D01*
X114856248Y-62424767D01*
X114861792Y-62449365D01*
X114904222Y-62637639D01*
X114936723Y-62717680D01*
X114971535Y-62803411D01*
X114988266Y-62844616D01*
X115030321Y-62913243D01*
X115102291Y-63030688D01*
X115104987Y-63035088D01*
X115251250Y-63203938D01*
X115361189Y-63295211D01*
X115416580Y-63341197D01*
X115423126Y-63346632D01*
X115447394Y-63360813D01*
X115496445Y-63389476D01*
X115545169Y-63441114D01*
X115558240Y-63510897D01*
X115531509Y-63576669D01*
X115491055Y-63610027D01*
X115478607Y-63616507D01*
X115474474Y-63619610D01*
X115474471Y-63619612D01*
X115304100Y-63747530D01*
X115299965Y-63750635D01*
X115296393Y-63754373D01*
X115187352Y-63868478D01*
X115145629Y-63912138D01*
X115142720Y-63916403D01*
X115142714Y-63916411D01*
X115068916Y-64024595D01*
X115019743Y-64096680D01*
X115004497Y-64129525D01*
X114935470Y-64278232D01*
X114925688Y-64299305D01*
X114865989Y-64514570D01*
X114842251Y-64736695D01*
X114855110Y-64959715D01*
X114856247Y-64964761D01*
X114856248Y-64964767D01*
X114875175Y-65048751D01*
X114904222Y-65177639D01*
X114988266Y-65384616D01*
X115027119Y-65448019D01*
X115102291Y-65570688D01*
X115104987Y-65575088D01*
X115251250Y-65743938D01*
X115423126Y-65886632D01*
X115493595Y-65927811D01*
X115496445Y-65929476D01*
X115545169Y-65981114D01*
X115558240Y-66050897D01*
X115531509Y-66116669D01*
X115491055Y-66150027D01*
X115478607Y-66156507D01*
X115474474Y-66159610D01*
X115474471Y-66159612D01*
X115325180Y-66271703D01*
X115299965Y-66290635D01*
X115145629Y-66452138D01*
X115142720Y-66456403D01*
X115142714Y-66456411D01*
X115127798Y-66478277D01*
X115019743Y-66636680D01*
X114983873Y-66713955D01*
X114931290Y-66827237D01*
X114925688Y-66839305D01*
X114865989Y-67054570D01*
X114842251Y-67276695D01*
X114842548Y-67281848D01*
X114842548Y-67281851D01*
X114844171Y-67310000D01*
X114855110Y-67499715D01*
X114856247Y-67504761D01*
X114856248Y-67504767D01*
X114864955Y-67543402D01*
X114904222Y-67717639D01*
X114954988Y-67842661D01*
X114971535Y-67883411D01*
X114988266Y-67924616D01*
X115000863Y-67945173D01*
X115092642Y-68094942D01*
X115104987Y-68115088D01*
X115251250Y-68283938D01*
X115423126Y-68426632D01*
X115490163Y-68465805D01*
X115496445Y-68469476D01*
X115545169Y-68521114D01*
X115558240Y-68590897D01*
X115531509Y-68656669D01*
X115491055Y-68690027D01*
X115478607Y-68696507D01*
X115474474Y-68699610D01*
X115474471Y-68699612D01*
X115453132Y-68715634D01*
X115299965Y-68830635D01*
X115145629Y-68992138D01*
X115142715Y-68996410D01*
X115142714Y-68996411D01*
X115075551Y-69094868D01*
X115019743Y-69176680D01*
X115001611Y-69215743D01*
X114937543Y-69353766D01*
X114925688Y-69379305D01*
X114865989Y-69594570D01*
X114842251Y-69816695D01*
X114842548Y-69821848D01*
X114842548Y-69821851D01*
X114844171Y-69850000D01*
X114855110Y-70039715D01*
X114856247Y-70044761D01*
X114856248Y-70044767D01*
X114869597Y-70104000D01*
X114904222Y-70257639D01*
X114988266Y-70464616D01*
X115104987Y-70655088D01*
X115251250Y-70823938D01*
X115423126Y-70966632D01*
X115490163Y-71005805D01*
X115496445Y-71009476D01*
X115545169Y-71061114D01*
X115558240Y-71130897D01*
X115531509Y-71196669D01*
X115491055Y-71230027D01*
X115478607Y-71236507D01*
X115474474Y-71239610D01*
X115474471Y-71239612D01*
X115453132Y-71255634D01*
X115299965Y-71370635D01*
X115145629Y-71532138D01*
X115142715Y-71536410D01*
X115142714Y-71536411D01*
X115057556Y-71661249D01*
X115019743Y-71716680D01*
X115017564Y-71721375D01*
X114931290Y-71907237D01*
X114925688Y-71919305D01*
X114865989Y-72134570D01*
X114842251Y-72356695D01*
X114842548Y-72361848D01*
X114842548Y-72361851D01*
X114844171Y-72390000D01*
X114855110Y-72579715D01*
X114856247Y-72584761D01*
X114856248Y-72584767D01*
X114864955Y-72623402D01*
X114904222Y-72797639D01*
X114988266Y-73004616D01*
X115104987Y-73195088D01*
X115251250Y-73363938D01*
X115423126Y-73506632D01*
X115490163Y-73545805D01*
X115496445Y-73549476D01*
X115545169Y-73601114D01*
X115558240Y-73670897D01*
X115531509Y-73736669D01*
X115491055Y-73770027D01*
X115478607Y-73776507D01*
X115474474Y-73779610D01*
X115474471Y-73779612D01*
X115453132Y-73795634D01*
X115299965Y-73910635D01*
X115145629Y-74072138D01*
X115142715Y-74076410D01*
X115142714Y-74076411D01*
X115133300Y-74090211D01*
X115019743Y-74256680D01*
X115017564Y-74261375D01*
X114954452Y-74397339D01*
X114925688Y-74459305D01*
X114865989Y-74674570D01*
X114842251Y-74896695D01*
X114842548Y-74901848D01*
X114842548Y-74901851D01*
X114844171Y-74930000D01*
X114855110Y-75119715D01*
X114856247Y-75124761D01*
X114856248Y-75124767D01*
X114864955Y-75163402D01*
X114904222Y-75337639D01*
X114988266Y-75544616D01*
X115104987Y-75735088D01*
X115251250Y-75903938D01*
X115423126Y-76046632D01*
X115463771Y-76070383D01*
X115496445Y-76089476D01*
X115545169Y-76141114D01*
X115558240Y-76210897D01*
X115531509Y-76276669D01*
X115491055Y-76310027D01*
X115478607Y-76316507D01*
X115474474Y-76319610D01*
X115474471Y-76319612D01*
X115304100Y-76447530D01*
X115299965Y-76450635D01*
X115145629Y-76612138D01*
X115019743Y-76796680D01*
X114999166Y-76841010D01*
X114930249Y-76989480D01*
X114925688Y-76999305D01*
X114865989Y-77214570D01*
X114842251Y-77436695D01*
X114842548Y-77441848D01*
X114842548Y-77441851D01*
X114843975Y-77466593D01*
X114855110Y-77659715D01*
X114856247Y-77664761D01*
X114856248Y-77664767D01*
X114864955Y-77703402D01*
X114904222Y-77877639D01*
X114988266Y-78084616D01*
X115009014Y-78118474D01*
X115083874Y-78240634D01*
X115104987Y-78275088D01*
X115251250Y-78443938D01*
X115423126Y-78586632D01*
X115490163Y-78625805D01*
X115496445Y-78629476D01*
X115545169Y-78681114D01*
X115558240Y-78750897D01*
X115531509Y-78816669D01*
X115491055Y-78850027D01*
X115478607Y-78856507D01*
X115474474Y-78859610D01*
X115474471Y-78859612D01*
X115379302Y-78931067D01*
X115299965Y-78990635D01*
X115296393Y-78994373D01*
X115187352Y-79108478D01*
X115145629Y-79152138D01*
X115142715Y-79156410D01*
X115142714Y-79156411D01*
X115057556Y-79281249D01*
X115019743Y-79336680D01*
X115017564Y-79341375D01*
X114954452Y-79477339D01*
X114925688Y-79539305D01*
X114865989Y-79754570D01*
X114842251Y-79976695D01*
X114842548Y-79981848D01*
X114842548Y-79981851D01*
X114844171Y-80010000D01*
X114855110Y-80199715D01*
X114856247Y-80204761D01*
X114856248Y-80204767D01*
X114864955Y-80243402D01*
X114904222Y-80417639D01*
X114941292Y-80508931D01*
X114976458Y-80595535D01*
X114988266Y-80624616D01*
X115104987Y-80815088D01*
X115251250Y-80983938D01*
X115423126Y-81126632D01*
X115490163Y-81165805D01*
X115496445Y-81169476D01*
X115545169Y-81221114D01*
X115558240Y-81290897D01*
X115531509Y-81356669D01*
X115491055Y-81390027D01*
X115478607Y-81396507D01*
X115474474Y-81399610D01*
X115474471Y-81399612D01*
X115325180Y-81511703D01*
X115299965Y-81530635D01*
X115145629Y-81692138D01*
X115142715Y-81696410D01*
X115142714Y-81696411D01*
X115113051Y-81739896D01*
X115019743Y-81876680D01*
X114989018Y-81942871D01*
X114928033Y-82074254D01*
X114925688Y-82079305D01*
X114865989Y-82294570D01*
X114842251Y-82516695D01*
X114842548Y-82521848D01*
X114842548Y-82521851D01*
X114848202Y-82619908D01*
X114855110Y-82739715D01*
X114856247Y-82744761D01*
X114856248Y-82744767D01*
X114864955Y-82783402D01*
X114904222Y-82957639D01*
X114954988Y-83082661D01*
X114976458Y-83135535D01*
X114988266Y-83164616D01*
X115104987Y-83355088D01*
X115251250Y-83523938D01*
X115423126Y-83666632D01*
X115489691Y-83705529D01*
X115496445Y-83709476D01*
X115545169Y-83761114D01*
X115558240Y-83830897D01*
X115531509Y-83896669D01*
X115491055Y-83930027D01*
X115478607Y-83936507D01*
X115474474Y-83939610D01*
X115474471Y-83939612D01*
X115304100Y-84067530D01*
X115299965Y-84070635D01*
X115145629Y-84232138D01*
X115142715Y-84236410D01*
X115142714Y-84236411D01*
X115067609Y-84346511D01*
X115019743Y-84416680D01*
X115017564Y-84421375D01*
X114954452Y-84557339D01*
X114925688Y-84619305D01*
X114865989Y-84834570D01*
X114842251Y-85056695D01*
X114842548Y-85061848D01*
X114842548Y-85061851D01*
X114844171Y-85090000D01*
X114855110Y-85279715D01*
X114856247Y-85284761D01*
X114856248Y-85284767D01*
X114864955Y-85323402D01*
X114904222Y-85497639D01*
X114988266Y-85704616D01*
X115104987Y-85895088D01*
X115251250Y-86063938D01*
X115423126Y-86206632D01*
X115490163Y-86245805D01*
X115496445Y-86249476D01*
X115545169Y-86301114D01*
X115558240Y-86370897D01*
X115531509Y-86436669D01*
X115491055Y-86470027D01*
X115478607Y-86476507D01*
X115474474Y-86479610D01*
X115474471Y-86479612D01*
X115349087Y-86573753D01*
X115299965Y-86610635D01*
X115145629Y-86772138D01*
X115142715Y-86776410D01*
X115142714Y-86776411D01*
X115080393Y-86867771D01*
X115019743Y-86956680D01*
X114988397Y-87024209D01*
X114930249Y-87149480D01*
X114925688Y-87159305D01*
X114865989Y-87374570D01*
X114842251Y-87596695D01*
X114842548Y-87601848D01*
X114842548Y-87601851D01*
X114848011Y-87696590D01*
X114855110Y-87819715D01*
X114856247Y-87824761D01*
X114856248Y-87824767D01*
X114864955Y-87863402D01*
X114904222Y-88037639D01*
X114988266Y-88244616D01*
X115104987Y-88435088D01*
X115251250Y-88603938D01*
X115423126Y-88746632D01*
X115490163Y-88785805D01*
X115496445Y-88789476D01*
X115545169Y-88841114D01*
X115558240Y-88910897D01*
X115531509Y-88976669D01*
X115491055Y-89010027D01*
X115478607Y-89016507D01*
X115474474Y-89019610D01*
X115474471Y-89019612D01*
X115453132Y-89035634D01*
X115299965Y-89150635D01*
X115145629Y-89312138D01*
X115142715Y-89316410D01*
X115142714Y-89316411D01*
X115133300Y-89330211D01*
X115019743Y-89496680D01*
X115017564Y-89501375D01*
X114931290Y-89687237D01*
X114925688Y-89699305D01*
X114865989Y-89914570D01*
X114842251Y-90136695D01*
X114842548Y-90141848D01*
X114842548Y-90141851D01*
X114844171Y-90170000D01*
X114855110Y-90359715D01*
X114856247Y-90364761D01*
X114856248Y-90364767D01*
X114880304Y-90471508D01*
X114904222Y-90577639D01*
X114988266Y-90784616D01*
X115104987Y-90975088D01*
X115251250Y-91143938D01*
X115423126Y-91286632D01*
X115490163Y-91325805D01*
X115496445Y-91329476D01*
X115545169Y-91381114D01*
X115558240Y-91450897D01*
X115531509Y-91516669D01*
X115491055Y-91550027D01*
X115478607Y-91556507D01*
X115474474Y-91559610D01*
X115474471Y-91559612D01*
X115304100Y-91687530D01*
X115299965Y-91690635D01*
X115145629Y-91852138D01*
X115142715Y-91856410D01*
X115142714Y-91856411D01*
X115067312Y-91966947D01*
X115019743Y-92036680D01*
X115017564Y-92041375D01*
X114954452Y-92177339D01*
X114925688Y-92239305D01*
X114865989Y-92454570D01*
X114842251Y-92676695D01*
X114842548Y-92681848D01*
X114842548Y-92681851D01*
X114844171Y-92710000D01*
X114855110Y-92899715D01*
X114856247Y-92904761D01*
X114856248Y-92904767D01*
X114880304Y-93011508D01*
X114904222Y-93117639D01*
X114988266Y-93324616D01*
X115104987Y-93515088D01*
X115251250Y-93683938D01*
X115423126Y-93826632D01*
X115489691Y-93865529D01*
X115496445Y-93869476D01*
X115545169Y-93921114D01*
X115558240Y-93990897D01*
X115531509Y-94056669D01*
X115491055Y-94090027D01*
X115478607Y-94096507D01*
X115474474Y-94099610D01*
X115474471Y-94099612D01*
X115453132Y-94115634D01*
X115299965Y-94230635D01*
X115145629Y-94392138D01*
X115142715Y-94396410D01*
X115142714Y-94396411D01*
X115133300Y-94410211D01*
X115019743Y-94576680D01*
X115017564Y-94581375D01*
X114954452Y-94717339D01*
X114925688Y-94779305D01*
X114865989Y-94994570D01*
X114842251Y-95216695D01*
X114842548Y-95221848D01*
X114842548Y-95221851D01*
X114844171Y-95250000D01*
X114855110Y-95439715D01*
X114856247Y-95444761D01*
X114856248Y-95444767D01*
X114864955Y-95483402D01*
X114904222Y-95657639D01*
X114988266Y-95864616D01*
X115104987Y-96055088D01*
X115251250Y-96223938D01*
X115423126Y-96366632D01*
X115490163Y-96405805D01*
X115496445Y-96409476D01*
X115545169Y-96461114D01*
X115558240Y-96530897D01*
X115531509Y-96596669D01*
X115491055Y-96630027D01*
X115478607Y-96636507D01*
X115474474Y-96639610D01*
X115474471Y-96639612D01*
X115453132Y-96655634D01*
X115299965Y-96770635D01*
X115145629Y-96932138D01*
X115142715Y-96936410D01*
X115142714Y-96936411D01*
X115067609Y-97046511D01*
X115019743Y-97116680D01*
X115017564Y-97121375D01*
X114934705Y-97299880D01*
X114925688Y-97319305D01*
X114865989Y-97534570D01*
X114842251Y-97756695D01*
X106553000Y-97756695D01*
X106553000Y-58552703D01*
X107745743Y-58552703D01*
X107783268Y-58837734D01*
X107859129Y-59115036D01*
X107971923Y-59379476D01*
X108119561Y-59626161D01*
X108299313Y-59850528D01*
X108507851Y-60048423D01*
X108741317Y-60216186D01*
X108745112Y-60218195D01*
X108745113Y-60218196D01*
X108766869Y-60229715D01*
X108995392Y-60350712D01*
X109265373Y-60449511D01*
X109546264Y-60510755D01*
X109574841Y-60513004D01*
X109769282Y-60528307D01*
X109769291Y-60528307D01*
X109771739Y-60528500D01*
X109927271Y-60528500D01*
X109929407Y-60528354D01*
X109929418Y-60528354D01*
X110137548Y-60514165D01*
X110137554Y-60514164D01*
X110141825Y-60513873D01*
X110146020Y-60513004D01*
X110146022Y-60513004D01*
X110299994Y-60481118D01*
X110423342Y-60455574D01*
X110694343Y-60359607D01*
X110782362Y-60314177D01*
X110946005Y-60229715D01*
X110946006Y-60229715D01*
X110949812Y-60227750D01*
X110953313Y-60225289D01*
X110953317Y-60225287D01*
X111178139Y-60067279D01*
X111185023Y-60062441D01*
X111395622Y-59866740D01*
X111577713Y-59644268D01*
X111727927Y-59399142D01*
X111843483Y-59135898D01*
X111922244Y-58859406D01*
X111962751Y-58574784D01*
X111962845Y-58556951D01*
X111964235Y-58291583D01*
X111964235Y-58291576D01*
X111964257Y-58287297D01*
X111926732Y-58002266D01*
X111850871Y-57724964D01*
X111834654Y-57686944D01*
X111739763Y-57464476D01*
X111739761Y-57464472D01*
X111738077Y-57460524D01*
X111634704Y-57287800D01*
X111592643Y-57217521D01*
X111592640Y-57217517D01*
X111590439Y-57213839D01*
X111410687Y-56989472D01*
X111202149Y-56791577D01*
X110968683Y-56623814D01*
X110946843Y-56612250D01*
X110923654Y-56599972D01*
X110714608Y-56489288D01*
X110444627Y-56390489D01*
X110163736Y-56329245D01*
X110132685Y-56326801D01*
X109940718Y-56311693D01*
X109940709Y-56311693D01*
X109938261Y-56311500D01*
X109782729Y-56311500D01*
X109780593Y-56311646D01*
X109780582Y-56311646D01*
X109572452Y-56325835D01*
X109572446Y-56325836D01*
X109568175Y-56326127D01*
X109563980Y-56326996D01*
X109563978Y-56326996D01*
X109427416Y-56355277D01*
X109286658Y-56384426D01*
X109015657Y-56480393D01*
X109011848Y-56482359D01*
X108768136Y-56608148D01*
X108760188Y-56612250D01*
X108756687Y-56614711D01*
X108756683Y-56614713D01*
X108750905Y-56618774D01*
X108524977Y-56777559D01*
X108314378Y-56973260D01*
X108132287Y-57195732D01*
X107982073Y-57440858D01*
X107980347Y-57444791D01*
X107980346Y-57444792D01*
X107900923Y-57625722D01*
X107866517Y-57704102D01*
X107865342Y-57708229D01*
X107865341Y-57708230D01*
X107862484Y-57718260D01*
X107787756Y-57980594D01*
X107747249Y-58265216D01*
X107747227Y-58269505D01*
X107747226Y-58269512D01*
X107745765Y-58548417D01*
X107745743Y-58552703D01*
X106553000Y-58552703D01*
X106553000Y-58469328D01*
X106554500Y-58449943D01*
X106556805Y-58435142D01*
X106556805Y-58435139D01*
X106558186Y-58426270D01*
X106555743Y-58407589D01*
X106554852Y-58384657D01*
X106570743Y-58081446D01*
X106572121Y-58068329D01*
X106575271Y-58048444D01*
X106624123Y-57739998D01*
X106626865Y-57727098D01*
X106708334Y-57423051D01*
X106712903Y-57405999D01*
X106716979Y-57393456D01*
X106724719Y-57373295D01*
X106831947Y-57093955D01*
X106836105Y-57083124D01*
X106841469Y-57071076D01*
X106992388Y-56774880D01*
X106998982Y-56763459D01*
X107180033Y-56484666D01*
X107187779Y-56474004D01*
X107193248Y-56467251D01*
X107396985Y-56215655D01*
X107405810Y-56205855D01*
X107640855Y-55970810D01*
X107650656Y-55961984D01*
X107909004Y-55752779D01*
X107919666Y-55745033D01*
X108198464Y-55563979D01*
X108209880Y-55557388D01*
X108506076Y-55406469D01*
X108518124Y-55401105D01*
X108555642Y-55386703D01*
X108828464Y-55281977D01*
X108841000Y-55277903D01*
X109162098Y-55191865D01*
X109174998Y-55189123D01*
X109263715Y-55175072D01*
X109503335Y-55137120D01*
X109516443Y-55135743D01*
X109812334Y-55120236D01*
X109838312Y-55121564D01*
X109839856Y-55121805D01*
X109839860Y-55121805D01*
X109848730Y-55123186D01*
X109857632Y-55122022D01*
X109857635Y-55122022D01*
X109880251Y-55119064D01*
X109896589Y-55118000D01*
X168225672Y-55118000D01*
X168245057Y-55119500D01*
G37*
G04 #@! TD.AperFunction*
G04 #@! TA.AperFunction,Conductor*
G36*
X151487460Y-79468502D02*
G01*
X151508434Y-79485405D01*
X151705018Y-79681989D01*
X151739044Y-79744301D01*
X151741444Y-79782063D01*
X151721502Y-80010000D01*
X151721981Y-80015475D01*
X151741457Y-80238087D01*
X151740185Y-80238198D01*
X151732998Y-80302581D01*
X151688227Y-80357681D01*
X151642983Y-80377139D01*
X151610837Y-80383972D01*
X151482712Y-80411206D01*
X151476682Y-80413891D01*
X151476681Y-80413891D01*
X151314278Y-80486197D01*
X151314276Y-80486198D01*
X151308248Y-80488882D01*
X151153747Y-80601134D01*
X151149326Y-80606044D01*
X151149325Y-80606045D01*
X151039606Y-80727901D01*
X151025960Y-80743056D01*
X150930473Y-80908444D01*
X150871458Y-81090072D01*
X150870768Y-81096633D01*
X150870768Y-81096635D01*
X150865175Y-81149849D01*
X150851496Y-81280000D01*
X150852186Y-81286565D01*
X150865752Y-81415634D01*
X150871458Y-81469928D01*
X150930473Y-81651556D01*
X150933776Y-81657278D01*
X150933777Y-81657279D01*
X150952687Y-81690031D01*
X151025960Y-81816944D01*
X151030378Y-81821851D01*
X151030379Y-81821852D01*
X151132875Y-81935685D01*
X151153747Y-81958866D01*
X151252843Y-82030864D01*
X151301818Y-82066446D01*
X151308248Y-82071118D01*
X151314276Y-82073802D01*
X151314278Y-82073803D01*
X151476681Y-82146109D01*
X151482712Y-82148794D01*
X151654484Y-82185305D01*
X151716956Y-82219033D01*
X151751278Y-82281183D01*
X151752600Y-82292024D01*
X151761884Y-82296000D01*
X153163000Y-82296000D01*
X153231121Y-82316002D01*
X153277614Y-82369658D01*
X153289000Y-82422000D01*
X153289000Y-82678000D01*
X153268998Y-82746121D01*
X153215342Y-82792614D01*
X153163000Y-82804000D01*
X151767033Y-82804000D01*
X151753502Y-82807973D01*
X151752273Y-82816522D01*
X151788813Y-82952889D01*
X151787123Y-83023865D01*
X151747329Y-83082661D01*
X151682065Y-83110609D01*
X151667106Y-83111500D01*
X146783412Y-83111500D01*
X146715291Y-83091498D01*
X146668798Y-83037842D01*
X146658694Y-82967568D01*
X146661705Y-82952889D01*
X146707119Y-82783402D01*
X146707119Y-82783400D01*
X146708543Y-82778087D01*
X146728498Y-82550000D01*
X146708543Y-82321913D01*
X146701600Y-82296000D01*
X146650707Y-82106067D01*
X146650706Y-82106065D01*
X146649284Y-82100757D01*
X146635463Y-82071118D01*
X146554849Y-81898238D01*
X146554846Y-81898233D01*
X146552523Y-81893251D01*
X146465402Y-81768830D01*
X146424357Y-81710211D01*
X146424355Y-81710208D01*
X146421198Y-81705700D01*
X146259300Y-81543802D01*
X146254792Y-81540645D01*
X146254789Y-81540643D01*
X146089202Y-81424698D01*
X146071749Y-81412477D01*
X146066767Y-81410154D01*
X146066762Y-81410151D01*
X146032543Y-81394195D01*
X145979258Y-81347278D01*
X145959797Y-81279001D01*
X145980339Y-81211041D01*
X146032543Y-81165805D01*
X146066762Y-81149849D01*
X146066767Y-81149846D01*
X146071749Y-81147523D01*
X146203221Y-81055465D01*
X146254789Y-81019357D01*
X146254792Y-81019355D01*
X146259300Y-81016198D01*
X146421198Y-80854300D01*
X146445923Y-80818990D01*
X146509704Y-80727901D01*
X146552523Y-80666749D01*
X146554846Y-80661767D01*
X146554849Y-80661762D01*
X146646961Y-80464225D01*
X146646961Y-80464224D01*
X146649284Y-80459243D01*
X146659150Y-80422425D01*
X146707119Y-80243402D01*
X146707119Y-80243400D01*
X146708543Y-80238087D01*
X146728498Y-80010000D01*
X146708543Y-79781913D01*
X146702593Y-79759707D01*
X146661705Y-79607111D01*
X146663395Y-79536135D01*
X146703189Y-79477339D01*
X146768453Y-79449391D01*
X146783412Y-79448500D01*
X151419339Y-79448500D01*
X151487460Y-79468502D01*
G37*
G04 #@! TD.AperFunction*
G04 #@! TA.AperFunction,Conductor*
G36*
X127357461Y-80738502D02*
G01*
X127378435Y-80755405D01*
X128313061Y-81690031D01*
X128318915Y-81696296D01*
X128356950Y-81739896D01*
X128398120Y-81768830D01*
X128409208Y-81776623D01*
X128414504Y-81780556D01*
X128464793Y-81819988D01*
X128471715Y-81823113D01*
X128473963Y-81824475D01*
X128488696Y-81832879D01*
X128491035Y-81834133D01*
X128497250Y-81838501D01*
X128504326Y-81841260D01*
X128504330Y-81841262D01*
X128556780Y-81861711D01*
X128562845Y-81864260D01*
X128621084Y-81890556D01*
X128628549Y-81891940D01*
X128631093Y-81892737D01*
X128647359Y-81897370D01*
X128649939Y-81898032D01*
X128657020Y-81900793D01*
X128664553Y-81901785D01*
X128664554Y-81901785D01*
X128695342Y-81905838D01*
X128720368Y-81909133D01*
X128726866Y-81910161D01*
X128789698Y-81921807D01*
X128797278Y-81921370D01*
X128797279Y-81921370D01*
X128851909Y-81918220D01*
X128859162Y-81918011D01*
X131368702Y-81918011D01*
X131436823Y-81938013D01*
X131483316Y-81991669D01*
X131493420Y-82061943D01*
X131484886Y-82090590D01*
X131485393Y-82090774D01*
X131479764Y-82106239D01*
X131433606Y-82278503D01*
X131433942Y-82292599D01*
X131441884Y-82296000D01*
X132843000Y-82296000D01*
X132911121Y-82316002D01*
X132957614Y-82369658D01*
X132969000Y-82422000D01*
X132969000Y-82678000D01*
X132948998Y-82746121D01*
X132895342Y-82792614D01*
X132843000Y-82804000D01*
X131447033Y-82804000D01*
X131433502Y-82807973D01*
X131432273Y-82816522D01*
X131449925Y-82882400D01*
X131448235Y-82953377D01*
X131408441Y-83012172D01*
X131343176Y-83040120D01*
X131328218Y-83041011D01*
X129321149Y-83041011D01*
X129253028Y-83021009D01*
X129232054Y-83004106D01*
X128297428Y-82069480D01*
X128291574Y-82063215D01*
X128289790Y-82061170D01*
X128253539Y-82019615D01*
X128201258Y-81982871D01*
X128195964Y-81978939D01*
X128188520Y-81973102D01*
X128145696Y-81939524D01*
X128138780Y-81936401D01*
X128136494Y-81935017D01*
X128121813Y-81926643D01*
X128119453Y-81925378D01*
X128113239Y-81921010D01*
X128106160Y-81918250D01*
X128106158Y-81918249D01*
X128053703Y-81897798D01*
X128047634Y-81895247D01*
X127989405Y-81868955D01*
X127981938Y-81867571D01*
X127979383Y-81866770D01*
X127963130Y-81862141D01*
X127960550Y-81861478D01*
X127953469Y-81858718D01*
X127945938Y-81857727D01*
X127945936Y-81857726D01*
X127913158Y-81853411D01*
X127890117Y-81850378D01*
X127883619Y-81849348D01*
X127820792Y-81837704D01*
X127813212Y-81838141D01*
X127813211Y-81838141D01*
X127758586Y-81841291D01*
X127751332Y-81841500D01*
X126261878Y-81841500D01*
X126193757Y-81821498D01*
X126158665Y-81787771D01*
X126104357Y-81710211D01*
X126104355Y-81710208D01*
X126101198Y-81705700D01*
X125939300Y-81543802D01*
X125934792Y-81540645D01*
X125934789Y-81540643D01*
X125769202Y-81424698D01*
X125751749Y-81412477D01*
X125746767Y-81410154D01*
X125746762Y-81410151D01*
X125712543Y-81394195D01*
X125659258Y-81347278D01*
X125639797Y-81279001D01*
X125660339Y-81211041D01*
X125712543Y-81165805D01*
X125746762Y-81149849D01*
X125746767Y-81149846D01*
X125751749Y-81147523D01*
X125883221Y-81055465D01*
X125934789Y-81019357D01*
X125934792Y-81019355D01*
X125939300Y-81016198D01*
X126101198Y-80854300D01*
X126104357Y-80849789D01*
X126158665Y-80772229D01*
X126214122Y-80727901D01*
X126261878Y-80718500D01*
X127289340Y-80718500D01*
X127357461Y-80738502D01*
G37*
G04 #@! TD.AperFunction*
G04 #@! TA.AperFunction,Conductor*
G36*
X141291980Y-81338022D02*
G01*
X141312954Y-81354925D01*
X141648076Y-81690047D01*
X141653929Y-81696312D01*
X141686956Y-81734171D01*
X141691950Y-81739896D01*
X141698164Y-81744264D01*
X141703806Y-81749343D01*
X141702027Y-81751319D01*
X141738402Y-81796994D01*
X141745584Y-81867627D01*
X141735912Y-81897791D01*
X141643510Y-82095947D01*
X141639764Y-82106239D01*
X141583375Y-82316686D01*
X141580516Y-82332900D01*
X141579006Y-82332634D01*
X141555738Y-82392119D01*
X141498235Y-82433759D01*
X141456080Y-82441020D01*
X136674422Y-82441020D01*
X136606301Y-82421018D01*
X136559808Y-82367362D01*
X136550664Y-82332691D01*
X136549978Y-82332812D01*
X136549022Y-82327393D01*
X136548543Y-82321913D01*
X136501436Y-82146109D01*
X136490707Y-82106067D01*
X136490706Y-82106065D01*
X136489284Y-82100757D01*
X136475463Y-82071118D01*
X136394849Y-81898238D01*
X136394846Y-81898233D01*
X136392523Y-81893251D01*
X136305402Y-81768830D01*
X136264357Y-81710211D01*
X136264355Y-81710208D01*
X136261198Y-81705700D01*
X136099300Y-81543802D01*
X136094792Y-81540646D01*
X136094664Y-81540538D01*
X136055340Y-81481426D01*
X136054218Y-81410438D01*
X136091652Y-81350113D01*
X136155758Y-81319602D01*
X136175660Y-81318020D01*
X141223859Y-81318020D01*
X141291980Y-81338022D01*
G37*
G04 #@! TD.AperFunction*
G04 #@! TA.AperFunction,Conductor*
G36*
X134466972Y-81060530D02*
G01*
X134495209Y-81075372D01*
X134598251Y-81147523D01*
X134603233Y-81149846D01*
X134603238Y-81149849D01*
X134637457Y-81165805D01*
X134690742Y-81212722D01*
X134710203Y-81280999D01*
X134689661Y-81348959D01*
X134637457Y-81394195D01*
X134603238Y-81410151D01*
X134603233Y-81410154D01*
X134598251Y-81412477D01*
X134580798Y-81424698D01*
X134415211Y-81540643D01*
X134415208Y-81540645D01*
X134410700Y-81543802D01*
X134248802Y-81705700D01*
X134245645Y-81710208D01*
X134245643Y-81710211D01*
X134128389Y-81877667D01*
X134084786Y-81915973D01*
X134080710Y-81917513D01*
X134074448Y-81921817D01*
X134072097Y-81923046D01*
X134057303Y-81931280D01*
X134055018Y-81932631D01*
X134048061Y-81935685D01*
X134042038Y-81940307D01*
X134035494Y-81944177D01*
X134034722Y-81942871D01*
X133976507Y-81965374D01*
X133906959Y-81951107D01*
X133856908Y-81902810D01*
X133848931Y-81888994D01*
X133780014Y-81790570D01*
X133757326Y-81723296D01*
X133774611Y-81654435D01*
X133794132Y-81629204D01*
X134333845Y-81089491D01*
X134396157Y-81055465D01*
X134466972Y-81060530D01*
G37*
G04 #@! TD.AperFunction*
G04 #@! TA.AperFunction,Conductor*
G36*
X122464480Y-69143368D02*
G01*
X122499051Y-69170354D01*
X122578747Y-69258866D01*
X122584091Y-69262748D01*
X122586026Y-69264491D01*
X122623265Y-69324938D01*
X122621912Y-69395922D01*
X122590809Y-69447221D01*
X121683924Y-70354106D01*
X121621612Y-70388132D01*
X121594829Y-70391011D01*
X120169967Y-70391011D01*
X120101846Y-70371009D01*
X120055353Y-70317353D01*
X120045249Y-70247079D01*
X120049408Y-70228383D01*
X120075379Y-70142903D01*
X120077555Y-70132837D01*
X120078986Y-70121962D01*
X120076775Y-70107778D01*
X120063617Y-70104000D01*
X118617000Y-70104000D01*
X118548879Y-70083998D01*
X118502386Y-70030342D01*
X118491000Y-69978000D01*
X118491000Y-69722000D01*
X118511002Y-69653879D01*
X118564658Y-69607386D01*
X118617000Y-69596000D01*
X120063344Y-69596000D01*
X120076875Y-69592027D01*
X120078180Y-69582947D01*
X120038432Y-69424707D01*
X120041236Y-69353766D01*
X120081948Y-69295602D01*
X120147644Y-69268683D01*
X120160636Y-69268011D01*
X121911577Y-69268011D01*
X121920147Y-69268303D01*
X121970265Y-69271720D01*
X121970269Y-69271720D01*
X121977841Y-69272236D01*
X121985318Y-69270931D01*
X121985319Y-69270931D01*
X122022218Y-69264491D01*
X122040792Y-69261249D01*
X122047310Y-69260288D01*
X122110731Y-69252613D01*
X122117832Y-69249930D01*
X122120441Y-69249289D01*
X122136751Y-69244826D01*
X122139287Y-69244061D01*
X122146773Y-69242754D01*
X122205289Y-69217067D01*
X122211393Y-69214576D01*
X122264037Y-69194684D01*
X122264038Y-69194683D01*
X122271145Y-69191998D01*
X122277408Y-69187694D01*
X122279774Y-69186457D01*
X122294586Y-69178212D01*
X122296840Y-69176879D01*
X122303794Y-69173826D01*
X122328711Y-69154706D01*
X122394931Y-69129104D01*
X122464480Y-69143368D01*
G37*
G04 #@! TD.AperFunction*
G04 #@! TA.AperFunction,Conductor*
G36*
X130151606Y-63663991D02*
G01*
X130198099Y-63717647D01*
X130208203Y-63787921D01*
X130178709Y-63852501D01*
X130172580Y-63859084D01*
X129372069Y-64659595D01*
X129309757Y-64693621D01*
X129282974Y-64696500D01*
X126462894Y-64696500D01*
X126394773Y-64676498D01*
X126348280Y-64622842D01*
X126338176Y-64552568D01*
X126341187Y-64537889D01*
X126376394Y-64406497D01*
X126376058Y-64392401D01*
X126368116Y-64389000D01*
X124967000Y-64389000D01*
X124898879Y-64368998D01*
X124852386Y-64315342D01*
X124841000Y-64263000D01*
X124841000Y-64007000D01*
X124861002Y-63938879D01*
X124914658Y-63892386D01*
X124967000Y-63881000D01*
X126362967Y-63881000D01*
X126376498Y-63877027D01*
X126377727Y-63868478D01*
X126360075Y-63802600D01*
X126361765Y-63731623D01*
X126401559Y-63672828D01*
X126466824Y-63644880D01*
X126481782Y-63643989D01*
X130083485Y-63643989D01*
X130151606Y-63663991D01*
G37*
G04 #@! TD.AperFunction*
G04 #@! TA.AperFunction,Conductor*
G36*
X138977020Y-63431187D02*
G01*
X139011588Y-63458172D01*
X139088747Y-63543866D01*
X139134640Y-63577209D01*
X139230916Y-63647158D01*
X139243248Y-63656118D01*
X139249276Y-63658802D01*
X139249278Y-63658803D01*
X139321745Y-63691067D01*
X139417712Y-63733794D01*
X139511113Y-63753647D01*
X139598056Y-63772128D01*
X139598061Y-63772128D01*
X139604513Y-63773500D01*
X139795487Y-63773500D01*
X139801939Y-63772128D01*
X139801944Y-63772128D01*
X139888887Y-63753647D01*
X139982288Y-63733794D01*
X140078255Y-63691067D01*
X140150722Y-63658803D01*
X140150724Y-63658802D01*
X140156752Y-63656118D01*
X140169085Y-63647158D01*
X140237344Y-63597564D01*
X140304211Y-63573706D01*
X140311405Y-63573500D01*
X141386588Y-63573500D01*
X141454709Y-63593502D01*
X141501202Y-63647158D01*
X141511306Y-63717432D01*
X141508295Y-63732111D01*
X141462881Y-63901598D01*
X141461457Y-63906913D01*
X141441502Y-64135000D01*
X141441981Y-64140475D01*
X141461444Y-64362935D01*
X141447455Y-64432540D01*
X141425018Y-64463012D01*
X141298924Y-64589106D01*
X141236612Y-64623132D01*
X141209829Y-64626011D01*
X136641782Y-64626011D01*
X136573661Y-64606009D01*
X136527168Y-64552353D01*
X136517064Y-64482079D01*
X136520075Y-64467400D01*
X136536394Y-64406497D01*
X136536058Y-64392401D01*
X136528116Y-64389000D01*
X135127000Y-64389000D01*
X135058879Y-64368998D01*
X135012386Y-64315342D01*
X135001000Y-64263000D01*
X135001000Y-64007000D01*
X135021002Y-63938879D01*
X135074658Y-63892386D01*
X135127000Y-63881000D01*
X136522967Y-63881000D01*
X136536498Y-63877027D01*
X136537727Y-63868478D01*
X136501187Y-63732111D01*
X136502877Y-63661135D01*
X136542671Y-63602339D01*
X136607935Y-63574391D01*
X136622894Y-63573500D01*
X138401088Y-63573500D01*
X138409658Y-63573792D01*
X138459776Y-63577209D01*
X138459780Y-63577209D01*
X138467352Y-63577725D01*
X138474829Y-63576420D01*
X138474830Y-63576420D01*
X138501308Y-63571799D01*
X138530303Y-63566738D01*
X138536821Y-63565777D01*
X138600242Y-63558102D01*
X138607343Y-63555419D01*
X138609952Y-63554778D01*
X138626262Y-63550315D01*
X138628798Y-63549550D01*
X138636284Y-63548243D01*
X138694800Y-63522556D01*
X138700904Y-63520065D01*
X138753548Y-63500173D01*
X138753549Y-63500172D01*
X138760656Y-63497487D01*
X138766919Y-63493183D01*
X138769285Y-63491946D01*
X138784097Y-63483701D01*
X138786352Y-63482368D01*
X138793305Y-63479315D01*
X138841251Y-63442524D01*
X138907471Y-63416923D01*
X138977020Y-63431187D01*
G37*
G04 #@! TD.AperFunction*
G04 #@! TA.AperFunction,Conductor*
G36*
X149582460Y-63593502D02*
G01*
X149603435Y-63610405D01*
X150195336Y-64202307D01*
X150229361Y-64264619D01*
X150231550Y-64278232D01*
X150236458Y-64324928D01*
X150238498Y-64331205D01*
X150238498Y-64331207D01*
X150280695Y-64461075D01*
X150282723Y-64532042D01*
X150246060Y-64592840D01*
X150182348Y-64624166D01*
X150160862Y-64626011D01*
X146801782Y-64626011D01*
X146733661Y-64606009D01*
X146687168Y-64552353D01*
X146677064Y-64482079D01*
X146680075Y-64467400D01*
X146696394Y-64406497D01*
X146696058Y-64392401D01*
X146688116Y-64389000D01*
X145287000Y-64389000D01*
X145218879Y-64368998D01*
X145172386Y-64315342D01*
X145161000Y-64263000D01*
X145161000Y-64007000D01*
X145181002Y-63938879D01*
X145234658Y-63892386D01*
X145287000Y-63881000D01*
X146682967Y-63881000D01*
X146696498Y-63877027D01*
X146697727Y-63868478D01*
X146661187Y-63732111D01*
X146662877Y-63661135D01*
X146702671Y-63602339D01*
X146767935Y-63574391D01*
X146782894Y-63573500D01*
X149514339Y-63573500D01*
X149582460Y-63593502D01*
G37*
G04 #@! TD.AperFunction*
M02*
