G04 #@! TF.GenerationSoftware,KiCad,Pcbnew,(6.0.0)*
G04 #@! TF.CreationDate,2022-11-09T00:44:27-05:00*
G04 #@! TF.ProjectId,Sorcerer Rom Pack to Ribbon,536f7263-6572-4657-9220-526f6d205061,rev?*
G04 #@! TF.SameCoordinates,Original*
G04 #@! TF.FileFunction,Soldermask,Bot*
G04 #@! TF.FilePolarity,Negative*
%FSLAX46Y46*%
G04 Gerber Fmt 4.6, Leading zero omitted, Abs format (unit mm)*
G04 Created by KiCad (PCBNEW (6.0.0)) date 2022-11-09 00:44:27*
%MOMM*%
%LPD*%
G01*
G04 APERTURE LIST*
%ADD10C,1.600000*%
%ADD11R,7.600000X1.270000*%
%ADD12R,1.600000X1.600000*%
%ADD13R,1.700000X1.700000*%
%ADD14O,1.700000X1.700000*%
G04 APERTURE END LIST*
D10*
X172720000Y-132080000D03*
X167720000Y-132080000D03*
D11*
X192985000Y-95660000D03*
X192985000Y-98200000D03*
X192985000Y-100740000D03*
X192985000Y-103280000D03*
X192985000Y-105820000D03*
X192985000Y-108360000D03*
X192985000Y-110900000D03*
X192985000Y-113440000D03*
X192985000Y-115980000D03*
X192985000Y-118520000D03*
X192985000Y-121060000D03*
X192985000Y-123600000D03*
X192985000Y-126140000D03*
X192985000Y-128680000D03*
X192985000Y-131220000D03*
D10*
X147320000Y-132080000D03*
X142320000Y-132080000D03*
D12*
X155020000Y-137160000D03*
D10*
X160020000Y-137160000D03*
X155020000Y-132080000D03*
X160020000Y-132080000D03*
D13*
X81534000Y-76200000D03*
D14*
X84074000Y-76200000D03*
X81534000Y-78740000D03*
X84074000Y-78740000D03*
X81534000Y-81280000D03*
X84074000Y-81280000D03*
X81534000Y-83820000D03*
X84074000Y-83820000D03*
X81534000Y-86360000D03*
X84074000Y-86360000D03*
X81534000Y-88900000D03*
X84074000Y-88900000D03*
X81534000Y-91440000D03*
X84074000Y-91440000D03*
X81534000Y-93980000D03*
X84074000Y-93980000D03*
X81534000Y-96520000D03*
X84074000Y-96520000D03*
X81534000Y-99060000D03*
X84074000Y-99060000D03*
X81534000Y-101600000D03*
X84074000Y-101600000D03*
X81534000Y-104140000D03*
X84074000Y-104140000D03*
X81534000Y-106680000D03*
X84074000Y-106680000D03*
X81534000Y-109220000D03*
X84074000Y-109220000D03*
X81534000Y-111760000D03*
X84074000Y-111760000D03*
X81534000Y-114300000D03*
X84074000Y-114300000D03*
X81534000Y-116840000D03*
X84074000Y-116840000D03*
X81534000Y-119380000D03*
X84074000Y-119380000D03*
X81534000Y-121920000D03*
X84074000Y-121920000D03*
X81534000Y-124460000D03*
X84074000Y-124460000D03*
D12*
X147320000Y-137160000D03*
D10*
X142320000Y-137160000D03*
D12*
X172720000Y-137160000D03*
D10*
X167720000Y-137160000D03*
D11*
X66015000Y-123075700D03*
X66015000Y-120535700D03*
X66015000Y-117995700D03*
X66015000Y-115455700D03*
X66015000Y-112915700D03*
X66015000Y-110375700D03*
X66015000Y-107835700D03*
X66015000Y-105295700D03*
X66015000Y-102755700D03*
X66015000Y-100215700D03*
X66015000Y-97675700D03*
X66015000Y-95135700D03*
X66015000Y-92595700D03*
X66015000Y-90055700D03*
X66015000Y-87515700D03*
M02*
