G04 #@! TF.GenerationSoftware,KiCad,Pcbnew,(6.0.0)*
G04 #@! TF.CreationDate,2022-11-09T00:44:27-05:00*
G04 #@! TF.ProjectId,Sorcerer Rom Pack to Ribbon,536f7263-6572-4657-9220-526f6d205061,rev?*
G04 #@! TF.SameCoordinates,Original*
G04 #@! TF.FileFunction,Copper,L2,Bot*
G04 #@! TF.FilePolarity,Positive*
%FSLAX46Y46*%
G04 Gerber Fmt 4.6, Leading zero omitted, Abs format (unit mm)*
G04 Created by KiCad (PCBNEW (6.0.0)) date 2022-11-09 00:44:27*
%MOMM*%
%LPD*%
G01*
G04 APERTURE LIST*
G04 #@! TA.AperFunction,ComponentPad*
%ADD10C,1.600000*%
G04 #@! TD*
G04 #@! TA.AperFunction,ConnectorPad*
%ADD11R,7.600000X1.270000*%
G04 #@! TD*
G04 #@! TA.AperFunction,ComponentPad*
%ADD12R,1.600000X1.600000*%
G04 #@! TD*
G04 #@! TA.AperFunction,ComponentPad*
%ADD13R,1.700000X1.700000*%
G04 #@! TD*
G04 #@! TA.AperFunction,ComponentPad*
%ADD14O,1.700000X1.700000*%
G04 #@! TD*
G04 #@! TA.AperFunction,ViaPad*
%ADD15C,0.800000*%
G04 #@! TD*
G04 #@! TA.AperFunction,Conductor*
%ADD16C,1.270000*%
G04 #@! TD*
G04 #@! TA.AperFunction,Conductor*
%ADD17C,0.400000*%
G04 #@! TD*
G04 APERTURE END LIST*
D10*
X172720000Y-132080000D03*
X167720000Y-132080000D03*
D11*
X192985000Y-95660000D03*
X192985000Y-98200000D03*
X192985000Y-100740000D03*
X192985000Y-103280000D03*
X192985000Y-105820000D03*
X192985000Y-108360000D03*
X192985000Y-110900000D03*
X192985000Y-113440000D03*
X192985000Y-115980000D03*
X192985000Y-118520000D03*
X192985000Y-121060000D03*
X192985000Y-123600000D03*
X192985000Y-126140000D03*
X192985000Y-128680000D03*
X192985000Y-131220000D03*
D10*
X147320000Y-132080000D03*
X142320000Y-132080000D03*
D12*
X155020000Y-137160000D03*
D10*
X160020000Y-137160000D03*
X155020000Y-132080000D03*
X160020000Y-132080000D03*
D13*
X81534000Y-76200000D03*
D14*
X84074000Y-76200000D03*
X81534000Y-78740000D03*
X84074000Y-78740000D03*
X81534000Y-81280000D03*
X84074000Y-81280000D03*
X81534000Y-83820000D03*
X84074000Y-83820000D03*
X81534000Y-86360000D03*
X84074000Y-86360000D03*
X81534000Y-88900000D03*
X84074000Y-88900000D03*
X81534000Y-91440000D03*
X84074000Y-91440000D03*
X81534000Y-93980000D03*
X84074000Y-93980000D03*
X81534000Y-96520000D03*
X84074000Y-96520000D03*
X81534000Y-99060000D03*
X84074000Y-99060000D03*
X81534000Y-101600000D03*
X84074000Y-101600000D03*
X81534000Y-104140000D03*
X84074000Y-104140000D03*
X81534000Y-106680000D03*
X84074000Y-106680000D03*
X81534000Y-109220000D03*
X84074000Y-109220000D03*
X81534000Y-111760000D03*
X84074000Y-111760000D03*
X81534000Y-114300000D03*
X84074000Y-114300000D03*
X81534000Y-116840000D03*
X84074000Y-116840000D03*
X81534000Y-119380000D03*
X84074000Y-119380000D03*
X81534000Y-121920000D03*
X84074000Y-121920000D03*
X81534000Y-124460000D03*
X84074000Y-124460000D03*
D12*
X147320000Y-137160000D03*
D10*
X142320000Y-137160000D03*
D12*
X172720000Y-137160000D03*
D10*
X167720000Y-137160000D03*
D11*
X66015000Y-123075700D03*
X66015000Y-120535700D03*
X66015000Y-117995700D03*
X66015000Y-115455700D03*
X66015000Y-112915700D03*
X66015000Y-110375700D03*
X66015000Y-107835700D03*
X66015000Y-105295700D03*
X66015000Y-102755700D03*
X66015000Y-100215700D03*
X66015000Y-97675700D03*
X66015000Y-95135700D03*
X66015000Y-92595700D03*
X66015000Y-90055700D03*
X66015000Y-87515700D03*
D15*
X94615000Y-119380000D03*
X92710000Y-121920000D03*
X184560000Y-126140000D03*
X71755000Y-121285000D03*
X92075000Y-109220000D03*
X75565000Y-119380000D03*
D16*
X78219300Y-123075700D02*
X66050000Y-123075700D01*
X172720000Y-132080000D02*
X172720000Y-137160000D01*
X81534000Y-111760000D02*
X81534000Y-119380000D01*
X78740000Y-122555000D02*
X78219300Y-123075700D01*
X78740000Y-127000000D02*
X78740000Y-122555000D01*
X81280000Y-129540000D02*
X78740000Y-127000000D01*
X78740000Y-122555000D02*
X78740000Y-119380000D01*
X192985000Y-131220000D02*
X173580000Y-131220000D01*
X173580000Y-131220000D02*
X172720000Y-132080000D01*
X94615000Y-119380000D02*
X94615000Y-124460000D01*
X94615000Y-124460000D02*
X89535000Y-129540000D01*
X89535000Y-129540000D02*
X81280000Y-129540000D01*
X78740000Y-119380000D02*
X81534000Y-119380000D01*
X160020000Y-132080000D02*
X160020000Y-137160000D01*
X92710000Y-121920000D02*
X92710000Y-123825000D01*
X88900000Y-127635000D02*
X82550000Y-127635000D01*
X81534000Y-126619000D02*
X81534000Y-124460000D01*
X70218300Y-120535700D02*
X66050000Y-120535700D01*
X92710000Y-123825000D02*
X88900000Y-127635000D01*
X163420000Y-128680000D02*
X160020000Y-132080000D01*
X82550000Y-127635000D02*
X81534000Y-126619000D01*
X192985000Y-128680000D02*
X163420000Y-128680000D01*
X81534000Y-109220000D02*
X70218300Y-120535700D01*
X147320000Y-132080000D02*
X147320000Y-137160000D01*
X153260000Y-126140000D02*
X147320000Y-132080000D01*
X184560000Y-126140000D02*
X153260000Y-126140000D01*
D17*
X113030000Y-112395000D02*
X118110000Y-112395000D01*
X81534000Y-101600000D02*
X82824489Y-102890489D01*
X82824489Y-102890489D02*
X103525489Y-102890489D01*
X118110000Y-112395000D02*
X128385394Y-102119606D01*
X185830000Y-121060000D02*
X192985000Y-121060000D01*
X166889606Y-102119606D02*
X185830000Y-121060000D01*
X103525489Y-102890489D02*
X113030000Y-112395000D01*
X128385394Y-102119606D02*
X166889606Y-102119606D01*
X70218300Y-112915700D02*
X66050000Y-112915700D01*
X81534000Y-101600000D02*
X70218300Y-112915700D01*
X70218300Y-110375700D02*
X66050000Y-110375700D01*
X81534000Y-99060000D02*
X70218300Y-110375700D01*
X185830000Y-118520000D02*
X192985000Y-118520000D01*
X81534000Y-99060000D02*
X82824489Y-100350489D01*
X167660489Y-100350489D02*
X185830000Y-118520000D01*
X82824489Y-100350489D02*
X167660489Y-100350489D01*
X167005000Y-106045000D02*
X187100000Y-126140000D01*
X104754511Y-107929511D02*
X111760000Y-114935000D01*
X128270000Y-106045000D02*
X167005000Y-106045000D01*
X81534000Y-106680000D02*
X82783511Y-107929511D01*
X81534000Y-106680000D02*
X70218300Y-117995700D01*
X70218300Y-117995700D02*
X66050000Y-117995700D01*
X82783511Y-107929511D02*
X104754511Y-107929511D01*
X187100000Y-126140000D02*
X192985000Y-126140000D01*
X119380000Y-114935000D02*
X128270000Y-106045000D01*
X111760000Y-114935000D02*
X119380000Y-114935000D01*
X81534000Y-76200000D02*
X70218300Y-87515700D01*
X161904511Y-77449511D02*
X180115000Y-95660000D01*
X180115000Y-95660000D02*
X192985000Y-95660000D01*
X82783511Y-77449511D02*
X161904511Y-77449511D01*
X81534000Y-76200000D02*
X82783511Y-77449511D01*
X70218300Y-87515700D02*
X66050000Y-87515700D01*
X70218300Y-90055700D02*
X66050000Y-90055700D01*
X82824489Y-80030489D02*
X81534000Y-78740000D01*
X180750000Y-98200000D02*
X162580489Y-80030489D01*
X192985000Y-98200000D02*
X180750000Y-98200000D01*
X162580489Y-80030489D02*
X82824489Y-80030489D01*
X81534000Y-78740000D02*
X70218300Y-90055700D01*
X81534000Y-86360000D02*
X70218300Y-97675700D01*
X81534000Y-86360000D02*
X82824489Y-87650489D01*
X164465000Y-87630000D02*
X182655000Y-105820000D01*
X161269511Y-87650489D02*
X161290000Y-87630000D01*
X82824489Y-87650489D02*
X161269511Y-87650489D01*
X70218300Y-97675700D02*
X66050000Y-97675700D01*
X161290000Y-87630000D02*
X164465000Y-87630000D01*
X182655000Y-105820000D02*
X192985000Y-105820000D01*
X82824489Y-90190489D02*
X165120489Y-90190489D01*
X183290000Y-108360000D02*
X192985000Y-108360000D01*
X165120489Y-90190489D02*
X183290000Y-108360000D01*
X81534000Y-88900000D02*
X82824489Y-90190489D01*
X81534000Y-88900000D02*
X70218300Y-100215700D01*
X70218300Y-100215700D02*
X66050000Y-100215700D01*
X183925000Y-110900000D02*
X192985000Y-110900000D01*
X82783511Y-92689511D02*
X165714511Y-92689511D01*
X70218300Y-102755700D02*
X66050000Y-102755700D01*
X165714511Y-92689511D02*
X183925000Y-110900000D01*
X81534000Y-91440000D02*
X82783511Y-92689511D01*
X81534000Y-91440000D02*
X70218300Y-102755700D01*
X81534000Y-93980000D02*
X82824489Y-95270489D01*
X81534000Y-93980000D02*
X70218300Y-105295700D01*
X70218300Y-105295700D02*
X66050000Y-105295700D01*
X82824489Y-95270489D02*
X163174511Y-95270489D01*
X166370000Y-95250000D02*
X184560000Y-113440000D01*
X163195000Y-95250000D02*
X166370000Y-95250000D01*
X184560000Y-113440000D02*
X192985000Y-113440000D01*
X163174511Y-95270489D02*
X163195000Y-95250000D01*
X70218300Y-107835700D02*
X66050000Y-107835700D01*
X81534000Y-96520000D02*
X82824489Y-97810489D01*
X163830000Y-97790000D02*
X167005000Y-97790000D01*
X167005000Y-97790000D02*
X185195000Y-115980000D01*
X163809511Y-97810489D02*
X163830000Y-97790000D01*
X81534000Y-96520000D02*
X70218300Y-107835700D01*
X185195000Y-115980000D02*
X192985000Y-115980000D01*
X82824489Y-97810489D02*
X163809511Y-97810489D01*
X81534000Y-104140000D02*
X82824489Y-105430489D01*
X167005000Y-104140000D02*
X186465000Y-123600000D01*
X186465000Y-123600000D02*
X192985000Y-123600000D01*
X70218300Y-115455700D02*
X66050000Y-115455700D01*
X82824489Y-105430489D02*
X104160489Y-105430489D01*
X112395000Y-113665000D02*
X118745000Y-113665000D01*
X118745000Y-113665000D02*
X128270000Y-104140000D01*
X104160489Y-105430489D02*
X112395000Y-113665000D01*
X81534000Y-104140000D02*
X70218300Y-115455700D01*
X128270000Y-104140000D02*
X167005000Y-104140000D01*
X70218300Y-92595700D02*
X66050000Y-92595700D01*
X81534000Y-81280000D02*
X70218300Y-92595700D01*
X82783511Y-82529511D02*
X163174511Y-82529511D01*
X81534000Y-81280000D02*
X82783511Y-82529511D01*
X181385000Y-100740000D02*
X192985000Y-100740000D01*
X163174511Y-82529511D02*
X181385000Y-100740000D01*
X70218300Y-95135700D02*
X66050000Y-95135700D01*
X182020000Y-103280000D02*
X192985000Y-103280000D01*
X82783511Y-85069511D02*
X163809511Y-85069511D01*
X81534000Y-83820000D02*
X82783511Y-85069511D01*
X163809511Y-85069511D02*
X182020000Y-103280000D01*
X81534000Y-83820000D02*
X70218300Y-95135700D01*
X71755000Y-121285000D02*
X73660000Y-119380000D01*
X92075000Y-109220000D02*
X84074000Y-109220000D01*
X73660000Y-119380000D02*
X75565000Y-119380000D01*
G04 #@! TA.AperFunction,Conductor*
G36*
X166727461Y-106773502D02*
G01*
X166748435Y-106790405D01*
X184741419Y-124783389D01*
X184775445Y-124845701D01*
X184770380Y-124916516D01*
X184727833Y-124973352D01*
X184661313Y-124998163D01*
X184637518Y-124997611D01*
X184631822Y-124996937D01*
X184631815Y-124996937D01*
X184628126Y-124996500D01*
X153302805Y-124996500D01*
X153294564Y-124996230D01*
X153285452Y-124995633D01*
X153229939Y-124991994D01*
X153142041Y-125002398D01*
X153138773Y-125002740D01*
X153050721Y-125010831D01*
X153045155Y-125012401D01*
X153041459Y-125013086D01*
X153030610Y-125015244D01*
X153026974Y-125016017D01*
X153021235Y-125016696D01*
X152936744Y-125042931D01*
X152933608Y-125043860D01*
X152872459Y-125061106D01*
X152848451Y-125067877D01*
X152843263Y-125070435D01*
X152839812Y-125071760D01*
X152829434Y-125075901D01*
X152826047Y-125077304D01*
X152820527Y-125079018D01*
X152815413Y-125081709D01*
X152815412Y-125081709D01*
X152742255Y-125120198D01*
X152739319Y-125121695D01*
X152659963Y-125160829D01*
X152655332Y-125164287D01*
X152652129Y-125166250D01*
X152642742Y-125172173D01*
X152639649Y-125174182D01*
X152634537Y-125176871D01*
X152565044Y-125231656D01*
X152562474Y-125233627D01*
X152496199Y-125283116D01*
X152496192Y-125283123D01*
X152491571Y-125286573D01*
X152487657Y-125290807D01*
X152487655Y-125290809D01*
X152435738Y-125346973D01*
X152432308Y-125350539D01*
X146985300Y-130797547D01*
X146928816Y-130830159D01*
X146870757Y-130845716D01*
X146773591Y-130891025D01*
X146668238Y-130940151D01*
X146668233Y-130940154D01*
X146663251Y-130942477D01*
X146606080Y-130982509D01*
X146480211Y-131070643D01*
X146480208Y-131070645D01*
X146475700Y-131073802D01*
X146313802Y-131235700D01*
X146182477Y-131423251D01*
X146180154Y-131428233D01*
X146180151Y-131428238D01*
X146180034Y-131428489D01*
X146085716Y-131630757D01*
X146084294Y-131636065D01*
X146084293Y-131636067D01*
X146063019Y-131715461D01*
X146026457Y-131851913D01*
X146006502Y-132080000D01*
X146026457Y-132308087D01*
X146027881Y-132313400D01*
X146027881Y-132313402D01*
X146082358Y-132516709D01*
X146085716Y-132529243D01*
X146088039Y-132534224D01*
X146088039Y-132534225D01*
X146164695Y-132698615D01*
X146176500Y-132751865D01*
X146176500Y-135928397D01*
X146156498Y-135996518D01*
X146151330Y-136003956D01*
X146069385Y-136113295D01*
X146018255Y-136249684D01*
X146011500Y-136311866D01*
X146011500Y-138008134D01*
X146018255Y-138070316D01*
X146069385Y-138206705D01*
X146156739Y-138323261D01*
X146273295Y-138410615D01*
X146409684Y-138461745D01*
X146471866Y-138468500D01*
X148168134Y-138468500D01*
X148230316Y-138461745D01*
X148366705Y-138410615D01*
X148483261Y-138323261D01*
X148570615Y-138206705D01*
X148621745Y-138070316D01*
X148628500Y-138008134D01*
X148628500Y-138004669D01*
X153712001Y-138004669D01*
X153712371Y-138011490D01*
X153717895Y-138062352D01*
X153721521Y-138077604D01*
X153766676Y-138198054D01*
X153775214Y-138213649D01*
X153851715Y-138315724D01*
X153864276Y-138328285D01*
X153966351Y-138404786D01*
X153981946Y-138413324D01*
X154102394Y-138458478D01*
X154117649Y-138462105D01*
X154168514Y-138467631D01*
X154175328Y-138468000D01*
X154747885Y-138468000D01*
X154763124Y-138463525D01*
X154764329Y-138462135D01*
X154766000Y-138454452D01*
X154766000Y-138449884D01*
X155274000Y-138449884D01*
X155278475Y-138465123D01*
X155279865Y-138466328D01*
X155287548Y-138467999D01*
X155864669Y-138467999D01*
X155871490Y-138467629D01*
X155922352Y-138462105D01*
X155937604Y-138458479D01*
X156058054Y-138413324D01*
X156073649Y-138404786D01*
X156175724Y-138328285D01*
X156188285Y-138315724D01*
X156264786Y-138213649D01*
X156273324Y-138198054D01*
X156318478Y-138077606D01*
X156322105Y-138062351D01*
X156327631Y-138011486D01*
X156328000Y-138004672D01*
X156328000Y-137432115D01*
X156323525Y-137416876D01*
X156322135Y-137415671D01*
X156314452Y-137414000D01*
X155292115Y-137414000D01*
X155276876Y-137418475D01*
X155275671Y-137419865D01*
X155274000Y-137427548D01*
X155274000Y-138449884D01*
X154766000Y-138449884D01*
X154766000Y-137432115D01*
X154761525Y-137416876D01*
X154760135Y-137415671D01*
X154752452Y-137414000D01*
X153730116Y-137414000D01*
X153714877Y-137418475D01*
X153713672Y-137419865D01*
X153712001Y-137427548D01*
X153712001Y-138004669D01*
X148628500Y-138004669D01*
X148628500Y-136887885D01*
X153712000Y-136887885D01*
X153716475Y-136903124D01*
X153717865Y-136904329D01*
X153725548Y-136906000D01*
X154747885Y-136906000D01*
X154763124Y-136901525D01*
X154764329Y-136900135D01*
X154766000Y-136892452D01*
X154766000Y-136887885D01*
X155274000Y-136887885D01*
X155278475Y-136903124D01*
X155279865Y-136904329D01*
X155287548Y-136906000D01*
X156309884Y-136906000D01*
X156325123Y-136901525D01*
X156326328Y-136900135D01*
X156327999Y-136892452D01*
X156327999Y-136315331D01*
X156327629Y-136308510D01*
X156322105Y-136257648D01*
X156318479Y-136242396D01*
X156273324Y-136121946D01*
X156264786Y-136106351D01*
X156188285Y-136004276D01*
X156175724Y-135991715D01*
X156073649Y-135915214D01*
X156058054Y-135906676D01*
X155937606Y-135861522D01*
X155922351Y-135857895D01*
X155871486Y-135852369D01*
X155864672Y-135852000D01*
X155292115Y-135852000D01*
X155276876Y-135856475D01*
X155275671Y-135857865D01*
X155274000Y-135865548D01*
X155274000Y-136887885D01*
X154766000Y-136887885D01*
X154766000Y-135870116D01*
X154761525Y-135854877D01*
X154760135Y-135853672D01*
X154752452Y-135852001D01*
X154175331Y-135852001D01*
X154168510Y-135852371D01*
X154117648Y-135857895D01*
X154102396Y-135861521D01*
X153981946Y-135906676D01*
X153966351Y-135915214D01*
X153864276Y-135991715D01*
X153851715Y-136004276D01*
X153775214Y-136106351D01*
X153766676Y-136121946D01*
X153721522Y-136242394D01*
X153717895Y-136257649D01*
X153712369Y-136308514D01*
X153712000Y-136315328D01*
X153712000Y-136887885D01*
X148628500Y-136887885D01*
X148628500Y-136311866D01*
X148621745Y-136249684D01*
X148570615Y-136113295D01*
X148488674Y-136003961D01*
X148463826Y-135937456D01*
X148463500Y-135928397D01*
X148463500Y-133166062D01*
X154298493Y-133166062D01*
X154307789Y-133178077D01*
X154358994Y-133213931D01*
X154368489Y-133219414D01*
X154565947Y-133311490D01*
X154576239Y-133315236D01*
X154786688Y-133371625D01*
X154797481Y-133373528D01*
X155014525Y-133392517D01*
X155025475Y-133392517D01*
X155242519Y-133373528D01*
X155253312Y-133371625D01*
X155463761Y-133315236D01*
X155474053Y-133311490D01*
X155671511Y-133219414D01*
X155681006Y-133213931D01*
X155733048Y-133177491D01*
X155741424Y-133167012D01*
X155734356Y-133153566D01*
X155032812Y-132452022D01*
X155018868Y-132444408D01*
X155017035Y-132444539D01*
X155010420Y-132448790D01*
X154304923Y-133154287D01*
X154298493Y-133166062D01*
X148463500Y-133166062D01*
X148463500Y-132751865D01*
X148475305Y-132698615D01*
X148531271Y-132578595D01*
X148554284Y-132529243D01*
X148569841Y-132471184D01*
X148602453Y-132414700D01*
X148931678Y-132085475D01*
X153707483Y-132085475D01*
X153726472Y-132302519D01*
X153728375Y-132313312D01*
X153784764Y-132523761D01*
X153788510Y-132534053D01*
X153880586Y-132731511D01*
X153886069Y-132741006D01*
X153922509Y-132793048D01*
X153932988Y-132801424D01*
X153946434Y-132794356D01*
X154647978Y-132092812D01*
X154654356Y-132081132D01*
X155384408Y-132081132D01*
X155384539Y-132082965D01*
X155388790Y-132089580D01*
X156094287Y-132795077D01*
X156106062Y-132801507D01*
X156118077Y-132792211D01*
X156153931Y-132741006D01*
X156159414Y-132731511D01*
X156251490Y-132534053D01*
X156255236Y-132523761D01*
X156311625Y-132313312D01*
X156313528Y-132302519D01*
X156332517Y-132085475D01*
X156332517Y-132074525D01*
X156313528Y-131857481D01*
X156311625Y-131846688D01*
X156255236Y-131636239D01*
X156251490Y-131625947D01*
X156159414Y-131428489D01*
X156153931Y-131418994D01*
X156117491Y-131366952D01*
X156107012Y-131358576D01*
X156093566Y-131365644D01*
X155392022Y-132067188D01*
X155384408Y-132081132D01*
X154654356Y-132081132D01*
X154655592Y-132078868D01*
X154655461Y-132077035D01*
X154651210Y-132070420D01*
X153945713Y-131364923D01*
X153933938Y-131358493D01*
X153921923Y-131367789D01*
X153886069Y-131418994D01*
X153880586Y-131428489D01*
X153788510Y-131625947D01*
X153784764Y-131636239D01*
X153728375Y-131846688D01*
X153726472Y-131857481D01*
X153707483Y-132074525D01*
X153707483Y-132085475D01*
X148931678Y-132085475D01*
X150024165Y-130992988D01*
X154298576Y-130992988D01*
X154305644Y-131006434D01*
X155007188Y-131707978D01*
X155021132Y-131715592D01*
X155022965Y-131715461D01*
X155029580Y-131711210D01*
X155735077Y-131005713D01*
X155741507Y-130993938D01*
X155732211Y-130981923D01*
X155681006Y-130946069D01*
X155671511Y-130940586D01*
X155474053Y-130848510D01*
X155463761Y-130844764D01*
X155253312Y-130788375D01*
X155242519Y-130786472D01*
X155025475Y-130767483D01*
X155014525Y-130767483D01*
X154797481Y-130786472D01*
X154786688Y-130788375D01*
X154576239Y-130844764D01*
X154565947Y-130848510D01*
X154368489Y-130940586D01*
X154358994Y-130946069D01*
X154306952Y-130982509D01*
X154298576Y-130992988D01*
X150024165Y-130992988D01*
X153696748Y-127320405D01*
X153759060Y-127286379D01*
X153785843Y-127283500D01*
X163352892Y-127283500D01*
X163400350Y-127297435D01*
X163420021Y-127286541D01*
X163447537Y-127283500D01*
X184613316Y-127283500D01*
X184769279Y-127269169D01*
X184774841Y-127267600D01*
X184774843Y-127267600D01*
X184870414Y-127240646D01*
X184971549Y-127212123D01*
X185160037Y-127119171D01*
X185301823Y-127013295D01*
X185323805Y-126996880D01*
X185323806Y-126996879D01*
X185328429Y-126993427D01*
X185358111Y-126961317D01*
X185467167Y-126843341D01*
X185467169Y-126843338D01*
X185471086Y-126839101D01*
X185583231Y-126661362D01*
X185661108Y-126466163D01*
X185662233Y-126460506D01*
X185662235Y-126460500D01*
X185700981Y-126265707D01*
X185700981Y-126265705D01*
X185702108Y-126260040D01*
X185703127Y-126182252D01*
X185704859Y-126049898D01*
X185707482Y-126049932D01*
X185719790Y-125991360D01*
X185769636Y-125940804D01*
X185838902Y-125925223D01*
X185905596Y-125949562D01*
X185919897Y-125961867D01*
X186578550Y-126620520D01*
X186584404Y-126626785D01*
X186622439Y-126670385D01*
X186628657Y-126674755D01*
X186674697Y-126707112D01*
X186679993Y-126711045D01*
X186730282Y-126750477D01*
X186737204Y-126753602D01*
X186739452Y-126754964D01*
X186754185Y-126763368D01*
X186756524Y-126764622D01*
X186762739Y-126768990D01*
X186769815Y-126771749D01*
X186769819Y-126771751D01*
X186822274Y-126792202D01*
X186828352Y-126794757D01*
X186886574Y-126821045D01*
X186894045Y-126822429D01*
X186896599Y-126823230D01*
X186912878Y-126827867D01*
X186915433Y-126828523D01*
X186922509Y-126831282D01*
X186944796Y-126834216D01*
X186985851Y-126839621D01*
X186992367Y-126840653D01*
X187034706Y-126848500D01*
X187055187Y-126852296D01*
X187062767Y-126851859D01*
X187062768Y-126851859D01*
X187117398Y-126848709D01*
X187124651Y-126848500D01*
X188582126Y-126848500D01*
X188650247Y-126868502D01*
X188696740Y-126922158D01*
X188700108Y-126930271D01*
X188725079Y-126996880D01*
X188734385Y-127021705D01*
X188821739Y-127138261D01*
X188938295Y-127225615D01*
X189074684Y-127276745D01*
X189136866Y-127283500D01*
X196151000Y-127283500D01*
X196219121Y-127303502D01*
X196265614Y-127357158D01*
X196277000Y-127409500D01*
X196277000Y-127410500D01*
X196256998Y-127478621D01*
X196203342Y-127525114D01*
X196151000Y-127536500D01*
X163462795Y-127536500D01*
X163454555Y-127536230D01*
X163439297Y-127535230D01*
X163402077Y-127521600D01*
X163388390Y-127530396D01*
X163367701Y-127534627D01*
X163302092Y-127542392D01*
X163298813Y-127542736D01*
X163216477Y-127550302D01*
X163216476Y-127550302D01*
X163210721Y-127550831D01*
X163205162Y-127552399D01*
X163201588Y-127553061D01*
X163190585Y-127555250D01*
X163186972Y-127556018D01*
X163181235Y-127556697D01*
X163096724Y-127582938D01*
X163093627Y-127583854D01*
X163008451Y-127607877D01*
X163003263Y-127610435D01*
X162999812Y-127611760D01*
X162989434Y-127615901D01*
X162986047Y-127617304D01*
X162980527Y-127619018D01*
X162975413Y-127621709D01*
X162975412Y-127621709D01*
X162902255Y-127660198D01*
X162899319Y-127661695D01*
X162819963Y-127700829D01*
X162815332Y-127704287D01*
X162812129Y-127706250D01*
X162802742Y-127712173D01*
X162799649Y-127714182D01*
X162794537Y-127716871D01*
X162725044Y-127771656D01*
X162722474Y-127773627D01*
X162656199Y-127823116D01*
X162656192Y-127823123D01*
X162651571Y-127826573D01*
X162647657Y-127830807D01*
X162647655Y-127830809D01*
X162595738Y-127886973D01*
X162592308Y-127890539D01*
X159685300Y-130797547D01*
X159628816Y-130830159D01*
X159570757Y-130845716D01*
X159473591Y-130891025D01*
X159368238Y-130940151D01*
X159368233Y-130940154D01*
X159363251Y-130942477D01*
X159306080Y-130982509D01*
X159180211Y-131070643D01*
X159180208Y-131070645D01*
X159175700Y-131073802D01*
X159013802Y-131235700D01*
X158882477Y-131423251D01*
X158880154Y-131428233D01*
X158880151Y-131428238D01*
X158880034Y-131428489D01*
X158785716Y-131630757D01*
X158784294Y-131636065D01*
X158784293Y-131636067D01*
X158763019Y-131715461D01*
X158726457Y-131851913D01*
X158706502Y-132080000D01*
X158726457Y-132308087D01*
X158727881Y-132313400D01*
X158727881Y-132313402D01*
X158782358Y-132516709D01*
X158785716Y-132529243D01*
X158788039Y-132534224D01*
X158788039Y-132534225D01*
X158864695Y-132698615D01*
X158876500Y-132751865D01*
X158876500Y-136488135D01*
X158864695Y-136541385D01*
X158785716Y-136710757D01*
X158784294Y-136716065D01*
X158784293Y-136716067D01*
X158734972Y-136900135D01*
X158726457Y-136931913D01*
X158706502Y-137160000D01*
X158726457Y-137388087D01*
X158727881Y-137393400D01*
X158727881Y-137393402D01*
X158765025Y-137532022D01*
X158785716Y-137609243D01*
X158788039Y-137614224D01*
X158788039Y-137614225D01*
X158880151Y-137811762D01*
X158880154Y-137811767D01*
X158882477Y-137816749D01*
X159013802Y-138004300D01*
X159175700Y-138166198D01*
X159180208Y-138169355D01*
X159180211Y-138169357D01*
X159221195Y-138198054D01*
X159363251Y-138297523D01*
X159368233Y-138299846D01*
X159368238Y-138299849D01*
X159564765Y-138391490D01*
X159570757Y-138394284D01*
X159576065Y-138395706D01*
X159576067Y-138395707D01*
X159786598Y-138452119D01*
X159786600Y-138452119D01*
X159791913Y-138453543D01*
X160020000Y-138473498D01*
X160248087Y-138453543D01*
X160253400Y-138452119D01*
X160253402Y-138452119D01*
X160463933Y-138395707D01*
X160463935Y-138395706D01*
X160469243Y-138394284D01*
X160475235Y-138391490D01*
X160671762Y-138299849D01*
X160671767Y-138299846D01*
X160676749Y-138297523D01*
X160750243Y-138246062D01*
X166998493Y-138246062D01*
X167007789Y-138258077D01*
X167058994Y-138293931D01*
X167068489Y-138299414D01*
X167265947Y-138391490D01*
X167276239Y-138395236D01*
X167486688Y-138451625D01*
X167497481Y-138453528D01*
X167714525Y-138472517D01*
X167725475Y-138472517D01*
X167942519Y-138453528D01*
X167953312Y-138451625D01*
X168163761Y-138395236D01*
X168174053Y-138391490D01*
X168371511Y-138299414D01*
X168381006Y-138293931D01*
X168433048Y-138257491D01*
X168441424Y-138247012D01*
X168434356Y-138233566D01*
X167732812Y-137532022D01*
X167718868Y-137524408D01*
X167717035Y-137524539D01*
X167710420Y-137528790D01*
X167004923Y-138234287D01*
X166998493Y-138246062D01*
X160750243Y-138246062D01*
X160818805Y-138198054D01*
X160859789Y-138169357D01*
X160859792Y-138169355D01*
X160864300Y-138166198D01*
X161026198Y-138004300D01*
X161157523Y-137816749D01*
X161159846Y-137811767D01*
X161159849Y-137811762D01*
X161251961Y-137614225D01*
X161251961Y-137614224D01*
X161254284Y-137609243D01*
X161274976Y-137532022D01*
X161312119Y-137393402D01*
X161312119Y-137393400D01*
X161313543Y-137388087D01*
X161333019Y-137165475D01*
X166407483Y-137165475D01*
X166426472Y-137382519D01*
X166428375Y-137393312D01*
X166484764Y-137603761D01*
X166488510Y-137614053D01*
X166580586Y-137811511D01*
X166586069Y-137821006D01*
X166622509Y-137873048D01*
X166632988Y-137881424D01*
X166646434Y-137874356D01*
X167347978Y-137172812D01*
X167354356Y-137161132D01*
X168084408Y-137161132D01*
X168084539Y-137162965D01*
X168088790Y-137169580D01*
X168794287Y-137875077D01*
X168806062Y-137881507D01*
X168818077Y-137872211D01*
X168853931Y-137821006D01*
X168859414Y-137811511D01*
X168951490Y-137614053D01*
X168955236Y-137603761D01*
X169011625Y-137393312D01*
X169013528Y-137382519D01*
X169032517Y-137165475D01*
X169032517Y-137154525D01*
X169013528Y-136937481D01*
X169011625Y-136926688D01*
X168955236Y-136716239D01*
X168951490Y-136705947D01*
X168859414Y-136508489D01*
X168853931Y-136498994D01*
X168817491Y-136446952D01*
X168807012Y-136438576D01*
X168793566Y-136445644D01*
X168092022Y-137147188D01*
X168084408Y-137161132D01*
X167354356Y-137161132D01*
X167355592Y-137158868D01*
X167355461Y-137157035D01*
X167351210Y-137150420D01*
X166645713Y-136444923D01*
X166633938Y-136438493D01*
X166621923Y-136447789D01*
X166586069Y-136498994D01*
X166580586Y-136508489D01*
X166488510Y-136705947D01*
X166484764Y-136716239D01*
X166428375Y-136926688D01*
X166426472Y-136937481D01*
X166407483Y-137154525D01*
X166407483Y-137165475D01*
X161333019Y-137165475D01*
X161333498Y-137160000D01*
X161313543Y-136931913D01*
X161305028Y-136900135D01*
X161255707Y-136716067D01*
X161255706Y-136716065D01*
X161254284Y-136710757D01*
X161175305Y-136541385D01*
X161163500Y-136488135D01*
X161163500Y-136072988D01*
X166998576Y-136072988D01*
X167005644Y-136086434D01*
X167707188Y-136787978D01*
X167721132Y-136795592D01*
X167722965Y-136795461D01*
X167729580Y-136791210D01*
X168435077Y-136085713D01*
X168441507Y-136073938D01*
X168432211Y-136061923D01*
X168381006Y-136026069D01*
X168371511Y-136020586D01*
X168174053Y-135928510D01*
X168163761Y-135924764D01*
X167953312Y-135868375D01*
X167942519Y-135866472D01*
X167725475Y-135847483D01*
X167714525Y-135847483D01*
X167497481Y-135866472D01*
X167486688Y-135868375D01*
X167276239Y-135924764D01*
X167265947Y-135928510D01*
X167068489Y-136020586D01*
X167058994Y-136026069D01*
X167006952Y-136062509D01*
X166998576Y-136072988D01*
X161163500Y-136072988D01*
X161163500Y-133166062D01*
X166998493Y-133166062D01*
X167007789Y-133178077D01*
X167058994Y-133213931D01*
X167068489Y-133219414D01*
X167265947Y-133311490D01*
X167276239Y-133315236D01*
X167486688Y-133371625D01*
X167497481Y-133373528D01*
X167714525Y-133392517D01*
X167725475Y-133392517D01*
X167942519Y-133373528D01*
X167953312Y-133371625D01*
X168163761Y-133315236D01*
X168174053Y-133311490D01*
X168371511Y-133219414D01*
X168381006Y-133213931D01*
X168433048Y-133177491D01*
X168441424Y-133167012D01*
X168434356Y-133153566D01*
X167732812Y-132452022D01*
X167718868Y-132444408D01*
X167717035Y-132444539D01*
X167710420Y-132448790D01*
X167004923Y-133154287D01*
X166998493Y-133166062D01*
X161163500Y-133166062D01*
X161163500Y-132751865D01*
X161175305Y-132698615D01*
X161231271Y-132578595D01*
X161254284Y-132529243D01*
X161269841Y-132471184D01*
X161302453Y-132414700D01*
X161631678Y-132085475D01*
X166407483Y-132085475D01*
X166426472Y-132302519D01*
X166428375Y-132313312D01*
X166484764Y-132523761D01*
X166488510Y-132534053D01*
X166580586Y-132731511D01*
X166586069Y-132741006D01*
X166622509Y-132793048D01*
X166632988Y-132801424D01*
X166646434Y-132794356D01*
X167347978Y-132092812D01*
X167354356Y-132081132D01*
X168084408Y-132081132D01*
X168084539Y-132082965D01*
X168088790Y-132089580D01*
X168794287Y-132795077D01*
X168806062Y-132801507D01*
X168818077Y-132792211D01*
X168853931Y-132741006D01*
X168859414Y-132731511D01*
X168951490Y-132534053D01*
X168955236Y-132523761D01*
X169011625Y-132313312D01*
X169013528Y-132302519D01*
X169032517Y-132085475D01*
X169032517Y-132074525D01*
X169013528Y-131857481D01*
X169011625Y-131846688D01*
X168955236Y-131636239D01*
X168951490Y-131625947D01*
X168859414Y-131428489D01*
X168853931Y-131418994D01*
X168817491Y-131366952D01*
X168807012Y-131358576D01*
X168793566Y-131365644D01*
X168092022Y-132067188D01*
X168084408Y-132081132D01*
X167354356Y-132081132D01*
X167355592Y-132078868D01*
X167355461Y-132077035D01*
X167351210Y-132070420D01*
X166645713Y-131364923D01*
X166633938Y-131358493D01*
X166621923Y-131367789D01*
X166586069Y-131418994D01*
X166580586Y-131428489D01*
X166488510Y-131625947D01*
X166484764Y-131636239D01*
X166428375Y-131846688D01*
X166426472Y-131857481D01*
X166407483Y-132074525D01*
X166407483Y-132085475D01*
X161631678Y-132085475D01*
X162724165Y-130992988D01*
X166998576Y-130992988D01*
X167005644Y-131006434D01*
X167707188Y-131707978D01*
X167721132Y-131715592D01*
X167722965Y-131715461D01*
X167729580Y-131711210D01*
X168435077Y-131005713D01*
X168441507Y-130993938D01*
X168432211Y-130981923D01*
X168381006Y-130946069D01*
X168371511Y-130940586D01*
X168174053Y-130848510D01*
X168163761Y-130844764D01*
X167953312Y-130788375D01*
X167942519Y-130786472D01*
X167725475Y-130767483D01*
X167714525Y-130767483D01*
X167497481Y-130786472D01*
X167486688Y-130788375D01*
X167276239Y-130844764D01*
X167265947Y-130848510D01*
X167068489Y-130940586D01*
X167058994Y-130946069D01*
X167006952Y-130982509D01*
X166998576Y-130992988D01*
X162724165Y-130992988D01*
X163856749Y-129860405D01*
X163919061Y-129826379D01*
X163945844Y-129823500D01*
X173512883Y-129823500D01*
X173560355Y-129837439D01*
X173580034Y-129826541D01*
X173607549Y-129823500D01*
X196151000Y-129823500D01*
X196219121Y-129843502D01*
X196265614Y-129897158D01*
X196277000Y-129949500D01*
X196277000Y-129950500D01*
X196256998Y-130018621D01*
X196203342Y-130065114D01*
X196151000Y-130076500D01*
X173622805Y-130076500D01*
X173614564Y-130076230D01*
X173599308Y-130075230D01*
X173562076Y-130061595D01*
X173548381Y-130070396D01*
X173527693Y-130074627D01*
X173514150Y-130076230D01*
X173462041Y-130082398D01*
X173458773Y-130082740D01*
X173370721Y-130090831D01*
X173365155Y-130092401D01*
X173361459Y-130093086D01*
X173350610Y-130095244D01*
X173346974Y-130096017D01*
X173341235Y-130096696D01*
X173256744Y-130122931D01*
X173253608Y-130123860D01*
X173192459Y-130141106D01*
X173168451Y-130147877D01*
X173163263Y-130150435D01*
X173159812Y-130151760D01*
X173149434Y-130155901D01*
X173146047Y-130157304D01*
X173140527Y-130159018D01*
X173135413Y-130161709D01*
X173135412Y-130161709D01*
X173062255Y-130200198D01*
X173059319Y-130201695D01*
X172979963Y-130240829D01*
X172975332Y-130244287D01*
X172972129Y-130246250D01*
X172962742Y-130252173D01*
X172959649Y-130254182D01*
X172954537Y-130256871D01*
X172885044Y-130311656D01*
X172882474Y-130313627D01*
X172816199Y-130363116D01*
X172816192Y-130363123D01*
X172811571Y-130366573D01*
X172807657Y-130370807D01*
X172807655Y-130370809D01*
X172755738Y-130426973D01*
X172752308Y-130430539D01*
X172385300Y-130797547D01*
X172328816Y-130830159D01*
X172270757Y-130845716D01*
X172173591Y-130891025D01*
X172068238Y-130940151D01*
X172068233Y-130940154D01*
X172063251Y-130942477D01*
X172006080Y-130982509D01*
X171880211Y-131070643D01*
X171880208Y-131070645D01*
X171875700Y-131073802D01*
X171713802Y-131235700D01*
X171582477Y-131423251D01*
X171580154Y-131428233D01*
X171580151Y-131428238D01*
X171580034Y-131428489D01*
X171485716Y-131630757D01*
X171484294Y-131636065D01*
X171484293Y-131636067D01*
X171463019Y-131715461D01*
X171426457Y-131851913D01*
X171406502Y-132080000D01*
X171426457Y-132308087D01*
X171427881Y-132313400D01*
X171427881Y-132313402D01*
X171482358Y-132516709D01*
X171485716Y-132529243D01*
X171488039Y-132534224D01*
X171488039Y-132534225D01*
X171564695Y-132698615D01*
X171576500Y-132751865D01*
X171576500Y-135928397D01*
X171556498Y-135996518D01*
X171551330Y-136003956D01*
X171469385Y-136113295D01*
X171418255Y-136249684D01*
X171411500Y-136311866D01*
X171411500Y-138008134D01*
X171418255Y-138070316D01*
X171469385Y-138206705D01*
X171556739Y-138323261D01*
X171673295Y-138410615D01*
X171809684Y-138461745D01*
X171871866Y-138468500D01*
X173568134Y-138468500D01*
X173630316Y-138461745D01*
X173766705Y-138410615D01*
X173883261Y-138323261D01*
X173970615Y-138206705D01*
X174021745Y-138070316D01*
X174028500Y-138008134D01*
X174028500Y-136311866D01*
X174021745Y-136249684D01*
X173970615Y-136113295D01*
X173888674Y-136003961D01*
X173863826Y-135937456D01*
X173863500Y-135928397D01*
X173863500Y-132751865D01*
X173875305Y-132698615D01*
X173931271Y-132578595D01*
X173954284Y-132529243D01*
X173969841Y-132471184D01*
X174002453Y-132414700D01*
X174016748Y-132400405D01*
X174079060Y-132366379D01*
X174105843Y-132363500D01*
X195594588Y-132363500D01*
X195662709Y-132383502D01*
X195709202Y-132437158D01*
X195719306Y-132507432D01*
X195689812Y-132572012D01*
X195683684Y-132578595D01*
X195161485Y-133100795D01*
X195099172Y-133134820D01*
X195072389Y-133137700D01*
X189193702Y-133137700D01*
X189192932Y-133137698D01*
X189192078Y-133137693D01*
X189115348Y-133137224D01*
X189106719Y-133139690D01*
X189106714Y-133139691D01*
X189086952Y-133145339D01*
X189070191Y-133148917D01*
X189049848Y-133151830D01*
X189049838Y-133151833D01*
X189040955Y-133153105D01*
X189017605Y-133163721D01*
X189000093Y-133170164D01*
X188987200Y-133173849D01*
X188975435Y-133177212D01*
X188950452Y-133192974D01*
X188935386Y-133201104D01*
X188908490Y-133213333D01*
X188889061Y-133230074D01*
X188874053Y-133241179D01*
X188852369Y-133254860D01*
X188846427Y-133261588D01*
X188832819Y-133276996D01*
X188820627Y-133289040D01*
X188798253Y-133308319D01*
X188793374Y-133315847D01*
X188793371Y-133315850D01*
X188784304Y-133329839D01*
X188773014Y-133344713D01*
X188756044Y-133363928D01*
X188752229Y-133372054D01*
X188752228Y-133372055D01*
X188749568Y-133377721D01*
X188743490Y-133390666D01*
X188735176Y-133405635D01*
X188719107Y-133430427D01*
X188716535Y-133439027D01*
X188711761Y-133454990D01*
X188705099Y-133472436D01*
X188694201Y-133495648D01*
X188692820Y-133504521D01*
X188689658Y-133524828D01*
X188685874Y-133541549D01*
X188679986Y-133561236D01*
X188679985Y-133561239D01*
X188677413Y-133569841D01*
X188677358Y-133578816D01*
X188677358Y-133578817D01*
X188677203Y-133604246D01*
X188677170Y-133605028D01*
X188677000Y-133606123D01*
X188677000Y-133636998D01*
X188676998Y-133637768D01*
X188676524Y-133715352D01*
X188676908Y-133716696D01*
X188677000Y-133718041D01*
X188677000Y-143161700D01*
X188656998Y-143229821D01*
X188603342Y-143276314D01*
X188551000Y-143287700D01*
X81674896Y-143287700D01*
X81606775Y-143267698D01*
X81586455Y-143251445D01*
X81495387Y-143161700D01*
X76507249Y-138246062D01*
X141598493Y-138246062D01*
X141607789Y-138258077D01*
X141658994Y-138293931D01*
X141668489Y-138299414D01*
X141865947Y-138391490D01*
X141876239Y-138395236D01*
X142086688Y-138451625D01*
X142097481Y-138453528D01*
X142314525Y-138472517D01*
X142325475Y-138472517D01*
X142542519Y-138453528D01*
X142553312Y-138451625D01*
X142763761Y-138395236D01*
X142774053Y-138391490D01*
X142971511Y-138299414D01*
X142981006Y-138293931D01*
X143033048Y-138257491D01*
X143041424Y-138247012D01*
X143034356Y-138233566D01*
X142332812Y-137532022D01*
X142318868Y-137524408D01*
X142317035Y-137524539D01*
X142310420Y-137528790D01*
X141604923Y-138234287D01*
X141598493Y-138246062D01*
X76507249Y-138246062D01*
X75410725Y-137165475D01*
X141007483Y-137165475D01*
X141026472Y-137382519D01*
X141028375Y-137393312D01*
X141084764Y-137603761D01*
X141088510Y-137614053D01*
X141180586Y-137811511D01*
X141186069Y-137821006D01*
X141222509Y-137873048D01*
X141232988Y-137881424D01*
X141246434Y-137874356D01*
X141947978Y-137172812D01*
X141954356Y-137161132D01*
X142684408Y-137161132D01*
X142684539Y-137162965D01*
X142688790Y-137169580D01*
X143394287Y-137875077D01*
X143406062Y-137881507D01*
X143418077Y-137872211D01*
X143453931Y-137821006D01*
X143459414Y-137811511D01*
X143551490Y-137614053D01*
X143555236Y-137603761D01*
X143611625Y-137393312D01*
X143613528Y-137382519D01*
X143632517Y-137165475D01*
X143632517Y-137154525D01*
X143613528Y-136937481D01*
X143611625Y-136926688D01*
X143555236Y-136716239D01*
X143551490Y-136705947D01*
X143459414Y-136508489D01*
X143453931Y-136498994D01*
X143417491Y-136446952D01*
X143407012Y-136438576D01*
X143393566Y-136445644D01*
X142692022Y-137147188D01*
X142684408Y-137161132D01*
X141954356Y-137161132D01*
X141955592Y-137158868D01*
X141955461Y-137157035D01*
X141951210Y-137150420D01*
X141245713Y-136444923D01*
X141233938Y-136438493D01*
X141221923Y-136447789D01*
X141186069Y-136498994D01*
X141180586Y-136508489D01*
X141088510Y-136705947D01*
X141084764Y-136716239D01*
X141028375Y-136926688D01*
X141026472Y-136937481D01*
X141007483Y-137154525D01*
X141007483Y-137165475D01*
X75410725Y-137165475D01*
X74302125Y-136072988D01*
X141598576Y-136072988D01*
X141605644Y-136086434D01*
X142307188Y-136787978D01*
X142321132Y-136795592D01*
X142322965Y-136795461D01*
X142329580Y-136791210D01*
X143035077Y-136085713D01*
X143041507Y-136073938D01*
X143032211Y-136061923D01*
X142981006Y-136026069D01*
X142971511Y-136020586D01*
X142774053Y-135928510D01*
X142763761Y-135924764D01*
X142553312Y-135868375D01*
X142542519Y-135866472D01*
X142325475Y-135847483D01*
X142314525Y-135847483D01*
X142097481Y-135866472D01*
X142086688Y-135868375D01*
X141876239Y-135924764D01*
X141865947Y-135928510D01*
X141668489Y-136020586D01*
X141658994Y-136026069D01*
X141606952Y-136062509D01*
X141598576Y-136072988D01*
X74302125Y-136072988D01*
X72277782Y-134078067D01*
X71352326Y-133166062D01*
X141598493Y-133166062D01*
X141607789Y-133178077D01*
X141658994Y-133213931D01*
X141668489Y-133219414D01*
X141865947Y-133311490D01*
X141876239Y-133315236D01*
X142086688Y-133371625D01*
X142097481Y-133373528D01*
X142314525Y-133392517D01*
X142325475Y-133392517D01*
X142542519Y-133373528D01*
X142553312Y-133371625D01*
X142763761Y-133315236D01*
X142774053Y-133311490D01*
X142971511Y-133219414D01*
X142981006Y-133213931D01*
X143033048Y-133177491D01*
X143041424Y-133167012D01*
X143034356Y-133153566D01*
X142332812Y-132452022D01*
X142318868Y-132444408D01*
X142317035Y-132444539D01*
X142310420Y-132448790D01*
X141604923Y-133154287D01*
X141598493Y-133166062D01*
X71352326Y-133166062D01*
X70360559Y-132188710D01*
X70326079Y-132126649D01*
X70323000Y-132098965D01*
X70323000Y-132085475D01*
X141007483Y-132085475D01*
X141026472Y-132302519D01*
X141028375Y-132313312D01*
X141084764Y-132523761D01*
X141088510Y-132534053D01*
X141180586Y-132731511D01*
X141186069Y-132741006D01*
X141222509Y-132793048D01*
X141232988Y-132801424D01*
X141246434Y-132794356D01*
X141947978Y-132092812D01*
X141954356Y-132081132D01*
X142684408Y-132081132D01*
X142684539Y-132082965D01*
X142688790Y-132089580D01*
X143394287Y-132795077D01*
X143406062Y-132801507D01*
X143418077Y-132792211D01*
X143453931Y-132741006D01*
X143459414Y-132731511D01*
X143551490Y-132534053D01*
X143555236Y-132523761D01*
X143611625Y-132313312D01*
X143613528Y-132302519D01*
X143632517Y-132085475D01*
X143632517Y-132074525D01*
X143613528Y-131857481D01*
X143611625Y-131846688D01*
X143555236Y-131636239D01*
X143551490Y-131625947D01*
X143459414Y-131428489D01*
X143453931Y-131418994D01*
X143417491Y-131366952D01*
X143407012Y-131358576D01*
X143393566Y-131365644D01*
X142692022Y-132067188D01*
X142684408Y-132081132D01*
X141954356Y-132081132D01*
X141955592Y-132078868D01*
X141955461Y-132077035D01*
X141951210Y-132070420D01*
X141245713Y-131364923D01*
X141233938Y-131358493D01*
X141221923Y-131367789D01*
X141186069Y-131418994D01*
X141180586Y-131428489D01*
X141088510Y-131625947D01*
X141084764Y-131636239D01*
X141028375Y-131846688D01*
X141026472Y-131857481D01*
X141007483Y-132074525D01*
X141007483Y-132085475D01*
X70323000Y-132085475D01*
X70323000Y-130992988D01*
X141598576Y-130992988D01*
X141605644Y-131006434D01*
X142307188Y-131707978D01*
X142321132Y-131715592D01*
X142322965Y-131715461D01*
X142329580Y-131711210D01*
X143035077Y-131005713D01*
X143041507Y-130993938D01*
X143032211Y-130981923D01*
X142981006Y-130946069D01*
X142971511Y-130940586D01*
X142774053Y-130848510D01*
X142763761Y-130844764D01*
X142553312Y-130788375D01*
X142542519Y-130786472D01*
X142325475Y-130767483D01*
X142314525Y-130767483D01*
X142097481Y-130786472D01*
X142086688Y-130788375D01*
X141876239Y-130844764D01*
X141865947Y-130848510D01*
X141668489Y-130940586D01*
X141658994Y-130946069D01*
X141606952Y-130982509D01*
X141598576Y-130992988D01*
X70323000Y-130992988D01*
X70323000Y-125510102D01*
X70323002Y-125509332D01*
X70323074Y-125497529D01*
X70323476Y-125431748D01*
X70321010Y-125423119D01*
X70321009Y-125423114D01*
X70315361Y-125403352D01*
X70311783Y-125386591D01*
X70308870Y-125366248D01*
X70308867Y-125366238D01*
X70307595Y-125357355D01*
X70296979Y-125334005D01*
X70290536Y-125316493D01*
X70285954Y-125300463D01*
X70283488Y-125291835D01*
X70267726Y-125266852D01*
X70259596Y-125251786D01*
X70247367Y-125224890D01*
X70230626Y-125205461D01*
X70219521Y-125190453D01*
X70210630Y-125176361D01*
X70205840Y-125168769D01*
X70183703Y-125149218D01*
X70171659Y-125137026D01*
X70171084Y-125136358D01*
X70152381Y-125114653D01*
X70144853Y-125109774D01*
X70144850Y-125109771D01*
X70130861Y-125100704D01*
X70115987Y-125089414D01*
X70111513Y-125085463D01*
X70096772Y-125072444D01*
X70088646Y-125068629D01*
X70088645Y-125068628D01*
X70082979Y-125065968D01*
X70070034Y-125059890D01*
X70055065Y-125051576D01*
X70030273Y-125035507D01*
X70005709Y-125028161D01*
X69988264Y-125021499D01*
X69965052Y-125010601D01*
X69935870Y-125006057D01*
X69919148Y-125002273D01*
X69916115Y-125001366D01*
X69904891Y-124998009D01*
X69845360Y-124959324D01*
X69816193Y-124894595D01*
X69815000Y-124877294D01*
X69815000Y-124345200D01*
X69835002Y-124277079D01*
X69888658Y-124230586D01*
X69941000Y-124219200D01*
X77470500Y-124219200D01*
X77538621Y-124239202D01*
X77585114Y-124292858D01*
X77596500Y-124345200D01*
X77596500Y-126957195D01*
X77596230Y-126965436D01*
X77591994Y-127030061D01*
X77602399Y-127117973D01*
X77602736Y-127121186D01*
X77610831Y-127209279D01*
X77612399Y-127214839D01*
X77613061Y-127218412D01*
X77615250Y-127229415D01*
X77616018Y-127233028D01*
X77616697Y-127238765D01*
X77642938Y-127323276D01*
X77643854Y-127326373D01*
X77667877Y-127411549D01*
X77670435Y-127416737D01*
X77671760Y-127420188D01*
X77675901Y-127430566D01*
X77677304Y-127433953D01*
X77679018Y-127439473D01*
X77681709Y-127444587D01*
X77681709Y-127444588D01*
X77720198Y-127517745D01*
X77721695Y-127520681D01*
X77760829Y-127600037D01*
X77764287Y-127604668D01*
X77766250Y-127607871D01*
X77772173Y-127617258D01*
X77774182Y-127620351D01*
X77776871Y-127625463D01*
X77831656Y-127694956D01*
X77833627Y-127697526D01*
X77883116Y-127763801D01*
X77883123Y-127763808D01*
X77886573Y-127768429D01*
X77890807Y-127772343D01*
X77890809Y-127772345D01*
X77946973Y-127824262D01*
X77950539Y-127827692D01*
X80441151Y-130318304D01*
X80446788Y-130324322D01*
X80489494Y-130373019D01*
X80558973Y-130427793D01*
X80561517Y-130429853D01*
X80625092Y-130482728D01*
X80625102Y-130482735D01*
X80629539Y-130486425D01*
X80634583Y-130489250D01*
X80637641Y-130491351D01*
X80646921Y-130497552D01*
X80650005Y-130499555D01*
X80654537Y-130503128D01*
X80659638Y-130505812D01*
X80659643Y-130505815D01*
X80732829Y-130544319D01*
X80735719Y-130545889D01*
X80812903Y-130589114D01*
X80818378Y-130590972D01*
X80821767Y-130592481D01*
X80832026Y-130596889D01*
X80835418Y-130598294D01*
X80840527Y-130600982D01*
X80863902Y-130608240D01*
X80924998Y-130627211D01*
X80928136Y-130628230D01*
X81006437Y-130654810D01*
X81006439Y-130654810D01*
X81011911Y-130656668D01*
X81017635Y-130657498D01*
X81021247Y-130658365D01*
X81032138Y-130660830D01*
X81035716Y-130661591D01*
X81041234Y-130663304D01*
X81046971Y-130663983D01*
X81129101Y-130673703D01*
X81132367Y-130674133D01*
X81147910Y-130676387D01*
X81214184Y-130685997D01*
X81214188Y-130685997D01*
X81219897Y-130686825D01*
X81302054Y-130683597D01*
X81307001Y-130683500D01*
X89492195Y-130683500D01*
X89500436Y-130683770D01*
X89565061Y-130688006D01*
X89652973Y-130677601D01*
X89656186Y-130677264D01*
X89744279Y-130669169D01*
X89749839Y-130667601D01*
X89753412Y-130666939D01*
X89764415Y-130664750D01*
X89768028Y-130663982D01*
X89773765Y-130663303D01*
X89858276Y-130637062D01*
X89861373Y-130636146D01*
X89946549Y-130612123D01*
X89951737Y-130609565D01*
X89955188Y-130608240D01*
X89965566Y-130604099D01*
X89968953Y-130602696D01*
X89974473Y-130600982D01*
X90052746Y-130559801D01*
X90055682Y-130558305D01*
X90135037Y-130519171D01*
X90139668Y-130515713D01*
X90142871Y-130513750D01*
X90152258Y-130507827D01*
X90155351Y-130505818D01*
X90160463Y-130503129D01*
X90229956Y-130448344D01*
X90232526Y-130446373D01*
X90298801Y-130396884D01*
X90298808Y-130396877D01*
X90303429Y-130393427D01*
X90359263Y-130333026D01*
X90362692Y-130329461D01*
X95393304Y-125298849D01*
X95399322Y-125293212D01*
X95426942Y-125268990D01*
X95448019Y-125250506D01*
X95502798Y-125181018D01*
X95504876Y-125178453D01*
X95557734Y-125114900D01*
X95557738Y-125114895D01*
X95561426Y-125110460D01*
X95564245Y-125105426D01*
X95566314Y-125102416D01*
X95572508Y-125093146D01*
X95574551Y-125090001D01*
X95578128Y-125085463D01*
X95581520Y-125079017D01*
X95619312Y-125007184D01*
X95620887Y-125004284D01*
X95621838Y-125002587D01*
X95642074Y-124966453D01*
X95661291Y-124932139D01*
X95661292Y-124932137D01*
X95664115Y-124927096D01*
X95665972Y-124921624D01*
X95667486Y-124918224D01*
X95671873Y-124908013D01*
X95673295Y-124904579D01*
X95675982Y-124899473D01*
X95684381Y-124872425D01*
X95702212Y-124815001D01*
X95703231Y-124811865D01*
X95726437Y-124743500D01*
X95731669Y-124728088D01*
X95732498Y-124722375D01*
X95733341Y-124718862D01*
X95735833Y-124707849D01*
X95736591Y-124704282D01*
X95738304Y-124698766D01*
X95739488Y-124688767D01*
X95748703Y-124610902D01*
X95749134Y-124607631D01*
X95761825Y-124520103D01*
X95758597Y-124437946D01*
X95758500Y-124432999D01*
X95758500Y-119326684D01*
X95744169Y-119170721D01*
X95731557Y-119126000D01*
X95688692Y-118974015D01*
X95687123Y-118968451D01*
X95594171Y-118779963D01*
X95553087Y-118724944D01*
X95471880Y-118616195D01*
X95471879Y-118616194D01*
X95468427Y-118611571D01*
X95443882Y-118588882D01*
X95318341Y-118472833D01*
X95318338Y-118472831D01*
X95314101Y-118468914D01*
X95136362Y-118356769D01*
X94941163Y-118278892D01*
X94935506Y-118277767D01*
X94935500Y-118277765D01*
X94740707Y-118239019D01*
X94740705Y-118239019D01*
X94735040Y-118237892D01*
X94729265Y-118237816D01*
X94729261Y-118237816D01*
X94624001Y-118236438D01*
X94524898Y-118235141D01*
X94519201Y-118236120D01*
X94519200Y-118236120D01*
X94323469Y-118269753D01*
X94317772Y-118270732D01*
X94120601Y-118343472D01*
X94115640Y-118346424D01*
X94115639Y-118346424D01*
X93973111Y-118431220D01*
X93939988Y-118450926D01*
X93781981Y-118589494D01*
X93764577Y-118611571D01*
X93668760Y-118733115D01*
X93651872Y-118754537D01*
X93649181Y-118759653D01*
X93649179Y-118759655D01*
X93578265Y-118894441D01*
X93554018Y-118940527D01*
X93491696Y-119141234D01*
X93471500Y-119311874D01*
X93471500Y-120819801D01*
X93451498Y-120887922D01*
X93397842Y-120934415D01*
X93327568Y-120944519D01*
X93278264Y-120926362D01*
X93267940Y-120919848D01*
X93231362Y-120896769D01*
X93036163Y-120818892D01*
X93030506Y-120817767D01*
X93030500Y-120817765D01*
X92835707Y-120779019D01*
X92835705Y-120779019D01*
X92830040Y-120777892D01*
X92824265Y-120777816D01*
X92824261Y-120777816D01*
X92719001Y-120776438D01*
X92619898Y-120775141D01*
X92614201Y-120776120D01*
X92614200Y-120776120D01*
X92546227Y-120787800D01*
X92412772Y-120810732D01*
X92215601Y-120883472D01*
X92034988Y-120990926D01*
X91876981Y-121129494D01*
X91873410Y-121134024D01*
X91787973Y-121242401D01*
X91746872Y-121294537D01*
X91744181Y-121299653D01*
X91744179Y-121299655D01*
X91662818Y-121454297D01*
X91649018Y-121480527D01*
X91586696Y-121681234D01*
X91566500Y-121851874D01*
X91566500Y-123299157D01*
X91546498Y-123367278D01*
X91529595Y-123388252D01*
X88463252Y-126454595D01*
X88400940Y-126488621D01*
X88374157Y-126491500D01*
X83075843Y-126491500D01*
X83007722Y-126471498D01*
X82986748Y-126454595D01*
X82714405Y-126182252D01*
X82680379Y-126119940D01*
X82677500Y-126093157D01*
X82677500Y-125237379D01*
X82698603Y-125171838D01*
X82696759Y-125170731D01*
X82698425Y-125167957D01*
X82700455Y-125166087D01*
X82701172Y-125163860D01*
X82702448Y-125162084D01*
X82703770Y-125163034D01*
X82750645Y-125119857D01*
X82820580Y-125107625D01*
X82886026Y-125135144D01*
X82913875Y-125166994D01*
X82917049Y-125172173D01*
X82973987Y-125265088D01*
X83120250Y-125433938D01*
X83292126Y-125576632D01*
X83485000Y-125689338D01*
X83693692Y-125769030D01*
X83698760Y-125770061D01*
X83698763Y-125770062D01*
X83806017Y-125791883D01*
X83912597Y-125813567D01*
X83917772Y-125813757D01*
X83917774Y-125813757D01*
X84130673Y-125821564D01*
X84130677Y-125821564D01*
X84135837Y-125821753D01*
X84140957Y-125821097D01*
X84140959Y-125821097D01*
X84352288Y-125794025D01*
X84352289Y-125794025D01*
X84357416Y-125793368D01*
X84362366Y-125791883D01*
X84566429Y-125730661D01*
X84566434Y-125730659D01*
X84571384Y-125729174D01*
X84771994Y-125630896D01*
X84953860Y-125501173D01*
X85112096Y-125343489D01*
X85131495Y-125316493D01*
X85235439Y-125171838D01*
X85242453Y-125162077D01*
X85262532Y-125121451D01*
X85339136Y-124966453D01*
X85339137Y-124966451D01*
X85341430Y-124961811D01*
X85406370Y-124748069D01*
X85435529Y-124526590D01*
X85435611Y-124523240D01*
X85437074Y-124463365D01*
X85437074Y-124463361D01*
X85437156Y-124460000D01*
X85418852Y-124237361D01*
X85364431Y-124020702D01*
X85275354Y-123815840D01*
X85154014Y-123628277D01*
X85003670Y-123463051D01*
X84999619Y-123459852D01*
X84999615Y-123459848D01*
X84832414Y-123327800D01*
X84832410Y-123327798D01*
X84828359Y-123324598D01*
X84787053Y-123301796D01*
X84737084Y-123251364D01*
X84722312Y-123181921D01*
X84747428Y-123115516D01*
X84774780Y-123088909D01*
X84818603Y-123057650D01*
X84953860Y-122961173D01*
X85112096Y-122803489D01*
X85171594Y-122720689D01*
X85239435Y-122626277D01*
X85242453Y-122622077D01*
X85248751Y-122609335D01*
X85339136Y-122426453D01*
X85339137Y-122426451D01*
X85341430Y-122421811D01*
X85406370Y-122208069D01*
X85435529Y-121986590D01*
X85437156Y-121920000D01*
X85418852Y-121697361D01*
X85364431Y-121480702D01*
X85275354Y-121275840D01*
X85183609Y-121134024D01*
X85156822Y-121092617D01*
X85156820Y-121092614D01*
X85154014Y-121088277D01*
X85003670Y-120923051D01*
X84999619Y-120919852D01*
X84999615Y-120919848D01*
X84832414Y-120787800D01*
X84832410Y-120787798D01*
X84828359Y-120784598D01*
X84816074Y-120777816D01*
X84791265Y-120764121D01*
X84786569Y-120761529D01*
X84736598Y-120711097D01*
X84721826Y-120641654D01*
X84746942Y-120575248D01*
X84774294Y-120548641D01*
X84949328Y-120423792D01*
X84957200Y-120417139D01*
X85108052Y-120266812D01*
X85114730Y-120258965D01*
X85239003Y-120086020D01*
X85244313Y-120077183D01*
X85338670Y-119886267D01*
X85342469Y-119876672D01*
X85404377Y-119672910D01*
X85406555Y-119662837D01*
X85407986Y-119651962D01*
X85405775Y-119637778D01*
X85392617Y-119634000D01*
X83946000Y-119634000D01*
X83877879Y-119613998D01*
X83831386Y-119560342D01*
X83820000Y-119508000D01*
X83820000Y-119107885D01*
X84328000Y-119107885D01*
X84332475Y-119123124D01*
X84333865Y-119124329D01*
X84341548Y-119126000D01*
X85392344Y-119126000D01*
X85405875Y-119122027D01*
X85407180Y-119112947D01*
X85365214Y-118945875D01*
X85361894Y-118936124D01*
X85276972Y-118740814D01*
X85272105Y-118731739D01*
X85156426Y-118552926D01*
X85150136Y-118544757D01*
X85006806Y-118387240D01*
X84999273Y-118380215D01*
X84832139Y-118248222D01*
X84823552Y-118242517D01*
X84786116Y-118221851D01*
X84736146Y-118171419D01*
X84721374Y-118101976D01*
X84746490Y-118035571D01*
X84773842Y-118008964D01*
X84949327Y-117883792D01*
X84957200Y-117877139D01*
X85108052Y-117726812D01*
X85114730Y-117718965D01*
X85239003Y-117546020D01*
X85244313Y-117537183D01*
X85338670Y-117346267D01*
X85342469Y-117336672D01*
X85404377Y-117132910D01*
X85406555Y-117122837D01*
X85407986Y-117111962D01*
X85405775Y-117097778D01*
X85392617Y-117094000D01*
X84346115Y-117094000D01*
X84330876Y-117098475D01*
X84329671Y-117099865D01*
X84328000Y-117107548D01*
X84328000Y-119107885D01*
X83820000Y-119107885D01*
X83820000Y-116567885D01*
X84328000Y-116567885D01*
X84332475Y-116583124D01*
X84333865Y-116584329D01*
X84341548Y-116586000D01*
X85392344Y-116586000D01*
X85405875Y-116582027D01*
X85407180Y-116572947D01*
X85365214Y-116405875D01*
X85361894Y-116396124D01*
X85276972Y-116200814D01*
X85272105Y-116191739D01*
X85156426Y-116012926D01*
X85150136Y-116004757D01*
X85006806Y-115847240D01*
X84999273Y-115840215D01*
X84832139Y-115708222D01*
X84823552Y-115702517D01*
X84786116Y-115681851D01*
X84736146Y-115631419D01*
X84721374Y-115561976D01*
X84746490Y-115495571D01*
X84773842Y-115468964D01*
X84949327Y-115343792D01*
X84957200Y-115337139D01*
X85108052Y-115186812D01*
X85114730Y-115178965D01*
X85239003Y-115006020D01*
X85244313Y-114997183D01*
X85338670Y-114806267D01*
X85342469Y-114796672D01*
X85404377Y-114592910D01*
X85406555Y-114582837D01*
X85407986Y-114571962D01*
X85405775Y-114557778D01*
X85392617Y-114554000D01*
X84346115Y-114554000D01*
X84330876Y-114558475D01*
X84329671Y-114559865D01*
X84328000Y-114567548D01*
X84328000Y-116567885D01*
X83820000Y-116567885D01*
X83820000Y-114027885D01*
X84328000Y-114027885D01*
X84332475Y-114043124D01*
X84333865Y-114044329D01*
X84341548Y-114046000D01*
X85392344Y-114046000D01*
X85405875Y-114042027D01*
X85407180Y-114032947D01*
X85365214Y-113865875D01*
X85361894Y-113856124D01*
X85276972Y-113660814D01*
X85272105Y-113651739D01*
X85156426Y-113472926D01*
X85150136Y-113464757D01*
X85006806Y-113307240D01*
X84999273Y-113300215D01*
X84832139Y-113168222D01*
X84823552Y-113162517D01*
X84786116Y-113141851D01*
X84736146Y-113091419D01*
X84721374Y-113021976D01*
X84746490Y-112955571D01*
X84773842Y-112928964D01*
X84949327Y-112803792D01*
X84957200Y-112797139D01*
X85108052Y-112646812D01*
X85114730Y-112638965D01*
X85239003Y-112466020D01*
X85244313Y-112457183D01*
X85338670Y-112266267D01*
X85342469Y-112256672D01*
X85404377Y-112052910D01*
X85406555Y-112042837D01*
X85407986Y-112031962D01*
X85405775Y-112017778D01*
X85392617Y-112014000D01*
X84346115Y-112014000D01*
X84330876Y-112018475D01*
X84329671Y-112019865D01*
X84328000Y-112027548D01*
X84328000Y-114027885D01*
X83820000Y-114027885D01*
X83820000Y-111632000D01*
X83840002Y-111563879D01*
X83893658Y-111517386D01*
X83946000Y-111506000D01*
X85392344Y-111506000D01*
X85405875Y-111502027D01*
X85407180Y-111492947D01*
X85365214Y-111325875D01*
X85361894Y-111316124D01*
X85276972Y-111120814D01*
X85272105Y-111111739D01*
X85156426Y-110932926D01*
X85150136Y-110924757D01*
X85006806Y-110767240D01*
X84999273Y-110760215D01*
X84832139Y-110628222D01*
X84823556Y-110622520D01*
X84786602Y-110602120D01*
X84736631Y-110551687D01*
X84721859Y-110482245D01*
X84746975Y-110415839D01*
X84774327Y-110389232D01*
X84797797Y-110372491D01*
X84953860Y-110261173D01*
X85012187Y-110203050D01*
X85108435Y-110107137D01*
X85112096Y-110103489D01*
X85121670Y-110090166D01*
X85200132Y-109980974D01*
X85256127Y-109937326D01*
X85302455Y-109928500D01*
X91463595Y-109928500D01*
X91531716Y-109948502D01*
X91537656Y-109952564D01*
X91585411Y-109987260D01*
X91618248Y-110011118D01*
X91624276Y-110013802D01*
X91624278Y-110013803D01*
X91649625Y-110025088D01*
X91792712Y-110088794D01*
X91879009Y-110107137D01*
X91973056Y-110127128D01*
X91973061Y-110127128D01*
X91979513Y-110128500D01*
X92170487Y-110128500D01*
X92176939Y-110127128D01*
X92176944Y-110127128D01*
X92270991Y-110107137D01*
X92357288Y-110088794D01*
X92500375Y-110025088D01*
X92525722Y-110013803D01*
X92525724Y-110013802D01*
X92531752Y-110011118D01*
X92573242Y-109980974D01*
X92631066Y-109938962D01*
X92686253Y-109898866D01*
X92703369Y-109879857D01*
X92809621Y-109761852D01*
X92809622Y-109761851D01*
X92814040Y-109756944D01*
X92904355Y-109600514D01*
X92906223Y-109597279D01*
X92906224Y-109597278D01*
X92909527Y-109591556D01*
X92968542Y-109409928D01*
X92973973Y-109358261D01*
X92987814Y-109226565D01*
X92988504Y-109220000D01*
X92968542Y-109030072D01*
X92909527Y-108848444D01*
X92897152Y-108827010D01*
X92880415Y-108758014D01*
X92903636Y-108690923D01*
X92959444Y-108647036D01*
X93006272Y-108638011D01*
X104408851Y-108638011D01*
X104476972Y-108658013D01*
X104497946Y-108674916D01*
X111238550Y-115415520D01*
X111244404Y-115421785D01*
X111282439Y-115465385D01*
X111288657Y-115469755D01*
X111334697Y-115502112D01*
X111339993Y-115506045D01*
X111390282Y-115545477D01*
X111397204Y-115548602D01*
X111399452Y-115549964D01*
X111414185Y-115558368D01*
X111416524Y-115559622D01*
X111422739Y-115563990D01*
X111429815Y-115566749D01*
X111429819Y-115566751D01*
X111482274Y-115587202D01*
X111488352Y-115589757D01*
X111546574Y-115616045D01*
X111554045Y-115617429D01*
X111556599Y-115618230D01*
X111572878Y-115622867D01*
X111575433Y-115623523D01*
X111582509Y-115626282D01*
X111603262Y-115629014D01*
X111645851Y-115634621D01*
X111652367Y-115635653D01*
X111705865Y-115645568D01*
X111715187Y-115647296D01*
X111722767Y-115646859D01*
X111722768Y-115646859D01*
X111777398Y-115643709D01*
X111784651Y-115643500D01*
X119351088Y-115643500D01*
X119359658Y-115643792D01*
X119409776Y-115647209D01*
X119409780Y-115647209D01*
X119417352Y-115647725D01*
X119424829Y-115646420D01*
X119424830Y-115646420D01*
X119451308Y-115641799D01*
X119480303Y-115636738D01*
X119486821Y-115635777D01*
X119550242Y-115628102D01*
X119557343Y-115625419D01*
X119559952Y-115624778D01*
X119576262Y-115620315D01*
X119578798Y-115619550D01*
X119586284Y-115618243D01*
X119644800Y-115592556D01*
X119650904Y-115590065D01*
X119651717Y-115589758D01*
X119710656Y-115567487D01*
X119716919Y-115563183D01*
X119719285Y-115561946D01*
X119734097Y-115553701D01*
X119736351Y-115552368D01*
X119743305Y-115549315D01*
X119794002Y-115510413D01*
X119799332Y-115506541D01*
X119845720Y-115474661D01*
X119845725Y-115474656D01*
X119851981Y-115470357D01*
X119861654Y-115459501D01*
X119893435Y-115423830D01*
X119898416Y-115418554D01*
X128526565Y-106790405D01*
X128588877Y-106756379D01*
X128615660Y-106753500D01*
X166659340Y-106753500D01*
X166727461Y-106773502D01*
G37*
G04 #@! TD.AperFunction*
M02*
