G04 #@! TF.GenerationSoftware,KiCad,Pcbnew,(6.0.0)*
G04 #@! TF.CreationDate,2022-11-09T00:44:27-05:00*
G04 #@! TF.ProjectId,Sorcerer Rom Pack to Ribbon,536f7263-6572-4657-9220-526f6d205061,rev?*
G04 #@! TF.SameCoordinates,Original*
G04 #@! TF.FileFunction,Profile,NP*
%FSLAX46Y46*%
G04 Gerber Fmt 4.6, Leading zero omitted, Abs format (unit mm)*
G04 Created by KiCad (PCBNEW (6.0.0)) date 2022-11-09 00:44:27*
%MOMM*%
%LPD*%
G01*
G04 APERTURE LIST*
G04 #@! TA.AperFunction,Profile*
%ADD10C,0.100000*%
G04 #@! TD*
G04 #@! TA.AperFunction,Profile*
%ADD11C,0.120000*%
G04 #@! TD*
G04 APERTURE END LIST*
D10*
X189185000Y-93234300D02*
X189185000Y-83514300D01*
X119465000Y-106449300D02*
G75*
G03*
X119465000Y-106449300I-4125000J0D01*
G01*
X189185000Y-83514300D02*
X171405000Y-83514300D01*
X171405000Y-83514300D02*
X171405000Y-70484300D01*
X189185000Y-133645700D02*
X189185000Y-143795700D01*
X69815000Y-70484300D02*
X69815000Y-85090000D01*
X69815000Y-125501400D02*
X69815000Y-132364300D01*
X81415000Y-143795700D02*
X69815000Y-132364300D01*
X189185000Y-143795700D02*
X81415000Y-143795700D01*
X171405000Y-70484300D02*
X69815000Y-70484300D01*
D11*
X196785000Y-94684300D02*
X196785000Y-132195700D01*
X195335000Y-133645700D02*
X196785000Y-132195700D01*
X195335000Y-93234300D02*
X196785000Y-94684300D01*
X195335000Y-93234300D02*
X189185000Y-93234300D01*
X195335000Y-133645700D02*
X189185000Y-133645700D01*
X62215000Y-124051400D02*
X62215000Y-86540000D01*
X63665000Y-85090000D02*
X62215000Y-86540000D01*
X63665000Y-125501400D02*
X69815000Y-125501400D01*
X63665000Y-125501400D02*
X62215000Y-124051400D01*
X63665000Y-85090000D02*
X69815000Y-85090000D01*
M02*
