G04 #@! TF.GenerationSoftware,KiCad,Pcbnew,(6.0.0)*
G04 #@! TF.CreationDate,2022-11-09T00:44:27-05:00*
G04 #@! TF.ProjectId,Sorcerer Rom Pack to Ribbon,536f7263-6572-4657-9220-526f6d205061,rev?*
G04 #@! TF.SameCoordinates,Original*
G04 #@! TF.FileFunction,Legend,Top*
G04 #@! TF.FilePolarity,Positive*
%FSLAX46Y46*%
G04 Gerber Fmt 4.6, Leading zero omitted, Abs format (unit mm)*
G04 Created by KiCad (PCBNEW (6.0.0)) date 2022-11-09 00:44:27*
%MOMM*%
%LPD*%
G01*
G04 APERTURE LIST*
G04 Aperture macros list*
%AMFreePoly0*
4,1,22,0.500000,-0.750000,0.000000,-0.750000,0.000000,-0.745033,-0.079941,-0.743568,-0.215256,-0.701293,-0.333266,-0.622738,-0.424486,-0.514219,-0.481581,-0.384460,-0.499164,-0.250000,-0.500000,-0.250000,-0.500000,0.250000,-0.499164,0.250000,-0.499963,0.256109,-0.478152,0.396186,-0.417904,0.524511,-0.324060,0.630769,-0.204165,0.706417,-0.067858,0.745374,0.000000,0.744959,0.000000,0.750000,
0.500000,0.750000,0.500000,-0.750000,0.500000,-0.750000,$1*%
%AMFreePoly1*
4,1,20,0.000000,0.744959,0.073905,0.744508,0.209726,0.703889,0.328688,0.626782,0.421226,0.519385,0.479903,0.390333,0.500000,0.250000,0.500000,-0.250000,0.499851,-0.262216,0.476331,-0.402017,0.414519,-0.529596,0.319384,-0.634700,0.198574,-0.708877,0.061801,-0.746166,0.000000,-0.745033,0.000000,-0.750000,-0.500000,-0.750000,-0.500000,0.750000,0.000000,0.750000,0.000000,0.744959,
0.000000,0.744959,$1*%
G04 Aperture macros list end*
%ADD10C,0.150000*%
%ADD11C,0.200000*%
%ADD12C,0.120000*%
%ADD13C,1.600000*%
%ADD14R,7.600000X1.270000*%
%ADD15FreePoly0,0.000000*%
%ADD16FreePoly1,0.000000*%
%ADD17R,1.600000X1.600000*%
%ADD18R,1.700000X1.700000*%
%ADD19O,1.700000X1.700000*%
G04 APERTURE END LIST*
D10*
X97790000Y-112395000D02*
X98425000Y-111760000D01*
X96520000Y-111125000D02*
X97790000Y-112395000D01*
X96520000Y-111125000D02*
X101600000Y-113665000D01*
X98425000Y-111760000D02*
X96520000Y-111125000D01*
X76914523Y-106846666D02*
X77390714Y-106846666D01*
X76819285Y-107132380D02*
X77152619Y-106132380D01*
X77485952Y-107132380D01*
X78343095Y-107132380D02*
X77771666Y-107132380D01*
X78057380Y-107132380D02*
X78057380Y-106132380D01*
X77962142Y-106275238D01*
X77866904Y-106370476D01*
X77771666Y-106418095D01*
X78676428Y-106132380D02*
X79295476Y-106132380D01*
X78962142Y-106513333D01*
X79105000Y-106513333D01*
X79200238Y-106560952D01*
X79247857Y-106608571D01*
X79295476Y-106703809D01*
X79295476Y-106941904D01*
X79247857Y-107037142D01*
X79200238Y-107084761D01*
X79105000Y-107132380D01*
X78819285Y-107132380D01*
X78724047Y-107084761D01*
X78676428Y-107037142D01*
X77549523Y-99226666D02*
X78025714Y-99226666D01*
X77454285Y-99512380D02*
X77787619Y-98512380D01*
X78120952Y-99512380D01*
X78978095Y-99512380D02*
X78406666Y-99512380D01*
X78692380Y-99512380D02*
X78692380Y-98512380D01*
X78597142Y-98655238D01*
X78501904Y-98750476D01*
X78406666Y-98798095D01*
X79930476Y-99512380D02*
X79359047Y-99512380D01*
X79644761Y-99512380D02*
X79644761Y-98512380D01*
X79549523Y-98655238D01*
X79454285Y-98750476D01*
X79359047Y-98798095D01*
X76866904Y-114371428D02*
X77628809Y-114371428D01*
X77247857Y-114752380D02*
X77247857Y-113990476D01*
X78581190Y-113752380D02*
X78105000Y-113752380D01*
X78057380Y-114228571D01*
X78105000Y-114180952D01*
X78200238Y-114133333D01*
X78438333Y-114133333D01*
X78533571Y-114180952D01*
X78581190Y-114228571D01*
X78628809Y-114323809D01*
X78628809Y-114561904D01*
X78581190Y-114657142D01*
X78533571Y-114704761D01*
X78438333Y-114752380D01*
X78200238Y-114752380D01*
X78105000Y-114704761D01*
X78057380Y-114657142D01*
X78962142Y-114085714D02*
X79200238Y-114752380D01*
X79438333Y-114085714D01*
X78001904Y-94432380D02*
X78001904Y-93432380D01*
X78240000Y-93432380D01*
X78382857Y-93480000D01*
X78478095Y-93575238D01*
X78525714Y-93670476D01*
X78573333Y-93860952D01*
X78573333Y-94003809D01*
X78525714Y-94194285D01*
X78478095Y-94289523D01*
X78382857Y-94384761D01*
X78240000Y-94432380D01*
X78001904Y-94432380D01*
X79430476Y-93765714D02*
X79430476Y-94432380D01*
X79192380Y-93384761D02*
X78954285Y-94099047D01*
X79573333Y-94099047D01*
X85915714Y-124531428D02*
X86677619Y-124531428D01*
X86296666Y-124912380D02*
X86296666Y-124150476D01*
X87677619Y-124912380D02*
X87106190Y-124912380D01*
X87391904Y-124912380D02*
X87391904Y-123912380D01*
X87296666Y-124055238D01*
X87201428Y-124150476D01*
X87106190Y-124198095D01*
X88058571Y-124007619D02*
X88106190Y-123960000D01*
X88201428Y-123912380D01*
X88439523Y-123912380D01*
X88534761Y-123960000D01*
X88582380Y-124007619D01*
X88630000Y-124102857D01*
X88630000Y-124198095D01*
X88582380Y-124340952D01*
X88010952Y-124912380D01*
X88630000Y-124912380D01*
X88963333Y-124245714D02*
X89201428Y-124912380D01*
X89439523Y-124245714D01*
X85804523Y-101766666D02*
X86280714Y-101766666D01*
X85709285Y-102052380D02*
X86042619Y-101052380D01*
X86375952Y-102052380D01*
X87233095Y-102052380D02*
X86661666Y-102052380D01*
X86947380Y-102052380D02*
X86947380Y-101052380D01*
X86852142Y-101195238D01*
X86756904Y-101290476D01*
X86661666Y-101338095D01*
X88090238Y-101385714D02*
X88090238Y-102052380D01*
X87852142Y-101004761D02*
X87614047Y-101719047D01*
X88233095Y-101719047D01*
X86352142Y-116340000D02*
X86256904Y-116292380D01*
X86114047Y-116292380D01*
X85971190Y-116340000D01*
X85875952Y-116435238D01*
X85828333Y-116530476D01*
X85780714Y-116720952D01*
X85780714Y-116863809D01*
X85828333Y-117054285D01*
X85875952Y-117149523D01*
X85971190Y-117244761D01*
X86114047Y-117292380D01*
X86209285Y-117292380D01*
X86352142Y-117244761D01*
X86399761Y-117197142D01*
X86399761Y-116863809D01*
X86209285Y-116863809D01*
X86828333Y-116625714D02*
X86828333Y-117292380D01*
X86828333Y-116720952D02*
X86875952Y-116673333D01*
X86971190Y-116625714D01*
X87114047Y-116625714D01*
X87209285Y-116673333D01*
X87256904Y-116768571D01*
X87256904Y-117292380D01*
X88161666Y-117292380D02*
X88161666Y-116292380D01*
X88161666Y-117244761D02*
X88066428Y-117292380D01*
X87875952Y-117292380D01*
X87780714Y-117244761D01*
X87733095Y-117197142D01*
X87685476Y-117101904D01*
X87685476Y-116816190D01*
X87733095Y-116720952D01*
X87780714Y-116673333D01*
X87875952Y-116625714D01*
X88066428Y-116625714D01*
X88161666Y-116673333D01*
D11*
X71097857Y-126701428D02*
X71097857Y-125958571D01*
X71555000Y-126358571D01*
X71555000Y-126187142D01*
X71612142Y-126072857D01*
X71669285Y-126015714D01*
X71783571Y-125958571D01*
X72069285Y-125958571D01*
X72183571Y-126015714D01*
X72240714Y-126072857D01*
X72297857Y-126187142D01*
X72297857Y-126530000D01*
X72240714Y-126644285D01*
X72183571Y-126701428D01*
X71097857Y-125215714D02*
X71097857Y-125101428D01*
X71155000Y-124987142D01*
X71212142Y-124930000D01*
X71326428Y-124872857D01*
X71555000Y-124815714D01*
X71840714Y-124815714D01*
X72069285Y-124872857D01*
X72183571Y-124930000D01*
X72240714Y-124987142D01*
X72297857Y-125101428D01*
X72297857Y-125215714D01*
X72240714Y-125330000D01*
X72183571Y-125387142D01*
X72069285Y-125444285D01*
X71840714Y-125501428D01*
X71555000Y-125501428D01*
X71326428Y-125444285D01*
X71212142Y-125387142D01*
X71155000Y-125330000D01*
X71097857Y-125215714D01*
D10*
X78025714Y-78906666D02*
X78501904Y-78906666D01*
X77930476Y-79192380D02*
X78263809Y-78192380D01*
X78597142Y-79192380D01*
X79406666Y-78192380D02*
X78930476Y-78192380D01*
X78882857Y-78668571D01*
X78930476Y-78620952D01*
X79025714Y-78573333D01*
X79263809Y-78573333D01*
X79359047Y-78620952D01*
X79406666Y-78668571D01*
X79454285Y-78763809D01*
X79454285Y-79001904D01*
X79406666Y-79097142D01*
X79359047Y-79144761D01*
X79263809Y-79192380D01*
X79025714Y-79192380D01*
X78930476Y-79144761D01*
X78882857Y-79097142D01*
X86352142Y-111260000D02*
X86256904Y-111212380D01*
X86114047Y-111212380D01*
X85971190Y-111260000D01*
X85875952Y-111355238D01*
X85828333Y-111450476D01*
X85780714Y-111640952D01*
X85780714Y-111783809D01*
X85828333Y-111974285D01*
X85875952Y-112069523D01*
X85971190Y-112164761D01*
X86114047Y-112212380D01*
X86209285Y-112212380D01*
X86352142Y-112164761D01*
X86399761Y-112117142D01*
X86399761Y-111783809D01*
X86209285Y-111783809D01*
X86828333Y-111545714D02*
X86828333Y-112212380D01*
X86828333Y-111640952D02*
X86875952Y-111593333D01*
X86971190Y-111545714D01*
X87114047Y-111545714D01*
X87209285Y-111593333D01*
X87256904Y-111688571D01*
X87256904Y-112212380D01*
X88161666Y-112212380D02*
X88161666Y-111212380D01*
X88161666Y-112164761D02*
X88066428Y-112212380D01*
X87875952Y-112212380D01*
X87780714Y-112164761D01*
X87733095Y-112117142D01*
X87685476Y-112021904D01*
X87685476Y-111736190D01*
X87733095Y-111640952D01*
X87780714Y-111593333D01*
X87875952Y-111545714D01*
X88066428Y-111545714D01*
X88161666Y-111593333D01*
X117905000Y-74858571D02*
X118238333Y-74858571D01*
X118381190Y-75382380D02*
X117905000Y-75382380D01*
X117905000Y-74382380D01*
X118381190Y-74382380D01*
X118714523Y-75382380D02*
X119238333Y-74715714D01*
X118714523Y-74715714D02*
X119238333Y-75382380D01*
X119619285Y-75382380D02*
X119619285Y-74715714D01*
X119619285Y-74382380D02*
X119571666Y-74430000D01*
X119619285Y-74477619D01*
X119666904Y-74430000D01*
X119619285Y-74382380D01*
X119619285Y-74477619D01*
X120524047Y-75382380D02*
X120524047Y-74382380D01*
X120524047Y-75334761D02*
X120428809Y-75382380D01*
X120238333Y-75382380D01*
X120143095Y-75334761D01*
X120095476Y-75287142D01*
X120047857Y-75191904D01*
X120047857Y-74906190D01*
X120095476Y-74810952D01*
X120143095Y-74763333D01*
X120238333Y-74715714D01*
X120428809Y-74715714D01*
X120524047Y-74763333D01*
X120905000Y-74715714D02*
X121143095Y-75382380D01*
X121381190Y-74715714D02*
X121143095Y-75382380D01*
X121047857Y-75620476D01*
X121000238Y-75668095D01*
X120905000Y-75715714D01*
X122476428Y-75334761D02*
X122619285Y-75382380D01*
X122857380Y-75382380D01*
X122952619Y-75334761D01*
X123000238Y-75287142D01*
X123047857Y-75191904D01*
X123047857Y-75096666D01*
X123000238Y-75001428D01*
X122952619Y-74953809D01*
X122857380Y-74906190D01*
X122666904Y-74858571D01*
X122571666Y-74810952D01*
X122524047Y-74763333D01*
X122476428Y-74668095D01*
X122476428Y-74572857D01*
X122524047Y-74477619D01*
X122571666Y-74430000D01*
X122666904Y-74382380D01*
X122905000Y-74382380D01*
X123047857Y-74430000D01*
X123619285Y-75382380D02*
X123524047Y-75334761D01*
X123476428Y-75287142D01*
X123428809Y-75191904D01*
X123428809Y-74906190D01*
X123476428Y-74810952D01*
X123524047Y-74763333D01*
X123619285Y-74715714D01*
X123762142Y-74715714D01*
X123857380Y-74763333D01*
X123905000Y-74810952D01*
X123952619Y-74906190D01*
X123952619Y-75191904D01*
X123905000Y-75287142D01*
X123857380Y-75334761D01*
X123762142Y-75382380D01*
X123619285Y-75382380D01*
X124381190Y-75382380D02*
X124381190Y-74715714D01*
X124381190Y-74906190D02*
X124428809Y-74810952D01*
X124476428Y-74763333D01*
X124571666Y-74715714D01*
X124666904Y-74715714D01*
X125428809Y-75334761D02*
X125333571Y-75382380D01*
X125143095Y-75382380D01*
X125047857Y-75334761D01*
X125000238Y-75287142D01*
X124952619Y-75191904D01*
X124952619Y-74906190D01*
X125000238Y-74810952D01*
X125047857Y-74763333D01*
X125143095Y-74715714D01*
X125333571Y-74715714D01*
X125428809Y-74763333D01*
X126238333Y-75334761D02*
X126143095Y-75382380D01*
X125952619Y-75382380D01*
X125857380Y-75334761D01*
X125809761Y-75239523D01*
X125809761Y-74858571D01*
X125857380Y-74763333D01*
X125952619Y-74715714D01*
X126143095Y-74715714D01*
X126238333Y-74763333D01*
X126285952Y-74858571D01*
X126285952Y-74953809D01*
X125809761Y-75049047D01*
X126714523Y-75382380D02*
X126714523Y-74715714D01*
X126714523Y-74906190D02*
X126762142Y-74810952D01*
X126809761Y-74763333D01*
X126905000Y-74715714D01*
X127000238Y-74715714D01*
X127714523Y-75334761D02*
X127619285Y-75382380D01*
X127428809Y-75382380D01*
X127333571Y-75334761D01*
X127285952Y-75239523D01*
X127285952Y-74858571D01*
X127333571Y-74763333D01*
X127428809Y-74715714D01*
X127619285Y-74715714D01*
X127714523Y-74763333D01*
X127762142Y-74858571D01*
X127762142Y-74953809D01*
X127285952Y-75049047D01*
X128190714Y-75382380D02*
X128190714Y-74715714D01*
X128190714Y-74906190D02*
X128238333Y-74810952D01*
X128285952Y-74763333D01*
X128381190Y-74715714D01*
X128476428Y-74715714D01*
X129952619Y-75334761D02*
X129857380Y-75382380D01*
X129666904Y-75382380D01*
X129571666Y-75334761D01*
X129524047Y-75239523D01*
X129524047Y-74858571D01*
X129571666Y-74763333D01*
X129666904Y-74715714D01*
X129857380Y-74715714D01*
X129952619Y-74763333D01*
X130000238Y-74858571D01*
X130000238Y-74953809D01*
X129524047Y-75049047D01*
X130333571Y-75382380D02*
X130857380Y-74715714D01*
X130333571Y-74715714D02*
X130857380Y-75382380D01*
X131095476Y-74715714D02*
X131476428Y-74715714D01*
X131238333Y-74382380D02*
X131238333Y-75239523D01*
X131285952Y-75334761D01*
X131381190Y-75382380D01*
X131476428Y-75382380D01*
X132190714Y-75334761D02*
X132095476Y-75382380D01*
X131905000Y-75382380D01*
X131809761Y-75334761D01*
X131762142Y-75239523D01*
X131762142Y-74858571D01*
X131809761Y-74763333D01*
X131905000Y-74715714D01*
X132095476Y-74715714D01*
X132190714Y-74763333D01*
X132238333Y-74858571D01*
X132238333Y-74953809D01*
X131762142Y-75049047D01*
X132666904Y-74715714D02*
X132666904Y-75382380D01*
X132666904Y-74810952D02*
X132714523Y-74763333D01*
X132809761Y-74715714D01*
X132952619Y-74715714D01*
X133047857Y-74763333D01*
X133095476Y-74858571D01*
X133095476Y-75382380D01*
X133524047Y-75334761D02*
X133619285Y-75382380D01*
X133809761Y-75382380D01*
X133905000Y-75334761D01*
X133952619Y-75239523D01*
X133952619Y-75191904D01*
X133905000Y-75096666D01*
X133809761Y-75049047D01*
X133666904Y-75049047D01*
X133571666Y-75001428D01*
X133524047Y-74906190D01*
X133524047Y-74858571D01*
X133571666Y-74763333D01*
X133666904Y-74715714D01*
X133809761Y-74715714D01*
X133905000Y-74763333D01*
X134381190Y-75382380D02*
X134381190Y-74715714D01*
X134381190Y-74382380D02*
X134333571Y-74430000D01*
X134381190Y-74477619D01*
X134428809Y-74430000D01*
X134381190Y-74382380D01*
X134381190Y-74477619D01*
X135000238Y-75382380D02*
X134905000Y-75334761D01*
X134857380Y-75287142D01*
X134809761Y-75191904D01*
X134809761Y-74906190D01*
X134857380Y-74810952D01*
X134905000Y-74763333D01*
X135000238Y-74715714D01*
X135143095Y-74715714D01*
X135238333Y-74763333D01*
X135285952Y-74810952D01*
X135333571Y-74906190D01*
X135333571Y-75191904D01*
X135285952Y-75287142D01*
X135238333Y-75334761D01*
X135143095Y-75382380D01*
X135000238Y-75382380D01*
X135762142Y-74715714D02*
X135762142Y-75382380D01*
X135762142Y-74810952D02*
X135809761Y-74763333D01*
X135905000Y-74715714D01*
X136047857Y-74715714D01*
X136143095Y-74763333D01*
X136190714Y-74858571D01*
X136190714Y-75382380D01*
X137857380Y-75334761D02*
X137762142Y-75382380D01*
X137571666Y-75382380D01*
X137476428Y-75334761D01*
X137428809Y-75287142D01*
X137381190Y-75191904D01*
X137381190Y-74906190D01*
X137428809Y-74810952D01*
X137476428Y-74763333D01*
X137571666Y-74715714D01*
X137762142Y-74715714D01*
X137857380Y-74763333D01*
X138714523Y-75382380D02*
X138714523Y-74858571D01*
X138666904Y-74763333D01*
X138571666Y-74715714D01*
X138381190Y-74715714D01*
X138285952Y-74763333D01*
X138714523Y-75334761D02*
X138619285Y-75382380D01*
X138381190Y-75382380D01*
X138285952Y-75334761D01*
X138238333Y-75239523D01*
X138238333Y-75144285D01*
X138285952Y-75049047D01*
X138381190Y-75001428D01*
X138619285Y-75001428D01*
X138714523Y-74953809D01*
X139190714Y-75382380D02*
X139190714Y-74715714D01*
X139190714Y-74906190D02*
X139238333Y-74810952D01*
X139285952Y-74763333D01*
X139381190Y-74715714D01*
X139476428Y-74715714D01*
X139666904Y-74715714D02*
X140047857Y-74715714D01*
X139809761Y-74382380D02*
X139809761Y-75239523D01*
X139857380Y-75334761D01*
X139952619Y-75382380D01*
X140047857Y-75382380D01*
X86352142Y-118880000D02*
X86256904Y-118832380D01*
X86114047Y-118832380D01*
X85971190Y-118880000D01*
X85875952Y-118975238D01*
X85828333Y-119070476D01*
X85780714Y-119260952D01*
X85780714Y-119403809D01*
X85828333Y-119594285D01*
X85875952Y-119689523D01*
X85971190Y-119784761D01*
X86114047Y-119832380D01*
X86209285Y-119832380D01*
X86352142Y-119784761D01*
X86399761Y-119737142D01*
X86399761Y-119403809D01*
X86209285Y-119403809D01*
X86828333Y-119165714D02*
X86828333Y-119832380D01*
X86828333Y-119260952D02*
X86875952Y-119213333D01*
X86971190Y-119165714D01*
X87114047Y-119165714D01*
X87209285Y-119213333D01*
X87256904Y-119308571D01*
X87256904Y-119832380D01*
X88161666Y-119832380D02*
X88161666Y-118832380D01*
X88161666Y-119784761D02*
X88066428Y-119832380D01*
X87875952Y-119832380D01*
X87780714Y-119784761D01*
X87733095Y-119737142D01*
X87685476Y-119641904D01*
X87685476Y-119356190D01*
X87733095Y-119260952D01*
X87780714Y-119213333D01*
X87875952Y-119165714D01*
X88066428Y-119165714D01*
X88161666Y-119213333D01*
X119595476Y-80176666D02*
X120071666Y-80176666D01*
X119500238Y-80462380D02*
X119833571Y-79462380D01*
X120166904Y-80462380D01*
X120500238Y-80462380D02*
X120500238Y-79462380D01*
X120500238Y-79843333D02*
X120595476Y-79795714D01*
X120785952Y-79795714D01*
X120881190Y-79843333D01*
X120928809Y-79890952D01*
X120976428Y-79986190D01*
X120976428Y-80271904D01*
X120928809Y-80367142D01*
X120881190Y-80414761D01*
X120785952Y-80462380D01*
X120595476Y-80462380D01*
X120500238Y-80414761D01*
X121309761Y-79795714D02*
X121833571Y-79795714D01*
X121309761Y-80462380D01*
X121833571Y-80462380D01*
X122214523Y-80462380D02*
X122214523Y-79795714D01*
X122214523Y-79890952D02*
X122262142Y-79843333D01*
X122357380Y-79795714D01*
X122500238Y-79795714D01*
X122595476Y-79843333D01*
X122643095Y-79938571D01*
X122643095Y-80462380D01*
X122643095Y-79938571D02*
X122690714Y-79843333D01*
X122785952Y-79795714D01*
X122928809Y-79795714D01*
X123024047Y-79843333D01*
X123071666Y-79938571D01*
X123071666Y-80462380D01*
X123976428Y-80462380D02*
X123976428Y-79938571D01*
X123928809Y-79843333D01*
X123833571Y-79795714D01*
X123643095Y-79795714D01*
X123547857Y-79843333D01*
X123976428Y-80414761D02*
X123881190Y-80462380D01*
X123643095Y-80462380D01*
X123547857Y-80414761D01*
X123500238Y-80319523D01*
X123500238Y-80224285D01*
X123547857Y-80129047D01*
X123643095Y-80081428D01*
X123881190Y-80081428D01*
X123976428Y-80033809D01*
X124452619Y-79795714D02*
X124452619Y-80462380D01*
X124452619Y-79890952D02*
X124500238Y-79843333D01*
X124595476Y-79795714D01*
X124738333Y-79795714D01*
X124833571Y-79843333D01*
X124881190Y-79938571D01*
X124881190Y-80462380D01*
X125309761Y-79557619D02*
X125357380Y-79510000D01*
X125452619Y-79462380D01*
X125690714Y-79462380D01*
X125785952Y-79510000D01*
X125833571Y-79557619D01*
X125881190Y-79652857D01*
X125881190Y-79748095D01*
X125833571Y-79890952D01*
X125262142Y-80462380D01*
X125881190Y-80462380D01*
X126309761Y-80462380D02*
X126309761Y-79462380D01*
X126405000Y-80081428D02*
X126690714Y-80462380D01*
X126690714Y-79795714D02*
X126309761Y-80176666D01*
X127119285Y-80367142D02*
X127166904Y-80414761D01*
X127119285Y-80462380D01*
X127071666Y-80414761D01*
X127119285Y-80367142D01*
X127119285Y-80462380D01*
X127500238Y-79795714D02*
X127690714Y-80462380D01*
X127881190Y-79986190D01*
X128071666Y-80462380D01*
X128262142Y-79795714D01*
X128785952Y-80462380D02*
X128690714Y-80414761D01*
X128643095Y-80367142D01*
X128595476Y-80271904D01*
X128595476Y-79986190D01*
X128643095Y-79890952D01*
X128690714Y-79843333D01*
X128785952Y-79795714D01*
X128928809Y-79795714D01*
X129024047Y-79843333D01*
X129071666Y-79890952D01*
X129119285Y-79986190D01*
X129119285Y-80271904D01*
X129071666Y-80367142D01*
X129024047Y-80414761D01*
X128928809Y-80462380D01*
X128785952Y-80462380D01*
X129547857Y-80462380D02*
X129547857Y-79795714D01*
X129547857Y-79986190D02*
X129595476Y-79890952D01*
X129643095Y-79843333D01*
X129738333Y-79795714D01*
X129833571Y-79795714D01*
X130595476Y-80462380D02*
X130595476Y-79462380D01*
X130595476Y-80414761D02*
X130500238Y-80462380D01*
X130309761Y-80462380D01*
X130214523Y-80414761D01*
X130166904Y-80367142D01*
X130119285Y-80271904D01*
X130119285Y-79986190D01*
X130166904Y-79890952D01*
X130214523Y-79843333D01*
X130309761Y-79795714D01*
X130500238Y-79795714D01*
X130595476Y-79843333D01*
X131071666Y-79795714D02*
X131071666Y-80795714D01*
X131071666Y-79843333D02*
X131166904Y-79795714D01*
X131357380Y-79795714D01*
X131452619Y-79843333D01*
X131500238Y-79890952D01*
X131547857Y-79986190D01*
X131547857Y-80271904D01*
X131500238Y-80367142D01*
X131452619Y-80414761D01*
X131357380Y-80462380D01*
X131166904Y-80462380D01*
X131071666Y-80414761D01*
X131976428Y-80462380D02*
X131976428Y-79795714D01*
X131976428Y-79986190D02*
X132024047Y-79890952D01*
X132071666Y-79843333D01*
X132166904Y-79795714D01*
X132262142Y-79795714D01*
X132976428Y-80414761D02*
X132881190Y-80462380D01*
X132690714Y-80462380D01*
X132595476Y-80414761D01*
X132547857Y-80319523D01*
X132547857Y-79938571D01*
X132595476Y-79843333D01*
X132690714Y-79795714D01*
X132881190Y-79795714D01*
X132976428Y-79843333D01*
X133024047Y-79938571D01*
X133024047Y-80033809D01*
X132547857Y-80129047D01*
X133405000Y-80414761D02*
X133500238Y-80462380D01*
X133690714Y-80462380D01*
X133785952Y-80414761D01*
X133833571Y-80319523D01*
X133833571Y-80271904D01*
X133785952Y-80176666D01*
X133690714Y-80129047D01*
X133547857Y-80129047D01*
X133452619Y-80081428D01*
X133405000Y-79986190D01*
X133405000Y-79938571D01*
X133452619Y-79843333D01*
X133547857Y-79795714D01*
X133690714Y-79795714D01*
X133785952Y-79843333D01*
X134214523Y-80414761D02*
X134309761Y-80462380D01*
X134500238Y-80462380D01*
X134595476Y-80414761D01*
X134643095Y-80319523D01*
X134643095Y-80271904D01*
X134595476Y-80176666D01*
X134500238Y-80129047D01*
X134357380Y-80129047D01*
X134262142Y-80081428D01*
X134214523Y-79986190D01*
X134214523Y-79938571D01*
X134262142Y-79843333D01*
X134357380Y-79795714D01*
X134500238Y-79795714D01*
X134595476Y-79843333D01*
X135071666Y-80367142D02*
X135119285Y-80414761D01*
X135071666Y-80462380D01*
X135024047Y-80414761D01*
X135071666Y-80367142D01*
X135071666Y-80462380D01*
X135976428Y-80414761D02*
X135881190Y-80462380D01*
X135690714Y-80462380D01*
X135595476Y-80414761D01*
X135547857Y-80367142D01*
X135500238Y-80271904D01*
X135500238Y-79986190D01*
X135547857Y-79890952D01*
X135595476Y-79843333D01*
X135690714Y-79795714D01*
X135881190Y-79795714D01*
X135976428Y-79843333D01*
X136547857Y-80462380D02*
X136452619Y-80414761D01*
X136405000Y-80367142D01*
X136357380Y-80271904D01*
X136357380Y-79986190D01*
X136405000Y-79890952D01*
X136452619Y-79843333D01*
X136547857Y-79795714D01*
X136690714Y-79795714D01*
X136785952Y-79843333D01*
X136833571Y-79890952D01*
X136881190Y-79986190D01*
X136881190Y-80271904D01*
X136833571Y-80367142D01*
X136785952Y-80414761D01*
X136690714Y-80462380D01*
X136547857Y-80462380D01*
X137309761Y-80462380D02*
X137309761Y-79795714D01*
X137309761Y-79890952D02*
X137357380Y-79843333D01*
X137452619Y-79795714D01*
X137595476Y-79795714D01*
X137690714Y-79843333D01*
X137738333Y-79938571D01*
X137738333Y-80462380D01*
X137738333Y-79938571D02*
X137785952Y-79843333D01*
X137881190Y-79795714D01*
X138024047Y-79795714D01*
X138119285Y-79843333D01*
X138166904Y-79938571D01*
X138166904Y-80462380D01*
X86256904Y-89352380D02*
X86256904Y-88352380D01*
X86495000Y-88352380D01*
X86637857Y-88400000D01*
X86733095Y-88495238D01*
X86780714Y-88590476D01*
X86828333Y-88780952D01*
X86828333Y-88923809D01*
X86780714Y-89114285D01*
X86733095Y-89209523D01*
X86637857Y-89304761D01*
X86495000Y-89352380D01*
X86256904Y-89352380D01*
X87780714Y-89352380D02*
X87209285Y-89352380D01*
X87495000Y-89352380D02*
X87495000Y-88352380D01*
X87399761Y-88495238D01*
X87304523Y-88590476D01*
X87209285Y-88638095D01*
X73580952Y-103544761D02*
X72723809Y-104830476D01*
X74485714Y-104592380D02*
X74152380Y-104116190D01*
X73914285Y-104592380D02*
X73914285Y-103592380D01*
X74295238Y-103592380D01*
X74390476Y-103640000D01*
X74438095Y-103687619D01*
X74485714Y-103782857D01*
X74485714Y-103925714D01*
X74438095Y-104020952D01*
X74390476Y-104068571D01*
X74295238Y-104116190D01*
X73914285Y-104116190D01*
X75104761Y-103592380D02*
X75295238Y-103592380D01*
X75390476Y-103640000D01*
X75485714Y-103735238D01*
X75533333Y-103925714D01*
X75533333Y-104259047D01*
X75485714Y-104449523D01*
X75390476Y-104544761D01*
X75295238Y-104592380D01*
X75104761Y-104592380D01*
X75009523Y-104544761D01*
X74914285Y-104449523D01*
X74866666Y-104259047D01*
X74866666Y-103925714D01*
X74914285Y-103735238D01*
X75009523Y-103640000D01*
X75104761Y-103592380D01*
X75961904Y-104592380D02*
X75961904Y-103592380D01*
X76295238Y-104306666D01*
X76628571Y-103592380D01*
X76628571Y-104592380D01*
X77104761Y-104592380D02*
X77104761Y-103592380D01*
X77485714Y-103592380D01*
X77580952Y-103640000D01*
X77628571Y-103687619D01*
X77676190Y-103782857D01*
X77676190Y-103925714D01*
X77628571Y-104020952D01*
X77580952Y-104068571D01*
X77485714Y-104116190D01*
X77104761Y-104116190D01*
X78676190Y-104592380D02*
X78342857Y-104116190D01*
X78104761Y-104592380D02*
X78104761Y-103592380D01*
X78485714Y-103592380D01*
X78580952Y-103640000D01*
X78628571Y-103687619D01*
X78676190Y-103782857D01*
X78676190Y-103925714D01*
X78628571Y-104020952D01*
X78580952Y-104068571D01*
X78485714Y-104116190D01*
X78104761Y-104116190D01*
X79104761Y-104068571D02*
X79438095Y-104068571D01*
X79580952Y-104592380D02*
X79104761Y-104592380D01*
X79104761Y-103592380D01*
X79580952Y-103592380D01*
X103420238Y-89105714D02*
X103420238Y-89772380D01*
X103182142Y-88724761D02*
X102944047Y-89439047D01*
X103563095Y-89439047D01*
X104134523Y-88772380D02*
X104229761Y-88772380D01*
X104325000Y-88820000D01*
X104372619Y-88867619D01*
X104420238Y-88962857D01*
X104467857Y-89153333D01*
X104467857Y-89391428D01*
X104420238Y-89581904D01*
X104372619Y-89677142D01*
X104325000Y-89724761D01*
X104229761Y-89772380D01*
X104134523Y-89772380D01*
X104039285Y-89724761D01*
X103991666Y-89677142D01*
X103944047Y-89581904D01*
X103896428Y-89391428D01*
X103896428Y-89153333D01*
X103944047Y-88962857D01*
X103991666Y-88867619D01*
X104039285Y-88820000D01*
X104134523Y-88772380D01*
X105658333Y-89105714D02*
X105658333Y-90105714D01*
X105658333Y-89153333D02*
X105753571Y-89105714D01*
X105944047Y-89105714D01*
X106039285Y-89153333D01*
X106086904Y-89200952D01*
X106134523Y-89296190D01*
X106134523Y-89581904D01*
X106086904Y-89677142D01*
X106039285Y-89724761D01*
X105944047Y-89772380D01*
X105753571Y-89772380D01*
X105658333Y-89724761D01*
X106563095Y-89772380D02*
X106563095Y-89105714D01*
X106563095Y-88772380D02*
X106515476Y-88820000D01*
X106563095Y-88867619D01*
X106610714Y-88820000D01*
X106563095Y-88772380D01*
X106563095Y-88867619D01*
X107039285Y-89105714D02*
X107039285Y-89772380D01*
X107039285Y-89200952D02*
X107086904Y-89153333D01*
X107182142Y-89105714D01*
X107325000Y-89105714D01*
X107420238Y-89153333D01*
X107467857Y-89248571D01*
X107467857Y-89772380D01*
X108705952Y-89772380D02*
X108705952Y-88772380D01*
X109134523Y-89772380D02*
X109134523Y-89248571D01*
X109086904Y-89153333D01*
X108991666Y-89105714D01*
X108848809Y-89105714D01*
X108753571Y-89153333D01*
X108705952Y-89200952D01*
X109991666Y-89724761D02*
X109896428Y-89772380D01*
X109705952Y-89772380D01*
X109610714Y-89724761D01*
X109563095Y-89629523D01*
X109563095Y-89248571D01*
X109610714Y-89153333D01*
X109705952Y-89105714D01*
X109896428Y-89105714D01*
X109991666Y-89153333D01*
X110039285Y-89248571D01*
X110039285Y-89343809D01*
X109563095Y-89439047D01*
X110896428Y-89772380D02*
X110896428Y-89248571D01*
X110848809Y-89153333D01*
X110753571Y-89105714D01*
X110563095Y-89105714D01*
X110467857Y-89153333D01*
X110896428Y-89724761D02*
X110801190Y-89772380D01*
X110563095Y-89772380D01*
X110467857Y-89724761D01*
X110420238Y-89629523D01*
X110420238Y-89534285D01*
X110467857Y-89439047D01*
X110563095Y-89391428D01*
X110801190Y-89391428D01*
X110896428Y-89343809D01*
X111801190Y-89772380D02*
X111801190Y-88772380D01*
X111801190Y-89724761D02*
X111705952Y-89772380D01*
X111515476Y-89772380D01*
X111420238Y-89724761D01*
X111372619Y-89677142D01*
X111325000Y-89581904D01*
X111325000Y-89296190D01*
X111372619Y-89200952D01*
X111420238Y-89153333D01*
X111515476Y-89105714D01*
X111705952Y-89105714D01*
X111801190Y-89153333D01*
X112658333Y-89724761D02*
X112563095Y-89772380D01*
X112372619Y-89772380D01*
X112277380Y-89724761D01*
X112229761Y-89629523D01*
X112229761Y-89248571D01*
X112277380Y-89153333D01*
X112372619Y-89105714D01*
X112563095Y-89105714D01*
X112658333Y-89153333D01*
X112705952Y-89248571D01*
X112705952Y-89343809D01*
X112229761Y-89439047D01*
X113134523Y-89772380D02*
X113134523Y-89105714D01*
X113134523Y-89296190D02*
X113182142Y-89200952D01*
X113229761Y-89153333D01*
X113325000Y-89105714D01*
X113420238Y-89105714D01*
X114515476Y-89105714D02*
X114515476Y-90105714D01*
X114515476Y-89153333D02*
X114610714Y-89105714D01*
X114801190Y-89105714D01*
X114896428Y-89153333D01*
X114944047Y-89200952D01*
X114991666Y-89296190D01*
X114991666Y-89581904D01*
X114944047Y-89677142D01*
X114896428Y-89724761D01*
X114801190Y-89772380D01*
X114610714Y-89772380D01*
X114515476Y-89724761D01*
X115420238Y-89772380D02*
X115420238Y-89105714D01*
X115420238Y-89296190D02*
X115467857Y-89200952D01*
X115515476Y-89153333D01*
X115610714Y-89105714D01*
X115705952Y-89105714D01*
X116182142Y-89772380D02*
X116086904Y-89724761D01*
X116039285Y-89677142D01*
X115991666Y-89581904D01*
X115991666Y-89296190D01*
X116039285Y-89200952D01*
X116086904Y-89153333D01*
X116182142Y-89105714D01*
X116325000Y-89105714D01*
X116420238Y-89153333D01*
X116467857Y-89200952D01*
X116515476Y-89296190D01*
X116515476Y-89581904D01*
X116467857Y-89677142D01*
X116420238Y-89724761D01*
X116325000Y-89772380D01*
X116182142Y-89772380D01*
X116848809Y-89105714D02*
X117086904Y-89772380D01*
X117325000Y-89105714D01*
X117705952Y-89772380D02*
X117705952Y-89105714D01*
X117705952Y-88772380D02*
X117658333Y-88820000D01*
X117705952Y-88867619D01*
X117753571Y-88820000D01*
X117705952Y-88772380D01*
X117705952Y-88867619D01*
X118610714Y-89772380D02*
X118610714Y-88772380D01*
X118610714Y-89724761D02*
X118515476Y-89772380D01*
X118325000Y-89772380D01*
X118229761Y-89724761D01*
X118182142Y-89677142D01*
X118134523Y-89581904D01*
X118134523Y-89296190D01*
X118182142Y-89200952D01*
X118229761Y-89153333D01*
X118325000Y-89105714D01*
X118515476Y-89105714D01*
X118610714Y-89153333D01*
X119467857Y-89724761D02*
X119372619Y-89772380D01*
X119182142Y-89772380D01*
X119086904Y-89724761D01*
X119039285Y-89629523D01*
X119039285Y-89248571D01*
X119086904Y-89153333D01*
X119182142Y-89105714D01*
X119372619Y-89105714D01*
X119467857Y-89153333D01*
X119515476Y-89248571D01*
X119515476Y-89343809D01*
X119039285Y-89439047D01*
X120372619Y-89772380D02*
X120372619Y-88772380D01*
X120372619Y-89724761D02*
X120277380Y-89772380D01*
X120086904Y-89772380D01*
X119991666Y-89724761D01*
X119944047Y-89677142D01*
X119896428Y-89581904D01*
X119896428Y-89296190D01*
X119944047Y-89200952D01*
X119991666Y-89153333D01*
X120086904Y-89105714D01*
X120277380Y-89105714D01*
X120372619Y-89153333D01*
X121467857Y-89105714D02*
X121848809Y-89105714D01*
X121610714Y-88772380D02*
X121610714Y-89629523D01*
X121658333Y-89724761D01*
X121753571Y-89772380D01*
X121848809Y-89772380D01*
X122325000Y-89772380D02*
X122229761Y-89724761D01*
X122182142Y-89677142D01*
X122134523Y-89581904D01*
X122134523Y-89296190D01*
X122182142Y-89200952D01*
X122229761Y-89153333D01*
X122325000Y-89105714D01*
X122467857Y-89105714D01*
X122563095Y-89153333D01*
X122610714Y-89200952D01*
X122658333Y-89296190D01*
X122658333Y-89581904D01*
X122610714Y-89677142D01*
X122563095Y-89724761D01*
X122467857Y-89772380D01*
X122325000Y-89772380D01*
X124229761Y-89724761D02*
X124134523Y-89772380D01*
X123944047Y-89772380D01*
X123848809Y-89724761D01*
X123801190Y-89629523D01*
X123801190Y-89248571D01*
X123848809Y-89153333D01*
X123944047Y-89105714D01*
X124134523Y-89105714D01*
X124229761Y-89153333D01*
X124277380Y-89248571D01*
X124277380Y-89343809D01*
X123801190Y-89439047D01*
X124610714Y-89772380D02*
X125134523Y-89105714D01*
X124610714Y-89105714D02*
X125134523Y-89772380D01*
X125372619Y-89105714D02*
X125753571Y-89105714D01*
X125515476Y-88772380D02*
X125515476Y-89629523D01*
X125563095Y-89724761D01*
X125658333Y-89772380D01*
X125753571Y-89772380D01*
X126467857Y-89724761D02*
X126372619Y-89772380D01*
X126182142Y-89772380D01*
X126086904Y-89724761D01*
X126039285Y-89629523D01*
X126039285Y-89248571D01*
X126086904Y-89153333D01*
X126182142Y-89105714D01*
X126372619Y-89105714D01*
X126467857Y-89153333D01*
X126515476Y-89248571D01*
X126515476Y-89343809D01*
X126039285Y-89439047D01*
X126944047Y-89105714D02*
X126944047Y-89772380D01*
X126944047Y-89200952D02*
X126991666Y-89153333D01*
X127086904Y-89105714D01*
X127229761Y-89105714D01*
X127325000Y-89153333D01*
X127372619Y-89248571D01*
X127372619Y-89772380D01*
X128277380Y-89772380D02*
X128277380Y-88772380D01*
X128277380Y-89724761D02*
X128182142Y-89772380D01*
X127991666Y-89772380D01*
X127896428Y-89724761D01*
X127848809Y-89677142D01*
X127801190Y-89581904D01*
X127801190Y-89296190D01*
X127848809Y-89200952D01*
X127896428Y-89153333D01*
X127991666Y-89105714D01*
X128182142Y-89105714D01*
X128277380Y-89153333D01*
X129372619Y-89105714D02*
X129753571Y-89105714D01*
X129515476Y-88772380D02*
X129515476Y-89629523D01*
X129563095Y-89724761D01*
X129658333Y-89772380D01*
X129753571Y-89772380D01*
X130086904Y-89772380D02*
X130086904Y-88772380D01*
X130515476Y-89772380D02*
X130515476Y-89248571D01*
X130467857Y-89153333D01*
X130372619Y-89105714D01*
X130229761Y-89105714D01*
X130134523Y-89153333D01*
X130086904Y-89200952D01*
X131372619Y-89724761D02*
X131277380Y-89772380D01*
X131086904Y-89772380D01*
X130991666Y-89724761D01*
X130944047Y-89629523D01*
X130944047Y-89248571D01*
X130991666Y-89153333D01*
X131086904Y-89105714D01*
X131277380Y-89105714D01*
X131372619Y-89153333D01*
X131420238Y-89248571D01*
X131420238Y-89343809D01*
X130944047Y-89439047D01*
X132563095Y-89724761D02*
X132658333Y-89772380D01*
X132848809Y-89772380D01*
X132944047Y-89724761D01*
X132991666Y-89629523D01*
X132991666Y-89581904D01*
X132944047Y-89486666D01*
X132848809Y-89439047D01*
X132705952Y-89439047D01*
X132610714Y-89391428D01*
X132563095Y-89296190D01*
X132563095Y-89248571D01*
X132610714Y-89153333D01*
X132705952Y-89105714D01*
X132848809Y-89105714D01*
X132944047Y-89153333D01*
X133563095Y-89772380D02*
X133467857Y-89724761D01*
X133420238Y-89629523D01*
X133420238Y-88772380D01*
X134086904Y-89772380D02*
X133991666Y-89724761D01*
X133944047Y-89677142D01*
X133896428Y-89581904D01*
X133896428Y-89296190D01*
X133944047Y-89200952D01*
X133991666Y-89153333D01*
X134086904Y-89105714D01*
X134229761Y-89105714D01*
X134325000Y-89153333D01*
X134372619Y-89200952D01*
X134420238Y-89296190D01*
X134420238Y-89581904D01*
X134372619Y-89677142D01*
X134325000Y-89724761D01*
X134229761Y-89772380D01*
X134086904Y-89772380D01*
X134705952Y-89105714D02*
X135086904Y-89105714D01*
X134848809Y-88772380D02*
X134848809Y-89629523D01*
X134896428Y-89724761D01*
X134991666Y-89772380D01*
X135086904Y-89772380D01*
X136610714Y-89724761D02*
X136515476Y-89772380D01*
X136325000Y-89772380D01*
X136229761Y-89724761D01*
X136182142Y-89677142D01*
X136134523Y-89581904D01*
X136134523Y-89296190D01*
X136182142Y-89200952D01*
X136229761Y-89153333D01*
X136325000Y-89105714D01*
X136515476Y-89105714D01*
X136610714Y-89153333D01*
X137182142Y-89772380D02*
X137086904Y-89724761D01*
X137039285Y-89677142D01*
X136991666Y-89581904D01*
X136991666Y-89296190D01*
X137039285Y-89200952D01*
X137086904Y-89153333D01*
X137182142Y-89105714D01*
X137325000Y-89105714D01*
X137420238Y-89153333D01*
X137467857Y-89200952D01*
X137515476Y-89296190D01*
X137515476Y-89581904D01*
X137467857Y-89677142D01*
X137420238Y-89724761D01*
X137325000Y-89772380D01*
X137182142Y-89772380D01*
X137944047Y-89105714D02*
X137944047Y-89772380D01*
X137944047Y-89200952D02*
X137991666Y-89153333D01*
X138086904Y-89105714D01*
X138229761Y-89105714D01*
X138325000Y-89153333D01*
X138372619Y-89248571D01*
X138372619Y-89772380D01*
X138848809Y-89105714D02*
X138848809Y-89772380D01*
X138848809Y-89200952D02*
X138896428Y-89153333D01*
X138991666Y-89105714D01*
X139134523Y-89105714D01*
X139229761Y-89153333D01*
X139277380Y-89248571D01*
X139277380Y-89772380D01*
X140134523Y-89724761D02*
X140039285Y-89772380D01*
X139848809Y-89772380D01*
X139753571Y-89724761D01*
X139705952Y-89629523D01*
X139705952Y-89248571D01*
X139753571Y-89153333D01*
X139848809Y-89105714D01*
X140039285Y-89105714D01*
X140134523Y-89153333D01*
X140182142Y-89248571D01*
X140182142Y-89343809D01*
X139705952Y-89439047D01*
X141039285Y-89724761D02*
X140944047Y-89772380D01*
X140753571Y-89772380D01*
X140658333Y-89724761D01*
X140610714Y-89677142D01*
X140563095Y-89581904D01*
X140563095Y-89296190D01*
X140610714Y-89200952D01*
X140658333Y-89153333D01*
X140753571Y-89105714D01*
X140944047Y-89105714D01*
X141039285Y-89153333D01*
X141325000Y-89105714D02*
X141705952Y-89105714D01*
X141467857Y-88772380D02*
X141467857Y-89629523D01*
X141515476Y-89724761D01*
X141610714Y-89772380D01*
X141705952Y-89772380D01*
X142039285Y-89772380D02*
X142039285Y-89105714D01*
X142039285Y-88772380D02*
X141991666Y-88820000D01*
X142039285Y-88867619D01*
X142086904Y-88820000D01*
X142039285Y-88772380D01*
X142039285Y-88867619D01*
X142658333Y-89772380D02*
X142563095Y-89724761D01*
X142515476Y-89677142D01*
X142467857Y-89581904D01*
X142467857Y-89296190D01*
X142515476Y-89200952D01*
X142563095Y-89153333D01*
X142658333Y-89105714D01*
X142801190Y-89105714D01*
X142896428Y-89153333D01*
X142944047Y-89200952D01*
X142991666Y-89296190D01*
X142991666Y-89581904D01*
X142944047Y-89677142D01*
X142896428Y-89724761D01*
X142801190Y-89772380D01*
X142658333Y-89772380D01*
X143420238Y-89105714D02*
X143420238Y-89772380D01*
X143420238Y-89200952D02*
X143467857Y-89153333D01*
X143563095Y-89105714D01*
X143705952Y-89105714D01*
X143801190Y-89153333D01*
X143848809Y-89248571D01*
X143848809Y-89772380D01*
X144277380Y-89724761D02*
X144372619Y-89772380D01*
X144563095Y-89772380D01*
X144658333Y-89724761D01*
X144705952Y-89629523D01*
X144705952Y-89581904D01*
X144658333Y-89486666D01*
X144563095Y-89439047D01*
X144420238Y-89439047D01*
X144325000Y-89391428D01*
X144277380Y-89296190D01*
X144277380Y-89248571D01*
X144325000Y-89153333D01*
X144420238Y-89105714D01*
X144563095Y-89105714D01*
X144658333Y-89153333D01*
X103253571Y-91382380D02*
X103158333Y-91334761D01*
X103110714Y-91287142D01*
X103063095Y-91191904D01*
X103063095Y-90906190D01*
X103110714Y-90810952D01*
X103158333Y-90763333D01*
X103253571Y-90715714D01*
X103396428Y-90715714D01*
X103491666Y-90763333D01*
X103539285Y-90810952D01*
X103586904Y-90906190D01*
X103586904Y-91191904D01*
X103539285Y-91287142D01*
X103491666Y-91334761D01*
X103396428Y-91382380D01*
X103253571Y-91382380D01*
X104444047Y-90715714D02*
X104444047Y-91382380D01*
X104015476Y-90715714D02*
X104015476Y-91239523D01*
X104063095Y-91334761D01*
X104158333Y-91382380D01*
X104301190Y-91382380D01*
X104396428Y-91334761D01*
X104444047Y-91287142D01*
X104777380Y-90715714D02*
X105158333Y-90715714D01*
X104920238Y-90382380D02*
X104920238Y-91239523D01*
X104967857Y-91334761D01*
X105063095Y-91382380D01*
X105158333Y-91382380D01*
X106110714Y-90715714D02*
X106491666Y-90715714D01*
X106253571Y-90382380D02*
X106253571Y-91239523D01*
X106301190Y-91334761D01*
X106396428Y-91382380D01*
X106491666Y-91382380D01*
X106967857Y-91382380D02*
X106872619Y-91334761D01*
X106825000Y-91287142D01*
X106777380Y-91191904D01*
X106777380Y-90906190D01*
X106825000Y-90810952D01*
X106872619Y-90763333D01*
X106967857Y-90715714D01*
X107110714Y-90715714D01*
X107205952Y-90763333D01*
X107253571Y-90810952D01*
X107301190Y-90906190D01*
X107301190Y-91191904D01*
X107253571Y-91287142D01*
X107205952Y-91334761D01*
X107110714Y-91382380D01*
X106967857Y-91382380D01*
X108920238Y-91382380D02*
X108920238Y-90858571D01*
X108872619Y-90763333D01*
X108777380Y-90715714D01*
X108586904Y-90715714D01*
X108491666Y-90763333D01*
X108920238Y-91334761D02*
X108825000Y-91382380D01*
X108586904Y-91382380D01*
X108491666Y-91334761D01*
X108444047Y-91239523D01*
X108444047Y-91144285D01*
X108491666Y-91049047D01*
X108586904Y-91001428D01*
X108825000Y-91001428D01*
X108920238Y-90953809D01*
X110158333Y-91382380D02*
X110158333Y-90382380D01*
X110158333Y-90763333D02*
X110253571Y-90715714D01*
X110444047Y-90715714D01*
X110539285Y-90763333D01*
X110586904Y-90810952D01*
X110634523Y-90906190D01*
X110634523Y-91191904D01*
X110586904Y-91287142D01*
X110539285Y-91334761D01*
X110444047Y-91382380D01*
X110253571Y-91382380D01*
X110158333Y-91334761D01*
X111063095Y-91382380D02*
X111063095Y-90715714D01*
X111063095Y-90906190D02*
X111110714Y-90810952D01*
X111158333Y-90763333D01*
X111253571Y-90715714D01*
X111348809Y-90715714D01*
X112063095Y-91334761D02*
X111967857Y-91382380D01*
X111777380Y-91382380D01*
X111682142Y-91334761D01*
X111634523Y-91239523D01*
X111634523Y-90858571D01*
X111682142Y-90763333D01*
X111777380Y-90715714D01*
X111967857Y-90715714D01*
X112063095Y-90763333D01*
X112110714Y-90858571D01*
X112110714Y-90953809D01*
X111634523Y-91049047D01*
X112967857Y-91382380D02*
X112967857Y-90858571D01*
X112920238Y-90763333D01*
X112825000Y-90715714D01*
X112634523Y-90715714D01*
X112539285Y-90763333D01*
X112967857Y-91334761D02*
X112872619Y-91382380D01*
X112634523Y-91382380D01*
X112539285Y-91334761D01*
X112491666Y-91239523D01*
X112491666Y-91144285D01*
X112539285Y-91049047D01*
X112634523Y-91001428D01*
X112872619Y-91001428D01*
X112967857Y-90953809D01*
X113872619Y-91382380D02*
X113872619Y-90382380D01*
X113872619Y-91334761D02*
X113777380Y-91382380D01*
X113586904Y-91382380D01*
X113491666Y-91334761D01*
X113444047Y-91287142D01*
X113396428Y-91191904D01*
X113396428Y-90906190D01*
X113444047Y-90810952D01*
X113491666Y-90763333D01*
X113586904Y-90715714D01*
X113777380Y-90715714D01*
X113872619Y-90763333D01*
X114348809Y-91382380D02*
X114348809Y-90382380D01*
X114348809Y-90763333D02*
X114444047Y-90715714D01*
X114634523Y-90715714D01*
X114729761Y-90763333D01*
X114777380Y-90810952D01*
X114825000Y-90906190D01*
X114825000Y-91191904D01*
X114777380Y-91287142D01*
X114729761Y-91334761D01*
X114634523Y-91382380D01*
X114444047Y-91382380D01*
X114348809Y-91334761D01*
X115396428Y-91382380D02*
X115301190Y-91334761D01*
X115253571Y-91287142D01*
X115205952Y-91191904D01*
X115205952Y-90906190D01*
X115253571Y-90810952D01*
X115301190Y-90763333D01*
X115396428Y-90715714D01*
X115539285Y-90715714D01*
X115634523Y-90763333D01*
X115682142Y-90810952D01*
X115729761Y-90906190D01*
X115729761Y-91191904D01*
X115682142Y-91287142D01*
X115634523Y-91334761D01*
X115539285Y-91382380D01*
X115396428Y-91382380D01*
X116586904Y-91382380D02*
X116586904Y-90858571D01*
X116539285Y-90763333D01*
X116444047Y-90715714D01*
X116253571Y-90715714D01*
X116158333Y-90763333D01*
X116586904Y-91334761D02*
X116491666Y-91382380D01*
X116253571Y-91382380D01*
X116158333Y-91334761D01*
X116110714Y-91239523D01*
X116110714Y-91144285D01*
X116158333Y-91049047D01*
X116253571Y-91001428D01*
X116491666Y-91001428D01*
X116586904Y-90953809D01*
X117063095Y-91382380D02*
X117063095Y-90715714D01*
X117063095Y-90906190D02*
X117110714Y-90810952D01*
X117158333Y-90763333D01*
X117253571Y-90715714D01*
X117348809Y-90715714D01*
X118110714Y-91382380D02*
X118110714Y-90382380D01*
X118110714Y-91334761D02*
X118015476Y-91382380D01*
X117825000Y-91382380D01*
X117729761Y-91334761D01*
X117682142Y-91287142D01*
X117634523Y-91191904D01*
X117634523Y-90906190D01*
X117682142Y-90810952D01*
X117729761Y-90763333D01*
X117825000Y-90715714D01*
X118015476Y-90715714D01*
X118110714Y-90763333D01*
X118634523Y-91334761D02*
X118634523Y-91382380D01*
X118586904Y-91477619D01*
X118539285Y-91525238D01*
X119967857Y-91382380D02*
X119872619Y-91334761D01*
X119825000Y-91287142D01*
X119777380Y-91191904D01*
X119777380Y-90906190D01*
X119825000Y-90810952D01*
X119872619Y-90763333D01*
X119967857Y-90715714D01*
X120110714Y-90715714D01*
X120205952Y-90763333D01*
X120253571Y-90810952D01*
X120301190Y-90906190D01*
X120301190Y-91191904D01*
X120253571Y-91287142D01*
X120205952Y-91334761D01*
X120110714Y-91382380D01*
X119967857Y-91382380D01*
X120729761Y-91382380D02*
X120729761Y-90715714D01*
X120729761Y-90906190D02*
X120777380Y-90810952D01*
X120825000Y-90763333D01*
X120920238Y-90715714D01*
X121015476Y-90715714D01*
X122539285Y-91382380D02*
X122539285Y-90858571D01*
X122491666Y-90763333D01*
X122396428Y-90715714D01*
X122205952Y-90715714D01*
X122110714Y-90763333D01*
X122539285Y-91334761D02*
X122444047Y-91382380D01*
X122205952Y-91382380D01*
X122110714Y-91334761D01*
X122063095Y-91239523D01*
X122063095Y-91144285D01*
X122110714Y-91049047D01*
X122205952Y-91001428D01*
X122444047Y-91001428D01*
X122539285Y-90953809D01*
X123777380Y-91382380D02*
X123777380Y-90715714D01*
X123777380Y-90810952D02*
X123825000Y-90763333D01*
X123920238Y-90715714D01*
X124063095Y-90715714D01*
X124158333Y-90763333D01*
X124205952Y-90858571D01*
X124205952Y-91382380D01*
X124205952Y-90858571D02*
X124253571Y-90763333D01*
X124348809Y-90715714D01*
X124491666Y-90715714D01*
X124586904Y-90763333D01*
X124634523Y-90858571D01*
X124634523Y-91382380D01*
X125539285Y-90715714D02*
X125539285Y-91382380D01*
X125110714Y-90715714D02*
X125110714Y-91239523D01*
X125158333Y-91334761D01*
X125253571Y-91382380D01*
X125396428Y-91382380D01*
X125491666Y-91334761D01*
X125539285Y-91287142D01*
X126158333Y-91382380D02*
X126063095Y-91334761D01*
X126015476Y-91239523D01*
X126015476Y-90382380D01*
X126396428Y-90715714D02*
X126777380Y-90715714D01*
X126539285Y-90382380D02*
X126539285Y-91239523D01*
X126586904Y-91334761D01*
X126682142Y-91382380D01*
X126777380Y-91382380D01*
X127110714Y-91382380D02*
X127110714Y-90715714D01*
X127110714Y-90382380D02*
X127063095Y-90430000D01*
X127110714Y-90477619D01*
X127158333Y-90430000D01*
X127110714Y-90382380D01*
X127110714Y-90477619D01*
X127586904Y-91001428D02*
X128348809Y-91001428D01*
X129253571Y-91334761D02*
X129158333Y-91382380D01*
X128967857Y-91382380D01*
X128872619Y-91334761D01*
X128824999Y-91287142D01*
X128777380Y-91191904D01*
X128777380Y-90906190D01*
X128824999Y-90810952D01*
X128872619Y-90763333D01*
X128967857Y-90715714D01*
X129158333Y-90715714D01*
X129253571Y-90763333D01*
X130110714Y-91382380D02*
X130110714Y-90858571D01*
X130063095Y-90763333D01*
X129967857Y-90715714D01*
X129777380Y-90715714D01*
X129682142Y-90763333D01*
X130110714Y-91334761D02*
X130015476Y-91382380D01*
X129777380Y-91382380D01*
X129682142Y-91334761D01*
X129634523Y-91239523D01*
X129634523Y-91144285D01*
X129682142Y-91049047D01*
X129777380Y-91001428D01*
X130015476Y-91001428D01*
X130110714Y-90953809D01*
X130586904Y-91382380D02*
X130586904Y-90715714D01*
X130586904Y-90906190D02*
X130634523Y-90810952D01*
X130682142Y-90763333D01*
X130777380Y-90715714D01*
X130872619Y-90715714D01*
X131063095Y-90715714D02*
X131444047Y-90715714D01*
X131205952Y-90382380D02*
X131205952Y-91239523D01*
X131253571Y-91334761D01*
X131348809Y-91382380D01*
X131444047Y-91382380D01*
X132920238Y-91334761D02*
X132824999Y-91382380D01*
X132634523Y-91382380D01*
X132539285Y-91334761D01*
X132491666Y-91239523D01*
X132491666Y-90858571D01*
X132539285Y-90763333D01*
X132634523Y-90715714D01*
X132824999Y-90715714D01*
X132920238Y-90763333D01*
X132967857Y-90858571D01*
X132967857Y-90953809D01*
X132491666Y-91049047D01*
X133301190Y-91382380D02*
X133824999Y-90715714D01*
X133301190Y-90715714D02*
X133824999Y-91382380D01*
X134205952Y-90715714D02*
X134205952Y-91715714D01*
X134205952Y-90763333D02*
X134301190Y-90715714D01*
X134491666Y-90715714D01*
X134586904Y-90763333D01*
X134634523Y-90810952D01*
X134682142Y-90906190D01*
X134682142Y-91191904D01*
X134634523Y-91287142D01*
X134586904Y-91334761D01*
X134491666Y-91382380D01*
X134301190Y-91382380D01*
X134205952Y-91334761D01*
X135539285Y-91382380D02*
X135539285Y-90858571D01*
X135491666Y-90763333D01*
X135396428Y-90715714D01*
X135205952Y-90715714D01*
X135110714Y-90763333D01*
X135539285Y-91334761D02*
X135444047Y-91382380D01*
X135205952Y-91382380D01*
X135110714Y-91334761D01*
X135063095Y-91239523D01*
X135063095Y-91144285D01*
X135110714Y-91049047D01*
X135205952Y-91001428D01*
X135444047Y-91001428D01*
X135539285Y-90953809D01*
X136015476Y-90715714D02*
X136015476Y-91382380D01*
X136015476Y-90810952D02*
X136063095Y-90763333D01*
X136158333Y-90715714D01*
X136301190Y-90715714D01*
X136396428Y-90763333D01*
X136444047Y-90858571D01*
X136444047Y-91382380D01*
X136872619Y-91334761D02*
X136967857Y-91382380D01*
X137158333Y-91382380D01*
X137253571Y-91334761D01*
X137301190Y-91239523D01*
X137301190Y-91191904D01*
X137253571Y-91096666D01*
X137158333Y-91049047D01*
X137015476Y-91049047D01*
X136920238Y-91001428D01*
X136872619Y-90906190D01*
X136872619Y-90858571D01*
X136920238Y-90763333D01*
X137015476Y-90715714D01*
X137158333Y-90715714D01*
X137253571Y-90763333D01*
X137729761Y-91382380D02*
X137729761Y-90715714D01*
X137729761Y-90382380D02*
X137682142Y-90430000D01*
X137729761Y-90477619D01*
X137777380Y-90430000D01*
X137729761Y-90382380D01*
X137729761Y-90477619D01*
X138348809Y-91382380D02*
X138253571Y-91334761D01*
X138205952Y-91287142D01*
X138158333Y-91191904D01*
X138158333Y-90906190D01*
X138205952Y-90810952D01*
X138253571Y-90763333D01*
X138348809Y-90715714D01*
X138491666Y-90715714D01*
X138586904Y-90763333D01*
X138634523Y-90810952D01*
X138682142Y-90906190D01*
X138682142Y-91191904D01*
X138634523Y-91287142D01*
X138586904Y-91334761D01*
X138491666Y-91382380D01*
X138348809Y-91382380D01*
X139110714Y-90715714D02*
X139110714Y-91382380D01*
X139110714Y-90810952D02*
X139158333Y-90763333D01*
X139253571Y-90715714D01*
X139396428Y-90715714D01*
X139491666Y-90763333D01*
X139539285Y-90858571D01*
X139539285Y-91382380D01*
X140777380Y-91382380D02*
X140777380Y-90382380D01*
X140777380Y-90763333D02*
X140872619Y-90715714D01*
X141063095Y-90715714D01*
X141158333Y-90763333D01*
X141205952Y-90810952D01*
X141253571Y-90906190D01*
X141253571Y-91191904D01*
X141205952Y-91287142D01*
X141158333Y-91334761D01*
X141063095Y-91382380D01*
X140872619Y-91382380D01*
X140777380Y-91334761D01*
X141824999Y-91382380D02*
X141729761Y-91334761D01*
X141682142Y-91287142D01*
X141634523Y-91191904D01*
X141634523Y-90906190D01*
X141682142Y-90810952D01*
X141729761Y-90763333D01*
X141824999Y-90715714D01*
X141967857Y-90715714D01*
X142063095Y-90763333D01*
X142110714Y-90810952D01*
X142158333Y-90906190D01*
X142158333Y-91191904D01*
X142110714Y-91287142D01*
X142063095Y-91334761D01*
X141967857Y-91382380D01*
X141824999Y-91382380D01*
X143015476Y-91382380D02*
X143015476Y-90858571D01*
X142967857Y-90763333D01*
X142872619Y-90715714D01*
X142682142Y-90715714D01*
X142586904Y-90763333D01*
X143015476Y-91334761D02*
X142920238Y-91382380D01*
X142682142Y-91382380D01*
X142586904Y-91334761D01*
X142539285Y-91239523D01*
X142539285Y-91144285D01*
X142586904Y-91049047D01*
X142682142Y-91001428D01*
X142920238Y-91001428D01*
X143015476Y-90953809D01*
X143491666Y-91382380D02*
X143491666Y-90715714D01*
X143491666Y-90906190D02*
X143539285Y-90810952D01*
X143586904Y-90763333D01*
X143682142Y-90715714D01*
X143777380Y-90715714D01*
X144539285Y-91382380D02*
X144539285Y-90382380D01*
X144539285Y-91334761D02*
X144444047Y-91382380D01*
X144253571Y-91382380D01*
X144158333Y-91334761D01*
X144110714Y-91287142D01*
X144063095Y-91191904D01*
X144063095Y-90906190D01*
X144110714Y-90810952D01*
X144158333Y-90763333D01*
X144253571Y-90715714D01*
X144444047Y-90715714D01*
X144539285Y-90763333D01*
X111325000Y-93602380D02*
X111515476Y-93602380D01*
X111610714Y-93650000D01*
X111705952Y-93745238D01*
X111753571Y-93935714D01*
X111753571Y-94269047D01*
X111705952Y-94459523D01*
X111610714Y-94554761D01*
X111515476Y-94602380D01*
X111325000Y-94602380D01*
X111229761Y-94554761D01*
X111134523Y-94459523D01*
X111086904Y-94269047D01*
X111086904Y-93935714D01*
X111134523Y-93745238D01*
X111229761Y-93650000D01*
X111325000Y-93602380D01*
X112182142Y-93935714D02*
X112182142Y-94602380D01*
X112182142Y-94030952D02*
X112229761Y-93983333D01*
X112325000Y-93935714D01*
X112467857Y-93935714D01*
X112563095Y-93983333D01*
X112610714Y-94078571D01*
X112610714Y-94602380D01*
X113229761Y-94602380D02*
X113134523Y-94554761D01*
X113086904Y-94459523D01*
X113086904Y-93602380D01*
X113515476Y-93935714D02*
X113753571Y-94602380D01*
X113991666Y-93935714D02*
X113753571Y-94602380D01*
X113658333Y-94840476D01*
X113610714Y-94888095D01*
X113515476Y-94935714D01*
X114991666Y-93935714D02*
X115372619Y-93935714D01*
X115134523Y-93602380D02*
X115134523Y-94459523D01*
X115182142Y-94554761D01*
X115277380Y-94602380D01*
X115372619Y-94602380D01*
X115705952Y-94602380D02*
X115705952Y-93602380D01*
X116134523Y-94602380D02*
X116134523Y-94078571D01*
X116086904Y-93983333D01*
X115991666Y-93935714D01*
X115848809Y-93935714D01*
X115753571Y-93983333D01*
X115705952Y-94030952D01*
X116991666Y-94554761D02*
X116896428Y-94602380D01*
X116705952Y-94602380D01*
X116610714Y-94554761D01*
X116563095Y-94459523D01*
X116563095Y-94078571D01*
X116610714Y-93983333D01*
X116705952Y-93935714D01*
X116896428Y-93935714D01*
X116991666Y-93983333D01*
X117039285Y-94078571D01*
X117039285Y-94173809D01*
X116563095Y-94269047D01*
X118086904Y-93935714D02*
X118467857Y-93935714D01*
X118229761Y-94602380D02*
X118229761Y-93745238D01*
X118277380Y-93650000D01*
X118372619Y-93602380D01*
X118467857Y-93602380D01*
X118801190Y-94602380D02*
X118801190Y-93935714D01*
X118801190Y-93602380D02*
X118753571Y-93650000D01*
X118801190Y-93697619D01*
X118848809Y-93650000D01*
X118801190Y-93602380D01*
X118801190Y-93697619D01*
X119277380Y-94602380D02*
X119277380Y-93935714D01*
X119277380Y-94126190D02*
X119325000Y-94030952D01*
X119372619Y-93983333D01*
X119467857Y-93935714D01*
X119563095Y-93935714D01*
X119848809Y-94554761D02*
X119944047Y-94602380D01*
X120134523Y-94602380D01*
X120229761Y-94554761D01*
X120277380Y-94459523D01*
X120277380Y-94411904D01*
X120229761Y-94316666D01*
X120134523Y-94269047D01*
X119991666Y-94269047D01*
X119896428Y-94221428D01*
X119848809Y-94126190D01*
X119848809Y-94078571D01*
X119896428Y-93983333D01*
X119991666Y-93935714D01*
X120134523Y-93935714D01*
X120229761Y-93983333D01*
X120563095Y-93935714D02*
X120944047Y-93935714D01*
X120705952Y-93602380D02*
X120705952Y-94459523D01*
X120753571Y-94554761D01*
X120848809Y-94602380D01*
X120944047Y-94602380D01*
X121944047Y-93602380D02*
X122563095Y-93602380D01*
X122229761Y-93983333D01*
X122372619Y-93983333D01*
X122467857Y-94030952D01*
X122515476Y-94078571D01*
X122563095Y-94173809D01*
X122563095Y-94411904D01*
X122515476Y-94507142D01*
X122467857Y-94554761D01*
X122372619Y-94602380D01*
X122086904Y-94602380D01*
X121991666Y-94554761D01*
X121944047Y-94507142D01*
X123182142Y-93602380D02*
X123277380Y-93602380D01*
X123372619Y-93650000D01*
X123420238Y-93697619D01*
X123467857Y-93792857D01*
X123515476Y-93983333D01*
X123515476Y-94221428D01*
X123467857Y-94411904D01*
X123420238Y-94507142D01*
X123372619Y-94554761D01*
X123277380Y-94602380D01*
X123182142Y-94602380D01*
X123086904Y-94554761D01*
X123039285Y-94507142D01*
X122991666Y-94411904D01*
X122944047Y-94221428D01*
X122944047Y-93983333D01*
X122991666Y-93792857D01*
X123039285Y-93697619D01*
X123086904Y-93650000D01*
X123182142Y-93602380D01*
X124705952Y-93935714D02*
X124705952Y-94935714D01*
X124705952Y-93983333D02*
X124801190Y-93935714D01*
X124991666Y-93935714D01*
X125086904Y-93983333D01*
X125134523Y-94030952D01*
X125182142Y-94126190D01*
X125182142Y-94411904D01*
X125134523Y-94507142D01*
X125086904Y-94554761D01*
X124991666Y-94602380D01*
X124801190Y-94602380D01*
X124705952Y-94554761D01*
X125610714Y-94602380D02*
X125610714Y-93935714D01*
X125610714Y-93602380D02*
X125563095Y-93650000D01*
X125610714Y-93697619D01*
X125658333Y-93650000D01*
X125610714Y-93602380D01*
X125610714Y-93697619D01*
X126086904Y-93935714D02*
X126086904Y-94602380D01*
X126086904Y-94030952D02*
X126134523Y-93983333D01*
X126229761Y-93935714D01*
X126372619Y-93935714D01*
X126467857Y-93983333D01*
X126515476Y-94078571D01*
X126515476Y-94602380D01*
X126944047Y-94554761D02*
X127039285Y-94602380D01*
X127229761Y-94602380D01*
X127324999Y-94554761D01*
X127372619Y-94459523D01*
X127372619Y-94411904D01*
X127324999Y-94316666D01*
X127229761Y-94269047D01*
X127086904Y-94269047D01*
X126991666Y-94221428D01*
X126944047Y-94126190D01*
X126944047Y-94078571D01*
X126991666Y-93983333D01*
X127086904Y-93935714D01*
X127229761Y-93935714D01*
X127324999Y-93983333D01*
X128991666Y-94602380D02*
X128991666Y-94078571D01*
X128944047Y-93983333D01*
X128848809Y-93935714D01*
X128658333Y-93935714D01*
X128563095Y-93983333D01*
X128991666Y-94554761D02*
X128896428Y-94602380D01*
X128658333Y-94602380D01*
X128563095Y-94554761D01*
X128515476Y-94459523D01*
X128515476Y-94364285D01*
X128563095Y-94269047D01*
X128658333Y-94221428D01*
X128896428Y-94221428D01*
X128991666Y-94173809D01*
X129467857Y-94602380D02*
X129467857Y-93935714D01*
X129467857Y-94126190D02*
X129515476Y-94030952D01*
X129563095Y-93983333D01*
X129658333Y-93935714D01*
X129753571Y-93935714D01*
X130467857Y-94554761D02*
X130372619Y-94602380D01*
X130182142Y-94602380D01*
X130086904Y-94554761D01*
X130039285Y-94459523D01*
X130039285Y-94078571D01*
X130086904Y-93983333D01*
X130182142Y-93935714D01*
X130372619Y-93935714D01*
X130467857Y-93983333D01*
X130515476Y-94078571D01*
X130515476Y-94173809D01*
X130039285Y-94269047D01*
X131705952Y-93935714D02*
X131705952Y-94602380D01*
X131705952Y-94030952D02*
X131753571Y-93983333D01*
X131848809Y-93935714D01*
X131991666Y-93935714D01*
X132086904Y-93983333D01*
X132134523Y-94078571D01*
X132134523Y-94602380D01*
X132991666Y-94554761D02*
X132896428Y-94602380D01*
X132705952Y-94602380D01*
X132610714Y-94554761D01*
X132563095Y-94459523D01*
X132563095Y-94078571D01*
X132610714Y-93983333D01*
X132705952Y-93935714D01*
X132896428Y-93935714D01*
X132991666Y-93983333D01*
X133039285Y-94078571D01*
X133039285Y-94173809D01*
X132563095Y-94269047D01*
X133848809Y-94554761D02*
X133753571Y-94602380D01*
X133563095Y-94602380D01*
X133467857Y-94554761D01*
X133420238Y-94459523D01*
X133420238Y-94078571D01*
X133467857Y-93983333D01*
X133563095Y-93935714D01*
X133753571Y-93935714D01*
X133848809Y-93983333D01*
X133896428Y-94078571D01*
X133896428Y-94173809D01*
X133420238Y-94269047D01*
X134753571Y-94602380D02*
X134753571Y-93602380D01*
X134753571Y-94554761D02*
X134658333Y-94602380D01*
X134467857Y-94602380D01*
X134372619Y-94554761D01*
X134325000Y-94507142D01*
X134277380Y-94411904D01*
X134277380Y-94126190D01*
X134325000Y-94030952D01*
X134372619Y-93983333D01*
X134467857Y-93935714D01*
X134658333Y-93935714D01*
X134753571Y-93983333D01*
X135610714Y-94554761D02*
X135515476Y-94602380D01*
X135325000Y-94602380D01*
X135229761Y-94554761D01*
X135182142Y-94459523D01*
X135182142Y-94078571D01*
X135229761Y-93983333D01*
X135325000Y-93935714D01*
X135515476Y-93935714D01*
X135610714Y-93983333D01*
X135658333Y-94078571D01*
X135658333Y-94173809D01*
X135182142Y-94269047D01*
X136515476Y-94602380D02*
X136515476Y-93602380D01*
X136515476Y-94554761D02*
X136420238Y-94602380D01*
X136229761Y-94602380D01*
X136134523Y-94554761D01*
X136086904Y-94507142D01*
X136039285Y-94411904D01*
X136039285Y-94126190D01*
X136086904Y-94030952D01*
X136134523Y-93983333D01*
X136229761Y-93935714D01*
X136420238Y-93935714D01*
X136515476Y-93983333D01*
X107182142Y-95545714D02*
X107563095Y-95545714D01*
X107325000Y-95212380D02*
X107325000Y-96069523D01*
X107372619Y-96164761D01*
X107467857Y-96212380D01*
X107563095Y-96212380D01*
X107896428Y-96212380D02*
X107896428Y-95212380D01*
X108325000Y-96212380D02*
X108325000Y-95688571D01*
X108277380Y-95593333D01*
X108182142Y-95545714D01*
X108039285Y-95545714D01*
X107944047Y-95593333D01*
X107896428Y-95640952D01*
X109182142Y-96164761D02*
X109086904Y-96212380D01*
X108896428Y-96212380D01*
X108801190Y-96164761D01*
X108753571Y-96069523D01*
X108753571Y-95688571D01*
X108801190Y-95593333D01*
X108896428Y-95545714D01*
X109086904Y-95545714D01*
X109182142Y-95593333D01*
X109229761Y-95688571D01*
X109229761Y-95783809D01*
X108753571Y-95879047D01*
X110420238Y-96212380D02*
X110420238Y-95545714D01*
X110420238Y-95736190D02*
X110467857Y-95640952D01*
X110515476Y-95593333D01*
X110610714Y-95545714D01*
X110705952Y-95545714D01*
X111420238Y-96164761D02*
X111325000Y-96212380D01*
X111134523Y-96212380D01*
X111039285Y-96164761D01*
X110991666Y-96069523D01*
X110991666Y-95688571D01*
X111039285Y-95593333D01*
X111134523Y-95545714D01*
X111325000Y-95545714D01*
X111420238Y-95593333D01*
X111467857Y-95688571D01*
X111467857Y-95783809D01*
X110991666Y-95879047D01*
X111896428Y-96212380D02*
X111896428Y-95545714D01*
X111896428Y-95640952D02*
X111944047Y-95593333D01*
X112039285Y-95545714D01*
X112182142Y-95545714D01*
X112277380Y-95593333D01*
X112325000Y-95688571D01*
X112325000Y-96212380D01*
X112325000Y-95688571D02*
X112372619Y-95593333D01*
X112467857Y-95545714D01*
X112610714Y-95545714D01*
X112705952Y-95593333D01*
X112753571Y-95688571D01*
X112753571Y-96212380D01*
X113658333Y-96212380D02*
X113658333Y-95688571D01*
X113610714Y-95593333D01*
X113515476Y-95545714D01*
X113325000Y-95545714D01*
X113229761Y-95593333D01*
X113658333Y-96164761D02*
X113563095Y-96212380D01*
X113325000Y-96212380D01*
X113229761Y-96164761D01*
X113182142Y-96069523D01*
X113182142Y-95974285D01*
X113229761Y-95879047D01*
X113325000Y-95831428D01*
X113563095Y-95831428D01*
X113658333Y-95783809D01*
X114134523Y-96212380D02*
X114134523Y-95545714D01*
X114134523Y-95212380D02*
X114086904Y-95260000D01*
X114134523Y-95307619D01*
X114182142Y-95260000D01*
X114134523Y-95212380D01*
X114134523Y-95307619D01*
X114610714Y-95545714D02*
X114610714Y-96212380D01*
X114610714Y-95640952D02*
X114658333Y-95593333D01*
X114753571Y-95545714D01*
X114896428Y-95545714D01*
X114991666Y-95593333D01*
X115039285Y-95688571D01*
X115039285Y-96212380D01*
X115515476Y-96212380D02*
X115515476Y-95545714D01*
X115515476Y-95212380D02*
X115467857Y-95260000D01*
X115515476Y-95307619D01*
X115563095Y-95260000D01*
X115515476Y-95212380D01*
X115515476Y-95307619D01*
X115991666Y-95545714D02*
X115991666Y-96212380D01*
X115991666Y-95640952D02*
X116039285Y-95593333D01*
X116134523Y-95545714D01*
X116277380Y-95545714D01*
X116372619Y-95593333D01*
X116420238Y-95688571D01*
X116420238Y-96212380D01*
X117325000Y-95545714D02*
X117325000Y-96355238D01*
X117277380Y-96450476D01*
X117229761Y-96498095D01*
X117134523Y-96545714D01*
X116991666Y-96545714D01*
X116896428Y-96498095D01*
X117325000Y-96164761D02*
X117229761Y-96212380D01*
X117039285Y-96212380D01*
X116944047Y-96164761D01*
X116896428Y-96117142D01*
X116848809Y-96021904D01*
X116848809Y-95736190D01*
X116896428Y-95640952D01*
X116944047Y-95593333D01*
X117039285Y-95545714D01*
X117229761Y-95545714D01*
X117325000Y-95593333D01*
X119086904Y-96212380D02*
X118515476Y-96212380D01*
X118801190Y-96212380D02*
X118801190Y-95212380D01*
X118705952Y-95355238D01*
X118610714Y-95450476D01*
X118515476Y-95498095D01*
X119705952Y-95212380D02*
X119801190Y-95212380D01*
X119896428Y-95260000D01*
X119944047Y-95307619D01*
X119991666Y-95402857D01*
X120039285Y-95593333D01*
X120039285Y-95831428D01*
X119991666Y-96021904D01*
X119944047Y-96117142D01*
X119896428Y-96164761D01*
X119801190Y-96212380D01*
X119705952Y-96212380D01*
X119610714Y-96164761D01*
X119563095Y-96117142D01*
X119515476Y-96021904D01*
X119467857Y-95831428D01*
X119467857Y-95593333D01*
X119515476Y-95402857D01*
X119563095Y-95307619D01*
X119610714Y-95260000D01*
X119705952Y-95212380D01*
X121658333Y-96212380D02*
X121658333Y-95688571D01*
X121610714Y-95593333D01*
X121515476Y-95545714D01*
X121325000Y-95545714D01*
X121229761Y-95593333D01*
X121658333Y-96164761D02*
X121563095Y-96212380D01*
X121325000Y-96212380D01*
X121229761Y-96164761D01*
X121182142Y-96069523D01*
X121182142Y-95974285D01*
X121229761Y-95879047D01*
X121325000Y-95831428D01*
X121563095Y-95831428D01*
X121658333Y-95783809D01*
X122134523Y-96212380D02*
X122134523Y-95545714D01*
X122134523Y-95736190D02*
X122182142Y-95640952D01*
X122229761Y-95593333D01*
X122325000Y-95545714D01*
X122420238Y-95545714D01*
X123134523Y-96164761D02*
X123039285Y-96212380D01*
X122848809Y-96212380D01*
X122753571Y-96164761D01*
X122705952Y-96069523D01*
X122705952Y-95688571D01*
X122753571Y-95593333D01*
X122848809Y-95545714D01*
X123039285Y-95545714D01*
X123134523Y-95593333D01*
X123182142Y-95688571D01*
X123182142Y-95783809D01*
X122705952Y-95879047D01*
X124753571Y-96164761D02*
X124658333Y-96212380D01*
X124467857Y-96212380D01*
X124372619Y-96164761D01*
X124325000Y-96069523D01*
X124325000Y-95688571D01*
X124372619Y-95593333D01*
X124467857Y-95545714D01*
X124658333Y-95545714D01*
X124753571Y-95593333D01*
X124801190Y-95688571D01*
X124801190Y-95783809D01*
X124325000Y-95879047D01*
X125134523Y-96212380D02*
X125658333Y-95545714D01*
X125134523Y-95545714D02*
X125658333Y-96212380D01*
X125896428Y-95545714D02*
X126277380Y-95545714D01*
X126039285Y-95212380D02*
X126039285Y-96069523D01*
X126086904Y-96164761D01*
X126182142Y-96212380D01*
X126277380Y-96212380D01*
X126610714Y-96212380D02*
X126610714Y-95545714D01*
X126610714Y-95736190D02*
X126658333Y-95640952D01*
X126705952Y-95593333D01*
X126801190Y-95545714D01*
X126896428Y-95545714D01*
X127658333Y-96212380D02*
X127658333Y-95688571D01*
X127610714Y-95593333D01*
X127515476Y-95545714D01*
X127325000Y-95545714D01*
X127229761Y-95593333D01*
X127658333Y-96164761D02*
X127563095Y-96212380D01*
X127325000Y-96212380D01*
X127229761Y-96164761D01*
X127182142Y-96069523D01*
X127182142Y-95974285D01*
X127229761Y-95879047D01*
X127325000Y-95831428D01*
X127563095Y-95831428D01*
X127658333Y-95783809D01*
X128896428Y-95545714D02*
X128896428Y-96545714D01*
X128896428Y-95593333D02*
X128991666Y-95545714D01*
X129182142Y-95545714D01*
X129277380Y-95593333D01*
X129325000Y-95640952D01*
X129372619Y-95736190D01*
X129372619Y-96021904D01*
X129325000Y-96117142D01*
X129277380Y-96164761D01*
X129182142Y-96212380D01*
X128991666Y-96212380D01*
X128896428Y-96164761D01*
X129944047Y-96212380D02*
X129848809Y-96164761D01*
X129801190Y-96117142D01*
X129753571Y-96021904D01*
X129753571Y-95736190D01*
X129801190Y-95640952D01*
X129848809Y-95593333D01*
X129944047Y-95545714D01*
X130086904Y-95545714D01*
X130182142Y-95593333D01*
X130229761Y-95640952D01*
X130277380Y-95736190D01*
X130277380Y-96021904D01*
X130229761Y-96117142D01*
X130182142Y-96164761D01*
X130086904Y-96212380D01*
X129944047Y-96212380D01*
X130610714Y-95545714D02*
X130801190Y-96212380D01*
X130991666Y-95736190D01*
X131182142Y-96212380D01*
X131372619Y-95545714D01*
X132134523Y-96164761D02*
X132039285Y-96212380D01*
X131848809Y-96212380D01*
X131753571Y-96164761D01*
X131705952Y-96069523D01*
X131705952Y-95688571D01*
X131753571Y-95593333D01*
X131848809Y-95545714D01*
X132039285Y-95545714D01*
X132134523Y-95593333D01*
X132182142Y-95688571D01*
X132182142Y-95783809D01*
X131705952Y-95879047D01*
X132610714Y-96212380D02*
X132610714Y-95545714D01*
X132610714Y-95736190D02*
X132658333Y-95640952D01*
X132705952Y-95593333D01*
X132801190Y-95545714D01*
X132896428Y-95545714D01*
X133991666Y-96212380D02*
X133991666Y-95545714D01*
X133991666Y-95736190D02*
X134039285Y-95640952D01*
X134086904Y-95593333D01*
X134182142Y-95545714D01*
X134277380Y-95545714D01*
X135039285Y-96212380D02*
X135039285Y-95688571D01*
X134991666Y-95593333D01*
X134896428Y-95545714D01*
X134705952Y-95545714D01*
X134610714Y-95593333D01*
X135039285Y-96164761D02*
X134944047Y-96212380D01*
X134705952Y-96212380D01*
X134610714Y-96164761D01*
X134563095Y-96069523D01*
X134563095Y-95974285D01*
X134610714Y-95879047D01*
X134705952Y-95831428D01*
X134944047Y-95831428D01*
X135039285Y-95783809D01*
X135515476Y-96212380D02*
X135515476Y-95545714D01*
X135515476Y-95212380D02*
X135467857Y-95260000D01*
X135515476Y-95307619D01*
X135563095Y-95260000D01*
X135515476Y-95212380D01*
X135515476Y-95307619D01*
X136134523Y-96212380D02*
X136039285Y-96164761D01*
X135991666Y-96069523D01*
X135991666Y-95212380D01*
X136467857Y-96164761D02*
X136563095Y-96212380D01*
X136753571Y-96212380D01*
X136848809Y-96164761D01*
X136896428Y-96069523D01*
X136896428Y-96021904D01*
X136848809Y-95926666D01*
X136753571Y-95879047D01*
X136610714Y-95879047D01*
X136515476Y-95831428D01*
X136467857Y-95736190D01*
X136467857Y-95688571D01*
X136515476Y-95593333D01*
X136610714Y-95545714D01*
X136753571Y-95545714D01*
X136848809Y-95593333D01*
X138515476Y-96212380D02*
X138515476Y-95688571D01*
X138467857Y-95593333D01*
X138372619Y-95545714D01*
X138182142Y-95545714D01*
X138086904Y-95593333D01*
X138515476Y-96164761D02*
X138420238Y-96212380D01*
X138182142Y-96212380D01*
X138086904Y-96164761D01*
X138039285Y-96069523D01*
X138039285Y-95974285D01*
X138086904Y-95879047D01*
X138182142Y-95831428D01*
X138420238Y-95831428D01*
X138515476Y-95783809D01*
X138991666Y-95545714D02*
X138991666Y-96212380D01*
X138991666Y-95640952D02*
X139039285Y-95593333D01*
X139134523Y-95545714D01*
X139277380Y-95545714D01*
X139372619Y-95593333D01*
X139420238Y-95688571D01*
X139420238Y-96212380D01*
X140325000Y-96212380D02*
X140325000Y-95212380D01*
X140325000Y-96164761D02*
X140229761Y-96212380D01*
X140039285Y-96212380D01*
X139944047Y-96164761D01*
X139896428Y-96117142D01*
X139848809Y-96021904D01*
X139848809Y-95736190D01*
X139896428Y-95640952D01*
X139944047Y-95593333D01*
X140039285Y-95545714D01*
X140229761Y-95545714D01*
X140325000Y-95593333D01*
X108253571Y-97822380D02*
X108253571Y-96822380D01*
X108253571Y-97203333D02*
X108348809Y-97155714D01*
X108539285Y-97155714D01*
X108634523Y-97203333D01*
X108682142Y-97250952D01*
X108729761Y-97346190D01*
X108729761Y-97631904D01*
X108682142Y-97727142D01*
X108634523Y-97774761D01*
X108539285Y-97822380D01*
X108348809Y-97822380D01*
X108253571Y-97774761D01*
X109539285Y-97774761D02*
X109444047Y-97822380D01*
X109253571Y-97822380D01*
X109158333Y-97774761D01*
X109110714Y-97679523D01*
X109110714Y-97298571D01*
X109158333Y-97203333D01*
X109253571Y-97155714D01*
X109444047Y-97155714D01*
X109539285Y-97203333D01*
X109586904Y-97298571D01*
X109586904Y-97393809D01*
X109110714Y-97489047D01*
X110444047Y-97774761D02*
X110348809Y-97822380D01*
X110158333Y-97822380D01*
X110063095Y-97774761D01*
X110015476Y-97727142D01*
X109967857Y-97631904D01*
X109967857Y-97346190D01*
X110015476Y-97250952D01*
X110063095Y-97203333D01*
X110158333Y-97155714D01*
X110348809Y-97155714D01*
X110444047Y-97203333D01*
X111301190Y-97822380D02*
X111301190Y-97298571D01*
X111253571Y-97203333D01*
X111158333Y-97155714D01*
X110967857Y-97155714D01*
X110872619Y-97203333D01*
X111301190Y-97774761D02*
X111205952Y-97822380D01*
X110967857Y-97822380D01*
X110872619Y-97774761D01*
X110824999Y-97679523D01*
X110824999Y-97584285D01*
X110872619Y-97489047D01*
X110967857Y-97441428D01*
X111205952Y-97441428D01*
X111301190Y-97393809D01*
X112205952Y-97155714D02*
X112205952Y-97822380D01*
X111777380Y-97155714D02*
X111777380Y-97679523D01*
X111824999Y-97774761D01*
X111920238Y-97822380D01*
X112063095Y-97822380D01*
X112158333Y-97774761D01*
X112205952Y-97727142D01*
X112634523Y-97774761D02*
X112729761Y-97822380D01*
X112920238Y-97822380D01*
X113015476Y-97774761D01*
X113063095Y-97679523D01*
X113063095Y-97631904D01*
X113015476Y-97536666D01*
X112920238Y-97489047D01*
X112777380Y-97489047D01*
X112682142Y-97441428D01*
X112634523Y-97346190D01*
X112634523Y-97298571D01*
X112682142Y-97203333D01*
X112777380Y-97155714D01*
X112920238Y-97155714D01*
X113015476Y-97203333D01*
X113872619Y-97774761D02*
X113777380Y-97822380D01*
X113586904Y-97822380D01*
X113491666Y-97774761D01*
X113444047Y-97679523D01*
X113444047Y-97298571D01*
X113491666Y-97203333D01*
X113586904Y-97155714D01*
X113777380Y-97155714D01*
X113872619Y-97203333D01*
X113920238Y-97298571D01*
X113920238Y-97393809D01*
X113444047Y-97489047D01*
X115110714Y-97822380D02*
X115110714Y-96822380D01*
X115586904Y-97822380D02*
X115586904Y-96822380D01*
X115824999Y-96822380D01*
X115967857Y-96870000D01*
X116063095Y-96965238D01*
X116110714Y-97060476D01*
X116158333Y-97250952D01*
X116158333Y-97393809D01*
X116110714Y-97584285D01*
X116063095Y-97679523D01*
X115967857Y-97774761D01*
X115824999Y-97822380D01*
X115586904Y-97822380D01*
X116586904Y-97298571D02*
X116920238Y-97298571D01*
X117063095Y-97822380D02*
X116586904Y-97822380D01*
X116586904Y-96822380D01*
X117063095Y-96822380D01*
X118682142Y-97774761D02*
X118586904Y-97822380D01*
X118396428Y-97822380D01*
X118301190Y-97774761D01*
X118253571Y-97727142D01*
X118205952Y-97631904D01*
X118205952Y-97346190D01*
X118253571Y-97250952D01*
X118301190Y-97203333D01*
X118396428Y-97155714D01*
X118586904Y-97155714D01*
X118682142Y-97203333D01*
X119539285Y-97822380D02*
X119539285Y-97298571D01*
X119491666Y-97203333D01*
X119396428Y-97155714D01*
X119205952Y-97155714D01*
X119110714Y-97203333D01*
X119539285Y-97774761D02*
X119444047Y-97822380D01*
X119205952Y-97822380D01*
X119110714Y-97774761D01*
X119063095Y-97679523D01*
X119063095Y-97584285D01*
X119110714Y-97489047D01*
X119205952Y-97441428D01*
X119444047Y-97441428D01*
X119539285Y-97393809D01*
X120015476Y-97822380D02*
X120015476Y-96822380D01*
X120015476Y-97203333D02*
X120110714Y-97155714D01*
X120301190Y-97155714D01*
X120396428Y-97203333D01*
X120444047Y-97250952D01*
X120491666Y-97346190D01*
X120491666Y-97631904D01*
X120444047Y-97727142D01*
X120396428Y-97774761D01*
X120301190Y-97822380D01*
X120110714Y-97822380D01*
X120015476Y-97774761D01*
X121063095Y-97822380D02*
X120967857Y-97774761D01*
X120920238Y-97679523D01*
X120920238Y-96822380D01*
X121824999Y-97774761D02*
X121729761Y-97822380D01*
X121539285Y-97822380D01*
X121444047Y-97774761D01*
X121396428Y-97679523D01*
X121396428Y-97298571D01*
X121444047Y-97203333D01*
X121539285Y-97155714D01*
X121729761Y-97155714D01*
X121824999Y-97203333D01*
X121872619Y-97298571D01*
X121872619Y-97393809D01*
X121396428Y-97489047D01*
X122253571Y-97774761D02*
X122348809Y-97822380D01*
X122539285Y-97822380D01*
X122634523Y-97774761D01*
X122682142Y-97679523D01*
X122682142Y-97631904D01*
X122634523Y-97536666D01*
X122539285Y-97489047D01*
X122396428Y-97489047D01*
X122301190Y-97441428D01*
X122253571Y-97346190D01*
X122253571Y-97298571D01*
X122301190Y-97203333D01*
X122396428Y-97155714D01*
X122539285Y-97155714D01*
X122634523Y-97203333D01*
X124301190Y-97822380D02*
X124301190Y-97298571D01*
X124253571Y-97203333D01*
X124158333Y-97155714D01*
X123967857Y-97155714D01*
X123872619Y-97203333D01*
X124301190Y-97774761D02*
X124205952Y-97822380D01*
X123967857Y-97822380D01*
X123872619Y-97774761D01*
X123824999Y-97679523D01*
X123824999Y-97584285D01*
X123872619Y-97489047D01*
X123967857Y-97441428D01*
X124205952Y-97441428D01*
X124301190Y-97393809D01*
X124777380Y-97822380D02*
X124777380Y-97155714D01*
X124777380Y-97346190D02*
X124824999Y-97250952D01*
X124872619Y-97203333D01*
X124967857Y-97155714D01*
X125063095Y-97155714D01*
X125777380Y-97774761D02*
X125682142Y-97822380D01*
X125491666Y-97822380D01*
X125396428Y-97774761D01*
X125348809Y-97679523D01*
X125348809Y-97298571D01*
X125396428Y-97203333D01*
X125491666Y-97155714D01*
X125682142Y-97155714D01*
X125777380Y-97203333D01*
X125824999Y-97298571D01*
X125824999Y-97393809D01*
X125348809Y-97489047D01*
X126967857Y-97774761D02*
X127063095Y-97822380D01*
X127253571Y-97822380D01*
X127348809Y-97774761D01*
X127396428Y-97679523D01*
X127396428Y-97631904D01*
X127348809Y-97536666D01*
X127253571Y-97489047D01*
X127110714Y-97489047D01*
X127015476Y-97441428D01*
X126967857Y-97346190D01*
X126967857Y-97298571D01*
X127015476Y-97203333D01*
X127110714Y-97155714D01*
X127253571Y-97155714D01*
X127348809Y-97203333D01*
X127682142Y-97155714D02*
X128063095Y-97155714D01*
X127824999Y-96822380D02*
X127824999Y-97679523D01*
X127872619Y-97774761D01*
X127967857Y-97822380D01*
X128063095Y-97822380D01*
X128396428Y-97822380D02*
X128396428Y-97155714D01*
X128396428Y-96822380D02*
X128348809Y-96870000D01*
X128396428Y-96917619D01*
X128444047Y-96870000D01*
X128396428Y-96822380D01*
X128396428Y-96917619D01*
X129015476Y-97822380D02*
X128920238Y-97774761D01*
X128872619Y-97679523D01*
X128872619Y-96822380D01*
X129539285Y-97822380D02*
X129444047Y-97774761D01*
X129396428Y-97679523D01*
X129396428Y-96822380D01*
X131063095Y-97774761D02*
X130967857Y-97822380D01*
X130777380Y-97822380D01*
X130682142Y-97774761D01*
X130634523Y-97679523D01*
X130634523Y-97298571D01*
X130682142Y-97203333D01*
X130777380Y-97155714D01*
X130967857Y-97155714D01*
X131063095Y-97203333D01*
X131110714Y-97298571D01*
X131110714Y-97393809D01*
X130634523Y-97489047D01*
X131967857Y-97822380D02*
X131967857Y-97298571D01*
X131920238Y-97203333D01*
X131824999Y-97155714D01*
X131634523Y-97155714D01*
X131539285Y-97203333D01*
X131967857Y-97774761D02*
X131872619Y-97822380D01*
X131634523Y-97822380D01*
X131539285Y-97774761D01*
X131491666Y-97679523D01*
X131491666Y-97584285D01*
X131539285Y-97489047D01*
X131634523Y-97441428D01*
X131872619Y-97441428D01*
X131967857Y-97393809D01*
X132396428Y-97774761D02*
X132491666Y-97822380D01*
X132682142Y-97822380D01*
X132777380Y-97774761D01*
X132824999Y-97679523D01*
X132824999Y-97631904D01*
X132777380Y-97536666D01*
X132682142Y-97489047D01*
X132539285Y-97489047D01*
X132444047Y-97441428D01*
X132396428Y-97346190D01*
X132396428Y-97298571D01*
X132444047Y-97203333D01*
X132539285Y-97155714D01*
X132682142Y-97155714D01*
X132777380Y-97203333D01*
X133158333Y-97155714D02*
X133396428Y-97822380D01*
X133634523Y-97155714D02*
X133396428Y-97822380D01*
X133301190Y-98060476D01*
X133253571Y-98108095D01*
X133158333Y-98155714D01*
X134634523Y-97155714D02*
X135015476Y-97155714D01*
X134777380Y-96822380D02*
X134777380Y-97679523D01*
X134824999Y-97774761D01*
X134920238Y-97822380D01*
X135015476Y-97822380D01*
X135491666Y-97822380D02*
X135396428Y-97774761D01*
X135348809Y-97727142D01*
X135301190Y-97631904D01*
X135301190Y-97346190D01*
X135348809Y-97250952D01*
X135396428Y-97203333D01*
X135491666Y-97155714D01*
X135634523Y-97155714D01*
X135729761Y-97203333D01*
X135777380Y-97250952D01*
X135824999Y-97346190D01*
X135824999Y-97631904D01*
X135777380Y-97727142D01*
X135729761Y-97774761D01*
X135634523Y-97822380D01*
X135491666Y-97822380D01*
X136872619Y-97155714D02*
X137253571Y-97155714D01*
X137015476Y-97822380D02*
X137015476Y-96965238D01*
X137063095Y-96870000D01*
X137158333Y-96822380D01*
X137253571Y-96822380D01*
X137586904Y-97822380D02*
X137586904Y-97155714D01*
X137586904Y-96822380D02*
X137539285Y-96870000D01*
X137586904Y-96917619D01*
X137634523Y-96870000D01*
X137586904Y-96822380D01*
X137586904Y-96917619D01*
X138063095Y-97155714D02*
X138063095Y-97822380D01*
X138063095Y-97250952D02*
X138110714Y-97203333D01*
X138205952Y-97155714D01*
X138348809Y-97155714D01*
X138444047Y-97203333D01*
X138491666Y-97298571D01*
X138491666Y-97822380D01*
X139396428Y-97822380D02*
X139396428Y-96822380D01*
X139396428Y-97774761D02*
X139301190Y-97822380D01*
X139110714Y-97822380D01*
X139015476Y-97774761D01*
X138967857Y-97727142D01*
X138920238Y-97631904D01*
X138920238Y-97346190D01*
X138967857Y-97250952D01*
X139015476Y-97203333D01*
X139110714Y-97155714D01*
X139301190Y-97155714D01*
X139396428Y-97203333D01*
X76866904Y-119451428D02*
X77628809Y-119451428D01*
X77247857Y-119832380D02*
X77247857Y-119070476D01*
X78581190Y-118832380D02*
X78105000Y-118832380D01*
X78057380Y-119308571D01*
X78105000Y-119260952D01*
X78200238Y-119213333D01*
X78438333Y-119213333D01*
X78533571Y-119260952D01*
X78581190Y-119308571D01*
X78628809Y-119403809D01*
X78628809Y-119641904D01*
X78581190Y-119737142D01*
X78533571Y-119784761D01*
X78438333Y-119832380D01*
X78200238Y-119832380D01*
X78105000Y-119784761D01*
X78057380Y-119737142D01*
X78962142Y-119165714D02*
X79200238Y-119832380D01*
X79438333Y-119165714D01*
X78001904Y-96972380D02*
X78001904Y-95972380D01*
X78240000Y-95972380D01*
X78382857Y-96020000D01*
X78478095Y-96115238D01*
X78525714Y-96210476D01*
X78573333Y-96400952D01*
X78573333Y-96543809D01*
X78525714Y-96734285D01*
X78478095Y-96829523D01*
X78382857Y-96924761D01*
X78240000Y-96972380D01*
X78001904Y-96972380D01*
X79430476Y-95972380D02*
X79240000Y-95972380D01*
X79144761Y-96020000D01*
X79097142Y-96067619D01*
X79001904Y-96210476D01*
X78954285Y-96400952D01*
X78954285Y-96781904D01*
X79001904Y-96877142D01*
X79049523Y-96924761D01*
X79144761Y-96972380D01*
X79335238Y-96972380D01*
X79430476Y-96924761D01*
X79478095Y-96877142D01*
X79525714Y-96781904D01*
X79525714Y-96543809D01*
X79478095Y-96448571D01*
X79430476Y-96400952D01*
X79335238Y-96353333D01*
X79144761Y-96353333D01*
X79049523Y-96400952D01*
X79001904Y-96448571D01*
X78954285Y-96543809D01*
X85915714Y-106751428D02*
X86677619Y-106751428D01*
X86296666Y-107132380D02*
X86296666Y-106370476D01*
X87677619Y-107132380D02*
X87106190Y-107132380D01*
X87391904Y-107132380D02*
X87391904Y-106132380D01*
X87296666Y-106275238D01*
X87201428Y-106370476D01*
X87106190Y-106418095D01*
X88058571Y-106227619D02*
X88106190Y-106180000D01*
X88201428Y-106132380D01*
X88439523Y-106132380D01*
X88534761Y-106180000D01*
X88582380Y-106227619D01*
X88630000Y-106322857D01*
X88630000Y-106418095D01*
X88582380Y-106560952D01*
X88010952Y-107132380D01*
X88630000Y-107132380D01*
X88963333Y-106465714D02*
X89201428Y-107132380D01*
X89439523Y-106465714D01*
X85804523Y-104306666D02*
X86280714Y-104306666D01*
X85709285Y-104592380D02*
X86042619Y-103592380D01*
X86375952Y-104592380D01*
X87233095Y-104592380D02*
X86661666Y-104592380D01*
X86947380Y-104592380D02*
X86947380Y-103592380D01*
X86852142Y-103735238D01*
X86756904Y-103830476D01*
X86661666Y-103878095D01*
X87614047Y-103687619D02*
X87661666Y-103640000D01*
X87756904Y-103592380D01*
X87995000Y-103592380D01*
X88090238Y-103640000D01*
X88137857Y-103687619D01*
X88185476Y-103782857D01*
X88185476Y-103878095D01*
X88137857Y-104020952D01*
X87566428Y-104592380D01*
X88185476Y-104592380D01*
X86256904Y-96972380D02*
X86256904Y-95972380D01*
X86495000Y-95972380D01*
X86637857Y-96020000D01*
X86733095Y-96115238D01*
X86780714Y-96210476D01*
X86828333Y-96400952D01*
X86828333Y-96543809D01*
X86780714Y-96734285D01*
X86733095Y-96829523D01*
X86637857Y-96924761D01*
X86495000Y-96972380D01*
X86256904Y-96972380D01*
X87161666Y-95972380D02*
X87828333Y-95972380D01*
X87399761Y-96972380D01*
D11*
X70577142Y-84797857D02*
X70520000Y-84740714D01*
X70462857Y-84626428D01*
X70462857Y-84340714D01*
X70520000Y-84226428D01*
X70577142Y-84169285D01*
X70691428Y-84112142D01*
X70805714Y-84112142D01*
X70977142Y-84169285D01*
X71662857Y-84855000D01*
X71662857Y-84112142D01*
D10*
X86280714Y-81446666D02*
X86756904Y-81446666D01*
X86185476Y-81732380D02*
X86518809Y-80732380D01*
X86852142Y-81732380D01*
X87137857Y-80827619D02*
X87185476Y-80780000D01*
X87280714Y-80732380D01*
X87518809Y-80732380D01*
X87614047Y-80780000D01*
X87661666Y-80827619D01*
X87709285Y-80922857D01*
X87709285Y-81018095D01*
X87661666Y-81160952D01*
X87090238Y-81732380D01*
X87709285Y-81732380D01*
X85915714Y-121991428D02*
X86677619Y-121991428D01*
X86296666Y-122372380D02*
X86296666Y-121610476D01*
X87677619Y-122372380D02*
X87106190Y-122372380D01*
X87391904Y-122372380D02*
X87391904Y-121372380D01*
X87296666Y-121515238D01*
X87201428Y-121610476D01*
X87106190Y-121658095D01*
X88058571Y-121467619D02*
X88106190Y-121420000D01*
X88201428Y-121372380D01*
X88439523Y-121372380D01*
X88534761Y-121420000D01*
X88582380Y-121467619D01*
X88630000Y-121562857D01*
X88630000Y-121658095D01*
X88582380Y-121800952D01*
X88010952Y-122372380D01*
X88630000Y-122372380D01*
X88963333Y-121705714D02*
X89201428Y-122372380D01*
X89439523Y-121705714D01*
X78025714Y-86526666D02*
X78501904Y-86526666D01*
X77930476Y-86812380D02*
X78263809Y-85812380D01*
X78597142Y-86812380D01*
X78978095Y-86812380D02*
X79168571Y-86812380D01*
X79263809Y-86764761D01*
X79311428Y-86717142D01*
X79406666Y-86574285D01*
X79454285Y-86383809D01*
X79454285Y-86002857D01*
X79406666Y-85907619D01*
X79359047Y-85860000D01*
X79263809Y-85812380D01*
X79073333Y-85812380D01*
X78978095Y-85860000D01*
X78930476Y-85907619D01*
X78882857Y-86002857D01*
X78882857Y-86240952D01*
X78930476Y-86336190D01*
X78978095Y-86383809D01*
X79073333Y-86431428D01*
X79263809Y-86431428D01*
X79359047Y-86383809D01*
X79406666Y-86336190D01*
X79454285Y-86240952D01*
X78025714Y-76366666D02*
X78501904Y-76366666D01*
X77930476Y-76652380D02*
X78263809Y-75652380D01*
X78597142Y-76652380D01*
X78835238Y-75652380D02*
X79501904Y-75652380D01*
X79073333Y-76652380D01*
X78001904Y-89352380D02*
X78001904Y-88352380D01*
X78240000Y-88352380D01*
X78382857Y-88400000D01*
X78478095Y-88495238D01*
X78525714Y-88590476D01*
X78573333Y-88780952D01*
X78573333Y-88923809D01*
X78525714Y-89114285D01*
X78478095Y-89209523D01*
X78382857Y-89304761D01*
X78240000Y-89352380D01*
X78001904Y-89352380D01*
X79192380Y-88352380D02*
X79287619Y-88352380D01*
X79382857Y-88400000D01*
X79430476Y-88447619D01*
X79478095Y-88542857D01*
X79525714Y-88733333D01*
X79525714Y-88971428D01*
X79478095Y-89161904D01*
X79430476Y-89257142D01*
X79382857Y-89304761D01*
X79287619Y-89352380D01*
X79192380Y-89352380D01*
X79097142Y-89304761D01*
X79049523Y-89257142D01*
X79001904Y-89161904D01*
X78954285Y-88971428D01*
X78954285Y-88733333D01*
X79001904Y-88542857D01*
X79049523Y-88447619D01*
X79097142Y-88400000D01*
X79192380Y-88352380D01*
X78025714Y-83986666D02*
X78501904Y-83986666D01*
X77930476Y-84272380D02*
X78263809Y-83272380D01*
X78597142Y-84272380D01*
X79454285Y-84272380D02*
X78882857Y-84272380D01*
X79168571Y-84272380D02*
X79168571Y-83272380D01*
X79073333Y-83415238D01*
X78978095Y-83510476D01*
X78882857Y-83558095D01*
X76866904Y-109291428D02*
X77628809Y-109291428D01*
X78581190Y-108672380D02*
X78105000Y-108672380D01*
X78057380Y-109148571D01*
X78105000Y-109100952D01*
X78200238Y-109053333D01*
X78438333Y-109053333D01*
X78533571Y-109100952D01*
X78581190Y-109148571D01*
X78628809Y-109243809D01*
X78628809Y-109481904D01*
X78581190Y-109577142D01*
X78533571Y-109624761D01*
X78438333Y-109672380D01*
X78200238Y-109672380D01*
X78105000Y-109624761D01*
X78057380Y-109577142D01*
X78962142Y-109005714D02*
X79200238Y-109672380D01*
X79438333Y-109005714D01*
X86256904Y-94432380D02*
X86256904Y-93432380D01*
X86495000Y-93432380D01*
X86637857Y-93480000D01*
X86733095Y-93575238D01*
X86780714Y-93670476D01*
X86828333Y-93860952D01*
X86828333Y-94003809D01*
X86780714Y-94194285D01*
X86733095Y-94289523D01*
X86637857Y-94384761D01*
X86495000Y-94432380D01*
X86256904Y-94432380D01*
X87733095Y-93432380D02*
X87256904Y-93432380D01*
X87209285Y-93908571D01*
X87256904Y-93860952D01*
X87352142Y-93813333D01*
X87590238Y-93813333D01*
X87685476Y-93860952D01*
X87733095Y-93908571D01*
X87780714Y-94003809D01*
X87780714Y-94241904D01*
X87733095Y-94337142D01*
X87685476Y-94384761D01*
X87590238Y-94432380D01*
X87352142Y-94432380D01*
X87256904Y-94384761D01*
X87209285Y-94337142D01*
X86280714Y-78906666D02*
X86756904Y-78906666D01*
X86185476Y-79192380D02*
X86518809Y-78192380D01*
X86852142Y-79192380D01*
X87614047Y-78525714D02*
X87614047Y-79192380D01*
X87375952Y-78144761D02*
X87137857Y-78859047D01*
X87756904Y-78859047D01*
X73461904Y-102052380D02*
X73128571Y-101576190D01*
X72890476Y-102052380D02*
X72890476Y-101052380D01*
X73271428Y-101052380D01*
X73366666Y-101100000D01*
X73414285Y-101147619D01*
X73461904Y-101242857D01*
X73461904Y-101385714D01*
X73414285Y-101480952D01*
X73366666Y-101528571D01*
X73271428Y-101576190D01*
X72890476Y-101576190D01*
X74080952Y-101052380D02*
X74271428Y-101052380D01*
X74366666Y-101100000D01*
X74461904Y-101195238D01*
X74509523Y-101385714D01*
X74509523Y-101719047D01*
X74461904Y-101909523D01*
X74366666Y-102004761D01*
X74271428Y-102052380D01*
X74080952Y-102052380D01*
X73985714Y-102004761D01*
X73890476Y-101909523D01*
X73842857Y-101719047D01*
X73842857Y-101385714D01*
X73890476Y-101195238D01*
X73985714Y-101100000D01*
X74080952Y-101052380D01*
X74938095Y-102052380D02*
X74938095Y-101052380D01*
X75271428Y-101766666D01*
X75604761Y-101052380D01*
X75604761Y-102052380D01*
X76652380Y-102052380D02*
X76319047Y-101576190D01*
X76080952Y-102052380D02*
X76080952Y-101052380D01*
X76461904Y-101052380D01*
X76557142Y-101100000D01*
X76604761Y-101147619D01*
X76652380Y-101242857D01*
X76652380Y-101385714D01*
X76604761Y-101480952D01*
X76557142Y-101528571D01*
X76461904Y-101576190D01*
X76080952Y-101576190D01*
X77080952Y-102052380D02*
X77080952Y-101052380D01*
X77319047Y-101052380D01*
X77461904Y-101100000D01*
X77557142Y-101195238D01*
X77604761Y-101290476D01*
X77652380Y-101480952D01*
X77652380Y-101623809D01*
X77604761Y-101814285D01*
X77557142Y-101909523D01*
X77461904Y-102004761D01*
X77319047Y-102052380D01*
X77080952Y-102052380D01*
X78604761Y-102052380D02*
X78033333Y-102052380D01*
X78319047Y-102052380D02*
X78319047Y-101052380D01*
X78223809Y-101195238D01*
X78128571Y-101290476D01*
X78033333Y-101338095D01*
X79509523Y-101052380D02*
X79033333Y-101052380D01*
X78985714Y-101528571D01*
X79033333Y-101480952D01*
X79128571Y-101433333D01*
X79366666Y-101433333D01*
X79461904Y-101480952D01*
X79509523Y-101528571D01*
X79557142Y-101623809D01*
X79557142Y-101861904D01*
X79509523Y-101957142D01*
X79461904Y-102004761D01*
X79366666Y-102052380D01*
X79128571Y-102052380D01*
X79033333Y-102004761D01*
X78985714Y-101957142D01*
X76866904Y-116911428D02*
X77628809Y-116911428D01*
X77247857Y-117292380D02*
X77247857Y-116530476D01*
X78581190Y-116292380D02*
X78105000Y-116292380D01*
X78057380Y-116768571D01*
X78105000Y-116720952D01*
X78200238Y-116673333D01*
X78438333Y-116673333D01*
X78533571Y-116720952D01*
X78581190Y-116768571D01*
X78628809Y-116863809D01*
X78628809Y-117101904D01*
X78581190Y-117197142D01*
X78533571Y-117244761D01*
X78438333Y-117292380D01*
X78200238Y-117292380D01*
X78105000Y-117244761D01*
X78057380Y-117197142D01*
X78962142Y-116625714D02*
X79200238Y-117292380D01*
X79438333Y-116625714D01*
X78025714Y-81446666D02*
X78501904Y-81446666D01*
X77930476Y-81732380D02*
X78263809Y-80732380D01*
X78597142Y-81732380D01*
X78835238Y-80732380D02*
X79454285Y-80732380D01*
X79120952Y-81113333D01*
X79263809Y-81113333D01*
X79359047Y-81160952D01*
X79406666Y-81208571D01*
X79454285Y-81303809D01*
X79454285Y-81541904D01*
X79406666Y-81637142D01*
X79359047Y-81684761D01*
X79263809Y-81732380D01*
X78978095Y-81732380D01*
X78882857Y-81684761D01*
X78835238Y-81637142D01*
X86352142Y-113800000D02*
X86256904Y-113752380D01*
X86114047Y-113752380D01*
X85971190Y-113800000D01*
X85875952Y-113895238D01*
X85828333Y-113990476D01*
X85780714Y-114180952D01*
X85780714Y-114323809D01*
X85828333Y-114514285D01*
X85875952Y-114609523D01*
X85971190Y-114704761D01*
X86114047Y-114752380D01*
X86209285Y-114752380D01*
X86352142Y-114704761D01*
X86399761Y-114657142D01*
X86399761Y-114323809D01*
X86209285Y-114323809D01*
X86828333Y-114085714D02*
X86828333Y-114752380D01*
X86828333Y-114180952D02*
X86875952Y-114133333D01*
X86971190Y-114085714D01*
X87114047Y-114085714D01*
X87209285Y-114133333D01*
X87256904Y-114228571D01*
X87256904Y-114752380D01*
X88161666Y-114752380D02*
X88161666Y-113752380D01*
X88161666Y-114704761D02*
X88066428Y-114752380D01*
X87875952Y-114752380D01*
X87780714Y-114704761D01*
X87733095Y-114657142D01*
X87685476Y-114561904D01*
X87685476Y-114276190D01*
X87733095Y-114180952D01*
X87780714Y-114133333D01*
X87875952Y-114085714D01*
X88066428Y-114085714D01*
X88161666Y-114133333D01*
X85661666Y-109291428D02*
X85709285Y-109243809D01*
X85804523Y-109196190D01*
X85995000Y-109291428D01*
X86090238Y-109243809D01*
X86137857Y-109196190D01*
X86423571Y-108672380D02*
X86661666Y-109672380D01*
X86852142Y-108958095D01*
X87042619Y-109672380D01*
X87280714Y-108672380D01*
X88233095Y-109672380D02*
X87899761Y-109196190D01*
X87661666Y-109672380D02*
X87661666Y-108672380D01*
X88042619Y-108672380D01*
X88137857Y-108720000D01*
X88185476Y-108767619D01*
X88233095Y-108862857D01*
X88233095Y-109005714D01*
X88185476Y-109100952D01*
X88137857Y-109148571D01*
X88042619Y-109196190D01*
X87661666Y-109196190D01*
X86280714Y-83986666D02*
X86756904Y-83986666D01*
X86185476Y-84272380D02*
X86518809Y-83272380D01*
X86852142Y-84272380D01*
X87375952Y-83272380D02*
X87471190Y-83272380D01*
X87566428Y-83320000D01*
X87614047Y-83367619D01*
X87661666Y-83462857D01*
X87709285Y-83653333D01*
X87709285Y-83891428D01*
X87661666Y-84081904D01*
X87614047Y-84177142D01*
X87566428Y-84224761D01*
X87471190Y-84272380D01*
X87375952Y-84272380D01*
X87280714Y-84224761D01*
X87233095Y-84177142D01*
X87185476Y-84081904D01*
X87137857Y-83891428D01*
X87137857Y-83653333D01*
X87185476Y-83462857D01*
X87233095Y-83367619D01*
X87280714Y-83320000D01*
X87375952Y-83272380D01*
X85804523Y-99226666D02*
X86280714Y-99226666D01*
X85709285Y-99512380D02*
X86042619Y-98512380D01*
X86375952Y-99512380D01*
X87233095Y-99512380D02*
X86661666Y-99512380D01*
X86947380Y-99512380D02*
X86947380Y-98512380D01*
X86852142Y-98655238D01*
X86756904Y-98750476D01*
X86661666Y-98798095D01*
X87852142Y-98512380D02*
X87947380Y-98512380D01*
X88042619Y-98560000D01*
X88090238Y-98607619D01*
X88137857Y-98702857D01*
X88185476Y-98893333D01*
X88185476Y-99131428D01*
X88137857Y-99321904D01*
X88090238Y-99417142D01*
X88042619Y-99464761D01*
X87947380Y-99512380D01*
X87852142Y-99512380D01*
X87756904Y-99464761D01*
X87709285Y-99417142D01*
X87661666Y-99321904D01*
X87614047Y-99131428D01*
X87614047Y-98893333D01*
X87661666Y-98702857D01*
X87709285Y-98607619D01*
X87756904Y-98560000D01*
X87852142Y-98512380D01*
X76866904Y-121991428D02*
X77628809Y-121991428D01*
X78581190Y-121372380D02*
X78105000Y-121372380D01*
X78057380Y-121848571D01*
X78105000Y-121800952D01*
X78200238Y-121753333D01*
X78438333Y-121753333D01*
X78533571Y-121800952D01*
X78581190Y-121848571D01*
X78628809Y-121943809D01*
X78628809Y-122181904D01*
X78581190Y-122277142D01*
X78533571Y-122324761D01*
X78438333Y-122372380D01*
X78200238Y-122372380D01*
X78105000Y-122324761D01*
X78057380Y-122277142D01*
X78962142Y-121705714D02*
X79200238Y-122372380D01*
X79438333Y-121705714D01*
X86256904Y-91892380D02*
X86256904Y-90892380D01*
X86495000Y-90892380D01*
X86637857Y-90940000D01*
X86733095Y-91035238D01*
X86780714Y-91130476D01*
X86828333Y-91320952D01*
X86828333Y-91463809D01*
X86780714Y-91654285D01*
X86733095Y-91749523D01*
X86637857Y-91844761D01*
X86495000Y-91892380D01*
X86256904Y-91892380D01*
X87161666Y-90892380D02*
X87780714Y-90892380D01*
X87447380Y-91273333D01*
X87590238Y-91273333D01*
X87685476Y-91320952D01*
X87733095Y-91368571D01*
X87780714Y-91463809D01*
X87780714Y-91701904D01*
X87733095Y-91797142D01*
X87685476Y-91844761D01*
X87590238Y-91892380D01*
X87304523Y-91892380D01*
X87209285Y-91844761D01*
X87161666Y-91797142D01*
X86280714Y-86526666D02*
X86756904Y-86526666D01*
X86185476Y-86812380D02*
X86518809Y-85812380D01*
X86852142Y-86812380D01*
X87328333Y-86240952D02*
X87233095Y-86193333D01*
X87185476Y-86145714D01*
X87137857Y-86050476D01*
X87137857Y-86002857D01*
X87185476Y-85907619D01*
X87233095Y-85860000D01*
X87328333Y-85812380D01*
X87518809Y-85812380D01*
X87614047Y-85860000D01*
X87661666Y-85907619D01*
X87709285Y-86002857D01*
X87709285Y-86050476D01*
X87661666Y-86145714D01*
X87614047Y-86193333D01*
X87518809Y-86240952D01*
X87328333Y-86240952D01*
X87233095Y-86288571D01*
X87185476Y-86336190D01*
X87137857Y-86431428D01*
X87137857Y-86621904D01*
X87185476Y-86717142D01*
X87233095Y-86764761D01*
X87328333Y-86812380D01*
X87518809Y-86812380D01*
X87614047Y-86764761D01*
X87661666Y-86717142D01*
X87709285Y-86621904D01*
X87709285Y-86431428D01*
X87661666Y-86336190D01*
X87614047Y-86288571D01*
X87518809Y-86240952D01*
X78001904Y-91892380D02*
X78001904Y-90892380D01*
X78240000Y-90892380D01*
X78382857Y-90940000D01*
X78478095Y-91035238D01*
X78525714Y-91130476D01*
X78573333Y-91320952D01*
X78573333Y-91463809D01*
X78525714Y-91654285D01*
X78478095Y-91749523D01*
X78382857Y-91844761D01*
X78240000Y-91892380D01*
X78001904Y-91892380D01*
X78954285Y-90987619D02*
X79001904Y-90940000D01*
X79097142Y-90892380D01*
X79335238Y-90892380D01*
X79430476Y-90940000D01*
X79478095Y-90987619D01*
X79525714Y-91082857D01*
X79525714Y-91178095D01*
X79478095Y-91320952D01*
X78906666Y-91892380D01*
X79525714Y-91892380D01*
X76866904Y-111831428D02*
X77628809Y-111831428D01*
X77247857Y-112212380D02*
X77247857Y-111450476D01*
X78581190Y-111212380D02*
X78105000Y-111212380D01*
X78057380Y-111688571D01*
X78105000Y-111640952D01*
X78200238Y-111593333D01*
X78438333Y-111593333D01*
X78533571Y-111640952D01*
X78581190Y-111688571D01*
X78628809Y-111783809D01*
X78628809Y-112021904D01*
X78581190Y-112117142D01*
X78533571Y-112164761D01*
X78438333Y-112212380D01*
X78200238Y-112212380D01*
X78105000Y-112164761D01*
X78057380Y-112117142D01*
X78962142Y-111545714D02*
X79200238Y-112212380D01*
X79438333Y-111545714D01*
X93150000Y-114782142D02*
X93102380Y-114829761D01*
X92959523Y-114877380D01*
X92864285Y-114877380D01*
X92721428Y-114829761D01*
X92626190Y-114734523D01*
X92578571Y-114639285D01*
X92530952Y-114448809D01*
X92530952Y-114305952D01*
X92578571Y-114115476D01*
X92626190Y-114020238D01*
X92721428Y-113925000D01*
X92864285Y-113877380D01*
X92959523Y-113877380D01*
X93102380Y-113925000D01*
X93150000Y-113972619D01*
X93721428Y-114877380D02*
X93626190Y-114829761D01*
X93578571Y-114734523D01*
X93578571Y-113877380D01*
X94245238Y-114877380D02*
X94150000Y-114829761D01*
X94102380Y-114782142D01*
X94054761Y-114686904D01*
X94054761Y-114401190D01*
X94102380Y-114305952D01*
X94150000Y-114258333D01*
X94245238Y-114210714D01*
X94388095Y-114210714D01*
X94483333Y-114258333D01*
X94530952Y-114305952D01*
X94578571Y-114401190D01*
X94578571Y-114686904D01*
X94530952Y-114782142D01*
X94483333Y-114829761D01*
X94388095Y-114877380D01*
X94245238Y-114877380D01*
X94959523Y-114829761D02*
X95054761Y-114877380D01*
X95245238Y-114877380D01*
X95340476Y-114829761D01*
X95388095Y-114734523D01*
X95388095Y-114686904D01*
X95340476Y-114591666D01*
X95245238Y-114544047D01*
X95102380Y-114544047D01*
X95007142Y-114496428D01*
X94959523Y-114401190D01*
X94959523Y-114353571D01*
X95007142Y-114258333D01*
X95102380Y-114210714D01*
X95245238Y-114210714D01*
X95340476Y-114258333D01*
X96197619Y-114829761D02*
X96102380Y-114877380D01*
X95911904Y-114877380D01*
X95816666Y-114829761D01*
X95769047Y-114734523D01*
X95769047Y-114353571D01*
X95816666Y-114258333D01*
X95911904Y-114210714D01*
X96102380Y-114210714D01*
X96197619Y-114258333D01*
X96245238Y-114353571D01*
X96245238Y-114448809D01*
X95769047Y-114544047D01*
X97435714Y-114210714D02*
X97435714Y-115067857D01*
X97388095Y-115163095D01*
X97292857Y-115210714D01*
X97245238Y-115210714D01*
X97435714Y-113877380D02*
X97388095Y-113925000D01*
X97435714Y-113972619D01*
X97483333Y-113925000D01*
X97435714Y-113877380D01*
X97435714Y-113972619D01*
X98340476Y-114210714D02*
X98340476Y-114877380D01*
X97911904Y-114210714D02*
X97911904Y-114734523D01*
X97959523Y-114829761D01*
X98054761Y-114877380D01*
X98197619Y-114877380D01*
X98292857Y-114829761D01*
X98340476Y-114782142D01*
X98816666Y-114877380D02*
X98816666Y-114210714D01*
X98816666Y-114305952D02*
X98864285Y-114258333D01*
X98959523Y-114210714D01*
X99102380Y-114210714D01*
X99197619Y-114258333D01*
X99245238Y-114353571D01*
X99245238Y-114877380D01*
X99245238Y-114353571D02*
X99292857Y-114258333D01*
X99388095Y-114210714D01*
X99530952Y-114210714D01*
X99626190Y-114258333D01*
X99673809Y-114353571D01*
X99673809Y-114877380D01*
X100150000Y-114210714D02*
X100150000Y-115210714D01*
X100150000Y-114258333D02*
X100245238Y-114210714D01*
X100435714Y-114210714D01*
X100530952Y-114258333D01*
X100578571Y-114305952D01*
X100626190Y-114401190D01*
X100626190Y-114686904D01*
X100578571Y-114782142D01*
X100530952Y-114829761D01*
X100435714Y-114877380D01*
X100245238Y-114877380D01*
X100150000Y-114829761D01*
X101435714Y-114829761D02*
X101340476Y-114877380D01*
X101150000Y-114877380D01*
X101054761Y-114829761D01*
X101007142Y-114734523D01*
X101007142Y-114353571D01*
X101054761Y-114258333D01*
X101150000Y-114210714D01*
X101340476Y-114210714D01*
X101435714Y-114258333D01*
X101483333Y-114353571D01*
X101483333Y-114448809D01*
X101007142Y-114544047D01*
X101911904Y-114877380D02*
X101911904Y-114210714D01*
X101911904Y-114401190D02*
X101959523Y-114305952D01*
X102007142Y-114258333D01*
X102102380Y-114210714D01*
X102197619Y-114210714D01*
X103150000Y-114210714D02*
X103530952Y-114210714D01*
X103292857Y-113877380D02*
X103292857Y-114734523D01*
X103340476Y-114829761D01*
X103435714Y-114877380D01*
X103530952Y-114877380D01*
X104007142Y-114877380D02*
X103911904Y-114829761D01*
X103864285Y-114782142D01*
X103816666Y-114686904D01*
X103816666Y-114401190D01*
X103864285Y-114305952D01*
X103911904Y-114258333D01*
X104007142Y-114210714D01*
X104150000Y-114210714D01*
X104245238Y-114258333D01*
X104292857Y-114305952D01*
X104340476Y-114401190D01*
X104340476Y-114686904D01*
X104292857Y-114782142D01*
X104245238Y-114829761D01*
X104150000Y-114877380D01*
X104007142Y-114877380D01*
X105959523Y-114877380D02*
X105959523Y-114353571D01*
X105911904Y-114258333D01*
X105816666Y-114210714D01*
X105626190Y-114210714D01*
X105530952Y-114258333D01*
X105959523Y-114829761D02*
X105864285Y-114877380D01*
X105626190Y-114877380D01*
X105530952Y-114829761D01*
X105483333Y-114734523D01*
X105483333Y-114639285D01*
X105530952Y-114544047D01*
X105626190Y-114496428D01*
X105864285Y-114496428D01*
X105959523Y-114448809D01*
X106578571Y-114877380D02*
X106483333Y-114829761D01*
X106435714Y-114734523D01*
X106435714Y-113877380D01*
X107102380Y-114877380D02*
X107007142Y-114829761D01*
X106959523Y-114734523D01*
X106959523Y-113877380D01*
X107626190Y-114877380D02*
X107530952Y-114829761D01*
X107483333Y-114782142D01*
X107435714Y-114686904D01*
X107435714Y-114401190D01*
X107483333Y-114305952D01*
X107530952Y-114258333D01*
X107626190Y-114210714D01*
X107769047Y-114210714D01*
X107864285Y-114258333D01*
X107911904Y-114305952D01*
X107959523Y-114401190D01*
X107959523Y-114686904D01*
X107911904Y-114782142D01*
X107864285Y-114829761D01*
X107769047Y-114877380D01*
X107626190Y-114877380D01*
X108292857Y-114210714D02*
X108483333Y-114877380D01*
X108673809Y-114401190D01*
X108864285Y-114877380D01*
X109054761Y-114210714D01*
X110102380Y-114210714D02*
X110292857Y-114877380D01*
X110483333Y-114401190D01*
X110673809Y-114877380D01*
X110864285Y-114210714D01*
X111245238Y-114877380D02*
X111245238Y-114210714D01*
X111245238Y-114401190D02*
X111292857Y-114305952D01*
X111340476Y-114258333D01*
X111435714Y-114210714D01*
X111530952Y-114210714D01*
X111864285Y-114877380D02*
X111864285Y-114210714D01*
X111864285Y-113877380D02*
X111816666Y-113925000D01*
X111864285Y-113972619D01*
X111911904Y-113925000D01*
X111864285Y-113877380D01*
X111864285Y-113972619D01*
X112197619Y-114210714D02*
X112578571Y-114210714D01*
X112340476Y-113877380D02*
X112340476Y-114734523D01*
X112388095Y-114829761D01*
X112483333Y-114877380D01*
X112578571Y-114877380D01*
X113292857Y-114829761D02*
X113197619Y-114877380D01*
X113007142Y-114877380D01*
X112911904Y-114829761D01*
X112864285Y-114734523D01*
X112864285Y-114353571D01*
X112911904Y-114258333D01*
X113007142Y-114210714D01*
X113197619Y-114210714D01*
X113292857Y-114258333D01*
X113340476Y-114353571D01*
X113340476Y-114448809D01*
X112864285Y-114544047D01*
X114959523Y-114877380D02*
X114959523Y-114353571D01*
X114911904Y-114258333D01*
X114816666Y-114210714D01*
X114626190Y-114210714D01*
X114530952Y-114258333D01*
X114959523Y-114829761D02*
X114864285Y-114877380D01*
X114626190Y-114877380D01*
X114530952Y-114829761D01*
X114483333Y-114734523D01*
X114483333Y-114639285D01*
X114530952Y-114544047D01*
X114626190Y-114496428D01*
X114864285Y-114496428D01*
X114959523Y-114448809D01*
X115864285Y-114829761D02*
X115769047Y-114877380D01*
X115578571Y-114877380D01*
X115483333Y-114829761D01*
X115435714Y-114782142D01*
X115388095Y-114686904D01*
X115388095Y-114401190D01*
X115435714Y-114305952D01*
X115483333Y-114258333D01*
X115578571Y-114210714D01*
X115769047Y-114210714D01*
X115864285Y-114258333D01*
X116721428Y-114829761D02*
X116626190Y-114877380D01*
X116435714Y-114877380D01*
X116340476Y-114829761D01*
X116292857Y-114782142D01*
X116245238Y-114686904D01*
X116245238Y-114401190D01*
X116292857Y-114305952D01*
X116340476Y-114258333D01*
X116435714Y-114210714D01*
X116626190Y-114210714D01*
X116721428Y-114258333D01*
X117530952Y-114829761D02*
X117435714Y-114877380D01*
X117245238Y-114877380D01*
X117150000Y-114829761D01*
X117102380Y-114734523D01*
X117102380Y-114353571D01*
X117150000Y-114258333D01*
X117245238Y-114210714D01*
X117435714Y-114210714D01*
X117530952Y-114258333D01*
X117578571Y-114353571D01*
X117578571Y-114448809D01*
X117102380Y-114544047D01*
X117959523Y-114829761D02*
X118054761Y-114877380D01*
X118245238Y-114877380D01*
X118340476Y-114829761D01*
X118388095Y-114734523D01*
X118388095Y-114686904D01*
X118340476Y-114591666D01*
X118245238Y-114544047D01*
X118102380Y-114544047D01*
X118007142Y-114496428D01*
X117959523Y-114401190D01*
X117959523Y-114353571D01*
X118007142Y-114258333D01*
X118102380Y-114210714D01*
X118245238Y-114210714D01*
X118340476Y-114258333D01*
X118769047Y-114829761D02*
X118864285Y-114877380D01*
X119054761Y-114877380D01*
X119150000Y-114829761D01*
X119197619Y-114734523D01*
X119197619Y-114686904D01*
X119150000Y-114591666D01*
X119054761Y-114544047D01*
X118911904Y-114544047D01*
X118816666Y-114496428D01*
X118769047Y-114401190D01*
X118769047Y-114353571D01*
X118816666Y-114258333D01*
X118911904Y-114210714D01*
X119054761Y-114210714D01*
X119150000Y-114258333D01*
X120245238Y-114210714D02*
X120626190Y-114210714D01*
X120388095Y-113877380D02*
X120388095Y-114734523D01*
X120435714Y-114829761D01*
X120530952Y-114877380D01*
X120626190Y-114877380D01*
X121102380Y-114877380D02*
X121007142Y-114829761D01*
X120959523Y-114782142D01*
X120911904Y-114686904D01*
X120911904Y-114401190D01*
X120959523Y-114305952D01*
X121007142Y-114258333D01*
X121102380Y-114210714D01*
X121245238Y-114210714D01*
X121340476Y-114258333D01*
X121388095Y-114305952D01*
X121435714Y-114401190D01*
X121435714Y-114686904D01*
X121388095Y-114782142D01*
X121340476Y-114829761D01*
X121245238Y-114877380D01*
X121102380Y-114877380D01*
X122483333Y-114210714D02*
X122864285Y-114210714D01*
X122626190Y-113877380D02*
X122626190Y-114734523D01*
X122673809Y-114829761D01*
X122769047Y-114877380D01*
X122864285Y-114877380D01*
X123197619Y-114877380D02*
X123197619Y-113877380D01*
X123626190Y-114877380D02*
X123626190Y-114353571D01*
X123578571Y-114258333D01*
X123483333Y-114210714D01*
X123340476Y-114210714D01*
X123245238Y-114258333D01*
X123197619Y-114305952D01*
X124483333Y-114829761D02*
X124388095Y-114877380D01*
X124197619Y-114877380D01*
X124102380Y-114829761D01*
X124054761Y-114734523D01*
X124054761Y-114353571D01*
X124102380Y-114258333D01*
X124197619Y-114210714D01*
X124388095Y-114210714D01*
X124483333Y-114258333D01*
X124530952Y-114353571D01*
X124530952Y-114448809D01*
X124054761Y-114544047D01*
X126150000Y-114829761D02*
X126054761Y-114877380D01*
X125864285Y-114877380D01*
X125769047Y-114829761D01*
X125721428Y-114782142D01*
X125673809Y-114686904D01*
X125673809Y-114401190D01*
X125721428Y-114305952D01*
X125769047Y-114258333D01*
X125864285Y-114210714D01*
X126054761Y-114210714D01*
X126150000Y-114258333D01*
X127007142Y-114877380D02*
X127007142Y-114353571D01*
X126959523Y-114258333D01*
X126864285Y-114210714D01*
X126673809Y-114210714D01*
X126578571Y-114258333D01*
X127007142Y-114829761D02*
X126911904Y-114877380D01*
X126673809Y-114877380D01*
X126578571Y-114829761D01*
X126530952Y-114734523D01*
X126530952Y-114639285D01*
X126578571Y-114544047D01*
X126673809Y-114496428D01*
X126911904Y-114496428D01*
X127007142Y-114448809D01*
X127483333Y-114877380D02*
X127483333Y-114210714D01*
X127483333Y-114401190D02*
X127530952Y-114305952D01*
X127578571Y-114258333D01*
X127673809Y-114210714D01*
X127769047Y-114210714D01*
X127959523Y-114210714D02*
X128340476Y-114210714D01*
X128102380Y-113877380D02*
X128102380Y-114734523D01*
X128150000Y-114829761D01*
X128245238Y-114877380D01*
X128340476Y-114877380D01*
X129388095Y-114829761D02*
X129483333Y-114877380D01*
X129673809Y-114877380D01*
X129769047Y-114829761D01*
X129816666Y-114734523D01*
X129816666Y-114686904D01*
X129769047Y-114591666D01*
X129673809Y-114544047D01*
X129530952Y-114544047D01*
X129435714Y-114496428D01*
X129388095Y-114401190D01*
X129388095Y-114353571D01*
X129435714Y-114258333D01*
X129530952Y-114210714D01*
X129673809Y-114210714D01*
X129769047Y-114258333D01*
X130388095Y-114877380D02*
X130292857Y-114829761D01*
X130245238Y-114734523D01*
X130245238Y-113877380D01*
X130911904Y-114877380D02*
X130816666Y-114829761D01*
X130769047Y-114782142D01*
X130721428Y-114686904D01*
X130721428Y-114401190D01*
X130769047Y-114305952D01*
X130816666Y-114258333D01*
X130911904Y-114210714D01*
X131054761Y-114210714D01*
X131150000Y-114258333D01*
X131197619Y-114305952D01*
X131245238Y-114401190D01*
X131245238Y-114686904D01*
X131197619Y-114782142D01*
X131150000Y-114829761D01*
X131054761Y-114877380D01*
X130911904Y-114877380D01*
X131530952Y-114210714D02*
X131911904Y-114210714D01*
X131673809Y-113877380D02*
X131673809Y-114734523D01*
X131721428Y-114829761D01*
X131816666Y-114877380D01*
X131911904Y-114877380D01*
X132530952Y-115258333D02*
X132483333Y-115210714D01*
X132388095Y-115067857D01*
X132340476Y-114972619D01*
X132292857Y-114829761D01*
X132245238Y-114591666D01*
X132245238Y-114401190D01*
X132292857Y-114163095D01*
X132340476Y-114020238D01*
X132388095Y-113925000D01*
X132483333Y-113782142D01*
X132530952Y-113734523D01*
X132864285Y-114829761D02*
X132959523Y-114877380D01*
X133150000Y-114877380D01*
X133245238Y-114829761D01*
X133292857Y-114734523D01*
X133292857Y-114686904D01*
X133245238Y-114591666D01*
X133150000Y-114544047D01*
X133007142Y-114544047D01*
X132911904Y-114496428D01*
X132864285Y-114401190D01*
X132864285Y-114353571D01*
X132911904Y-114258333D01*
X133007142Y-114210714D01*
X133150000Y-114210714D01*
X133245238Y-114258333D01*
X133626190Y-115258333D02*
X133673809Y-115210714D01*
X133769047Y-115067857D01*
X133816666Y-114972619D01*
X133864285Y-114829761D01*
X133911904Y-114591666D01*
X133911904Y-114401190D01*
X133864285Y-114163095D01*
X133816666Y-114020238D01*
X133769047Y-113925000D01*
X133673809Y-113782142D01*
X133626190Y-113734523D01*
X135578571Y-114877380D02*
X135578571Y-114353571D01*
X135530952Y-114258333D01*
X135435714Y-114210714D01*
X135245238Y-114210714D01*
X135150000Y-114258333D01*
X135578571Y-114829761D02*
X135483333Y-114877380D01*
X135245238Y-114877380D01*
X135150000Y-114829761D01*
X135102380Y-114734523D01*
X135102380Y-114639285D01*
X135150000Y-114544047D01*
X135245238Y-114496428D01*
X135483333Y-114496428D01*
X135578571Y-114448809D01*
X135911904Y-114210714D02*
X136292857Y-114210714D01*
X136054761Y-114877380D02*
X136054761Y-114020238D01*
X136102380Y-113925000D01*
X136197619Y-113877380D01*
X136292857Y-113877380D01*
X136483333Y-114210714D02*
X136864285Y-114210714D01*
X136626190Y-113877380D02*
X136626190Y-114734523D01*
X136673809Y-114829761D01*
X136769047Y-114877380D01*
X136864285Y-114877380D01*
X137578571Y-114829761D02*
X137483333Y-114877380D01*
X137292857Y-114877380D01*
X137197619Y-114829761D01*
X137150000Y-114734523D01*
X137150000Y-114353571D01*
X137197619Y-114258333D01*
X137292857Y-114210714D01*
X137483333Y-114210714D01*
X137578571Y-114258333D01*
X137626190Y-114353571D01*
X137626190Y-114448809D01*
X137150000Y-114544047D01*
X138054761Y-114877380D02*
X138054761Y-114210714D01*
X138054761Y-114401190D02*
X138102380Y-114305952D01*
X138150000Y-114258333D01*
X138245238Y-114210714D01*
X138340476Y-114210714D01*
X139292857Y-114210714D02*
X139673809Y-114210714D01*
X139435714Y-113877380D02*
X139435714Y-114734523D01*
X139483333Y-114829761D01*
X139578571Y-114877380D01*
X139673809Y-114877380D01*
X140007142Y-114877380D02*
X140007142Y-113877380D01*
X140435714Y-114877380D02*
X140435714Y-114353571D01*
X140388095Y-114258333D01*
X140292857Y-114210714D01*
X140150000Y-114210714D01*
X140054761Y-114258333D01*
X140007142Y-114305952D01*
X140911904Y-114877380D02*
X140911904Y-114210714D01*
X140911904Y-113877380D02*
X140864285Y-113925000D01*
X140911904Y-113972619D01*
X140959523Y-113925000D01*
X140911904Y-113877380D01*
X140911904Y-113972619D01*
X141340476Y-114829761D02*
X141435714Y-114877380D01*
X141626190Y-114877380D01*
X141721428Y-114829761D01*
X141769047Y-114734523D01*
X141769047Y-114686904D01*
X141721428Y-114591666D01*
X141626190Y-114544047D01*
X141483333Y-114544047D01*
X141388095Y-114496428D01*
X141340476Y-114401190D01*
X141340476Y-114353571D01*
X141388095Y-114258333D01*
X141483333Y-114210714D01*
X141626190Y-114210714D01*
X141721428Y-114258333D01*
X142959523Y-114877380D02*
X142959523Y-113877380D01*
X142959523Y-114258333D02*
X143054761Y-114210714D01*
X143245238Y-114210714D01*
X143340476Y-114258333D01*
X143388095Y-114305952D01*
X143435714Y-114401190D01*
X143435714Y-114686904D01*
X143388095Y-114782142D01*
X143340476Y-114829761D01*
X143245238Y-114877380D01*
X143054761Y-114877380D01*
X142959523Y-114829761D01*
X144007142Y-114877380D02*
X143911904Y-114829761D01*
X143864285Y-114782142D01*
X143816666Y-114686904D01*
X143816666Y-114401190D01*
X143864285Y-114305952D01*
X143911904Y-114258333D01*
X144007142Y-114210714D01*
X144150000Y-114210714D01*
X144245238Y-114258333D01*
X144292857Y-114305952D01*
X144340476Y-114401190D01*
X144340476Y-114686904D01*
X144292857Y-114782142D01*
X144245238Y-114829761D01*
X144150000Y-114877380D01*
X144007142Y-114877380D01*
X145197619Y-114877380D02*
X145197619Y-114353571D01*
X145150000Y-114258333D01*
X145054761Y-114210714D01*
X144864285Y-114210714D01*
X144769047Y-114258333D01*
X145197619Y-114829761D02*
X145102380Y-114877380D01*
X144864285Y-114877380D01*
X144769047Y-114829761D01*
X144721428Y-114734523D01*
X144721428Y-114639285D01*
X144769047Y-114544047D01*
X144864285Y-114496428D01*
X145102380Y-114496428D01*
X145197619Y-114448809D01*
X145673809Y-114877380D02*
X145673809Y-114210714D01*
X145673809Y-114401190D02*
X145721428Y-114305952D01*
X145769047Y-114258333D01*
X145864285Y-114210714D01*
X145959523Y-114210714D01*
X146721428Y-114877380D02*
X146721428Y-113877380D01*
X146721428Y-114829761D02*
X146626190Y-114877380D01*
X146435714Y-114877380D01*
X146340476Y-114829761D01*
X146292857Y-114782142D01*
X146245238Y-114686904D01*
X146245238Y-114401190D01*
X146292857Y-114305952D01*
X146340476Y-114258333D01*
X146435714Y-114210714D01*
X146626190Y-114210714D01*
X146721428Y-114258333D01*
X147197619Y-114782142D02*
X147245238Y-114829761D01*
X147197619Y-114877380D01*
X147150000Y-114829761D01*
X147197619Y-114782142D01*
X147197619Y-114877380D01*
X94316666Y-116487380D02*
X93840476Y-116487380D01*
X93840476Y-115487380D01*
X95030952Y-116439761D02*
X94935714Y-116487380D01*
X94745238Y-116487380D01*
X94650000Y-116439761D01*
X94602380Y-116344523D01*
X94602380Y-115963571D01*
X94650000Y-115868333D01*
X94745238Y-115820714D01*
X94935714Y-115820714D01*
X95030952Y-115868333D01*
X95078571Y-115963571D01*
X95078571Y-116058809D01*
X94602380Y-116154047D01*
X95935714Y-116487380D02*
X95935714Y-115963571D01*
X95888095Y-115868333D01*
X95792857Y-115820714D01*
X95602380Y-115820714D01*
X95507142Y-115868333D01*
X95935714Y-116439761D02*
X95840476Y-116487380D01*
X95602380Y-116487380D01*
X95507142Y-116439761D01*
X95459523Y-116344523D01*
X95459523Y-116249285D01*
X95507142Y-116154047D01*
X95602380Y-116106428D01*
X95840476Y-116106428D01*
X95935714Y-116058809D01*
X96316666Y-115820714D02*
X96554761Y-116487380D01*
X96792857Y-115820714D01*
X97554761Y-116439761D02*
X97459523Y-116487380D01*
X97269047Y-116487380D01*
X97173809Y-116439761D01*
X97126190Y-116344523D01*
X97126190Y-115963571D01*
X97173809Y-115868333D01*
X97269047Y-115820714D01*
X97459523Y-115820714D01*
X97554761Y-115868333D01*
X97602380Y-115963571D01*
X97602380Y-116058809D01*
X97126190Y-116154047D01*
X98650000Y-115820714D02*
X99030952Y-115820714D01*
X98792857Y-115487380D02*
X98792857Y-116344523D01*
X98840476Y-116439761D01*
X98935714Y-116487380D01*
X99030952Y-116487380D01*
X99364285Y-116487380D02*
X99364285Y-115487380D01*
X99792857Y-116487380D02*
X99792857Y-115963571D01*
X99745238Y-115868333D01*
X99650000Y-115820714D01*
X99507142Y-115820714D01*
X99411904Y-115868333D01*
X99364285Y-115915952D01*
X100650000Y-116439761D02*
X100554761Y-116487380D01*
X100364285Y-116487380D01*
X100269047Y-116439761D01*
X100221428Y-116344523D01*
X100221428Y-115963571D01*
X100269047Y-115868333D01*
X100364285Y-115820714D01*
X100554761Y-115820714D01*
X100650000Y-115868333D01*
X100697619Y-115963571D01*
X100697619Y-116058809D01*
X100221428Y-116154047D01*
X101888095Y-115820714D02*
X101888095Y-116677857D01*
X101840476Y-116773095D01*
X101745238Y-116820714D01*
X101697619Y-116820714D01*
X101888095Y-115487380D02*
X101840476Y-115535000D01*
X101888095Y-115582619D01*
X101935714Y-115535000D01*
X101888095Y-115487380D01*
X101888095Y-115582619D01*
X102792857Y-115820714D02*
X102792857Y-116487380D01*
X102364285Y-115820714D02*
X102364285Y-116344523D01*
X102411904Y-116439761D01*
X102507142Y-116487380D01*
X102650000Y-116487380D01*
X102745238Y-116439761D01*
X102792857Y-116392142D01*
X103269047Y-116487380D02*
X103269047Y-115820714D01*
X103269047Y-115915952D02*
X103316666Y-115868333D01*
X103411904Y-115820714D01*
X103554761Y-115820714D01*
X103650000Y-115868333D01*
X103697619Y-115963571D01*
X103697619Y-116487380D01*
X103697619Y-115963571D02*
X103745238Y-115868333D01*
X103840476Y-115820714D01*
X103983333Y-115820714D01*
X104078571Y-115868333D01*
X104126190Y-115963571D01*
X104126190Y-116487380D01*
X104602380Y-115820714D02*
X104602380Y-116820714D01*
X104602380Y-115868333D02*
X104697619Y-115820714D01*
X104888095Y-115820714D01*
X104983333Y-115868333D01*
X105030952Y-115915952D01*
X105078571Y-116011190D01*
X105078571Y-116296904D01*
X105030952Y-116392142D01*
X104983333Y-116439761D01*
X104888095Y-116487380D01*
X104697619Y-116487380D01*
X104602380Y-116439761D01*
X105888095Y-116439761D02*
X105792857Y-116487380D01*
X105602380Y-116487380D01*
X105507142Y-116439761D01*
X105459523Y-116344523D01*
X105459523Y-115963571D01*
X105507142Y-115868333D01*
X105602380Y-115820714D01*
X105792857Y-115820714D01*
X105888095Y-115868333D01*
X105935714Y-115963571D01*
X105935714Y-116058809D01*
X105459523Y-116154047D01*
X106364285Y-116487380D02*
X106364285Y-115820714D01*
X106364285Y-116011190D02*
X106411904Y-115915952D01*
X106459523Y-115868333D01*
X106554761Y-115820714D01*
X106650000Y-115820714D01*
X107888095Y-116487380D02*
X107792857Y-116439761D01*
X107745238Y-116392142D01*
X107697619Y-116296904D01*
X107697619Y-116011190D01*
X107745238Y-115915952D01*
X107792857Y-115868333D01*
X107888095Y-115820714D01*
X108030952Y-115820714D01*
X108126190Y-115868333D01*
X108173809Y-115915952D01*
X108221428Y-116011190D01*
X108221428Y-116296904D01*
X108173809Y-116392142D01*
X108126190Y-116439761D01*
X108030952Y-116487380D01*
X107888095Y-116487380D01*
X108650000Y-115820714D02*
X108650000Y-116820714D01*
X108650000Y-115868333D02*
X108745238Y-115820714D01*
X108935714Y-115820714D01*
X109030952Y-115868333D01*
X109078571Y-115915952D01*
X109126190Y-116011190D01*
X109126190Y-116296904D01*
X109078571Y-116392142D01*
X109030952Y-116439761D01*
X108935714Y-116487380D01*
X108745238Y-116487380D01*
X108650000Y-116439761D01*
X109935714Y-116439761D02*
X109840476Y-116487380D01*
X109650000Y-116487380D01*
X109554761Y-116439761D01*
X109507142Y-116344523D01*
X109507142Y-115963571D01*
X109554761Y-115868333D01*
X109650000Y-115820714D01*
X109840476Y-115820714D01*
X109935714Y-115868333D01*
X109983333Y-115963571D01*
X109983333Y-116058809D01*
X109507142Y-116154047D01*
X110411904Y-115820714D02*
X110411904Y-116487380D01*
X110411904Y-115915952D02*
X110459523Y-115868333D01*
X110554761Y-115820714D01*
X110697619Y-115820714D01*
X110792857Y-115868333D01*
X110840476Y-115963571D01*
X110840476Y-116487380D01*
X112078571Y-116487380D02*
X112078571Y-115820714D01*
X112078571Y-115487380D02*
X112030952Y-115535000D01*
X112078571Y-115582619D01*
X112126190Y-115535000D01*
X112078571Y-115487380D01*
X112078571Y-115582619D01*
X112411904Y-115820714D02*
X112792857Y-115820714D01*
X112554761Y-116487380D02*
X112554761Y-115630238D01*
X112602380Y-115535000D01*
X112697619Y-115487380D01*
X112792857Y-115487380D01*
X113792857Y-115820714D02*
X114030952Y-116487380D01*
X114269047Y-115820714D02*
X114030952Y-116487380D01*
X113935714Y-116725476D01*
X113888095Y-116773095D01*
X113792857Y-116820714D01*
X114792857Y-116487380D02*
X114697619Y-116439761D01*
X114650000Y-116392142D01*
X114602380Y-116296904D01*
X114602380Y-116011190D01*
X114650000Y-115915952D01*
X114697619Y-115868333D01*
X114792857Y-115820714D01*
X114935714Y-115820714D01*
X115030952Y-115868333D01*
X115078571Y-115915952D01*
X115126190Y-116011190D01*
X115126190Y-116296904D01*
X115078571Y-116392142D01*
X115030952Y-116439761D01*
X114935714Y-116487380D01*
X114792857Y-116487380D01*
X115983333Y-115820714D02*
X115983333Y-116487380D01*
X115554761Y-115820714D02*
X115554761Y-116344523D01*
X115602380Y-116439761D01*
X115697619Y-116487380D01*
X115840476Y-116487380D01*
X115935714Y-116439761D01*
X115983333Y-116392142D01*
X117221428Y-116487380D02*
X117221428Y-115487380D01*
X117650000Y-116487380D02*
X117650000Y-115963571D01*
X117602380Y-115868333D01*
X117507142Y-115820714D01*
X117364285Y-115820714D01*
X117269047Y-115868333D01*
X117221428Y-115915952D01*
X118554761Y-116487380D02*
X118554761Y-115963571D01*
X118507142Y-115868333D01*
X118411904Y-115820714D01*
X118221428Y-115820714D01*
X118126190Y-115868333D01*
X118554761Y-116439761D02*
X118459523Y-116487380D01*
X118221428Y-116487380D01*
X118126190Y-116439761D01*
X118078571Y-116344523D01*
X118078571Y-116249285D01*
X118126190Y-116154047D01*
X118221428Y-116106428D01*
X118459523Y-116106428D01*
X118554761Y-116058809D01*
X118935714Y-115820714D02*
X119173809Y-116487380D01*
X119411904Y-115820714D01*
X120173809Y-116439761D02*
X120078571Y-116487380D01*
X119888095Y-116487380D01*
X119792857Y-116439761D01*
X119745238Y-116344523D01*
X119745238Y-115963571D01*
X119792857Y-115868333D01*
X119888095Y-115820714D01*
X120078571Y-115820714D01*
X120173809Y-115868333D01*
X120221428Y-115963571D01*
X120221428Y-116058809D01*
X119745238Y-116154047D01*
X121840476Y-116487380D02*
X121840476Y-115963571D01*
X121792857Y-115868333D01*
X121697619Y-115820714D01*
X121507142Y-115820714D01*
X121411904Y-115868333D01*
X121840476Y-116439761D02*
X121745238Y-116487380D01*
X121507142Y-116487380D01*
X121411904Y-116439761D01*
X121364285Y-116344523D01*
X121364285Y-116249285D01*
X121411904Y-116154047D01*
X121507142Y-116106428D01*
X121745238Y-116106428D01*
X121840476Y-116058809D01*
X123030952Y-116439761D02*
X123173809Y-116487380D01*
X123411904Y-116487380D01*
X123507142Y-116439761D01*
X123554761Y-116392142D01*
X123602380Y-116296904D01*
X123602380Y-116201666D01*
X123554761Y-116106428D01*
X123507142Y-116058809D01*
X123411904Y-116011190D01*
X123221428Y-115963571D01*
X123126190Y-115915952D01*
X123078571Y-115868333D01*
X123030952Y-115773095D01*
X123030952Y-115677857D01*
X123078571Y-115582619D01*
X123126190Y-115535000D01*
X123221428Y-115487380D01*
X123459523Y-115487380D01*
X123602380Y-115535000D01*
X124173809Y-116487380D02*
X124078571Y-116439761D01*
X124030952Y-116392142D01*
X123983333Y-116296904D01*
X123983333Y-116011190D01*
X124030952Y-115915952D01*
X124078571Y-115868333D01*
X124173809Y-115820714D01*
X124316666Y-115820714D01*
X124411904Y-115868333D01*
X124459523Y-115915952D01*
X124507142Y-116011190D01*
X124507142Y-116296904D01*
X124459523Y-116392142D01*
X124411904Y-116439761D01*
X124316666Y-116487380D01*
X124173809Y-116487380D01*
X124935714Y-116487380D02*
X124935714Y-115820714D01*
X124935714Y-116011190D02*
X124983333Y-115915952D01*
X125030952Y-115868333D01*
X125126190Y-115820714D01*
X125221428Y-115820714D01*
X125983333Y-116439761D02*
X125888095Y-116487380D01*
X125697619Y-116487380D01*
X125602380Y-116439761D01*
X125554761Y-116392142D01*
X125507142Y-116296904D01*
X125507142Y-116011190D01*
X125554761Y-115915952D01*
X125602380Y-115868333D01*
X125697619Y-115820714D01*
X125888095Y-115820714D01*
X125983333Y-115868333D01*
X126792857Y-116439761D02*
X126697619Y-116487380D01*
X126507142Y-116487380D01*
X126411904Y-116439761D01*
X126364285Y-116344523D01*
X126364285Y-115963571D01*
X126411904Y-115868333D01*
X126507142Y-115820714D01*
X126697619Y-115820714D01*
X126792857Y-115868333D01*
X126840476Y-115963571D01*
X126840476Y-116058809D01*
X126364285Y-116154047D01*
X127269047Y-116487380D02*
X127269047Y-115820714D01*
X127269047Y-116011190D02*
X127316666Y-115915952D01*
X127364285Y-115868333D01*
X127459523Y-115820714D01*
X127554761Y-115820714D01*
X128269047Y-116439761D02*
X128173809Y-116487380D01*
X127983333Y-116487380D01*
X127888095Y-116439761D01*
X127840476Y-116344523D01*
X127840476Y-115963571D01*
X127888095Y-115868333D01*
X127983333Y-115820714D01*
X128173809Y-115820714D01*
X128269047Y-115868333D01*
X128316666Y-115963571D01*
X128316666Y-116058809D01*
X127840476Y-116154047D01*
X128745238Y-116487380D02*
X128745238Y-115820714D01*
X128745238Y-116011190D02*
X128792857Y-115915952D01*
X128840476Y-115868333D01*
X128935714Y-115820714D01*
X129030952Y-115820714D01*
X129983333Y-115820714D02*
X130364285Y-115820714D01*
X130126190Y-115487380D02*
X130126190Y-116344523D01*
X130173809Y-116439761D01*
X130269047Y-116487380D01*
X130364285Y-116487380D01*
X130697619Y-116487380D02*
X130697619Y-115487380D01*
X131126190Y-116487380D02*
X131126190Y-115963571D01*
X131078571Y-115868333D01*
X130983333Y-115820714D01*
X130840476Y-115820714D01*
X130745238Y-115868333D01*
X130697619Y-115915952D01*
X132030952Y-116487380D02*
X132030952Y-115963571D01*
X131983333Y-115868333D01*
X131888095Y-115820714D01*
X131697619Y-115820714D01*
X131602380Y-115868333D01*
X132030952Y-116439761D02*
X131935714Y-116487380D01*
X131697619Y-116487380D01*
X131602380Y-116439761D01*
X131554761Y-116344523D01*
X131554761Y-116249285D01*
X131602380Y-116154047D01*
X131697619Y-116106428D01*
X131935714Y-116106428D01*
X132030952Y-116058809D01*
X132364285Y-115820714D02*
X132745238Y-115820714D01*
X132507142Y-115487380D02*
X132507142Y-116344523D01*
X132554761Y-116439761D01*
X132649999Y-116487380D01*
X132745238Y-116487380D01*
X133840476Y-116487380D02*
X133840476Y-115487380D01*
X134269047Y-116487380D02*
X134269047Y-115963571D01*
X134221428Y-115868333D01*
X134126190Y-115820714D01*
X133983333Y-115820714D01*
X133888095Y-115868333D01*
X133840476Y-115915952D01*
X135173809Y-116487380D02*
X135173809Y-115963571D01*
X135126190Y-115868333D01*
X135030952Y-115820714D01*
X134840476Y-115820714D01*
X134745238Y-115868333D01*
X135173809Y-116439761D02*
X135078571Y-116487380D01*
X134840476Y-116487380D01*
X134745238Y-116439761D01*
X134697619Y-116344523D01*
X134697619Y-116249285D01*
X134745238Y-116154047D01*
X134840476Y-116106428D01*
X135078571Y-116106428D01*
X135173809Y-116058809D01*
X135602380Y-116439761D02*
X135697619Y-116487380D01*
X135888095Y-116487380D01*
X135983333Y-116439761D01*
X136030952Y-116344523D01*
X136030952Y-116296904D01*
X135983333Y-116201666D01*
X135888095Y-116154047D01*
X135745238Y-116154047D01*
X135650000Y-116106428D01*
X135602380Y-116011190D01*
X135602380Y-115963571D01*
X135650000Y-115868333D01*
X135745238Y-115820714D01*
X135888095Y-115820714D01*
X135983333Y-115868333D01*
X137221428Y-116487380D02*
X137221428Y-115487380D01*
X137221428Y-115868333D02*
X137316666Y-115820714D01*
X137507142Y-115820714D01*
X137602380Y-115868333D01*
X137649999Y-115915952D01*
X137697619Y-116011190D01*
X137697619Y-116296904D01*
X137649999Y-116392142D01*
X137602380Y-116439761D01*
X137507142Y-116487380D01*
X137316666Y-116487380D01*
X137221428Y-116439761D01*
X138507142Y-116439761D02*
X138411904Y-116487380D01*
X138221428Y-116487380D01*
X138126190Y-116439761D01*
X138078571Y-116344523D01*
X138078571Y-115963571D01*
X138126190Y-115868333D01*
X138221428Y-115820714D01*
X138411904Y-115820714D01*
X138507142Y-115868333D01*
X138554761Y-115963571D01*
X138554761Y-116058809D01*
X138078571Y-116154047D01*
X139364285Y-116439761D02*
X139269047Y-116487380D01*
X139078571Y-116487380D01*
X138983333Y-116439761D01*
X138935714Y-116344523D01*
X138935714Y-115963571D01*
X138983333Y-115868333D01*
X139078571Y-115820714D01*
X139269047Y-115820714D01*
X139364285Y-115868333D01*
X139411904Y-115963571D01*
X139411904Y-116058809D01*
X138935714Y-116154047D01*
X139840476Y-115820714D02*
X139840476Y-116487380D01*
X139840476Y-115915952D02*
X139888095Y-115868333D01*
X139983333Y-115820714D01*
X140126190Y-115820714D01*
X140221428Y-115868333D01*
X140269047Y-115963571D01*
X140269047Y-116487380D01*
X141507142Y-116487380D02*
X141507142Y-115820714D01*
X141507142Y-115915952D02*
X141554761Y-115868333D01*
X141649999Y-115820714D01*
X141792857Y-115820714D01*
X141888095Y-115868333D01*
X141935714Y-115963571D01*
X141935714Y-116487380D01*
X141935714Y-115963571D02*
X141983333Y-115868333D01*
X142078571Y-115820714D01*
X142221428Y-115820714D01*
X142316666Y-115868333D01*
X142364285Y-115963571D01*
X142364285Y-116487380D01*
X142983333Y-116487380D02*
X142888095Y-116439761D01*
X142840476Y-116392142D01*
X142792857Y-116296904D01*
X142792857Y-116011190D01*
X142840476Y-115915952D01*
X142888095Y-115868333D01*
X142983333Y-115820714D01*
X143126190Y-115820714D01*
X143221428Y-115868333D01*
X143269047Y-115915952D01*
X143316666Y-116011190D01*
X143316666Y-116296904D01*
X143269047Y-116392142D01*
X143221428Y-116439761D01*
X143126190Y-116487380D01*
X142983333Y-116487380D01*
X144173809Y-116487380D02*
X144173809Y-115487380D01*
X144173809Y-116439761D02*
X144078571Y-116487380D01*
X143888095Y-116487380D01*
X143792857Y-116439761D01*
X143745238Y-116392142D01*
X143697619Y-116296904D01*
X143697619Y-116011190D01*
X143745238Y-115915952D01*
X143792857Y-115868333D01*
X143888095Y-115820714D01*
X144078571Y-115820714D01*
X144173809Y-115868333D01*
X144649999Y-116487380D02*
X144649999Y-115820714D01*
X144649999Y-115487380D02*
X144602380Y-115535000D01*
X144649999Y-115582619D01*
X144697619Y-115535000D01*
X144649999Y-115487380D01*
X144649999Y-115582619D01*
X144983333Y-115820714D02*
X145364285Y-115820714D01*
X145126190Y-116487380D02*
X145126190Y-115630238D01*
X145173809Y-115535000D01*
X145269047Y-115487380D01*
X145364285Y-115487380D01*
X145697619Y-116487380D02*
X145697619Y-115820714D01*
X145697619Y-115487380D02*
X145650000Y-115535000D01*
X145697619Y-115582619D01*
X145745238Y-115535000D01*
X145697619Y-115487380D01*
X145697619Y-115582619D01*
X146554761Y-116439761D02*
X146459523Y-116487380D01*
X146269047Y-116487380D01*
X146173809Y-116439761D01*
X146126190Y-116344523D01*
X146126190Y-115963571D01*
X146173809Y-115868333D01*
X146269047Y-115820714D01*
X146459523Y-115820714D01*
X146554761Y-115868333D01*
X146602380Y-115963571D01*
X146602380Y-116058809D01*
X146126190Y-116154047D01*
X147459523Y-116487380D02*
X147459523Y-115487380D01*
X147459523Y-116439761D02*
X147364285Y-116487380D01*
X147173809Y-116487380D01*
X147078571Y-116439761D01*
X147030952Y-116392142D01*
X146983333Y-116296904D01*
X146983333Y-116011190D01*
X147030952Y-115915952D01*
X147078571Y-115868333D01*
X147173809Y-115820714D01*
X147364285Y-115820714D01*
X147459523Y-115868333D01*
X96602380Y-117430714D02*
X96983333Y-117430714D01*
X96745238Y-118097380D02*
X96745238Y-117240238D01*
X96792857Y-117145000D01*
X96888095Y-117097380D01*
X96983333Y-117097380D01*
X97459523Y-118097380D02*
X97364285Y-118049761D01*
X97316666Y-118002142D01*
X97269047Y-117906904D01*
X97269047Y-117621190D01*
X97316666Y-117525952D01*
X97364285Y-117478333D01*
X97459523Y-117430714D01*
X97602380Y-117430714D01*
X97697619Y-117478333D01*
X97745238Y-117525952D01*
X97792857Y-117621190D01*
X97792857Y-117906904D01*
X97745238Y-118002142D01*
X97697619Y-118049761D01*
X97602380Y-118097380D01*
X97459523Y-118097380D01*
X98221428Y-118097380D02*
X98221428Y-117430714D01*
X98221428Y-117621190D02*
X98269047Y-117525952D01*
X98316666Y-117478333D01*
X98411904Y-117430714D01*
X98507142Y-117430714D01*
X99507142Y-117430714D02*
X99697619Y-118097380D01*
X99888095Y-117621190D01*
X100078571Y-118097380D01*
X100269047Y-117430714D01*
X100650000Y-118097380D02*
X100650000Y-117430714D01*
X100650000Y-117621190D02*
X100697619Y-117525952D01*
X100745238Y-117478333D01*
X100840476Y-117430714D01*
X100935714Y-117430714D01*
X101269047Y-118097380D02*
X101269047Y-117430714D01*
X101269047Y-117097380D02*
X101221428Y-117145000D01*
X101269047Y-117192619D01*
X101316666Y-117145000D01*
X101269047Y-117097380D01*
X101269047Y-117192619D01*
X101602380Y-117430714D02*
X101983333Y-117430714D01*
X101745238Y-117097380D02*
X101745238Y-117954523D01*
X101792857Y-118049761D01*
X101888095Y-118097380D01*
X101983333Y-118097380D01*
X102697619Y-118049761D02*
X102602380Y-118097380D01*
X102411904Y-118097380D01*
X102316666Y-118049761D01*
X102269047Y-117954523D01*
X102269047Y-117573571D01*
X102316666Y-117478333D01*
X102411904Y-117430714D01*
X102602380Y-117430714D01*
X102697619Y-117478333D01*
X102745238Y-117573571D01*
X102745238Y-117668809D01*
X102269047Y-117764047D01*
X104364285Y-118097380D02*
X104364285Y-117573571D01*
X104316666Y-117478333D01*
X104221428Y-117430714D01*
X104030952Y-117430714D01*
X103935714Y-117478333D01*
X104364285Y-118049761D02*
X104269047Y-118097380D01*
X104030952Y-118097380D01*
X103935714Y-118049761D01*
X103888095Y-117954523D01*
X103888095Y-117859285D01*
X103935714Y-117764047D01*
X104030952Y-117716428D01*
X104269047Y-117716428D01*
X104364285Y-117668809D01*
X105269047Y-118049761D02*
X105173809Y-118097380D01*
X104983333Y-118097380D01*
X104888095Y-118049761D01*
X104840476Y-118002142D01*
X104792857Y-117906904D01*
X104792857Y-117621190D01*
X104840476Y-117525952D01*
X104888095Y-117478333D01*
X104983333Y-117430714D01*
X105173809Y-117430714D01*
X105269047Y-117478333D01*
X106126190Y-118049761D02*
X106030952Y-118097380D01*
X105840476Y-118097380D01*
X105745238Y-118049761D01*
X105697619Y-118002142D01*
X105650000Y-117906904D01*
X105650000Y-117621190D01*
X105697619Y-117525952D01*
X105745238Y-117478333D01*
X105840476Y-117430714D01*
X106030952Y-117430714D01*
X106126190Y-117478333D01*
X106935714Y-118049761D02*
X106840476Y-118097380D01*
X106650000Y-118097380D01*
X106554761Y-118049761D01*
X106507142Y-117954523D01*
X106507142Y-117573571D01*
X106554761Y-117478333D01*
X106650000Y-117430714D01*
X106840476Y-117430714D01*
X106935714Y-117478333D01*
X106983333Y-117573571D01*
X106983333Y-117668809D01*
X106507142Y-117764047D01*
X107364285Y-118049761D02*
X107459523Y-118097380D01*
X107650000Y-118097380D01*
X107745238Y-118049761D01*
X107792857Y-117954523D01*
X107792857Y-117906904D01*
X107745238Y-117811666D01*
X107650000Y-117764047D01*
X107507142Y-117764047D01*
X107411904Y-117716428D01*
X107364285Y-117621190D01*
X107364285Y-117573571D01*
X107411904Y-117478333D01*
X107507142Y-117430714D01*
X107650000Y-117430714D01*
X107745238Y-117478333D01*
X108173809Y-118049761D02*
X108269047Y-118097380D01*
X108459523Y-118097380D01*
X108554761Y-118049761D01*
X108602380Y-117954523D01*
X108602380Y-117906904D01*
X108554761Y-117811666D01*
X108459523Y-117764047D01*
X108316666Y-117764047D01*
X108221428Y-117716428D01*
X108173809Y-117621190D01*
X108173809Y-117573571D01*
X108221428Y-117478333D01*
X108316666Y-117430714D01*
X108459523Y-117430714D01*
X108554761Y-117478333D01*
X110221428Y-118097380D02*
X110221428Y-117573571D01*
X110173809Y-117478333D01*
X110078571Y-117430714D01*
X109888095Y-117430714D01*
X109792857Y-117478333D01*
X110221428Y-118049761D02*
X110126190Y-118097380D01*
X109888095Y-118097380D01*
X109792857Y-118049761D01*
X109745238Y-117954523D01*
X109745238Y-117859285D01*
X109792857Y-117764047D01*
X109888095Y-117716428D01*
X110126190Y-117716428D01*
X110221428Y-117668809D01*
X110697619Y-117430714D02*
X110697619Y-118097380D01*
X110697619Y-117525952D02*
X110745238Y-117478333D01*
X110840476Y-117430714D01*
X110983333Y-117430714D01*
X111078571Y-117478333D01*
X111126190Y-117573571D01*
X111126190Y-118097380D01*
X112030952Y-118097380D02*
X112030952Y-117097380D01*
X112030952Y-118049761D02*
X111935714Y-118097380D01*
X111745238Y-118097380D01*
X111650000Y-118049761D01*
X111602380Y-118002142D01*
X111554761Y-117906904D01*
X111554761Y-117621190D01*
X111602380Y-117525952D01*
X111650000Y-117478333D01*
X111745238Y-117430714D01*
X111935714Y-117430714D01*
X112030952Y-117478333D01*
X113173809Y-117430714D02*
X113411904Y-118097380D01*
X113650000Y-117430714D02*
X113411904Y-118097380D01*
X113316666Y-118335476D01*
X113269047Y-118383095D01*
X113173809Y-118430714D01*
X114173809Y-118097380D02*
X114078571Y-118049761D01*
X114030952Y-118002142D01*
X113983333Y-117906904D01*
X113983333Y-117621190D01*
X114030952Y-117525952D01*
X114078571Y-117478333D01*
X114173809Y-117430714D01*
X114316666Y-117430714D01*
X114411904Y-117478333D01*
X114459523Y-117525952D01*
X114507142Y-117621190D01*
X114507142Y-117906904D01*
X114459523Y-118002142D01*
X114411904Y-118049761D01*
X114316666Y-118097380D01*
X114173809Y-118097380D01*
X115364285Y-117430714D02*
X115364285Y-118097380D01*
X114935714Y-117430714D02*
X114935714Y-117954523D01*
X114983333Y-118049761D01*
X115078571Y-118097380D01*
X115221428Y-118097380D01*
X115316666Y-118049761D01*
X115364285Y-118002142D01*
X116602380Y-118097380D02*
X116602380Y-117430714D01*
X116602380Y-117525952D02*
X116650000Y-117478333D01*
X116745238Y-117430714D01*
X116888095Y-117430714D01*
X116983333Y-117478333D01*
X117030952Y-117573571D01*
X117030952Y-118097380D01*
X117030952Y-117573571D02*
X117078571Y-117478333D01*
X117173809Y-117430714D01*
X117316666Y-117430714D01*
X117411904Y-117478333D01*
X117459523Y-117573571D01*
X117459523Y-118097380D01*
X117935714Y-118097380D02*
X117935714Y-117430714D01*
X117935714Y-117097380D02*
X117888095Y-117145000D01*
X117935714Y-117192619D01*
X117983333Y-117145000D01*
X117935714Y-117097380D01*
X117935714Y-117192619D01*
X118840476Y-117430714D02*
X118840476Y-118240238D01*
X118792857Y-118335476D01*
X118745238Y-118383095D01*
X118650000Y-118430714D01*
X118507142Y-118430714D01*
X118411904Y-118383095D01*
X118840476Y-118049761D02*
X118745238Y-118097380D01*
X118554761Y-118097380D01*
X118459523Y-118049761D01*
X118411904Y-118002142D01*
X118364285Y-117906904D01*
X118364285Y-117621190D01*
X118411904Y-117525952D01*
X118459523Y-117478333D01*
X118554761Y-117430714D01*
X118745238Y-117430714D01*
X118840476Y-117478333D01*
X119316666Y-118097380D02*
X119316666Y-117097380D01*
X119745238Y-118097380D02*
X119745238Y-117573571D01*
X119697619Y-117478333D01*
X119602380Y-117430714D01*
X119459523Y-117430714D01*
X119364285Y-117478333D01*
X119316666Y-117525952D01*
X120078571Y-117430714D02*
X120459523Y-117430714D01*
X120221428Y-117097380D02*
X120221428Y-117954523D01*
X120269047Y-118049761D01*
X120364285Y-118097380D01*
X120459523Y-118097380D01*
X121554761Y-117430714D02*
X121554761Y-118430714D01*
X121554761Y-117478333D02*
X121650000Y-117430714D01*
X121840476Y-117430714D01*
X121935714Y-117478333D01*
X121983333Y-117525952D01*
X122030952Y-117621190D01*
X122030952Y-117906904D01*
X121983333Y-118002142D01*
X121935714Y-118049761D01*
X121840476Y-118097380D01*
X121650000Y-118097380D01*
X121554761Y-118049761D01*
X122602380Y-118097380D02*
X122507142Y-118049761D01*
X122459523Y-117954523D01*
X122459523Y-117097380D01*
X123411904Y-117430714D02*
X123411904Y-118097380D01*
X122983333Y-117430714D02*
X122983333Y-117954523D01*
X123030952Y-118049761D01*
X123126190Y-118097380D01*
X123269047Y-118097380D01*
X123364285Y-118049761D01*
X123411904Y-118002142D01*
X124316666Y-117430714D02*
X124316666Y-118240238D01*
X124269047Y-118335476D01*
X124221428Y-118383095D01*
X124126190Y-118430714D01*
X123983333Y-118430714D01*
X123888095Y-118383095D01*
X124316666Y-118049761D02*
X124221428Y-118097380D01*
X124030952Y-118097380D01*
X123935714Y-118049761D01*
X123888095Y-118002142D01*
X123840476Y-117906904D01*
X123840476Y-117621190D01*
X123888095Y-117525952D01*
X123935714Y-117478333D01*
X124030952Y-117430714D01*
X124221428Y-117430714D01*
X124316666Y-117478333D01*
X125554761Y-118097380D02*
X125554761Y-117430714D01*
X125554761Y-117097380D02*
X125507142Y-117145000D01*
X125554761Y-117192619D01*
X125602380Y-117145000D01*
X125554761Y-117097380D01*
X125554761Y-117192619D01*
X126030952Y-117430714D02*
X126030952Y-118097380D01*
X126030952Y-117525952D02*
X126078571Y-117478333D01*
X126173809Y-117430714D01*
X126316666Y-117430714D01*
X126411904Y-117478333D01*
X126459523Y-117573571D01*
X126459523Y-118097380D01*
X128126190Y-118097380D02*
X128126190Y-117573571D01*
X128078571Y-117478333D01*
X127983333Y-117430714D01*
X127792857Y-117430714D01*
X127697619Y-117478333D01*
X128126190Y-118049761D02*
X128030952Y-118097380D01*
X127792857Y-118097380D01*
X127697619Y-118049761D01*
X127649999Y-117954523D01*
X127649999Y-117859285D01*
X127697619Y-117764047D01*
X127792857Y-117716428D01*
X128030952Y-117716428D01*
X128126190Y-117668809D01*
X129792857Y-118049761D02*
X129697619Y-118097380D01*
X129507142Y-118097380D01*
X129411904Y-118049761D01*
X129364285Y-118002142D01*
X129316666Y-117906904D01*
X129316666Y-117621190D01*
X129364285Y-117525952D01*
X129411904Y-117478333D01*
X129507142Y-117430714D01*
X129697619Y-117430714D01*
X129792857Y-117478333D01*
X130649999Y-118097380D02*
X130649999Y-117573571D01*
X130602380Y-117478333D01*
X130507142Y-117430714D01*
X130316666Y-117430714D01*
X130221428Y-117478333D01*
X130649999Y-118049761D02*
X130554761Y-118097380D01*
X130316666Y-118097380D01*
X130221428Y-118049761D01*
X130173809Y-117954523D01*
X130173809Y-117859285D01*
X130221428Y-117764047D01*
X130316666Y-117716428D01*
X130554761Y-117716428D01*
X130649999Y-117668809D01*
X131126190Y-118097380D02*
X131126190Y-117430714D01*
X131126190Y-117621190D02*
X131173809Y-117525952D01*
X131221428Y-117478333D01*
X131316666Y-117430714D01*
X131411904Y-117430714D01*
X131602380Y-117430714D02*
X131983333Y-117430714D01*
X131745238Y-117097380D02*
X131745238Y-117954523D01*
X131792857Y-118049761D01*
X131888095Y-118097380D01*
X131983333Y-118097380D01*
X132316666Y-118097380D02*
X132316666Y-117430714D01*
X132316666Y-117621190D02*
X132364285Y-117525952D01*
X132411904Y-117478333D01*
X132507142Y-117430714D01*
X132602380Y-117430714D01*
X132935714Y-118097380D02*
X132935714Y-117430714D01*
X132935714Y-117097380D02*
X132888095Y-117145000D01*
X132935714Y-117192619D01*
X132983333Y-117145000D01*
X132935714Y-117097380D01*
X132935714Y-117192619D01*
X133840476Y-117430714D02*
X133840476Y-118240238D01*
X133792857Y-118335476D01*
X133745238Y-118383095D01*
X133650000Y-118430714D01*
X133507142Y-118430714D01*
X133411904Y-118383095D01*
X133840476Y-118049761D02*
X133745238Y-118097380D01*
X133554761Y-118097380D01*
X133459523Y-118049761D01*
X133411904Y-118002142D01*
X133364285Y-117906904D01*
X133364285Y-117621190D01*
X133411904Y-117525952D01*
X133459523Y-117478333D01*
X133554761Y-117430714D01*
X133745238Y-117430714D01*
X133840476Y-117478333D01*
X134697619Y-118049761D02*
X134602380Y-118097380D01*
X134411904Y-118097380D01*
X134316666Y-118049761D01*
X134269047Y-117954523D01*
X134269047Y-117573571D01*
X134316666Y-117478333D01*
X134411904Y-117430714D01*
X134602380Y-117430714D01*
X134697619Y-117478333D01*
X134745238Y-117573571D01*
X134745238Y-117668809D01*
X134269047Y-117764047D01*
X135792857Y-117430714D02*
X136173809Y-117430714D01*
X135935714Y-117097380D02*
X135935714Y-117954523D01*
X135983333Y-118049761D01*
X136078571Y-118097380D01*
X136173809Y-118097380D01*
X136507142Y-118097380D02*
X136507142Y-117097380D01*
X136935714Y-118097380D02*
X136935714Y-117573571D01*
X136888095Y-117478333D01*
X136792857Y-117430714D01*
X136650000Y-117430714D01*
X136554761Y-117478333D01*
X136507142Y-117525952D01*
X137840476Y-118097380D02*
X137840476Y-117573571D01*
X137792857Y-117478333D01*
X137697619Y-117430714D01*
X137507142Y-117430714D01*
X137411904Y-117478333D01*
X137840476Y-118049761D02*
X137745238Y-118097380D01*
X137507142Y-118097380D01*
X137411904Y-118049761D01*
X137364285Y-117954523D01*
X137364285Y-117859285D01*
X137411904Y-117764047D01*
X137507142Y-117716428D01*
X137745238Y-117716428D01*
X137840476Y-117668809D01*
X138173809Y-117430714D02*
X138554761Y-117430714D01*
X138316666Y-117097380D02*
X138316666Y-117954523D01*
X138364285Y-118049761D01*
X138459523Y-118097380D01*
X138554761Y-118097380D01*
X139602380Y-118049761D02*
X139697619Y-118097380D01*
X139888095Y-118097380D01*
X139983333Y-118049761D01*
X140030952Y-117954523D01*
X140030952Y-117906904D01*
X139983333Y-117811666D01*
X139888095Y-117764047D01*
X139745238Y-117764047D01*
X139650000Y-117716428D01*
X139602380Y-117621190D01*
X139602380Y-117573571D01*
X139650000Y-117478333D01*
X139745238Y-117430714D01*
X139888095Y-117430714D01*
X139983333Y-117478333D01*
X140459523Y-118097380D02*
X140459523Y-117097380D01*
X140888095Y-118097380D02*
X140888095Y-117573571D01*
X140840476Y-117478333D01*
X140745238Y-117430714D01*
X140602380Y-117430714D01*
X140507142Y-117478333D01*
X140459523Y-117525952D01*
X141507142Y-118097380D02*
X141411904Y-118049761D01*
X141364285Y-118002142D01*
X141316666Y-117906904D01*
X141316666Y-117621190D01*
X141364285Y-117525952D01*
X141411904Y-117478333D01*
X141507142Y-117430714D01*
X141650000Y-117430714D01*
X141745238Y-117478333D01*
X141792857Y-117525952D01*
X141840476Y-117621190D01*
X141840476Y-117906904D01*
X141792857Y-118002142D01*
X141745238Y-118049761D01*
X141650000Y-118097380D01*
X141507142Y-118097380D01*
X142269047Y-118097380D02*
X142269047Y-117430714D01*
X142269047Y-117621190D02*
X142316666Y-117525952D01*
X142364285Y-117478333D01*
X142459523Y-117430714D01*
X142554761Y-117430714D01*
X142745238Y-117430714D02*
X143126190Y-117430714D01*
X142888095Y-117097380D02*
X142888095Y-117954523D01*
X142935714Y-118049761D01*
X143030952Y-118097380D01*
X143126190Y-118097380D01*
X143411904Y-118049761D02*
X143507142Y-118097380D01*
X143697619Y-118097380D01*
X143792857Y-118049761D01*
X143840476Y-117954523D01*
X143840476Y-117906904D01*
X143792857Y-117811666D01*
X143697619Y-117764047D01*
X143554761Y-117764047D01*
X143459523Y-117716428D01*
X143411904Y-117621190D01*
X143411904Y-117573571D01*
X143459523Y-117478333D01*
X143554761Y-117430714D01*
X143697619Y-117430714D01*
X143792857Y-117478333D01*
X106554761Y-119040714D02*
X106935714Y-119040714D01*
X106697619Y-118707380D02*
X106697619Y-119564523D01*
X106745238Y-119659761D01*
X106840476Y-119707380D01*
X106935714Y-119707380D01*
X107269047Y-119707380D02*
X107269047Y-118707380D01*
X107697619Y-119707380D02*
X107697619Y-119183571D01*
X107650000Y-119088333D01*
X107554761Y-119040714D01*
X107411904Y-119040714D01*
X107316666Y-119088333D01*
X107269047Y-119135952D01*
X108602380Y-119707380D02*
X108602380Y-119183571D01*
X108554761Y-119088333D01*
X108459523Y-119040714D01*
X108269047Y-119040714D01*
X108173809Y-119088333D01*
X108602380Y-119659761D02*
X108507142Y-119707380D01*
X108269047Y-119707380D01*
X108173809Y-119659761D01*
X108126190Y-119564523D01*
X108126190Y-119469285D01*
X108173809Y-119374047D01*
X108269047Y-119326428D01*
X108507142Y-119326428D01*
X108602380Y-119278809D01*
X108935714Y-119040714D02*
X109316666Y-119040714D01*
X109078571Y-118707380D02*
X109078571Y-119564523D01*
X109126190Y-119659761D01*
X109221428Y-119707380D01*
X109316666Y-119707380D01*
X110411904Y-119040714D02*
X110411904Y-120040714D01*
X110411904Y-119088333D02*
X110507142Y-119040714D01*
X110697619Y-119040714D01*
X110792857Y-119088333D01*
X110840476Y-119135952D01*
X110888095Y-119231190D01*
X110888095Y-119516904D01*
X110840476Y-119612142D01*
X110792857Y-119659761D01*
X110697619Y-119707380D01*
X110507142Y-119707380D01*
X110411904Y-119659761D01*
X111316666Y-119707380D02*
X111316666Y-119040714D01*
X111316666Y-118707380D02*
X111269047Y-118755000D01*
X111316666Y-118802619D01*
X111364285Y-118755000D01*
X111316666Y-118707380D01*
X111316666Y-118802619D01*
X111792857Y-119040714D02*
X111792857Y-119707380D01*
X111792857Y-119135952D02*
X111840476Y-119088333D01*
X111935714Y-119040714D01*
X112078571Y-119040714D01*
X112173809Y-119088333D01*
X112221428Y-119183571D01*
X112221428Y-119707380D01*
X113316666Y-119040714D02*
X113697619Y-119040714D01*
X113459523Y-118707380D02*
X113459523Y-119564523D01*
X113507142Y-119659761D01*
X113602380Y-119707380D01*
X113697619Y-119707380D01*
X114173809Y-119707380D02*
X114078571Y-119659761D01*
X114030952Y-119612142D01*
X113983333Y-119516904D01*
X113983333Y-119231190D01*
X114030952Y-119135952D01*
X114078571Y-119088333D01*
X114173809Y-119040714D01*
X114316666Y-119040714D01*
X114411904Y-119088333D01*
X114459523Y-119135952D01*
X114507142Y-119231190D01*
X114507142Y-119516904D01*
X114459523Y-119612142D01*
X114411904Y-119659761D01*
X114316666Y-119707380D01*
X114173809Y-119707380D01*
X116126190Y-119040714D02*
X116126190Y-119850238D01*
X116078571Y-119945476D01*
X116030952Y-119993095D01*
X115935714Y-120040714D01*
X115792857Y-120040714D01*
X115697619Y-119993095D01*
X116126190Y-119659761D02*
X116030952Y-119707380D01*
X115840476Y-119707380D01*
X115745238Y-119659761D01*
X115697619Y-119612142D01*
X115650000Y-119516904D01*
X115650000Y-119231190D01*
X115697619Y-119135952D01*
X115745238Y-119088333D01*
X115840476Y-119040714D01*
X116030952Y-119040714D01*
X116126190Y-119088333D01*
X116602380Y-119707380D02*
X116602380Y-119040714D01*
X116602380Y-119231190D02*
X116650000Y-119135952D01*
X116697619Y-119088333D01*
X116792857Y-119040714D01*
X116888095Y-119040714D01*
X117364285Y-119707380D02*
X117269047Y-119659761D01*
X117221428Y-119612142D01*
X117173809Y-119516904D01*
X117173809Y-119231190D01*
X117221428Y-119135952D01*
X117269047Y-119088333D01*
X117364285Y-119040714D01*
X117507142Y-119040714D01*
X117602380Y-119088333D01*
X117650000Y-119135952D01*
X117697619Y-119231190D01*
X117697619Y-119516904D01*
X117650000Y-119612142D01*
X117602380Y-119659761D01*
X117507142Y-119707380D01*
X117364285Y-119707380D01*
X118554761Y-119040714D02*
X118554761Y-119707380D01*
X118126190Y-119040714D02*
X118126190Y-119564523D01*
X118173809Y-119659761D01*
X118269047Y-119707380D01*
X118411904Y-119707380D01*
X118507142Y-119659761D01*
X118554761Y-119612142D01*
X119030952Y-119040714D02*
X119030952Y-119707380D01*
X119030952Y-119135952D02*
X119078571Y-119088333D01*
X119173809Y-119040714D01*
X119316666Y-119040714D01*
X119411904Y-119088333D01*
X119459523Y-119183571D01*
X119459523Y-119707380D01*
X120364285Y-119707380D02*
X120364285Y-118707380D01*
X120364285Y-119659761D02*
X120269047Y-119707380D01*
X120078571Y-119707380D01*
X119983333Y-119659761D01*
X119935714Y-119612142D01*
X119888095Y-119516904D01*
X119888095Y-119231190D01*
X119935714Y-119135952D01*
X119983333Y-119088333D01*
X120078571Y-119040714D01*
X120269047Y-119040714D01*
X120364285Y-119088333D01*
X121888095Y-120088333D02*
X121840476Y-120040714D01*
X121745238Y-119897857D01*
X121697619Y-119802619D01*
X121650000Y-119659761D01*
X121602380Y-119421666D01*
X121602380Y-119231190D01*
X121650000Y-118993095D01*
X121697619Y-118850238D01*
X121745238Y-118755000D01*
X121840476Y-118612142D01*
X121888095Y-118564523D01*
X122650000Y-119659761D02*
X122554761Y-119707380D01*
X122364285Y-119707380D01*
X122269047Y-119659761D01*
X122221428Y-119564523D01*
X122221428Y-119183571D01*
X122269047Y-119088333D01*
X122364285Y-119040714D01*
X122554761Y-119040714D01*
X122650000Y-119088333D01*
X122697619Y-119183571D01*
X122697619Y-119278809D01*
X122221428Y-119374047D01*
X123554761Y-119707380D02*
X123554761Y-119183571D01*
X123507142Y-119088333D01*
X123411904Y-119040714D01*
X123221428Y-119040714D01*
X123126190Y-119088333D01*
X123554761Y-119659761D02*
X123459523Y-119707380D01*
X123221428Y-119707380D01*
X123126190Y-119659761D01*
X123078571Y-119564523D01*
X123078571Y-119469285D01*
X123126190Y-119374047D01*
X123221428Y-119326428D01*
X123459523Y-119326428D01*
X123554761Y-119278809D01*
X124030952Y-119707380D02*
X124030952Y-119040714D01*
X124030952Y-119231190D02*
X124078571Y-119135952D01*
X124126190Y-119088333D01*
X124221428Y-119040714D01*
X124316666Y-119040714D01*
X124792857Y-119707380D02*
X124697619Y-119659761D01*
X124650000Y-119564523D01*
X124650000Y-118707380D01*
X125078571Y-119040714D02*
X125316666Y-119707380D01*
X125554761Y-119040714D02*
X125316666Y-119707380D01*
X125221428Y-119945476D01*
X125173809Y-119993095D01*
X125078571Y-120040714D01*
X127269047Y-119707380D02*
X126935714Y-119231190D01*
X126697619Y-119707380D02*
X126697619Y-118707380D01*
X127078571Y-118707380D01*
X127173809Y-118755000D01*
X127221428Y-118802619D01*
X127269047Y-118897857D01*
X127269047Y-119040714D01*
X127221428Y-119135952D01*
X127173809Y-119183571D01*
X127078571Y-119231190D01*
X126697619Y-119231190D01*
X127888095Y-118707380D02*
X128078571Y-118707380D01*
X128173809Y-118755000D01*
X128269047Y-118850238D01*
X128316666Y-119040714D01*
X128316666Y-119374047D01*
X128269047Y-119564523D01*
X128173809Y-119659761D01*
X128078571Y-119707380D01*
X127888095Y-119707380D01*
X127792857Y-119659761D01*
X127697619Y-119564523D01*
X127649999Y-119374047D01*
X127649999Y-119040714D01*
X127697619Y-118850238D01*
X127792857Y-118755000D01*
X127888095Y-118707380D01*
X128745238Y-119707380D02*
X128745238Y-118707380D01*
X129078571Y-119421666D01*
X129411904Y-118707380D01*
X129411904Y-119707380D01*
X131078571Y-119659761D02*
X130983333Y-119707380D01*
X130792857Y-119707380D01*
X130697619Y-119659761D01*
X130649999Y-119612142D01*
X130602380Y-119516904D01*
X130602380Y-119231190D01*
X130649999Y-119135952D01*
X130697619Y-119088333D01*
X130792857Y-119040714D01*
X130983333Y-119040714D01*
X131078571Y-119088333D01*
X131935714Y-119707380D02*
X131935714Y-119183571D01*
X131888095Y-119088333D01*
X131792857Y-119040714D01*
X131602380Y-119040714D01*
X131507142Y-119088333D01*
X131935714Y-119659761D02*
X131840476Y-119707380D01*
X131602380Y-119707380D01*
X131507142Y-119659761D01*
X131459523Y-119564523D01*
X131459523Y-119469285D01*
X131507142Y-119374047D01*
X131602380Y-119326428D01*
X131840476Y-119326428D01*
X131935714Y-119278809D01*
X132411904Y-119707380D02*
X132411904Y-119040714D01*
X132411904Y-119231190D02*
X132459523Y-119135952D01*
X132507142Y-119088333D01*
X132602380Y-119040714D01*
X132697619Y-119040714D01*
X132888095Y-119040714D02*
X133269047Y-119040714D01*
X133030952Y-118707380D02*
X133030952Y-119564523D01*
X133078571Y-119659761D01*
X133173809Y-119707380D01*
X133269047Y-119707380D01*
X133554761Y-119659761D02*
X133649999Y-119707380D01*
X133840476Y-119707380D01*
X133935714Y-119659761D01*
X133983333Y-119564523D01*
X133983333Y-119516904D01*
X133935714Y-119421666D01*
X133840476Y-119374047D01*
X133697619Y-119374047D01*
X133602380Y-119326428D01*
X133554761Y-119231190D01*
X133554761Y-119183571D01*
X133602380Y-119088333D01*
X133697619Y-119040714D01*
X133840476Y-119040714D01*
X133935714Y-119088333D01*
X134316666Y-120088333D02*
X134364285Y-120040714D01*
X134459523Y-119897857D01*
X134507142Y-119802619D01*
X134554761Y-119659761D01*
X134602380Y-119421666D01*
X134602380Y-119231190D01*
X134554761Y-118993095D01*
X134507142Y-118850238D01*
X134459523Y-118755000D01*
X134364285Y-118612142D01*
X134316666Y-118564523D01*
X76866904Y-124531428D02*
X77628809Y-124531428D01*
X78581190Y-123912380D02*
X78105000Y-123912380D01*
X78057380Y-124388571D01*
X78105000Y-124340952D01*
X78200238Y-124293333D01*
X78438333Y-124293333D01*
X78533571Y-124340952D01*
X78581190Y-124388571D01*
X78628809Y-124483809D01*
X78628809Y-124721904D01*
X78581190Y-124817142D01*
X78533571Y-124864761D01*
X78438333Y-124912380D01*
X78200238Y-124912380D01*
X78105000Y-124864761D01*
X78057380Y-124817142D01*
X78962142Y-124245714D02*
X79200238Y-124912380D01*
X79438333Y-124245714D01*
X86280714Y-76366666D02*
X86756904Y-76366666D01*
X86185476Y-76652380D02*
X86518809Y-75652380D01*
X86852142Y-76652380D01*
X87614047Y-75652380D02*
X87423571Y-75652380D01*
X87328333Y-75700000D01*
X87280714Y-75747619D01*
X87185476Y-75890476D01*
X87137857Y-76080952D01*
X87137857Y-76461904D01*
X87185476Y-76557142D01*
X87233095Y-76604761D01*
X87328333Y-76652380D01*
X87518809Y-76652380D01*
X87614047Y-76604761D01*
X87661666Y-76557142D01*
X87709285Y-76461904D01*
X87709285Y-76223809D01*
X87661666Y-76128571D01*
X87614047Y-76080952D01*
X87518809Y-76033333D01*
X87328333Y-76033333D01*
X87233095Y-76080952D01*
X87185476Y-76128571D01*
X87137857Y-76223809D01*
X170053333Y-132437142D02*
X170005714Y-132484761D01*
X169862857Y-132532380D01*
X169767619Y-132532380D01*
X169624761Y-132484761D01*
X169529523Y-132389523D01*
X169481904Y-132294285D01*
X169434285Y-132103809D01*
X169434285Y-131960952D01*
X169481904Y-131770476D01*
X169529523Y-131675238D01*
X169624761Y-131580000D01*
X169767619Y-131532380D01*
X169862857Y-131532380D01*
X170005714Y-131580000D01*
X170053333Y-131627619D01*
X170386666Y-131532380D02*
X171005714Y-131532380D01*
X170672380Y-131913333D01*
X170815238Y-131913333D01*
X170910476Y-131960952D01*
X170958095Y-132008571D01*
X171005714Y-132103809D01*
X171005714Y-132341904D01*
X170958095Y-132437142D01*
X170910476Y-132484761D01*
X170815238Y-132532380D01*
X170529523Y-132532380D01*
X170434285Y-132484761D01*
X170386666Y-132437142D01*
X168537142Y-129627380D02*
X168632380Y-129627380D01*
X168727619Y-129675000D01*
X168775238Y-129722619D01*
X168822857Y-129817857D01*
X168870476Y-130008333D01*
X168870476Y-130246428D01*
X168822857Y-130436904D01*
X168775238Y-130532142D01*
X168727619Y-130579761D01*
X168632380Y-130627380D01*
X168537142Y-130627380D01*
X168441904Y-130579761D01*
X168394285Y-130532142D01*
X168346666Y-130436904D01*
X168299047Y-130246428D01*
X168299047Y-130008333D01*
X168346666Y-129817857D01*
X168394285Y-129722619D01*
X168441904Y-129675000D01*
X168537142Y-129627380D01*
X169299047Y-130532142D02*
X169346666Y-130579761D01*
X169299047Y-130627380D01*
X169251428Y-130579761D01*
X169299047Y-130532142D01*
X169299047Y-130627380D01*
X170299047Y-130627380D02*
X169727619Y-130627380D01*
X170013333Y-130627380D02*
X170013333Y-129627380D01*
X169918095Y-129770238D01*
X169822857Y-129865476D01*
X169727619Y-129913095D01*
X171156190Y-129960714D02*
X171156190Y-130627380D01*
X170727619Y-129960714D02*
X170727619Y-130484523D01*
X170775238Y-130579761D01*
X170870476Y-130627380D01*
X171013333Y-130627380D01*
X171108571Y-130579761D01*
X171156190Y-130532142D01*
X171965714Y-130103571D02*
X171632380Y-130103571D01*
X171632380Y-130627380D02*
X171632380Y-129627380D01*
X172108571Y-129627380D01*
X144653333Y-132437142D02*
X144605714Y-132484761D01*
X144462857Y-132532380D01*
X144367619Y-132532380D01*
X144224761Y-132484761D01*
X144129523Y-132389523D01*
X144081904Y-132294285D01*
X144034285Y-132103809D01*
X144034285Y-131960952D01*
X144081904Y-131770476D01*
X144129523Y-131675238D01*
X144224761Y-131580000D01*
X144367619Y-131532380D01*
X144462857Y-131532380D01*
X144605714Y-131580000D01*
X144653333Y-131627619D01*
X145510476Y-131532380D02*
X145320000Y-131532380D01*
X145224761Y-131580000D01*
X145177142Y-131627619D01*
X145081904Y-131770476D01*
X145034285Y-131960952D01*
X145034285Y-132341904D01*
X145081904Y-132437142D01*
X145129523Y-132484761D01*
X145224761Y-132532380D01*
X145415238Y-132532380D01*
X145510476Y-132484761D01*
X145558095Y-132437142D01*
X145605714Y-132341904D01*
X145605714Y-132103809D01*
X145558095Y-132008571D01*
X145510476Y-131960952D01*
X145415238Y-131913333D01*
X145224761Y-131913333D01*
X145129523Y-131960952D01*
X145081904Y-132008571D01*
X145034285Y-132103809D01*
X143137142Y-129627380D02*
X143232380Y-129627380D01*
X143327619Y-129675000D01*
X143375238Y-129722619D01*
X143422857Y-129817857D01*
X143470476Y-130008333D01*
X143470476Y-130246428D01*
X143422857Y-130436904D01*
X143375238Y-130532142D01*
X143327619Y-130579761D01*
X143232380Y-130627380D01*
X143137142Y-130627380D01*
X143041904Y-130579761D01*
X142994285Y-130532142D01*
X142946666Y-130436904D01*
X142899047Y-130246428D01*
X142899047Y-130008333D01*
X142946666Y-129817857D01*
X142994285Y-129722619D01*
X143041904Y-129675000D01*
X143137142Y-129627380D01*
X143899047Y-130532142D02*
X143946666Y-130579761D01*
X143899047Y-130627380D01*
X143851428Y-130579761D01*
X143899047Y-130532142D01*
X143899047Y-130627380D01*
X144899047Y-130627380D02*
X144327619Y-130627380D01*
X144613333Y-130627380D02*
X144613333Y-129627380D01*
X144518095Y-129770238D01*
X144422857Y-129865476D01*
X144327619Y-129913095D01*
X145756190Y-129960714D02*
X145756190Y-130627380D01*
X145327619Y-129960714D02*
X145327619Y-130484523D01*
X145375238Y-130579761D01*
X145470476Y-130627380D01*
X145613333Y-130627380D01*
X145708571Y-130579761D01*
X145756190Y-130532142D01*
X146565714Y-130103571D02*
X146232380Y-130103571D01*
X146232380Y-130627380D02*
X146232380Y-129627380D01*
X146708571Y-129627380D01*
X157353333Y-137517142D02*
X157305714Y-137564761D01*
X157162857Y-137612380D01*
X157067619Y-137612380D01*
X156924761Y-137564761D01*
X156829523Y-137469523D01*
X156781904Y-137374285D01*
X156734285Y-137183809D01*
X156734285Y-137040952D01*
X156781904Y-136850476D01*
X156829523Y-136755238D01*
X156924761Y-136660000D01*
X157067619Y-136612380D01*
X157162857Y-136612380D01*
X157305714Y-136660000D01*
X157353333Y-136707619D01*
X157734285Y-136707619D02*
X157781904Y-136660000D01*
X157877142Y-136612380D01*
X158115238Y-136612380D01*
X158210476Y-136660000D01*
X158258095Y-136707619D01*
X158305714Y-136802857D01*
X158305714Y-136898095D01*
X158258095Y-137040952D01*
X157686666Y-137612380D01*
X158305714Y-137612380D01*
X156115238Y-133437380D02*
X155924761Y-133437380D01*
X155829523Y-133485000D01*
X155781904Y-133532619D01*
X155686666Y-133675476D01*
X155639047Y-133865952D01*
X155639047Y-134246904D01*
X155686666Y-134342142D01*
X155734285Y-134389761D01*
X155829523Y-134437380D01*
X156020000Y-134437380D01*
X156115238Y-134389761D01*
X156162857Y-134342142D01*
X156210476Y-134246904D01*
X156210476Y-134008809D01*
X156162857Y-133913571D01*
X156115238Y-133865952D01*
X156020000Y-133818333D01*
X155829523Y-133818333D01*
X155734285Y-133865952D01*
X155686666Y-133913571D01*
X155639047Y-134008809D01*
X156639047Y-134342142D02*
X156686666Y-134389761D01*
X156639047Y-134437380D01*
X156591428Y-134389761D01*
X156639047Y-134342142D01*
X156639047Y-134437380D01*
X157258095Y-133865952D02*
X157162857Y-133818333D01*
X157115238Y-133770714D01*
X157067619Y-133675476D01*
X157067619Y-133627857D01*
X157115238Y-133532619D01*
X157162857Y-133485000D01*
X157258095Y-133437380D01*
X157448571Y-133437380D01*
X157543809Y-133485000D01*
X157591428Y-133532619D01*
X157639047Y-133627857D01*
X157639047Y-133675476D01*
X157591428Y-133770714D01*
X157543809Y-133818333D01*
X157448571Y-133865952D01*
X157258095Y-133865952D01*
X157162857Y-133913571D01*
X157115238Y-133961190D01*
X157067619Y-134056428D01*
X157067619Y-134246904D01*
X157115238Y-134342142D01*
X157162857Y-134389761D01*
X157258095Y-134437380D01*
X157448571Y-134437380D01*
X157543809Y-134389761D01*
X157591428Y-134342142D01*
X157639047Y-134246904D01*
X157639047Y-134056428D01*
X157591428Y-133961190D01*
X157543809Y-133913571D01*
X157448571Y-133865952D01*
X158496190Y-133770714D02*
X158496190Y-134437380D01*
X158067619Y-133770714D02*
X158067619Y-134294523D01*
X158115238Y-134389761D01*
X158210476Y-134437380D01*
X158353333Y-134437380D01*
X158448571Y-134389761D01*
X158496190Y-134342142D01*
X159305714Y-133913571D02*
X158972380Y-133913571D01*
X158972380Y-134437380D02*
X158972380Y-133437380D01*
X159448571Y-133437380D01*
X157353333Y-132437142D02*
X157305714Y-132484761D01*
X157162857Y-132532380D01*
X157067619Y-132532380D01*
X156924761Y-132484761D01*
X156829523Y-132389523D01*
X156781904Y-132294285D01*
X156734285Y-132103809D01*
X156734285Y-131960952D01*
X156781904Y-131770476D01*
X156829523Y-131675238D01*
X156924761Y-131580000D01*
X157067619Y-131532380D01*
X157162857Y-131532380D01*
X157305714Y-131580000D01*
X157353333Y-131627619D01*
X157686666Y-131532380D02*
X158353333Y-131532380D01*
X157924761Y-132532380D01*
X155837142Y-129627380D02*
X155932380Y-129627380D01*
X156027619Y-129675000D01*
X156075238Y-129722619D01*
X156122857Y-129817857D01*
X156170476Y-130008333D01*
X156170476Y-130246428D01*
X156122857Y-130436904D01*
X156075238Y-130532142D01*
X156027619Y-130579761D01*
X155932380Y-130627380D01*
X155837142Y-130627380D01*
X155741904Y-130579761D01*
X155694285Y-130532142D01*
X155646666Y-130436904D01*
X155599047Y-130246428D01*
X155599047Y-130008333D01*
X155646666Y-129817857D01*
X155694285Y-129722619D01*
X155741904Y-129675000D01*
X155837142Y-129627380D01*
X156599047Y-130532142D02*
X156646666Y-130579761D01*
X156599047Y-130627380D01*
X156551428Y-130579761D01*
X156599047Y-130532142D01*
X156599047Y-130627380D01*
X157599047Y-130627380D02*
X157027619Y-130627380D01*
X157313333Y-130627380D02*
X157313333Y-129627380D01*
X157218095Y-129770238D01*
X157122857Y-129865476D01*
X157027619Y-129913095D01*
X158456190Y-129960714D02*
X158456190Y-130627380D01*
X158027619Y-129960714D02*
X158027619Y-130484523D01*
X158075238Y-130579761D01*
X158170476Y-130627380D01*
X158313333Y-130627380D01*
X158408571Y-130579761D01*
X158456190Y-130532142D01*
X159265714Y-130103571D02*
X158932380Y-130103571D01*
X158932380Y-130627380D02*
X158932380Y-129627380D01*
X159408571Y-129627380D01*
X144653333Y-137517142D02*
X144605714Y-137564761D01*
X144462857Y-137612380D01*
X144367619Y-137612380D01*
X144224761Y-137564761D01*
X144129523Y-137469523D01*
X144081904Y-137374285D01*
X144034285Y-137183809D01*
X144034285Y-137040952D01*
X144081904Y-136850476D01*
X144129523Y-136755238D01*
X144224761Y-136660000D01*
X144367619Y-136612380D01*
X144462857Y-136612380D01*
X144605714Y-136660000D01*
X144653333Y-136707619D01*
X145558095Y-136612380D02*
X145081904Y-136612380D01*
X145034285Y-137088571D01*
X145081904Y-137040952D01*
X145177142Y-136993333D01*
X145415238Y-136993333D01*
X145510476Y-137040952D01*
X145558095Y-137088571D01*
X145605714Y-137183809D01*
X145605714Y-137421904D01*
X145558095Y-137517142D01*
X145510476Y-137564761D01*
X145415238Y-137612380D01*
X145177142Y-137612380D01*
X145081904Y-137564761D01*
X145034285Y-137517142D01*
X143415238Y-133437380D02*
X143224761Y-133437380D01*
X143129523Y-133485000D01*
X143081904Y-133532619D01*
X142986666Y-133675476D01*
X142939047Y-133865952D01*
X142939047Y-134246904D01*
X142986666Y-134342142D01*
X143034285Y-134389761D01*
X143129523Y-134437380D01*
X143320000Y-134437380D01*
X143415238Y-134389761D01*
X143462857Y-134342142D01*
X143510476Y-134246904D01*
X143510476Y-134008809D01*
X143462857Y-133913571D01*
X143415238Y-133865952D01*
X143320000Y-133818333D01*
X143129523Y-133818333D01*
X143034285Y-133865952D01*
X142986666Y-133913571D01*
X142939047Y-134008809D01*
X143939047Y-134342142D02*
X143986666Y-134389761D01*
X143939047Y-134437380D01*
X143891428Y-134389761D01*
X143939047Y-134342142D01*
X143939047Y-134437380D01*
X144558095Y-133865952D02*
X144462857Y-133818333D01*
X144415238Y-133770714D01*
X144367619Y-133675476D01*
X144367619Y-133627857D01*
X144415238Y-133532619D01*
X144462857Y-133485000D01*
X144558095Y-133437380D01*
X144748571Y-133437380D01*
X144843809Y-133485000D01*
X144891428Y-133532619D01*
X144939047Y-133627857D01*
X144939047Y-133675476D01*
X144891428Y-133770714D01*
X144843809Y-133818333D01*
X144748571Y-133865952D01*
X144558095Y-133865952D01*
X144462857Y-133913571D01*
X144415238Y-133961190D01*
X144367619Y-134056428D01*
X144367619Y-134246904D01*
X144415238Y-134342142D01*
X144462857Y-134389761D01*
X144558095Y-134437380D01*
X144748571Y-134437380D01*
X144843809Y-134389761D01*
X144891428Y-134342142D01*
X144939047Y-134246904D01*
X144939047Y-134056428D01*
X144891428Y-133961190D01*
X144843809Y-133913571D01*
X144748571Y-133865952D01*
X145796190Y-133770714D02*
X145796190Y-134437380D01*
X145367619Y-133770714D02*
X145367619Y-134294523D01*
X145415238Y-134389761D01*
X145510476Y-134437380D01*
X145653333Y-134437380D01*
X145748571Y-134389761D01*
X145796190Y-134342142D01*
X146605714Y-133913571D02*
X146272380Y-133913571D01*
X146272380Y-134437380D02*
X146272380Y-133437380D01*
X146748571Y-133437380D01*
X170053333Y-137517142D02*
X170005714Y-137564761D01*
X169862857Y-137612380D01*
X169767619Y-137612380D01*
X169624761Y-137564761D01*
X169529523Y-137469523D01*
X169481904Y-137374285D01*
X169434285Y-137183809D01*
X169434285Y-137040952D01*
X169481904Y-136850476D01*
X169529523Y-136755238D01*
X169624761Y-136660000D01*
X169767619Y-136612380D01*
X169862857Y-136612380D01*
X170005714Y-136660000D01*
X170053333Y-136707619D01*
X171005714Y-137612380D02*
X170434285Y-137612380D01*
X170720000Y-137612380D02*
X170720000Y-136612380D01*
X170624761Y-136755238D01*
X170529523Y-136850476D01*
X170434285Y-136898095D01*
X168815238Y-133437380D02*
X168624761Y-133437380D01*
X168529523Y-133485000D01*
X168481904Y-133532619D01*
X168386666Y-133675476D01*
X168339047Y-133865952D01*
X168339047Y-134246904D01*
X168386666Y-134342142D01*
X168434285Y-134389761D01*
X168529523Y-134437380D01*
X168720000Y-134437380D01*
X168815238Y-134389761D01*
X168862857Y-134342142D01*
X168910476Y-134246904D01*
X168910476Y-134008809D01*
X168862857Y-133913571D01*
X168815238Y-133865952D01*
X168720000Y-133818333D01*
X168529523Y-133818333D01*
X168434285Y-133865952D01*
X168386666Y-133913571D01*
X168339047Y-134008809D01*
X169339047Y-134342142D02*
X169386666Y-134389761D01*
X169339047Y-134437380D01*
X169291428Y-134389761D01*
X169339047Y-134342142D01*
X169339047Y-134437380D01*
X169958095Y-133865952D02*
X169862857Y-133818333D01*
X169815238Y-133770714D01*
X169767619Y-133675476D01*
X169767619Y-133627857D01*
X169815238Y-133532619D01*
X169862857Y-133485000D01*
X169958095Y-133437380D01*
X170148571Y-133437380D01*
X170243809Y-133485000D01*
X170291428Y-133532619D01*
X170339047Y-133627857D01*
X170339047Y-133675476D01*
X170291428Y-133770714D01*
X170243809Y-133818333D01*
X170148571Y-133865952D01*
X169958095Y-133865952D01*
X169862857Y-133913571D01*
X169815238Y-133961190D01*
X169767619Y-134056428D01*
X169767619Y-134246904D01*
X169815238Y-134342142D01*
X169862857Y-134389761D01*
X169958095Y-134437380D01*
X170148571Y-134437380D01*
X170243809Y-134389761D01*
X170291428Y-134342142D01*
X170339047Y-134246904D01*
X170339047Y-134056428D01*
X170291428Y-133961190D01*
X170243809Y-133913571D01*
X170148571Y-133865952D01*
X171196190Y-133770714D02*
X171196190Y-134437380D01*
X170767619Y-133770714D02*
X170767619Y-134294523D01*
X170815238Y-134389761D01*
X170910476Y-134437380D01*
X171053333Y-134437380D01*
X171148571Y-134389761D01*
X171196190Y-134342142D01*
X172005714Y-133913571D02*
X171672380Y-133913571D01*
X171672380Y-134437380D02*
X171672380Y-133437380D01*
X172148571Y-133437380D01*
D12*
X172490000Y-133150000D02*
X167950000Y-133150000D01*
X172490000Y-131025000D02*
X172490000Y-131010000D01*
X172490000Y-133150000D02*
X172490000Y-133135000D01*
X167950000Y-133150000D02*
X167950000Y-133135000D01*
X167950000Y-131025000D02*
X167950000Y-131010000D01*
X172490000Y-131010000D02*
X167950000Y-131010000D01*
G36*
X115030645Y-79289591D02*
G01*
X115106680Y-79289906D01*
X115167901Y-79290478D01*
X115215582Y-79291346D01*
X115250996Y-79292548D01*
X115275416Y-79294123D01*
X115290117Y-79296110D01*
X115296371Y-79298546D01*
X115296538Y-79300346D01*
X115288493Y-79312492D01*
X115273563Y-79334321D01*
X115254843Y-79361311D01*
X115253108Y-79363796D01*
X115209358Y-79432943D01*
X115167861Y-79510439D01*
X115133255Y-79587436D01*
X115125936Y-79606343D01*
X115113563Y-79642061D01*
X115100692Y-79683303D01*
X115088504Y-79725759D01*
X115078180Y-79765119D01*
X115070900Y-79797073D01*
X115067844Y-79817311D01*
X115067816Y-79818532D01*
X115061796Y-79828052D01*
X115044674Y-79848154D01*
X115017862Y-79877439D01*
X114982772Y-79914505D01*
X114940813Y-79957954D01*
X114893396Y-80006385D01*
X114841934Y-80058400D01*
X114787836Y-80112597D01*
X114732513Y-80167578D01*
X114677377Y-80221943D01*
X114623838Y-80274292D01*
X114573307Y-80323225D01*
X114527196Y-80367343D01*
X114486914Y-80405246D01*
X114453874Y-80435534D01*
X114429485Y-80456807D01*
X114415159Y-80467666D01*
X114412373Y-80468782D01*
X114390774Y-80466805D01*
X114369013Y-80464464D01*
X114291079Y-80455458D01*
X114227492Y-80448164D01*
X114175357Y-80442261D01*
X114131779Y-80437427D01*
X114093864Y-80433340D01*
X114058716Y-80429678D01*
X114030462Y-80426820D01*
X113987797Y-80422417D01*
X113948165Y-80418088D01*
X113916816Y-80414419D01*
X113902420Y-80412529D01*
X113869867Y-80407791D01*
X113869867Y-79620891D01*
X113902420Y-79616152D01*
X113924651Y-79613318D01*
X113958914Y-79609415D01*
X113999954Y-79605027D01*
X114030462Y-79601925D01*
X114082369Y-79596532D01*
X114142018Y-79589977D01*
X114199929Y-79583313D01*
X114225780Y-79580207D01*
X114275838Y-79574408D01*
X114329312Y-79568754D01*
X114378277Y-79564060D01*
X114402320Y-79562034D01*
X114438289Y-79558244D01*
X114465435Y-79553417D01*
X114480136Y-79548264D01*
X114481677Y-79546493D01*
X114489428Y-79520768D01*
X114501049Y-79484974D01*
X114514895Y-79443887D01*
X114529318Y-79402284D01*
X114542674Y-79364942D01*
X114553315Y-79336637D01*
X114557531Y-79326388D01*
X114573824Y-79289495D01*
X114938523Y-79289495D01*
X115030645Y-79289591D01*
G37*
G36*
X117860386Y-78362344D02*
G01*
X117926412Y-78428691D01*
X117984650Y-78487914D01*
X118034359Y-78539228D01*
X118074798Y-78581850D01*
X118105226Y-78614993D01*
X118124901Y-78637875D01*
X118133081Y-78649709D01*
X118133157Y-78651026D01*
X118125559Y-78660655D01*
X118109029Y-78681371D01*
X118085523Y-78710735D01*
X118056999Y-78746313D01*
X118025413Y-78785668D01*
X117992723Y-78826363D01*
X117960885Y-78865962D01*
X117931857Y-78902029D01*
X117907595Y-78932128D01*
X117890056Y-78953821D01*
X117881763Y-78963995D01*
X117870205Y-78978179D01*
X117850996Y-79001974D01*
X117827322Y-79031426D01*
X117813303Y-79048917D01*
X117759234Y-79116447D01*
X117805728Y-79209481D01*
X117825311Y-79249476D01*
X117843017Y-79287103D01*
X117856741Y-79317804D01*
X117863810Y-79335341D01*
X117875397Y-79368166D01*
X117624038Y-79619637D01*
X117569643Y-79673923D01*
X117519023Y-79724185D01*
X117473496Y-79769133D01*
X117434381Y-79807478D01*
X117402993Y-79837931D01*
X117380652Y-79859202D01*
X117368674Y-79870003D01*
X117367041Y-79871108D01*
X117359518Y-79864224D01*
X117356134Y-79857376D01*
X117351758Y-79837365D01*
X117350865Y-79824288D01*
X117348187Y-79802138D01*
X117340934Y-79767975D01*
X117330275Y-79726170D01*
X117317381Y-79681092D01*
X117303420Y-79637113D01*
X117292529Y-79606343D01*
X117262099Y-79532207D01*
X117228524Y-79465571D01*
X117188988Y-79399904D01*
X117151207Y-79341038D01*
X117151207Y-78431895D01*
X117179847Y-78407123D01*
X117205112Y-78385779D01*
X117233846Y-78362197D01*
X117242783Y-78355018D01*
X117259658Y-78341504D01*
X117287517Y-78319119D01*
X117323834Y-78289896D01*
X117366081Y-78255870D01*
X117411733Y-78219073D01*
X117428898Y-78205230D01*
X117580717Y-78082774D01*
X117860386Y-78362344D01*
G37*
G36*
X116607529Y-77707420D02*
G01*
X116610364Y-77729651D01*
X116614266Y-77763914D01*
X116618654Y-77804954D01*
X116621757Y-77835462D01*
X116627149Y-77887369D01*
X116633705Y-77947018D01*
X116640369Y-78004929D01*
X116643475Y-78030780D01*
X116649273Y-78080838D01*
X116654928Y-78134312D01*
X116659622Y-78183277D01*
X116661648Y-78207320D01*
X116665438Y-78243289D01*
X116670264Y-78270435D01*
X116675418Y-78285136D01*
X116677188Y-78286677D01*
X116702913Y-78294428D01*
X116738708Y-78306049D01*
X116779794Y-78319895D01*
X116821397Y-78334318D01*
X116858739Y-78347674D01*
X116887044Y-78358315D01*
X116897294Y-78362531D01*
X116934187Y-78378824D01*
X116934187Y-78743011D01*
X116934137Y-78820622D01*
X116933994Y-78892574D01*
X116933770Y-78957074D01*
X116933473Y-79012329D01*
X116933117Y-79056546D01*
X116932710Y-79087930D01*
X116932264Y-79104690D01*
X116932017Y-79107030D01*
X116924435Y-79102347D01*
X116905792Y-79089881D01*
X116879270Y-79071776D01*
X116860400Y-79058755D01*
X116744310Y-78988675D01*
X116618706Y-78932275D01*
X116485993Y-78890608D01*
X116465424Y-78885648D01*
X116400318Y-78870563D01*
X116076944Y-78548359D01*
X115753569Y-78226154D01*
X115758419Y-78182722D01*
X115761397Y-78156377D01*
X115765754Y-78118232D01*
X115770868Y-78073732D01*
X115775327Y-78035120D01*
X115781396Y-77981411D01*
X115787918Y-77921621D01*
X115793925Y-77864705D01*
X115796900Y-77835462D01*
X115801287Y-77792796D01*
X115805603Y-77753163D01*
X115809265Y-77721815D01*
X115811152Y-77707420D01*
X115815891Y-77674867D01*
X116602791Y-77674867D01*
X116607529Y-77707420D01*
G37*
G36*
X118033143Y-79562576D02*
G01*
X118062968Y-79565882D01*
X118104141Y-79570542D01*
X118150770Y-79575885D01*
X118188562Y-79580261D01*
X118242268Y-79586358D01*
X118302055Y-79592902D01*
X118358969Y-79598922D01*
X118388220Y-79601900D01*
X118430885Y-79606287D01*
X118470518Y-79610603D01*
X118501867Y-79614265D01*
X118516261Y-79616152D01*
X118548814Y-79620891D01*
X118548814Y-80407791D01*
X118516261Y-80412529D01*
X118494030Y-80415364D01*
X118459768Y-80419266D01*
X118418727Y-80423654D01*
X118388220Y-80426757D01*
X118336312Y-80432149D01*
X118276664Y-80438705D01*
X118218753Y-80445369D01*
X118192902Y-80448475D01*
X118142843Y-80454273D01*
X118089369Y-80459928D01*
X118040404Y-80464622D01*
X118016362Y-80466648D01*
X117980411Y-80470436D01*
X117953259Y-80475262D01*
X117938536Y-80480413D01*
X117936983Y-80482188D01*
X117927236Y-80514643D01*
X117913543Y-80556966D01*
X117898054Y-80602770D01*
X117882917Y-80645666D01*
X117873156Y-80671911D01*
X117850603Y-80730506D01*
X117487884Y-80730506D01*
X117410427Y-80730415D01*
X117338625Y-80730156D01*
X117274278Y-80729748D01*
X117219183Y-80729211D01*
X117175137Y-80728563D01*
X117143940Y-80727825D01*
X117127387Y-80727016D01*
X117125164Y-80726582D01*
X117129786Y-80718113D01*
X117142032Y-80699212D01*
X117159474Y-80673602D01*
X117163742Y-80667471D01*
X117209905Y-80594605D01*
X117252866Y-80514100D01*
X117288020Y-80434711D01*
X117292745Y-80422338D01*
X117306314Y-80383143D01*
X117319879Y-80339289D01*
X117332274Y-80295114D01*
X117342337Y-80254955D01*
X117348903Y-80223149D01*
X117350865Y-80205809D01*
X117357001Y-80194983D01*
X117375443Y-80172569D01*
X117406242Y-80138513D01*
X117449450Y-80092761D01*
X117505118Y-80035258D01*
X117573298Y-79965950D01*
X117654041Y-79884783D01*
X117666379Y-79872442D01*
X117981894Y-79557016D01*
X118033143Y-79562576D01*
G37*
G36*
X115057335Y-80156527D02*
G01*
X115062414Y-80175466D01*
X115063458Y-80181446D01*
X115091590Y-80313415D01*
X115133231Y-80439660D01*
X115187255Y-80557138D01*
X115229190Y-80628462D01*
X115267475Y-80687644D01*
X115267475Y-81596787D01*
X115238834Y-81621558D01*
X115213552Y-81642902D01*
X115184804Y-81666459D01*
X115175898Y-81673595D01*
X115158701Y-81687331D01*
X115130625Y-81709827D01*
X115094317Y-81738961D01*
X115052424Y-81772607D01*
X115007593Y-81808643D01*
X114998370Y-81816060D01*
X114955303Y-81850679D01*
X114916548Y-81881793D01*
X114884245Y-81907690D01*
X114860529Y-81926657D01*
X114847539Y-81936981D01*
X114846026Y-81938157D01*
X114837847Y-81933764D01*
X114818372Y-81917643D01*
X114788388Y-81890534D01*
X114748678Y-81853179D01*
X114700026Y-81806320D01*
X114643218Y-81750697D01*
X114579038Y-81687053D01*
X114557344Y-81665386D01*
X114277774Y-81385717D01*
X114400082Y-81233898D01*
X114436335Y-81188922D01*
X114469636Y-81147653D01*
X114498196Y-81112306D01*
X114520226Y-81085094D01*
X114533936Y-81068231D01*
X114536850Y-81064686D01*
X114548433Y-81050508D01*
X114567666Y-81026712D01*
X114591363Y-80997248D01*
X114605473Y-80979647D01*
X114659637Y-80912000D01*
X114621355Y-80836444D01*
X114601361Y-80796217D01*
X114581356Y-80754696D01*
X114564746Y-80718989D01*
X114560364Y-80709176D01*
X114537653Y-80657463D01*
X114791829Y-80403178D01*
X114846554Y-80348573D01*
X114897531Y-80297987D01*
X114943445Y-80252702D01*
X114982985Y-80213999D01*
X115014836Y-80183163D01*
X115037687Y-80161474D01*
X115050224Y-80150216D01*
X115052177Y-80148893D01*
X115057335Y-80156527D01*
G37*
G36*
X117343051Y-80947937D02*
G01*
X117789245Y-80948347D01*
X117828309Y-80997643D01*
X117849961Y-81024886D01*
X117869167Y-81048910D01*
X117881763Y-81064508D01*
X117892877Y-81078210D01*
X117912148Y-81102100D01*
X117937640Y-81133769D01*
X117967418Y-81170806D01*
X117999547Y-81210801D01*
X118032093Y-81251344D01*
X118063121Y-81290025D01*
X118090696Y-81324434D01*
X118112883Y-81352160D01*
X118127746Y-81370794D01*
X118133157Y-81377656D01*
X118128764Y-81385835D01*
X118112643Y-81405309D01*
X118085534Y-81435294D01*
X118048179Y-81475004D01*
X118001320Y-81523655D01*
X117945697Y-81580463D01*
X117882053Y-81644643D01*
X117860386Y-81666337D01*
X117580717Y-81945908D01*
X117428898Y-81823599D01*
X117383922Y-81787347D01*
X117342653Y-81754046D01*
X117307306Y-81725486D01*
X117280094Y-81703456D01*
X117263231Y-81689745D01*
X117259686Y-81686832D01*
X117245508Y-81675249D01*
X117221712Y-81656016D01*
X117192248Y-81632318D01*
X117174647Y-81618208D01*
X117107000Y-81564045D01*
X117031444Y-81602326D01*
X116991514Y-81622184D01*
X116950580Y-81641928D01*
X116915601Y-81658220D01*
X116905820Y-81662591D01*
X116855751Y-81684575D01*
X116599007Y-81428269D01*
X116544277Y-81373448D01*
X116493722Y-81322451D01*
X116448595Y-81276568D01*
X116410146Y-81237090D01*
X116379630Y-81205304D01*
X116358297Y-81182503D01*
X116347402Y-81169976D01*
X116346269Y-81167957D01*
X116356287Y-81164624D01*
X116378511Y-81159860D01*
X116405679Y-81155102D01*
X116534993Y-81125751D01*
X116662178Y-81079530D01*
X116786033Y-81016905D01*
X116830885Y-80989601D01*
X116896858Y-80947526D01*
X117343051Y-80947937D01*
G37*
G36*
X115507492Y-80935189D02*
G01*
X115529321Y-80950119D01*
X115556311Y-80968838D01*
X115558796Y-80970574D01*
X115627943Y-81014323D01*
X115705439Y-81055821D01*
X115782436Y-81090426D01*
X115801343Y-81097745D01*
X115837061Y-81110119D01*
X115878303Y-81122990D01*
X115920759Y-81135177D01*
X115960119Y-81145502D01*
X115992073Y-81152782D01*
X116012311Y-81155837D01*
X116013532Y-81155865D01*
X116022124Y-81161842D01*
X116041736Y-81179008D01*
X116071174Y-81206216D01*
X116109240Y-81242318D01*
X116154740Y-81286168D01*
X116206477Y-81336618D01*
X116263255Y-81392520D01*
X116323880Y-81452728D01*
X116346620Y-81475441D01*
X116666108Y-81795016D01*
X116660761Y-81842204D01*
X116657565Y-81870214D01*
X116653018Y-81909812D01*
X116647772Y-81955338D01*
X116643354Y-81993562D01*
X116637285Y-82047271D01*
X116630764Y-82107060D01*
X116624756Y-82163977D01*
X116621782Y-82193220D01*
X116617394Y-82235885D01*
X116613078Y-82275518D01*
X116609417Y-82306867D01*
X116607529Y-82321261D01*
X116602791Y-82353814D01*
X115815891Y-82353814D01*
X115811152Y-82321261D01*
X115808318Y-82299030D01*
X115804415Y-82264768D01*
X115800027Y-82223727D01*
X115796925Y-82193220D01*
X115791532Y-82141312D01*
X115784977Y-82081664D01*
X115778313Y-82023753D01*
X115775207Y-81997902D01*
X115769408Y-81947843D01*
X115763754Y-81894369D01*
X115759060Y-81845404D01*
X115757034Y-81821362D01*
X115753244Y-81785393D01*
X115748417Y-81758247D01*
X115743264Y-81743545D01*
X115741493Y-81742004D01*
X115715768Y-81734254D01*
X115679974Y-81722632D01*
X115638887Y-81708787D01*
X115597284Y-81694363D01*
X115559942Y-81681008D01*
X115531637Y-81670367D01*
X115521388Y-81666151D01*
X115484495Y-81649858D01*
X115484495Y-81285158D01*
X115484591Y-81193036D01*
X115484906Y-81117002D01*
X115485478Y-81055781D01*
X115486346Y-81008100D01*
X115487548Y-80972686D01*
X115489123Y-80948265D01*
X115491110Y-80933565D01*
X115493546Y-80927310D01*
X115495346Y-80927143D01*
X115507492Y-80935189D01*
G37*
G36*
X115690479Y-79687170D02*
G01*
X115735915Y-79608627D01*
X115795703Y-79534349D01*
X115814365Y-79514742D01*
X115887627Y-79449793D01*
X115965991Y-79399972D01*
X116053082Y-79363108D01*
X116083393Y-79353691D01*
X116121888Y-79343276D01*
X116153279Y-79336919D01*
X116183898Y-79333961D01*
X116220080Y-79333736D01*
X116260094Y-79335209D01*
X116336080Y-79342002D01*
X116401180Y-79355862D01*
X116461005Y-79378449D01*
X116521167Y-79411419D01*
X116524036Y-79413214D01*
X116589465Y-79464327D01*
X116645304Y-79528467D01*
X116689966Y-79603253D01*
X116721860Y-79686304D01*
X116731162Y-79723534D01*
X116737673Y-79766089D01*
X116741166Y-79814630D01*
X116741775Y-79864999D01*
X116739633Y-79913038D01*
X116734876Y-79954590D01*
X116727636Y-79985497D01*
X116722355Y-79996905D01*
X116708086Y-80018681D01*
X115909853Y-80018681D01*
X115910158Y-80055575D01*
X115918673Y-80138333D01*
X115942001Y-80215712D01*
X115978917Y-80285660D01*
X116028197Y-80346123D01*
X116088617Y-80395049D01*
X116124920Y-80415690D01*
X116153396Y-80429478D01*
X116175778Y-80438715D01*
X116196826Y-80444312D01*
X116221302Y-80447181D01*
X116253966Y-80448233D01*
X116295685Y-80448380D01*
X116341502Y-80448056D01*
X116374514Y-80446620D01*
X116399274Y-80443375D01*
X116420332Y-80437626D01*
X116442242Y-80428676D01*
X116451023Y-80424626D01*
X116487029Y-80404771D01*
X116528747Y-80377265D01*
X116570452Y-80346290D01*
X116606418Y-80316027D01*
X116625194Y-80297417D01*
X116642853Y-80283128D01*
X116661374Y-80281219D01*
X116684019Y-80292277D01*
X116709209Y-80312542D01*
X116746888Y-80345979D01*
X116716836Y-80395656D01*
X116658496Y-80476246D01*
X116589021Y-80544289D01*
X116509735Y-80598702D01*
X116421965Y-80638405D01*
X116417349Y-80639994D01*
X116381336Y-80651109D01*
X116347676Y-80658480D01*
X116310496Y-80662992D01*
X116263925Y-80665533D01*
X116244064Y-80666126D01*
X116198101Y-80666519D01*
X116153701Y-80665520D01*
X116116441Y-80663331D01*
X116094948Y-80660755D01*
X116023983Y-80642088D01*
X115950402Y-80612187D01*
X115881505Y-80574074D01*
X115874732Y-80569647D01*
X115805831Y-80513628D01*
X115747071Y-80444762D01*
X115699009Y-80364683D01*
X115662204Y-80275020D01*
X115637215Y-80177408D01*
X115624601Y-80073477D01*
X115624920Y-79964859D01*
X115635605Y-79871108D01*
X115637564Y-79862427D01*
X115909523Y-79862427D01*
X116146240Y-79862378D01*
X116212461Y-79862044D01*
X116273483Y-79861122D01*
X116326809Y-79859695D01*
X116369943Y-79857846D01*
X116400387Y-79855656D01*
X116414617Y-79853536D01*
X116446190Y-79838391D01*
X116466398Y-79812702D01*
X116476229Y-79774768D01*
X116477557Y-79745236D01*
X116468583Y-79683517D01*
X116443921Y-79626158D01*
X116405132Y-79575575D01*
X116353782Y-79534184D01*
X116333402Y-79522458D01*
X116288130Y-79506932D01*
X116234764Y-79501305D01*
X116179386Y-79505451D01*
X116128078Y-79519245D01*
X116110764Y-79527067D01*
X116053567Y-79565970D01*
X116003713Y-79618330D01*
X115963478Y-79680999D01*
X115935141Y-79750827D01*
X115927611Y-79780233D01*
X115921280Y-79809636D01*
X115915773Y-79834802D01*
X115913962Y-79842895D01*
X115909523Y-79862427D01*
X115637564Y-79862427D01*
X115657630Y-79773491D01*
X115690479Y-79687170D01*
G37*
G36*
X114891039Y-78124436D02*
G01*
X114912745Y-78141380D01*
X114944924Y-78166852D01*
X114984637Y-78198493D01*
X115028947Y-78233943D01*
X115074915Y-78270845D01*
X115119603Y-78306837D01*
X115160074Y-78339561D01*
X115193389Y-78366657D01*
X115216609Y-78385766D01*
X115219660Y-78388318D01*
X115236377Y-78401992D01*
X115260250Y-78421099D01*
X115275881Y-78433454D01*
X115314670Y-78463942D01*
X115375710Y-78430960D01*
X115415563Y-78410444D01*
X115461624Y-78388224D01*
X115503994Y-78369075D01*
X115504406Y-78368898D01*
X115572062Y-78339817D01*
X115827765Y-78595411D01*
X115882525Y-78650287D01*
X115933271Y-78701411D01*
X115978723Y-78747474D01*
X116017603Y-78787168D01*
X116048632Y-78819185D01*
X116070533Y-78842216D01*
X116082025Y-78854953D01*
X116083469Y-78857038D01*
X116075716Y-78861601D01*
X116055983Y-78866453D01*
X116042235Y-78868664D01*
X116006307Y-78875141D01*
X115959734Y-78885772D01*
X115908279Y-78899030D01*
X115857702Y-78913387D01*
X115813765Y-78927316D01*
X115793640Y-78934578D01*
X115741897Y-78956823D01*
X115684151Y-78985198D01*
X115628039Y-79015761D01*
X115583425Y-79043083D01*
X115539123Y-79072475D01*
X114618412Y-79072475D01*
X114604990Y-79051991D01*
X114590597Y-79032040D01*
X114579957Y-79019438D01*
X114570649Y-79008665D01*
X114552724Y-78987006D01*
X114528383Y-78957155D01*
X114499828Y-78921803D01*
X114484895Y-78903199D01*
X114451581Y-78861657D01*
X114418064Y-78819937D01*
X114387702Y-78782214D01*
X114363853Y-78752662D01*
X114358627Y-78746208D01*
X114335144Y-78716827D01*
X114313527Y-78689078D01*
X114298185Y-78668627D01*
X114297374Y-78667494D01*
X114278937Y-78641602D01*
X114837775Y-78083540D01*
X114891039Y-78124436D01*
G37*
X94680000Y-110220000D02*
X93280000Y-110220000D01*
X93280000Y-108220000D02*
X94680000Y-108220000D01*
X95380000Y-108920000D02*
X95380000Y-109520000D01*
X92580000Y-109520000D02*
X92580000Y-108920000D01*
X92580000Y-109520000D02*
G75*
G03*
X93280000Y-110220000I699999J-1D01*
G01*
X94680000Y-110220000D02*
G75*
G03*
X95380000Y-109520000I1J699999D01*
G01*
X95380000Y-108920000D02*
G75*
G03*
X94680000Y-108220000I-699999J1D01*
G01*
X93280000Y-108220000D02*
G75*
G03*
X92580000Y-108920000I-1J-699999D01*
G01*
X142550000Y-131025000D02*
X142550000Y-131010000D01*
X147090000Y-131010000D02*
X142550000Y-131010000D01*
X147090000Y-131025000D02*
X147090000Y-131010000D01*
X147090000Y-133150000D02*
X142550000Y-133150000D01*
X147090000Y-133150000D02*
X147090000Y-133135000D01*
X142550000Y-133150000D02*
X142550000Y-133135000D01*
X155207712Y-135600000D02*
X155207712Y-136050000D01*
X154982712Y-135825000D02*
X155432712Y-135825000D01*
X155400259Y-138220000D02*
G75*
G03*
X159639741Y-138220000I2119741J1060001D01*
G01*
X159639741Y-136100000D02*
G75*
G03*
X155400259Y-136100000I-2119741J-1060001D01*
G01*
X155250000Y-133150000D02*
X159790000Y-133150000D01*
X155250000Y-133135000D02*
X155250000Y-133150000D01*
X155250000Y-131010000D02*
X155250000Y-131025000D01*
X159790000Y-131010000D02*
X159790000Y-131025000D01*
X155250000Y-131010000D02*
X159790000Y-131010000D01*
X159790000Y-133135000D02*
X159790000Y-133150000D01*
X85404000Y-74870000D02*
X85404000Y-125790000D01*
X80204000Y-125790000D02*
X85404000Y-125790000D01*
X80204000Y-74870000D02*
X81534000Y-74870000D01*
X82804000Y-77470000D02*
X82804000Y-74870000D01*
X80204000Y-77470000D02*
X82804000Y-77470000D01*
X82804000Y-74870000D02*
X85404000Y-74870000D01*
X80204000Y-77470000D02*
X80204000Y-125790000D01*
X80204000Y-76200000D02*
X80204000Y-74870000D01*
X147357288Y-138495000D02*
X146907288Y-138495000D01*
X147132288Y-138720000D02*
X147132288Y-138270000D01*
X142700259Y-138220000D02*
G75*
G03*
X146939741Y-138220000I2119741J1060001D01*
G01*
X146939741Y-136100000D02*
G75*
G03*
X142700259Y-136100000I-2119741J-1060001D01*
G01*
X172757288Y-138495000D02*
X172307288Y-138495000D01*
X172532288Y-138720000D02*
X172532288Y-138270000D01*
X168100259Y-138220000D02*
G75*
G03*
X172339741Y-138220000I2119741J1060001D01*
G01*
X172339741Y-136100000D02*
G75*
G03*
X168100259Y-136100000I-2119741J-1060001D01*
G01*
%LPC*%
D13*
X172720000Y-132080000D03*
X167720000Y-132080000D03*
D14*
X192985000Y-95660000D03*
X192985000Y-98200000D03*
X192985000Y-100740000D03*
X192985000Y-103280000D03*
X192985000Y-105820000D03*
X192985000Y-108360000D03*
X192985000Y-110900000D03*
X192985000Y-113440000D03*
X192985000Y-115980000D03*
X192985000Y-118520000D03*
X192985000Y-121060000D03*
X192985000Y-123600000D03*
X192985000Y-126140000D03*
X192985000Y-128680000D03*
X192985000Y-131220000D03*
D15*
X93330000Y-109220000D03*
D16*
X94630000Y-109220000D03*
D13*
X147320000Y-132080000D03*
X142320000Y-132080000D03*
D17*
X155020000Y-137160000D03*
D13*
X160020000Y-137160000D03*
X155020000Y-132080000D03*
X160020000Y-132080000D03*
D18*
X81534000Y-76200000D03*
D19*
X84074000Y-76200000D03*
X81534000Y-78740000D03*
X84074000Y-78740000D03*
X81534000Y-81280000D03*
X84074000Y-81280000D03*
X81534000Y-83820000D03*
X84074000Y-83820000D03*
X81534000Y-86360000D03*
X84074000Y-86360000D03*
X81534000Y-88900000D03*
X84074000Y-88900000D03*
X81534000Y-91440000D03*
X84074000Y-91440000D03*
X81534000Y-93980000D03*
X84074000Y-93980000D03*
X81534000Y-96520000D03*
X84074000Y-96520000D03*
X81534000Y-99060000D03*
X84074000Y-99060000D03*
X81534000Y-101600000D03*
X84074000Y-101600000D03*
X81534000Y-104140000D03*
X84074000Y-104140000D03*
X81534000Y-106680000D03*
X84074000Y-106680000D03*
X81534000Y-109220000D03*
X84074000Y-109220000D03*
X81534000Y-111760000D03*
X84074000Y-111760000D03*
X81534000Y-114300000D03*
X84074000Y-114300000D03*
X81534000Y-116840000D03*
X84074000Y-116840000D03*
X81534000Y-119380000D03*
X84074000Y-119380000D03*
X81534000Y-121920000D03*
X84074000Y-121920000D03*
X81534000Y-124460000D03*
X84074000Y-124460000D03*
D17*
X147320000Y-137160000D03*
D13*
X142320000Y-137160000D03*
D17*
X172720000Y-137160000D03*
D13*
X167720000Y-137160000D03*
D14*
X66015000Y-123075700D03*
X66015000Y-120535700D03*
X66015000Y-117995700D03*
X66015000Y-115455700D03*
X66015000Y-112915700D03*
X66015000Y-110375700D03*
X66015000Y-107835700D03*
X66015000Y-105295700D03*
X66015000Y-102755700D03*
X66015000Y-100215700D03*
X66015000Y-97675700D03*
X66015000Y-95135700D03*
X66015000Y-92595700D03*
X66015000Y-90055700D03*
X66015000Y-87515700D03*
M02*
