M48
; DRILL file {KiCad (6.0.0)} date Wed Nov  9 00:44:28 2022
; FORMAT={-:-/ absolute / metric / decimal}
; #@! TF.CreationDate,2022-11-09T00:44:28-05:00
; #@! TF.GenerationSoftware,Kicad,Pcbnew,(6.0.0)
; #@! TF.FileFunction,Plated,1,2,PTH
FMAT,2
METRIC
; #@! TA.AperFunction,Plated,PTH,ViaDrill
T1C0.400
; #@! TA.AperFunction,Plated,PTH,ComponentDrill
T2C0.800
; #@! TA.AperFunction,Plated,PTH,ComponentDrill
T3C1.000
%
G90
G05
T1
X71.755Y-121.285
X75.565Y-119.38
X92.075Y-109.22
X92.71Y-121.92
X94.615Y-119.38
X184.56Y-126.14
T2
X142.32Y-132.08
X142.32Y-137.16
X147.32Y-132.08
X147.32Y-137.16
X155.02Y-132.08
X155.02Y-137.16
X160.02Y-132.08
X160.02Y-137.16
X167.72Y-132.08
X167.72Y-137.16
X172.72Y-132.08
X172.72Y-137.16
T3
X81.534Y-76.2
X81.534Y-78.74
X81.534Y-81.28
X81.534Y-83.82
X81.534Y-86.36
X81.534Y-88.9
X81.534Y-91.44
X81.534Y-93.98
X81.534Y-96.52
X81.534Y-99.06
X81.534Y-101.6
X81.534Y-104.14
X81.534Y-106.68
X81.534Y-109.22
X81.534Y-111.76
X81.534Y-114.3
X81.534Y-116.84
X81.534Y-119.38
X81.534Y-121.92
X81.534Y-124.46
X84.074Y-76.2
X84.074Y-78.74
X84.074Y-81.28
X84.074Y-83.82
X84.074Y-86.36
X84.074Y-88.9
X84.074Y-91.44
X84.074Y-93.98
X84.074Y-96.52
X84.074Y-99.06
X84.074Y-101.6
X84.074Y-104.14
X84.074Y-106.68
X84.074Y-109.22
X84.074Y-111.76
X84.074Y-114.3
X84.074Y-116.84
X84.074Y-119.38
X84.074Y-121.92
X84.074Y-124.46
T0
M30
