G04 #@! TF.GenerationSoftware,KiCad,Pcbnew,(6.0.0)*
G04 #@! TF.CreationDate,2022-11-09T00:44:27-05:00*
G04 #@! TF.ProjectId,Sorcerer Rom Pack to Ribbon,536f7263-6572-4657-9220-526f6d205061,rev?*
G04 #@! TF.SameCoordinates,Original*
G04 #@! TF.FileFunction,Soldermask,Top*
G04 #@! TF.FilePolarity,Negative*
%FSLAX46Y46*%
G04 Gerber Fmt 4.6, Leading zero omitted, Abs format (unit mm)*
G04 Created by KiCad (PCBNEW (6.0.0)) date 2022-11-09 00:44:27*
%MOMM*%
%LPD*%
G01*
G04 APERTURE LIST*
G04 Aperture macros list*
%AMFreePoly0*
4,1,22,0.500000,-0.750000,0.000000,-0.750000,0.000000,-0.745033,-0.079941,-0.743568,-0.215256,-0.701293,-0.333266,-0.622738,-0.424486,-0.514219,-0.481581,-0.384460,-0.499164,-0.250000,-0.500000,-0.250000,-0.500000,0.250000,-0.499164,0.250000,-0.499963,0.256109,-0.478152,0.396186,-0.417904,0.524511,-0.324060,0.630769,-0.204165,0.706417,-0.067858,0.745374,0.000000,0.744959,0.000000,0.750000,
0.500000,0.750000,0.500000,-0.750000,0.500000,-0.750000,$1*%
%AMFreePoly1*
4,1,20,0.000000,0.744959,0.073905,0.744508,0.209726,0.703889,0.328688,0.626782,0.421226,0.519385,0.479903,0.390333,0.500000,0.250000,0.500000,-0.250000,0.499851,-0.262216,0.476331,-0.402017,0.414519,-0.529596,0.319384,-0.634700,0.198574,-0.708877,0.061801,-0.746166,0.000000,-0.745033,0.000000,-0.750000,-0.500000,-0.750000,-0.500000,0.750000,0.000000,0.750000,0.000000,0.744959,
0.000000,0.744959,$1*%
G04 Aperture macros list end*
%ADD10C,1.600000*%
%ADD11R,7.600000X1.270000*%
%ADD12FreePoly0,0.000000*%
%ADD13FreePoly1,0.000000*%
%ADD14R,1.600000X1.600000*%
%ADD15R,1.700000X1.700000*%
%ADD16O,1.700000X1.700000*%
G04 APERTURE END LIST*
D10*
X172720000Y-132080000D03*
X167720000Y-132080000D03*
D11*
X192985000Y-95660000D03*
X192985000Y-98200000D03*
X192985000Y-100740000D03*
X192985000Y-103280000D03*
X192985000Y-105820000D03*
X192985000Y-108360000D03*
X192985000Y-110900000D03*
X192985000Y-113440000D03*
X192985000Y-115980000D03*
X192985000Y-118520000D03*
X192985000Y-121060000D03*
X192985000Y-123600000D03*
X192985000Y-126140000D03*
X192985000Y-128680000D03*
X192985000Y-131220000D03*
D12*
X93330000Y-109220000D03*
D13*
X94630000Y-109220000D03*
D10*
X147320000Y-132080000D03*
X142320000Y-132080000D03*
D14*
X155020000Y-137160000D03*
D10*
X160020000Y-137160000D03*
X155020000Y-132080000D03*
X160020000Y-132080000D03*
D15*
X81534000Y-76200000D03*
D16*
X84074000Y-76200000D03*
X81534000Y-78740000D03*
X84074000Y-78740000D03*
X81534000Y-81280000D03*
X84074000Y-81280000D03*
X81534000Y-83820000D03*
X84074000Y-83820000D03*
X81534000Y-86360000D03*
X84074000Y-86360000D03*
X81534000Y-88900000D03*
X84074000Y-88900000D03*
X81534000Y-91440000D03*
X84074000Y-91440000D03*
X81534000Y-93980000D03*
X84074000Y-93980000D03*
X81534000Y-96520000D03*
X84074000Y-96520000D03*
X81534000Y-99060000D03*
X84074000Y-99060000D03*
X81534000Y-101600000D03*
X84074000Y-101600000D03*
X81534000Y-104140000D03*
X84074000Y-104140000D03*
X81534000Y-106680000D03*
X84074000Y-106680000D03*
X81534000Y-109220000D03*
X84074000Y-109220000D03*
X81534000Y-111760000D03*
X84074000Y-111760000D03*
X81534000Y-114300000D03*
X84074000Y-114300000D03*
X81534000Y-116840000D03*
X84074000Y-116840000D03*
X81534000Y-119380000D03*
X84074000Y-119380000D03*
X81534000Y-121920000D03*
X84074000Y-121920000D03*
X81534000Y-124460000D03*
X84074000Y-124460000D03*
D14*
X147320000Y-137160000D03*
D10*
X142320000Y-137160000D03*
D14*
X172720000Y-137160000D03*
D10*
X167720000Y-137160000D03*
D11*
X66015000Y-123075700D03*
X66015000Y-120535700D03*
X66015000Y-117995700D03*
X66015000Y-115455700D03*
X66015000Y-112915700D03*
X66015000Y-110375700D03*
X66015000Y-107835700D03*
X66015000Y-105295700D03*
X66015000Y-102755700D03*
X66015000Y-100215700D03*
X66015000Y-97675700D03*
X66015000Y-95135700D03*
X66015000Y-92595700D03*
X66015000Y-90055700D03*
X66015000Y-87515700D03*
M02*
