M48
; DRILL file {KiCad (6.0.0)} date Wed Nov  9 00:51:08 2022
; FORMAT={-:-/ absolute / metric / decimal}
; #@! TF.CreationDate,2022-11-09T00:51:08-05:00
; #@! TF.GenerationSoftware,Kicad,Pcbnew,(6.0.0)
; #@! TF.FileFunction,Plated,1,2,PTH
FMAT,2
METRIC
; #@! TA.AperFunction,Plated,PTH,ViaDrill
T1C0.400
; #@! TA.AperFunction,Plated,PTH,ComponentDrill
T2C0.800
; #@! TA.AperFunction,Plated,PTH,ComponentDrill
T3C1.000
; #@! TA.AperFunction,Plated,PTH,ComponentDrill
T4C1.700
; #@! TA.AperFunction,Plated,PTH,ComponentDrill
T5C2.600
%
G90
G05
T1
X114.3Y-72.136
X114.808Y-74.422
X115.062Y-66.294
X115.392Y-69.926
X119.634Y-64.008
X126.238Y-74.168
T2
X119.38Y-86.929
X119.38Y-88.929
T3
X115.966Y-55.753
X118.506Y-55.753
X121.046Y-55.753
T4
X132.226Y-66.802
T5
X132.226Y-61.802
X132.226Y-71.802
X136.726Y-66.802
T2
X132.378Y-75.962G85X131.678Y-75.962
G05
X132.378Y-78.462G85X131.678Y-78.462
G05
X132.378Y-83.462G85X131.678Y-83.462
G05
X132.378Y-85.962G85X131.678Y-85.962
G05
X137.028Y-81.312G85X137.028Y-80.612
G05
T0
M30
