G04 #@! TF.GenerationSoftware,KiCad,Pcbnew,(6.0.0)*
G04 #@! TF.CreationDate,2022-11-09T00:51:05-05:00*
G04 #@! TF.ProjectId,Arrington 4 voice equivalent SMD,41727269-6e67-4746-9f6e-203420766f69,rev?*
G04 #@! TF.SameCoordinates,Original*
G04 #@! TF.FileFunction,Copper,L1,Top*
G04 #@! TF.FilePolarity,Positive*
%FSLAX46Y46*%
G04 Gerber Fmt 4.6, Leading zero omitted, Abs format (unit mm)*
G04 Created by KiCad (PCBNEW (6.0.0)) date 2022-11-09 00:51:05*
%MOMM*%
%LPD*%
G01*
G04 APERTURE LIST*
G04 Aperture macros list*
%AMRoundRect*
0 Rectangle with rounded corners*
0 $1 Rounding radius*
0 $2 $3 $4 $5 $6 $7 $8 $9 X,Y pos of 4 corners*
0 Add a 4 corners polygon primitive as box body*
4,1,4,$2,$3,$4,$5,$6,$7,$8,$9,$2,$3,0*
0 Add four circle primitives for the rounded corners*
1,1,$1+$1,$2,$3*
1,1,$1+$1,$4,$5*
1,1,$1+$1,$6,$7*
1,1,$1+$1,$8,$9*
0 Add four rect primitives between the rounded corners*
20,1,$1+$1,$2,$3,$4,$5,0*
20,1,$1+$1,$4,$5,$6,$7,0*
20,1,$1+$1,$6,$7,$8,$9,0*
20,1,$1+$1,$8,$9,$2,$3,0*%
G04 Aperture macros list end*
G04 #@! TA.AperFunction,SMDPad,CuDef*
%ADD10RoundRect,0.200000X0.275000X-0.200000X0.275000X0.200000X-0.275000X0.200000X-0.275000X-0.200000X0*%
G04 #@! TD*
G04 #@! TA.AperFunction,ComponentPad*
%ADD11C,3.616000*%
G04 #@! TD*
G04 #@! TA.AperFunction,ComponentPad*
%ADD12C,2.550000*%
G04 #@! TD*
G04 #@! TA.AperFunction,SMDPad,CuDef*
%ADD13RoundRect,0.200000X-0.275000X0.200000X-0.275000X-0.200000X0.275000X-0.200000X0.275000X0.200000X0*%
G04 #@! TD*
G04 #@! TA.AperFunction,SMDPad,CuDef*
%ADD14RoundRect,0.150000X0.150000X-0.825000X0.150000X0.825000X-0.150000X0.825000X-0.150000X-0.825000X0*%
G04 #@! TD*
G04 #@! TA.AperFunction,ComponentPad*
%ADD15O,1.308000X2.616000*%
G04 #@! TD*
G04 #@! TA.AperFunction,ComponentPad*
%ADD16O,2.616000X1.308000*%
G04 #@! TD*
G04 #@! TA.AperFunction,SMDPad,CuDef*
%ADD17RoundRect,0.200000X0.200000X0.275000X-0.200000X0.275000X-0.200000X-0.275000X0.200000X-0.275000X0*%
G04 #@! TD*
G04 #@! TA.AperFunction,SMDPad,CuDef*
%ADD18R,3.480000X1.846667*%
G04 #@! TD*
G04 #@! TA.AperFunction,ComponentPad*
%ADD19R,1.700000X1.700000*%
G04 #@! TD*
G04 #@! TA.AperFunction,ComponentPad*
%ADD20O,1.700000X1.700000*%
G04 #@! TD*
G04 #@! TA.AperFunction,SMDPad,CuDef*
%ADD21RoundRect,0.225000X-0.250000X0.225000X-0.250000X-0.225000X0.250000X-0.225000X0.250000X0.225000X0*%
G04 #@! TD*
G04 #@! TA.AperFunction,ComponentPad*
%ADD22R,1.600000X1.600000*%
G04 #@! TD*
G04 #@! TA.AperFunction,ComponentPad*
%ADD23C,1.600000*%
G04 #@! TD*
G04 #@! TA.AperFunction,ViaPad*
%ADD24C,0.800000*%
G04 #@! TD*
G04 #@! TA.AperFunction,Conductor*
%ADD25C,0.400000*%
G04 #@! TD*
G04 APERTURE END LIST*
D10*
X122428000Y-80835000D03*
X122428000Y-79185000D03*
X124968000Y-80835000D03*
X124968000Y-79185000D03*
D11*
X132226000Y-71802000D03*
X132226000Y-61802000D03*
X136726000Y-66802000D03*
D12*
X132226000Y-66802000D03*
D10*
X126746000Y-87693000D03*
X126746000Y-86043000D03*
D13*
X123698000Y-67501000D03*
X123698000Y-69151000D03*
D14*
X118618000Y-76643000D03*
X119888000Y-76643000D03*
X121158000Y-76643000D03*
X122428000Y-76643000D03*
X123698000Y-76643000D03*
X124968000Y-76643000D03*
X126238000Y-76643000D03*
X126238000Y-71693000D03*
X124968000Y-71693000D03*
X123698000Y-71693000D03*
X122428000Y-71693000D03*
X121158000Y-71693000D03*
X119888000Y-71693000D03*
X118618000Y-71693000D03*
D15*
X137028000Y-80962500D03*
D16*
X132028000Y-75962500D03*
X132028000Y-85962500D03*
X132028000Y-78462500D03*
X132028000Y-83462500D03*
D13*
X118364000Y-67501000D03*
X118364000Y-69151000D03*
D17*
X124777000Y-89154000D03*
X123127000Y-89154000D03*
D10*
X119888000Y-80835000D03*
X119888000Y-79185000D03*
D18*
X111737500Y-56913000D03*
X111737500Y-59683000D03*
X111737500Y-62453000D03*
X111737500Y-65223000D03*
X111737500Y-67993000D03*
X111737500Y-70763000D03*
X111737500Y-73533000D03*
X111737500Y-76303000D03*
X111737500Y-79073000D03*
X111737500Y-81843000D03*
X111737500Y-84613000D03*
X111737500Y-87383000D03*
X111737500Y-90153000D03*
D19*
X115966000Y-55753000D03*
D20*
X118506000Y-55753000D03*
X121046000Y-55753000D03*
D21*
X126746000Y-89649000D03*
X126746000Y-91199000D03*
D22*
X119380000Y-86928888D03*
D23*
X119380000Y-88928888D03*
D13*
X126238000Y-67501000D03*
X126238000Y-69151000D03*
X121158000Y-67501000D03*
X121158000Y-69151000D03*
D24*
X126238000Y-74168000D03*
X115062000Y-66294000D03*
X115391699Y-69925699D03*
X119634000Y-64008000D03*
X114300000Y-72136000D03*
X114808000Y-74422000D03*
D25*
X133077521Y-79512021D02*
X132028000Y-78462500D01*
X132028000Y-78462500D02*
X132028000Y-75962500D01*
X130018489Y-73952989D02*
X130018489Y-69009511D01*
X133077521Y-82412979D02*
X133077521Y-79512021D01*
X132028000Y-83462500D02*
X133077521Y-82412979D01*
X126746000Y-89649000D02*
X126746000Y-89154000D01*
X132028000Y-85962500D02*
X132028000Y-83462500D01*
X131001000Y-87693000D02*
X132028000Y-86666000D01*
X126746000Y-89154000D02*
X126746000Y-87693000D01*
X132028000Y-86666000D02*
X132028000Y-85962500D01*
X132028000Y-75962500D02*
X130018489Y-73952989D01*
X130018489Y-69009511D02*
X132226000Y-66802000D01*
X126746000Y-87693000D02*
X131001000Y-87693000D01*
X124777000Y-89154000D02*
X126746000Y-89154000D01*
X122428000Y-80835000D02*
X124968000Y-80835000D01*
X119380000Y-86928888D02*
X119380000Y-81343000D01*
X123698000Y-67501000D02*
X126238000Y-67501000D01*
X119380000Y-81343000D02*
X119888000Y-80835000D01*
X118364000Y-67501000D02*
X121158000Y-67501000D01*
X119888000Y-80835000D02*
X122428000Y-80835000D01*
X124968000Y-80835000D02*
X127112520Y-78690480D01*
X127112520Y-68375520D02*
X126238000Y-67501000D01*
X121158000Y-67501000D02*
X123698000Y-67501000D01*
X127112520Y-78690480D02*
X127112520Y-68375520D01*
X122901888Y-88928888D02*
X123127000Y-89154000D01*
X119380000Y-88928888D02*
X122901888Y-88928888D01*
X114863000Y-65223000D02*
X111737500Y-65223000D01*
X115966000Y-55753000D02*
X115966000Y-64120000D01*
X115966000Y-64120000D02*
X114863000Y-65223000D01*
X114046000Y-69596000D02*
X112443000Y-67993000D01*
X116587370Y-73067520D02*
X115739925Y-72220075D01*
X121535618Y-73067520D02*
X116587370Y-73067520D01*
X115739925Y-71597396D02*
X114879498Y-70736969D01*
X114046000Y-70736969D02*
X114046000Y-69596000D01*
X114879498Y-70736969D02*
X114046000Y-70736969D01*
X122428000Y-71693000D02*
X122428000Y-72175138D01*
X112443000Y-67993000D02*
X111737500Y-67993000D01*
X115739925Y-72220075D02*
X115739925Y-71597396D01*
X122428000Y-72175138D02*
X121535618Y-73067520D01*
X124452960Y-73667040D02*
X116339040Y-73667040D01*
X112310989Y-71336489D02*
X111737500Y-70763000D01*
X115099511Y-72427511D02*
X115099511Y-71804831D01*
X114631169Y-71336489D02*
X112310989Y-71336489D01*
X124968000Y-71693000D02*
X124968000Y-73152000D01*
X124968000Y-73152000D02*
X124452960Y-73667040D01*
X116339040Y-73667040D02*
X115099511Y-72427511D01*
X115099511Y-71804831D02*
X114631169Y-71336489D01*
X111737500Y-73533000D02*
X112395000Y-73533000D01*
X118299000Y-76962000D02*
X118618000Y-76643000D01*
X112395000Y-73533000D02*
X115824000Y-76962000D01*
X115824000Y-76962000D02*
X118299000Y-76962000D01*
X118618000Y-69405000D02*
X118364000Y-69151000D01*
X115062000Y-69596000D02*
X115391699Y-69925699D01*
X118618000Y-71693000D02*
X118618000Y-69405000D01*
X118618000Y-69925699D02*
X118618000Y-71693000D01*
X115391699Y-69925699D02*
X118618000Y-69925699D01*
X115062000Y-66294000D02*
X115062000Y-69596000D01*
X121046000Y-62596000D02*
X119634000Y-64008000D01*
X121046000Y-55753000D02*
X121046000Y-62596000D01*
X116078000Y-74561320D02*
X114300000Y-72783320D01*
X123698000Y-76643000D02*
X123698000Y-75692000D01*
X114300000Y-72783320D02*
X114300000Y-72136000D01*
X116078000Y-74584480D02*
X116078000Y-74561320D01*
X122590480Y-74584480D02*
X117094000Y-74584480D01*
X117094000Y-74584480D02*
X116078000Y-74584480D01*
X123698000Y-75692000D02*
X122590480Y-74584480D01*
X115570000Y-75184000D02*
X114808000Y-74422000D01*
X121158000Y-76160862D02*
X120181138Y-75184000D01*
X121158000Y-76643000D02*
X121158000Y-76160862D01*
X120181138Y-75184000D02*
X115570000Y-75184000D01*
X119888000Y-76643000D02*
X119888000Y-79185000D01*
X122428000Y-76643000D02*
X122428000Y-79185000D01*
X126238000Y-71693000D02*
X126238000Y-69151000D01*
X124968000Y-76643000D02*
X124968000Y-79185000D01*
X123698000Y-71693000D02*
X123698000Y-69151000D01*
X121158000Y-71693000D02*
X121158000Y-69151000D01*
X117348000Y-56911000D02*
X118506000Y-55753000D01*
X119888000Y-71693000D02*
X119888000Y-69352151D01*
X119888000Y-69352151D02*
X118836369Y-68300520D01*
X118836369Y-68300520D02*
X117840671Y-68300520D01*
X117348000Y-67807849D02*
X117348000Y-56911000D01*
X117840671Y-68300520D02*
X117348000Y-67807849D01*
G04 #@! TA.AperFunction,Conductor*
G36*
X135482057Y-53976500D02*
G01*
X135496858Y-53978805D01*
X135496861Y-53978805D01*
X135505730Y-53980186D01*
X135526639Y-53977452D01*
X135548176Y-53976496D01*
X135735261Y-53984234D01*
X135957760Y-53993437D01*
X135968138Y-53994297D01*
X136242263Y-54028466D01*
X136405682Y-54048837D01*
X136415947Y-54050549D01*
X136530388Y-54074545D01*
X136847491Y-54141035D01*
X136857586Y-54143591D01*
X137280194Y-54269407D01*
X137290036Y-54272785D01*
X137700830Y-54433078D01*
X137710329Y-54437245D01*
X138079246Y-54617598D01*
X138106466Y-54630905D01*
X138115622Y-54635860D01*
X138274499Y-54730530D01*
X138494403Y-54861564D01*
X138503122Y-54867260D01*
X138861971Y-55123474D01*
X138870189Y-55129870D01*
X139206668Y-55414853D01*
X139214329Y-55421907D01*
X139526093Y-55733671D01*
X139533147Y-55741332D01*
X139818130Y-56077811D01*
X139824526Y-56086029D01*
X140080740Y-56444878D01*
X140086436Y-56453597D01*
X140312139Y-56832376D01*
X140317094Y-56841532D01*
X140510672Y-57237500D01*
X140510751Y-57237662D01*
X140514922Y-57247170D01*
X140623541Y-57525535D01*
X140675212Y-57657956D01*
X140678593Y-57667806D01*
X140804409Y-58090414D01*
X140806965Y-58100509D01*
X140838555Y-58251167D01*
X140895211Y-58521370D01*
X140897450Y-58532050D01*
X140899164Y-58542322D01*
X140953703Y-58979862D01*
X140954563Y-58990240D01*
X140971195Y-59392361D01*
X140969803Y-59416951D01*
X140969196Y-59420853D01*
X140967814Y-59429730D01*
X140968978Y-59438631D01*
X140968978Y-59438636D01*
X140972063Y-59462223D01*
X140973126Y-59478180D01*
X141000672Y-68578133D01*
X141019671Y-74854285D01*
X141019999Y-74962803D01*
X141020000Y-74963184D01*
X141020000Y-78328500D01*
X140999998Y-78396621D01*
X140946342Y-78443114D01*
X140894000Y-78454500D01*
X140336702Y-78454500D01*
X140335932Y-78454498D01*
X140335078Y-78454493D01*
X140258348Y-78454024D01*
X140249719Y-78456490D01*
X140249714Y-78456491D01*
X140229952Y-78462139D01*
X140213191Y-78465717D01*
X140192848Y-78468630D01*
X140192838Y-78468633D01*
X140183955Y-78469905D01*
X140160605Y-78480521D01*
X140143093Y-78486964D01*
X140130200Y-78490649D01*
X140118435Y-78494012D01*
X140093452Y-78509774D01*
X140078386Y-78517904D01*
X140051490Y-78530133D01*
X140032061Y-78546874D01*
X140017053Y-78557979D01*
X139995369Y-78571660D01*
X139989427Y-78578388D01*
X139975819Y-78593796D01*
X139963627Y-78605840D01*
X139941253Y-78625119D01*
X139936374Y-78632647D01*
X139936371Y-78632650D01*
X139927304Y-78646639D01*
X139916014Y-78661513D01*
X139899044Y-78680728D01*
X139886490Y-78707466D01*
X139878176Y-78722435D01*
X139862107Y-78747227D01*
X139859535Y-78755827D01*
X139854761Y-78771790D01*
X139848099Y-78789236D01*
X139837201Y-78812448D01*
X139835820Y-78821321D01*
X139832658Y-78841628D01*
X139828874Y-78858349D01*
X139822986Y-78878036D01*
X139822985Y-78878039D01*
X139820413Y-78886641D01*
X139820358Y-78895616D01*
X139820358Y-78895617D01*
X139820203Y-78921046D01*
X139820170Y-78921828D01*
X139820000Y-78922923D01*
X139820000Y-78953798D01*
X139819998Y-78954568D01*
X139819524Y-79032152D01*
X139819908Y-79033496D01*
X139820000Y-79034841D01*
X139820000Y-82953798D01*
X139819998Y-82954568D01*
X139819524Y-83032152D01*
X139821990Y-83040781D01*
X139821991Y-83040786D01*
X139827639Y-83060548D01*
X139831217Y-83077309D01*
X139834130Y-83097652D01*
X139834133Y-83097662D01*
X139835405Y-83106545D01*
X139846021Y-83129895D01*
X139852464Y-83147407D01*
X139859512Y-83172065D01*
X139875274Y-83197048D01*
X139883404Y-83212114D01*
X139895633Y-83239010D01*
X139912374Y-83258439D01*
X139923479Y-83273447D01*
X139937160Y-83295131D01*
X139943888Y-83301073D01*
X139959296Y-83314681D01*
X139971340Y-83326873D01*
X139990619Y-83349247D01*
X139998147Y-83354126D01*
X139998150Y-83354129D01*
X140012139Y-83363196D01*
X140027013Y-83374486D01*
X140046228Y-83391456D01*
X140054354Y-83395271D01*
X140054355Y-83395272D01*
X140060021Y-83397932D01*
X140072966Y-83404010D01*
X140087935Y-83412324D01*
X140112727Y-83428393D01*
X140121327Y-83430965D01*
X140137290Y-83435739D01*
X140154736Y-83442401D01*
X140177948Y-83453299D01*
X140207130Y-83457843D01*
X140223849Y-83461626D01*
X140243536Y-83467514D01*
X140243539Y-83467515D01*
X140252141Y-83470087D01*
X140261116Y-83470142D01*
X140261117Y-83470142D01*
X140267810Y-83470183D01*
X140286556Y-83470297D01*
X140287328Y-83470330D01*
X140288423Y-83470500D01*
X140319298Y-83470500D01*
X140320068Y-83470502D01*
X140393716Y-83470952D01*
X140393717Y-83470952D01*
X140397652Y-83470976D01*
X140398996Y-83470592D01*
X140400341Y-83470500D01*
X140894000Y-83470500D01*
X140962121Y-83490502D01*
X141008614Y-83544158D01*
X141020000Y-83596500D01*
X141020000Y-86940198D01*
X141019689Y-86949048D01*
X140985581Y-87433474D01*
X140976165Y-87567200D01*
X140974978Y-87577721D01*
X140967814Y-87623730D01*
X140970548Y-87644639D01*
X140971504Y-87666179D01*
X140954563Y-88075760D01*
X140953703Y-88086138D01*
X140925587Y-88311701D01*
X140909767Y-88438619D01*
X140899164Y-88523678D01*
X140897451Y-88533947D01*
X140893448Y-88553038D01*
X140806965Y-88965491D01*
X140804409Y-88975586D01*
X140678593Y-89398194D01*
X140675215Y-89408036D01*
X140514922Y-89818830D01*
X140510755Y-89828329D01*
X140335280Y-90187268D01*
X140317095Y-90224466D01*
X140312139Y-90233624D01*
X140086436Y-90612403D01*
X140080740Y-90621122D01*
X139824526Y-90979971D01*
X139818130Y-90988189D01*
X139533147Y-91324668D01*
X139526093Y-91332329D01*
X139214329Y-91644093D01*
X139206668Y-91651147D01*
X138870189Y-91936130D01*
X138861971Y-91942526D01*
X138503122Y-92198740D01*
X138494403Y-92204436D01*
X138197587Y-92381300D01*
X138115624Y-92430139D01*
X138106468Y-92435094D01*
X137710329Y-92628755D01*
X137700830Y-92632922D01*
X137290036Y-92793215D01*
X137280194Y-92796593D01*
X136857586Y-92922409D01*
X136847491Y-92924965D01*
X136559770Y-92985294D01*
X136415947Y-93015451D01*
X136405682Y-93017163D01*
X136242263Y-93037534D01*
X135968138Y-93071703D01*
X135957760Y-93072563D01*
X135555639Y-93089195D01*
X135531049Y-93087803D01*
X135527147Y-93087196D01*
X135527145Y-93087196D01*
X135518270Y-93085814D01*
X135509368Y-93086978D01*
X135509365Y-93086978D01*
X135486749Y-93089936D01*
X135470411Y-93091000D01*
X110362000Y-93091000D01*
X110293879Y-93070998D01*
X110247386Y-93017342D01*
X110236000Y-92965000D01*
X110236000Y-91710833D01*
X110256002Y-91642712D01*
X110309658Y-91596219D01*
X110362000Y-91584833D01*
X113525634Y-91584833D01*
X113587816Y-91578078D01*
X113724205Y-91526948D01*
X113800940Y-91469438D01*
X125763000Y-91469438D01*
X125763337Y-91475953D01*
X125772894Y-91568057D01*
X125775788Y-91581456D01*
X125825381Y-91730107D01*
X125831555Y-91743286D01*
X125913788Y-91876173D01*
X125922824Y-91887574D01*
X126033429Y-91997986D01*
X126044840Y-92006998D01*
X126177880Y-92089004D01*
X126191061Y-92095151D01*
X126339814Y-92144491D01*
X126353190Y-92147358D01*
X126444097Y-92156672D01*
X126450513Y-92157000D01*
X126473885Y-92157000D01*
X126489124Y-92152525D01*
X126490329Y-92151135D01*
X126492000Y-92143452D01*
X126492000Y-92138885D01*
X127000000Y-92138885D01*
X127004475Y-92154124D01*
X127005865Y-92155329D01*
X127013548Y-92157000D01*
X127041438Y-92157000D01*
X127047953Y-92156663D01*
X127140057Y-92147106D01*
X127153456Y-92144212D01*
X127302107Y-92094619D01*
X127315286Y-92088445D01*
X127448173Y-92006212D01*
X127459574Y-91997176D01*
X127569986Y-91886571D01*
X127578998Y-91875160D01*
X127661004Y-91742120D01*
X127667151Y-91728939D01*
X127716491Y-91580186D01*
X127719358Y-91566810D01*
X127728672Y-91475903D01*
X127728929Y-91470874D01*
X127724525Y-91455876D01*
X127723135Y-91454671D01*
X127715452Y-91453000D01*
X127018115Y-91453000D01*
X127002876Y-91457475D01*
X127001671Y-91458865D01*
X127000000Y-91466548D01*
X127000000Y-92138885D01*
X126492000Y-92138885D01*
X126492000Y-91471115D01*
X126487525Y-91455876D01*
X126486135Y-91454671D01*
X126478452Y-91453000D01*
X125781115Y-91453000D01*
X125765876Y-91457475D01*
X125764671Y-91458865D01*
X125763000Y-91466548D01*
X125763000Y-91469438D01*
X113800940Y-91469438D01*
X113840761Y-91439594D01*
X113928115Y-91323038D01*
X113979245Y-91186649D01*
X113986000Y-91124467D01*
X113986000Y-89181533D01*
X113979245Y-89119351D01*
X113928115Y-88982962D01*
X113840761Y-88866406D01*
X113833581Y-88861025D01*
X113829651Y-88857095D01*
X113795625Y-88794783D01*
X113800690Y-88723968D01*
X113829651Y-88678905D01*
X113833581Y-88674975D01*
X113840761Y-88669594D01*
X113928115Y-88553038D01*
X113979245Y-88416649D01*
X113986000Y-88354467D01*
X113986000Y-86411533D01*
X113979245Y-86349351D01*
X113928115Y-86212962D01*
X113840761Y-86096406D01*
X113833581Y-86091025D01*
X113829651Y-86087095D01*
X113795625Y-86024783D01*
X113800690Y-85953968D01*
X113829651Y-85908905D01*
X113833581Y-85904975D01*
X113840761Y-85899594D01*
X113928115Y-85783038D01*
X113979245Y-85646649D01*
X113986000Y-85584467D01*
X113986000Y-83641533D01*
X113979245Y-83579351D01*
X113928115Y-83442962D01*
X113840761Y-83326406D01*
X113833581Y-83321025D01*
X113829651Y-83317095D01*
X113795625Y-83254783D01*
X113800690Y-83183968D01*
X113829651Y-83138905D01*
X113833581Y-83134975D01*
X113840761Y-83129594D01*
X113928115Y-83013038D01*
X113979245Y-82876649D01*
X113986000Y-82814467D01*
X113986000Y-80871533D01*
X113979245Y-80809351D01*
X113928115Y-80672962D01*
X113840761Y-80556406D01*
X113833581Y-80551025D01*
X113829651Y-80547095D01*
X113795625Y-80484783D01*
X113800690Y-80413968D01*
X113829651Y-80368905D01*
X113833581Y-80364975D01*
X113840761Y-80359594D01*
X113928115Y-80243038D01*
X113979245Y-80106649D01*
X113986000Y-80044467D01*
X113986000Y-78101533D01*
X113979245Y-78039351D01*
X113928115Y-77902962D01*
X113840761Y-77786406D01*
X113833581Y-77781025D01*
X113829651Y-77777095D01*
X113795625Y-77714783D01*
X113800690Y-77643968D01*
X113829651Y-77598905D01*
X113833581Y-77594975D01*
X113840761Y-77589594D01*
X113928115Y-77473038D01*
X113979245Y-77336649D01*
X113986000Y-77274467D01*
X113986000Y-76430161D01*
X114006002Y-76362040D01*
X114059658Y-76315547D01*
X114129932Y-76305443D01*
X114194512Y-76334937D01*
X114201095Y-76341066D01*
X115302557Y-77442528D01*
X115308411Y-77448793D01*
X115322118Y-77464505D01*
X115346439Y-77492385D01*
X115398729Y-77529136D01*
X115403971Y-77533028D01*
X115454282Y-77572476D01*
X115461201Y-77575600D01*
X115463493Y-77576988D01*
X115478165Y-77585357D01*
X115480525Y-77586622D01*
X115486739Y-77590990D01*
X115493818Y-77593750D01*
X115493820Y-77593751D01*
X115546275Y-77614202D01*
X115552344Y-77616753D01*
X115610573Y-77643045D01*
X115618046Y-77644430D01*
X115620612Y-77645234D01*
X115636835Y-77649855D01*
X115639427Y-77650520D01*
X115646509Y-77653282D01*
X115654044Y-77654274D01*
X115709861Y-77661622D01*
X115716377Y-77662654D01*
X115754770Y-77669770D01*
X115779186Y-77674295D01*
X115786766Y-77673858D01*
X115786767Y-77673858D01*
X115841380Y-77670709D01*
X115848633Y-77670500D01*
X117750851Y-77670500D01*
X117818972Y-77690502D01*
X117859304Y-77732360D01*
X117943547Y-77874807D01*
X118061193Y-77992453D01*
X118068017Y-77996489D01*
X118068020Y-77996491D01*
X118127982Y-78031952D01*
X118204399Y-78077145D01*
X118212010Y-78079356D01*
X118212012Y-78079357D01*
X118239625Y-78087379D01*
X118364169Y-78123562D01*
X118370574Y-78124066D01*
X118370579Y-78124067D01*
X118399042Y-78126307D01*
X118399050Y-78126307D01*
X118401498Y-78126500D01*
X118834502Y-78126500D01*
X118836950Y-78126307D01*
X118836958Y-78126307D01*
X118865421Y-78124067D01*
X118865426Y-78124066D01*
X118871831Y-78123562D01*
X118878007Y-78121768D01*
X118878011Y-78121767D01*
X119018348Y-78080996D01*
X119089344Y-78081199D01*
X119148960Y-78119753D01*
X119178268Y-78184418D01*
X119179500Y-78201993D01*
X119179500Y-78364290D01*
X119159498Y-78432411D01*
X119142595Y-78453385D01*
X119051361Y-78544619D01*
X118962528Y-78691301D01*
X118960257Y-78698548D01*
X118960256Y-78698550D01*
X118946852Y-78741322D01*
X118911247Y-78854938D01*
X118904500Y-78928365D01*
X118904501Y-79441634D01*
X118904764Y-79444492D01*
X118904764Y-79444501D01*
X118906234Y-79460499D01*
X118911247Y-79515062D01*
X118913246Y-79521440D01*
X118913246Y-79521441D01*
X118945700Y-79625000D01*
X118962528Y-79678699D01*
X119051361Y-79825381D01*
X119146885Y-79920905D01*
X119180911Y-79983217D01*
X119175846Y-80054032D01*
X119146885Y-80099095D01*
X119051361Y-80194619D01*
X118962528Y-80341301D01*
X118911247Y-80504938D01*
X118904500Y-80578365D01*
X118904500Y-80760270D01*
X118884498Y-80828391D01*
X118861331Y-80855218D01*
X118855339Y-80860445D01*
X118855336Y-80860448D01*
X118849615Y-80865439D01*
X118819630Y-80908104D01*
X118812872Y-80917719D01*
X118808939Y-80923014D01*
X118769524Y-80973282D01*
X118766401Y-80980198D01*
X118765017Y-80982484D01*
X118756643Y-80997165D01*
X118755378Y-80999525D01*
X118751010Y-81005739D01*
X118748250Y-81012818D01*
X118748249Y-81012820D01*
X118727798Y-81065275D01*
X118725247Y-81071344D01*
X118698955Y-81129573D01*
X118697571Y-81137040D01*
X118696770Y-81139595D01*
X118692141Y-81155848D01*
X118691478Y-81158428D01*
X118688718Y-81165509D01*
X118687727Y-81173040D01*
X118687726Y-81173042D01*
X118680379Y-81228852D01*
X118679348Y-81235359D01*
X118667704Y-81298186D01*
X118668141Y-81305766D01*
X118668141Y-81305767D01*
X118671291Y-81360392D01*
X118671500Y-81367646D01*
X118671500Y-85494388D01*
X118651498Y-85562509D01*
X118597842Y-85609002D01*
X118545500Y-85620388D01*
X118531866Y-85620388D01*
X118469684Y-85627143D01*
X118333295Y-85678273D01*
X118216739Y-85765627D01*
X118129385Y-85882183D01*
X118078255Y-86018572D01*
X118071500Y-86080754D01*
X118071500Y-87777022D01*
X118078255Y-87839204D01*
X118129385Y-87975593D01*
X118216739Y-88092149D01*
X118223919Y-88097530D01*
X118230269Y-88103880D01*
X118228029Y-88106120D01*
X118261171Y-88150453D01*
X118266190Y-88221272D01*
X118248051Y-88262678D01*
X118248383Y-88262869D01*
X118246661Y-88265852D01*
X118246296Y-88266685D01*
X118242477Y-88272139D01*
X118240154Y-88277121D01*
X118240151Y-88277126D01*
X118163342Y-88441846D01*
X118145716Y-88479645D01*
X118144294Y-88484953D01*
X118144293Y-88484955D01*
X118096743Y-88662414D01*
X118086457Y-88700801D01*
X118066502Y-88928888D01*
X118086457Y-89156975D01*
X118087881Y-89162288D01*
X118087881Y-89162290D01*
X118115789Y-89266441D01*
X118145716Y-89378131D01*
X118148039Y-89383112D01*
X118148039Y-89383113D01*
X118240151Y-89580650D01*
X118240154Y-89580655D01*
X118242477Y-89585637D01*
X118373802Y-89773188D01*
X118535700Y-89935086D01*
X118540208Y-89938243D01*
X118540211Y-89938245D01*
X118593413Y-89975497D01*
X118723251Y-90066411D01*
X118728233Y-90068734D01*
X118728238Y-90068737D01*
X118925775Y-90160849D01*
X118930757Y-90163172D01*
X118936065Y-90164594D01*
X118936067Y-90164595D01*
X119146598Y-90221007D01*
X119146600Y-90221007D01*
X119151913Y-90222431D01*
X119380000Y-90242386D01*
X119608087Y-90222431D01*
X119613400Y-90221007D01*
X119613402Y-90221007D01*
X119823933Y-90164595D01*
X119823935Y-90164594D01*
X119829243Y-90163172D01*
X119834225Y-90160849D01*
X120031762Y-90068737D01*
X120031767Y-90068734D01*
X120036749Y-90066411D01*
X120166587Y-89975497D01*
X120219789Y-89938245D01*
X120219792Y-89938243D01*
X120224300Y-89935086D01*
X120386198Y-89773188D01*
X120392100Y-89764759D01*
X120443665Y-89691117D01*
X120499122Y-89646789D01*
X120546878Y-89637388D01*
X122157653Y-89637388D01*
X122225774Y-89657390D01*
X122272490Y-89711538D01*
X122274256Y-89715449D01*
X122276528Y-89722699D01*
X122365361Y-89869381D01*
X122486619Y-89990639D01*
X122633301Y-90079472D01*
X122640548Y-90081743D01*
X122640550Y-90081744D01*
X122706836Y-90102517D01*
X122796938Y-90130753D01*
X122870365Y-90137500D01*
X122873263Y-90137500D01*
X123127665Y-90137499D01*
X123383634Y-90137499D01*
X123386492Y-90137236D01*
X123386501Y-90137236D01*
X123422004Y-90133974D01*
X123457062Y-90130753D01*
X123463447Y-90128752D01*
X123613450Y-90081744D01*
X123613452Y-90081743D01*
X123620699Y-90079472D01*
X123767381Y-89990639D01*
X123862905Y-89895115D01*
X123925217Y-89861089D01*
X123996032Y-89866154D01*
X124041095Y-89895115D01*
X124136619Y-89990639D01*
X124283301Y-90079472D01*
X124290548Y-90081743D01*
X124290550Y-90081744D01*
X124356836Y-90102517D01*
X124446938Y-90130753D01*
X124520365Y-90137500D01*
X124523263Y-90137500D01*
X124777665Y-90137499D01*
X125033634Y-90137499D01*
X125036492Y-90137236D01*
X125036501Y-90137236D01*
X125072004Y-90133974D01*
X125107062Y-90130753D01*
X125113447Y-90128752D01*
X125263450Y-90081744D01*
X125263452Y-90081743D01*
X125270699Y-90079472D01*
X125417381Y-89990639D01*
X125508615Y-89899405D01*
X125570927Y-89865379D01*
X125597710Y-89862500D01*
X125642648Y-89862500D01*
X125710769Y-89882502D01*
X125757262Y-89936158D01*
X125767975Y-89975497D01*
X125772401Y-90018162D01*
X125772402Y-90018167D01*
X125773113Y-90025019D01*
X125775295Y-90031559D01*
X125824537Y-90179153D01*
X125827244Y-90187268D01*
X125831096Y-90193492D01*
X125831096Y-90193493D01*
X125849300Y-90222910D01*
X125917248Y-90332713D01*
X125922430Y-90337886D01*
X125926977Y-90343623D01*
X125925170Y-90345055D01*
X125953902Y-90397575D01*
X125948892Y-90468395D01*
X125925501Y-90504853D01*
X125926552Y-90505683D01*
X125913002Y-90522840D01*
X125830996Y-90655880D01*
X125824849Y-90669061D01*
X125775509Y-90817814D01*
X125772642Y-90831190D01*
X125763328Y-90922097D01*
X125763071Y-90927126D01*
X125767475Y-90942124D01*
X125768865Y-90943329D01*
X125776548Y-90945000D01*
X127710885Y-90945000D01*
X127726124Y-90940525D01*
X127727329Y-90939135D01*
X127729000Y-90931452D01*
X127729000Y-90928562D01*
X127728663Y-90922047D01*
X127719106Y-90829943D01*
X127716212Y-90816544D01*
X127666619Y-90667893D01*
X127660445Y-90654714D01*
X127578212Y-90521827D01*
X127564629Y-90504689D01*
X127566559Y-90503159D01*
X127538097Y-90451120D01*
X127543113Y-90380301D01*
X127566799Y-90343383D01*
X127565843Y-90342628D01*
X127570381Y-90336882D01*
X127575552Y-90331702D01*
X127579393Y-90325471D01*
X127661462Y-90192331D01*
X127661463Y-90192329D01*
X127665302Y-90186101D01*
X127719149Y-90023757D01*
X127729500Y-89922732D01*
X127729500Y-89375268D01*
X127718887Y-89272981D01*
X127664756Y-89110732D01*
X127574752Y-88965287D01*
X127543774Y-88934363D01*
X127491482Y-88882162D01*
X127457403Y-88819880D01*
X127454500Y-88792989D01*
X127454500Y-88527500D01*
X127474502Y-88459379D01*
X127528158Y-88412886D01*
X127580500Y-88401500D01*
X130972088Y-88401500D01*
X130980658Y-88401792D01*
X131030776Y-88405209D01*
X131030780Y-88405209D01*
X131038352Y-88405725D01*
X131045829Y-88404420D01*
X131045830Y-88404420D01*
X131072308Y-88399799D01*
X131101303Y-88394738D01*
X131107821Y-88393777D01*
X131171242Y-88386102D01*
X131178343Y-88383419D01*
X131180952Y-88382778D01*
X131197262Y-88378315D01*
X131199798Y-88377550D01*
X131207284Y-88376243D01*
X131265800Y-88350556D01*
X131271904Y-88348065D01*
X131324548Y-88328173D01*
X131324549Y-88328172D01*
X131331656Y-88325487D01*
X131337919Y-88321183D01*
X131340285Y-88319946D01*
X131355097Y-88311701D01*
X131357351Y-88310368D01*
X131364305Y-88307315D01*
X131415002Y-88268413D01*
X131420332Y-88264541D01*
X131466720Y-88232661D01*
X131466725Y-88232656D01*
X131472981Y-88228357D01*
X131485219Y-88214622D01*
X131514435Y-88181830D01*
X131519416Y-88176554D01*
X132508528Y-87187443D01*
X132514794Y-87181589D01*
X132544069Y-87156051D01*
X132608551Y-87126343D01*
X132626898Y-87125000D01*
X132736196Y-87125000D01*
X132846140Y-87114897D01*
X132889001Y-87110959D01*
X132889003Y-87110959D01*
X132894756Y-87110430D01*
X133038617Y-87069857D01*
X133094828Y-87054004D01*
X133094830Y-87054003D01*
X133100387Y-87052436D01*
X133105563Y-87049884D01*
X133105567Y-87049882D01*
X133286826Y-86960495D01*
X133292007Y-86957940D01*
X133298137Y-86953363D01*
X133458573Y-86833560D01*
X133458574Y-86833559D01*
X133463197Y-86830107D01*
X133467113Y-86825871D01*
X133604305Y-86677457D01*
X133604307Y-86677454D01*
X133608224Y-86673217D01*
X133722232Y-86492525D01*
X133801403Y-86294082D01*
X133802528Y-86288425D01*
X133802530Y-86288419D01*
X133841957Y-86090203D01*
X133841957Y-86090199D01*
X133843084Y-86084535D01*
X133843483Y-86054099D01*
X133845394Y-85908104D01*
X135915787Y-85908104D01*
X135925567Y-86119399D01*
X135926971Y-86125224D01*
X135926971Y-86125225D01*
X135971843Y-86311414D01*
X135975125Y-86325034D01*
X135977607Y-86330492D01*
X135977608Y-86330496D01*
X136021053Y-86426046D01*
X136062674Y-86517587D01*
X136152175Y-86643760D01*
X136175452Y-86676574D01*
X136185054Y-86690111D01*
X136337850Y-86836381D01*
X136515548Y-86951120D01*
X136548743Y-86964498D01*
X136706168Y-87027942D01*
X136706171Y-87027943D01*
X136711737Y-87030186D01*
X136919337Y-87070728D01*
X136924899Y-87071000D01*
X137080846Y-87071000D01*
X137238566Y-87055952D01*
X137441534Y-86996408D01*
X137503491Y-86964498D01*
X137624249Y-86902304D01*
X137624252Y-86902302D01*
X137629580Y-86899558D01*
X137795920Y-86768896D01*
X137799852Y-86764365D01*
X137799855Y-86764362D01*
X137930621Y-86613667D01*
X137934552Y-86609137D01*
X137937552Y-86603951D01*
X137937555Y-86603947D01*
X138037467Y-86431242D01*
X138040473Y-86426046D01*
X138109861Y-86226229D01*
X138126219Y-86113409D01*
X138139352Y-86022836D01*
X138139352Y-86022833D01*
X138140213Y-86016896D01*
X138135177Y-85908104D01*
X138415787Y-85908104D01*
X138425567Y-86119399D01*
X138426971Y-86125224D01*
X138426971Y-86125225D01*
X138471843Y-86311414D01*
X138475125Y-86325034D01*
X138477607Y-86330492D01*
X138477608Y-86330496D01*
X138521053Y-86426046D01*
X138562674Y-86517587D01*
X138652175Y-86643760D01*
X138675452Y-86676574D01*
X138685054Y-86690111D01*
X138837850Y-86836381D01*
X139015548Y-86951120D01*
X139048743Y-86964498D01*
X139206168Y-87027942D01*
X139206171Y-87027943D01*
X139211737Y-87030186D01*
X139419337Y-87070728D01*
X139424899Y-87071000D01*
X139580846Y-87071000D01*
X139738566Y-87055952D01*
X139941534Y-86996408D01*
X140003491Y-86964498D01*
X140124249Y-86902304D01*
X140124252Y-86902302D01*
X140129580Y-86899558D01*
X140295920Y-86768896D01*
X140299852Y-86764365D01*
X140299855Y-86764362D01*
X140430621Y-86613667D01*
X140434552Y-86609137D01*
X140437552Y-86603951D01*
X140437555Y-86603947D01*
X140537467Y-86431242D01*
X140540473Y-86426046D01*
X140609861Y-86226229D01*
X140626219Y-86113409D01*
X140639352Y-86022836D01*
X140639352Y-86022833D01*
X140640213Y-86016896D01*
X140630433Y-85805601D01*
X140589699Y-85636581D01*
X140582281Y-85605799D01*
X140582280Y-85605797D01*
X140580875Y-85599966D01*
X140572275Y-85581050D01*
X140517185Y-85459887D01*
X140493326Y-85407413D01*
X140370946Y-85234889D01*
X140218150Y-85088619D01*
X140040452Y-84973880D01*
X139980354Y-84949660D01*
X139849832Y-84897058D01*
X139849829Y-84897057D01*
X139844263Y-84894814D01*
X139636663Y-84854272D01*
X139631101Y-84854000D01*
X139475154Y-84854000D01*
X139317434Y-84869048D01*
X139114466Y-84928592D01*
X139109139Y-84931336D01*
X139109138Y-84931336D01*
X138931751Y-85022696D01*
X138931748Y-85022698D01*
X138926420Y-85025442D01*
X138760080Y-85156104D01*
X138756148Y-85160635D01*
X138756145Y-85160638D01*
X138687474Y-85239775D01*
X138621448Y-85315863D01*
X138618448Y-85321049D01*
X138618445Y-85321053D01*
X138571312Y-85402526D01*
X138515527Y-85498954D01*
X138446139Y-85698771D01*
X138445278Y-85704706D01*
X138445278Y-85704708D01*
X138433299Y-85787329D01*
X138415787Y-85908104D01*
X138135177Y-85908104D01*
X138130433Y-85805601D01*
X138089699Y-85636581D01*
X138082281Y-85605799D01*
X138082280Y-85605797D01*
X138080875Y-85599966D01*
X138072275Y-85581050D01*
X138017185Y-85459887D01*
X137993326Y-85407413D01*
X137870946Y-85234889D01*
X137718150Y-85088619D01*
X137540452Y-84973880D01*
X137480354Y-84949660D01*
X137349832Y-84897058D01*
X137349829Y-84897057D01*
X137344263Y-84894814D01*
X137136663Y-84854272D01*
X137131101Y-84854000D01*
X136975154Y-84854000D01*
X136817434Y-84869048D01*
X136614466Y-84928592D01*
X136609139Y-84931336D01*
X136609138Y-84931336D01*
X136431751Y-85022696D01*
X136431748Y-85022698D01*
X136426420Y-85025442D01*
X136260080Y-85156104D01*
X136256148Y-85160635D01*
X136256145Y-85160638D01*
X136187474Y-85239775D01*
X136121448Y-85315863D01*
X136118448Y-85321049D01*
X136118445Y-85321053D01*
X136071312Y-85402526D01*
X136015527Y-85498954D01*
X135946139Y-85698771D01*
X135945278Y-85704706D01*
X135945278Y-85704708D01*
X135933299Y-85787329D01*
X135915787Y-85908104D01*
X133845394Y-85908104D01*
X133845881Y-85870901D01*
X133834661Y-85805601D01*
X133810678Y-85666031D01*
X133810678Y-85666030D01*
X133809699Y-85660334D01*
X133735750Y-85459887D01*
X133705729Y-85409426D01*
X133629467Y-85281240D01*
X133629465Y-85281237D01*
X133626511Y-85276272D01*
X133622705Y-85271932D01*
X133622702Y-85271928D01*
X133489447Y-85119981D01*
X133485640Y-85115640D01*
X133317855Y-84983369D01*
X133312744Y-84980680D01*
X133312741Y-84980678D01*
X133147354Y-84893664D01*
X133128775Y-84883889D01*
X132962115Y-84832140D01*
X132902994Y-84792839D01*
X132874503Y-84727809D01*
X132885693Y-84657700D01*
X132933010Y-84604770D01*
X132965281Y-84590540D01*
X133094828Y-84554004D01*
X133094830Y-84554003D01*
X133100387Y-84552436D01*
X133105563Y-84549884D01*
X133105567Y-84549882D01*
X133286826Y-84460495D01*
X133292007Y-84457940D01*
X133463197Y-84330107D01*
X133479070Y-84312936D01*
X133604305Y-84177457D01*
X133604307Y-84177454D01*
X133608224Y-84173217D01*
X133722232Y-83992525D01*
X133801403Y-83794082D01*
X133802528Y-83788425D01*
X133802530Y-83788419D01*
X133841957Y-83590203D01*
X133841957Y-83590199D01*
X133843084Y-83584535D01*
X133843483Y-83554099D01*
X133844852Y-83449483D01*
X133845881Y-83370901D01*
X133836636Y-83317095D01*
X133810678Y-83166031D01*
X133810678Y-83166030D01*
X133809699Y-83160334D01*
X133735750Y-82959887D01*
X133696688Y-82894230D01*
X133679049Y-82825462D01*
X133690155Y-82777920D01*
X133690839Y-82776406D01*
X133700897Y-82758778D01*
X133702141Y-82756458D01*
X133706511Y-82750240D01*
X133709270Y-82743164D01*
X133709272Y-82743160D01*
X133729721Y-82690710D01*
X133732270Y-82684645D01*
X133758566Y-82626406D01*
X133759950Y-82618941D01*
X133760747Y-82616397D01*
X133765380Y-82600131D01*
X133766042Y-82597551D01*
X133768803Y-82590470D01*
X133770741Y-82575753D01*
X133777142Y-82527126D01*
X133778174Y-82520608D01*
X133789817Y-82457792D01*
X133786230Y-82395586D01*
X133786021Y-82388332D01*
X133786021Y-81667778D01*
X135866000Y-81667778D01*
X135866266Y-81673567D01*
X135880034Y-81823408D01*
X135882132Y-81834729D01*
X135936962Y-82029143D01*
X135941087Y-82039890D01*
X136030434Y-82221065D01*
X136036446Y-82230874D01*
X136157304Y-82392725D01*
X136165011Y-82401285D01*
X136313349Y-82538407D01*
X136322474Y-82545408D01*
X136493320Y-82653204D01*
X136503564Y-82658424D01*
X136691197Y-82733282D01*
X136702226Y-82736549D01*
X136756232Y-82747291D01*
X136769106Y-82746139D01*
X136773074Y-82733853D01*
X137282000Y-82733853D01*
X137285806Y-82746815D01*
X137300722Y-82748751D01*
X137324339Y-82744693D01*
X137335459Y-82741713D01*
X137524981Y-82671795D01*
X137535359Y-82666845D01*
X137708967Y-82563559D01*
X137718276Y-82556795D01*
X137870157Y-82423600D01*
X137878067Y-82415265D01*
X138003132Y-82256621D01*
X138009403Y-82246964D01*
X138103454Y-82068202D01*
X138107862Y-82057559D01*
X138167765Y-81864643D01*
X138170155Y-81853399D01*
X138189564Y-81689415D01*
X138190000Y-81682012D01*
X138190000Y-81234615D01*
X138185525Y-81219376D01*
X138184135Y-81218171D01*
X138176452Y-81216500D01*
X137300115Y-81216500D01*
X137284876Y-81220975D01*
X137283671Y-81222365D01*
X137282000Y-81230048D01*
X137282000Y-82733853D01*
X136773074Y-82733853D01*
X136774000Y-82730984D01*
X136774000Y-81234615D01*
X136769525Y-81219376D01*
X136768135Y-81218171D01*
X136760452Y-81216500D01*
X135884115Y-81216500D01*
X135868876Y-81220975D01*
X135867671Y-81222365D01*
X135866000Y-81230048D01*
X135866000Y-81667778D01*
X133786021Y-81667778D01*
X133786021Y-80690385D01*
X135866000Y-80690385D01*
X135870475Y-80705624D01*
X135871865Y-80706829D01*
X135879548Y-80708500D01*
X136755885Y-80708500D01*
X136771124Y-80704025D01*
X136772329Y-80702635D01*
X136774000Y-80694952D01*
X136774000Y-80690385D01*
X137282000Y-80690385D01*
X137286475Y-80705624D01*
X137287865Y-80706829D01*
X137295548Y-80708500D01*
X138171885Y-80708500D01*
X138187124Y-80704025D01*
X138188329Y-80702635D01*
X138190000Y-80694952D01*
X138190000Y-80257222D01*
X138189734Y-80251433D01*
X138175966Y-80101592D01*
X138173868Y-80090271D01*
X138119038Y-79895857D01*
X138114913Y-79885110D01*
X138025566Y-79703935D01*
X138019554Y-79694126D01*
X137898696Y-79532275D01*
X137890989Y-79523715D01*
X137742651Y-79386593D01*
X137733526Y-79379592D01*
X137562680Y-79271796D01*
X137552436Y-79266576D01*
X137364803Y-79191718D01*
X137353774Y-79188451D01*
X137299768Y-79177709D01*
X137286894Y-79178861D01*
X137282000Y-79194016D01*
X137282000Y-80690385D01*
X136774000Y-80690385D01*
X136774000Y-79191147D01*
X136770194Y-79178185D01*
X136755278Y-79176249D01*
X136731661Y-79180307D01*
X136720541Y-79183287D01*
X136531019Y-79253205D01*
X136520641Y-79258155D01*
X136347033Y-79361441D01*
X136337724Y-79368205D01*
X136185843Y-79501400D01*
X136177933Y-79509735D01*
X136052868Y-79668379D01*
X136046597Y-79678036D01*
X135952546Y-79856798D01*
X135948138Y-79867441D01*
X135888235Y-80060357D01*
X135885845Y-80071601D01*
X135866436Y-80235585D01*
X135866000Y-80242988D01*
X135866000Y-80690385D01*
X133786021Y-80690385D01*
X133786021Y-79540948D01*
X133786313Y-79532379D01*
X133789731Y-79482246D01*
X133789731Y-79482242D01*
X133790247Y-79474669D01*
X133779257Y-79411702D01*
X133778296Y-79405186D01*
X133771535Y-79349319D01*
X133770623Y-79341779D01*
X133767940Y-79334678D01*
X133767299Y-79332069D01*
X133762830Y-79315736D01*
X133762069Y-79313216D01*
X133760764Y-79305738D01*
X133745865Y-79271796D01*
X133735080Y-79247225D01*
X133732589Y-79241120D01*
X133712696Y-79188477D01*
X133712694Y-79188473D01*
X133710008Y-79181365D01*
X133705705Y-79175104D01*
X133704468Y-79172738D01*
X133694594Y-79154998D01*
X133691838Y-79148720D01*
X133694343Y-79147621D01*
X133680043Y-79091295D01*
X133699396Y-79028718D01*
X133719149Y-78997411D01*
X133722232Y-78992525D01*
X133801403Y-78794082D01*
X133802528Y-78788425D01*
X133802530Y-78788419D01*
X133841957Y-78590203D01*
X133841957Y-78590199D01*
X133843084Y-78584535D01*
X133843165Y-78578388D01*
X133844786Y-78454500D01*
X133845881Y-78370901D01*
X133841400Y-78344820D01*
X133810678Y-78166031D01*
X133810678Y-78166030D01*
X133809699Y-78160334D01*
X133735750Y-77959887D01*
X133626511Y-77776272D01*
X133622705Y-77771932D01*
X133622702Y-77771928D01*
X133489447Y-77619981D01*
X133485640Y-77615640D01*
X133317855Y-77483369D01*
X133312744Y-77480680D01*
X133312741Y-77480678D01*
X133209443Y-77426330D01*
X133128775Y-77383889D01*
X132962115Y-77332140D01*
X132902994Y-77292839D01*
X132874503Y-77227809D01*
X132885693Y-77157700D01*
X132933010Y-77104770D01*
X132965281Y-77090540D01*
X133094828Y-77054004D01*
X133094830Y-77054003D01*
X133100387Y-77052436D01*
X133105563Y-77049884D01*
X133105567Y-77049882D01*
X133286826Y-76960495D01*
X133292007Y-76957940D01*
X133298137Y-76953363D01*
X133458573Y-76833560D01*
X133458574Y-76833559D01*
X133463197Y-76830107D01*
X133479070Y-76812936D01*
X133604305Y-76677457D01*
X133604307Y-76677454D01*
X133608224Y-76673217D01*
X133722232Y-76492525D01*
X133801403Y-76294082D01*
X133802528Y-76288425D01*
X133802530Y-76288419D01*
X133841957Y-76090203D01*
X133841957Y-76090199D01*
X133843084Y-76084535D01*
X133843483Y-76054099D01*
X133845394Y-75908104D01*
X135915787Y-75908104D01*
X135925567Y-76119399D01*
X135926971Y-76125224D01*
X135926971Y-76125225D01*
X135972839Y-76315547D01*
X135975125Y-76325034D01*
X135977607Y-76330492D01*
X135977608Y-76330496D01*
X136021053Y-76426046D01*
X136062674Y-76517587D01*
X136185054Y-76690111D01*
X136337850Y-76836381D01*
X136515548Y-76951120D01*
X136575646Y-76975340D01*
X136706168Y-77027942D01*
X136706171Y-77027943D01*
X136711737Y-77030186D01*
X136919337Y-77070728D01*
X136924899Y-77071000D01*
X137080846Y-77071000D01*
X137238566Y-77055952D01*
X137441534Y-76996408D01*
X137446862Y-76993664D01*
X137624249Y-76902304D01*
X137624252Y-76902302D01*
X137629580Y-76899558D01*
X137795920Y-76768896D01*
X137799852Y-76764365D01*
X137799855Y-76764362D01*
X137930621Y-76613667D01*
X137934552Y-76609137D01*
X137937552Y-76603951D01*
X137937555Y-76603947D01*
X138037467Y-76431242D01*
X138040473Y-76426046D01*
X138109861Y-76226229D01*
X138140213Y-76016896D01*
X138135177Y-75908104D01*
X138415787Y-75908104D01*
X138425567Y-76119399D01*
X138426971Y-76125224D01*
X138426971Y-76125225D01*
X138472839Y-76315547D01*
X138475125Y-76325034D01*
X138477607Y-76330492D01*
X138477608Y-76330496D01*
X138521053Y-76426046D01*
X138562674Y-76517587D01*
X138685054Y-76690111D01*
X138837850Y-76836381D01*
X139015548Y-76951120D01*
X139075646Y-76975340D01*
X139206168Y-77027942D01*
X139206171Y-77027943D01*
X139211737Y-77030186D01*
X139419337Y-77070728D01*
X139424899Y-77071000D01*
X139580846Y-77071000D01*
X139738566Y-77055952D01*
X139941534Y-76996408D01*
X139946862Y-76993664D01*
X140124249Y-76902304D01*
X140124252Y-76902302D01*
X140129580Y-76899558D01*
X140295920Y-76768896D01*
X140299852Y-76764365D01*
X140299855Y-76764362D01*
X140430621Y-76613667D01*
X140434552Y-76609137D01*
X140437552Y-76603951D01*
X140437555Y-76603947D01*
X140537467Y-76431242D01*
X140540473Y-76426046D01*
X140609861Y-76226229D01*
X140640213Y-76016896D01*
X140630433Y-75805601D01*
X140589699Y-75636581D01*
X140582281Y-75605799D01*
X140582280Y-75605797D01*
X140580875Y-75599966D01*
X140537525Y-75504622D01*
X140517185Y-75459887D01*
X140493326Y-75407413D01*
X140370946Y-75234889D01*
X140218150Y-75088619D01*
X140040452Y-74973880D01*
X139980354Y-74949660D01*
X139849832Y-74897058D01*
X139849829Y-74897057D01*
X139844263Y-74894814D01*
X139636663Y-74854272D01*
X139631101Y-74854000D01*
X139475154Y-74854000D01*
X139317434Y-74869048D01*
X139114466Y-74928592D01*
X139109139Y-74931336D01*
X139109138Y-74931336D01*
X138931751Y-75022696D01*
X138931748Y-75022698D01*
X138926420Y-75025442D01*
X138760080Y-75156104D01*
X138756148Y-75160635D01*
X138756145Y-75160638D01*
X138687474Y-75239775D01*
X138621448Y-75315863D01*
X138618448Y-75321049D01*
X138618445Y-75321053D01*
X138571312Y-75402526D01*
X138515527Y-75498954D01*
X138446139Y-75698771D01*
X138415787Y-75908104D01*
X138135177Y-75908104D01*
X138130433Y-75805601D01*
X138089699Y-75636581D01*
X138082281Y-75605799D01*
X138082280Y-75605797D01*
X138080875Y-75599966D01*
X138037525Y-75504622D01*
X138017185Y-75459887D01*
X137993326Y-75407413D01*
X137870946Y-75234889D01*
X137718150Y-75088619D01*
X137540452Y-74973880D01*
X137480354Y-74949660D01*
X137349832Y-74897058D01*
X137349829Y-74897057D01*
X137344263Y-74894814D01*
X137136663Y-74854272D01*
X137131101Y-74854000D01*
X136975154Y-74854000D01*
X136817434Y-74869048D01*
X136614466Y-74928592D01*
X136609139Y-74931336D01*
X136609138Y-74931336D01*
X136431751Y-75022696D01*
X136431748Y-75022698D01*
X136426420Y-75025442D01*
X136260080Y-75156104D01*
X136256148Y-75160635D01*
X136256145Y-75160638D01*
X136187474Y-75239775D01*
X136121448Y-75315863D01*
X136118448Y-75321049D01*
X136118445Y-75321053D01*
X136071312Y-75402526D01*
X136015527Y-75498954D01*
X135946139Y-75698771D01*
X135915787Y-75908104D01*
X133845394Y-75908104D01*
X133845881Y-75870901D01*
X133834661Y-75805601D01*
X133810678Y-75666031D01*
X133810678Y-75666030D01*
X133809699Y-75660334D01*
X133735750Y-75459887D01*
X133719442Y-75432475D01*
X133629467Y-75281240D01*
X133629465Y-75281237D01*
X133626511Y-75276272D01*
X133622705Y-75271932D01*
X133622702Y-75271928D01*
X133489447Y-75119981D01*
X133485640Y-75115640D01*
X133317855Y-74983369D01*
X133312744Y-74980680D01*
X133312741Y-74980678D01*
X133147354Y-74893664D01*
X133128775Y-74883889D01*
X133123254Y-74882175D01*
X133123250Y-74882173D01*
X132930248Y-74822244D01*
X132930243Y-74822243D01*
X132924733Y-74820532D01*
X132894282Y-74816928D01*
X132754945Y-74800436D01*
X132754939Y-74800436D01*
X132751258Y-74800000D01*
X131919660Y-74800000D01*
X131851539Y-74779998D01*
X131830565Y-74763095D01*
X131229351Y-74161881D01*
X131195325Y-74099569D01*
X131200390Y-74028754D01*
X131242937Y-73971918D01*
X131309457Y-73947107D01*
X131358947Y-73953473D01*
X131621382Y-74042558D01*
X131629334Y-74044689D01*
X131919010Y-74102309D01*
X131927168Y-74103383D01*
X132221881Y-74122699D01*
X132230119Y-74122699D01*
X132524832Y-74103383D01*
X132532990Y-74102309D01*
X132822666Y-74044689D01*
X132830618Y-74042558D01*
X133110290Y-73947622D01*
X133117894Y-73944472D01*
X133382781Y-73813845D01*
X133389918Y-73809724D01*
X133635481Y-73645644D01*
X133642023Y-73640624D01*
X133662175Y-73622952D01*
X133670572Y-73609715D01*
X133664738Y-73599949D01*
X131955885Y-71891095D01*
X131921859Y-71828783D01*
X131923694Y-71803131D01*
X132590408Y-71803131D01*
X132590539Y-71804966D01*
X132594790Y-71811580D01*
X134022195Y-73238984D01*
X134035956Y-73246498D01*
X134045316Y-73240041D01*
X134064624Y-73218023D01*
X134069644Y-73211481D01*
X134233723Y-72965919D01*
X134237844Y-72958781D01*
X134368470Y-72693900D01*
X134371625Y-72686281D01*
X134466558Y-72406618D01*
X134468689Y-72398666D01*
X134526309Y-72108990D01*
X134527383Y-72100832D01*
X134546699Y-71806119D01*
X134546699Y-71797881D01*
X134527383Y-71503168D01*
X134526309Y-71495010D01*
X134468689Y-71205334D01*
X134466558Y-71197382D01*
X134371625Y-70917719D01*
X134368470Y-70910100D01*
X134237844Y-70645219D01*
X134233723Y-70638081D01*
X134069644Y-70392519D01*
X134064624Y-70385977D01*
X134046952Y-70365825D01*
X134033715Y-70357428D01*
X134023949Y-70363262D01*
X132598020Y-71789190D01*
X132590408Y-71803131D01*
X131923694Y-71803131D01*
X131926924Y-71757967D01*
X131955885Y-71712905D01*
X132226000Y-71442790D01*
X133662984Y-70005805D01*
X133670498Y-69992045D01*
X133664039Y-69982683D01*
X133642023Y-69963376D01*
X133635481Y-69958356D01*
X133389918Y-69794276D01*
X133382781Y-69790155D01*
X133117894Y-69659528D01*
X133110290Y-69656378D01*
X132830618Y-69561442D01*
X132822666Y-69559311D01*
X132532990Y-69501691D01*
X132524832Y-69500617D01*
X132230119Y-69481301D01*
X132221881Y-69481301D01*
X131927168Y-69500617D01*
X131919010Y-69501691D01*
X131629334Y-69559311D01*
X131621382Y-69561442D01*
X131341719Y-69656375D01*
X131334100Y-69659530D01*
X131069219Y-69790156D01*
X131062081Y-69794277D01*
X130922991Y-69887214D01*
X130855238Y-69908429D01*
X130786771Y-69889646D01*
X130739328Y-69836829D01*
X130726989Y-69782449D01*
X130726989Y-69355171D01*
X130746991Y-69287050D01*
X130763894Y-69266076D01*
X131418014Y-68611956D01*
X135281502Y-68611956D01*
X135287959Y-68621316D01*
X135309977Y-68640624D01*
X135316519Y-68645644D01*
X135562082Y-68809724D01*
X135569219Y-68813845D01*
X135834106Y-68944472D01*
X135841710Y-68947622D01*
X136121382Y-69042558D01*
X136129334Y-69044689D01*
X136419010Y-69102309D01*
X136427168Y-69103383D01*
X136721881Y-69122699D01*
X136730119Y-69122699D01*
X137024832Y-69103383D01*
X137032990Y-69102309D01*
X137322666Y-69044689D01*
X137330618Y-69042558D01*
X137610290Y-68947622D01*
X137617894Y-68944472D01*
X137882781Y-68813845D01*
X137889918Y-68809724D01*
X138135481Y-68645644D01*
X138142023Y-68640624D01*
X138162175Y-68622952D01*
X138170572Y-68609715D01*
X138164738Y-68599949D01*
X136738810Y-67174020D01*
X136724869Y-67166408D01*
X136723034Y-67166539D01*
X136716420Y-67170790D01*
X135289016Y-68598195D01*
X135281502Y-68611956D01*
X131418014Y-68611956D01*
X131512459Y-68517511D01*
X131574771Y-68483485D01*
X131643095Y-68487651D01*
X131758686Y-68528017D01*
X131763102Y-68529559D01*
X131767695Y-68530431D01*
X132018947Y-68578133D01*
X132018950Y-68578133D01*
X132023536Y-68579004D01*
X132149411Y-68583950D01*
X132283750Y-68589228D01*
X132283755Y-68589228D01*
X132288418Y-68589411D01*
X132391397Y-68578133D01*
X132547275Y-68561062D01*
X132547280Y-68561061D01*
X132551928Y-68560552D01*
X132618034Y-68543148D01*
X132803756Y-68494252D01*
X132803759Y-68494251D01*
X132808279Y-68493061D01*
X132812576Y-68491215D01*
X133047544Y-68390265D01*
X133047546Y-68390264D01*
X133051838Y-68388420D01*
X133208511Y-68291468D01*
X133273282Y-68251387D01*
X133273286Y-68251384D01*
X133277255Y-68248928D01*
X133479577Y-68077649D01*
X133566887Y-67978091D01*
X133651278Y-67881862D01*
X133651281Y-67881857D01*
X133654360Y-67878347D01*
X133797765Y-67655399D01*
X133906641Y-67413703D01*
X133976349Y-67166539D01*
X133977326Y-67163074D01*
X133977327Y-67163071D01*
X133978596Y-67158570D01*
X134003940Y-66959351D01*
X134011652Y-66898733D01*
X134011652Y-66898729D01*
X134012050Y-66895603D01*
X134014393Y-66806119D01*
X134405301Y-66806119D01*
X134424617Y-67100832D01*
X134425691Y-67108990D01*
X134483311Y-67398666D01*
X134485442Y-67406618D01*
X134580375Y-67686281D01*
X134583530Y-67693900D01*
X134714156Y-67958781D01*
X134718277Y-67965919D01*
X134882356Y-68211481D01*
X134887376Y-68218023D01*
X134905048Y-68238175D01*
X134918285Y-68246572D01*
X134928051Y-68240738D01*
X136353980Y-66814810D01*
X136360357Y-66803131D01*
X137090408Y-66803131D01*
X137090539Y-66804966D01*
X137094790Y-66811580D01*
X138522195Y-68238984D01*
X138535956Y-68246498D01*
X138545316Y-68240041D01*
X138564624Y-68218023D01*
X138569644Y-68211481D01*
X138733723Y-67965919D01*
X138737844Y-67958781D01*
X138868470Y-67693900D01*
X138871625Y-67686281D01*
X138966558Y-67406618D01*
X138968689Y-67398666D01*
X139026309Y-67108990D01*
X139027383Y-67100832D01*
X139046699Y-66806119D01*
X139046699Y-66797881D01*
X139027383Y-66503168D01*
X139026309Y-66495010D01*
X138968689Y-66205334D01*
X138966558Y-66197382D01*
X138871625Y-65917719D01*
X138868470Y-65910100D01*
X138737844Y-65645219D01*
X138733723Y-65638081D01*
X138569644Y-65392519D01*
X138564624Y-65385977D01*
X138546952Y-65365825D01*
X138533715Y-65357428D01*
X138523949Y-65363262D01*
X137098020Y-66789190D01*
X137090408Y-66803131D01*
X136360357Y-66803131D01*
X136361592Y-66800869D01*
X136361461Y-66799034D01*
X136357210Y-66792420D01*
X134929805Y-65365016D01*
X134916044Y-65357502D01*
X134906684Y-65363959D01*
X134887376Y-65385977D01*
X134882356Y-65392519D01*
X134718277Y-65638081D01*
X134714156Y-65645219D01*
X134583530Y-65910100D01*
X134580375Y-65917719D01*
X134485442Y-66197382D01*
X134483311Y-66205334D01*
X134425691Y-66495010D01*
X134424617Y-66503168D01*
X134405301Y-66797881D01*
X134405301Y-66806119D01*
X134014393Y-66806119D01*
X134014501Y-66802000D01*
X134004362Y-66665556D01*
X133995202Y-66542295D01*
X133995201Y-66542291D01*
X133994856Y-66537643D01*
X133936352Y-66279093D01*
X133927624Y-66256649D01*
X133841968Y-66036383D01*
X133841967Y-66036380D01*
X133840275Y-66032030D01*
X133708735Y-65801883D01*
X133544621Y-65593706D01*
X133351540Y-65412074D01*
X133133733Y-65260975D01*
X133129543Y-65258909D01*
X133129540Y-65258907D01*
X132900172Y-65145796D01*
X132900169Y-65145795D01*
X132895984Y-65143731D01*
X132643517Y-65062915D01*
X132499876Y-65039522D01*
X132386490Y-65021056D01*
X132386489Y-65021056D01*
X132381878Y-65020305D01*
X132249346Y-65018570D01*
X132121492Y-65016896D01*
X132121489Y-65016896D01*
X132116815Y-65016835D01*
X131854150Y-65052582D01*
X131849660Y-65053891D01*
X131849654Y-65053892D01*
X131741430Y-65085437D01*
X131599654Y-65126761D01*
X131595407Y-65128719D01*
X131595404Y-65128720D01*
X131565930Y-65142308D01*
X131358918Y-65237742D01*
X131355009Y-65240305D01*
X131141143Y-65380521D01*
X131141138Y-65380525D01*
X131137230Y-65383087D01*
X130939460Y-65559603D01*
X130769954Y-65763412D01*
X130632434Y-65990038D01*
X130529922Y-66234500D01*
X130528771Y-66239032D01*
X130528770Y-66239035D01*
X130480276Y-66429980D01*
X130464670Y-66491430D01*
X130438112Y-66755183D01*
X130438336Y-66759850D01*
X130438336Y-66759855D01*
X130441476Y-66825225D01*
X130450830Y-67019963D01*
X130451743Y-67024551D01*
X130495467Y-67244366D01*
X130502546Y-67279956D01*
X130504125Y-67284354D01*
X130504127Y-67284361D01*
X130539888Y-67383963D01*
X130544082Y-67454835D01*
X130510395Y-67515635D01*
X129537969Y-68488061D01*
X129531704Y-68493915D01*
X129488104Y-68531950D01*
X129483737Y-68538164D01*
X129451361Y-68584230D01*
X129447428Y-68589525D01*
X129408013Y-68639793D01*
X129404890Y-68646709D01*
X129403506Y-68648995D01*
X129395132Y-68663676D01*
X129393867Y-68666036D01*
X129389499Y-68672250D01*
X129386739Y-68679329D01*
X129386738Y-68679331D01*
X129366287Y-68731786D01*
X129363736Y-68737855D01*
X129337444Y-68796084D01*
X129336060Y-68803551D01*
X129335259Y-68806106D01*
X129330630Y-68822359D01*
X129329967Y-68824939D01*
X129327207Y-68832020D01*
X129326216Y-68839551D01*
X129326215Y-68839553D01*
X129322316Y-68869172D01*
X129319377Y-68891499D01*
X129318868Y-68895363D01*
X129317837Y-68901870D01*
X129306193Y-68964697D01*
X129306630Y-68972277D01*
X129306630Y-68972278D01*
X129309780Y-69026903D01*
X129309989Y-69034157D01*
X129309989Y-73924077D01*
X129309697Y-73932647D01*
X129305764Y-73990341D01*
X129307069Y-73997818D01*
X129307069Y-73997819D01*
X129316750Y-74053288D01*
X129317712Y-74059810D01*
X129325387Y-74123231D01*
X129328070Y-74130332D01*
X129328711Y-74132941D01*
X129333174Y-74149251D01*
X129333939Y-74151787D01*
X129335246Y-74159273D01*
X129338300Y-74166230D01*
X129360931Y-74217784D01*
X129363422Y-74223888D01*
X129386002Y-74283645D01*
X129390306Y-74289908D01*
X129391543Y-74292274D01*
X129399788Y-74307086D01*
X129401121Y-74309340D01*
X129404174Y-74316294D01*
X129438521Y-74361054D01*
X129443068Y-74366980D01*
X129446948Y-74372321D01*
X129478828Y-74418709D01*
X129478833Y-74418714D01*
X129483132Y-74424970D01*
X129488802Y-74430021D01*
X129488803Y-74430023D01*
X129529659Y-74466424D01*
X129534935Y-74471405D01*
X130325343Y-75261813D01*
X130359369Y-75324125D01*
X130354304Y-75394940D01*
X130342812Y-75418139D01*
X130336853Y-75427585D01*
X130333768Y-75432475D01*
X130254597Y-75630918D01*
X130253472Y-75636575D01*
X130253470Y-75636581D01*
X130218659Y-75811591D01*
X130212916Y-75840465D01*
X130212840Y-75846240D01*
X130212840Y-75846244D01*
X130212108Y-75902164D01*
X130210119Y-76054099D01*
X130211098Y-76059796D01*
X130211098Y-76059797D01*
X130240945Y-76233498D01*
X130246301Y-76264666D01*
X130320250Y-76465113D01*
X130323202Y-76470074D01*
X130323202Y-76470075D01*
X130351469Y-76517587D01*
X130429489Y-76648728D01*
X130433295Y-76653068D01*
X130433298Y-76653072D01*
X130534874Y-76768896D01*
X130570360Y-76809360D01*
X130738145Y-76941631D01*
X130743256Y-76944320D01*
X130743259Y-76944322D01*
X130762576Y-76954485D01*
X130927225Y-77041111D01*
X131093885Y-77092860D01*
X131153006Y-77132161D01*
X131181497Y-77197191D01*
X131170307Y-77267300D01*
X131122990Y-77320230D01*
X131090719Y-77334460D01*
X130961172Y-77370996D01*
X130961170Y-77370997D01*
X130955613Y-77372564D01*
X130950437Y-77375116D01*
X130950433Y-77375118D01*
X130801035Y-77448793D01*
X130763993Y-77467060D01*
X130759367Y-77470514D01*
X130759366Y-77470515D01*
X130673677Y-77534502D01*
X130592803Y-77594893D01*
X130588889Y-77599127D01*
X130588887Y-77599129D01*
X130496520Y-77699052D01*
X130447776Y-77751783D01*
X130333768Y-77932475D01*
X130254597Y-78130918D01*
X130253472Y-78136575D01*
X130253470Y-78136581D01*
X130243955Y-78184418D01*
X130212916Y-78340465D01*
X130212840Y-78346240D01*
X130212840Y-78346244D01*
X130211572Y-78443114D01*
X130210119Y-78554099D01*
X130211098Y-78559796D01*
X130211098Y-78559797D01*
X130242290Y-78741322D01*
X130246301Y-78764666D01*
X130320250Y-78965113D01*
X130323202Y-78970074D01*
X130323202Y-78970075D01*
X130407967Y-79112552D01*
X130429489Y-79148728D01*
X130433295Y-79153068D01*
X130433298Y-79153072D01*
X130510515Y-79241120D01*
X130570360Y-79309360D01*
X130738145Y-79441631D01*
X130743256Y-79444320D01*
X130743259Y-79444322D01*
X130815341Y-79482246D01*
X130927225Y-79541111D01*
X130932746Y-79542825D01*
X130932750Y-79542827D01*
X131125752Y-79602756D01*
X131125757Y-79602757D01*
X131131267Y-79604468D01*
X131161718Y-79608072D01*
X131301055Y-79624564D01*
X131301061Y-79624564D01*
X131304742Y-79625000D01*
X131772226Y-79625000D01*
X131840347Y-79645002D01*
X131886840Y-79698658D01*
X131896944Y-79768932D01*
X131867450Y-79833512D01*
X131807695Y-79871905D01*
X131614466Y-79928592D01*
X131609139Y-79931336D01*
X131609138Y-79931336D01*
X131431751Y-80022696D01*
X131431748Y-80022698D01*
X131426420Y-80025442D01*
X131260080Y-80156104D01*
X131256148Y-80160635D01*
X131256145Y-80160638D01*
X131172334Y-80257222D01*
X131121448Y-80315863D01*
X131118448Y-80321049D01*
X131118445Y-80321053D01*
X131032826Y-80469052D01*
X131015527Y-80498954D01*
X130946139Y-80698771D01*
X130945278Y-80704706D01*
X130945278Y-80704708D01*
X130921090Y-80871533D01*
X130915787Y-80908104D01*
X130925567Y-81119399D01*
X130926971Y-81125224D01*
X130926971Y-81125225D01*
X130970482Y-81305767D01*
X130975125Y-81325034D01*
X130977607Y-81330492D01*
X130977608Y-81330496D01*
X131029916Y-81445541D01*
X131062674Y-81517587D01*
X131083098Y-81546379D01*
X131173319Y-81673567D01*
X131185054Y-81690111D01*
X131337850Y-81836381D01*
X131515548Y-81951120D01*
X131521114Y-81953363D01*
X131706168Y-82027942D01*
X131706171Y-82027943D01*
X131711737Y-82030186D01*
X131791676Y-82045797D01*
X131814917Y-82050336D01*
X131877941Y-82083024D01*
X131913288Y-82144596D01*
X131909735Y-82215504D01*
X131868411Y-82273234D01*
X131802435Y-82299459D01*
X131790767Y-82300000D01*
X131319804Y-82300000D01*
X131209860Y-82310103D01*
X131166999Y-82314041D01*
X131166997Y-82314041D01*
X131161244Y-82314570D01*
X131031229Y-82351238D01*
X130961172Y-82370996D01*
X130961170Y-82370997D01*
X130955613Y-82372564D01*
X130950437Y-82375116D01*
X130950433Y-82375118D01*
X130789462Y-82454500D01*
X130763993Y-82467060D01*
X130759367Y-82470514D01*
X130759366Y-82470515D01*
X130618435Y-82575753D01*
X130592803Y-82594893D01*
X130588889Y-82599127D01*
X130588887Y-82599129D01*
X130457085Y-82741713D01*
X130447776Y-82751783D01*
X130333768Y-82932475D01*
X130254597Y-83130918D01*
X130253472Y-83136575D01*
X130253470Y-83136581D01*
X130215712Y-83326406D01*
X130212916Y-83340465D01*
X130212840Y-83346240D01*
X130212840Y-83346244D01*
X130212442Y-83376683D01*
X130210119Y-83554099D01*
X130246301Y-83764666D01*
X130320250Y-83965113D01*
X130429489Y-84148728D01*
X130433295Y-84153068D01*
X130433298Y-84153072D01*
X130566553Y-84305019D01*
X130570360Y-84309360D01*
X130738145Y-84441631D01*
X130743256Y-84444320D01*
X130743259Y-84444322D01*
X130762576Y-84454485D01*
X130927225Y-84541111D01*
X131093885Y-84592860D01*
X131153006Y-84632161D01*
X131181497Y-84697191D01*
X131170307Y-84767300D01*
X131122990Y-84820230D01*
X131090719Y-84834460D01*
X130961172Y-84870996D01*
X130961170Y-84870997D01*
X130955613Y-84872564D01*
X130950437Y-84875116D01*
X130950433Y-84875118D01*
X130769174Y-84964505D01*
X130763993Y-84967060D01*
X130759367Y-84970514D01*
X130759366Y-84970515D01*
X130601205Y-85088619D01*
X130592803Y-85094893D01*
X130588889Y-85099127D01*
X130588887Y-85099129D01*
X130463393Y-85234889D01*
X130447776Y-85251783D01*
X130333768Y-85432475D01*
X130254597Y-85630918D01*
X130253472Y-85636575D01*
X130253470Y-85636581D01*
X130218659Y-85811591D01*
X130212916Y-85840465D01*
X130212840Y-85846240D01*
X130212840Y-85846244D01*
X130212464Y-85874997D01*
X130210119Y-86054099D01*
X130211098Y-86059796D01*
X130211098Y-86059797D01*
X130245322Y-86258969D01*
X130246301Y-86264666D01*
X130320250Y-86465113D01*
X130323202Y-86470074D01*
X130323202Y-86470075D01*
X130366581Y-86542988D01*
X130429489Y-86648728D01*
X130433295Y-86653068D01*
X130433298Y-86653072D01*
X130540597Y-86775422D01*
X130570474Y-86839826D01*
X130560788Y-86910159D01*
X130514615Y-86964091D01*
X130445865Y-86984500D01*
X127585002Y-86984500D01*
X127516881Y-86964498D01*
X127470388Y-86910842D01*
X127460284Y-86840568D01*
X127489778Y-86775988D01*
X127495907Y-86769405D01*
X127576869Y-86688443D01*
X127586176Y-86676574D01*
X127667079Y-86542988D01*
X127673285Y-86529243D01*
X127720256Y-86379356D01*
X127722869Y-86366306D01*
X127727913Y-86311414D01*
X127724525Y-86299876D01*
X127723135Y-86298671D01*
X127715452Y-86297000D01*
X125781116Y-86297000D01*
X125765877Y-86301475D01*
X125764672Y-86302865D01*
X125763709Y-86307294D01*
X125769132Y-86366315D01*
X125771743Y-86379351D01*
X125818715Y-86529243D01*
X125824921Y-86542988D01*
X125905824Y-86676574D01*
X125915131Y-86688443D01*
X126005239Y-86778551D01*
X126039265Y-86840863D01*
X126034200Y-86911678D01*
X126005239Y-86956741D01*
X125909361Y-87052619D01*
X125820528Y-87199301D01*
X125769247Y-87362938D01*
X125762500Y-87436365D01*
X125762501Y-87949634D01*
X125769247Y-88023062D01*
X125771246Y-88029440D01*
X125771246Y-88029441D01*
X125817349Y-88176554D01*
X125820528Y-88186699D01*
X125824462Y-88193195D01*
X125824463Y-88193197D01*
X125861425Y-88254229D01*
X125879604Y-88322859D01*
X125857793Y-88390422D01*
X125802917Y-88435468D01*
X125753649Y-88445500D01*
X125597710Y-88445500D01*
X125529589Y-88425498D01*
X125508615Y-88408595D01*
X125417381Y-88317361D01*
X125270699Y-88228528D01*
X125263452Y-88226257D01*
X125263450Y-88226256D01*
X125157958Y-88193197D01*
X125107062Y-88177247D01*
X125033635Y-88170500D01*
X125030737Y-88170500D01*
X124776335Y-88170501D01*
X124520366Y-88170501D01*
X124517508Y-88170764D01*
X124517499Y-88170764D01*
X124481996Y-88174026D01*
X124446938Y-88177247D01*
X124440560Y-88179246D01*
X124440559Y-88179246D01*
X124290550Y-88226256D01*
X124290548Y-88226257D01*
X124283301Y-88228528D01*
X124136619Y-88317361D01*
X124041095Y-88412885D01*
X123978783Y-88446911D01*
X123907968Y-88441846D01*
X123862905Y-88412885D01*
X123767381Y-88317361D01*
X123620699Y-88228528D01*
X123613452Y-88226257D01*
X123613450Y-88226256D01*
X123507958Y-88193197D01*
X123457062Y-88177247D01*
X123383635Y-88170500D01*
X123380737Y-88170500D01*
X123126335Y-88170501D01*
X122870366Y-88170501D01*
X122867508Y-88170764D01*
X122867499Y-88170764D01*
X122831996Y-88174026D01*
X122796938Y-88177247D01*
X122790560Y-88179246D01*
X122790559Y-88179246D01*
X122677675Y-88214622D01*
X122639996Y-88220388D01*
X120699042Y-88220388D01*
X120630921Y-88200386D01*
X120584428Y-88146730D01*
X120574324Y-88076456D01*
X120598216Y-88018823D01*
X120625229Y-87982780D01*
X120625230Y-87982778D01*
X120630615Y-87975593D01*
X120681745Y-87839204D01*
X120688500Y-87777022D01*
X120688500Y-86080754D01*
X120681745Y-86018572D01*
X120630615Y-85882183D01*
X120549975Y-85774586D01*
X125764087Y-85774586D01*
X125767475Y-85786124D01*
X125768865Y-85787329D01*
X125776548Y-85789000D01*
X126473885Y-85789000D01*
X126489124Y-85784525D01*
X126490329Y-85783135D01*
X126492000Y-85775452D01*
X126492000Y-85770885D01*
X127000000Y-85770885D01*
X127004475Y-85786124D01*
X127005865Y-85787329D01*
X127013548Y-85789000D01*
X127710884Y-85789000D01*
X127726123Y-85784525D01*
X127727328Y-85783135D01*
X127728291Y-85778706D01*
X127722868Y-85719685D01*
X127720257Y-85706649D01*
X127673285Y-85556757D01*
X127667079Y-85543012D01*
X127586176Y-85409426D01*
X127576869Y-85397557D01*
X127466443Y-85287131D01*
X127454574Y-85277824D01*
X127320988Y-85196921D01*
X127307243Y-85190715D01*
X127157356Y-85143744D01*
X127144306Y-85141131D01*
X127080479Y-85135266D01*
X127074691Y-85135000D01*
X127018115Y-85135000D01*
X127002876Y-85139475D01*
X127001671Y-85140865D01*
X127000000Y-85148548D01*
X127000000Y-85770885D01*
X126492000Y-85770885D01*
X126492000Y-85153116D01*
X126487525Y-85137877D01*
X126486135Y-85136672D01*
X126478452Y-85135001D01*
X126417295Y-85135001D01*
X126411546Y-85135264D01*
X126347685Y-85141132D01*
X126334649Y-85143743D01*
X126184757Y-85190715D01*
X126171012Y-85196921D01*
X126037426Y-85277824D01*
X126025557Y-85287131D01*
X125915131Y-85397557D01*
X125905824Y-85409426D01*
X125824921Y-85543012D01*
X125818715Y-85556757D01*
X125771744Y-85706644D01*
X125769131Y-85719694D01*
X125764087Y-85774586D01*
X120549975Y-85774586D01*
X120543261Y-85765627D01*
X120426705Y-85678273D01*
X120290316Y-85627143D01*
X120228134Y-85620388D01*
X120214500Y-85620388D01*
X120146379Y-85600386D01*
X120099886Y-85546730D01*
X120088500Y-85494388D01*
X120088500Y-81869499D01*
X120108502Y-81801378D01*
X120162158Y-81754885D01*
X120213869Y-81743636D01*
X120213869Y-81743631D01*
X120213900Y-81743630D01*
X120214500Y-81743499D01*
X120219634Y-81743499D01*
X120222492Y-81743236D01*
X120222501Y-81743236D01*
X120258004Y-81739974D01*
X120293062Y-81736753D01*
X120299447Y-81734752D01*
X120449450Y-81687744D01*
X120449452Y-81687743D01*
X120456699Y-81685472D01*
X120603381Y-81596639D01*
X120619615Y-81580405D01*
X120681927Y-81546379D01*
X120708710Y-81543500D01*
X121607290Y-81543500D01*
X121675411Y-81563502D01*
X121696385Y-81580405D01*
X121712619Y-81596639D01*
X121859301Y-81685472D01*
X121866548Y-81687743D01*
X121866550Y-81687744D01*
X121932836Y-81708517D01*
X122022938Y-81736753D01*
X122096365Y-81743500D01*
X122099263Y-81743500D01*
X122428860Y-81743499D01*
X122759634Y-81743499D01*
X122762492Y-81743236D01*
X122762501Y-81743236D01*
X122798004Y-81739974D01*
X122833062Y-81736753D01*
X122839447Y-81734752D01*
X122989450Y-81687744D01*
X122989452Y-81687743D01*
X122996699Y-81685472D01*
X123143381Y-81596639D01*
X123159615Y-81580405D01*
X123221927Y-81546379D01*
X123248710Y-81543500D01*
X124147290Y-81543500D01*
X124215411Y-81563502D01*
X124236385Y-81580405D01*
X124252619Y-81596639D01*
X124399301Y-81685472D01*
X124406548Y-81687743D01*
X124406550Y-81687744D01*
X124472836Y-81708517D01*
X124562938Y-81736753D01*
X124636365Y-81743500D01*
X124639263Y-81743500D01*
X124968860Y-81743499D01*
X125299634Y-81743499D01*
X125302492Y-81743236D01*
X125302501Y-81743236D01*
X125338004Y-81739974D01*
X125373062Y-81736753D01*
X125379447Y-81734752D01*
X125529450Y-81687744D01*
X125529452Y-81687743D01*
X125536699Y-81685472D01*
X125683381Y-81596639D01*
X125804639Y-81475381D01*
X125893472Y-81328699D01*
X125900659Y-81305767D01*
X125923737Y-81232124D01*
X125944753Y-81165062D01*
X125951500Y-81091635D01*
X125951500Y-80905661D01*
X125971502Y-80837540D01*
X125988405Y-80816566D01*
X127593048Y-79211923D01*
X127599313Y-79206069D01*
X127637184Y-79173032D01*
X127637185Y-79173031D01*
X127642905Y-79168041D01*
X127679656Y-79115751D01*
X127683548Y-79110509D01*
X127722996Y-79060198D01*
X127726120Y-79053279D01*
X127727508Y-79050987D01*
X127735877Y-79036315D01*
X127737142Y-79033955D01*
X127741510Y-79027741D01*
X127764723Y-78968203D01*
X127767279Y-78962122D01*
X127782522Y-78928365D01*
X127793565Y-78903907D01*
X127794950Y-78896434D01*
X127795754Y-78893868D01*
X127800375Y-78877645D01*
X127801040Y-78875053D01*
X127803802Y-78867971D01*
X127806358Y-78848559D01*
X127812142Y-78804619D01*
X127813174Y-78798103D01*
X127823431Y-78742761D01*
X127824815Y-78735294D01*
X127823659Y-78715236D01*
X127821229Y-78673100D01*
X127821020Y-78665847D01*
X127821020Y-68404432D01*
X127821312Y-68395862D01*
X127824729Y-68345744D01*
X127824729Y-68345740D01*
X127825245Y-68338168D01*
X127814258Y-68275217D01*
X127813296Y-68268695D01*
X127812563Y-68262639D01*
X127805622Y-68205278D01*
X127802939Y-68198177D01*
X127802298Y-68195568D01*
X127797835Y-68179258D01*
X127797070Y-68176722D01*
X127795763Y-68169236D01*
X127770076Y-68110720D01*
X127767585Y-68104616D01*
X127747693Y-68051972D01*
X127747692Y-68051971D01*
X127745007Y-68044864D01*
X127740703Y-68038601D01*
X127739466Y-68036235D01*
X127731221Y-68021423D01*
X127729888Y-68019169D01*
X127726835Y-68012215D01*
X127687933Y-67961518D01*
X127684061Y-67956188D01*
X127652181Y-67909800D01*
X127652176Y-67909795D01*
X127647877Y-67903539D01*
X127601349Y-67862084D01*
X127596074Y-67857104D01*
X127258404Y-67519434D01*
X127224378Y-67457122D01*
X127221499Y-67430339D01*
X127221499Y-67244366D01*
X127214753Y-67170938D01*
X127163472Y-67007301D01*
X127074639Y-66860619D01*
X126953381Y-66739361D01*
X126806699Y-66650528D01*
X126799452Y-66648257D01*
X126799450Y-66648256D01*
X126706259Y-66619052D01*
X126643062Y-66599247D01*
X126569635Y-66592500D01*
X126566737Y-66592500D01*
X126237140Y-66592501D01*
X125906366Y-66592501D01*
X125903508Y-66592764D01*
X125903499Y-66592764D01*
X125867996Y-66596026D01*
X125832938Y-66599247D01*
X125826560Y-66601246D01*
X125826559Y-66601246D01*
X125676550Y-66648256D01*
X125676548Y-66648257D01*
X125669301Y-66650528D01*
X125522619Y-66739361D01*
X125506385Y-66755595D01*
X125444073Y-66789621D01*
X125417290Y-66792500D01*
X124518710Y-66792500D01*
X124450589Y-66772498D01*
X124429615Y-66755595D01*
X124413381Y-66739361D01*
X124266699Y-66650528D01*
X124259452Y-66648257D01*
X124259450Y-66648256D01*
X124166259Y-66619052D01*
X124103062Y-66599247D01*
X124029635Y-66592500D01*
X124026737Y-66592500D01*
X123697140Y-66592501D01*
X123366366Y-66592501D01*
X123363508Y-66592764D01*
X123363499Y-66592764D01*
X123327996Y-66596026D01*
X123292938Y-66599247D01*
X123286560Y-66601246D01*
X123286559Y-66601246D01*
X123136550Y-66648256D01*
X123136548Y-66648257D01*
X123129301Y-66650528D01*
X122982619Y-66739361D01*
X122966385Y-66755595D01*
X122904073Y-66789621D01*
X122877290Y-66792500D01*
X121978710Y-66792500D01*
X121910589Y-66772498D01*
X121889615Y-66755595D01*
X121873381Y-66739361D01*
X121726699Y-66650528D01*
X121719452Y-66648257D01*
X121719450Y-66648256D01*
X121626259Y-66619052D01*
X121563062Y-66599247D01*
X121489635Y-66592500D01*
X121486737Y-66592500D01*
X121157140Y-66592501D01*
X120826366Y-66592501D01*
X120823508Y-66592764D01*
X120823499Y-66592764D01*
X120787996Y-66596026D01*
X120752938Y-66599247D01*
X120746560Y-66601246D01*
X120746559Y-66601246D01*
X120596550Y-66648256D01*
X120596548Y-66648257D01*
X120589301Y-66650528D01*
X120442619Y-66739361D01*
X120426385Y-66755595D01*
X120364073Y-66789621D01*
X120337290Y-66792500D01*
X119184710Y-66792500D01*
X119116589Y-66772498D01*
X119095615Y-66755595D01*
X119079381Y-66739361D01*
X118932699Y-66650528D01*
X118925452Y-66648257D01*
X118925450Y-66648256D01*
X118832259Y-66619052D01*
X118769062Y-66599247D01*
X118695635Y-66592500D01*
X118681265Y-66592500D01*
X118182499Y-66592501D01*
X118114379Y-66572499D01*
X118067886Y-66518844D01*
X118056500Y-66466501D01*
X118056500Y-64994285D01*
X135281428Y-64994285D01*
X135287262Y-65004051D01*
X136713190Y-66429980D01*
X136727131Y-66437592D01*
X136728966Y-66437461D01*
X136735580Y-66433210D01*
X138162984Y-65005805D01*
X138170498Y-64992044D01*
X138164041Y-64982684D01*
X138142023Y-64963376D01*
X138135481Y-64958356D01*
X137889918Y-64794276D01*
X137882781Y-64790155D01*
X137617894Y-64659528D01*
X137610290Y-64656378D01*
X137330618Y-64561442D01*
X137322666Y-64559311D01*
X137032990Y-64501691D01*
X137024832Y-64500617D01*
X136730119Y-64481301D01*
X136721881Y-64481301D01*
X136427168Y-64500617D01*
X136419010Y-64501691D01*
X136129334Y-64559311D01*
X136121382Y-64561442D01*
X135841719Y-64656375D01*
X135834100Y-64659530D01*
X135569219Y-64790156D01*
X135562081Y-64794277D01*
X135316519Y-64958356D01*
X135309977Y-64963376D01*
X135289825Y-64981048D01*
X135281428Y-64994285D01*
X118056500Y-64994285D01*
X118056500Y-57256660D01*
X118076502Y-57188539D01*
X118093405Y-57167565D01*
X118138684Y-57122286D01*
X118200996Y-57088260D01*
X118252896Y-57087910D01*
X118344597Y-57106567D01*
X118349772Y-57106757D01*
X118349774Y-57106757D01*
X118562673Y-57114564D01*
X118562677Y-57114564D01*
X118567837Y-57114753D01*
X118572957Y-57114097D01*
X118572959Y-57114097D01*
X118784288Y-57087025D01*
X118784289Y-57087025D01*
X118789416Y-57086368D01*
X118829264Y-57074413D01*
X118998429Y-57023661D01*
X118998434Y-57023659D01*
X119003384Y-57022174D01*
X119203994Y-56923896D01*
X119385860Y-56794173D01*
X119544096Y-56636489D01*
X119674453Y-56455077D01*
X119675776Y-56456028D01*
X119722645Y-56412857D01*
X119792580Y-56400625D01*
X119858026Y-56428144D01*
X119885875Y-56459994D01*
X119945987Y-56558088D01*
X120092250Y-56726938D01*
X120264126Y-56869632D01*
X120275070Y-56876027D01*
X120323793Y-56927664D01*
X120337500Y-56984815D01*
X120337500Y-62250338D01*
X120317498Y-62318459D01*
X120300596Y-62339433D01*
X119567467Y-63072563D01*
X119504568Y-63106715D01*
X119454065Y-63117450D01*
X119351712Y-63139206D01*
X119345682Y-63141891D01*
X119345681Y-63141891D01*
X119183278Y-63214197D01*
X119183276Y-63214198D01*
X119177248Y-63216882D01*
X119022747Y-63329134D01*
X119018326Y-63334044D01*
X119018325Y-63334045D01*
X118939986Y-63421050D01*
X118894960Y-63471056D01*
X118881686Y-63494048D01*
X118807263Y-63622952D01*
X118799473Y-63636444D01*
X118740458Y-63818072D01*
X118739768Y-63824633D01*
X118739768Y-63824635D01*
X118728999Y-63927095D01*
X118720496Y-64008000D01*
X118721186Y-64014565D01*
X118739557Y-64189351D01*
X118740458Y-64197928D01*
X118799473Y-64379556D01*
X118894960Y-64544944D01*
X118899378Y-64549851D01*
X118899379Y-64549852D01*
X119018325Y-64681955D01*
X119022747Y-64686866D01*
X119100932Y-64743671D01*
X119170584Y-64794276D01*
X119177248Y-64799118D01*
X119183276Y-64801802D01*
X119183278Y-64801803D01*
X119345681Y-64874109D01*
X119351712Y-64876794D01*
X119445113Y-64896647D01*
X119532056Y-64915128D01*
X119532061Y-64915128D01*
X119538513Y-64916500D01*
X119729487Y-64916500D01*
X119735939Y-64915128D01*
X119735944Y-64915128D01*
X119822887Y-64896647D01*
X119916288Y-64876794D01*
X119922319Y-64874109D01*
X120084722Y-64801803D01*
X120084724Y-64801802D01*
X120090752Y-64799118D01*
X120097417Y-64794276D01*
X120167068Y-64743671D01*
X120245253Y-64686866D01*
X120249675Y-64681955D01*
X120368621Y-64549852D01*
X120368622Y-64549851D01*
X120373040Y-64544944D01*
X120468527Y-64379556D01*
X120527542Y-64197928D01*
X120532450Y-64151230D01*
X120559463Y-64085573D01*
X120568665Y-64075305D01*
X121032014Y-63611956D01*
X130781502Y-63611956D01*
X130787959Y-63621316D01*
X130809977Y-63640624D01*
X130816519Y-63645644D01*
X131062082Y-63809724D01*
X131069219Y-63813845D01*
X131334106Y-63944472D01*
X131341710Y-63947622D01*
X131621382Y-64042558D01*
X131629334Y-64044689D01*
X131919010Y-64102309D01*
X131927168Y-64103383D01*
X132221881Y-64122699D01*
X132230119Y-64122699D01*
X132524832Y-64103383D01*
X132532990Y-64102309D01*
X132822666Y-64044689D01*
X132830618Y-64042558D01*
X133110290Y-63947622D01*
X133117894Y-63944472D01*
X133382781Y-63813845D01*
X133389918Y-63809724D01*
X133635481Y-63645644D01*
X133642023Y-63640624D01*
X133662175Y-63622952D01*
X133670572Y-63609715D01*
X133664738Y-63599949D01*
X132238810Y-62174020D01*
X132224869Y-62166408D01*
X132223034Y-62166539D01*
X132216420Y-62170790D01*
X130789016Y-63598195D01*
X130781502Y-63611956D01*
X121032014Y-63611956D01*
X121526520Y-63117450D01*
X121532785Y-63111596D01*
X121570660Y-63078555D01*
X121576385Y-63073561D01*
X121613114Y-63021300D01*
X121617046Y-63016005D01*
X121651791Y-62971694D01*
X121656477Y-62965718D01*
X121659602Y-62958796D01*
X121660964Y-62956548D01*
X121669368Y-62941815D01*
X121670622Y-62939476D01*
X121674990Y-62933261D01*
X121677749Y-62926185D01*
X121677751Y-62926181D01*
X121698202Y-62873726D01*
X121700758Y-62867646D01*
X121723918Y-62816351D01*
X121727045Y-62809426D01*
X121728429Y-62801955D01*
X121729230Y-62799401D01*
X121733867Y-62783122D01*
X121734523Y-62780567D01*
X121737282Y-62773491D01*
X121745621Y-62710149D01*
X121746653Y-62703633D01*
X121756912Y-62648280D01*
X121758296Y-62640813D01*
X121754709Y-62578602D01*
X121754500Y-62571349D01*
X121754500Y-61806119D01*
X129905301Y-61806119D01*
X129924617Y-62100832D01*
X129925691Y-62108990D01*
X129983311Y-62398666D01*
X129985442Y-62406618D01*
X130080375Y-62686281D01*
X130083530Y-62693900D01*
X130214156Y-62958781D01*
X130218277Y-62965919D01*
X130382356Y-63211481D01*
X130387376Y-63218023D01*
X130405048Y-63238175D01*
X130418285Y-63246572D01*
X130428051Y-63240738D01*
X131853980Y-61814810D01*
X131860357Y-61803131D01*
X132590408Y-61803131D01*
X132590539Y-61804966D01*
X132594790Y-61811580D01*
X134022195Y-63238984D01*
X134035956Y-63246498D01*
X134045316Y-63240041D01*
X134064624Y-63218023D01*
X134069644Y-63211481D01*
X134233723Y-62965919D01*
X134237844Y-62958781D01*
X134368470Y-62693900D01*
X134371625Y-62686281D01*
X134466558Y-62406618D01*
X134468689Y-62398666D01*
X134526309Y-62108990D01*
X134527383Y-62100832D01*
X134546699Y-61806119D01*
X134546699Y-61797881D01*
X134527383Y-61503168D01*
X134526309Y-61495010D01*
X134468689Y-61205334D01*
X134466558Y-61197382D01*
X134371625Y-60917719D01*
X134368470Y-60910100D01*
X134237844Y-60645219D01*
X134233723Y-60638081D01*
X134069644Y-60392519D01*
X134064624Y-60385977D01*
X134046952Y-60365825D01*
X134033715Y-60357428D01*
X134023949Y-60363262D01*
X132598020Y-61789190D01*
X132590408Y-61803131D01*
X131860357Y-61803131D01*
X131861592Y-61800869D01*
X131861461Y-61799034D01*
X131857210Y-61792420D01*
X130429805Y-60365016D01*
X130416044Y-60357502D01*
X130406684Y-60363959D01*
X130387376Y-60385977D01*
X130382356Y-60392519D01*
X130218277Y-60638081D01*
X130214156Y-60645219D01*
X130083530Y-60910100D01*
X130080375Y-60917719D01*
X129985442Y-61197382D01*
X129983311Y-61205334D01*
X129925691Y-61495010D01*
X129924617Y-61503168D01*
X129905301Y-61797881D01*
X129905301Y-61806119D01*
X121754500Y-61806119D01*
X121754500Y-59994285D01*
X130781428Y-59994285D01*
X130787262Y-60004051D01*
X132213190Y-61429980D01*
X132227131Y-61437592D01*
X132228966Y-61437461D01*
X132235580Y-61433210D01*
X133662984Y-60005805D01*
X133670498Y-59992044D01*
X133664041Y-59982684D01*
X133642023Y-59963376D01*
X133635481Y-59958356D01*
X133389918Y-59794276D01*
X133382781Y-59790155D01*
X133117894Y-59659528D01*
X133110290Y-59656378D01*
X132830618Y-59561442D01*
X132822666Y-59559311D01*
X132532990Y-59501691D01*
X132524832Y-59500617D01*
X132230119Y-59481301D01*
X132221881Y-59481301D01*
X131927168Y-59500617D01*
X131919010Y-59501691D01*
X131629334Y-59559311D01*
X131621382Y-59561442D01*
X131341719Y-59656375D01*
X131334100Y-59659530D01*
X131069219Y-59790156D01*
X131062081Y-59794277D01*
X130816519Y-59958356D01*
X130809977Y-59963376D01*
X130789825Y-59981048D01*
X130781428Y-59994285D01*
X121754500Y-59994285D01*
X121754500Y-56981297D01*
X121774502Y-56913176D01*
X121807332Y-56878718D01*
X121921656Y-56797172D01*
X121921659Y-56797170D01*
X121925860Y-56794173D01*
X122084096Y-56636489D01*
X122214453Y-56455077D01*
X122235320Y-56412857D01*
X122311136Y-56259453D01*
X122311137Y-56259451D01*
X122313430Y-56254811D01*
X122364710Y-56086029D01*
X122376865Y-56046023D01*
X122376865Y-56046021D01*
X122378370Y-56041069D01*
X122407529Y-55819590D01*
X122407611Y-55816240D01*
X122409074Y-55756365D01*
X122409074Y-55756361D01*
X122409156Y-55753000D01*
X122390852Y-55530361D01*
X122336431Y-55313702D01*
X122247354Y-55108840D01*
X122126014Y-54921277D01*
X121975670Y-54756051D01*
X121971619Y-54752852D01*
X121971615Y-54752848D01*
X121804414Y-54620800D01*
X121804410Y-54620798D01*
X121800359Y-54617598D01*
X121604789Y-54509638D01*
X121599920Y-54507914D01*
X121599916Y-54507912D01*
X121399087Y-54436795D01*
X121399083Y-54436794D01*
X121394212Y-54435069D01*
X121389119Y-54434162D01*
X121389116Y-54434161D01*
X121179373Y-54396800D01*
X121179367Y-54396799D01*
X121174284Y-54395894D01*
X121100452Y-54394992D01*
X120956081Y-54393228D01*
X120956079Y-54393228D01*
X120950911Y-54393165D01*
X120730091Y-54426955D01*
X120517756Y-54496357D01*
X120319607Y-54599507D01*
X120315474Y-54602610D01*
X120315471Y-54602612D01*
X120206140Y-54684700D01*
X120140965Y-54733635D01*
X120137393Y-54737373D01*
X120016162Y-54864234D01*
X119986629Y-54895138D01*
X119879201Y-55052621D01*
X119824293Y-55097621D01*
X119753768Y-55105792D01*
X119690021Y-55074538D01*
X119669324Y-55050054D01*
X119588822Y-54925617D01*
X119588820Y-54925614D01*
X119586014Y-54921277D01*
X119435670Y-54756051D01*
X119431619Y-54752852D01*
X119431615Y-54752848D01*
X119264414Y-54620800D01*
X119264410Y-54620798D01*
X119260359Y-54617598D01*
X119064789Y-54509638D01*
X119059920Y-54507914D01*
X119059916Y-54507912D01*
X118859087Y-54436795D01*
X118859083Y-54436794D01*
X118854212Y-54435069D01*
X118849119Y-54434162D01*
X118849116Y-54434161D01*
X118639373Y-54396800D01*
X118639367Y-54396799D01*
X118634284Y-54395894D01*
X118560452Y-54394992D01*
X118416081Y-54393228D01*
X118416079Y-54393228D01*
X118410911Y-54393165D01*
X118190091Y-54426955D01*
X117977756Y-54496357D01*
X117779607Y-54599507D01*
X117775474Y-54602610D01*
X117775471Y-54602612D01*
X117666140Y-54684700D01*
X117600965Y-54733635D01*
X117544537Y-54792684D01*
X117520283Y-54818064D01*
X117458759Y-54853494D01*
X117387846Y-54850037D01*
X117330060Y-54808791D01*
X117311207Y-54775243D01*
X117269767Y-54664703D01*
X117266615Y-54656295D01*
X117179261Y-54539739D01*
X117062705Y-54452385D01*
X116926316Y-54401255D01*
X116864134Y-54394500D01*
X115067866Y-54394500D01*
X115005684Y-54401255D01*
X114869295Y-54452385D01*
X114752739Y-54539739D01*
X114665385Y-54656295D01*
X114614255Y-54792684D01*
X114607500Y-54854866D01*
X114607500Y-56651134D01*
X114614255Y-56713316D01*
X114665385Y-56849705D01*
X114752739Y-56966261D01*
X114869295Y-57053615D01*
X115005684Y-57104745D01*
X115067866Y-57111500D01*
X115131500Y-57111500D01*
X115199621Y-57131502D01*
X115246114Y-57185158D01*
X115257500Y-57237500D01*
X115257500Y-63774338D01*
X115237498Y-63842459D01*
X115220596Y-63863433D01*
X114606435Y-64477595D01*
X114544122Y-64511620D01*
X114517339Y-64514500D01*
X114112000Y-64514500D01*
X114043879Y-64494498D01*
X113997386Y-64440842D01*
X113986000Y-64388500D01*
X113986000Y-64251533D01*
X113979245Y-64189351D01*
X113928115Y-64052962D01*
X113840761Y-63936406D01*
X113833581Y-63931025D01*
X113829651Y-63927095D01*
X113795625Y-63864783D01*
X113800690Y-63793968D01*
X113829651Y-63748905D01*
X113833581Y-63744975D01*
X113840761Y-63739594D01*
X113928115Y-63623038D01*
X113979245Y-63486649D01*
X113986000Y-63424467D01*
X113986000Y-61481533D01*
X113979245Y-61419351D01*
X113928115Y-61282962D01*
X113840761Y-61166406D01*
X113833581Y-61161025D01*
X113829651Y-61157095D01*
X113795625Y-61094783D01*
X113800690Y-61023968D01*
X113829651Y-60978905D01*
X113833581Y-60974975D01*
X113840761Y-60969594D01*
X113928115Y-60853038D01*
X113979245Y-60716649D01*
X113986000Y-60654467D01*
X113986000Y-58711533D01*
X113979245Y-58649351D01*
X113928115Y-58512962D01*
X113840761Y-58396406D01*
X113833581Y-58391025D01*
X113829294Y-58386738D01*
X113795268Y-58324426D01*
X113800333Y-58253611D01*
X113829294Y-58208548D01*
X113845785Y-58192057D01*
X113922286Y-58089982D01*
X113930824Y-58074387D01*
X113975978Y-57953939D01*
X113979605Y-57938684D01*
X113985131Y-57887819D01*
X113985500Y-57881005D01*
X113985500Y-57185115D01*
X113981025Y-57169876D01*
X113979635Y-57168671D01*
X113971952Y-57167000D01*
X111609500Y-57167000D01*
X111541379Y-57146998D01*
X111494886Y-57093342D01*
X111483500Y-57041000D01*
X111483500Y-56640885D01*
X111991500Y-56640885D01*
X111995975Y-56656124D01*
X111997365Y-56657329D01*
X112005048Y-56659000D01*
X113967384Y-56659000D01*
X113982623Y-56654525D01*
X113983828Y-56653135D01*
X113985499Y-56645452D01*
X113985499Y-55944998D01*
X113985129Y-55938177D01*
X113979605Y-55887315D01*
X113975979Y-55872063D01*
X113930824Y-55751613D01*
X113922286Y-55736018D01*
X113845785Y-55633943D01*
X113833224Y-55621382D01*
X113731149Y-55544881D01*
X113715554Y-55536343D01*
X113595106Y-55491189D01*
X113579851Y-55487562D01*
X113528986Y-55482036D01*
X113522172Y-55481667D01*
X112009615Y-55481667D01*
X111994376Y-55486142D01*
X111993171Y-55487532D01*
X111991500Y-55495215D01*
X111991500Y-56640885D01*
X111483500Y-56640885D01*
X111483500Y-55499783D01*
X111479025Y-55484544D01*
X111477635Y-55483339D01*
X111469952Y-55481668D01*
X110362000Y-55481668D01*
X110293879Y-55461666D01*
X110247386Y-55408010D01*
X110236000Y-55355668D01*
X110236000Y-54101000D01*
X110256002Y-54032879D01*
X110309658Y-53986386D01*
X110362000Y-53975000D01*
X135462672Y-53975000D01*
X135482057Y-53976500D01*
G37*
G04 #@! TD.AperFunction*
G04 #@! TA.AperFunction,Conductor*
G36*
X125833586Y-73129814D02*
G01*
X125984169Y-73173562D01*
X125990574Y-73174066D01*
X125990579Y-73174067D01*
X126019042Y-73176307D01*
X126019050Y-73176307D01*
X126021498Y-73176500D01*
X126278020Y-73176500D01*
X126346141Y-73196502D01*
X126392634Y-73250158D01*
X126404020Y-73302500D01*
X126404020Y-78344820D01*
X126384018Y-78412941D01*
X126367115Y-78433915D01*
X126088669Y-78712361D01*
X126026357Y-78746387D01*
X125955542Y-78741322D01*
X125898706Y-78698775D01*
X125891798Y-78688537D01*
X125821015Y-78571660D01*
X125804639Y-78544619D01*
X125713405Y-78453385D01*
X125679379Y-78391073D01*
X125676500Y-78364290D01*
X125676500Y-78201472D01*
X125696502Y-78133351D01*
X125750158Y-78086858D01*
X125820432Y-78076754D01*
X125837653Y-78080475D01*
X125966604Y-78117939D01*
X125980706Y-78117899D01*
X125984000Y-78110630D01*
X125984000Y-75181122D01*
X125980027Y-75167591D01*
X125972129Y-75166456D01*
X125832210Y-75207107D01*
X125817779Y-75213352D01*
X125688324Y-75289910D01*
X125680636Y-75295874D01*
X125614551Y-75321821D01*
X125544928Y-75307920D01*
X125528842Y-75297582D01*
X125524807Y-75293547D01*
X125505457Y-75282103D01*
X125388427Y-75212892D01*
X125388428Y-75212892D01*
X125381601Y-75208855D01*
X125373990Y-75206644D01*
X125373988Y-75206643D01*
X125286142Y-75181122D01*
X125221831Y-75162438D01*
X125215426Y-75161934D01*
X125215421Y-75161933D01*
X125186958Y-75159693D01*
X125186950Y-75159693D01*
X125184502Y-75159500D01*
X124751498Y-75159500D01*
X124749050Y-75159693D01*
X124749042Y-75159693D01*
X124720579Y-75161933D01*
X124720574Y-75161934D01*
X124714169Y-75162438D01*
X124649858Y-75181122D01*
X124562012Y-75206643D01*
X124562010Y-75206644D01*
X124554399Y-75208855D01*
X124421990Y-75287161D01*
X124353176Y-75304620D01*
X124285844Y-75282103D01*
X124254012Y-75250073D01*
X124237658Y-75226277D01*
X124233357Y-75220019D01*
X124225355Y-75212889D01*
X124186830Y-75178565D01*
X124181554Y-75173584D01*
X123598605Y-74590635D01*
X123564579Y-74528323D01*
X123569644Y-74457508D01*
X123612191Y-74400672D01*
X123678711Y-74375861D01*
X123687700Y-74375540D01*
X124424048Y-74375540D01*
X124432618Y-74375832D01*
X124482736Y-74379249D01*
X124482740Y-74379249D01*
X124490312Y-74379765D01*
X124497789Y-74378460D01*
X124497790Y-74378460D01*
X124524268Y-74373839D01*
X124553263Y-74368778D01*
X124559781Y-74367817D01*
X124623202Y-74360142D01*
X124630303Y-74357459D01*
X124632912Y-74356818D01*
X124649222Y-74352355D01*
X124651758Y-74351590D01*
X124659244Y-74350283D01*
X124717760Y-74324596D01*
X124723864Y-74322105D01*
X124776508Y-74302213D01*
X124776509Y-74302212D01*
X124783616Y-74299527D01*
X124789879Y-74295223D01*
X124792245Y-74293986D01*
X124807057Y-74285741D01*
X124809311Y-74284408D01*
X124816265Y-74281355D01*
X124866962Y-74242453D01*
X124872292Y-74238581D01*
X124918680Y-74206701D01*
X124918685Y-74206696D01*
X124924941Y-74202397D01*
X124966396Y-74155869D01*
X124971376Y-74150594D01*
X125448520Y-73673450D01*
X125454785Y-73667596D01*
X125492660Y-73634555D01*
X125498385Y-73629561D01*
X125535114Y-73577300D01*
X125539046Y-73572005D01*
X125573791Y-73527694D01*
X125578477Y-73521718D01*
X125581602Y-73514796D01*
X125582964Y-73512548D01*
X125591368Y-73497815D01*
X125592622Y-73495476D01*
X125596990Y-73489261D01*
X125599749Y-73482185D01*
X125599751Y-73482181D01*
X125620202Y-73429726D01*
X125622758Y-73423646D01*
X125645918Y-73372351D01*
X125649045Y-73365426D01*
X125650429Y-73357955D01*
X125651230Y-73355401D01*
X125655867Y-73339122D01*
X125656523Y-73336567D01*
X125659282Y-73329491D01*
X125667621Y-73266149D01*
X125668653Y-73259633D01*
X125674544Y-73227849D01*
X125706626Y-73164514D01*
X125767856Y-73128578D01*
X125833586Y-73129814D01*
G37*
G04 #@! TD.AperFunction*
M02*
