%FSLAX45Y45*%
G04 Gerber Fmt 4.5, Leading zero omitted, Abs format (unit mm)*
G04 Created by KiCad (PCBNEW (6.0.0)) date 2022-11-09 00:51:09*
%MOMM*%
%LPD*%
G01*
G04 APERTURE LIST*
%TA.AperFunction,Profile*%
%ADD10C,0.100000*%
%TD*%
%ADD11C,0.200000*%
%ADD12C,0.040000*%
%ADD13C,0.080000*%
%ADD14C,0.100000*%
%ADD15C,0.170000*%
%ADD16C,0.260000*%
G04 APERTURE END LIST*
D10*
X14148100Y-8763000D02*
X14152800Y-8696250D01*
X10972800Y-5346700D02*
X10972800Y-9258300D01*
X13170200Y-5346700D02*
X13551200Y-5346700D01*
X13551200Y-9359900D02*
G75*
G03*
X14148100Y-8763000I0J596900D01*
G01*
X14152800Y-7496250D02*
X14148100Y-5943600D01*
X14148100Y-5943600D02*
G75*
G03*
X13551200Y-5346700I-596900J0D01*
G01*
X13551200Y-9359900D02*
X10972800Y-9359900D01*
X13170200Y-5346700D02*
X10972800Y-5346700D01*
X10972800Y-9258300D02*
X10972800Y-9359900D01*
D11*
D12*
X11410000Y-7193600D02*
X11450000Y-7233600D01*
X11450000Y-7193600D02*
X11410000Y-7233600D01*
X11460800Y-7422200D02*
X11500800Y-7462200D01*
X11500800Y-7422200D02*
X11460800Y-7462200D01*
X11486200Y-6609400D02*
X11526200Y-6649400D01*
X11526200Y-6609400D02*
X11486200Y-6649400D01*
X11519170Y-6972570D02*
X11559170Y-7012570D01*
X11559170Y-6972570D02*
X11519170Y-7012570D01*
X11943400Y-6380800D02*
X11983400Y-6420800D01*
X11983400Y-6380800D02*
X11943400Y-6420800D01*
X12603800Y-7396800D02*
X12643800Y-7436800D01*
X12643800Y-7396800D02*
X12603800Y-7436800D01*
D13*
X11978000Y-8692889D02*
G75*
G03*
X11978000Y-8692889I-40000J0D01*
G01*
X11978000Y-8892889D02*
G75*
G03*
X11978000Y-8892889I-40000J0D01*
G01*
X13242800Y-7596250D02*
G75*
G03*
X13242800Y-7596250I-40000J0D01*
G01*
D11*
X13237800Y-7566250D02*
X13167800Y-7566250D01*
X13237800Y-7626250D02*
X13167800Y-7626250D01*
X13167800Y-7566250D02*
G75*
G03*
X13167800Y-7626250I0J-30000D01*
G01*
X13237800Y-7626250D02*
G75*
G03*
X13237800Y-7566250I0J30000D01*
G01*
D13*
X13242800Y-7846250D02*
G75*
G03*
X13242800Y-7846250I-40000J0D01*
G01*
D11*
X13237800Y-7816250D02*
X13167800Y-7816250D01*
X13237800Y-7876250D02*
X13167800Y-7876250D01*
X13167800Y-7816250D02*
G75*
G03*
X13167800Y-7876250I0J-30000D01*
G01*
X13237800Y-7876250D02*
G75*
G03*
X13237800Y-7816250I0J30000D01*
G01*
D13*
X13242800Y-8346250D02*
G75*
G03*
X13242800Y-8346250I-40000J0D01*
G01*
D11*
X13237800Y-8316250D02*
X13167800Y-8316250D01*
X13237800Y-8376250D02*
X13167800Y-8376250D01*
X13167800Y-8316250D02*
G75*
G03*
X13167800Y-8376250I0J-30000D01*
G01*
X13237800Y-8376250D02*
G75*
G03*
X13237800Y-8316250I0J30000D01*
G01*
D13*
X13242800Y-8596250D02*
G75*
G03*
X13242800Y-8596250I-40000J0D01*
G01*
D11*
X13237800Y-8566250D02*
X13167800Y-8566250D01*
X13237800Y-8626250D02*
X13167800Y-8626250D01*
X13167800Y-8566250D02*
G75*
G03*
X13167800Y-8626250I0J-30000D01*
G01*
X13237800Y-8626250D02*
G75*
G03*
X13237800Y-8566250I0J30000D01*
G01*
D13*
X13742800Y-8096250D02*
G75*
G03*
X13742800Y-8096250I-40000J0D01*
G01*
D11*
X13732800Y-8131250D02*
X13732800Y-8061250D01*
X13672800Y-8131250D02*
X13672800Y-8061250D01*
X13732800Y-8061250D02*
G75*
G03*
X13672800Y-8061250I-30000J0D01*
G01*
X13672800Y-8131250D02*
G75*
G03*
X13732800Y-8131250I30000J0D01*
G01*
D14*
X11596600Y-5525300D02*
X11596600Y-5625300D01*
X11546600Y-5575300D02*
X11646600Y-5575300D01*
X11850600Y-5525300D02*
X11850600Y-5625300D01*
X11800600Y-5575300D02*
X11900600Y-5575300D01*
X12104600Y-5525300D02*
X12104600Y-5625300D01*
X12054600Y-5575300D02*
X12154600Y-5575300D01*
D15*
X13282705Y-6740305D02*
X13282705Y-6620095D01*
X13162495Y-6620095D01*
X13162495Y-6740305D01*
X13282705Y-6740305D01*
D16*
X13222600Y-6310200D02*
X13352600Y-6180200D01*
X13222600Y-6050200D01*
X13092600Y-6180200D01*
X13222600Y-6310200D01*
X13222600Y-7310200D02*
X13352600Y-7180200D01*
X13222600Y-7050200D01*
X13092600Y-7180200D01*
X13222600Y-7310200D01*
X13672600Y-6810200D02*
X13802600Y-6680200D01*
X13672600Y-6550200D01*
X13542600Y-6680200D01*
X13672600Y-6810200D01*
D11*
X11225419Y-9675376D02*
X11225419Y-9475376D01*
X11273038Y-9475376D01*
X11301609Y-9484900D01*
X11320657Y-9503948D01*
X11330181Y-9522995D01*
X11339705Y-9561090D01*
X11339705Y-9589662D01*
X11330181Y-9627757D01*
X11320657Y-9646805D01*
X11301609Y-9665852D01*
X11273038Y-9675376D01*
X11225419Y-9675376D01*
X11425419Y-9675376D02*
X11425419Y-9542043D01*
X11425419Y-9580138D02*
X11434943Y-9561090D01*
X11444467Y-9551567D01*
X11463514Y-9542043D01*
X11482562Y-9542043D01*
X11549228Y-9675376D02*
X11549228Y-9542043D01*
X11549228Y-9475376D02*
X11539705Y-9484900D01*
X11549228Y-9494424D01*
X11558752Y-9484900D01*
X11549228Y-9475376D01*
X11549228Y-9494424D01*
X11673038Y-9675376D02*
X11653990Y-9665852D01*
X11644467Y-9646805D01*
X11644467Y-9475376D01*
X11777800Y-9675376D02*
X11758752Y-9665852D01*
X11749228Y-9646805D01*
X11749228Y-9475376D01*
X12006371Y-9675376D02*
X12006371Y-9475376D01*
X12073038Y-9618233D01*
X12139705Y-9475376D01*
X12139705Y-9675376D01*
X12320657Y-9675376D02*
X12320657Y-9570614D01*
X12311133Y-9551567D01*
X12292086Y-9542043D01*
X12253990Y-9542043D01*
X12234943Y-9551567D01*
X12320657Y-9665852D02*
X12301609Y-9675376D01*
X12253990Y-9675376D01*
X12234943Y-9665852D01*
X12225419Y-9646805D01*
X12225419Y-9627757D01*
X12234943Y-9608710D01*
X12253990Y-9599186D01*
X12301609Y-9599186D01*
X12320657Y-9589662D01*
X12415895Y-9542043D02*
X12415895Y-9742043D01*
X12415895Y-9551567D02*
X12434943Y-9542043D01*
X12473038Y-9542043D01*
X12492086Y-9551567D01*
X12501609Y-9561090D01*
X12511133Y-9580138D01*
X12511133Y-9637281D01*
X12501609Y-9656329D01*
X12492086Y-9665852D01*
X12473038Y-9675376D01*
X12434943Y-9675376D01*
X12415895Y-9665852D01*
X12596848Y-9656329D02*
X12606371Y-9665852D01*
X12596848Y-9675376D01*
X12587324Y-9665852D01*
X12596848Y-9656329D01*
X12596848Y-9675376D01*
X12596848Y-9551567D02*
X12606371Y-9561090D01*
X12596848Y-9570614D01*
X12587324Y-9561090D01*
X12596848Y-9551567D01*
X12596848Y-9570614D01*
D12*
X10927800Y-9984900D02*
X10967800Y-10024900D01*
X10967800Y-9984900D02*
X10927800Y-10024900D01*
D11*
X11263514Y-9895376D02*
X11282562Y-9895376D01*
X11301609Y-9904900D01*
X11311133Y-9914424D01*
X11320657Y-9933471D01*
X11330181Y-9971567D01*
X11330181Y-10019186D01*
X11320657Y-10057281D01*
X11311133Y-10076329D01*
X11301609Y-10085852D01*
X11282562Y-10095376D01*
X11263514Y-10095376D01*
X11244467Y-10085852D01*
X11234943Y-10076329D01*
X11225419Y-10057281D01*
X11215895Y-10019186D01*
X11215895Y-9971567D01*
X11225419Y-9933471D01*
X11234943Y-9914424D01*
X11244467Y-9904900D01*
X11263514Y-9895376D01*
X11415895Y-10076329D02*
X11425419Y-10085852D01*
X11415895Y-10095376D01*
X11406371Y-10085852D01*
X11415895Y-10076329D01*
X11415895Y-10095376D01*
X11596848Y-9962043D02*
X11596848Y-10095376D01*
X11549228Y-9885852D02*
X11501609Y-10028710D01*
X11625419Y-10028710D01*
X11739705Y-9895376D02*
X11758752Y-9895376D01*
X11777800Y-9904900D01*
X11787324Y-9914424D01*
X11796848Y-9933471D01*
X11806371Y-9971567D01*
X11806371Y-10019186D01*
X11796848Y-10057281D01*
X11787324Y-10076329D01*
X11777800Y-10085852D01*
X11758752Y-10095376D01*
X11739705Y-10095376D01*
X11720657Y-10085852D01*
X11711133Y-10076329D01*
X11701609Y-10057281D01*
X11692086Y-10019186D01*
X11692086Y-9971567D01*
X11701609Y-9933471D01*
X11711133Y-9914424D01*
X11720657Y-9904900D01*
X11739705Y-9895376D01*
X11930181Y-9895376D02*
X11949228Y-9895376D01*
X11968276Y-9904900D01*
X11977800Y-9914424D01*
X11987324Y-9933471D01*
X11996848Y-9971567D01*
X11996848Y-10019186D01*
X11987324Y-10057281D01*
X11977800Y-10076329D01*
X11968276Y-10085852D01*
X11949228Y-10095376D01*
X11930181Y-10095376D01*
X11911133Y-10085852D01*
X11901609Y-10076329D01*
X11892086Y-10057281D01*
X11882562Y-10019186D01*
X11882562Y-9971567D01*
X11892086Y-9933471D01*
X11901609Y-9914424D01*
X11911133Y-9904900D01*
X11930181Y-9895376D01*
X12082562Y-10095376D02*
X12082562Y-9962043D01*
X12082562Y-9981090D02*
X12092086Y-9971567D01*
X12111133Y-9962043D01*
X12139705Y-9962043D01*
X12158752Y-9971567D01*
X12168276Y-9990614D01*
X12168276Y-10095376D01*
X12168276Y-9990614D02*
X12177800Y-9971567D01*
X12196848Y-9962043D01*
X12225419Y-9962043D01*
X12244467Y-9971567D01*
X12253990Y-9990614D01*
X12253990Y-10095376D01*
X12349228Y-10095376D02*
X12349228Y-9962043D01*
X12349228Y-9981090D02*
X12358752Y-9971567D01*
X12377800Y-9962043D01*
X12406371Y-9962043D01*
X12425419Y-9971567D01*
X12434943Y-9990614D01*
X12434943Y-10095376D01*
X12434943Y-9990614D02*
X12444467Y-9971567D01*
X12463514Y-9962043D01*
X12492086Y-9962043D01*
X12511133Y-9971567D01*
X12520657Y-9990614D01*
X12520657Y-10095376D01*
X12911133Y-9885852D02*
X12739705Y-10142995D01*
X13168276Y-9895376D02*
X13187324Y-9895376D01*
X13206371Y-9904900D01*
X13215895Y-9914424D01*
X13225419Y-9933471D01*
X13234943Y-9971567D01*
X13234943Y-10019186D01*
X13225419Y-10057281D01*
X13215895Y-10076329D01*
X13206371Y-10085852D01*
X13187324Y-10095376D01*
X13168276Y-10095376D01*
X13149228Y-10085852D01*
X13139705Y-10076329D01*
X13130181Y-10057281D01*
X13120657Y-10019186D01*
X13120657Y-9971567D01*
X13130181Y-9933471D01*
X13139705Y-9914424D01*
X13149228Y-9904900D01*
X13168276Y-9895376D01*
X13320657Y-10076329D02*
X13330181Y-10085852D01*
X13320657Y-10095376D01*
X13311133Y-10085852D01*
X13320657Y-10076329D01*
X13320657Y-10095376D01*
X13453990Y-9895376D02*
X13473038Y-9895376D01*
X13492086Y-9904900D01*
X13501609Y-9914424D01*
X13511133Y-9933471D01*
X13520657Y-9971567D01*
X13520657Y-10019186D01*
X13511133Y-10057281D01*
X13501609Y-10076329D01*
X13492086Y-10085852D01*
X13473038Y-10095376D01*
X13453990Y-10095376D01*
X13434943Y-10085852D01*
X13425419Y-10076329D01*
X13415895Y-10057281D01*
X13406371Y-10019186D01*
X13406371Y-9971567D01*
X13415895Y-9933471D01*
X13425419Y-9914424D01*
X13434943Y-9904900D01*
X13453990Y-9895376D01*
X13711133Y-10095376D02*
X13596848Y-10095376D01*
X13653990Y-10095376D02*
X13653990Y-9895376D01*
X13634943Y-9923948D01*
X13615895Y-9942995D01*
X13596848Y-9952519D01*
X13892086Y-9895376D02*
X13796848Y-9895376D01*
X13787324Y-9990614D01*
X13796848Y-9981090D01*
X13815895Y-9971567D01*
X13863514Y-9971567D01*
X13882562Y-9981090D01*
X13892086Y-9990614D01*
X13901609Y-10009662D01*
X13901609Y-10057281D01*
X13892086Y-10076329D01*
X13882562Y-10085852D01*
X13863514Y-10095376D01*
X13815895Y-10095376D01*
X13796848Y-10085852D01*
X13787324Y-10076329D01*
X13968276Y-9895376D02*
X14101609Y-9895376D01*
X14015895Y-10095376D01*
X14168276Y-9895376D02*
X14168276Y-9933471D01*
X14244467Y-9895376D02*
X14244467Y-9933471D01*
X14539705Y-10171567D02*
X14530181Y-10162043D01*
X14511133Y-10133471D01*
X14501609Y-10114424D01*
X14492086Y-10085852D01*
X14482562Y-10038233D01*
X14482562Y-10000138D01*
X14492086Y-9952519D01*
X14501609Y-9923948D01*
X14511133Y-9904900D01*
X14530181Y-9876329D01*
X14539705Y-9866805D01*
X14701609Y-9895376D02*
X14663514Y-9895376D01*
X14644467Y-9904900D01*
X14634943Y-9914424D01*
X14615895Y-9942995D01*
X14606371Y-9981090D01*
X14606371Y-10057281D01*
X14615895Y-10076329D01*
X14625419Y-10085852D01*
X14644467Y-10095376D01*
X14682562Y-10095376D01*
X14701609Y-10085852D01*
X14711133Y-10076329D01*
X14720657Y-10057281D01*
X14720657Y-10009662D01*
X14711133Y-9990614D01*
X14701609Y-9981090D01*
X14682562Y-9971567D01*
X14644467Y-9971567D01*
X14625419Y-9981090D01*
X14615895Y-9990614D01*
X14606371Y-10009662D01*
X14958752Y-10095376D02*
X14958752Y-9895376D01*
X15044467Y-10095376D02*
X15044467Y-9990614D01*
X15034943Y-9971567D01*
X15015895Y-9962043D01*
X14987324Y-9962043D01*
X14968276Y-9971567D01*
X14958752Y-9981090D01*
X15168276Y-10095376D02*
X15149228Y-10085852D01*
X15139705Y-10076329D01*
X15130181Y-10057281D01*
X15130181Y-10000138D01*
X15139705Y-9981090D01*
X15149228Y-9971567D01*
X15168276Y-9962043D01*
X15196848Y-9962043D01*
X15215895Y-9971567D01*
X15225419Y-9981090D01*
X15234943Y-10000138D01*
X15234943Y-10057281D01*
X15225419Y-10076329D01*
X15215895Y-10085852D01*
X15196848Y-10095376D01*
X15168276Y-10095376D01*
X15349228Y-10095376D02*
X15330181Y-10085852D01*
X15320657Y-10066805D01*
X15320657Y-9895376D01*
X15501609Y-10085852D02*
X15482562Y-10095376D01*
X15444467Y-10095376D01*
X15425419Y-10085852D01*
X15415895Y-10066805D01*
X15415895Y-9990614D01*
X15425419Y-9971567D01*
X15444467Y-9962043D01*
X15482562Y-9962043D01*
X15501609Y-9971567D01*
X15511133Y-9990614D01*
X15511133Y-10009662D01*
X15415895Y-10028710D01*
X15587324Y-10085852D02*
X15606371Y-10095376D01*
X15644467Y-10095376D01*
X15663514Y-10085852D01*
X15673038Y-10066805D01*
X15673038Y-10057281D01*
X15663514Y-10038233D01*
X15644467Y-10028710D01*
X15615895Y-10028710D01*
X15596848Y-10019186D01*
X15587324Y-10000138D01*
X15587324Y-9990614D01*
X15596848Y-9971567D01*
X15615895Y-9962043D01*
X15644467Y-9962043D01*
X15663514Y-9971567D01*
X15739705Y-10171567D02*
X15749228Y-10162043D01*
X15768276Y-10133471D01*
X15777800Y-10114424D01*
X15787324Y-10085852D01*
X15796848Y-10038233D01*
X15796848Y-10000138D01*
X15787324Y-9952519D01*
X15777800Y-9923948D01*
X15768276Y-9904900D01*
X15749228Y-9876329D01*
X15739705Y-9866805D01*
D13*
X10967800Y-10268900D02*
G75*
G03*
X10967800Y-10268900I-40000J0D01*
G01*
D11*
X11263514Y-10159376D02*
X11282562Y-10159376D01*
X11301609Y-10168900D01*
X11311133Y-10178424D01*
X11320657Y-10197471D01*
X11330181Y-10235567D01*
X11330181Y-10283186D01*
X11320657Y-10321281D01*
X11311133Y-10340329D01*
X11301609Y-10349852D01*
X11282562Y-10359376D01*
X11263514Y-10359376D01*
X11244467Y-10349852D01*
X11234943Y-10340329D01*
X11225419Y-10321281D01*
X11215895Y-10283186D01*
X11215895Y-10235567D01*
X11225419Y-10197471D01*
X11234943Y-10178424D01*
X11244467Y-10168900D01*
X11263514Y-10159376D01*
X11415895Y-10340329D02*
X11425419Y-10349852D01*
X11415895Y-10359376D01*
X11406371Y-10349852D01*
X11415895Y-10340329D01*
X11415895Y-10359376D01*
X11539705Y-10245090D02*
X11520657Y-10235567D01*
X11511133Y-10226043D01*
X11501609Y-10206995D01*
X11501609Y-10197471D01*
X11511133Y-10178424D01*
X11520657Y-10168900D01*
X11539705Y-10159376D01*
X11577800Y-10159376D01*
X11596848Y-10168900D01*
X11606371Y-10178424D01*
X11615895Y-10197471D01*
X11615895Y-10206995D01*
X11606371Y-10226043D01*
X11596848Y-10235567D01*
X11577800Y-10245090D01*
X11539705Y-10245090D01*
X11520657Y-10254614D01*
X11511133Y-10264138D01*
X11501609Y-10283186D01*
X11501609Y-10321281D01*
X11511133Y-10340329D01*
X11520657Y-10349852D01*
X11539705Y-10359376D01*
X11577800Y-10359376D01*
X11596848Y-10349852D01*
X11606371Y-10340329D01*
X11615895Y-10321281D01*
X11615895Y-10283186D01*
X11606371Y-10264138D01*
X11596848Y-10254614D01*
X11577800Y-10245090D01*
X11739705Y-10159376D02*
X11758752Y-10159376D01*
X11777800Y-10168900D01*
X11787324Y-10178424D01*
X11796848Y-10197471D01*
X11806371Y-10235567D01*
X11806371Y-10283186D01*
X11796848Y-10321281D01*
X11787324Y-10340329D01*
X11777800Y-10349852D01*
X11758752Y-10359376D01*
X11739705Y-10359376D01*
X11720657Y-10349852D01*
X11711133Y-10340329D01*
X11701609Y-10321281D01*
X11692086Y-10283186D01*
X11692086Y-10235567D01*
X11701609Y-10197471D01*
X11711133Y-10178424D01*
X11720657Y-10168900D01*
X11739705Y-10159376D01*
X11930181Y-10159376D02*
X11949228Y-10159376D01*
X11968276Y-10168900D01*
X11977800Y-10178424D01*
X11987324Y-10197471D01*
X11996848Y-10235567D01*
X11996848Y-10283186D01*
X11987324Y-10321281D01*
X11977800Y-10340329D01*
X11968276Y-10349852D01*
X11949228Y-10359376D01*
X11930181Y-10359376D01*
X11911133Y-10349852D01*
X11901609Y-10340329D01*
X11892086Y-10321281D01*
X11882562Y-10283186D01*
X11882562Y-10235567D01*
X11892086Y-10197471D01*
X11901609Y-10178424D01*
X11911133Y-10168900D01*
X11930181Y-10159376D01*
X12082562Y-10359376D02*
X12082562Y-10226043D01*
X12082562Y-10245090D02*
X12092086Y-10235567D01*
X12111133Y-10226043D01*
X12139705Y-10226043D01*
X12158752Y-10235567D01*
X12168276Y-10254614D01*
X12168276Y-10359376D01*
X12168276Y-10254614D02*
X12177800Y-10235567D01*
X12196848Y-10226043D01*
X12225419Y-10226043D01*
X12244467Y-10235567D01*
X12253990Y-10254614D01*
X12253990Y-10359376D01*
X12349228Y-10359376D02*
X12349228Y-10226043D01*
X12349228Y-10245090D02*
X12358752Y-10235567D01*
X12377800Y-10226043D01*
X12406371Y-10226043D01*
X12425419Y-10235567D01*
X12434943Y-10254614D01*
X12434943Y-10359376D01*
X12434943Y-10254614D02*
X12444467Y-10235567D01*
X12463514Y-10226043D01*
X12492086Y-10226043D01*
X12511133Y-10235567D01*
X12520657Y-10254614D01*
X12520657Y-10359376D01*
X12911133Y-10149852D02*
X12739705Y-10406995D01*
X13168276Y-10159376D02*
X13187324Y-10159376D01*
X13206371Y-10168900D01*
X13215895Y-10178424D01*
X13225419Y-10197471D01*
X13234943Y-10235567D01*
X13234943Y-10283186D01*
X13225419Y-10321281D01*
X13215895Y-10340329D01*
X13206371Y-10349852D01*
X13187324Y-10359376D01*
X13168276Y-10359376D01*
X13149228Y-10349852D01*
X13139705Y-10340329D01*
X13130181Y-10321281D01*
X13120657Y-10283186D01*
X13120657Y-10235567D01*
X13130181Y-10197471D01*
X13139705Y-10178424D01*
X13149228Y-10168900D01*
X13168276Y-10159376D01*
X13320657Y-10340329D02*
X13330181Y-10349852D01*
X13320657Y-10359376D01*
X13311133Y-10349852D01*
X13320657Y-10340329D01*
X13320657Y-10359376D01*
X13453990Y-10159376D02*
X13473038Y-10159376D01*
X13492086Y-10168900D01*
X13501609Y-10178424D01*
X13511133Y-10197471D01*
X13520657Y-10235567D01*
X13520657Y-10283186D01*
X13511133Y-10321281D01*
X13501609Y-10340329D01*
X13492086Y-10349852D01*
X13473038Y-10359376D01*
X13453990Y-10359376D01*
X13434943Y-10349852D01*
X13425419Y-10340329D01*
X13415895Y-10321281D01*
X13406371Y-10283186D01*
X13406371Y-10235567D01*
X13415895Y-10197471D01*
X13425419Y-10178424D01*
X13434943Y-10168900D01*
X13453990Y-10159376D01*
X13587324Y-10159376D02*
X13711133Y-10159376D01*
X13644467Y-10235567D01*
X13673038Y-10235567D01*
X13692086Y-10245090D01*
X13701609Y-10254614D01*
X13711133Y-10273662D01*
X13711133Y-10321281D01*
X13701609Y-10340329D01*
X13692086Y-10349852D01*
X13673038Y-10359376D01*
X13615895Y-10359376D01*
X13596848Y-10349852D01*
X13587324Y-10340329D01*
X13901609Y-10359376D02*
X13787324Y-10359376D01*
X13844467Y-10359376D02*
X13844467Y-10159376D01*
X13825419Y-10187948D01*
X13806371Y-10206995D01*
X13787324Y-10216519D01*
X14082562Y-10159376D02*
X13987324Y-10159376D01*
X13977800Y-10254614D01*
X13987324Y-10245090D01*
X14006371Y-10235567D01*
X14053990Y-10235567D01*
X14073038Y-10245090D01*
X14082562Y-10254614D01*
X14092086Y-10273662D01*
X14092086Y-10321281D01*
X14082562Y-10340329D01*
X14073038Y-10349852D01*
X14053990Y-10359376D01*
X14006371Y-10359376D01*
X13987324Y-10349852D01*
X13977800Y-10340329D01*
X14168276Y-10159376D02*
X14168276Y-10197471D01*
X14244467Y-10159376D02*
X14244467Y-10197471D01*
X14539705Y-10435567D02*
X14530181Y-10426043D01*
X14511133Y-10397471D01*
X14501609Y-10378424D01*
X14492086Y-10349852D01*
X14482562Y-10302233D01*
X14482562Y-10264138D01*
X14492086Y-10216519D01*
X14501609Y-10187948D01*
X14511133Y-10168900D01*
X14530181Y-10140329D01*
X14539705Y-10130805D01*
X14606371Y-10178424D02*
X14615895Y-10168900D01*
X14634943Y-10159376D01*
X14682562Y-10159376D01*
X14701609Y-10168900D01*
X14711133Y-10178424D01*
X14720657Y-10197471D01*
X14720657Y-10216519D01*
X14711133Y-10245090D01*
X14596848Y-10359376D01*
X14720657Y-10359376D01*
X14958752Y-10359376D02*
X14958752Y-10159376D01*
X15044467Y-10359376D02*
X15044467Y-10254614D01*
X15034943Y-10235567D01*
X15015895Y-10226043D01*
X14987324Y-10226043D01*
X14968276Y-10235567D01*
X14958752Y-10245090D01*
X15168276Y-10359376D02*
X15149228Y-10349852D01*
X15139705Y-10340329D01*
X15130181Y-10321281D01*
X15130181Y-10264138D01*
X15139705Y-10245090D01*
X15149228Y-10235567D01*
X15168276Y-10226043D01*
X15196848Y-10226043D01*
X15215895Y-10235567D01*
X15225419Y-10245090D01*
X15234943Y-10264138D01*
X15234943Y-10321281D01*
X15225419Y-10340329D01*
X15215895Y-10349852D01*
X15196848Y-10359376D01*
X15168276Y-10359376D01*
X15349228Y-10359376D02*
X15330181Y-10349852D01*
X15320657Y-10330805D01*
X15320657Y-10159376D01*
X15501609Y-10349852D02*
X15482562Y-10359376D01*
X15444467Y-10359376D01*
X15425419Y-10349852D01*
X15415895Y-10330805D01*
X15415895Y-10254614D01*
X15425419Y-10235567D01*
X15444467Y-10226043D01*
X15482562Y-10226043D01*
X15501609Y-10235567D01*
X15511133Y-10254614D01*
X15511133Y-10273662D01*
X15415895Y-10292710D01*
X15587324Y-10349852D02*
X15606371Y-10359376D01*
X15644467Y-10359376D01*
X15663514Y-10349852D01*
X15673038Y-10330805D01*
X15673038Y-10321281D01*
X15663514Y-10302233D01*
X15644467Y-10292710D01*
X15615895Y-10292710D01*
X15596848Y-10283186D01*
X15587324Y-10264138D01*
X15587324Y-10254614D01*
X15596848Y-10235567D01*
X15615895Y-10226043D01*
X15644467Y-10226043D01*
X15663514Y-10235567D01*
X15911133Y-10283186D02*
X16063514Y-10283186D01*
X15987324Y-10359376D02*
X15987324Y-10206995D01*
X16406371Y-10159376D02*
X16311133Y-10159376D01*
X16301609Y-10254614D01*
X16311133Y-10245090D01*
X16330181Y-10235567D01*
X16377800Y-10235567D01*
X16396848Y-10245090D01*
X16406371Y-10254614D01*
X16415895Y-10273662D01*
X16415895Y-10321281D01*
X16406371Y-10340329D01*
X16396848Y-10349852D01*
X16377800Y-10359376D01*
X16330181Y-10359376D01*
X16311133Y-10349852D01*
X16301609Y-10340329D01*
X16644467Y-10349852D02*
X16663514Y-10359376D01*
X16701609Y-10359376D01*
X16720657Y-10349852D01*
X16730181Y-10330805D01*
X16730181Y-10321281D01*
X16720657Y-10302233D01*
X16701609Y-10292710D01*
X16673038Y-10292710D01*
X16653990Y-10283186D01*
X16644467Y-10264138D01*
X16644467Y-10254614D01*
X16653990Y-10235567D01*
X16673038Y-10226043D01*
X16701609Y-10226043D01*
X16720657Y-10235567D01*
X16844467Y-10359376D02*
X16825419Y-10349852D01*
X16815895Y-10330805D01*
X16815895Y-10159376D01*
X16949229Y-10359376D02*
X16930181Y-10349852D01*
X16920657Y-10340329D01*
X16911133Y-10321281D01*
X16911133Y-10264138D01*
X16920657Y-10245090D01*
X16930181Y-10235567D01*
X16949229Y-10226043D01*
X16977800Y-10226043D01*
X16996848Y-10235567D01*
X17006371Y-10245090D01*
X17015895Y-10264138D01*
X17015895Y-10321281D01*
X17006371Y-10340329D01*
X16996848Y-10349852D01*
X16977800Y-10359376D01*
X16949229Y-10359376D01*
X17073038Y-10226043D02*
X17149229Y-10226043D01*
X17101610Y-10159376D02*
X17101610Y-10330805D01*
X17111133Y-10349852D01*
X17130181Y-10359376D01*
X17149229Y-10359376D01*
X17206371Y-10349852D02*
X17225419Y-10359376D01*
X17263514Y-10359376D01*
X17282562Y-10349852D01*
X17292086Y-10330805D01*
X17292086Y-10321281D01*
X17282562Y-10302233D01*
X17263514Y-10292710D01*
X17234943Y-10292710D01*
X17215895Y-10283186D01*
X17206371Y-10264138D01*
X17206371Y-10254614D01*
X17215895Y-10235567D01*
X17234943Y-10226043D01*
X17263514Y-10226043D01*
X17282562Y-10235567D01*
X17358752Y-10435567D02*
X17368276Y-10426043D01*
X17387324Y-10397471D01*
X17396848Y-10378424D01*
X17406371Y-10349852D01*
X17415895Y-10302233D01*
X17415895Y-10264138D01*
X17406371Y-10216519D01*
X17396848Y-10187948D01*
X17387324Y-10168900D01*
X17368276Y-10140329D01*
X17358752Y-10130805D01*
D14*
X10917800Y-10482900D02*
X10917800Y-10582900D01*
X10867800Y-10532900D02*
X10967800Y-10532900D01*
D11*
X11330181Y-10623376D02*
X11215895Y-10623376D01*
X11273038Y-10623376D02*
X11273038Y-10423376D01*
X11253990Y-10451948D01*
X11234943Y-10470995D01*
X11215895Y-10480519D01*
X11415895Y-10604329D02*
X11425419Y-10613852D01*
X11415895Y-10623376D01*
X11406371Y-10613852D01*
X11415895Y-10604329D01*
X11415895Y-10623376D01*
X11549228Y-10423376D02*
X11568276Y-10423376D01*
X11587324Y-10432900D01*
X11596848Y-10442424D01*
X11606371Y-10461471D01*
X11615895Y-10499567D01*
X11615895Y-10547186D01*
X11606371Y-10585281D01*
X11596848Y-10604329D01*
X11587324Y-10613852D01*
X11568276Y-10623376D01*
X11549228Y-10623376D01*
X11530181Y-10613852D01*
X11520657Y-10604329D01*
X11511133Y-10585281D01*
X11501609Y-10547186D01*
X11501609Y-10499567D01*
X11511133Y-10461471D01*
X11520657Y-10442424D01*
X11530181Y-10432900D01*
X11549228Y-10423376D01*
X11739705Y-10423376D02*
X11758752Y-10423376D01*
X11777800Y-10432900D01*
X11787324Y-10442424D01*
X11796848Y-10461471D01*
X11806371Y-10499567D01*
X11806371Y-10547186D01*
X11796848Y-10585281D01*
X11787324Y-10604329D01*
X11777800Y-10613852D01*
X11758752Y-10623376D01*
X11739705Y-10623376D01*
X11720657Y-10613852D01*
X11711133Y-10604329D01*
X11701609Y-10585281D01*
X11692086Y-10547186D01*
X11692086Y-10499567D01*
X11701609Y-10461471D01*
X11711133Y-10442424D01*
X11720657Y-10432900D01*
X11739705Y-10423376D01*
X11930181Y-10423376D02*
X11949228Y-10423376D01*
X11968276Y-10432900D01*
X11977800Y-10442424D01*
X11987324Y-10461471D01*
X11996848Y-10499567D01*
X11996848Y-10547186D01*
X11987324Y-10585281D01*
X11977800Y-10604329D01*
X11968276Y-10613852D01*
X11949228Y-10623376D01*
X11930181Y-10623376D01*
X11911133Y-10613852D01*
X11901609Y-10604329D01*
X11892086Y-10585281D01*
X11882562Y-10547186D01*
X11882562Y-10499567D01*
X11892086Y-10461471D01*
X11901609Y-10442424D01*
X11911133Y-10432900D01*
X11930181Y-10423376D01*
X12082562Y-10623376D02*
X12082562Y-10490043D01*
X12082562Y-10509090D02*
X12092086Y-10499567D01*
X12111133Y-10490043D01*
X12139705Y-10490043D01*
X12158752Y-10499567D01*
X12168276Y-10518614D01*
X12168276Y-10623376D01*
X12168276Y-10518614D02*
X12177800Y-10499567D01*
X12196848Y-10490043D01*
X12225419Y-10490043D01*
X12244467Y-10499567D01*
X12253990Y-10518614D01*
X12253990Y-10623376D01*
X12349228Y-10623376D02*
X12349228Y-10490043D01*
X12349228Y-10509090D02*
X12358752Y-10499567D01*
X12377800Y-10490043D01*
X12406371Y-10490043D01*
X12425419Y-10499567D01*
X12434943Y-10518614D01*
X12434943Y-10623376D01*
X12434943Y-10518614D02*
X12444467Y-10499567D01*
X12463514Y-10490043D01*
X12492086Y-10490043D01*
X12511133Y-10499567D01*
X12520657Y-10518614D01*
X12520657Y-10623376D01*
X12911133Y-10413852D02*
X12739705Y-10670995D01*
X13168276Y-10423376D02*
X13187324Y-10423376D01*
X13206371Y-10432900D01*
X13215895Y-10442424D01*
X13225419Y-10461471D01*
X13234943Y-10499567D01*
X13234943Y-10547186D01*
X13225419Y-10585281D01*
X13215895Y-10604329D01*
X13206371Y-10613852D01*
X13187324Y-10623376D01*
X13168276Y-10623376D01*
X13149228Y-10613852D01*
X13139705Y-10604329D01*
X13130181Y-10585281D01*
X13120657Y-10547186D01*
X13120657Y-10499567D01*
X13130181Y-10461471D01*
X13139705Y-10442424D01*
X13149228Y-10432900D01*
X13168276Y-10423376D01*
X13320657Y-10604329D02*
X13330181Y-10613852D01*
X13320657Y-10623376D01*
X13311133Y-10613852D01*
X13320657Y-10604329D01*
X13320657Y-10623376D01*
X13453990Y-10423376D02*
X13473038Y-10423376D01*
X13492086Y-10432900D01*
X13501609Y-10442424D01*
X13511133Y-10461471D01*
X13520657Y-10499567D01*
X13520657Y-10547186D01*
X13511133Y-10585281D01*
X13501609Y-10604329D01*
X13492086Y-10613852D01*
X13473038Y-10623376D01*
X13453990Y-10623376D01*
X13434943Y-10613852D01*
X13425419Y-10604329D01*
X13415895Y-10585281D01*
X13406371Y-10547186D01*
X13406371Y-10499567D01*
X13415895Y-10461471D01*
X13425419Y-10442424D01*
X13434943Y-10432900D01*
X13453990Y-10423376D01*
X13587324Y-10423376D02*
X13711133Y-10423376D01*
X13644467Y-10499567D01*
X13673038Y-10499567D01*
X13692086Y-10509090D01*
X13701609Y-10518614D01*
X13711133Y-10537662D01*
X13711133Y-10585281D01*
X13701609Y-10604329D01*
X13692086Y-10613852D01*
X13673038Y-10623376D01*
X13615895Y-10623376D01*
X13596848Y-10613852D01*
X13587324Y-10604329D01*
X13806371Y-10623376D02*
X13844467Y-10623376D01*
X13863514Y-10613852D01*
X13873038Y-10604329D01*
X13892086Y-10575757D01*
X13901609Y-10537662D01*
X13901609Y-10461471D01*
X13892086Y-10442424D01*
X13882562Y-10432900D01*
X13863514Y-10423376D01*
X13825419Y-10423376D01*
X13806371Y-10432900D01*
X13796848Y-10442424D01*
X13787324Y-10461471D01*
X13787324Y-10509090D01*
X13796848Y-10528138D01*
X13806371Y-10537662D01*
X13825419Y-10547186D01*
X13863514Y-10547186D01*
X13882562Y-10537662D01*
X13892086Y-10528138D01*
X13901609Y-10509090D01*
X14073038Y-10490043D02*
X14073038Y-10623376D01*
X14025419Y-10413852D02*
X13977800Y-10556710D01*
X14101609Y-10556710D01*
X14168276Y-10423376D02*
X14168276Y-10461471D01*
X14244467Y-10423376D02*
X14244467Y-10461471D01*
X14539705Y-10699567D02*
X14530181Y-10690043D01*
X14511133Y-10661471D01*
X14501609Y-10642424D01*
X14492086Y-10613852D01*
X14482562Y-10566233D01*
X14482562Y-10528138D01*
X14492086Y-10480519D01*
X14501609Y-10451948D01*
X14511133Y-10432900D01*
X14530181Y-10404329D01*
X14539705Y-10394805D01*
X14596848Y-10423376D02*
X14720657Y-10423376D01*
X14653990Y-10499567D01*
X14682562Y-10499567D01*
X14701609Y-10509090D01*
X14711133Y-10518614D01*
X14720657Y-10537662D01*
X14720657Y-10585281D01*
X14711133Y-10604329D01*
X14701609Y-10613852D01*
X14682562Y-10623376D01*
X14625419Y-10623376D01*
X14606371Y-10613852D01*
X14596848Y-10604329D01*
X14958752Y-10623376D02*
X14958752Y-10423376D01*
X15044467Y-10623376D02*
X15044467Y-10518614D01*
X15034943Y-10499567D01*
X15015895Y-10490043D01*
X14987324Y-10490043D01*
X14968276Y-10499567D01*
X14958752Y-10509090D01*
X15168276Y-10623376D02*
X15149228Y-10613852D01*
X15139705Y-10604329D01*
X15130181Y-10585281D01*
X15130181Y-10528138D01*
X15139705Y-10509090D01*
X15149228Y-10499567D01*
X15168276Y-10490043D01*
X15196848Y-10490043D01*
X15215895Y-10499567D01*
X15225419Y-10509090D01*
X15234943Y-10528138D01*
X15234943Y-10585281D01*
X15225419Y-10604329D01*
X15215895Y-10613852D01*
X15196848Y-10623376D01*
X15168276Y-10623376D01*
X15349228Y-10623376D02*
X15330181Y-10613852D01*
X15320657Y-10594805D01*
X15320657Y-10423376D01*
X15501609Y-10613852D02*
X15482562Y-10623376D01*
X15444467Y-10623376D01*
X15425419Y-10613852D01*
X15415895Y-10594805D01*
X15415895Y-10518614D01*
X15425419Y-10499567D01*
X15444467Y-10490043D01*
X15482562Y-10490043D01*
X15501609Y-10499567D01*
X15511133Y-10518614D01*
X15511133Y-10537662D01*
X15415895Y-10556710D01*
X15587324Y-10613852D02*
X15606371Y-10623376D01*
X15644467Y-10623376D01*
X15663514Y-10613852D01*
X15673038Y-10594805D01*
X15673038Y-10585281D01*
X15663514Y-10566233D01*
X15644467Y-10556710D01*
X15615895Y-10556710D01*
X15596848Y-10547186D01*
X15587324Y-10528138D01*
X15587324Y-10518614D01*
X15596848Y-10499567D01*
X15615895Y-10490043D01*
X15644467Y-10490043D01*
X15663514Y-10499567D01*
X15739705Y-10699567D02*
X15749228Y-10690043D01*
X15768276Y-10661471D01*
X15777800Y-10642424D01*
X15787324Y-10613852D01*
X15796848Y-10566233D01*
X15796848Y-10528138D01*
X15787324Y-10480519D01*
X15777800Y-10451948D01*
X15768276Y-10432900D01*
X15749228Y-10404329D01*
X15739705Y-10394805D01*
D15*
X10942905Y-10857005D02*
X10942905Y-10736795D01*
X10822695Y-10736795D01*
X10822695Y-10857005D01*
X10942905Y-10857005D01*
D11*
X11330181Y-10887376D02*
X11215895Y-10887376D01*
X11273038Y-10887376D02*
X11273038Y-10687376D01*
X11253990Y-10715948D01*
X11234943Y-10734995D01*
X11215895Y-10744519D01*
X11415895Y-10868329D02*
X11425419Y-10877852D01*
X11415895Y-10887376D01*
X11406371Y-10877852D01*
X11415895Y-10868329D01*
X11415895Y-10887376D01*
X11492086Y-10687376D02*
X11625419Y-10687376D01*
X11539705Y-10887376D01*
X11739705Y-10687376D02*
X11758752Y-10687376D01*
X11777800Y-10696900D01*
X11787324Y-10706424D01*
X11796848Y-10725471D01*
X11806371Y-10763567D01*
X11806371Y-10811186D01*
X11796848Y-10849281D01*
X11787324Y-10868329D01*
X11777800Y-10877852D01*
X11758752Y-10887376D01*
X11739705Y-10887376D01*
X11720657Y-10877852D01*
X11711133Y-10868329D01*
X11701609Y-10849281D01*
X11692086Y-10811186D01*
X11692086Y-10763567D01*
X11701609Y-10725471D01*
X11711133Y-10706424D01*
X11720657Y-10696900D01*
X11739705Y-10687376D01*
X11930181Y-10687376D02*
X11949228Y-10687376D01*
X11968276Y-10696900D01*
X11977800Y-10706424D01*
X11987324Y-10725471D01*
X11996848Y-10763567D01*
X11996848Y-10811186D01*
X11987324Y-10849281D01*
X11977800Y-10868329D01*
X11968276Y-10877852D01*
X11949228Y-10887376D01*
X11930181Y-10887376D01*
X11911133Y-10877852D01*
X11901609Y-10868329D01*
X11892086Y-10849281D01*
X11882562Y-10811186D01*
X11882562Y-10763567D01*
X11892086Y-10725471D01*
X11901609Y-10706424D01*
X11911133Y-10696900D01*
X11930181Y-10687376D01*
X12082562Y-10887376D02*
X12082562Y-10754043D01*
X12082562Y-10773090D02*
X12092086Y-10763567D01*
X12111133Y-10754043D01*
X12139705Y-10754043D01*
X12158752Y-10763567D01*
X12168276Y-10782614D01*
X12168276Y-10887376D01*
X12168276Y-10782614D02*
X12177800Y-10763567D01*
X12196848Y-10754043D01*
X12225419Y-10754043D01*
X12244467Y-10763567D01*
X12253990Y-10782614D01*
X12253990Y-10887376D01*
X12349228Y-10887376D02*
X12349228Y-10754043D01*
X12349228Y-10773090D02*
X12358752Y-10763567D01*
X12377800Y-10754043D01*
X12406371Y-10754043D01*
X12425419Y-10763567D01*
X12434943Y-10782614D01*
X12434943Y-10887376D01*
X12434943Y-10782614D02*
X12444467Y-10763567D01*
X12463514Y-10754043D01*
X12492086Y-10754043D01*
X12511133Y-10763567D01*
X12520657Y-10782614D01*
X12520657Y-10887376D01*
X12911133Y-10677852D02*
X12739705Y-10934995D01*
X13168276Y-10687376D02*
X13187324Y-10687376D01*
X13206371Y-10696900D01*
X13215895Y-10706424D01*
X13225419Y-10725471D01*
X13234943Y-10763567D01*
X13234943Y-10811186D01*
X13225419Y-10849281D01*
X13215895Y-10868329D01*
X13206371Y-10877852D01*
X13187324Y-10887376D01*
X13168276Y-10887376D01*
X13149228Y-10877852D01*
X13139705Y-10868329D01*
X13130181Y-10849281D01*
X13120657Y-10811186D01*
X13120657Y-10763567D01*
X13130181Y-10725471D01*
X13139705Y-10706424D01*
X13149228Y-10696900D01*
X13168276Y-10687376D01*
X13320657Y-10868329D02*
X13330181Y-10877852D01*
X13320657Y-10887376D01*
X13311133Y-10877852D01*
X13320657Y-10868329D01*
X13320657Y-10887376D01*
X13453990Y-10687376D02*
X13473038Y-10687376D01*
X13492086Y-10696900D01*
X13501609Y-10706424D01*
X13511133Y-10725471D01*
X13520657Y-10763567D01*
X13520657Y-10811186D01*
X13511133Y-10849281D01*
X13501609Y-10868329D01*
X13492086Y-10877852D01*
X13473038Y-10887376D01*
X13453990Y-10887376D01*
X13434943Y-10877852D01*
X13425419Y-10868329D01*
X13415895Y-10849281D01*
X13406371Y-10811186D01*
X13406371Y-10763567D01*
X13415895Y-10725471D01*
X13425419Y-10706424D01*
X13434943Y-10696900D01*
X13453990Y-10687376D01*
X13692086Y-10687376D02*
X13653990Y-10687376D01*
X13634943Y-10696900D01*
X13625419Y-10706424D01*
X13606371Y-10734995D01*
X13596848Y-10773090D01*
X13596848Y-10849281D01*
X13606371Y-10868329D01*
X13615895Y-10877852D01*
X13634943Y-10887376D01*
X13673038Y-10887376D01*
X13692086Y-10877852D01*
X13701609Y-10868329D01*
X13711133Y-10849281D01*
X13711133Y-10801662D01*
X13701609Y-10782614D01*
X13692086Y-10773090D01*
X13673038Y-10763567D01*
X13634943Y-10763567D01*
X13615895Y-10773090D01*
X13606371Y-10782614D01*
X13596848Y-10801662D01*
X13882562Y-10687376D02*
X13844467Y-10687376D01*
X13825419Y-10696900D01*
X13815895Y-10706424D01*
X13796848Y-10734995D01*
X13787324Y-10773090D01*
X13787324Y-10849281D01*
X13796848Y-10868329D01*
X13806371Y-10877852D01*
X13825419Y-10887376D01*
X13863514Y-10887376D01*
X13882562Y-10877852D01*
X13892086Y-10868329D01*
X13901609Y-10849281D01*
X13901609Y-10801662D01*
X13892086Y-10782614D01*
X13882562Y-10773090D01*
X13863514Y-10763567D01*
X13825419Y-10763567D01*
X13806371Y-10773090D01*
X13796848Y-10782614D01*
X13787324Y-10801662D01*
X13996848Y-10887376D02*
X14034943Y-10887376D01*
X14053990Y-10877852D01*
X14063514Y-10868329D01*
X14082562Y-10839757D01*
X14092086Y-10801662D01*
X14092086Y-10725471D01*
X14082562Y-10706424D01*
X14073038Y-10696900D01*
X14053990Y-10687376D01*
X14015895Y-10687376D01*
X13996848Y-10696900D01*
X13987324Y-10706424D01*
X13977800Y-10725471D01*
X13977800Y-10773090D01*
X13987324Y-10792138D01*
X13996848Y-10801662D01*
X14015895Y-10811186D01*
X14053990Y-10811186D01*
X14073038Y-10801662D01*
X14082562Y-10792138D01*
X14092086Y-10773090D01*
X14168276Y-10687376D02*
X14168276Y-10725471D01*
X14244467Y-10687376D02*
X14244467Y-10725471D01*
X14539705Y-10963567D02*
X14530181Y-10954043D01*
X14511133Y-10925471D01*
X14501609Y-10906424D01*
X14492086Y-10877852D01*
X14482562Y-10830233D01*
X14482562Y-10792138D01*
X14492086Y-10744519D01*
X14501609Y-10715948D01*
X14511133Y-10696900D01*
X14530181Y-10668329D01*
X14539705Y-10658805D01*
X14720657Y-10887376D02*
X14606371Y-10887376D01*
X14663514Y-10887376D02*
X14663514Y-10687376D01*
X14644467Y-10715948D01*
X14625419Y-10734995D01*
X14606371Y-10744519D01*
X14958752Y-10887376D02*
X14958752Y-10687376D01*
X15044467Y-10887376D02*
X15044467Y-10782614D01*
X15034943Y-10763567D01*
X15015895Y-10754043D01*
X14987324Y-10754043D01*
X14968276Y-10763567D01*
X14958752Y-10773090D01*
X15168276Y-10887376D02*
X15149228Y-10877852D01*
X15139705Y-10868329D01*
X15130181Y-10849281D01*
X15130181Y-10792138D01*
X15139705Y-10773090D01*
X15149228Y-10763567D01*
X15168276Y-10754043D01*
X15196848Y-10754043D01*
X15215895Y-10763567D01*
X15225419Y-10773090D01*
X15234943Y-10792138D01*
X15234943Y-10849281D01*
X15225419Y-10868329D01*
X15215895Y-10877852D01*
X15196848Y-10887376D01*
X15168276Y-10887376D01*
X15349228Y-10887376D02*
X15330181Y-10877852D01*
X15320657Y-10858805D01*
X15320657Y-10687376D01*
X15501609Y-10877852D02*
X15482562Y-10887376D01*
X15444467Y-10887376D01*
X15425419Y-10877852D01*
X15415895Y-10858805D01*
X15415895Y-10782614D01*
X15425419Y-10763567D01*
X15444467Y-10754043D01*
X15482562Y-10754043D01*
X15501609Y-10763567D01*
X15511133Y-10782614D01*
X15511133Y-10801662D01*
X15415895Y-10820710D01*
X15577800Y-10963567D02*
X15587324Y-10954043D01*
X15606371Y-10925471D01*
X15615895Y-10906424D01*
X15625419Y-10877852D01*
X15634943Y-10830233D01*
X15634943Y-10792138D01*
X15625419Y-10744519D01*
X15615895Y-10715948D01*
X15606371Y-10696900D01*
X15587324Y-10668329D01*
X15577800Y-10658805D01*
X10867800Y-11186900D02*
X10967800Y-11086900D01*
X10867800Y-10986900D01*
X10767800Y-11086900D01*
X10867800Y-11186900D01*
X11215895Y-10996424D02*
X11225419Y-10986900D01*
X11244467Y-10977376D01*
X11292086Y-10977376D01*
X11311133Y-10986900D01*
X11320657Y-10996424D01*
X11330181Y-11015471D01*
X11330181Y-11034519D01*
X11320657Y-11063090D01*
X11206371Y-11177376D01*
X11330181Y-11177376D01*
X11415895Y-11158329D02*
X11425419Y-11167852D01*
X11415895Y-11177376D01*
X11406371Y-11167852D01*
X11415895Y-11158329D01*
X11415895Y-11177376D01*
X11596848Y-10977376D02*
X11558752Y-10977376D01*
X11539705Y-10986900D01*
X11530181Y-10996424D01*
X11511133Y-11024995D01*
X11501609Y-11063090D01*
X11501609Y-11139281D01*
X11511133Y-11158329D01*
X11520657Y-11167852D01*
X11539705Y-11177376D01*
X11577800Y-11177376D01*
X11596848Y-11167852D01*
X11606371Y-11158329D01*
X11615895Y-11139281D01*
X11615895Y-11091662D01*
X11606371Y-11072614D01*
X11596848Y-11063090D01*
X11577800Y-11053567D01*
X11539705Y-11053567D01*
X11520657Y-11063090D01*
X11511133Y-11072614D01*
X11501609Y-11091662D01*
X11739705Y-10977376D02*
X11758752Y-10977376D01*
X11777800Y-10986900D01*
X11787324Y-10996424D01*
X11796848Y-11015471D01*
X11806371Y-11053567D01*
X11806371Y-11101186D01*
X11796848Y-11139281D01*
X11787324Y-11158329D01*
X11777800Y-11167852D01*
X11758752Y-11177376D01*
X11739705Y-11177376D01*
X11720657Y-11167852D01*
X11711133Y-11158329D01*
X11701609Y-11139281D01*
X11692086Y-11101186D01*
X11692086Y-11053567D01*
X11701609Y-11015471D01*
X11711133Y-10996424D01*
X11720657Y-10986900D01*
X11739705Y-10977376D01*
X11930181Y-10977376D02*
X11949228Y-10977376D01*
X11968276Y-10986900D01*
X11977800Y-10996424D01*
X11987324Y-11015471D01*
X11996848Y-11053567D01*
X11996848Y-11101186D01*
X11987324Y-11139281D01*
X11977800Y-11158329D01*
X11968276Y-11167852D01*
X11949228Y-11177376D01*
X11930181Y-11177376D01*
X11911133Y-11167852D01*
X11901609Y-11158329D01*
X11892086Y-11139281D01*
X11882562Y-11101186D01*
X11882562Y-11053567D01*
X11892086Y-11015471D01*
X11901609Y-10996424D01*
X11911133Y-10986900D01*
X11930181Y-10977376D01*
X12082562Y-11177376D02*
X12082562Y-11044043D01*
X12082562Y-11063090D02*
X12092086Y-11053567D01*
X12111133Y-11044043D01*
X12139705Y-11044043D01*
X12158752Y-11053567D01*
X12168276Y-11072614D01*
X12168276Y-11177376D01*
X12168276Y-11072614D02*
X12177800Y-11053567D01*
X12196848Y-11044043D01*
X12225419Y-11044043D01*
X12244467Y-11053567D01*
X12253990Y-11072614D01*
X12253990Y-11177376D01*
X12349228Y-11177376D02*
X12349228Y-11044043D01*
X12349228Y-11063090D02*
X12358752Y-11053567D01*
X12377800Y-11044043D01*
X12406371Y-11044043D01*
X12425419Y-11053567D01*
X12434943Y-11072614D01*
X12434943Y-11177376D01*
X12434943Y-11072614D02*
X12444467Y-11053567D01*
X12463514Y-11044043D01*
X12492086Y-11044043D01*
X12511133Y-11053567D01*
X12520657Y-11072614D01*
X12520657Y-11177376D01*
X12911133Y-10967852D02*
X12739705Y-11224995D01*
X13168276Y-10977376D02*
X13187324Y-10977376D01*
X13206371Y-10986900D01*
X13215895Y-10996424D01*
X13225419Y-11015471D01*
X13234943Y-11053567D01*
X13234943Y-11101186D01*
X13225419Y-11139281D01*
X13215895Y-11158329D01*
X13206371Y-11167852D01*
X13187324Y-11177376D01*
X13168276Y-11177376D01*
X13149228Y-11167852D01*
X13139705Y-11158329D01*
X13130181Y-11139281D01*
X13120657Y-11101186D01*
X13120657Y-11053567D01*
X13130181Y-11015471D01*
X13139705Y-10996424D01*
X13149228Y-10986900D01*
X13168276Y-10977376D01*
X13320657Y-11158329D02*
X13330181Y-11167852D01*
X13320657Y-11177376D01*
X13311133Y-11167852D01*
X13320657Y-11158329D01*
X13320657Y-11177376D01*
X13520657Y-11177376D02*
X13406371Y-11177376D01*
X13463514Y-11177376D02*
X13463514Y-10977376D01*
X13444467Y-11005948D01*
X13425419Y-11024995D01*
X13406371Y-11034519D01*
X13644467Y-10977376D02*
X13663514Y-10977376D01*
X13682562Y-10986900D01*
X13692086Y-10996424D01*
X13701609Y-11015471D01*
X13711133Y-11053567D01*
X13711133Y-11101186D01*
X13701609Y-11139281D01*
X13692086Y-11158329D01*
X13682562Y-11167852D01*
X13663514Y-11177376D01*
X13644467Y-11177376D01*
X13625419Y-11167852D01*
X13615895Y-11158329D01*
X13606371Y-11139281D01*
X13596848Y-11101186D01*
X13596848Y-11053567D01*
X13606371Y-11015471D01*
X13615895Y-10996424D01*
X13625419Y-10986900D01*
X13644467Y-10977376D01*
X13787324Y-10996424D02*
X13796848Y-10986900D01*
X13815895Y-10977376D01*
X13863514Y-10977376D01*
X13882562Y-10986900D01*
X13892086Y-10996424D01*
X13901609Y-11015471D01*
X13901609Y-11034519D01*
X13892086Y-11063090D01*
X13777800Y-11177376D01*
X13901609Y-11177376D01*
X14073038Y-11044043D02*
X14073038Y-11177376D01*
X14025419Y-10967852D02*
X13977800Y-11110710D01*
X14101609Y-11110710D01*
X14168276Y-10977376D02*
X14168276Y-11015471D01*
X14244467Y-10977376D02*
X14244467Y-11015471D01*
X14539705Y-11253567D02*
X14530181Y-11244043D01*
X14511133Y-11215471D01*
X14501609Y-11196424D01*
X14492086Y-11167852D01*
X14482562Y-11120233D01*
X14482562Y-11082138D01*
X14492086Y-11034519D01*
X14501609Y-11005948D01*
X14511133Y-10986900D01*
X14530181Y-10958329D01*
X14539705Y-10948805D01*
X14596848Y-10977376D02*
X14720657Y-10977376D01*
X14653990Y-11053567D01*
X14682562Y-11053567D01*
X14701609Y-11063090D01*
X14711133Y-11072614D01*
X14720657Y-11091662D01*
X14720657Y-11139281D01*
X14711133Y-11158329D01*
X14701609Y-11167852D01*
X14682562Y-11177376D01*
X14625419Y-11177376D01*
X14606371Y-11167852D01*
X14596848Y-11158329D01*
X14958752Y-11177376D02*
X14958752Y-10977376D01*
X15044467Y-11177376D02*
X15044467Y-11072614D01*
X15034943Y-11053567D01*
X15015895Y-11044043D01*
X14987324Y-11044043D01*
X14968276Y-11053567D01*
X14958752Y-11063090D01*
X15168276Y-11177376D02*
X15149228Y-11167852D01*
X15139705Y-11158329D01*
X15130181Y-11139281D01*
X15130181Y-11082138D01*
X15139705Y-11063090D01*
X15149228Y-11053567D01*
X15168276Y-11044043D01*
X15196848Y-11044043D01*
X15215895Y-11053567D01*
X15225419Y-11063090D01*
X15234943Y-11082138D01*
X15234943Y-11139281D01*
X15225419Y-11158329D01*
X15215895Y-11167852D01*
X15196848Y-11177376D01*
X15168276Y-11177376D01*
X15349228Y-11177376D02*
X15330181Y-11167852D01*
X15320657Y-11148805D01*
X15320657Y-10977376D01*
X15501609Y-11167852D02*
X15482562Y-11177376D01*
X15444467Y-11177376D01*
X15425419Y-11167852D01*
X15415895Y-11148805D01*
X15415895Y-11072614D01*
X15425419Y-11053567D01*
X15444467Y-11044043D01*
X15482562Y-11044043D01*
X15501609Y-11053567D01*
X15511133Y-11072614D01*
X15511133Y-11091662D01*
X15415895Y-11110710D01*
X15587324Y-11167852D02*
X15606371Y-11177376D01*
X15644467Y-11177376D01*
X15663514Y-11167852D01*
X15673038Y-11148805D01*
X15673038Y-11139281D01*
X15663514Y-11120233D01*
X15644467Y-11110710D01*
X15615895Y-11110710D01*
X15596848Y-11101186D01*
X15587324Y-11082138D01*
X15587324Y-11072614D01*
X15596848Y-11053567D01*
X15615895Y-11044043D01*
X15644467Y-11044043D01*
X15663514Y-11053567D01*
X15739705Y-11253567D02*
X15749228Y-11244043D01*
X15768276Y-11215471D01*
X15777800Y-11196424D01*
X15787324Y-11167852D01*
X15796848Y-11120233D01*
X15796848Y-11082138D01*
X15787324Y-11034519D01*
X15777800Y-11005948D01*
X15768276Y-10986900D01*
X15749228Y-10958329D01*
X15739705Y-10948805D01*
M02*
