%FSLAX45Y45*%
G04 Gerber Fmt 4.5, Leading zero omitted, Abs format (unit mm)*
G04 Created by KiCad (PCBNEW (6.0.0)) date 2022-11-09 00:51:09*
%MOMM*%
%LPD*%
G01*
G04 APERTURE LIST*
%TA.AperFunction,Profile*%
%ADD10C,0.100000*%
%TD*%
%ADD11C,0.200000*%
%ADD12C,0.120000*%
G04 APERTURE END LIST*
D10*
X14148100Y-8763000D02*
X14152800Y-8696250D01*
X10972800Y-5346700D02*
X10972800Y-9258300D01*
X13170200Y-5346700D02*
X13551200Y-5346700D01*
X13551200Y-9359900D02*
G75*
G03*
X14148100Y-8763000I0J596900D01*
G01*
X14152800Y-7496250D02*
X14148100Y-5943600D01*
X14148100Y-5943600D02*
G75*
G03*
X13551200Y-5346700I-596900J0D01*
G01*
X13551200Y-9359900D02*
X10972800Y-9359900D01*
X13170200Y-5346700D02*
X10972800Y-5346700D01*
X10972800Y-9258300D02*
X10972800Y-9359900D01*
D11*
D12*
X13142800Y-8036250D02*
X13262800Y-8156250D01*
X13262800Y-8036250D02*
X13142800Y-8156250D01*
X13642800Y-7536250D02*
X13762800Y-7656250D01*
X13762800Y-7536250D02*
X13642800Y-7656250D01*
X13642800Y-8536250D02*
X13762800Y-8656250D01*
X13762800Y-8536250D02*
X13642800Y-8656250D01*
X13892800Y-7536250D02*
X14012800Y-7656250D01*
X14012800Y-7536250D02*
X13892800Y-7656250D01*
X13892800Y-8536250D02*
X14012800Y-8656250D01*
X14012800Y-8536250D02*
X13892800Y-8656250D01*
D11*
X11225419Y-9675376D02*
X11225419Y-9475376D01*
X11273038Y-9475376D01*
X11301609Y-9484900D01*
X11320657Y-9503948D01*
X11330181Y-9522995D01*
X11339705Y-9561090D01*
X11339705Y-9589662D01*
X11330181Y-9627757D01*
X11320657Y-9646805D01*
X11301609Y-9665852D01*
X11273038Y-9675376D01*
X11225419Y-9675376D01*
X11425419Y-9675376D02*
X11425419Y-9542043D01*
X11425419Y-9580138D02*
X11434943Y-9561090D01*
X11444467Y-9551567D01*
X11463514Y-9542043D01*
X11482562Y-9542043D01*
X11549228Y-9675376D02*
X11549228Y-9542043D01*
X11549228Y-9475376D02*
X11539705Y-9484900D01*
X11549228Y-9494424D01*
X11558752Y-9484900D01*
X11549228Y-9475376D01*
X11549228Y-9494424D01*
X11673038Y-9675376D02*
X11653990Y-9665852D01*
X11644467Y-9646805D01*
X11644467Y-9475376D01*
X11777800Y-9675376D02*
X11758752Y-9665852D01*
X11749228Y-9646805D01*
X11749228Y-9475376D01*
X12006371Y-9675376D02*
X12006371Y-9475376D01*
X12073038Y-9618233D01*
X12139705Y-9475376D01*
X12139705Y-9675376D01*
X12320657Y-9675376D02*
X12320657Y-9570614D01*
X12311133Y-9551567D01*
X12292086Y-9542043D01*
X12253990Y-9542043D01*
X12234943Y-9551567D01*
X12320657Y-9665852D02*
X12301609Y-9675376D01*
X12253990Y-9675376D01*
X12234943Y-9665852D01*
X12225419Y-9646805D01*
X12225419Y-9627757D01*
X12234943Y-9608710D01*
X12253990Y-9599186D01*
X12301609Y-9599186D01*
X12320657Y-9589662D01*
X12415895Y-9542043D02*
X12415895Y-9742043D01*
X12415895Y-9551567D02*
X12434943Y-9542043D01*
X12473038Y-9542043D01*
X12492086Y-9551567D01*
X12501609Y-9561090D01*
X12511133Y-9580138D01*
X12511133Y-9637281D01*
X12501609Y-9656329D01*
X12492086Y-9665852D01*
X12473038Y-9675376D01*
X12434943Y-9675376D01*
X12415895Y-9665852D01*
X12596848Y-9656329D02*
X12606371Y-9665852D01*
X12596848Y-9675376D01*
X12587324Y-9665852D01*
X12596848Y-9656329D01*
X12596848Y-9675376D01*
X12596848Y-9551567D02*
X12606371Y-9561090D01*
X12596848Y-9570614D01*
X12587324Y-9561090D01*
X12596848Y-9551567D01*
X12596848Y-9570614D01*
D12*
X10847800Y-9944900D02*
X10967800Y-10064900D01*
X10967800Y-9944900D02*
X10847800Y-10064900D01*
D11*
X11330181Y-10095376D02*
X11215895Y-10095376D01*
X11273038Y-10095376D02*
X11273038Y-9895376D01*
X11253990Y-9923948D01*
X11234943Y-9942995D01*
X11215895Y-9952519D01*
X11415895Y-10076329D02*
X11425419Y-10085852D01*
X11415895Y-10095376D01*
X11406371Y-10085852D01*
X11415895Y-10076329D01*
X11415895Y-10095376D01*
X11501609Y-9914424D02*
X11511133Y-9904900D01*
X11530181Y-9895376D01*
X11577800Y-9895376D01*
X11596848Y-9904900D01*
X11606371Y-9914424D01*
X11615895Y-9933471D01*
X11615895Y-9952519D01*
X11606371Y-9981090D01*
X11492086Y-10095376D01*
X11615895Y-10095376D01*
X11739705Y-9895376D02*
X11758752Y-9895376D01*
X11777800Y-9904900D01*
X11787324Y-9914424D01*
X11796848Y-9933471D01*
X11806371Y-9971567D01*
X11806371Y-10019186D01*
X11796848Y-10057281D01*
X11787324Y-10076329D01*
X11777800Y-10085852D01*
X11758752Y-10095376D01*
X11739705Y-10095376D01*
X11720657Y-10085852D01*
X11711133Y-10076329D01*
X11701609Y-10057281D01*
X11692086Y-10019186D01*
X11692086Y-9971567D01*
X11701609Y-9933471D01*
X11711133Y-9914424D01*
X11720657Y-9904900D01*
X11739705Y-9895376D01*
X11930181Y-9895376D02*
X11949228Y-9895376D01*
X11968276Y-9904900D01*
X11977800Y-9914424D01*
X11987324Y-9933471D01*
X11996848Y-9971567D01*
X11996848Y-10019186D01*
X11987324Y-10057281D01*
X11977800Y-10076329D01*
X11968276Y-10085852D01*
X11949228Y-10095376D01*
X11930181Y-10095376D01*
X11911133Y-10085852D01*
X11901609Y-10076329D01*
X11892086Y-10057281D01*
X11882562Y-10019186D01*
X11882562Y-9971567D01*
X11892086Y-9933471D01*
X11901609Y-9914424D01*
X11911133Y-9904900D01*
X11930181Y-9895376D01*
X12082562Y-10095376D02*
X12082562Y-9962043D01*
X12082562Y-9981090D02*
X12092086Y-9971567D01*
X12111133Y-9962043D01*
X12139705Y-9962043D01*
X12158752Y-9971567D01*
X12168276Y-9990614D01*
X12168276Y-10095376D01*
X12168276Y-9990614D02*
X12177800Y-9971567D01*
X12196848Y-9962043D01*
X12225419Y-9962043D01*
X12244467Y-9971567D01*
X12253990Y-9990614D01*
X12253990Y-10095376D01*
X12349228Y-10095376D02*
X12349228Y-9962043D01*
X12349228Y-9981090D02*
X12358752Y-9971567D01*
X12377800Y-9962043D01*
X12406371Y-9962043D01*
X12425419Y-9971567D01*
X12434943Y-9990614D01*
X12434943Y-10095376D01*
X12434943Y-9990614D02*
X12444467Y-9971567D01*
X12463514Y-9962043D01*
X12492086Y-9962043D01*
X12511133Y-9971567D01*
X12520657Y-9990614D01*
X12520657Y-10095376D01*
X12911133Y-9885852D02*
X12739705Y-10142995D01*
X13168276Y-9895376D02*
X13187324Y-9895376D01*
X13206371Y-9904900D01*
X13215895Y-9914424D01*
X13225419Y-9933471D01*
X13234943Y-9971567D01*
X13234943Y-10019186D01*
X13225419Y-10057281D01*
X13215895Y-10076329D01*
X13206371Y-10085852D01*
X13187324Y-10095376D01*
X13168276Y-10095376D01*
X13149228Y-10085852D01*
X13139705Y-10076329D01*
X13130181Y-10057281D01*
X13120657Y-10019186D01*
X13120657Y-9971567D01*
X13130181Y-9933471D01*
X13139705Y-9914424D01*
X13149228Y-9904900D01*
X13168276Y-9895376D01*
X13320657Y-10076329D02*
X13330181Y-10085852D01*
X13320657Y-10095376D01*
X13311133Y-10085852D01*
X13320657Y-10076329D01*
X13320657Y-10095376D01*
X13453990Y-9895376D02*
X13473038Y-9895376D01*
X13492086Y-9904900D01*
X13501609Y-9914424D01*
X13511133Y-9933471D01*
X13520657Y-9971567D01*
X13520657Y-10019186D01*
X13511133Y-10057281D01*
X13501609Y-10076329D01*
X13492086Y-10085852D01*
X13473038Y-10095376D01*
X13453990Y-10095376D01*
X13434943Y-10085852D01*
X13425419Y-10076329D01*
X13415895Y-10057281D01*
X13406371Y-10019186D01*
X13406371Y-9971567D01*
X13415895Y-9933471D01*
X13425419Y-9914424D01*
X13434943Y-9904900D01*
X13453990Y-9895376D01*
X13692086Y-9962043D02*
X13692086Y-10095376D01*
X13644467Y-9885852D02*
X13596848Y-10028710D01*
X13720657Y-10028710D01*
X13777800Y-9895376D02*
X13911133Y-9895376D01*
X13825419Y-10095376D01*
X13977800Y-9914424D02*
X13987324Y-9904900D01*
X14006371Y-9895376D01*
X14053990Y-9895376D01*
X14073038Y-9904900D01*
X14082562Y-9914424D01*
X14092086Y-9933471D01*
X14092086Y-9952519D01*
X14082562Y-9981090D01*
X13968276Y-10095376D01*
X14092086Y-10095376D01*
X14168276Y-9895376D02*
X14168276Y-9933471D01*
X14244467Y-9895376D02*
X14244467Y-9933471D01*
X14539705Y-10171567D02*
X14530181Y-10162043D01*
X14511133Y-10133471D01*
X14501609Y-10114424D01*
X14492086Y-10085852D01*
X14482562Y-10038233D01*
X14482562Y-10000138D01*
X14492086Y-9952519D01*
X14501609Y-9923948D01*
X14511133Y-9904900D01*
X14530181Y-9876329D01*
X14539705Y-9866805D01*
X14711133Y-9895376D02*
X14615895Y-9895376D01*
X14606371Y-9990614D01*
X14615895Y-9981090D01*
X14634943Y-9971567D01*
X14682562Y-9971567D01*
X14701609Y-9981090D01*
X14711133Y-9990614D01*
X14720657Y-10009662D01*
X14720657Y-10057281D01*
X14711133Y-10076329D01*
X14701609Y-10085852D01*
X14682562Y-10095376D01*
X14634943Y-10095376D01*
X14615895Y-10085852D01*
X14606371Y-10076329D01*
X14958752Y-10095376D02*
X14958752Y-9895376D01*
X15044467Y-10095376D02*
X15044467Y-9990614D01*
X15034943Y-9971567D01*
X15015895Y-9962043D01*
X14987324Y-9962043D01*
X14968276Y-9971567D01*
X14958752Y-9981090D01*
X15168276Y-10095376D02*
X15149228Y-10085852D01*
X15139705Y-10076329D01*
X15130181Y-10057281D01*
X15130181Y-10000138D01*
X15139705Y-9981090D01*
X15149228Y-9971567D01*
X15168276Y-9962043D01*
X15196848Y-9962043D01*
X15215895Y-9971567D01*
X15225419Y-9981090D01*
X15234943Y-10000138D01*
X15234943Y-10057281D01*
X15225419Y-10076329D01*
X15215895Y-10085852D01*
X15196848Y-10095376D01*
X15168276Y-10095376D01*
X15349228Y-10095376D02*
X15330181Y-10085852D01*
X15320657Y-10066805D01*
X15320657Y-9895376D01*
X15501609Y-10085852D02*
X15482562Y-10095376D01*
X15444467Y-10095376D01*
X15425419Y-10085852D01*
X15415895Y-10066805D01*
X15415895Y-9990614D01*
X15425419Y-9971567D01*
X15444467Y-9962043D01*
X15482562Y-9962043D01*
X15501609Y-9971567D01*
X15511133Y-9990614D01*
X15511133Y-10009662D01*
X15415895Y-10028710D01*
X15587324Y-10085852D02*
X15606371Y-10095376D01*
X15644467Y-10095376D01*
X15663514Y-10085852D01*
X15673038Y-10066805D01*
X15673038Y-10057281D01*
X15663514Y-10038233D01*
X15644467Y-10028710D01*
X15615895Y-10028710D01*
X15596848Y-10019186D01*
X15587324Y-10000138D01*
X15587324Y-9990614D01*
X15596848Y-9971567D01*
X15615895Y-9962043D01*
X15644467Y-9962043D01*
X15663514Y-9971567D01*
X15739705Y-10171567D02*
X15749228Y-10162043D01*
X15768276Y-10133471D01*
X15777800Y-10114424D01*
X15787324Y-10085852D01*
X15796848Y-10038233D01*
X15796848Y-10000138D01*
X15787324Y-9952519D01*
X15777800Y-9923948D01*
X15768276Y-9904900D01*
X15749228Y-9876329D01*
X15739705Y-9866805D01*
X16101609Y-10171567D02*
X16092086Y-10162043D01*
X16073038Y-10133471D01*
X16063514Y-10114424D01*
X16053990Y-10085852D01*
X16044467Y-10038233D01*
X16044467Y-10000138D01*
X16053990Y-9952519D01*
X16063514Y-9923948D01*
X16073038Y-9904900D01*
X16092086Y-9876329D01*
X16101609Y-9866805D01*
X16177800Y-9962043D02*
X16177800Y-10095376D01*
X16177800Y-9981090D02*
X16187324Y-9971567D01*
X16206371Y-9962043D01*
X16234943Y-9962043D01*
X16253990Y-9971567D01*
X16263514Y-9990614D01*
X16263514Y-10095376D01*
X16387324Y-10095376D02*
X16368276Y-10085852D01*
X16358752Y-10076329D01*
X16349228Y-10057281D01*
X16349228Y-10000138D01*
X16358752Y-9981090D01*
X16368276Y-9971567D01*
X16387324Y-9962043D01*
X16415895Y-9962043D01*
X16434943Y-9971567D01*
X16444467Y-9981090D01*
X16453990Y-10000138D01*
X16453990Y-10057281D01*
X16444467Y-10076329D01*
X16434943Y-10085852D01*
X16415895Y-10095376D01*
X16387324Y-10095376D01*
X16511133Y-9962043D02*
X16587324Y-9962043D01*
X16539705Y-9895376D02*
X16539705Y-10066805D01*
X16549228Y-10085852D01*
X16568276Y-10095376D01*
X16587324Y-10095376D01*
X16806371Y-9962043D02*
X16806371Y-10162043D01*
X16806371Y-9971567D02*
X16825419Y-9962043D01*
X16863514Y-9962043D01*
X16882562Y-9971567D01*
X16892086Y-9981090D01*
X16901610Y-10000138D01*
X16901610Y-10057281D01*
X16892086Y-10076329D01*
X16882562Y-10085852D01*
X16863514Y-10095376D01*
X16825419Y-10095376D01*
X16806371Y-10085852D01*
X17015895Y-10095376D02*
X16996848Y-10085852D01*
X16987324Y-10066805D01*
X16987324Y-9895376D01*
X17177800Y-10095376D02*
X17177800Y-9990614D01*
X17168276Y-9971567D01*
X17149229Y-9962043D01*
X17111133Y-9962043D01*
X17092086Y-9971567D01*
X17177800Y-10085852D02*
X17158752Y-10095376D01*
X17111133Y-10095376D01*
X17092086Y-10085852D01*
X17082562Y-10066805D01*
X17082562Y-10047757D01*
X17092086Y-10028710D01*
X17111133Y-10019186D01*
X17158752Y-10019186D01*
X17177800Y-10009662D01*
X17244467Y-9962043D02*
X17320657Y-9962043D01*
X17273038Y-9895376D02*
X17273038Y-10066805D01*
X17282562Y-10085852D01*
X17301610Y-10095376D01*
X17320657Y-10095376D01*
X17463514Y-10085852D02*
X17444467Y-10095376D01*
X17406371Y-10095376D01*
X17387324Y-10085852D01*
X17377800Y-10066805D01*
X17377800Y-9990614D01*
X17387324Y-9971567D01*
X17406371Y-9962043D01*
X17444467Y-9962043D01*
X17463514Y-9971567D01*
X17473038Y-9990614D01*
X17473038Y-10009662D01*
X17377800Y-10028710D01*
X17644467Y-10095376D02*
X17644467Y-9895376D01*
X17644467Y-10085852D02*
X17625419Y-10095376D01*
X17587324Y-10095376D01*
X17568276Y-10085852D01*
X17558752Y-10076329D01*
X17549229Y-10057281D01*
X17549229Y-10000138D01*
X17558752Y-9981090D01*
X17568276Y-9971567D01*
X17587324Y-9962043D01*
X17625419Y-9962043D01*
X17644467Y-9971567D01*
X17720657Y-10171567D02*
X17730181Y-10162043D01*
X17749229Y-10133471D01*
X17758752Y-10114424D01*
X17768276Y-10085852D01*
X17777800Y-10038233D01*
X17777800Y-10000138D01*
X17768276Y-9952519D01*
X17758752Y-9923948D01*
X17749229Y-9904900D01*
X17730181Y-9876329D01*
X17720657Y-9866805D01*
M02*
