G04 #@! TF.GenerationSoftware,KiCad,Pcbnew,(6.0.0)*
G04 #@! TF.CreationDate,2022-11-09T00:51:05-05:00*
G04 #@! TF.ProjectId,Arrington 4 voice equivalent SMD,41727269-6e67-4746-9f6e-203420766f69,rev?*
G04 #@! TF.SameCoordinates,Original*
G04 #@! TF.FileFunction,Legend,Bot*
G04 #@! TF.FilePolarity,Positive*
%FSLAX46Y46*%
G04 Gerber Fmt 4.6, Leading zero omitted, Abs format (unit mm)*
G04 Created by KiCad (PCBNEW (6.0.0)) date 2022-11-09 00:51:05*
%MOMM*%
%LPD*%
G01*
G04 APERTURE LIST*
G04 Aperture macros list*
%AMRoundRect*
0 Rectangle with rounded corners*
0 $1 Rounding radius*
0 $2 $3 $4 $5 $6 $7 $8 $9 X,Y pos of 4 corners*
0 Add a 4 corners polygon primitive as box body*
4,1,4,$2,$3,$4,$5,$6,$7,$8,$9,$2,$3,0*
0 Add four circle primitives for the rounded corners*
1,1,$1+$1,$2,$3*
1,1,$1+$1,$4,$5*
1,1,$1+$1,$6,$7*
1,1,$1+$1,$8,$9*
0 Add four rect primitives between the rounded corners*
20,1,$1+$1,$2,$3,$4,$5,0*
20,1,$1+$1,$4,$5,$6,$7,0*
20,1,$1+$1,$6,$7,$8,$9,0*
20,1,$1+$1,$8,$9,$2,$3,0*%
G04 Aperture macros list end*
%ADD10C,0.150000*%
%ADD11C,0.120000*%
%ADD12C,3.616000*%
%ADD13C,2.550000*%
%ADD14C,1.200000*%
%ADD15O,1.308000X2.616000*%
%ADD16O,2.616000X1.308000*%
%ADD17R,3.480000X1.846667*%
%ADD18R,1.700000X1.700000*%
%ADD19O,1.700000X1.700000*%
%ADD20R,1.600000X1.600000*%
%ADD21C,1.600000*%
%ADD22RoundRect,0.200000X0.275000X-0.200000X0.275000X0.200000X-0.275000X0.200000X-0.275000X-0.200000X0*%
%ADD23RoundRect,0.150000X-0.150000X0.825000X-0.150000X-0.825000X0.150000X-0.825000X0.150000X0.825000X0*%
G04 APERTURE END LIST*
D10*
X115697000Y-80899000D02*
X114427000Y-80899000D01*
X116459000Y-78867000D02*
X115697000Y-80899000D01*
X114944190Y-91792619D02*
X114944190Y-92792619D01*
X115325142Y-92792619D01*
X115420380Y-92745000D01*
X115468000Y-92697380D01*
X115515619Y-92602142D01*
X115515619Y-92459285D01*
X115468000Y-92364047D01*
X115420380Y-92316428D01*
X115325142Y-92268809D01*
X114944190Y-92268809D01*
X116087047Y-91792619D02*
X115991809Y-91840238D01*
X115944190Y-91887857D01*
X115896571Y-91983095D01*
X115896571Y-92268809D01*
X115944190Y-92364047D01*
X115991809Y-92411666D01*
X116087047Y-92459285D01*
X116229904Y-92459285D01*
X116325142Y-92411666D01*
X116372761Y-92364047D01*
X116420380Y-92268809D01*
X116420380Y-91983095D01*
X116372761Y-91887857D01*
X116325142Y-91840238D01*
X116229904Y-91792619D01*
X116087047Y-91792619D01*
X116848952Y-92459285D02*
X116848952Y-91459285D01*
X116848952Y-92411666D02*
X116944190Y-92459285D01*
X117134666Y-92459285D01*
X117229904Y-92411666D01*
X117277523Y-92364047D01*
X117325142Y-92268809D01*
X117325142Y-91983095D01*
X117277523Y-91887857D01*
X117229904Y-91840238D01*
X117134666Y-91792619D01*
X116944190Y-91792619D01*
X116848952Y-91840238D01*
X118182285Y-92459285D02*
X118182285Y-91792619D01*
X117753714Y-92459285D02*
X117753714Y-91935476D01*
X117801333Y-91840238D01*
X117896571Y-91792619D01*
X118039428Y-91792619D01*
X118134666Y-91840238D01*
X118182285Y-91887857D01*
X118801333Y-91792619D02*
X118706095Y-91840238D01*
X118658476Y-91935476D01*
X118658476Y-92792619D01*
X119610857Y-91792619D02*
X119610857Y-92316428D01*
X119563238Y-92411666D01*
X119467999Y-92459285D01*
X119277523Y-92459285D01*
X119182285Y-92411666D01*
X119610857Y-91840238D02*
X119515619Y-91792619D01*
X119277523Y-91792619D01*
X119182285Y-91840238D01*
X119134666Y-91935476D01*
X119134666Y-92030714D01*
X119182285Y-92125952D01*
X119277523Y-92173571D01*
X119515619Y-92173571D01*
X119610857Y-92221190D01*
X119944190Y-92459285D02*
X120325142Y-92459285D01*
X120087047Y-92792619D02*
X120087047Y-91935476D01*
X120134666Y-91840238D01*
X120229904Y-91792619D01*
X120325142Y-91792619D01*
X121039428Y-91840238D02*
X120944190Y-91792619D01*
X120753714Y-91792619D01*
X120658476Y-91840238D01*
X120610857Y-91935476D01*
X120610857Y-92316428D01*
X120658476Y-92411666D01*
X120753714Y-92459285D01*
X120944190Y-92459285D01*
X121039428Y-92411666D01*
X121087047Y-92316428D01*
X121087047Y-92221190D01*
X120610857Y-92125952D01*
X122277523Y-91792619D02*
X122277523Y-92792619D01*
X122277523Y-92411666D02*
X122372761Y-92459285D01*
X122563238Y-92459285D01*
X122658476Y-92411666D01*
X122706095Y-92364047D01*
X122753714Y-92268809D01*
X122753714Y-91983095D01*
X122706095Y-91887857D01*
X122658476Y-91840238D01*
X122563238Y-91792619D01*
X122372761Y-91792619D01*
X122277523Y-91840238D01*
X123610857Y-91792619D02*
X123610857Y-92316428D01*
X123563238Y-92411666D01*
X123467999Y-92459285D01*
X123277523Y-92459285D01*
X123182285Y-92411666D01*
X123610857Y-91840238D02*
X123515619Y-91792619D01*
X123277523Y-91792619D01*
X123182285Y-91840238D01*
X123134666Y-91935476D01*
X123134666Y-92030714D01*
X123182285Y-92125952D01*
X123277523Y-92173571D01*
X123515619Y-92173571D01*
X123610857Y-92221190D01*
X124515619Y-91840238D02*
X124420380Y-91792619D01*
X124229904Y-91792619D01*
X124134666Y-91840238D01*
X124087047Y-91887857D01*
X124039428Y-91983095D01*
X124039428Y-92268809D01*
X124087047Y-92364047D01*
X124134666Y-92411666D01*
X124229904Y-92459285D01*
X124420380Y-92459285D01*
X124515619Y-92411666D01*
X124944190Y-91792619D02*
X124944190Y-92792619D01*
X125039428Y-92173571D02*
X125325142Y-91792619D01*
X125325142Y-92459285D02*
X124944190Y-92078333D01*
X126944190Y-91840238D02*
X126848952Y-91792619D01*
X126658476Y-91792619D01*
X126563238Y-91840238D01*
X126515619Y-91887857D01*
X126467999Y-91983095D01*
X126467999Y-92268809D01*
X126515619Y-92364047D01*
X126563238Y-92411666D01*
X126658476Y-92459285D01*
X126848952Y-92459285D01*
X126944190Y-92411666D01*
X127515619Y-91792619D02*
X127420380Y-91840238D01*
X127372761Y-91887857D01*
X127325142Y-91983095D01*
X127325142Y-92268809D01*
X127372761Y-92364047D01*
X127420380Y-92411666D01*
X127515619Y-92459285D01*
X127658476Y-92459285D01*
X127753714Y-92411666D01*
X127801333Y-92364047D01*
X127848952Y-92268809D01*
X127848952Y-91983095D01*
X127801333Y-91887857D01*
X127753714Y-91840238D01*
X127658476Y-91792619D01*
X127515619Y-91792619D01*
X128277523Y-91792619D02*
X128277523Y-92459285D01*
X128277523Y-92364047D02*
X128325142Y-92411666D01*
X128420380Y-92459285D01*
X128563238Y-92459285D01*
X128658476Y-92411666D01*
X128706095Y-92316428D01*
X128706095Y-91792619D01*
X128706095Y-92316428D02*
X128753714Y-92411666D01*
X128848952Y-92459285D01*
X128991809Y-92459285D01*
X129087047Y-92411666D01*
X129134666Y-92316428D01*
X129134666Y-91792619D01*
X129610857Y-92459285D02*
X129610857Y-91459285D01*
X129610857Y-92411666D02*
X129706095Y-92459285D01*
X129896571Y-92459285D01*
X129991809Y-92411666D01*
X130039428Y-92364047D01*
X130087047Y-92268809D01*
X130087047Y-91983095D01*
X130039428Y-91887857D01*
X129991809Y-91840238D01*
X129896571Y-91792619D01*
X129706095Y-91792619D01*
X129610857Y-91840238D01*
X130658476Y-91792619D02*
X130563238Y-91840238D01*
X130515619Y-91887857D01*
X130467999Y-91983095D01*
X130467999Y-92268809D01*
X130515619Y-92364047D01*
X130563238Y-92411666D01*
X130658476Y-92459285D01*
X130801333Y-92459285D01*
X130896571Y-92411666D01*
X130944190Y-92364047D01*
X130991809Y-92268809D01*
X130991809Y-91983095D01*
X130944190Y-91887857D01*
X130896571Y-91840238D01*
X130801333Y-91792619D01*
X130658476Y-91792619D01*
X131420380Y-92459285D02*
X131420380Y-91792619D01*
X131420380Y-92364047D02*
X131467999Y-92411666D01*
X131563238Y-92459285D01*
X131706095Y-92459285D01*
X131801333Y-92411666D01*
X131848952Y-92316428D01*
X131848952Y-91792619D01*
X132706095Y-91840238D02*
X132610857Y-91792619D01*
X132420380Y-91792619D01*
X132325142Y-91840238D01*
X132277523Y-91935476D01*
X132277523Y-92316428D01*
X132325142Y-92411666D01*
X132420380Y-92459285D01*
X132610857Y-92459285D01*
X132706095Y-92411666D01*
X132753714Y-92316428D01*
X132753714Y-92221190D01*
X132277523Y-92125952D01*
X133182285Y-92459285D02*
X133182285Y-91792619D01*
X133182285Y-92364047D02*
X133229904Y-92411666D01*
X133325142Y-92459285D01*
X133467999Y-92459285D01*
X133563238Y-92411666D01*
X133610857Y-92316428D01*
X133610857Y-91792619D01*
X133944190Y-92459285D02*
X134325142Y-92459285D01*
X134087047Y-92792619D02*
X134087047Y-91935476D01*
X134134666Y-91840238D01*
X134229904Y-91792619D01*
X134325142Y-91792619D01*
X134610857Y-91840238D02*
X134706095Y-91792619D01*
X134896571Y-91792619D01*
X134991809Y-91840238D01*
X135039428Y-91935476D01*
X135039428Y-91983095D01*
X134991809Y-92078333D01*
X134896571Y-92125952D01*
X134753714Y-92125952D01*
X134658476Y-92173571D01*
X134610857Y-92268809D01*
X134610857Y-92316428D01*
X134658476Y-92411666D01*
X134753714Y-92459285D01*
X134896571Y-92459285D01*
X134991809Y-92411666D01*
X115539428Y-90849285D02*
X115920380Y-90849285D01*
X115682285Y-90182619D02*
X115682285Y-91039761D01*
X115729904Y-91135000D01*
X115825142Y-91182619D01*
X115920380Y-91182619D01*
X116396571Y-90182619D02*
X116301333Y-90230238D01*
X116253714Y-90277857D01*
X116206095Y-90373095D01*
X116206095Y-90658809D01*
X116253714Y-90754047D01*
X116301333Y-90801666D01*
X116396571Y-90849285D01*
X116539428Y-90849285D01*
X116634666Y-90801666D01*
X116682285Y-90754047D01*
X116729904Y-90658809D01*
X116729904Y-90373095D01*
X116682285Y-90277857D01*
X116634666Y-90230238D01*
X116539428Y-90182619D01*
X116396571Y-90182619D01*
X117158476Y-90182619D02*
X117158476Y-90849285D01*
X117158476Y-90658809D02*
X117206095Y-90754047D01*
X117253714Y-90801666D01*
X117348952Y-90849285D01*
X117444190Y-90849285D01*
X118682285Y-90182619D02*
X118587047Y-90230238D01*
X118539428Y-90277857D01*
X118491809Y-90373095D01*
X118491809Y-90658809D01*
X118539428Y-90754047D01*
X118587047Y-90801666D01*
X118682285Y-90849285D01*
X118825142Y-90849285D01*
X118920380Y-90801666D01*
X118967999Y-90754047D01*
X119015619Y-90658809D01*
X119015619Y-90373095D01*
X118967999Y-90277857D01*
X118920380Y-90230238D01*
X118825142Y-90182619D01*
X118682285Y-90182619D01*
X119444190Y-90849285D02*
X119444190Y-89849285D01*
X119444190Y-90801666D02*
X119539428Y-90849285D01*
X119729904Y-90849285D01*
X119825142Y-90801666D01*
X119872761Y-90754047D01*
X119920380Y-90658809D01*
X119920380Y-90373095D01*
X119872761Y-90277857D01*
X119825142Y-90230238D01*
X119729904Y-90182619D01*
X119539428Y-90182619D01*
X119444190Y-90230238D01*
X120206095Y-90849285D02*
X120587047Y-90849285D01*
X120348952Y-91182619D02*
X120348952Y-90325476D01*
X120396571Y-90230238D01*
X120491809Y-90182619D01*
X120587047Y-90182619D01*
X120920380Y-90182619D02*
X120920380Y-90849285D01*
X120920380Y-91182619D02*
X120872761Y-91135000D01*
X120920380Y-91087380D01*
X120967999Y-91135000D01*
X120920380Y-91182619D01*
X120920380Y-91087380D01*
X121539428Y-90182619D02*
X121444190Y-90230238D01*
X121396571Y-90277857D01*
X121348952Y-90373095D01*
X121348952Y-90658809D01*
X121396571Y-90754047D01*
X121444190Y-90801666D01*
X121539428Y-90849285D01*
X121682285Y-90849285D01*
X121777523Y-90801666D01*
X121825142Y-90754047D01*
X121872761Y-90658809D01*
X121872761Y-90373095D01*
X121825142Y-90277857D01*
X121777523Y-90230238D01*
X121682285Y-90182619D01*
X121539428Y-90182619D01*
X122301333Y-90849285D02*
X122301333Y-90182619D01*
X122301333Y-90754047D02*
X122348952Y-90801666D01*
X122444190Y-90849285D01*
X122587047Y-90849285D01*
X122682285Y-90801666D01*
X122729904Y-90706428D01*
X122729904Y-90182619D01*
X123634666Y-90182619D02*
X123634666Y-90706428D01*
X123587047Y-90801666D01*
X123491809Y-90849285D01*
X123301333Y-90849285D01*
X123206095Y-90801666D01*
X123634666Y-90230238D02*
X123539428Y-90182619D01*
X123301333Y-90182619D01*
X123206095Y-90230238D01*
X123158476Y-90325476D01*
X123158476Y-90420714D01*
X123206095Y-90515952D01*
X123301333Y-90563571D01*
X123539428Y-90563571D01*
X123634666Y-90611190D01*
X124253714Y-90182619D02*
X124158476Y-90230238D01*
X124110857Y-90325476D01*
X124110857Y-91182619D01*
X125539428Y-90754047D02*
X125444190Y-90801666D01*
X125396571Y-90849285D01*
X125348952Y-90944523D01*
X125348952Y-90992142D01*
X125396571Y-91087380D01*
X125444190Y-91135000D01*
X125539428Y-91182619D01*
X125729904Y-91182619D01*
X125825142Y-91135000D01*
X125872761Y-91087380D01*
X125920380Y-90992142D01*
X125920380Y-90944523D01*
X125872761Y-90849285D01*
X125825142Y-90801666D01*
X125729904Y-90754047D01*
X125539428Y-90754047D01*
X125444190Y-90706428D01*
X125396571Y-90658809D01*
X125348952Y-90563571D01*
X125348952Y-90373095D01*
X125396571Y-90277857D01*
X125444190Y-90230238D01*
X125539428Y-90182619D01*
X125729904Y-90182619D01*
X125825142Y-90230238D01*
X125872761Y-90277857D01*
X125920380Y-90373095D01*
X125920380Y-90563571D01*
X125872761Y-90658809D01*
X125825142Y-90706428D01*
X125729904Y-90754047D01*
X126348952Y-90563571D02*
X127110857Y-90563571D01*
X127587047Y-90182619D02*
X127587047Y-91182619D01*
X127587047Y-90801666D02*
X127682285Y-90849285D01*
X127872761Y-90849285D01*
X127967999Y-90801666D01*
X128015619Y-90754047D01*
X128063238Y-90658809D01*
X128063238Y-90373095D01*
X128015619Y-90277857D01*
X127967999Y-90230238D01*
X127872761Y-90182619D01*
X127682285Y-90182619D01*
X127587047Y-90230238D01*
X128491809Y-90182619D02*
X128491809Y-90849285D01*
X128491809Y-91182619D02*
X128444190Y-91135000D01*
X128491809Y-91087380D01*
X128539428Y-91135000D01*
X128491809Y-91182619D01*
X128491809Y-91087380D01*
X128825142Y-90849285D02*
X129206095Y-90849285D01*
X128967999Y-91182619D02*
X128967999Y-90325476D01*
X129015619Y-90230238D01*
X129110857Y-90182619D01*
X129206095Y-90182619D01*
X130253714Y-90230238D02*
X130348952Y-90182619D01*
X130539428Y-90182619D01*
X130634666Y-90230238D01*
X130682285Y-90325476D01*
X130682285Y-90373095D01*
X130634666Y-90468333D01*
X130539428Y-90515952D01*
X130396571Y-90515952D01*
X130301333Y-90563571D01*
X130253714Y-90658809D01*
X130253714Y-90706428D01*
X130301333Y-90801666D01*
X130396571Y-90849285D01*
X130539428Y-90849285D01*
X130634666Y-90801666D01*
X131253714Y-90182619D02*
X131158476Y-90230238D01*
X131110857Y-90277857D01*
X131063238Y-90373095D01*
X131063238Y-90658809D01*
X131110857Y-90754047D01*
X131158476Y-90801666D01*
X131253714Y-90849285D01*
X131396571Y-90849285D01*
X131491809Y-90801666D01*
X131539428Y-90754047D01*
X131587047Y-90658809D01*
X131587047Y-90373095D01*
X131539428Y-90277857D01*
X131491809Y-90230238D01*
X131396571Y-90182619D01*
X131253714Y-90182619D01*
X132444190Y-90849285D02*
X132444190Y-90182619D01*
X132015619Y-90849285D02*
X132015619Y-90325476D01*
X132063238Y-90230238D01*
X132158476Y-90182619D01*
X132301333Y-90182619D01*
X132396571Y-90230238D01*
X132444190Y-90277857D01*
X132920380Y-90849285D02*
X132920380Y-90182619D01*
X132920380Y-90754047D02*
X132967999Y-90801666D01*
X133063238Y-90849285D01*
X133206095Y-90849285D01*
X133301333Y-90801666D01*
X133348952Y-90706428D01*
X133348952Y-90182619D01*
X134253714Y-90182619D02*
X134253714Y-91182619D01*
X134253714Y-90230238D02*
X134158476Y-90182619D01*
X133967999Y-90182619D01*
X133872761Y-90230238D01*
X133825142Y-90277857D01*
X133777523Y-90373095D01*
X133777523Y-90658809D01*
X133825142Y-90754047D01*
X133872761Y-90801666D01*
X133967999Y-90849285D01*
X134158476Y-90849285D01*
X134253714Y-90801666D01*
X119150190Y-69971000D02*
X119054952Y-70018619D01*
X118912095Y-70018619D01*
X118769238Y-69971000D01*
X118674000Y-69875761D01*
X118626380Y-69780523D01*
X118578761Y-69590047D01*
X118578761Y-69447190D01*
X118626380Y-69256714D01*
X118674000Y-69161476D01*
X118769238Y-69066238D01*
X118912095Y-69018619D01*
X119007333Y-69018619D01*
X119150190Y-69066238D01*
X119197809Y-69113857D01*
X119197809Y-69447190D01*
X119007333Y-69447190D01*
X119769238Y-69018619D02*
X119674000Y-69066238D01*
X119626380Y-69113857D01*
X119578761Y-69209095D01*
X119578761Y-69494809D01*
X119626380Y-69590047D01*
X119674000Y-69637666D01*
X119769238Y-69685285D01*
X119912095Y-69685285D01*
X120007333Y-69637666D01*
X120054952Y-69590047D01*
X120102571Y-69494809D01*
X120102571Y-69209095D01*
X120054952Y-69113857D01*
X120007333Y-69066238D01*
X119912095Y-69018619D01*
X119769238Y-69018619D01*
X120674000Y-69018619D02*
X120578761Y-69066238D01*
X120531142Y-69113857D01*
X120483523Y-69209095D01*
X120483523Y-69494809D01*
X120531142Y-69590047D01*
X120578761Y-69637666D01*
X120674000Y-69685285D01*
X120816857Y-69685285D01*
X120912095Y-69637666D01*
X120959714Y-69590047D01*
X121007333Y-69494809D01*
X121007333Y-69209095D01*
X120959714Y-69113857D01*
X120912095Y-69066238D01*
X120816857Y-69018619D01*
X120674000Y-69018619D01*
X121864476Y-69018619D02*
X121864476Y-70018619D01*
X121864476Y-69066238D02*
X121769238Y-69018619D01*
X121578761Y-69018619D01*
X121483523Y-69066238D01*
X121435904Y-69113857D01*
X121388285Y-69209095D01*
X121388285Y-69494809D01*
X121435904Y-69590047D01*
X121483523Y-69637666D01*
X121578761Y-69685285D01*
X121769238Y-69685285D01*
X121864476Y-69637666D01*
X123245428Y-69018619D02*
X123150190Y-69066238D01*
X123102571Y-69161476D01*
X123102571Y-70018619D01*
X124054952Y-69685285D02*
X124054952Y-69018619D01*
X123626380Y-69685285D02*
X123626380Y-69161476D01*
X123674000Y-69066238D01*
X123769238Y-69018619D01*
X123912095Y-69018619D01*
X124007333Y-69066238D01*
X124054952Y-69113857D01*
X124959714Y-69066238D02*
X124864476Y-69018619D01*
X124674000Y-69018619D01*
X124578761Y-69066238D01*
X124531142Y-69113857D01*
X124483523Y-69209095D01*
X124483523Y-69494809D01*
X124531142Y-69590047D01*
X124578761Y-69637666D01*
X124674000Y-69685285D01*
X124864476Y-69685285D01*
X124959714Y-69637666D01*
X125388285Y-69018619D02*
X125388285Y-70018619D01*
X125483523Y-69399571D02*
X125769238Y-69018619D01*
X125769238Y-69685285D02*
X125388285Y-69304333D01*
X119269238Y-68075285D02*
X119459714Y-67408619D01*
X119650190Y-67884809D01*
X119840666Y-67408619D01*
X120031142Y-68075285D01*
X120412095Y-67408619D02*
X120412095Y-68075285D01*
X120412095Y-68408619D02*
X120364476Y-68361000D01*
X120412095Y-68313380D01*
X120459714Y-68361000D01*
X120412095Y-68408619D01*
X120412095Y-68313380D01*
X120745428Y-68075285D02*
X121126380Y-68075285D01*
X120888285Y-68408619D02*
X120888285Y-67551476D01*
X120935904Y-67456238D01*
X121031142Y-67408619D01*
X121126380Y-67408619D01*
X121459714Y-67408619D02*
X121459714Y-68408619D01*
X121888285Y-67408619D02*
X121888285Y-67932428D01*
X121840666Y-68027666D01*
X121745428Y-68075285D01*
X121602571Y-68075285D01*
X121507333Y-68027666D01*
X121459714Y-67980047D01*
X122983523Y-68075285D02*
X123364476Y-68075285D01*
X123126380Y-68408619D02*
X123126380Y-67551476D01*
X123174000Y-67456238D01*
X123269238Y-67408619D01*
X123364476Y-67408619D01*
X123697809Y-67408619D02*
X123697809Y-68408619D01*
X124126380Y-67408619D02*
X124126380Y-67932428D01*
X124078761Y-68027666D01*
X123983523Y-68075285D01*
X123840666Y-68075285D01*
X123745428Y-68027666D01*
X123697809Y-67980047D01*
X124983523Y-67456238D02*
X124888285Y-67408619D01*
X124697809Y-67408619D01*
X124602571Y-67456238D01*
X124554952Y-67551476D01*
X124554952Y-67932428D01*
X124602571Y-68027666D01*
X124697809Y-68075285D01*
X124888285Y-68075285D01*
X124983523Y-68027666D01*
X125031142Y-67932428D01*
X125031142Y-67837190D01*
X124554952Y-67741952D01*
X119578761Y-65798619D02*
X119578761Y-66465285D01*
X119578761Y-66274809D02*
X119626380Y-66370047D01*
X119674000Y-66417666D01*
X119769238Y-66465285D01*
X119864476Y-66465285D01*
X120578761Y-65846238D02*
X120483523Y-65798619D01*
X120293047Y-65798619D01*
X120197809Y-65846238D01*
X120150190Y-65941476D01*
X120150190Y-66322428D01*
X120197809Y-66417666D01*
X120293047Y-66465285D01*
X120483523Y-66465285D01*
X120578761Y-66417666D01*
X120626380Y-66322428D01*
X120626380Y-66227190D01*
X120150190Y-66131952D01*
X121007333Y-65846238D02*
X121102571Y-65798619D01*
X121293047Y-65798619D01*
X121388285Y-65846238D01*
X121435904Y-65941476D01*
X121435904Y-65989095D01*
X121388285Y-66084333D01*
X121293047Y-66131952D01*
X121150190Y-66131952D01*
X121054952Y-66179571D01*
X121007333Y-66274809D01*
X121007333Y-66322428D01*
X121054952Y-66417666D01*
X121150190Y-66465285D01*
X121293047Y-66465285D01*
X121388285Y-66417666D01*
X121864476Y-65798619D02*
X121864476Y-66465285D01*
X121864476Y-66798619D02*
X121816857Y-66751000D01*
X121864476Y-66703380D01*
X121912095Y-66751000D01*
X121864476Y-66798619D01*
X121864476Y-66703380D01*
X122293047Y-65846238D02*
X122388285Y-65798619D01*
X122578761Y-65798619D01*
X122674000Y-65846238D01*
X122721619Y-65941476D01*
X122721619Y-65989095D01*
X122674000Y-66084333D01*
X122578761Y-66131952D01*
X122435904Y-66131952D01*
X122340666Y-66179571D01*
X122293047Y-66274809D01*
X122293047Y-66322428D01*
X122340666Y-66417666D01*
X122435904Y-66465285D01*
X122578761Y-66465285D01*
X122674000Y-66417666D01*
X123007333Y-66465285D02*
X123388285Y-66465285D01*
X123150190Y-66798619D02*
X123150190Y-65941476D01*
X123197809Y-65846238D01*
X123293047Y-65798619D01*
X123388285Y-65798619D01*
X123864476Y-65798619D02*
X123769238Y-65846238D01*
X123721619Y-65893857D01*
X123674000Y-65989095D01*
X123674000Y-66274809D01*
X123721619Y-66370047D01*
X123769238Y-66417666D01*
X123864476Y-66465285D01*
X124007333Y-66465285D01*
X124102571Y-66417666D01*
X124150190Y-66370047D01*
X124197809Y-66274809D01*
X124197809Y-65989095D01*
X124150190Y-65893857D01*
X124102571Y-65846238D01*
X124007333Y-65798619D01*
X123864476Y-65798619D01*
X124626380Y-65798619D02*
X124626380Y-66465285D01*
X124626380Y-66274809D02*
X124674000Y-66370047D01*
X124721619Y-66417666D01*
X124816857Y-66465285D01*
X124912095Y-66465285D01*
X119697809Y-64855285D02*
X119935904Y-64188619D01*
X120174000Y-64855285D01*
X120983523Y-64188619D02*
X120983523Y-64712428D01*
X120935904Y-64807666D01*
X120840666Y-64855285D01*
X120650190Y-64855285D01*
X120554952Y-64807666D01*
X120983523Y-64236238D02*
X120888285Y-64188619D01*
X120650190Y-64188619D01*
X120554952Y-64236238D01*
X120507333Y-64331476D01*
X120507333Y-64426714D01*
X120554952Y-64521952D01*
X120650190Y-64569571D01*
X120888285Y-64569571D01*
X120983523Y-64617190D01*
X121602571Y-64188619D02*
X121507333Y-64236238D01*
X121459714Y-64331476D01*
X121459714Y-65188619D01*
X122412095Y-64855285D02*
X122412095Y-64188619D01*
X121983523Y-64855285D02*
X121983523Y-64331476D01*
X122031142Y-64236238D01*
X122126380Y-64188619D01*
X122269238Y-64188619D01*
X122364476Y-64236238D01*
X122412095Y-64283857D01*
X123269238Y-64236238D02*
X123174000Y-64188619D01*
X122983523Y-64188619D01*
X122888285Y-64236238D01*
X122840666Y-64331476D01*
X122840666Y-64712428D01*
X122888285Y-64807666D01*
X122983523Y-64855285D01*
X123174000Y-64855285D01*
X123269238Y-64807666D01*
X123316857Y-64712428D01*
X123316857Y-64617190D01*
X122840666Y-64521952D01*
X123697809Y-64236238D02*
X123793047Y-64188619D01*
X123983523Y-64188619D01*
X124078761Y-64236238D01*
X124126380Y-64331476D01*
X124126380Y-64379095D01*
X124078761Y-64474333D01*
X123983523Y-64521952D01*
X123840666Y-64521952D01*
X123745428Y-64569571D01*
X123697809Y-64664809D01*
X123697809Y-64712428D01*
X123745428Y-64807666D01*
X123840666Y-64855285D01*
X123983523Y-64855285D01*
X124078761Y-64807666D01*
X124554952Y-64283857D02*
X124602571Y-64236238D01*
X124554952Y-64188619D01*
X124507333Y-64236238D01*
X124554952Y-64283857D01*
X124554952Y-64188619D01*
X124554952Y-64569571D02*
X124507333Y-65141000D01*
X124554952Y-65188619D01*
X124602571Y-65141000D01*
X124554952Y-64569571D01*
X124554952Y-65188619D01*
X116387571Y-59508619D02*
X116387571Y-59841952D01*
X116911380Y-59984809D02*
X116911380Y-59508619D01*
X115911380Y-59508619D01*
X115911380Y-59984809D01*
X116911380Y-60318142D02*
X116244714Y-60841952D01*
X116244714Y-60318142D02*
X116911380Y-60841952D01*
X116911380Y-61222904D02*
X116244714Y-61222904D01*
X115911380Y-61222904D02*
X115959000Y-61175285D01*
X116006619Y-61222904D01*
X115959000Y-61270523D01*
X115911380Y-61222904D01*
X116006619Y-61222904D01*
X116911380Y-62127666D02*
X115911380Y-62127666D01*
X116863761Y-62127666D02*
X116911380Y-62032428D01*
X116911380Y-61841952D01*
X116863761Y-61746714D01*
X116816142Y-61699095D01*
X116720904Y-61651476D01*
X116435190Y-61651476D01*
X116339952Y-61699095D01*
X116292333Y-61746714D01*
X116244714Y-61841952D01*
X116244714Y-62032428D01*
X116292333Y-62127666D01*
X116244714Y-62508619D02*
X116911380Y-62746714D01*
X116244714Y-62984809D02*
X116911380Y-62746714D01*
X117149476Y-62651476D01*
X117197095Y-62603857D01*
X117244714Y-62508619D01*
X116863761Y-64080047D02*
X116911380Y-64222904D01*
X116911380Y-64461000D01*
X116863761Y-64556238D01*
X116816142Y-64603857D01*
X116720904Y-64651476D01*
X116625666Y-64651476D01*
X116530428Y-64603857D01*
X116482809Y-64556238D01*
X116435190Y-64461000D01*
X116387571Y-64270523D01*
X116339952Y-64175285D01*
X116292333Y-64127666D01*
X116197095Y-64080047D01*
X116101857Y-64080047D01*
X116006619Y-64127666D01*
X115959000Y-64175285D01*
X115911380Y-64270523D01*
X115911380Y-64508619D01*
X115959000Y-64651476D01*
X116911380Y-65222904D02*
X116863761Y-65127666D01*
X116816142Y-65080047D01*
X116720904Y-65032428D01*
X116435190Y-65032428D01*
X116339952Y-65080047D01*
X116292333Y-65127666D01*
X116244714Y-65222904D01*
X116244714Y-65365761D01*
X116292333Y-65461000D01*
X116339952Y-65508619D01*
X116435190Y-65556238D01*
X116720904Y-65556238D01*
X116816142Y-65508619D01*
X116863761Y-65461000D01*
X116911380Y-65365761D01*
X116911380Y-65222904D01*
X116911380Y-65984809D02*
X116244714Y-65984809D01*
X116435190Y-65984809D02*
X116339952Y-66032428D01*
X116292333Y-66080047D01*
X116244714Y-66175285D01*
X116244714Y-66270523D01*
X116863761Y-67032428D02*
X116911380Y-66937190D01*
X116911380Y-66746714D01*
X116863761Y-66651476D01*
X116816142Y-66603857D01*
X116720904Y-66556238D01*
X116435190Y-66556238D01*
X116339952Y-66603857D01*
X116292333Y-66651476D01*
X116244714Y-66746714D01*
X116244714Y-66937190D01*
X116292333Y-67032428D01*
X116863761Y-67841952D02*
X116911380Y-67746714D01*
X116911380Y-67556238D01*
X116863761Y-67461000D01*
X116768523Y-67413380D01*
X116387571Y-67413380D01*
X116292333Y-67461000D01*
X116244714Y-67556238D01*
X116244714Y-67746714D01*
X116292333Y-67841952D01*
X116387571Y-67889571D01*
X116482809Y-67889571D01*
X116578047Y-67413380D01*
X116911380Y-68318142D02*
X116244714Y-68318142D01*
X116435190Y-68318142D02*
X116339952Y-68365761D01*
X116292333Y-68413380D01*
X116244714Y-68508619D01*
X116244714Y-68603857D01*
X116863761Y-69318142D02*
X116911380Y-69222904D01*
X116911380Y-69032428D01*
X116863761Y-68937190D01*
X116768523Y-68889571D01*
X116387571Y-68889571D01*
X116292333Y-68937190D01*
X116244714Y-69032428D01*
X116244714Y-69222904D01*
X116292333Y-69318142D01*
X116387571Y-69365761D01*
X116482809Y-69365761D01*
X116578047Y-68889571D01*
X116911380Y-69794333D02*
X116244714Y-69794333D01*
X116435190Y-69794333D02*
X116339952Y-69841952D01*
X116292333Y-69889571D01*
X116244714Y-69984809D01*
X116244714Y-70080047D01*
X115959000Y-71699095D02*
X115911380Y-71603857D01*
X115911380Y-71461000D01*
X115959000Y-71318142D01*
X116054238Y-71222904D01*
X116149476Y-71175285D01*
X116339952Y-71127666D01*
X116482809Y-71127666D01*
X116673285Y-71175285D01*
X116768523Y-71222904D01*
X116863761Y-71318142D01*
X116911380Y-71461000D01*
X116911380Y-71556238D01*
X116863761Y-71699095D01*
X116816142Y-71746714D01*
X116482809Y-71746714D01*
X116482809Y-71556238D01*
X116911380Y-72318142D02*
X116863761Y-72222904D01*
X116816142Y-72175285D01*
X116720904Y-72127666D01*
X116435190Y-72127666D01*
X116339952Y-72175285D01*
X116292333Y-72222904D01*
X116244714Y-72318142D01*
X116244714Y-72461000D01*
X116292333Y-72556238D01*
X116339952Y-72603857D01*
X116435190Y-72651476D01*
X116720904Y-72651476D01*
X116816142Y-72603857D01*
X116863761Y-72556238D01*
X116911380Y-72461000D01*
X116911380Y-72318142D01*
X116863761Y-73461000D02*
X116911380Y-73365761D01*
X116911380Y-73175285D01*
X116863761Y-73080047D01*
X116768523Y-73032428D01*
X116387571Y-73032428D01*
X116292333Y-73080047D01*
X116244714Y-73175285D01*
X116244714Y-73365761D01*
X116292333Y-73461000D01*
X116387571Y-73508619D01*
X116482809Y-73508619D01*
X116578047Y-73032428D01*
X116863761Y-73889571D02*
X116911380Y-73984809D01*
X116911380Y-74175285D01*
X116863761Y-74270523D01*
X116768523Y-74318142D01*
X116720904Y-74318142D01*
X116625666Y-74270523D01*
X116578047Y-74175285D01*
X116578047Y-74032428D01*
X116530428Y-73937190D01*
X116435190Y-73889571D01*
X116387571Y-73889571D01*
X116292333Y-73937190D01*
X116244714Y-74032428D01*
X116244714Y-74175285D01*
X116292333Y-74270523D01*
X116911380Y-75508619D02*
X115911380Y-75508619D01*
X116387571Y-75508619D02*
X116387571Y-76080047D01*
X116911380Y-76080047D02*
X115911380Y-76080047D01*
X116863761Y-76937190D02*
X116911380Y-76841952D01*
X116911380Y-76651476D01*
X116863761Y-76556238D01*
X116768523Y-76508619D01*
X116387571Y-76508619D01*
X116292333Y-76556238D01*
X116244714Y-76651476D01*
X116244714Y-76841952D01*
X116292333Y-76937190D01*
X116387571Y-76984809D01*
X116482809Y-76984809D01*
X116578047Y-76508619D01*
X116911380Y-77413380D02*
X116244714Y-77413380D01*
X116435190Y-77413380D02*
X116339952Y-77461000D01*
X116292333Y-77508619D01*
X116244714Y-77603857D01*
X116244714Y-77699095D01*
X116863761Y-78413380D02*
X116911380Y-78318142D01*
X116911380Y-78127666D01*
X116863761Y-78032428D01*
X116768523Y-77984809D01*
X116387571Y-77984809D01*
X116292333Y-78032428D01*
X116244714Y-78127666D01*
X116244714Y-78318142D01*
X116292333Y-78413380D01*
X116387571Y-78461000D01*
X116482809Y-78461000D01*
X116578047Y-77984809D01*
X128976380Y-65564857D02*
X128452571Y-65564857D01*
X128357333Y-65517238D01*
X128309714Y-65422000D01*
X128309714Y-65231523D01*
X128357333Y-65136285D01*
X128928761Y-65564857D02*
X128976380Y-65469619D01*
X128976380Y-65231523D01*
X128928761Y-65136285D01*
X128833523Y-65088666D01*
X128738285Y-65088666D01*
X128643047Y-65136285D01*
X128595428Y-65231523D01*
X128595428Y-65469619D01*
X128547809Y-65564857D01*
X128976380Y-66041047D02*
X127976380Y-66041047D01*
X128357333Y-66041047D02*
X128309714Y-66136285D01*
X128309714Y-66326761D01*
X128357333Y-66422000D01*
X128404952Y-66469619D01*
X128500190Y-66517238D01*
X128785904Y-66517238D01*
X128881142Y-66469619D01*
X128928761Y-66422000D01*
X128976380Y-66326761D01*
X128976380Y-66136285D01*
X128928761Y-66041047D01*
X128309714Y-66850571D02*
X128309714Y-67374380D01*
X128976380Y-66850571D01*
X128976380Y-67374380D01*
X128976380Y-67755333D02*
X128309714Y-67755333D01*
X128404952Y-67755333D02*
X128357333Y-67802952D01*
X128309714Y-67898190D01*
X128309714Y-68041047D01*
X128357333Y-68136285D01*
X128452571Y-68183904D01*
X128976380Y-68183904D01*
X128452571Y-68183904D02*
X128357333Y-68231523D01*
X128309714Y-68326761D01*
X128309714Y-68469619D01*
X128357333Y-68564857D01*
X128452571Y-68612476D01*
X128976380Y-68612476D01*
X128976380Y-69517238D02*
X128452571Y-69517238D01*
X128357333Y-69469619D01*
X128309714Y-69374380D01*
X128309714Y-69183904D01*
X128357333Y-69088666D01*
X128928761Y-69517238D02*
X128976380Y-69422000D01*
X128976380Y-69183904D01*
X128928761Y-69088666D01*
X128833523Y-69041047D01*
X128738285Y-69041047D01*
X128643047Y-69088666D01*
X128595428Y-69183904D01*
X128595428Y-69422000D01*
X128547809Y-69517238D01*
X128309714Y-69993428D02*
X128976380Y-69993428D01*
X128404952Y-69993428D02*
X128357333Y-70041047D01*
X128309714Y-70136285D01*
X128309714Y-70279142D01*
X128357333Y-70374380D01*
X128452571Y-70422000D01*
X128976380Y-70422000D01*
X128071619Y-70850571D02*
X128024000Y-70898190D01*
X127976380Y-70993428D01*
X127976380Y-71231523D01*
X128024000Y-71326761D01*
X128071619Y-71374380D01*
X128166857Y-71422000D01*
X128262095Y-71422000D01*
X128404952Y-71374380D01*
X128976380Y-70802952D01*
X128976380Y-71422000D01*
X128976380Y-71850571D02*
X127976380Y-71850571D01*
X128595428Y-71945809D02*
X128976380Y-72231523D01*
X128309714Y-72231523D02*
X128690666Y-71850571D01*
X128881142Y-72660095D02*
X128928761Y-72707714D01*
X128976380Y-72660095D01*
X128928761Y-72612476D01*
X128881142Y-72660095D01*
X128976380Y-72660095D01*
X128309714Y-73041047D02*
X128976380Y-73231523D01*
X128500190Y-73422000D01*
X128976380Y-73612476D01*
X128309714Y-73802952D01*
X128976380Y-74326761D02*
X128928761Y-74231523D01*
X128881142Y-74183904D01*
X128785904Y-74136285D01*
X128500190Y-74136285D01*
X128404952Y-74183904D01*
X128357333Y-74231523D01*
X128309714Y-74326761D01*
X128309714Y-74469619D01*
X128357333Y-74564857D01*
X128404952Y-74612476D01*
X128500190Y-74660095D01*
X128785904Y-74660095D01*
X128881142Y-74612476D01*
X128928761Y-74564857D01*
X128976380Y-74469619D01*
X128976380Y-74326761D01*
X128976380Y-75088666D02*
X128309714Y-75088666D01*
X128500190Y-75088666D02*
X128404952Y-75136285D01*
X128357333Y-75183904D01*
X128309714Y-75279142D01*
X128309714Y-75374380D01*
X128976380Y-76136285D02*
X127976380Y-76136285D01*
X128928761Y-76136285D02*
X128976380Y-76041047D01*
X128976380Y-75850571D01*
X128928761Y-75755333D01*
X128881142Y-75707714D01*
X128785904Y-75660095D01*
X128500190Y-75660095D01*
X128404952Y-75707714D01*
X128357333Y-75755333D01*
X128309714Y-75850571D01*
X128309714Y-76041047D01*
X128357333Y-76136285D01*
X128309714Y-76612476D02*
X129309714Y-76612476D01*
X128357333Y-76612476D02*
X128309714Y-76707714D01*
X128309714Y-76898190D01*
X128357333Y-76993428D01*
X128404952Y-77041047D01*
X128500190Y-77088666D01*
X128785904Y-77088666D01*
X128881142Y-77041047D01*
X128928761Y-76993428D01*
X128976380Y-76898190D01*
X128976380Y-76707714D01*
X128928761Y-76612476D01*
X128976380Y-77517238D02*
X128309714Y-77517238D01*
X128500190Y-77517238D02*
X128404952Y-77564857D01*
X128357333Y-77612476D01*
X128309714Y-77707714D01*
X128309714Y-77802952D01*
X128928761Y-78517238D02*
X128976380Y-78422000D01*
X128976380Y-78231523D01*
X128928761Y-78136285D01*
X128833523Y-78088666D01*
X128452571Y-78088666D01*
X128357333Y-78136285D01*
X128309714Y-78231523D01*
X128309714Y-78422000D01*
X128357333Y-78517238D01*
X128452571Y-78564857D01*
X128547809Y-78564857D01*
X128643047Y-78088666D01*
X128928761Y-78945809D02*
X128976380Y-79041047D01*
X128976380Y-79231523D01*
X128928761Y-79326761D01*
X128833523Y-79374380D01*
X128785904Y-79374380D01*
X128690666Y-79326761D01*
X128643047Y-79231523D01*
X128643047Y-79088666D01*
X128595428Y-78993428D01*
X128500190Y-78945809D01*
X128452571Y-78945809D01*
X128357333Y-78993428D01*
X128309714Y-79088666D01*
X128309714Y-79231523D01*
X128357333Y-79326761D01*
X128928761Y-79755333D02*
X128976380Y-79850571D01*
X128976380Y-80041047D01*
X128928761Y-80136285D01*
X128833523Y-80183904D01*
X128785904Y-80183904D01*
X128690666Y-80136285D01*
X128643047Y-80041047D01*
X128643047Y-79898190D01*
X128595428Y-79802952D01*
X128500190Y-79755333D01*
X128452571Y-79755333D01*
X128357333Y-79802952D01*
X128309714Y-79898190D01*
X128309714Y-80041047D01*
X128357333Y-80136285D01*
X128881142Y-80612476D02*
X128928761Y-80660095D01*
X128976380Y-80612476D01*
X128928761Y-80564857D01*
X128881142Y-80612476D01*
X128976380Y-80612476D01*
X128928761Y-81517238D02*
X128976380Y-81422000D01*
X128976380Y-81231523D01*
X128928761Y-81136285D01*
X128881142Y-81088666D01*
X128785904Y-81041047D01*
X128500190Y-81041047D01*
X128404952Y-81088666D01*
X128357333Y-81136285D01*
X128309714Y-81231523D01*
X128309714Y-81422000D01*
X128357333Y-81517238D01*
X128976380Y-82088666D02*
X128928761Y-81993428D01*
X128881142Y-81945809D01*
X128785904Y-81898190D01*
X128500190Y-81898190D01*
X128404952Y-81945809D01*
X128357333Y-81993428D01*
X128309714Y-82088666D01*
X128309714Y-82231523D01*
X128357333Y-82326761D01*
X128404952Y-82374380D01*
X128500190Y-82422000D01*
X128785904Y-82422000D01*
X128881142Y-82374380D01*
X128928761Y-82326761D01*
X128976380Y-82231523D01*
X128976380Y-82088666D01*
X128976380Y-82850571D02*
X128309714Y-82850571D01*
X128404952Y-82850571D02*
X128357333Y-82898190D01*
X128309714Y-82993428D01*
X128309714Y-83136285D01*
X128357333Y-83231523D01*
X128452571Y-83279142D01*
X128976380Y-83279142D01*
X128452571Y-83279142D02*
X128357333Y-83326761D01*
X128309714Y-83422000D01*
X128309714Y-83564857D01*
X128357333Y-83660095D01*
X128452571Y-83707714D01*
X128976380Y-83707714D01*
X126206857Y-58339333D02*
X126683047Y-58339333D01*
X126111619Y-58053619D02*
X126444952Y-59053619D01*
X126778285Y-58053619D01*
X127540190Y-58053619D02*
X127540190Y-59053619D01*
X127540190Y-58101238D02*
X127444952Y-58053619D01*
X127254476Y-58053619D01*
X127159238Y-58101238D01*
X127111619Y-58148857D01*
X127064000Y-58244095D01*
X127064000Y-58529809D01*
X127111619Y-58625047D01*
X127159238Y-58672666D01*
X127254476Y-58720285D01*
X127444952Y-58720285D01*
X127540190Y-58672666D01*
X128444952Y-58053619D02*
X128444952Y-58577428D01*
X128397333Y-58672666D01*
X128302095Y-58720285D01*
X128111619Y-58720285D01*
X128016380Y-58672666D01*
X128444952Y-58101238D02*
X128349714Y-58053619D01*
X128111619Y-58053619D01*
X128016380Y-58101238D01*
X127968761Y-58196476D01*
X127968761Y-58291714D01*
X128016380Y-58386952D01*
X128111619Y-58434571D01*
X128349714Y-58434571D01*
X128444952Y-58482190D01*
X128921142Y-58720285D02*
X128921142Y-57720285D01*
X128921142Y-58672666D02*
X129016380Y-58720285D01*
X129206857Y-58720285D01*
X129302095Y-58672666D01*
X129349714Y-58625047D01*
X129397333Y-58529809D01*
X129397333Y-58244095D01*
X129349714Y-58148857D01*
X129302095Y-58101238D01*
X129206857Y-58053619D01*
X129016380Y-58053619D01*
X128921142Y-58101238D01*
X129683047Y-58720285D02*
X130064000Y-58720285D01*
X129825904Y-59053619D02*
X129825904Y-58196476D01*
X129873523Y-58101238D01*
X129968761Y-58053619D01*
X130064000Y-58053619D01*
X130778285Y-58101238D02*
X130683047Y-58053619D01*
X130492571Y-58053619D01*
X130397333Y-58101238D01*
X130349714Y-58196476D01*
X130349714Y-58577428D01*
X130397333Y-58672666D01*
X130492571Y-58720285D01*
X130683047Y-58720285D01*
X130778285Y-58672666D01*
X130825904Y-58577428D01*
X130825904Y-58482190D01*
X130349714Y-58386952D01*
X131683047Y-58053619D02*
X131683047Y-59053619D01*
X131683047Y-58101238D02*
X131587809Y-58053619D01*
X131397333Y-58053619D01*
X131302095Y-58101238D01*
X131254476Y-58148857D01*
X131206857Y-58244095D01*
X131206857Y-58529809D01*
X131254476Y-58625047D01*
X131302095Y-58672666D01*
X131397333Y-58720285D01*
X131587809Y-58720285D01*
X131683047Y-58672666D01*
X132778285Y-58720285D02*
X133159238Y-58720285D01*
X132921142Y-58053619D02*
X132921142Y-58910761D01*
X132968761Y-59006000D01*
X133064000Y-59053619D01*
X133159238Y-59053619D01*
X133492571Y-58053619D02*
X133492571Y-58720285D01*
X133492571Y-58529809D02*
X133540190Y-58625047D01*
X133587809Y-58672666D01*
X133683047Y-58720285D01*
X133778285Y-58720285D01*
X134254476Y-58053619D02*
X134159238Y-58101238D01*
X134111619Y-58148857D01*
X134064000Y-58244095D01*
X134064000Y-58529809D01*
X134111619Y-58625047D01*
X134159238Y-58672666D01*
X134254476Y-58720285D01*
X134397333Y-58720285D01*
X134492571Y-58672666D01*
X134540190Y-58625047D01*
X134587809Y-58529809D01*
X134587809Y-58244095D01*
X134540190Y-58148857D01*
X134492571Y-58101238D01*
X134397333Y-58053619D01*
X134254476Y-58053619D01*
X135016380Y-58053619D02*
X135016380Y-58720285D01*
X135016380Y-58625047D02*
X135064000Y-58672666D01*
X135159238Y-58720285D01*
X135302095Y-58720285D01*
X135397333Y-58672666D01*
X135444952Y-58577428D01*
X135444952Y-58053619D01*
X135444952Y-58577428D02*
X135492571Y-58672666D01*
X135587809Y-58720285D01*
X135730666Y-58720285D01*
X135825904Y-58672666D01*
X135873523Y-58577428D01*
X135873523Y-58053619D01*
X127254476Y-56443619D02*
X127254476Y-56967428D01*
X127206857Y-57062666D01*
X127111619Y-57110285D01*
X126921142Y-57110285D01*
X126825904Y-57062666D01*
X127254476Y-56491238D02*
X127159238Y-56443619D01*
X126921142Y-56443619D01*
X126825904Y-56491238D01*
X126778285Y-56586476D01*
X126778285Y-56681714D01*
X126825904Y-56776952D01*
X126921142Y-56824571D01*
X127159238Y-56824571D01*
X127254476Y-56872190D01*
X128921142Y-56443619D02*
X128921142Y-57443619D01*
X128921142Y-56491238D02*
X128825904Y-56443619D01*
X128635428Y-56443619D01*
X128540190Y-56491238D01*
X128492571Y-56538857D01*
X128444952Y-56634095D01*
X128444952Y-56919809D01*
X128492571Y-57015047D01*
X128540190Y-57062666D01*
X128635428Y-57110285D01*
X128825904Y-57110285D01*
X128921142Y-57062666D01*
X129778285Y-56491238D02*
X129683047Y-56443619D01*
X129492571Y-56443619D01*
X129397333Y-56491238D01*
X129349714Y-56586476D01*
X129349714Y-56967428D01*
X129397333Y-57062666D01*
X129492571Y-57110285D01*
X129683047Y-57110285D01*
X129778285Y-57062666D01*
X129825904Y-56967428D01*
X129825904Y-56872190D01*
X129349714Y-56776952D01*
X130206857Y-56491238D02*
X130302095Y-56443619D01*
X130492571Y-56443619D01*
X130587809Y-56491238D01*
X130635428Y-56586476D01*
X130635428Y-56634095D01*
X130587809Y-56729333D01*
X130492571Y-56776952D01*
X130349714Y-56776952D01*
X130254476Y-56824571D01*
X130206857Y-56919809D01*
X130206857Y-56967428D01*
X130254476Y-57062666D01*
X130349714Y-57110285D01*
X130492571Y-57110285D01*
X130587809Y-57062666D01*
X131064000Y-56443619D02*
X131064000Y-57110285D01*
X131064000Y-57443619D02*
X131016380Y-57396000D01*
X131064000Y-57348380D01*
X131111619Y-57396000D01*
X131064000Y-57443619D01*
X131064000Y-57348380D01*
X131968761Y-57110285D02*
X131968761Y-56300761D01*
X131921142Y-56205523D01*
X131873523Y-56157904D01*
X131778285Y-56110285D01*
X131635428Y-56110285D01*
X131540190Y-56157904D01*
X131968761Y-56491238D02*
X131873523Y-56443619D01*
X131683047Y-56443619D01*
X131587809Y-56491238D01*
X131540190Y-56538857D01*
X131492571Y-56634095D01*
X131492571Y-56919809D01*
X131540190Y-57015047D01*
X131587809Y-57062666D01*
X131683047Y-57110285D01*
X131873523Y-57110285D01*
X131968761Y-57062666D01*
X132444952Y-57110285D02*
X132444952Y-56443619D01*
X132444952Y-57015047D02*
X132492571Y-57062666D01*
X132587809Y-57110285D01*
X132730666Y-57110285D01*
X132825904Y-57062666D01*
X132873523Y-56967428D01*
X132873523Y-56443619D01*
X134111619Y-56443619D02*
X134111619Y-57443619D01*
X134111619Y-57062666D02*
X134206857Y-57110285D01*
X134397333Y-57110285D01*
X134492571Y-57062666D01*
X134540190Y-57015047D01*
X134587809Y-56919809D01*
X134587809Y-56634095D01*
X134540190Y-56538857D01*
X134492571Y-56491238D01*
X134397333Y-56443619D01*
X134206857Y-56443619D01*
X134111619Y-56491238D01*
X134921142Y-57110285D02*
X135159238Y-56443619D01*
X135397333Y-57110285D02*
X135159238Y-56443619D01*
X135064000Y-56205523D01*
X135016380Y-56157904D01*
X134921142Y-56110285D01*
X124492571Y-54833619D02*
X124492571Y-55833619D01*
X124825904Y-55119333D01*
X125159238Y-55833619D01*
X125159238Y-54833619D01*
X125635428Y-54833619D02*
X125635428Y-55500285D01*
X125635428Y-55833619D02*
X125587809Y-55786000D01*
X125635428Y-55738380D01*
X125683047Y-55786000D01*
X125635428Y-55833619D01*
X125635428Y-55738380D01*
X126540190Y-54881238D02*
X126444952Y-54833619D01*
X126254476Y-54833619D01*
X126159238Y-54881238D01*
X126111619Y-54928857D01*
X126064000Y-55024095D01*
X126064000Y-55309809D01*
X126111619Y-55405047D01*
X126159238Y-55452666D01*
X126254476Y-55500285D01*
X126444952Y-55500285D01*
X126540190Y-55452666D01*
X126968761Y-54833619D02*
X126968761Y-55833619D01*
X127397333Y-54833619D02*
X127397333Y-55357428D01*
X127349714Y-55452666D01*
X127254476Y-55500285D01*
X127111619Y-55500285D01*
X127016380Y-55452666D01*
X126968761Y-55405047D01*
X128302095Y-54833619D02*
X128302095Y-55357428D01*
X128254476Y-55452666D01*
X128159238Y-55500285D01*
X127968761Y-55500285D01*
X127873523Y-55452666D01*
X128302095Y-54881238D02*
X128206857Y-54833619D01*
X127968761Y-54833619D01*
X127873523Y-54881238D01*
X127825904Y-54976476D01*
X127825904Y-55071714D01*
X127873523Y-55166952D01*
X127968761Y-55214571D01*
X128206857Y-55214571D01*
X128302095Y-55262190D01*
X129159238Y-54881238D02*
X129064000Y-54833619D01*
X128873523Y-54833619D01*
X128778285Y-54881238D01*
X128730666Y-54976476D01*
X128730666Y-55357428D01*
X128778285Y-55452666D01*
X128873523Y-55500285D01*
X129064000Y-55500285D01*
X129159238Y-55452666D01*
X129206857Y-55357428D01*
X129206857Y-55262190D01*
X128730666Y-55166952D01*
X129778285Y-54833619D02*
X129683047Y-54881238D01*
X129635428Y-54976476D01*
X129635428Y-55833619D01*
X131254476Y-55357428D02*
X131397333Y-55309809D01*
X131444952Y-55262190D01*
X131492571Y-55166952D01*
X131492571Y-55024095D01*
X131444952Y-54928857D01*
X131397333Y-54881238D01*
X131302095Y-54833619D01*
X130921142Y-54833619D01*
X130921142Y-55833619D01*
X131254476Y-55833619D01*
X131349714Y-55786000D01*
X131397333Y-55738380D01*
X131444952Y-55643142D01*
X131444952Y-55547904D01*
X131397333Y-55452666D01*
X131349714Y-55405047D01*
X131254476Y-55357428D01*
X130921142Y-55357428D01*
X132064000Y-54833619D02*
X131968761Y-54881238D01*
X131921142Y-54928857D01*
X131873523Y-55024095D01*
X131873523Y-55309809D01*
X131921142Y-55405047D01*
X131968761Y-55452666D01*
X132064000Y-55500285D01*
X132206857Y-55500285D01*
X132302095Y-55452666D01*
X132349714Y-55405047D01*
X132397333Y-55309809D01*
X132397333Y-55024095D01*
X132349714Y-54928857D01*
X132302095Y-54881238D01*
X132206857Y-54833619D01*
X132064000Y-54833619D01*
X132825904Y-54833619D02*
X132825904Y-55500285D01*
X132825904Y-55309809D02*
X132873523Y-55405047D01*
X132921142Y-55452666D01*
X133016380Y-55500285D01*
X133111619Y-55500285D01*
X133302095Y-55500285D02*
X133683047Y-55500285D01*
X133444952Y-55833619D02*
X133444952Y-54976476D01*
X133492571Y-54881238D01*
X133587809Y-54833619D01*
X133683047Y-54833619D01*
X134016380Y-54833619D02*
X134016380Y-55833619D01*
X134444952Y-54833619D02*
X134444952Y-55357428D01*
X134397333Y-55452666D01*
X134302095Y-55500285D01*
X134159238Y-55500285D01*
X134064000Y-55452666D01*
X134016380Y-55405047D01*
X134825904Y-55500285D02*
X135016380Y-54833619D01*
X135206857Y-55309809D01*
X135397333Y-54833619D01*
X135587809Y-55500285D01*
X135968761Y-54833619D02*
X135968761Y-55500285D01*
X135968761Y-55833619D02*
X135921142Y-55786000D01*
X135968761Y-55738380D01*
X136016380Y-55786000D01*
X135968761Y-55833619D01*
X135968761Y-55738380D01*
X136873523Y-54881238D02*
X136778285Y-54833619D01*
X136587809Y-54833619D01*
X136492571Y-54881238D01*
X136444952Y-54928857D01*
X136397333Y-55024095D01*
X136397333Y-55309809D01*
X136444952Y-55405047D01*
X136492571Y-55452666D01*
X136587809Y-55500285D01*
X136778285Y-55500285D01*
X136873523Y-55452666D01*
X137302095Y-54833619D02*
X137302095Y-55833619D01*
X137397333Y-55214571D02*
X137683047Y-54833619D01*
X137683047Y-55500285D02*
X137302095Y-55119333D01*
X124150380Y-81716761D02*
X123150380Y-81716761D01*
X123531333Y-81716761D02*
X123483714Y-81812000D01*
X123483714Y-82002476D01*
X123531333Y-82097714D01*
X123578952Y-82145333D01*
X123674190Y-82192952D01*
X123959904Y-82192952D01*
X124055142Y-82145333D01*
X124102761Y-82097714D01*
X124150380Y-82002476D01*
X124150380Y-81812000D01*
X124102761Y-81716761D01*
X124150380Y-82621523D02*
X123483714Y-82621523D01*
X123150380Y-82621523D02*
X123198000Y-82573904D01*
X123245619Y-82621523D01*
X123198000Y-82669142D01*
X123150380Y-82621523D01*
X123245619Y-82621523D01*
X123483714Y-82954857D02*
X123483714Y-83335809D01*
X123150380Y-83097714D02*
X124007523Y-83097714D01*
X124102761Y-83145333D01*
X124150380Y-83240571D01*
X124150380Y-83335809D01*
X123150380Y-84621523D02*
X123150380Y-84716761D01*
X123198000Y-84812000D01*
X123245619Y-84859619D01*
X123340857Y-84907238D01*
X123531333Y-84954857D01*
X123769428Y-84954857D01*
X123959904Y-84907238D01*
X124055142Y-84859619D01*
X124102761Y-84812000D01*
X124150380Y-84716761D01*
X124150380Y-84621523D01*
X124102761Y-84526285D01*
X124055142Y-84478666D01*
X123959904Y-84431047D01*
X123769428Y-84383428D01*
X123531333Y-84383428D01*
X123340857Y-84431047D01*
X123245619Y-84478666D01*
X123198000Y-84526285D01*
X123150380Y-84621523D01*
X121356380Y-81716761D02*
X120356380Y-81716761D01*
X120737333Y-81716761D02*
X120689714Y-81812000D01*
X120689714Y-82002476D01*
X120737333Y-82097714D01*
X120784952Y-82145333D01*
X120880190Y-82192952D01*
X121165904Y-82192952D01*
X121261142Y-82145333D01*
X121308761Y-82097714D01*
X121356380Y-82002476D01*
X121356380Y-81812000D01*
X121308761Y-81716761D01*
X121356380Y-82621523D02*
X120689714Y-82621523D01*
X120356380Y-82621523D02*
X120404000Y-82573904D01*
X120451619Y-82621523D01*
X120404000Y-82669142D01*
X120356380Y-82621523D01*
X120451619Y-82621523D01*
X120689714Y-82954857D02*
X120689714Y-83335809D01*
X120356380Y-83097714D02*
X121213523Y-83097714D01*
X121308761Y-83145333D01*
X121356380Y-83240571D01*
X121356380Y-83335809D01*
X121356380Y-84954857D02*
X121356380Y-84383428D01*
X121356380Y-84669142D02*
X120356380Y-84669142D01*
X120499238Y-84573904D01*
X120594476Y-84478666D01*
X120642095Y-84383428D01*
X124308857Y-73620380D02*
X123642190Y-73620380D01*
X124070761Y-74620380D01*
X122832666Y-73953714D02*
X122832666Y-74620380D01*
X123070761Y-73572761D02*
X123308857Y-74287047D01*
X122689809Y-74287047D01*
X121832666Y-74620380D02*
X122308857Y-74620380D01*
X122308857Y-73620380D01*
X121546952Y-74572761D02*
X121404095Y-74620380D01*
X121166000Y-74620380D01*
X121070761Y-74572761D01*
X121023142Y-74525142D01*
X120975523Y-74429904D01*
X120975523Y-74334666D01*
X121023142Y-74239428D01*
X121070761Y-74191809D01*
X121166000Y-74144190D01*
X121356476Y-74096571D01*
X121451714Y-74048952D01*
X121499333Y-74001333D01*
X121546952Y-73906095D01*
X121546952Y-73810857D01*
X121499333Y-73715619D01*
X121451714Y-73668000D01*
X121356476Y-73620380D01*
X121118380Y-73620380D01*
X120975523Y-73668000D01*
X120356476Y-73620380D02*
X120261238Y-73620380D01*
X120166000Y-73668000D01*
X120118380Y-73715619D01*
X120070761Y-73810857D01*
X120023142Y-74001333D01*
X120023142Y-74239428D01*
X120070761Y-74429904D01*
X120118380Y-74525142D01*
X120166000Y-74572761D01*
X120261238Y-74620380D01*
X120356476Y-74620380D01*
X120451714Y-74572761D01*
X120499333Y-74525142D01*
X120546952Y-74429904D01*
X120594571Y-74239428D01*
X120594571Y-74001333D01*
X120546952Y-73810857D01*
X120499333Y-73715619D01*
X120451714Y-73668000D01*
X120356476Y-73620380D01*
X119118380Y-73620380D02*
X119594571Y-73620380D01*
X119642190Y-74096571D01*
X119594571Y-74048952D01*
X119499333Y-74001333D01*
X119261238Y-74001333D01*
X119166000Y-74048952D01*
X119118380Y-74096571D01*
X119070761Y-74191809D01*
X119070761Y-74429904D01*
X119118380Y-74525142D01*
X119166000Y-74572761D01*
X119261238Y-74620380D01*
X119499333Y-74620380D01*
X119594571Y-74572761D01*
X119642190Y-74525142D01*
D11*
X124220500Y-80247258D02*
X124220500Y-79772742D01*
X123175500Y-80247258D02*
X123175500Y-79772742D01*
X120381500Y-80247258D02*
X120381500Y-79772742D01*
X121426500Y-80247258D02*
X121426500Y-79772742D01*
X117993000Y-74168000D02*
X117993000Y-76118000D01*
X117993000Y-74168000D02*
X117993000Y-70718000D01*
X126863000Y-74168000D02*
X126863000Y-72218000D01*
X126863000Y-74168000D02*
X126863000Y-76118000D01*
G36*
X127148529Y-84819420D02*
G01*
X127150419Y-84833816D01*
X127154088Y-84865165D01*
X127158417Y-84904797D01*
X127162820Y-84947462D01*
X127165678Y-84975716D01*
X127169340Y-85010864D01*
X127173427Y-85048779D01*
X127178261Y-85092357D01*
X127184164Y-85144492D01*
X127191458Y-85208079D01*
X127200464Y-85286013D01*
X127202805Y-85307774D01*
X127204782Y-85329373D01*
X127203666Y-85332159D01*
X127192807Y-85346485D01*
X127171534Y-85370874D01*
X127141246Y-85403914D01*
X127103343Y-85444196D01*
X127059225Y-85490307D01*
X127010292Y-85540838D01*
X126957943Y-85594377D01*
X126903578Y-85649513D01*
X126848597Y-85704836D01*
X126794400Y-85758934D01*
X126742385Y-85810396D01*
X126693954Y-85857813D01*
X126650505Y-85899772D01*
X126613439Y-85934862D01*
X126584154Y-85961674D01*
X126564052Y-85978796D01*
X126554532Y-85984816D01*
X126553311Y-85984844D01*
X126533073Y-85987900D01*
X126501119Y-85995180D01*
X126461759Y-86005504D01*
X126419303Y-86017692D01*
X126378061Y-86030563D01*
X126342343Y-86042936D01*
X126323436Y-86050255D01*
X126246439Y-86084861D01*
X126168943Y-86126358D01*
X126099796Y-86170108D01*
X126097311Y-86171843D01*
X126070321Y-86190563D01*
X126048492Y-86205493D01*
X126036346Y-86213538D01*
X126034546Y-86213371D01*
X126032110Y-86207117D01*
X126030123Y-86192416D01*
X126028548Y-86167996D01*
X126027346Y-86132582D01*
X126026478Y-86084901D01*
X126025906Y-86023680D01*
X126025591Y-85947645D01*
X126025495Y-85855523D01*
X126025495Y-85490824D01*
X126062388Y-85474531D01*
X126072637Y-85470315D01*
X126100942Y-85459674D01*
X126138284Y-85446318D01*
X126179887Y-85431895D01*
X126220974Y-85418049D01*
X126256768Y-85406428D01*
X126282493Y-85398677D01*
X126284264Y-85397136D01*
X126289417Y-85382435D01*
X126294244Y-85355289D01*
X126298034Y-85319320D01*
X126300060Y-85295277D01*
X126304754Y-85246312D01*
X126310408Y-85192838D01*
X126316207Y-85142780D01*
X126319313Y-85116929D01*
X126325977Y-85059018D01*
X126332532Y-84999369D01*
X126337925Y-84947462D01*
X126341027Y-84916954D01*
X126345415Y-84875914D01*
X126349318Y-84841651D01*
X126352152Y-84819420D01*
X126356891Y-84786867D01*
X127143791Y-84786867D01*
X127148529Y-84819420D01*
G37*
G36*
X128401386Y-85474344D02*
G01*
X128423053Y-85496038D01*
X128486697Y-85560218D01*
X128542320Y-85617026D01*
X128589179Y-85665678D01*
X128626534Y-85705388D01*
X128653643Y-85735372D01*
X128669764Y-85754847D01*
X128674157Y-85763026D01*
X128672981Y-85764539D01*
X128662657Y-85777529D01*
X128643690Y-85801245D01*
X128617793Y-85833548D01*
X128586679Y-85872303D01*
X128552060Y-85915370D01*
X128544643Y-85924593D01*
X128508607Y-85969424D01*
X128474961Y-86011317D01*
X128445827Y-86047625D01*
X128423331Y-86075701D01*
X128409595Y-86092898D01*
X128402459Y-86101804D01*
X128378902Y-86130552D01*
X128357558Y-86155834D01*
X128332787Y-86184475D01*
X127423644Y-86184475D01*
X127364462Y-86146190D01*
X127293138Y-86104255D01*
X127175660Y-86050231D01*
X127049415Y-86008590D01*
X126917446Y-85980458D01*
X126911466Y-85979414D01*
X126892527Y-85974335D01*
X126884893Y-85969177D01*
X126886216Y-85967224D01*
X126897474Y-85954687D01*
X126919163Y-85931836D01*
X126949999Y-85899985D01*
X126988702Y-85860445D01*
X127033987Y-85814531D01*
X127084573Y-85763554D01*
X127139178Y-85708829D01*
X127393463Y-85454653D01*
X127445176Y-85477364D01*
X127454989Y-85481746D01*
X127490696Y-85498356D01*
X127532217Y-85518361D01*
X127572444Y-85538355D01*
X127648000Y-85576637D01*
X127715647Y-85522473D01*
X127733248Y-85508363D01*
X127762712Y-85484666D01*
X127786508Y-85465433D01*
X127800686Y-85453850D01*
X127804231Y-85450936D01*
X127821094Y-85437226D01*
X127848306Y-85415196D01*
X127883653Y-85386636D01*
X127924922Y-85353335D01*
X127969898Y-85317082D01*
X128121717Y-85194774D01*
X128401386Y-85474344D01*
G37*
G36*
X126135904Y-88105988D02*
G01*
X126201571Y-88145524D01*
X126268207Y-88179099D01*
X126342343Y-88209529D01*
X126373113Y-88220420D01*
X126417092Y-88234381D01*
X126462170Y-88247275D01*
X126503975Y-88257934D01*
X126538138Y-88265187D01*
X126560288Y-88267865D01*
X126573365Y-88268758D01*
X126593376Y-88273134D01*
X126600224Y-88276518D01*
X126607108Y-88284041D01*
X126606003Y-88285674D01*
X126595202Y-88297652D01*
X126573931Y-88319993D01*
X126543478Y-88351381D01*
X126505133Y-88390496D01*
X126460185Y-88436023D01*
X126409923Y-88486643D01*
X126355637Y-88541038D01*
X126104166Y-88792397D01*
X126071341Y-88780810D01*
X126053804Y-88773741D01*
X126023103Y-88760017D01*
X125985476Y-88742311D01*
X125945481Y-88722728D01*
X125852447Y-88676234D01*
X125784917Y-88730303D01*
X125767426Y-88744322D01*
X125737974Y-88767996D01*
X125714179Y-88787205D01*
X125699995Y-88798763D01*
X125689821Y-88807056D01*
X125668128Y-88824595D01*
X125638029Y-88848857D01*
X125601962Y-88877885D01*
X125562363Y-88909723D01*
X125521668Y-88942413D01*
X125482313Y-88973999D01*
X125446735Y-89002523D01*
X125417371Y-89026029D01*
X125396655Y-89042559D01*
X125387026Y-89050157D01*
X125385709Y-89050081D01*
X125373875Y-89041901D01*
X125350993Y-89022226D01*
X125317850Y-88991798D01*
X125275228Y-88951359D01*
X125223914Y-88901650D01*
X125164691Y-88843412D01*
X125098344Y-88777386D01*
X124818774Y-88497717D01*
X124941230Y-88345898D01*
X124955073Y-88328733D01*
X124991870Y-88283081D01*
X125025896Y-88240834D01*
X125055119Y-88204517D01*
X125077504Y-88176658D01*
X125091018Y-88159783D01*
X125098197Y-88150846D01*
X125121779Y-88122112D01*
X125143123Y-88096847D01*
X125167895Y-88068207D01*
X126077038Y-88068207D01*
X126135904Y-88105988D01*
G37*
G36*
X127905976Y-87264402D02*
G01*
X127918503Y-87275297D01*
X127941304Y-87296630D01*
X127973090Y-87327146D01*
X128012568Y-87365595D01*
X128058451Y-87410722D01*
X128109448Y-87461277D01*
X128164269Y-87516007D01*
X128420575Y-87772751D01*
X128398591Y-87822820D01*
X128394220Y-87832601D01*
X128377928Y-87867580D01*
X128358184Y-87908514D01*
X128338326Y-87948444D01*
X128300045Y-88024000D01*
X128354208Y-88091647D01*
X128368318Y-88109248D01*
X128392016Y-88138712D01*
X128411249Y-88162508D01*
X128422832Y-88176686D01*
X128425745Y-88180231D01*
X128439456Y-88197094D01*
X128461486Y-88224306D01*
X128490046Y-88259653D01*
X128523347Y-88300922D01*
X128559599Y-88345898D01*
X128681908Y-88497717D01*
X128402337Y-88777386D01*
X128380643Y-88799053D01*
X128316463Y-88862697D01*
X128259655Y-88918320D01*
X128211004Y-88965179D01*
X128171294Y-89002534D01*
X128141309Y-89029643D01*
X128121835Y-89045764D01*
X128113656Y-89050157D01*
X128106794Y-89044746D01*
X128088160Y-89029883D01*
X128060434Y-89007696D01*
X128026025Y-88980121D01*
X127987344Y-88949093D01*
X127946801Y-88916547D01*
X127906806Y-88884418D01*
X127869769Y-88854640D01*
X127838100Y-88829148D01*
X127814210Y-88809877D01*
X127800508Y-88798763D01*
X127784910Y-88786167D01*
X127760886Y-88766961D01*
X127733643Y-88745309D01*
X127684347Y-88706245D01*
X127683937Y-88260051D01*
X127683526Y-87813858D01*
X127725601Y-87747885D01*
X127752905Y-87703033D01*
X127815530Y-87579178D01*
X127861751Y-87451993D01*
X127891102Y-87322679D01*
X127895860Y-87295511D01*
X127900624Y-87273287D01*
X127903957Y-87263269D01*
X127905976Y-87264402D01*
G37*
G36*
X127463016Y-88044387D02*
G01*
X127463825Y-88060940D01*
X127464563Y-88092137D01*
X127465211Y-88136183D01*
X127465748Y-88191278D01*
X127466156Y-88255625D01*
X127466415Y-88327427D01*
X127466506Y-88404884D01*
X127466506Y-88767603D01*
X127407911Y-88790156D01*
X127381666Y-88799917D01*
X127338770Y-88815054D01*
X127292966Y-88830543D01*
X127250643Y-88844236D01*
X127218188Y-88853983D01*
X127216413Y-88855536D01*
X127211262Y-88870259D01*
X127206436Y-88897411D01*
X127202648Y-88933362D01*
X127200622Y-88957404D01*
X127195928Y-89006369D01*
X127190273Y-89059843D01*
X127184475Y-89109902D01*
X127181369Y-89135753D01*
X127174705Y-89193664D01*
X127168149Y-89253312D01*
X127162757Y-89305220D01*
X127159654Y-89335727D01*
X127155266Y-89376768D01*
X127151364Y-89411030D01*
X127148529Y-89433261D01*
X127143791Y-89465814D01*
X126356891Y-89465814D01*
X126352152Y-89433261D01*
X126350265Y-89418867D01*
X126346603Y-89387518D01*
X126342287Y-89347885D01*
X126337900Y-89305220D01*
X126334922Y-89275969D01*
X126328902Y-89219055D01*
X126322358Y-89159268D01*
X126316261Y-89105562D01*
X126311885Y-89067770D01*
X126306542Y-89021141D01*
X126301882Y-88979968D01*
X126298576Y-88950143D01*
X126293016Y-88898894D01*
X126608442Y-88583379D01*
X126620783Y-88571041D01*
X126701950Y-88490298D01*
X126771258Y-88422118D01*
X126828761Y-88366450D01*
X126874513Y-88323242D01*
X126908569Y-88292443D01*
X126930983Y-88274001D01*
X126941809Y-88267865D01*
X126959149Y-88265903D01*
X126990955Y-88259337D01*
X127031114Y-88249274D01*
X127075289Y-88236879D01*
X127119143Y-88223314D01*
X127158338Y-88209745D01*
X127170711Y-88205020D01*
X127250100Y-88169866D01*
X127330605Y-88126905D01*
X127403471Y-88080742D01*
X127409602Y-88076474D01*
X127435212Y-88059032D01*
X127454113Y-88046786D01*
X127462582Y-88042164D01*
X127463016Y-88044387D01*
G37*
G36*
X125403494Y-85214374D02*
G01*
X125404627Y-85215185D01*
X125425078Y-85230527D01*
X125452827Y-85252144D01*
X125482208Y-85275627D01*
X125488662Y-85280853D01*
X125518214Y-85304702D01*
X125555937Y-85335064D01*
X125597657Y-85368581D01*
X125639199Y-85401895D01*
X125657803Y-85416828D01*
X125693155Y-85445383D01*
X125723006Y-85469724D01*
X125744665Y-85487649D01*
X125755438Y-85496957D01*
X125768040Y-85507597D01*
X125787991Y-85521990D01*
X125808475Y-85535412D01*
X125808475Y-86456123D01*
X125779083Y-86500425D01*
X125751761Y-86545039D01*
X125721198Y-86601151D01*
X125692823Y-86658897D01*
X125670578Y-86710640D01*
X125663316Y-86730765D01*
X125649387Y-86774702D01*
X125635030Y-86825279D01*
X125621772Y-86876734D01*
X125611141Y-86923307D01*
X125604664Y-86959235D01*
X125602453Y-86972983D01*
X125597601Y-86992716D01*
X125593038Y-87000469D01*
X125590953Y-86999025D01*
X125578216Y-86987533D01*
X125555185Y-86965632D01*
X125523168Y-86934603D01*
X125483474Y-86895723D01*
X125437411Y-86850271D01*
X125386287Y-86799525D01*
X125331411Y-86744765D01*
X125075817Y-86489062D01*
X125104898Y-86421406D01*
X125105075Y-86420994D01*
X125124224Y-86378624D01*
X125146444Y-86332563D01*
X125166960Y-86292710D01*
X125199942Y-86231670D01*
X125169454Y-86192881D01*
X125157099Y-86177250D01*
X125137992Y-86153377D01*
X125124318Y-86136660D01*
X125121766Y-86133609D01*
X125102657Y-86110389D01*
X125075561Y-86077074D01*
X125042837Y-86036603D01*
X125006845Y-85991915D01*
X124969943Y-85945947D01*
X124934493Y-85901637D01*
X124902852Y-85861924D01*
X124877380Y-85829745D01*
X124860436Y-85808039D01*
X124819540Y-85754775D01*
X125377602Y-85195937D01*
X125403494Y-85214374D01*
G37*
G36*
X128402151Y-86438388D02*
G01*
X128406367Y-86448637D01*
X128417008Y-86476942D01*
X128430363Y-86514284D01*
X128444787Y-86555887D01*
X128458632Y-86596974D01*
X128470254Y-86632768D01*
X128478004Y-86658493D01*
X128479545Y-86660264D01*
X128494247Y-86665417D01*
X128521393Y-86670244D01*
X128557362Y-86674034D01*
X128581404Y-86676060D01*
X128630369Y-86680754D01*
X128683843Y-86686408D01*
X128733902Y-86692207D01*
X128759753Y-86695313D01*
X128817664Y-86701977D01*
X128877312Y-86708532D01*
X128929220Y-86713925D01*
X128959727Y-86717027D01*
X129000768Y-86721415D01*
X129035030Y-86725318D01*
X129057261Y-86728152D01*
X129089814Y-86732891D01*
X129089814Y-87519791D01*
X129057261Y-87524529D01*
X129042867Y-87526417D01*
X129011518Y-87530078D01*
X128971885Y-87534394D01*
X128929220Y-87538782D01*
X128899977Y-87541756D01*
X128843060Y-87547764D01*
X128783271Y-87554285D01*
X128729562Y-87560354D01*
X128691338Y-87564772D01*
X128645812Y-87570018D01*
X128606214Y-87574565D01*
X128578204Y-87577761D01*
X128531016Y-87583108D01*
X128211441Y-87263620D01*
X128188728Y-87240880D01*
X128128520Y-87180255D01*
X128072618Y-87123477D01*
X128022168Y-87071740D01*
X127978318Y-87026240D01*
X127942216Y-86988174D01*
X127915008Y-86958736D01*
X127897842Y-86939124D01*
X127891865Y-86930532D01*
X127891837Y-86929311D01*
X127888782Y-86909073D01*
X127881502Y-86877119D01*
X127871177Y-86837759D01*
X127858990Y-86795303D01*
X127846119Y-86754061D01*
X127833745Y-86718343D01*
X127826426Y-86699436D01*
X127791821Y-86622439D01*
X127750323Y-86544943D01*
X127706574Y-86475796D01*
X127704838Y-86473311D01*
X127686119Y-86446321D01*
X127671189Y-86424492D01*
X127663143Y-86412346D01*
X127663310Y-86410546D01*
X127669565Y-86408110D01*
X127684265Y-86406123D01*
X127708686Y-86404548D01*
X127744100Y-86403346D01*
X127791781Y-86402478D01*
X127853002Y-86401906D01*
X127929036Y-86401591D01*
X128021158Y-86401495D01*
X128385858Y-86401495D01*
X128402151Y-86438388D01*
G37*
G36*
X125284359Y-86993944D02*
G01*
X125606563Y-87317318D01*
X125621648Y-87382424D01*
X125626608Y-87402993D01*
X125668275Y-87535706D01*
X125724675Y-87661310D01*
X125794755Y-87777400D01*
X125807776Y-87796270D01*
X125825881Y-87822792D01*
X125838347Y-87841435D01*
X125843030Y-87849017D01*
X125840690Y-87849264D01*
X125823930Y-87849710D01*
X125792546Y-87850117D01*
X125748329Y-87850473D01*
X125693074Y-87850770D01*
X125628574Y-87850994D01*
X125556622Y-87851137D01*
X125479011Y-87851187D01*
X125114824Y-87851187D01*
X125098531Y-87814294D01*
X125094315Y-87804044D01*
X125083674Y-87775739D01*
X125070318Y-87738397D01*
X125055895Y-87696794D01*
X125042049Y-87655708D01*
X125030428Y-87619913D01*
X125022677Y-87594188D01*
X125021136Y-87592418D01*
X125006435Y-87587264D01*
X124979289Y-87582438D01*
X124943320Y-87578648D01*
X124919277Y-87576622D01*
X124870312Y-87571928D01*
X124816838Y-87566273D01*
X124766780Y-87560475D01*
X124740929Y-87557369D01*
X124683018Y-87550705D01*
X124623369Y-87544149D01*
X124571462Y-87538757D01*
X124540954Y-87535654D01*
X124499914Y-87531266D01*
X124465651Y-87527364D01*
X124443420Y-87524529D01*
X124410867Y-87519791D01*
X124410867Y-86732891D01*
X124443420Y-86728152D01*
X124457815Y-86726265D01*
X124489163Y-86722603D01*
X124528796Y-86718287D01*
X124571462Y-86713900D01*
X124600705Y-86710925D01*
X124657621Y-86704918D01*
X124717411Y-86698396D01*
X124771120Y-86692327D01*
X124809732Y-86687868D01*
X124854232Y-86682754D01*
X124892377Y-86678397D01*
X124918722Y-86675419D01*
X124962154Y-86670569D01*
X125284359Y-86993944D01*
G37*
G36*
X126700859Y-86541920D02*
G01*
X126809477Y-86541601D01*
X126913408Y-86554215D01*
X127011020Y-86579204D01*
X127100683Y-86616009D01*
X127180762Y-86664071D01*
X127249628Y-86722831D01*
X127305647Y-86791732D01*
X127310074Y-86798505D01*
X127348187Y-86867402D01*
X127378088Y-86940983D01*
X127396755Y-87011948D01*
X127399331Y-87033441D01*
X127401520Y-87070701D01*
X127402519Y-87115101D01*
X127402126Y-87161064D01*
X127401533Y-87180925D01*
X127398992Y-87227496D01*
X127394480Y-87264676D01*
X127387109Y-87298336D01*
X127375994Y-87334349D01*
X127374405Y-87338965D01*
X127334702Y-87426735D01*
X127280289Y-87506021D01*
X127212246Y-87575496D01*
X127131656Y-87633836D01*
X127081979Y-87663888D01*
X127048542Y-87626209D01*
X127028277Y-87601019D01*
X127017219Y-87578374D01*
X127019128Y-87559853D01*
X127033417Y-87542194D01*
X127052027Y-87523418D01*
X127082290Y-87487452D01*
X127113265Y-87445747D01*
X127140771Y-87404029D01*
X127160626Y-87368023D01*
X127164676Y-87359242D01*
X127173626Y-87337332D01*
X127179375Y-87316274D01*
X127182620Y-87291514D01*
X127184056Y-87258502D01*
X127184380Y-87212685D01*
X127184233Y-87170966D01*
X127183181Y-87138302D01*
X127180312Y-87113826D01*
X127174715Y-87092778D01*
X127165478Y-87070396D01*
X127151690Y-87041920D01*
X127131049Y-87005617D01*
X127082123Y-86945197D01*
X127021660Y-86895917D01*
X126951712Y-86859001D01*
X126874333Y-86835673D01*
X126791575Y-86827158D01*
X126754681Y-86826853D01*
X126754681Y-87625086D01*
X126732905Y-87639355D01*
X126721497Y-87644636D01*
X126690590Y-87651876D01*
X126649038Y-87656633D01*
X126600999Y-87658775D01*
X126550630Y-87658166D01*
X126502089Y-87654673D01*
X126459534Y-87648162D01*
X126422304Y-87638860D01*
X126339253Y-87606966D01*
X126264467Y-87562304D01*
X126200327Y-87506465D01*
X126149214Y-87441036D01*
X126147419Y-87438167D01*
X126114449Y-87378005D01*
X126091862Y-87318180D01*
X126078002Y-87253080D01*
X126071209Y-87177094D01*
X126070277Y-87151764D01*
X126237305Y-87151764D01*
X126242932Y-87205130D01*
X126258458Y-87250402D01*
X126270184Y-87270782D01*
X126311575Y-87322132D01*
X126362158Y-87360921D01*
X126419517Y-87385583D01*
X126481236Y-87394557D01*
X126510768Y-87393229D01*
X126548702Y-87383398D01*
X126574391Y-87363190D01*
X126589536Y-87331617D01*
X126591656Y-87317387D01*
X126593846Y-87286943D01*
X126595695Y-87243809D01*
X126597122Y-87190483D01*
X126598044Y-87129461D01*
X126598378Y-87063240D01*
X126598427Y-86826523D01*
X126578895Y-86830962D01*
X126570802Y-86832773D01*
X126545636Y-86838280D01*
X126516233Y-86844611D01*
X126486827Y-86852141D01*
X126416999Y-86880478D01*
X126354330Y-86920713D01*
X126301970Y-86970567D01*
X126263067Y-87027764D01*
X126255245Y-87045078D01*
X126241451Y-87096386D01*
X126237305Y-87151764D01*
X126070277Y-87151764D01*
X126069736Y-87137080D01*
X126069961Y-87100898D01*
X126072919Y-87070279D01*
X126079276Y-87038888D01*
X126089691Y-87000393D01*
X126099108Y-86970082D01*
X126135972Y-86882991D01*
X126185793Y-86804627D01*
X126250742Y-86731365D01*
X126270349Y-86712703D01*
X126344627Y-86652915D01*
X126423170Y-86607479D01*
X126509491Y-86574630D01*
X126598427Y-86554564D01*
X126607108Y-86552605D01*
X126700859Y-86541920D01*
G37*
G36*
X122694582Y-60425654D02*
G01*
X122732055Y-60431981D01*
X122760669Y-60441063D01*
X122798762Y-60464048D01*
X122832331Y-60497489D01*
X122856832Y-60538169D01*
X122870858Y-60584256D01*
X122872265Y-60594045D01*
X122873441Y-60633970D01*
X122868546Y-60674214D01*
X122858182Y-60708858D01*
X122843797Y-60734615D01*
X122817539Y-60766392D01*
X122786013Y-60793370D01*
X122753035Y-60811811D01*
X122742799Y-60815674D01*
X122727735Y-60820143D01*
X122711039Y-60823118D01*
X122689993Y-60824898D01*
X122661881Y-60825784D01*
X122623986Y-60826076D01*
X122610509Y-60826061D01*
X122565476Y-60824988D01*
X122529867Y-60821824D01*
X122501289Y-60815932D01*
X122477350Y-60806676D01*
X122455655Y-60793421D01*
X122433813Y-60775529D01*
X122404796Y-60743192D01*
X122382438Y-60702966D01*
X122369922Y-60659715D01*
X122367733Y-60626771D01*
X122470823Y-60626771D01*
X122470825Y-60627487D01*
X122476568Y-60662170D01*
X122493289Y-60690888D01*
X122520856Y-60713414D01*
X122521891Y-60714015D01*
X122532874Y-60719345D01*
X122545566Y-60722888D01*
X122562662Y-60724989D01*
X122586861Y-60725996D01*
X122620860Y-60726255D01*
X122643778Y-60726048D01*
X122678510Y-60724256D01*
X122704462Y-60720008D01*
X122724017Y-60712564D01*
X122739558Y-60701187D01*
X122753466Y-60685136D01*
X122764316Y-60666176D01*
X122771735Y-60633133D01*
X122767881Y-60596593D01*
X122767820Y-60596355D01*
X122758895Y-60570675D01*
X122745919Y-60551484D01*
X122727248Y-60537962D01*
X122701237Y-60529290D01*
X122666243Y-60524648D01*
X122620622Y-60523217D01*
X122591170Y-60523393D01*
X122566809Y-60524430D01*
X122549081Y-60526778D01*
X122534870Y-60530871D01*
X122521059Y-60537146D01*
X122513788Y-60541209D01*
X122489670Y-60562344D01*
X122475473Y-60590643D01*
X122470823Y-60626771D01*
X122367733Y-60626771D01*
X122366968Y-60615257D01*
X122373294Y-60571414D01*
X122388621Y-60530002D01*
X122412667Y-60492843D01*
X122445152Y-60461754D01*
X122485796Y-60438555D01*
X122491404Y-60436405D01*
X122523000Y-60428502D01*
X122562460Y-60423506D01*
X122606440Y-60421386D01*
X122620622Y-60421614D01*
X122651596Y-60422112D01*
X122694582Y-60425654D01*
G37*
G36*
X122679558Y-61747743D02*
G01*
X122730106Y-61760320D01*
X122774354Y-61780355D01*
X122810062Y-61807283D01*
X122816200Y-61813687D01*
X122840577Y-61846798D01*
X122859771Y-61885084D01*
X122870867Y-61922997D01*
X122874394Y-61946978D01*
X122875908Y-61974670D01*
X122873074Y-61999901D01*
X122865619Y-62028201D01*
X122861538Y-62040013D01*
X122845273Y-62075092D01*
X122824747Y-62107455D01*
X122802882Y-62132257D01*
X122793808Y-62139684D01*
X122786513Y-62140232D01*
X122776459Y-62132257D01*
X122772658Y-62128622D01*
X122759044Y-62114005D01*
X122744782Y-62097038D01*
X122726296Y-62073728D01*
X122743423Y-62051273D01*
X122747027Y-62046332D01*
X122764417Y-62012322D01*
X122771831Y-61976431D01*
X122769672Y-61940967D01*
X122758349Y-61908235D01*
X122738264Y-61880541D01*
X122709825Y-61860192D01*
X122708244Y-61859424D01*
X122691391Y-61852469D01*
X122673822Y-61848301D01*
X122651618Y-61846284D01*
X122620860Y-61845784D01*
X122611915Y-61845823D01*
X122584334Y-61846651D01*
X122564228Y-61849075D01*
X122547631Y-61853785D01*
X122530574Y-61861468D01*
X122505155Y-61878104D01*
X122484800Y-61902968D01*
X122473986Y-61934789D01*
X122472096Y-61974761D01*
X122472829Y-61986017D01*
X122476086Y-62008578D01*
X122482754Y-62026529D01*
X122494636Y-62045527D01*
X122514942Y-62074336D01*
X122496697Y-62097342D01*
X122492039Y-62103083D01*
X122477426Y-62119847D01*
X122465195Y-62132316D01*
X122463144Y-62134160D01*
X122454479Y-62140440D01*
X122447261Y-62139071D01*
X122436254Y-62129551D01*
X122433425Y-62126813D01*
X122408751Y-62096014D01*
X122387886Y-62057930D01*
X122373443Y-62017236D01*
X122370973Y-62007168D01*
X122366847Y-61983509D01*
X122366690Y-61961430D01*
X122370238Y-61934129D01*
X122379047Y-61896008D01*
X122399097Y-61849166D01*
X122428091Y-61810973D01*
X122466168Y-61781298D01*
X122513468Y-61760010D01*
X122570132Y-61746978D01*
X122624952Y-61743187D01*
X122679558Y-61747743D01*
G37*
G36*
X123652364Y-61398295D02*
G01*
X123488261Y-61398305D01*
X123455446Y-61398338D01*
X123411757Y-61398559D01*
X123378000Y-61399070D01*
X123352591Y-61399964D01*
X123333944Y-61401335D01*
X123320474Y-61403277D01*
X123310595Y-61405882D01*
X123302722Y-61409245D01*
X123287290Y-61419153D01*
X123266292Y-61442887D01*
X123254753Y-61471879D01*
X123253525Y-61503401D01*
X123263462Y-61534728D01*
X123276221Y-61559206D01*
X123232346Y-61595301D01*
X123231397Y-61596080D01*
X123209992Y-61613049D01*
X123195879Y-61622490D01*
X123187283Y-61625377D01*
X123182426Y-61622685D01*
X123163579Y-61586657D01*
X123153391Y-61544050D01*
X123153800Y-61500323D01*
X123164756Y-61458140D01*
X123186210Y-61420163D01*
X123202889Y-61398295D01*
X123158492Y-61398295D01*
X123158492Y-61298271D01*
X123652364Y-61298271D01*
X123652364Y-61398295D01*
G37*
G36*
X122870921Y-59371890D02*
G01*
X122703693Y-59373906D01*
X122667193Y-59374361D01*
X122624886Y-59374999D01*
X122592355Y-59375755D01*
X122568000Y-59376768D01*
X122550222Y-59378179D01*
X122537420Y-59380127D01*
X122527994Y-59382752D01*
X122520343Y-59386193D01*
X122512869Y-59390592D01*
X122508537Y-59393404D01*
X122486786Y-59413657D01*
X122474614Y-59439441D01*
X122470823Y-59473109D01*
X122474765Y-59505501D01*
X122487841Y-59531871D01*
X122510742Y-59551681D01*
X122517182Y-59555038D01*
X122525755Y-59557933D01*
X122537551Y-59560209D01*
X122554116Y-59561989D01*
X122576997Y-59563394D01*
X122607741Y-59564549D01*
X122647895Y-59565575D01*
X122699004Y-59566595D01*
X122867796Y-59569720D01*
X122869619Y-59621787D01*
X122871443Y-59673853D01*
X122685199Y-59671799D01*
X122682587Y-59671770D01*
X122629735Y-59671146D01*
X122587759Y-59670497D01*
X122555104Y-59669704D01*
X122530211Y-59668651D01*
X122511524Y-59667218D01*
X122497486Y-59665289D01*
X122486541Y-59662745D01*
X122477130Y-59659470D01*
X122467697Y-59655344D01*
X122435025Y-59636806D01*
X122407184Y-59610855D01*
X122384819Y-59575972D01*
X122381112Y-59568102D01*
X122370882Y-59532442D01*
X122368572Y-59494247D01*
X122373800Y-59456838D01*
X122386183Y-59423534D01*
X122405339Y-59397655D01*
X122414500Y-59388349D01*
X122419696Y-59378851D01*
X122413629Y-59374096D01*
X122395804Y-59372797D01*
X122370798Y-59372797D01*
X122370798Y-59272772D01*
X122870921Y-59272772D01*
X122870921Y-59371890D01*
G37*
G36*
X120515380Y-58353797D02*
G01*
X120576530Y-58353837D01*
X120626474Y-58353979D01*
X120666368Y-58354272D01*
X120697366Y-58354766D01*
X120720623Y-58355511D01*
X120737295Y-58356556D01*
X120748537Y-58357952D01*
X120755504Y-58359747D01*
X120759351Y-58361992D01*
X120761233Y-58364736D01*
X120763385Y-58373039D01*
X120767547Y-58392235D01*
X120773416Y-58420843D01*
X120780702Y-58457411D01*
X120789116Y-58500488D01*
X120798369Y-58548623D01*
X120808173Y-58600366D01*
X120813726Y-58629755D01*
X120824767Y-58687136D01*
X120834034Y-58733523D01*
X120841736Y-58769839D01*
X120848085Y-58797007D01*
X120853289Y-58815950D01*
X120857560Y-58827591D01*
X120861108Y-58832853D01*
X120862600Y-58833744D01*
X120874358Y-58839317D01*
X120895708Y-58848638D01*
X120925110Y-58861062D01*
X120961027Y-58875942D01*
X121001920Y-58892635D01*
X121046250Y-58910495D01*
X121086008Y-58926286D01*
X121136836Y-58945969D01*
X121176990Y-58960786D01*
X121206911Y-58970889D01*
X121227039Y-58976435D01*
X121237813Y-58977576D01*
X121245173Y-58974348D01*
X121262078Y-58964653D01*
X121286802Y-58949351D01*
X121318050Y-58929274D01*
X121354529Y-58905256D01*
X121394944Y-58878129D01*
X121438001Y-58848726D01*
X121476495Y-58822383D01*
X121516662Y-58795266D01*
X121552781Y-58771271D01*
X121583609Y-58751204D01*
X121607907Y-58735871D01*
X121624434Y-58726080D01*
X121631948Y-58722637D01*
X121632879Y-58722934D01*
X121641668Y-58729386D01*
X121657950Y-58743549D01*
X121680715Y-58764468D01*
X121708948Y-58791186D01*
X121741639Y-58822750D01*
X121777775Y-58858205D01*
X121816343Y-58896595D01*
X121844412Y-58924776D01*
X121884395Y-58965169D01*
X121916566Y-58998090D01*
X121941638Y-59024321D01*
X121960324Y-59044647D01*
X121973336Y-59059852D01*
X121981387Y-59070720D01*
X121985190Y-59078034D01*
X121985458Y-59082578D01*
X121982169Y-59088464D01*
X121972400Y-59103918D01*
X121957073Y-59127333D01*
X121937033Y-59157443D01*
X121913125Y-59192980D01*
X121886193Y-59232677D01*
X121857082Y-59275267D01*
X121832526Y-59311302D01*
X121805542Y-59351503D01*
X121781644Y-59387761D01*
X121761642Y-59418813D01*
X121746350Y-59443396D01*
X121736579Y-59460246D01*
X121733141Y-59468100D01*
X121733687Y-59471031D01*
X121738812Y-59484659D01*
X121748468Y-59505967D01*
X121761594Y-59532676D01*
X121777128Y-59562504D01*
X121784123Y-59575773D01*
X121798502Y-59604394D01*
X121809838Y-59628850D01*
X121817117Y-59646888D01*
X121819325Y-59656256D01*
X121818138Y-59658152D01*
X121811986Y-59662712D01*
X121800039Y-59669383D01*
X121781651Y-59678450D01*
X121756179Y-59690197D01*
X121722977Y-59704907D01*
X121681400Y-59722866D01*
X121630804Y-59744357D01*
X121570543Y-59769664D01*
X121499973Y-59799071D01*
X121418449Y-59832862D01*
X121375880Y-59850443D01*
X121310673Y-59877260D01*
X121249273Y-59902376D01*
X121192647Y-59925403D01*
X121141760Y-59945953D01*
X121097580Y-59963637D01*
X121061075Y-59978067D01*
X121033210Y-59988855D01*
X121014954Y-59995612D01*
X121007273Y-59997951D01*
X121004090Y-59997398D01*
X120991750Y-59988766D01*
X120978067Y-59971382D01*
X120975721Y-59967788D01*
X120962425Y-59948222D01*
X120945478Y-59924114D01*
X120927960Y-59899860D01*
X120898131Y-59862829D01*
X120841696Y-59807853D01*
X120778520Y-59762528D01*
X120709825Y-59727328D01*
X120636831Y-59702726D01*
X120560763Y-59689194D01*
X120482841Y-59687205D01*
X120404288Y-59697233D01*
X120383870Y-59701907D01*
X120310745Y-59726525D01*
X120242523Y-59761850D01*
X120180286Y-59806869D01*
X120125119Y-59860567D01*
X120078104Y-59921930D01*
X120040327Y-59989943D01*
X120012870Y-60063592D01*
X120007961Y-60083475D01*
X120000619Y-60132236D01*
X119997439Y-60186444D01*
X119998421Y-60241790D01*
X120003565Y-60293965D01*
X120012870Y-60338660D01*
X120028173Y-60384639D01*
X120057533Y-60447487D01*
X120095993Y-60505189D01*
X120145248Y-60560589D01*
X120153386Y-60568644D01*
X120193485Y-60605393D01*
X120231186Y-60634112D01*
X120269811Y-60657103D01*
X120312684Y-60676669D01*
X120378314Y-60698391D01*
X120455516Y-60712458D01*
X120532636Y-60714842D01*
X120608501Y-60705874D01*
X120681939Y-60685886D01*
X120751777Y-60655213D01*
X120816842Y-60614184D01*
X120875961Y-60563133D01*
X120927960Y-60502392D01*
X120932131Y-60496684D01*
X120949793Y-60472060D01*
X120966132Y-60448656D01*
X120978067Y-60430870D01*
X120982321Y-60424657D01*
X120995847Y-60409759D01*
X121007273Y-60404301D01*
X121010824Y-60405237D01*
X121025276Y-60410403D01*
X121049694Y-60419743D01*
X121083111Y-60432869D01*
X121124561Y-60449393D01*
X121173076Y-60468927D01*
X121227689Y-60491081D01*
X121287434Y-60515469D01*
X121351343Y-60541701D01*
X121418449Y-60569390D01*
X121470472Y-60590935D01*
X121545107Y-60621967D01*
X121609190Y-60648790D01*
X121663365Y-60671691D01*
X121708276Y-60690951D01*
X121744569Y-60706857D01*
X121772888Y-60719691D01*
X121793879Y-60729738D01*
X121808185Y-60737281D01*
X121816452Y-60742606D01*
X121819325Y-60745996D01*
X121819047Y-60748887D01*
X121814494Y-60762329D01*
X121805313Y-60783454D01*
X121792520Y-60810011D01*
X121777128Y-60839747D01*
X121770219Y-60852814D01*
X121755591Y-60881579D01*
X121743827Y-60906245D01*
X121735990Y-60924529D01*
X121733141Y-60934152D01*
X121735601Y-60940149D01*
X121744434Y-60955673D01*
X121758915Y-60979128D01*
X121778232Y-61009250D01*
X121801574Y-61044776D01*
X121828128Y-61084442D01*
X121857082Y-61126985D01*
X121881514Y-61162708D01*
X121908865Y-61202970D01*
X121933330Y-61239281D01*
X121954066Y-61270375D01*
X121970229Y-61294983D01*
X121980975Y-61311838D01*
X121985458Y-61319673D01*
X121985681Y-61322115D01*
X121983376Y-61328229D01*
X121977106Y-61337583D01*
X121966161Y-61350962D01*
X121949827Y-61369149D01*
X121927390Y-61392928D01*
X121898140Y-61423083D01*
X121861362Y-61460398D01*
X121816343Y-61505656D01*
X121806165Y-61515840D01*
X121768130Y-61553561D01*
X121732790Y-61588098D01*
X121701158Y-61618498D01*
X121674246Y-61643804D01*
X121653065Y-61663062D01*
X121638628Y-61675317D01*
X121631948Y-61679615D01*
X121625635Y-61676828D01*
X121609972Y-61667648D01*
X121586411Y-61652844D01*
X121556192Y-61633223D01*
X121520557Y-61609592D01*
X121480746Y-61582757D01*
X121438001Y-61553526D01*
X121400226Y-61527704D01*
X121359409Y-61500245D01*
X121322366Y-61475791D01*
X121290391Y-61455175D01*
X121264777Y-61439228D01*
X121246820Y-61428784D01*
X121237813Y-61424675D01*
X121231701Y-61424947D01*
X121214780Y-61428988D01*
X121188215Y-61437535D01*
X121151565Y-61450743D01*
X121104390Y-61468766D01*
X121046250Y-61491757D01*
X121031684Y-61497600D01*
X120988294Y-61515154D01*
X120948836Y-61531333D01*
X120914850Y-61545493D01*
X120887875Y-61556987D01*
X120869448Y-61565171D01*
X120861108Y-61569399D01*
X120859601Y-61571017D01*
X120855757Y-61579011D01*
X120851095Y-61593796D01*
X120845406Y-61616294D01*
X120838480Y-61647429D01*
X120830106Y-61688124D01*
X120820073Y-61739302D01*
X120808173Y-61801886D01*
X120798496Y-61852964D01*
X120789233Y-61901156D01*
X120780806Y-61944310D01*
X120773504Y-61980973D01*
X120767615Y-62009696D01*
X120763428Y-62029027D01*
X120761233Y-62037515D01*
X120761069Y-62037881D01*
X120759007Y-62040561D01*
X120754839Y-62042748D01*
X120747409Y-62044492D01*
X120735563Y-62045842D01*
X120718144Y-62046848D01*
X120693997Y-62047559D01*
X120661969Y-62048026D01*
X120620903Y-62048298D01*
X120569644Y-62048424D01*
X120507037Y-62048455D01*
X120257510Y-62048455D01*
X120251600Y-62034389D01*
X120249378Y-62026209D01*
X120245099Y-62006892D01*
X120239158Y-61978144D01*
X120231851Y-61941453D01*
X120223474Y-61898311D01*
X120214325Y-61850208D01*
X120204699Y-61798633D01*
X120195689Y-61750676D01*
X120186311Y-61702392D01*
X120177570Y-61659017D01*
X120169780Y-61622031D01*
X120163253Y-61592912D01*
X120158301Y-61573142D01*
X120155235Y-61564200D01*
X120151343Y-61560960D01*
X120136900Y-61552636D01*
X120113799Y-61540962D01*
X120083833Y-61526714D01*
X120048794Y-61510669D01*
X120010476Y-61493604D01*
X119970672Y-61476294D01*
X119931174Y-61459517D01*
X119893776Y-61444049D01*
X119860271Y-61430667D01*
X119832451Y-61420147D01*
X119812109Y-61413265D01*
X119801039Y-61410798D01*
X119800674Y-61410815D01*
X119789809Y-61415018D01*
X119769026Y-61426595D01*
X119738440Y-61445476D01*
X119698165Y-61471586D01*
X119648317Y-61504854D01*
X119589009Y-61545207D01*
X119583138Y-61549227D01*
X119539082Y-61579147D01*
X119498031Y-61606600D01*
X119461195Y-61630809D01*
X119429784Y-61650993D01*
X119405008Y-61666375D01*
X119388076Y-61676175D01*
X119380199Y-61679615D01*
X119375539Y-61677040D01*
X119362664Y-61666659D01*
X119343176Y-61649411D01*
X119318271Y-61626472D01*
X119289147Y-61599015D01*
X119256999Y-61568218D01*
X119223023Y-61535254D01*
X119188415Y-61501298D01*
X119154373Y-61467527D01*
X119122092Y-61435115D01*
X119092767Y-61405237D01*
X119067596Y-61379068D01*
X119047775Y-61357784D01*
X119034500Y-61342560D01*
X119028967Y-61334570D01*
X119028499Y-61333120D01*
X119027597Y-61329639D01*
X119027616Y-61325709D01*
X119029169Y-61320342D01*
X119032870Y-61312552D01*
X119039336Y-61301353D01*
X119049181Y-61285759D01*
X119063019Y-61264782D01*
X119081465Y-61237437D01*
X119105134Y-61202738D01*
X119134641Y-61159697D01*
X119170601Y-61107329D01*
X119191294Y-61077103D01*
X119226517Y-61025064D01*
X119254719Y-60982477D01*
X119276158Y-60948931D01*
X119291093Y-60924018D01*
X119299783Y-60907327D01*
X119302485Y-60898449D01*
X119301981Y-60895546D01*
X119297611Y-60881374D01*
X119289387Y-60858463D01*
X119278071Y-60828669D01*
X119264422Y-60793846D01*
X119249200Y-60755848D01*
X119233166Y-60716530D01*
X119217079Y-60677746D01*
X119201700Y-60641352D01*
X119187788Y-60609202D01*
X119176103Y-60583149D01*
X119167406Y-60565050D01*
X119162457Y-60556759D01*
X119161946Y-60556407D01*
X119152161Y-60553165D01*
X119131705Y-60548050D01*
X119101968Y-60541355D01*
X119064339Y-60533379D01*
X119020209Y-60524416D01*
X118970967Y-60514763D01*
X118918004Y-60504715D01*
X118909196Y-60503068D01*
X118856520Y-60493095D01*
X118807621Y-60483633D01*
X118763921Y-60474971D01*
X118726839Y-60467398D01*
X118697795Y-60461204D01*
X118678210Y-60456678D01*
X118669505Y-60454108D01*
X118668010Y-60453235D01*
X118665228Y-60450686D01*
X118662980Y-60446246D01*
X118661207Y-60438734D01*
X118659854Y-60426972D01*
X118658864Y-60409781D01*
X118658181Y-60385982D01*
X118657748Y-60354396D01*
X118657508Y-60313844D01*
X118657406Y-60263147D01*
X118657385Y-60201126D01*
X118657388Y-60168631D01*
X118657442Y-60112430D01*
X118657603Y-60066962D01*
X118657928Y-60031048D01*
X118658476Y-60003510D01*
X118659302Y-59983166D01*
X118660464Y-59968837D01*
X118662019Y-59959345D01*
X118664024Y-59953509D01*
X118666535Y-59950149D01*
X118669610Y-59948087D01*
X118670217Y-59947818D01*
X118680783Y-59944906D01*
X118702002Y-59940091D01*
X118732450Y-59933659D01*
X118770706Y-59925901D01*
X118815349Y-59917106D01*
X118864957Y-59907562D01*
X118918108Y-59897559D01*
X118927436Y-59895818D01*
X118979856Y-59885836D01*
X119028320Y-59876288D01*
X119071436Y-59867470D01*
X119107812Y-59859680D01*
X119136058Y-59853213D01*
X119154782Y-59848367D01*
X119162591Y-59845437D01*
X119164118Y-59843342D01*
X119170716Y-59830773D01*
X119180748Y-59809153D01*
X119193451Y-59780340D01*
X119208066Y-59746190D01*
X119223832Y-59708561D01*
X119239987Y-59669311D01*
X119255772Y-59630298D01*
X119270425Y-59593379D01*
X119283186Y-59560412D01*
X119293293Y-59533254D01*
X119299986Y-59513764D01*
X119302505Y-59503797D01*
X119301922Y-59500440D01*
X119296311Y-59487772D01*
X119284554Y-59467052D01*
X119266396Y-59437878D01*
X119241582Y-59399848D01*
X119209858Y-59352558D01*
X119170970Y-59295606D01*
X119159042Y-59278252D01*
X119125091Y-59228830D01*
X119097409Y-59188424D01*
X119075381Y-59156047D01*
X119058393Y-59130712D01*
X119045831Y-59111434D01*
X119037079Y-59097224D01*
X119031523Y-59087096D01*
X119028549Y-59080065D01*
X119027541Y-59075143D01*
X119027885Y-59071344D01*
X119028967Y-59067682D01*
X119032512Y-59062196D01*
X119044125Y-59048520D01*
X119062557Y-59028516D01*
X119086611Y-59003359D01*
X119115093Y-58974224D01*
X119146804Y-58942287D01*
X119180550Y-58908722D01*
X119215134Y-58874706D01*
X119249359Y-58841412D01*
X119282030Y-58810016D01*
X119311950Y-58781693D01*
X119337924Y-58757619D01*
X119358754Y-58738968D01*
X119373244Y-58726916D01*
X119380199Y-58722637D01*
X119380667Y-58722697D01*
X119389787Y-58727005D01*
X119407805Y-58737573D01*
X119433510Y-58753622D01*
X119465693Y-58774372D01*
X119503143Y-58799045D01*
X119544652Y-58826863D01*
X119589009Y-58857045D01*
X119593208Y-58859922D01*
X119651896Y-58899810D01*
X119701116Y-58932608D01*
X119740756Y-58958244D01*
X119770699Y-58976645D01*
X119790831Y-58987739D01*
X119801039Y-58991453D01*
X119807070Y-58990397D01*
X119824357Y-58984978D01*
X119849753Y-58975648D01*
X119881465Y-58963183D01*
X119917699Y-58948360D01*
X119956663Y-58931955D01*
X119996564Y-58914744D01*
X120035609Y-58897504D01*
X120072004Y-58881012D01*
X120103958Y-58866044D01*
X120129676Y-58853377D01*
X120147366Y-58843787D01*
X120155235Y-58838051D01*
X120158017Y-58830119D01*
X120162846Y-58811070D01*
X120169271Y-58782567D01*
X120176982Y-58746090D01*
X120185665Y-58703120D01*
X120195008Y-58655136D01*
X120204699Y-58603618D01*
X120213626Y-58555759D01*
X120222820Y-58507347D01*
X120231264Y-58463787D01*
X120238660Y-58426568D01*
X120244713Y-58397181D01*
X120249125Y-58377116D01*
X120251600Y-58367862D01*
X120257510Y-58353796D01*
X120507037Y-58353796D01*
X120515380Y-58353797D01*
G37*
G36*
X123652364Y-58415566D02*
G01*
X123485135Y-58417502D01*
X123455512Y-58417855D01*
X123411597Y-58418481D01*
X123377697Y-58419217D01*
X123352222Y-58420195D01*
X123333577Y-58421549D01*
X123320172Y-58423413D01*
X123310412Y-58425920D01*
X123302706Y-58429203D01*
X123295461Y-58433397D01*
X123294494Y-58434008D01*
X123272799Y-58454851D01*
X123258771Y-58482488D01*
X123253062Y-58513479D01*
X123256325Y-58544380D01*
X123269214Y-58571751D01*
X123277294Y-58582018D01*
X123286344Y-58590756D01*
X123297322Y-58597472D01*
X123311738Y-58602429D01*
X123331103Y-58605893D01*
X123356927Y-58608127D01*
X123390721Y-58609397D01*
X123433995Y-58609966D01*
X123488261Y-58610100D01*
X123652364Y-58610109D01*
X123652364Y-58710646D01*
X123460129Y-58708827D01*
X123449827Y-58708729D01*
X123394085Y-58708129D01*
X123349100Y-58707314D01*
X123313373Y-58706002D01*
X123285404Y-58703912D01*
X123263694Y-58700760D01*
X123246744Y-58696265D01*
X123233054Y-58690145D01*
X123221126Y-58682116D01*
X123209460Y-58671897D01*
X123196557Y-58659206D01*
X123183508Y-58644044D01*
X123163927Y-58608329D01*
X123153566Y-58568208D01*
X123152657Y-58526609D01*
X123161430Y-58486462D01*
X123180116Y-58450695D01*
X123181586Y-58448666D01*
X123191746Y-58434225D01*
X123198376Y-58424126D01*
X123198602Y-58423299D01*
X123195698Y-58421180D01*
X123186631Y-58419508D01*
X123170346Y-58418239D01*
X123145785Y-58417329D01*
X123111893Y-58416734D01*
X123067612Y-58416410D01*
X123011886Y-58416312D01*
X122820781Y-58416312D01*
X122842443Y-58449132D01*
X122851433Y-58464338D01*
X122863327Y-58489560D01*
X122870693Y-58511771D01*
X122874451Y-58542806D01*
X122869887Y-58584864D01*
X122854972Y-58623758D01*
X122830870Y-58657496D01*
X122798746Y-58684086D01*
X122759763Y-58701536D01*
X122756742Y-58702348D01*
X122732146Y-58706505D01*
X122698661Y-58709441D01*
X122659333Y-58711156D01*
X122617209Y-58711651D01*
X122575334Y-58710928D01*
X122536754Y-58708986D01*
X122504517Y-58705827D01*
X122481668Y-58701452D01*
X122462939Y-58694756D01*
X122427125Y-58673352D01*
X122399222Y-58644270D01*
X122379821Y-58609328D01*
X122369514Y-58570346D01*
X122368892Y-58529145D01*
X122369589Y-58526142D01*
X122471596Y-58526142D01*
X122477064Y-58556605D01*
X122490914Y-58579298D01*
X122513828Y-58595714D01*
X122525489Y-58600425D01*
X122539916Y-58603669D01*
X122559514Y-58605677D01*
X122586724Y-58606699D01*
X122623986Y-58606984D01*
X122662380Y-58606502D01*
X122694556Y-58604518D01*
X122718193Y-58600468D01*
X122735347Y-58593790D01*
X122748073Y-58583924D01*
X122758429Y-58570309D01*
X122766480Y-58553244D01*
X122772127Y-58523777D01*
X122770293Y-58493349D01*
X122761372Y-58465881D01*
X122745764Y-58445296D01*
X122737379Y-58439301D01*
X122709046Y-58427033D01*
X122673414Y-58419243D01*
X122633623Y-58415912D01*
X122592815Y-58417021D01*
X122554130Y-58422551D01*
X122520709Y-58432484D01*
X122495694Y-58446800D01*
X122485959Y-58455655D01*
X122478372Y-58466522D01*
X122474336Y-58481125D01*
X122472032Y-58503847D01*
X122471596Y-58526142D01*
X122369589Y-58526142D01*
X122378547Y-58487543D01*
X122399070Y-58447362D01*
X122419965Y-58416312D01*
X122370798Y-58416312D01*
X122370798Y-58316287D01*
X123652364Y-58316287D01*
X123652364Y-58415566D01*
G37*
G36*
X122678644Y-57824611D02*
G01*
X122722692Y-57831113D01*
X122759065Y-57842568D01*
X122789840Y-57859617D01*
X122817091Y-57882899D01*
X122831032Y-57898457D01*
X122856863Y-57939470D01*
X122871036Y-57984458D01*
X122873788Y-58019686D01*
X122871121Y-58060255D01*
X122863277Y-58097483D01*
X122852783Y-58123070D01*
X122827732Y-58160097D01*
X122794289Y-58191178D01*
X122754896Y-58213695D01*
X122741802Y-58218041D01*
X122710798Y-58224031D01*
X122672595Y-58227834D01*
X122630443Y-58229445D01*
X122587595Y-58228863D01*
X122547300Y-58226084D01*
X122512811Y-58221106D01*
X122487377Y-58213926D01*
X122467878Y-58204497D01*
X122430228Y-58177243D01*
X122400967Y-58142871D01*
X122380456Y-58103176D01*
X122369056Y-58059955D01*
X122368199Y-58039961D01*
X122470361Y-58039961D01*
X122478271Y-58069431D01*
X122495171Y-58095162D01*
X122521059Y-58114675D01*
X122533271Y-58120328D01*
X122547273Y-58124657D01*
X122564421Y-58127189D01*
X122587832Y-58128359D01*
X122620622Y-58128604D01*
X122649827Y-58127991D01*
X122689015Y-58124390D01*
X122718494Y-58117182D01*
X122739791Y-58105929D01*
X122754431Y-58090193D01*
X122754454Y-58090158D01*
X122767496Y-58060301D01*
X122771697Y-58027090D01*
X122767083Y-57994617D01*
X122753678Y-57966969D01*
X122746094Y-57957509D01*
X122731574Y-57944023D01*
X122714180Y-57934830D01*
X122691524Y-57929187D01*
X122661214Y-57926347D01*
X122620860Y-57925566D01*
X122617198Y-57925568D01*
X122584228Y-57925882D01*
X122560807Y-57926976D01*
X122544236Y-57929198D01*
X122531818Y-57932893D01*
X122520856Y-57938407D01*
X122500609Y-57953882D01*
X122481528Y-57979709D01*
X122471446Y-58009228D01*
X122470361Y-58039961D01*
X122368199Y-58039961D01*
X122367129Y-58015003D01*
X122375034Y-57970116D01*
X122393134Y-57927089D01*
X122421789Y-57887719D01*
X122430975Y-57878248D01*
X122457849Y-57856249D01*
X122488103Y-57840378D01*
X122523908Y-57829924D01*
X122567437Y-57824174D01*
X122620860Y-57822416D01*
X122624846Y-57822424D01*
X122678644Y-57824611D01*
G37*
G36*
X123495442Y-59632886D02*
G01*
X123517143Y-59633897D01*
X123533095Y-59635615D01*
X123545291Y-59638223D01*
X123555724Y-59641907D01*
X123566388Y-59646851D01*
X123573791Y-59650805D01*
X123605005Y-59674302D01*
X123631135Y-59704657D01*
X123648505Y-59737795D01*
X123650243Y-59743202D01*
X123655683Y-59768154D01*
X123658122Y-59792978D01*
X123657651Y-59804487D01*
X123652859Y-59832078D01*
X123644148Y-59860305D01*
X123633019Y-59884795D01*
X123620975Y-59901171D01*
X123616290Y-59905648D01*
X123609470Y-59915775D01*
X123614086Y-59921274D01*
X123630483Y-59922932D01*
X123652364Y-59922932D01*
X123652364Y-60022957D01*
X122951665Y-60022957D01*
X122953491Y-59974508D01*
X122955317Y-59926058D01*
X123078785Y-59924363D01*
X123085201Y-59924268D01*
X123122317Y-59923420D01*
X123154464Y-59922193D01*
X123179758Y-59920695D01*
X123196315Y-59919033D01*
X123202253Y-59917314D01*
X123200273Y-59912540D01*
X123191881Y-59903380D01*
X123188796Y-59900526D01*
X123175342Y-59881405D01*
X123163674Y-59855133D01*
X123157874Y-59834662D01*
X123252486Y-59834662D01*
X123259665Y-59863259D01*
X123275231Y-59888249D01*
X123299152Y-59906875D01*
X123300958Y-59907794D01*
X123313206Y-59913003D01*
X123327052Y-59916476D01*
X123345222Y-59918547D01*
X123370439Y-59919546D01*
X123405428Y-59919805D01*
X123407233Y-59919804D01*
X123449573Y-59918976D01*
X123481550Y-59916121D01*
X123505164Y-59910537D01*
X123522413Y-59901519D01*
X123535296Y-59888363D01*
X123545811Y-59870365D01*
X123553832Y-59850004D01*
X123557449Y-59819227D01*
X123550097Y-59786451D01*
X123547566Y-59780281D01*
X123532740Y-59759431D01*
X123509685Y-59744300D01*
X123477552Y-59734603D01*
X123435486Y-59730056D01*
X123382638Y-59730372D01*
X123347000Y-59732862D01*
X123316902Y-59737445D01*
X123297312Y-59744028D01*
X123281578Y-59754776D01*
X123263411Y-59777665D01*
X123253724Y-59805212D01*
X123252486Y-59834662D01*
X123157874Y-59834662D01*
X123155443Y-59826083D01*
X123152302Y-59798627D01*
X123152433Y-59789283D01*
X123157481Y-59750105D01*
X123170925Y-59716730D01*
X123194230Y-59685188D01*
X123209443Y-59669274D01*
X123224465Y-59656704D01*
X123240877Y-59647322D01*
X123260528Y-59640671D01*
X123285270Y-59636295D01*
X123316955Y-59633735D01*
X123357432Y-59632534D01*
X123408554Y-59632236D01*
X123426820Y-59632244D01*
X123435486Y-59632278D01*
X123465999Y-59632396D01*
X123495442Y-59632886D01*
G37*
G36*
X123565519Y-60798896D02*
G01*
X123599522Y-60819830D01*
X123627309Y-60850546D01*
X123647415Y-60890277D01*
X123647592Y-60890775D01*
X123654670Y-60921050D01*
X123657914Y-60957335D01*
X123657122Y-60993789D01*
X123652088Y-61024572D01*
X123651657Y-61026052D01*
X123642380Y-61047426D01*
X123629687Y-61066770D01*
X123613743Y-61085718D01*
X123652364Y-61085718D01*
X123652364Y-61185743D01*
X123466380Y-61185708D01*
X123431627Y-61185618D01*
X123377609Y-61185087D01*
X123331939Y-61184110D01*
X123295654Y-61182719D01*
X123269792Y-61180948D01*
X123255391Y-61178832D01*
X123251610Y-61177686D01*
X123223853Y-61162895D01*
X123198037Y-61138988D01*
X123176802Y-61108910D01*
X123162788Y-61075603D01*
X123158206Y-61055099D01*
X123153574Y-61015431D01*
X123152642Y-60972894D01*
X123155434Y-60932419D01*
X123161971Y-60898934D01*
X123163500Y-60894323D01*
X123172593Y-60874592D01*
X123185137Y-60853931D01*
X123198921Y-60835395D01*
X123211735Y-60822034D01*
X123221369Y-60816902D01*
X123221840Y-60817007D01*
X123228775Y-60822878D01*
X123240545Y-60835957D01*
X123254889Y-60853759D01*
X123259106Y-60859263D01*
X123271615Y-60876425D01*
X123277431Y-60887094D01*
X123277568Y-60893803D01*
X123273041Y-60899083D01*
X123263698Y-60909791D01*
X123252890Y-60934017D01*
X123246970Y-60964142D01*
X123245950Y-60996722D01*
X123249843Y-61028317D01*
X123258661Y-61055483D01*
X123272416Y-61074778D01*
X123276986Y-61078080D01*
X123294354Y-61083906D01*
X123321151Y-61085718D01*
X123357395Y-61085718D01*
X123446063Y-61085718D01*
X123476914Y-61085718D01*
X123479370Y-61085708D01*
X123511220Y-61082746D01*
X123533765Y-61074007D01*
X123549041Y-61058727D01*
X123549552Y-61057897D01*
X123555004Y-61042592D01*
X123559400Y-61019737D01*
X123562227Y-60993875D01*
X123562973Y-60969551D01*
X123561129Y-60951310D01*
X123558948Y-60942019D01*
X123555062Y-60924582D01*
X123546436Y-60905430D01*
X123528406Y-60890943D01*
X123503890Y-60885868D01*
X123498813Y-60885994D01*
X123479719Y-60888887D01*
X123465699Y-60896704D01*
X123456037Y-60910942D01*
X123450020Y-60933100D01*
X123446933Y-60964674D01*
X123446063Y-61007163D01*
X123446063Y-61085718D01*
X123357395Y-61085718D01*
X123359639Y-60993508D01*
X123359901Y-60983272D01*
X123361178Y-60947625D01*
X123362992Y-60921330D01*
X123365665Y-60901849D01*
X123369518Y-60886641D01*
X123374873Y-60873166D01*
X123396461Y-60838470D01*
X123426661Y-60811204D01*
X123463731Y-60794160D01*
X123484733Y-60789442D01*
X123503890Y-60789018D01*
X123526767Y-60788511D01*
X123565519Y-60798896D01*
G37*
G36*
X122558344Y-60913833D02*
G01*
X122564771Y-60913835D01*
X122616487Y-60913886D01*
X122657436Y-60914080D01*
X122689183Y-60914523D01*
X122713292Y-60915318D01*
X122731328Y-60916569D01*
X122744855Y-60918383D01*
X122755436Y-60920862D01*
X122764638Y-60924111D01*
X122774022Y-60928235D01*
X122791573Y-60937395D01*
X122827845Y-60965647D01*
X122854638Y-61001802D01*
X122871307Y-61045083D01*
X122873289Y-61054687D01*
X122874291Y-61096322D01*
X122863917Y-61138748D01*
X122842650Y-61179699D01*
X122821754Y-61210749D01*
X122870921Y-61210749D01*
X122870921Y-61310774D01*
X122370798Y-61310774D01*
X122370798Y-61210749D01*
X122532014Y-61210749D01*
X122553468Y-61210744D01*
X122598131Y-61210644D01*
X122632655Y-61210321D01*
X122658721Y-61209649D01*
X122678008Y-61208504D01*
X122692197Y-61206759D01*
X122702969Y-61204291D01*
X122712003Y-61200974D01*
X122720980Y-61196683D01*
X122729387Y-61192032D01*
X122753627Y-61171314D01*
X122767554Y-61144195D01*
X122771845Y-61109515D01*
X122771738Y-61104631D01*
X122767097Y-61076753D01*
X122754186Y-61054121D01*
X122730994Y-61032967D01*
X122727993Y-61030831D01*
X122721882Y-61027445D01*
X122713918Y-61024814D01*
X122702580Y-61022819D01*
X122686346Y-61021342D01*
X122663694Y-61020263D01*
X122633104Y-61019463D01*
X122593054Y-61018826D01*
X122542023Y-61018230D01*
X122370302Y-61016384D01*
X122372113Y-60965092D01*
X122373924Y-60913801D01*
X122558344Y-60913833D01*
G37*
G36*
X123162205Y-60079252D02*
G01*
X123169929Y-60081528D01*
X123187824Y-60087056D01*
X123214349Y-60095348D01*
X123247962Y-60105914D01*
X123287123Y-60118265D01*
X123330290Y-60131913D01*
X123375923Y-60146369D01*
X123422480Y-60161143D01*
X123468421Y-60175747D01*
X123512204Y-60189692D01*
X123552289Y-60202488D01*
X123587135Y-60213648D01*
X123615200Y-60222681D01*
X123634944Y-60229099D01*
X123644825Y-60232413D01*
X123645237Y-60232583D01*
X123649492Y-60239095D01*
X123651366Y-60254579D01*
X123651076Y-60280726D01*
X123649238Y-60326123D01*
X123482291Y-60375643D01*
X123476166Y-60377463D01*
X123433454Y-60390337D01*
X123395276Y-60402155D01*
X123363128Y-60412431D01*
X123338504Y-60420679D01*
X123322899Y-60426412D01*
X123317806Y-60429145D01*
X123317938Y-60429274D01*
X123325492Y-60432366D01*
X123343325Y-60438436D01*
X123369880Y-60446992D01*
X123403601Y-60457537D01*
X123442932Y-60469580D01*
X123486315Y-60482625D01*
X123652364Y-60532124D01*
X123652364Y-60622272D01*
X123525770Y-60662824D01*
X123488180Y-60674855D01*
X123435832Y-60691585D01*
X123381767Y-60708840D01*
X123330526Y-60725173D01*
X123286649Y-60739133D01*
X123286288Y-60739248D01*
X123250513Y-60750638D01*
X123218618Y-60760836D01*
X123192612Y-60769194D01*
X123174505Y-60775068D01*
X123166306Y-60777810D01*
X123163595Y-60777557D01*
X123160595Y-60770722D01*
X123158977Y-60754597D01*
X123158492Y-60727593D01*
X123158495Y-60725263D01*
X123159390Y-60696142D01*
X123161953Y-60678500D01*
X123166306Y-60671463D01*
X123172707Y-60669522D01*
X123189867Y-60664664D01*
X123215913Y-60657434D01*
X123249149Y-60648300D01*
X123287880Y-60637730D01*
X123330409Y-60626192D01*
X123368260Y-60615867D01*
X123407124Y-60605070D01*
X123440524Y-60595581D01*
X123466806Y-60587879D01*
X123484314Y-60582441D01*
X123491395Y-60579744D01*
X123491400Y-60579434D01*
X123484638Y-60575813D01*
X123467696Y-60569048D01*
X123442018Y-60559658D01*
X123409047Y-60548158D01*
X123370228Y-60535066D01*
X123327002Y-60520897D01*
X123157911Y-60466219D01*
X123159764Y-60427839D01*
X123161618Y-60389459D01*
X123328724Y-60335927D01*
X123335491Y-60333757D01*
X123378207Y-60319936D01*
X123416542Y-60307330D01*
X123448989Y-60296449D01*
X123474040Y-60287805D01*
X123490185Y-60281908D01*
X123495917Y-60279270D01*
X123492573Y-60277701D01*
X123478741Y-60273165D01*
X123455694Y-60266258D01*
X123425062Y-60257456D01*
X123388475Y-60247233D01*
X123347565Y-60236065D01*
X123318819Y-60228303D01*
X123278316Y-60217362D01*
X123242124Y-60207582D01*
X123212182Y-60199486D01*
X123190430Y-60193600D01*
X123178810Y-60190448D01*
X123158492Y-60184909D01*
X123158492Y-60132065D01*
X123158550Y-60122526D01*
X123159203Y-60100387D01*
X123160426Y-60084992D01*
X123162029Y-60079221D01*
X123162205Y-60079252D01*
G37*
G36*
X122637975Y-58780797D02*
G01*
X122689625Y-58786068D01*
X122738000Y-58798207D01*
X122780730Y-58817244D01*
X122815443Y-58843209D01*
X122834949Y-58866373D01*
X122856874Y-58905452D01*
X122870715Y-58948516D01*
X122873811Y-58976307D01*
X122872766Y-59014941D01*
X122867114Y-59054580D01*
X122857376Y-59089701D01*
X122851062Y-59103673D01*
X122836007Y-59128872D01*
X122818966Y-59150857D01*
X122792777Y-59179349D01*
X122763185Y-59143488D01*
X122756494Y-59135330D01*
X122744362Y-59119584D01*
X122738842Y-59109438D01*
X122738788Y-59102121D01*
X122743052Y-59094864D01*
X122745275Y-59091796D01*
X122765592Y-59054179D01*
X122775834Y-59014307D01*
X122775639Y-58974809D01*
X122764645Y-58938314D01*
X122746031Y-58913116D01*
X122717670Y-58893862D01*
X122681812Y-58882532D01*
X122658369Y-58878359D01*
X122658369Y-59191502D01*
X122619297Y-59191455D01*
X122594930Y-59190960D01*
X122541407Y-59185514D01*
X122496594Y-59173600D01*
X122458759Y-59154648D01*
X122426165Y-59128090D01*
X122403489Y-59100717D01*
X122382044Y-59059787D01*
X122370312Y-59015448D01*
X122368532Y-58974499D01*
X122464741Y-58974499D01*
X122466494Y-59006414D01*
X122476170Y-59035156D01*
X122487653Y-59050195D01*
X122509635Y-59067667D01*
X122535179Y-59080339D01*
X122559328Y-59085226D01*
X122577099Y-59085226D01*
X122577099Y-58879238D01*
X122556781Y-58882906D01*
X122531361Y-58889796D01*
X122500597Y-58906016D01*
X122478720Y-58928299D01*
X122470794Y-58944371D01*
X122464741Y-58974499D01*
X122368532Y-58974499D01*
X122368332Y-58969907D01*
X122376143Y-58925372D01*
X122393782Y-58884052D01*
X122421288Y-58848152D01*
X122446073Y-58827798D01*
X122487101Y-58805894D01*
X122534342Y-58790740D01*
X122577099Y-58783729D01*
X122585424Y-58782364D01*
X122637975Y-58780797D01*
G37*
G36*
X123553740Y-58788723D02*
G01*
X123573757Y-58797078D01*
X123605802Y-58820420D01*
X123631586Y-58853089D01*
X123649616Y-58893455D01*
X123655020Y-58918842D01*
X123657812Y-58953582D01*
X123656875Y-58988599D01*
X123652088Y-59017828D01*
X123651657Y-59019309D01*
X123642380Y-59040683D01*
X123629687Y-59060026D01*
X123613743Y-59078975D01*
X123652364Y-59078975D01*
X123652364Y-59186349D01*
X123463255Y-59183792D01*
X123460355Y-59183753D01*
X123399620Y-59182725D01*
X123350473Y-59181452D01*
X123312040Y-59179887D01*
X123283444Y-59177988D01*
X123263811Y-59175708D01*
X123252265Y-59173002D01*
X123224681Y-59159557D01*
X123195763Y-59134718D01*
X123173477Y-59100099D01*
X123169171Y-59090947D01*
X123162373Y-59073213D01*
X123157986Y-59054330D01*
X123155268Y-59030514D01*
X123153479Y-58997980D01*
X123152870Y-58971568D01*
X123155008Y-58927985D01*
X123162034Y-58892575D01*
X123174543Y-58862909D01*
X123193132Y-58836560D01*
X123202729Y-58825830D01*
X123214123Y-58814539D01*
X123220491Y-58810159D01*
X123221031Y-58810307D01*
X123227955Y-58816389D01*
X123239767Y-58829604D01*
X123254248Y-58847496D01*
X123283244Y-58884834D01*
X123268518Y-58900723D01*
X123261351Y-58909730D01*
X123252342Y-58928847D01*
X123247474Y-58954413D01*
X123246014Y-58989310D01*
X123246657Y-59004706D01*
X123252125Y-59034852D01*
X123262349Y-59058268D01*
X123276331Y-59072220D01*
X123283205Y-59074660D01*
X123301354Y-59077762D01*
X123323065Y-59078975D01*
X123357179Y-59078975D01*
X123445094Y-59078975D01*
X123480272Y-59078975D01*
X123494452Y-59078396D01*
X123522494Y-59073275D01*
X123543439Y-59063665D01*
X123554712Y-59050549D01*
X123555600Y-59047845D01*
X123558827Y-59029831D01*
X123560946Y-59004829D01*
X123561796Y-58977293D01*
X123561214Y-58951672D01*
X123559036Y-58932418D01*
X123556911Y-58924359D01*
X123544711Y-58901535D01*
X123526733Y-58886156D01*
X123505599Y-58879257D01*
X123483929Y-58881873D01*
X123464344Y-58895039D01*
X123458676Y-58901659D01*
X123454213Y-58909613D01*
X123451238Y-58920551D01*
X123449340Y-58936852D01*
X123448111Y-58960897D01*
X123447141Y-58995063D01*
X123445094Y-59078975D01*
X123357179Y-59078975D01*
X123359805Y-58986765D01*
X123361565Y-58943996D01*
X123364623Y-58909170D01*
X123369508Y-58882320D01*
X123376814Y-58861137D01*
X123387137Y-58843312D01*
X123401071Y-58826538D01*
X123413966Y-58815051D01*
X123445197Y-58797497D01*
X123481625Y-58786583D01*
X123505599Y-58784501D01*
X123519167Y-58783322D01*
X123553740Y-58788723D01*
G37*
G36*
X123370044Y-61634669D02*
G01*
X123425588Y-61633588D01*
X123478463Y-61639521D01*
X123525828Y-61651988D01*
X123564842Y-61670506D01*
X123586242Y-61685364D01*
X123613475Y-61711273D01*
X123633912Y-61742568D01*
X123650229Y-61782765D01*
X123655181Y-61804808D01*
X123657604Y-61840902D01*
X123655480Y-61880094D01*
X123649135Y-61917620D01*
X123638895Y-61948716D01*
X123635955Y-61954807D01*
X123623974Y-61975925D01*
X123610124Y-61996413D01*
X123596394Y-62013698D01*
X123584774Y-62025209D01*
X123577256Y-62028374D01*
X123577097Y-62028301D01*
X123570625Y-62022471D01*
X123558762Y-62009777D01*
X123543952Y-61992828D01*
X123515278Y-61959080D01*
X123530629Y-61940837D01*
X123544108Y-61919300D01*
X123555553Y-61889054D01*
X123561929Y-61857311D01*
X123561702Y-61829567D01*
X123550814Y-61796449D01*
X123530784Y-61768246D01*
X123503845Y-61747956D01*
X123472091Y-61737723D01*
X123446063Y-61734232D01*
X123446063Y-62043777D01*
X123374836Y-62041051D01*
X123369763Y-62040853D01*
X123338901Y-62039280D01*
X123316369Y-62036949D01*
X123298495Y-62033105D01*
X123281609Y-62026994D01*
X123262040Y-62017860D01*
X123226225Y-61995934D01*
X123192336Y-61962865D01*
X123168766Y-61922924D01*
X123155762Y-61876552D01*
X123154518Y-61846808D01*
X123247240Y-61846808D01*
X123255018Y-61879408D01*
X123273292Y-61906100D01*
X123301287Y-61925943D01*
X123338224Y-61937995D01*
X123358541Y-61941867D01*
X123358541Y-61734232D01*
X123332513Y-61737723D01*
X123301679Y-61746919D01*
X123275012Y-61766280D01*
X123256467Y-61793879D01*
X123247577Y-61828083D01*
X123247240Y-61846808D01*
X123154518Y-61846808D01*
X123153572Y-61824192D01*
X123154027Y-61817924D01*
X123163742Y-61769421D01*
X123183773Y-61727701D01*
X123213736Y-61693117D01*
X123253243Y-61666023D01*
X123301909Y-61646771D01*
X123358541Y-61635871D01*
X123359349Y-61635715D01*
X123370044Y-61634669D01*
G37*
G36*
X122785685Y-59942020D02*
G01*
X122794242Y-59949159D01*
X122806355Y-59964168D01*
X122820200Y-59984422D01*
X122833956Y-60007295D01*
X122845800Y-60030164D01*
X122854572Y-60051134D01*
X122864252Y-60079655D01*
X122870356Y-60104227D01*
X122872276Y-60116821D01*
X122874589Y-60167133D01*
X122868800Y-60215563D01*
X122855634Y-60260152D01*
X122835812Y-60298943D01*
X122810060Y-60329979D01*
X122779098Y-60351302D01*
X122751604Y-60359763D01*
X122715819Y-60362401D01*
X122679406Y-60358066D01*
X122647383Y-60346924D01*
X122645092Y-60345725D01*
X122622241Y-60330663D01*
X122604351Y-60311596D01*
X122590699Y-60286838D01*
X122580565Y-60254705D01*
X122573225Y-60213511D01*
X122567958Y-60161572D01*
X122567950Y-60161470D01*
X122564876Y-60135941D01*
X122560231Y-60112993D01*
X122555017Y-60097585D01*
X122545077Y-60084354D01*
X122527409Y-60074969D01*
X122507678Y-60075470D01*
X122488755Y-60085593D01*
X122473511Y-60105074D01*
X122467058Y-60124099D01*
X122464109Y-60155299D01*
X122466912Y-60190288D01*
X122475083Y-60225154D01*
X122488241Y-60255984D01*
X122507826Y-60290687D01*
X122474261Y-60319362D01*
X122473233Y-60320238D01*
X122456032Y-60334270D01*
X122442483Y-60344224D01*
X122435442Y-60347994D01*
X122433712Y-60347498D01*
X122425151Y-60339357D01*
X122413807Y-60323322D01*
X122401462Y-60302117D01*
X122389902Y-60278464D01*
X122381958Y-60255668D01*
X122374275Y-60222637D01*
X122368866Y-60186993D01*
X122366432Y-60153511D01*
X122367672Y-60126966D01*
X122372969Y-60099948D01*
X122388908Y-60054194D01*
X122412083Y-60018596D01*
X122442461Y-59993189D01*
X122480007Y-59978006D01*
X122524686Y-59973082D01*
X122532215Y-59973411D01*
X122557819Y-59977509D01*
X122580225Y-59984760D01*
X122591849Y-59990707D01*
X122615793Y-60008437D01*
X122634253Y-60032083D01*
X122648022Y-60063236D01*
X122657892Y-60103491D01*
X122664656Y-60154439D01*
X122666527Y-60172366D01*
X122671525Y-60206711D01*
X122677940Y-60230918D01*
X122686542Y-60246649D01*
X122698105Y-60255565D01*
X122713399Y-60259327D01*
X122729094Y-60259179D01*
X122750300Y-60250679D01*
X122765297Y-60231687D01*
X122774206Y-60202015D01*
X122777148Y-60161478D01*
X122777144Y-60159777D01*
X122773304Y-60115364D01*
X122761264Y-60076532D01*
X122739552Y-60038459D01*
X122720204Y-60010338D01*
X122750239Y-59976092D01*
X122752063Y-59974020D01*
X122766995Y-59957719D01*
X122778578Y-59946172D01*
X122784437Y-59941766D01*
X122785685Y-59942020D01*
G37*
G36*
X123652364Y-59391552D02*
G01*
X123491148Y-59391552D01*
X123469833Y-59391557D01*
X123425135Y-59391657D01*
X123390579Y-59391980D01*
X123364483Y-59392651D01*
X123345165Y-59393797D01*
X123330943Y-59395541D01*
X123320136Y-59398009D01*
X123311062Y-59401326D01*
X123302039Y-59405618D01*
X123281807Y-59419596D01*
X123262808Y-59444211D01*
X123253030Y-59473339D01*
X123253323Y-59504073D01*
X123264539Y-59533510D01*
X123276766Y-59553564D01*
X123235025Y-59588211D01*
X123227116Y-59594699D01*
X123208800Y-59609104D01*
X123194956Y-59619110D01*
X123188103Y-59622859D01*
X123184371Y-59619637D01*
X123176697Y-59607721D01*
X123167643Y-59590038D01*
X123162084Y-59576604D01*
X123152588Y-59534320D01*
X123153965Y-59491812D01*
X123165909Y-59451677D01*
X123188115Y-59416510D01*
X123209479Y-59391552D01*
X123158492Y-59391552D01*
X123158492Y-59291527D01*
X123652364Y-59291527D01*
X123652364Y-59391552D01*
G37*
G36*
X122651025Y-62173549D02*
G01*
X122685379Y-62176012D01*
X122711969Y-62180300D01*
X122750741Y-62192903D01*
X122794724Y-62217298D01*
X122829624Y-62250048D01*
X122855074Y-62290788D01*
X122870708Y-62339152D01*
X122871295Y-62342130D01*
X122875426Y-62396105D01*
X122867787Y-62449452D01*
X122848941Y-62499918D01*
X122819447Y-62545250D01*
X122813882Y-62551731D01*
X122802868Y-62562910D01*
X122796207Y-62567333D01*
X122795966Y-62567302D01*
X122789179Y-62562211D01*
X122777098Y-62550093D01*
X122762170Y-62533388D01*
X122733169Y-62499443D01*
X122748524Y-62476816D01*
X122750850Y-62473265D01*
X122762624Y-62452103D01*
X122771217Y-62431955D01*
X122773786Y-62422095D01*
X122776513Y-62394681D01*
X122774956Y-62365149D01*
X122769555Y-62338254D01*
X122760748Y-62318750D01*
X122744790Y-62303184D01*
X122721823Y-62288490D01*
X122697144Y-62277703D01*
X122675799Y-62273511D01*
X122658369Y-62273511D01*
X122658369Y-62581186D01*
X122588039Y-62578622D01*
X122542718Y-62575417D01*
X122505731Y-62568639D01*
X122475451Y-62557270D01*
X122449071Y-62540249D01*
X122423789Y-62516516D01*
X122395394Y-62478916D01*
X122375477Y-62434096D01*
X122367200Y-62386392D01*
X122367910Y-62377202D01*
X122464571Y-62377202D01*
X122464768Y-62384051D01*
X122472359Y-62417667D01*
X122490311Y-62445028D01*
X122517713Y-62465114D01*
X122553656Y-62476909D01*
X122577099Y-62481203D01*
X122577099Y-62273511D01*
X122559328Y-62273511D01*
X122540786Y-62276550D01*
X122515124Y-62287765D01*
X122491933Y-62304437D01*
X122476170Y-62323581D01*
X122475698Y-62324480D01*
X122467620Y-62348697D01*
X122464571Y-62377202D01*
X122367910Y-62377202D01*
X122370995Y-62337267D01*
X122384291Y-62294671D01*
X122408633Y-62254169D01*
X122442780Y-62221239D01*
X122486495Y-62196106D01*
X122539537Y-62178994D01*
X122547494Y-62177460D01*
X122577099Y-62174278D01*
X122577472Y-62174238D01*
X122613519Y-62172946D01*
X122651025Y-62173549D01*
G37*
G36*
X122869611Y-61468625D02*
G01*
X122867796Y-61520200D01*
X122695878Y-61523326D01*
X122669424Y-61523813D01*
X122621364Y-61524830D01*
X122583612Y-61526058D01*
X122554674Y-61527791D01*
X122533055Y-61530320D01*
X122517263Y-61533940D01*
X122505801Y-61538943D01*
X122497178Y-61545622D01*
X122489898Y-61554270D01*
X122482468Y-61565180D01*
X122475232Y-61581775D01*
X122471181Y-61608885D01*
X122473096Y-61637575D01*
X122481054Y-61662512D01*
X122491286Y-61682297D01*
X122463863Y-61706309D01*
X122452505Y-61716083D01*
X122434055Y-61731374D01*
X122419784Y-61742520D01*
X122403129Y-61754720D01*
X122390421Y-61734158D01*
X122377594Y-61706683D01*
X122369486Y-61669295D01*
X122369265Y-61630384D01*
X122376593Y-61592995D01*
X122391131Y-61560175D01*
X122412542Y-61534969D01*
X122413481Y-61534185D01*
X122417819Y-61528912D01*
X122413413Y-61525804D01*
X122398400Y-61523326D01*
X122373924Y-61520200D01*
X122372108Y-61468625D01*
X122370293Y-61417050D01*
X122871427Y-61417050D01*
X122869611Y-61468625D01*
G37*
%LPC*%
D12*
X132226000Y-71802000D03*
X132226000Y-61802000D03*
X136726000Y-66802000D03*
D13*
X132226000Y-66802000D03*
D14*
X137028000Y-85962500D03*
X137028000Y-75962500D03*
X132028000Y-80962500D03*
X139528000Y-85962500D03*
X139528000Y-75962500D03*
D15*
X137028000Y-80962500D03*
D16*
X132028000Y-75962500D03*
X132028000Y-85962500D03*
X132028000Y-78462500D03*
X132028000Y-83462500D03*
D17*
X111737500Y-58298000D03*
X111737500Y-61068000D03*
X111737500Y-63838000D03*
X111737500Y-66608000D03*
X111737500Y-69378000D03*
X111737500Y-72148000D03*
X111737500Y-74918000D03*
X111737500Y-77688000D03*
X111737500Y-80458000D03*
X111737500Y-83228000D03*
X111737500Y-85998000D03*
X111737500Y-88768000D03*
D18*
X115966000Y-55753000D03*
D19*
X118506000Y-55753000D03*
X121046000Y-55753000D03*
D20*
X119380000Y-86928888D03*
D21*
X119380000Y-88928888D03*
D22*
X123698000Y-80835000D03*
X123698000Y-79185000D03*
X120904000Y-80835000D03*
X120904000Y-79185000D03*
D23*
X118618000Y-71693000D03*
X119888000Y-71693000D03*
X121158000Y-71693000D03*
X122428000Y-71693000D03*
X123698000Y-71693000D03*
X124968000Y-71693000D03*
X126238000Y-71693000D03*
X126238000Y-76643000D03*
X124968000Y-76643000D03*
X123698000Y-76643000D03*
X122428000Y-76643000D03*
X121158000Y-76643000D03*
X119888000Y-76643000D03*
X118618000Y-76643000D03*
M02*
