G04 #@! TF.GenerationSoftware,KiCad,Pcbnew,(6.0.0)*
G04 #@! TF.CreationDate,2022-11-09T00:51:05-05:00*
G04 #@! TF.ProjectId,Arrington 4 voice equivalent SMD,41727269-6e67-4746-9f6e-203420766f69,rev?*
G04 #@! TF.SameCoordinates,Original*
G04 #@! TF.FileFunction,Copper,L2,Bot*
G04 #@! TF.FilePolarity,Positive*
%FSLAX46Y46*%
G04 Gerber Fmt 4.6, Leading zero omitted, Abs format (unit mm)*
G04 Created by KiCad (PCBNEW (6.0.0)) date 2022-11-09 00:51:05*
%MOMM*%
%LPD*%
G01*
G04 APERTURE LIST*
G04 Aperture macros list*
%AMRoundRect*
0 Rectangle with rounded corners*
0 $1 Rounding radius*
0 $2 $3 $4 $5 $6 $7 $8 $9 X,Y pos of 4 corners*
0 Add a 4 corners polygon primitive as box body*
4,1,4,$2,$3,$4,$5,$6,$7,$8,$9,$2,$3,0*
0 Add four circle primitives for the rounded corners*
1,1,$1+$1,$2,$3*
1,1,$1+$1,$4,$5*
1,1,$1+$1,$6,$7*
1,1,$1+$1,$8,$9*
0 Add four rect primitives between the rounded corners*
20,1,$1+$1,$2,$3,$4,$5,0*
20,1,$1+$1,$4,$5,$6,$7,0*
20,1,$1+$1,$6,$7,$8,$9,0*
20,1,$1+$1,$8,$9,$2,$3,0*%
G04 Aperture macros list end*
G04 #@! TA.AperFunction,ComponentPad*
%ADD10C,3.616000*%
G04 #@! TD*
G04 #@! TA.AperFunction,ComponentPad*
%ADD11C,2.550000*%
G04 #@! TD*
G04 #@! TA.AperFunction,ComponentPad*
%ADD12O,1.308000X2.616000*%
G04 #@! TD*
G04 #@! TA.AperFunction,ComponentPad*
%ADD13O,2.616000X1.308000*%
G04 #@! TD*
G04 #@! TA.AperFunction,SMDPad,CuDef*
%ADD14R,3.480000X1.846667*%
G04 #@! TD*
G04 #@! TA.AperFunction,ComponentPad*
%ADD15R,1.700000X1.700000*%
G04 #@! TD*
G04 #@! TA.AperFunction,ComponentPad*
%ADD16O,1.700000X1.700000*%
G04 #@! TD*
G04 #@! TA.AperFunction,ComponentPad*
%ADD17R,1.600000X1.600000*%
G04 #@! TD*
G04 #@! TA.AperFunction,ComponentPad*
%ADD18C,1.600000*%
G04 #@! TD*
G04 #@! TA.AperFunction,SMDPad,CuDef*
%ADD19RoundRect,0.200000X0.275000X-0.200000X0.275000X0.200000X-0.275000X0.200000X-0.275000X-0.200000X0*%
G04 #@! TD*
G04 #@! TA.AperFunction,SMDPad,CuDef*
%ADD20RoundRect,0.150000X-0.150000X0.825000X-0.150000X-0.825000X0.150000X-0.825000X0.150000X0.825000X0*%
G04 #@! TD*
G04 #@! TA.AperFunction,ViaPad*
%ADD21C,0.800000*%
G04 #@! TD*
G04 #@! TA.AperFunction,Conductor*
%ADD22C,0.400000*%
G04 #@! TD*
G04 APERTURE END LIST*
D10*
X132226000Y-71802000D03*
X132226000Y-61802000D03*
X136726000Y-66802000D03*
D11*
X132226000Y-66802000D03*
D12*
X137028000Y-80962500D03*
D13*
X132028000Y-75962500D03*
X132028000Y-85962500D03*
X132028000Y-78462500D03*
X132028000Y-83462500D03*
D14*
X111737500Y-58298000D03*
X111737500Y-61068000D03*
X111737500Y-63838000D03*
X111737500Y-66608000D03*
X111737500Y-69378000D03*
X111737500Y-72148000D03*
X111737500Y-74918000D03*
X111737500Y-77688000D03*
X111737500Y-80458000D03*
X111737500Y-83228000D03*
X111737500Y-85998000D03*
X111737500Y-88768000D03*
D15*
X115966000Y-55753000D03*
D16*
X118506000Y-55753000D03*
X121046000Y-55753000D03*
D17*
X119380000Y-86928888D03*
D18*
X119380000Y-88928888D03*
D19*
X123698000Y-80835000D03*
X123698000Y-79185000D03*
X120904000Y-80835000D03*
X120904000Y-79185000D03*
D20*
X118618000Y-71693000D03*
X119888000Y-71693000D03*
X121158000Y-71693000D03*
X122428000Y-71693000D03*
X123698000Y-71693000D03*
X124968000Y-71693000D03*
X126238000Y-71693000D03*
X126238000Y-76643000D03*
X124968000Y-76643000D03*
X123698000Y-76643000D03*
X122428000Y-76643000D03*
X121158000Y-76643000D03*
X119888000Y-76643000D03*
X118618000Y-76643000D03*
D21*
X126238000Y-74168000D03*
X115062000Y-66294000D03*
X115391699Y-69925699D03*
X119634000Y-64008000D03*
X114300000Y-72136000D03*
X114808000Y-74422000D03*
D22*
X118618000Y-70358000D02*
X119380000Y-69596000D01*
X118618000Y-71693000D02*
X118618000Y-70358000D01*
X119825000Y-80835000D02*
X119380000Y-81280000D01*
X120904000Y-80835000D02*
X123698000Y-80835000D01*
X120904000Y-80835000D02*
X119825000Y-80835000D01*
X119380000Y-81280000D02*
X119380000Y-86928888D01*
X120433511Y-63676831D02*
X120433511Y-64339169D01*
X120433511Y-64339169D02*
X118478680Y-66294000D01*
X117824680Y-61068000D02*
X120433511Y-63676831D01*
X118618000Y-76539850D02*
X118618000Y-76643000D01*
X115391699Y-69925699D02*
X116719440Y-71253440D01*
X116719440Y-71253440D02*
X116719440Y-74641290D01*
X118478680Y-66294000D02*
X115062000Y-66294000D01*
X116719440Y-74641290D02*
X118618000Y-76539850D01*
X111737500Y-61068000D02*
X117824680Y-61068000D01*
X122428000Y-76160862D02*
X122428000Y-76643000D01*
X114216000Y-66632150D02*
X117918480Y-70334630D01*
X119464000Y-63838000D02*
X114216000Y-63838000D01*
X114216000Y-63838000D02*
X111737500Y-63838000D01*
X114216000Y-63838000D02*
X114216000Y-66632150D01*
X118455520Y-74584480D02*
X120851618Y-74584480D01*
X117918480Y-70334630D02*
X117918480Y-74047440D01*
X120851618Y-74584480D02*
X122428000Y-76160862D01*
X117918480Y-74047440D02*
X118455520Y-74584480D01*
X119634000Y-64008000D02*
X119464000Y-63838000D01*
X113538000Y-66802000D02*
X117318960Y-70582960D01*
X117318960Y-74392960D02*
X118110000Y-75184000D01*
X117318960Y-70582960D02*
X117318960Y-74392960D01*
X111737500Y-66608000D02*
X111931500Y-66802000D01*
X119888000Y-76160862D02*
X119888000Y-76643000D01*
X118911138Y-75184000D02*
X119888000Y-76160862D01*
X111931500Y-66802000D02*
X113538000Y-66802000D01*
X118110000Y-75184000D02*
X118911138Y-75184000D01*
X113066000Y-69378000D02*
X111737500Y-69378000D01*
X114300000Y-70612000D02*
X113066000Y-69378000D01*
X114300000Y-72136000D02*
X114300000Y-70612000D01*
X112534000Y-72148000D02*
X114808000Y-74422000D01*
X111737500Y-72148000D02*
X112534000Y-72148000D01*
X123698000Y-76643000D02*
X123698000Y-79185000D01*
X121158000Y-76643000D02*
X121158000Y-78931000D01*
X121158000Y-78931000D02*
X120904000Y-79185000D01*
G04 #@! TA.AperFunction,Conductor*
G36*
X135482057Y-53976500D02*
G01*
X135496858Y-53978805D01*
X135496861Y-53978805D01*
X135505730Y-53980186D01*
X135526639Y-53977452D01*
X135548176Y-53976496D01*
X135735261Y-53984234D01*
X135957760Y-53993437D01*
X135968138Y-53994297D01*
X136242263Y-54028466D01*
X136405682Y-54048837D01*
X136415947Y-54050549D01*
X136530388Y-54074545D01*
X136847491Y-54141035D01*
X136857586Y-54143591D01*
X137280194Y-54269407D01*
X137290036Y-54272785D01*
X137700830Y-54433078D01*
X137710329Y-54437245D01*
X138079246Y-54617598D01*
X138106466Y-54630905D01*
X138115622Y-54635860D01*
X138274499Y-54730530D01*
X138494403Y-54861564D01*
X138503122Y-54867260D01*
X138861971Y-55123474D01*
X138870189Y-55129870D01*
X139206668Y-55414853D01*
X139214329Y-55421907D01*
X139526093Y-55733671D01*
X139533147Y-55741332D01*
X139818130Y-56077811D01*
X139824526Y-56086029D01*
X140080740Y-56444878D01*
X140086436Y-56453597D01*
X140312139Y-56832376D01*
X140317094Y-56841532D01*
X140457122Y-57127962D01*
X140510751Y-57237662D01*
X140514922Y-57247170D01*
X140623541Y-57525535D01*
X140675212Y-57657956D01*
X140678593Y-57667806D01*
X140804409Y-58090414D01*
X140806965Y-58100509D01*
X140897450Y-58532050D01*
X140899164Y-58542322D01*
X140953703Y-58979862D01*
X140954563Y-58990240D01*
X140971195Y-59392361D01*
X140969803Y-59416951D01*
X140969196Y-59420853D01*
X140967814Y-59429730D01*
X140968978Y-59438631D01*
X140968978Y-59438636D01*
X140972063Y-59462223D01*
X140973126Y-59478180D01*
X141000672Y-68578133D01*
X141019734Y-74875118D01*
X141019999Y-74962803D01*
X141020000Y-74963184D01*
X141020000Y-78328500D01*
X140999998Y-78396621D01*
X140946342Y-78443114D01*
X140894000Y-78454500D01*
X140336702Y-78454500D01*
X140335932Y-78454498D01*
X140335078Y-78454493D01*
X140258348Y-78454024D01*
X140249719Y-78456490D01*
X140249714Y-78456491D01*
X140229952Y-78462139D01*
X140213191Y-78465717D01*
X140192848Y-78468630D01*
X140192838Y-78468633D01*
X140183955Y-78469905D01*
X140160605Y-78480521D01*
X140143093Y-78486964D01*
X140130200Y-78490649D01*
X140118435Y-78494012D01*
X140093452Y-78509774D01*
X140078386Y-78517904D01*
X140051490Y-78530133D01*
X140032061Y-78546874D01*
X140017053Y-78557979D01*
X139995369Y-78571660D01*
X139989427Y-78578388D01*
X139975819Y-78593796D01*
X139963627Y-78605840D01*
X139941253Y-78625119D01*
X139936374Y-78632647D01*
X139936371Y-78632650D01*
X139927304Y-78646639D01*
X139916014Y-78661513D01*
X139899044Y-78680728D01*
X139886490Y-78707466D01*
X139878176Y-78722435D01*
X139862107Y-78747227D01*
X139859535Y-78755827D01*
X139854761Y-78771790D01*
X139848099Y-78789236D01*
X139837201Y-78812448D01*
X139835820Y-78821321D01*
X139832658Y-78841628D01*
X139828874Y-78858349D01*
X139822986Y-78878036D01*
X139822985Y-78878039D01*
X139820413Y-78886641D01*
X139820358Y-78895616D01*
X139820358Y-78895617D01*
X139820203Y-78921046D01*
X139820170Y-78921828D01*
X139820000Y-78922923D01*
X139820000Y-78953798D01*
X139819998Y-78954568D01*
X139819524Y-79032152D01*
X139819908Y-79033496D01*
X139820000Y-79034841D01*
X139820000Y-82953798D01*
X139819998Y-82954568D01*
X139819524Y-83032152D01*
X139821990Y-83040781D01*
X139821991Y-83040786D01*
X139827639Y-83060548D01*
X139831217Y-83077309D01*
X139834130Y-83097652D01*
X139834133Y-83097662D01*
X139835405Y-83106545D01*
X139846021Y-83129895D01*
X139852464Y-83147407D01*
X139859512Y-83172065D01*
X139875274Y-83197048D01*
X139883404Y-83212114D01*
X139895633Y-83239010D01*
X139912374Y-83258439D01*
X139923479Y-83273447D01*
X139937160Y-83295131D01*
X139943888Y-83301073D01*
X139959296Y-83314681D01*
X139971340Y-83326873D01*
X139990619Y-83349247D01*
X139998147Y-83354126D01*
X139998150Y-83354129D01*
X140012139Y-83363196D01*
X140027013Y-83374486D01*
X140046228Y-83391456D01*
X140054354Y-83395271D01*
X140054355Y-83395272D01*
X140060021Y-83397932D01*
X140072966Y-83404010D01*
X140087935Y-83412324D01*
X140112727Y-83428393D01*
X140121327Y-83430965D01*
X140137290Y-83435739D01*
X140154736Y-83442401D01*
X140177948Y-83453299D01*
X140207130Y-83457843D01*
X140223849Y-83461626D01*
X140243536Y-83467514D01*
X140243539Y-83467515D01*
X140252141Y-83470087D01*
X140261116Y-83470142D01*
X140261117Y-83470142D01*
X140267810Y-83470183D01*
X140286556Y-83470297D01*
X140287328Y-83470330D01*
X140288423Y-83470500D01*
X140319298Y-83470500D01*
X140320068Y-83470502D01*
X140393716Y-83470952D01*
X140393717Y-83470952D01*
X140397652Y-83470976D01*
X140398996Y-83470592D01*
X140400341Y-83470500D01*
X140894000Y-83470500D01*
X140962121Y-83490502D01*
X141008614Y-83544158D01*
X141020000Y-83596500D01*
X141020000Y-86940198D01*
X141019689Y-86949048D01*
X140982206Y-87481406D01*
X140976165Y-87567200D01*
X140974978Y-87577721D01*
X140967814Y-87623730D01*
X140970548Y-87644639D01*
X140971504Y-87666179D01*
X140954563Y-88075760D01*
X140953703Y-88086138D01*
X140899164Y-88523678D01*
X140897450Y-88533950D01*
X140806965Y-88965491D01*
X140804409Y-88975586D01*
X140678593Y-89398194D01*
X140675215Y-89408036D01*
X140514922Y-89818830D01*
X140510755Y-89828329D01*
X140347060Y-90163172D01*
X140317095Y-90224466D01*
X140312139Y-90233624D01*
X140086436Y-90612403D01*
X140080740Y-90621122D01*
X139824526Y-90979971D01*
X139818130Y-90988189D01*
X139533147Y-91324668D01*
X139526093Y-91332329D01*
X139214329Y-91644093D01*
X139206668Y-91651147D01*
X138870189Y-91936130D01*
X138861971Y-91942526D01*
X138503122Y-92198740D01*
X138494403Y-92204436D01*
X138197587Y-92381300D01*
X138115624Y-92430139D01*
X138106468Y-92435094D01*
X137710329Y-92628755D01*
X137700830Y-92632922D01*
X137290036Y-92793215D01*
X137280194Y-92796593D01*
X136857586Y-92922409D01*
X136847491Y-92924965D01*
X136559770Y-92985294D01*
X136415947Y-93015451D01*
X136405682Y-93017163D01*
X136242263Y-93037534D01*
X135968138Y-93071703D01*
X135957760Y-93072563D01*
X135555639Y-93089195D01*
X135531049Y-93087803D01*
X135527147Y-93087196D01*
X135527145Y-93087196D01*
X135518270Y-93085814D01*
X135509368Y-93086978D01*
X135509365Y-93086978D01*
X135486749Y-93089936D01*
X135470411Y-93091000D01*
X110362000Y-93091000D01*
X110293879Y-93070998D01*
X110247386Y-93017342D01*
X110236000Y-92965000D01*
X110236000Y-90325833D01*
X110256002Y-90257712D01*
X110309658Y-90211219D01*
X110362000Y-90199833D01*
X113525634Y-90199833D01*
X113587816Y-90193078D01*
X113724205Y-90141948D01*
X113840761Y-90054594D01*
X113928115Y-89938038D01*
X113979245Y-89801649D01*
X113986000Y-89739467D01*
X113986000Y-87796533D01*
X113979245Y-87734351D01*
X113928115Y-87597962D01*
X113840761Y-87481406D01*
X113833581Y-87476025D01*
X113829651Y-87472095D01*
X113795625Y-87409783D01*
X113800690Y-87338968D01*
X113829651Y-87293905D01*
X113833581Y-87289975D01*
X113840761Y-87284594D01*
X113928115Y-87168038D01*
X113979245Y-87031649D01*
X113986000Y-86969467D01*
X113986000Y-85026533D01*
X113979245Y-84964351D01*
X113928115Y-84827962D01*
X113840761Y-84711406D01*
X113833581Y-84706025D01*
X113829651Y-84702095D01*
X113795625Y-84639783D01*
X113800690Y-84568968D01*
X113829651Y-84523905D01*
X113833581Y-84519975D01*
X113840761Y-84514594D01*
X113928115Y-84398038D01*
X113979245Y-84261649D01*
X113986000Y-84199467D01*
X113986000Y-82256533D01*
X113979245Y-82194351D01*
X113928115Y-82057962D01*
X113840761Y-81941406D01*
X113833581Y-81936025D01*
X113829651Y-81932095D01*
X113795625Y-81869783D01*
X113800690Y-81798968D01*
X113829651Y-81753905D01*
X113833581Y-81749975D01*
X113840761Y-81744594D01*
X113928115Y-81628038D01*
X113979245Y-81491649D01*
X113986000Y-81429467D01*
X113986000Y-79486533D01*
X113979245Y-79424351D01*
X113928115Y-79287962D01*
X113840761Y-79171406D01*
X113833581Y-79166025D01*
X113829651Y-79162095D01*
X113795625Y-79099783D01*
X113800690Y-79028968D01*
X113829651Y-78983905D01*
X113833581Y-78979975D01*
X113840761Y-78974594D01*
X113928115Y-78858038D01*
X113979245Y-78721649D01*
X113986000Y-78659467D01*
X113986000Y-76716533D01*
X113979245Y-76654351D01*
X113928115Y-76517962D01*
X113840761Y-76401406D01*
X113833581Y-76396025D01*
X113829651Y-76392095D01*
X113795625Y-76329783D01*
X113800690Y-76258968D01*
X113829651Y-76213905D01*
X113833581Y-76209975D01*
X113840761Y-76204594D01*
X113928115Y-76088038D01*
X113979245Y-75951649D01*
X113986000Y-75889467D01*
X113986000Y-75193180D01*
X114006002Y-75125059D01*
X114059658Y-75078566D01*
X114129932Y-75068462D01*
X114195008Y-75098934D01*
X114196747Y-75100866D01*
X114202089Y-75104747D01*
X114202091Y-75104749D01*
X114345906Y-75209237D01*
X114351248Y-75213118D01*
X114357276Y-75215802D01*
X114357278Y-75215803D01*
X114504253Y-75281240D01*
X114525712Y-75290794D01*
X114604778Y-75307600D01*
X114706056Y-75329128D01*
X114706061Y-75329128D01*
X114712513Y-75330500D01*
X114903487Y-75330500D01*
X114909939Y-75329128D01*
X114909944Y-75329128D01*
X115011222Y-75307600D01*
X115090288Y-75290794D01*
X115111747Y-75281240D01*
X115258722Y-75215803D01*
X115258724Y-75215802D01*
X115264752Y-75213118D01*
X115270620Y-75208855D01*
X115338285Y-75159693D01*
X115419253Y-75100866D01*
X115430280Y-75088619D01*
X115542621Y-74963852D01*
X115542622Y-74963851D01*
X115547040Y-74958944D01*
X115617126Y-74837552D01*
X115639223Y-74799279D01*
X115639224Y-74799278D01*
X115642527Y-74793556D01*
X115701542Y-74611928D01*
X115721504Y-74422000D01*
X115701542Y-74232072D01*
X115642527Y-74050444D01*
X115639205Y-74044689D01*
X115595792Y-73969497D01*
X115547040Y-73885056D01*
X115535844Y-73872621D01*
X115423675Y-73748045D01*
X115423674Y-73748044D01*
X115419253Y-73743134D01*
X115264752Y-73630882D01*
X115258724Y-73628198D01*
X115258722Y-73628197D01*
X115096319Y-73555891D01*
X115096318Y-73555891D01*
X115090288Y-73553206D01*
X114937433Y-73520716D01*
X114874536Y-73486565D01*
X114580786Y-73192815D01*
X114546761Y-73130503D01*
X114551825Y-73059688D01*
X114594372Y-73002852D01*
X114618632Y-72988613D01*
X114750722Y-72929803D01*
X114750724Y-72929802D01*
X114756752Y-72927118D01*
X114911253Y-72814866D01*
X115039040Y-72672944D01*
X115134527Y-72507556D01*
X115193542Y-72325928D01*
X115209848Y-72170790D01*
X115212814Y-72142565D01*
X115213504Y-72136000D01*
X115209808Y-72100832D01*
X115194232Y-71952635D01*
X115194232Y-71952633D01*
X115193542Y-71946072D01*
X115134527Y-71764444D01*
X115039040Y-71599056D01*
X115034621Y-71594148D01*
X115032564Y-71591317D01*
X115008705Y-71524449D01*
X115008500Y-71517256D01*
X115008500Y-70928641D01*
X115028502Y-70860520D01*
X115082158Y-70814027D01*
X115152432Y-70803923D01*
X115160698Y-70805395D01*
X115262268Y-70826985D01*
X115325166Y-70861136D01*
X115974036Y-71510007D01*
X116008061Y-71572319D01*
X116010940Y-71599102D01*
X116010940Y-74612378D01*
X116010648Y-74620948D01*
X116006715Y-74678642D01*
X116008020Y-74686119D01*
X116008020Y-74686120D01*
X116017701Y-74741589D01*
X116018663Y-74748111D01*
X116026338Y-74811532D01*
X116029021Y-74818633D01*
X116029662Y-74821242D01*
X116034125Y-74837552D01*
X116034890Y-74840088D01*
X116036197Y-74847574D01*
X116039251Y-74854531D01*
X116061882Y-74906085D01*
X116064375Y-74912194D01*
X116083895Y-74963852D01*
X116086953Y-74971946D01*
X116091257Y-74978209D01*
X116092494Y-74980575D01*
X116100739Y-74995387D01*
X116102072Y-74997641D01*
X116105125Y-75004595D01*
X116109747Y-75010618D01*
X116144019Y-75055281D01*
X116147899Y-75060622D01*
X116179779Y-75107010D01*
X116179784Y-75107015D01*
X116184083Y-75113271D01*
X116189753Y-75118322D01*
X116189754Y-75118324D01*
X116230610Y-75154725D01*
X116235886Y-75159706D01*
X117772595Y-76696416D01*
X117806621Y-76758728D01*
X117809500Y-76785511D01*
X117809500Y-77534502D01*
X117812438Y-77571831D01*
X117858855Y-77731601D01*
X117862892Y-77738427D01*
X117939509Y-77867980D01*
X117939511Y-77867983D01*
X117943547Y-77874807D01*
X118061193Y-77992453D01*
X118068017Y-77996489D01*
X118068020Y-77996491D01*
X118175589Y-78060107D01*
X118204399Y-78077145D01*
X118212010Y-78079356D01*
X118212012Y-78079357D01*
X118239625Y-78087379D01*
X118364169Y-78123562D01*
X118370574Y-78124066D01*
X118370579Y-78124067D01*
X118399042Y-78126307D01*
X118399050Y-78126307D01*
X118401498Y-78126500D01*
X118834502Y-78126500D01*
X118836950Y-78126307D01*
X118836958Y-78126307D01*
X118865421Y-78124067D01*
X118865426Y-78124066D01*
X118871831Y-78123562D01*
X118996375Y-78087379D01*
X119023988Y-78079357D01*
X119023990Y-78079356D01*
X119031601Y-78077145D01*
X119174807Y-77992453D01*
X119177489Y-77989771D01*
X119241861Y-77964498D01*
X119311484Y-77978400D01*
X119327312Y-77988572D01*
X119331193Y-77992453D01*
X119474399Y-78077145D01*
X119482010Y-78079356D01*
X119482012Y-78079357D01*
X119509625Y-78087379D01*
X119634169Y-78123562D01*
X119640574Y-78124066D01*
X119640579Y-78124067D01*
X119669042Y-78126307D01*
X119669050Y-78126307D01*
X119671498Y-78126500D01*
X120104502Y-78126500D01*
X120106950Y-78126307D01*
X120106958Y-78126307D01*
X120135421Y-78124067D01*
X120135426Y-78124066D01*
X120141831Y-78123562D01*
X120148007Y-78121768D01*
X120148011Y-78121767D01*
X120288348Y-78080996D01*
X120359344Y-78081199D01*
X120418960Y-78119753D01*
X120448268Y-78184418D01*
X120449500Y-78201993D01*
X120449500Y-78206184D01*
X120429498Y-78274305D01*
X120375842Y-78320798D01*
X120361186Y-78326416D01*
X120335301Y-78334528D01*
X120188619Y-78423361D01*
X120067361Y-78544619D01*
X119978528Y-78691301D01*
X119976257Y-78698548D01*
X119976256Y-78698550D01*
X119961002Y-78747227D01*
X119927247Y-78854938D01*
X119920500Y-78928365D01*
X119920501Y-79441634D01*
X119920764Y-79444492D01*
X119920764Y-79444501D01*
X119921999Y-79457940D01*
X119927247Y-79515062D01*
X119929246Y-79521440D01*
X119929246Y-79521441D01*
X119970088Y-79651766D01*
X119978528Y-79678699D01*
X120067361Y-79825381D01*
X120153385Y-79911405D01*
X120187411Y-79973717D01*
X120182346Y-80044532D01*
X120139799Y-80101368D01*
X120073279Y-80126179D01*
X120064290Y-80126500D01*
X119853912Y-80126500D01*
X119845342Y-80126208D01*
X119795224Y-80122791D01*
X119795220Y-80122791D01*
X119787648Y-80122275D01*
X119780171Y-80123580D01*
X119780170Y-80123580D01*
X119753692Y-80128201D01*
X119724697Y-80133262D01*
X119718179Y-80134223D01*
X119654758Y-80141898D01*
X119647657Y-80144581D01*
X119645048Y-80145222D01*
X119628738Y-80149685D01*
X119626202Y-80150450D01*
X119618716Y-80151757D01*
X119608814Y-80156104D01*
X119560205Y-80177442D01*
X119554101Y-80179933D01*
X119494344Y-80202513D01*
X119488081Y-80206817D01*
X119485715Y-80208054D01*
X119470903Y-80216299D01*
X119468649Y-80217632D01*
X119461695Y-80220685D01*
X119410998Y-80259587D01*
X119405668Y-80263459D01*
X119359280Y-80295339D01*
X119359275Y-80295344D01*
X119353019Y-80299643D01*
X119347968Y-80305313D01*
X119347966Y-80305314D01*
X119311565Y-80346170D01*
X119306584Y-80351446D01*
X118899480Y-80758550D01*
X118893215Y-80764404D01*
X118849615Y-80802439D01*
X118845248Y-80808653D01*
X118812872Y-80854719D01*
X118808939Y-80860014D01*
X118769524Y-80910282D01*
X118766401Y-80917198D01*
X118765017Y-80919484D01*
X118756643Y-80934165D01*
X118755378Y-80936525D01*
X118751010Y-80942739D01*
X118748250Y-80949818D01*
X118748249Y-80949820D01*
X118727798Y-81002275D01*
X118725247Y-81008344D01*
X118698955Y-81066573D01*
X118697571Y-81074040D01*
X118696770Y-81076595D01*
X118692141Y-81092848D01*
X118691478Y-81095428D01*
X118688718Y-81102509D01*
X118687727Y-81110040D01*
X118687726Y-81110042D01*
X118680379Y-81165852D01*
X118679348Y-81172359D01*
X118667704Y-81235186D01*
X118668141Y-81242766D01*
X118668141Y-81242767D01*
X118671291Y-81297392D01*
X118671500Y-81304646D01*
X118671500Y-85494388D01*
X118651498Y-85562509D01*
X118597842Y-85609002D01*
X118545500Y-85620388D01*
X118531866Y-85620388D01*
X118469684Y-85627143D01*
X118333295Y-85678273D01*
X118216739Y-85765627D01*
X118129385Y-85882183D01*
X118078255Y-86018572D01*
X118071500Y-86080754D01*
X118071500Y-87777022D01*
X118078255Y-87839204D01*
X118129385Y-87975593D01*
X118216739Y-88092149D01*
X118223919Y-88097530D01*
X118230269Y-88103880D01*
X118228029Y-88106120D01*
X118261171Y-88150453D01*
X118266190Y-88221272D01*
X118248051Y-88262678D01*
X118248383Y-88262869D01*
X118246661Y-88265852D01*
X118246296Y-88266685D01*
X118242477Y-88272139D01*
X118240154Y-88277121D01*
X118240151Y-88277126D01*
X118148039Y-88474663D01*
X118145716Y-88479645D01*
X118144294Y-88484953D01*
X118144293Y-88484955D01*
X118087881Y-88695486D01*
X118086457Y-88700801D01*
X118066502Y-88928888D01*
X118086457Y-89156975D01*
X118145716Y-89378131D01*
X118148039Y-89383112D01*
X118148039Y-89383113D01*
X118240151Y-89580650D01*
X118240154Y-89580655D01*
X118242477Y-89585637D01*
X118245634Y-89590145D01*
X118347798Y-89736050D01*
X118373802Y-89773188D01*
X118535700Y-89935086D01*
X118540208Y-89938243D01*
X118540211Y-89938245D01*
X118618389Y-89992986D01*
X118723251Y-90066411D01*
X118728233Y-90068734D01*
X118728238Y-90068737D01*
X118892001Y-90145100D01*
X118930757Y-90163172D01*
X118936065Y-90164594D01*
X118936067Y-90164595D01*
X119146598Y-90221007D01*
X119146600Y-90221007D01*
X119151913Y-90222431D01*
X119380000Y-90242386D01*
X119608087Y-90222431D01*
X119613400Y-90221007D01*
X119613402Y-90221007D01*
X119823933Y-90164595D01*
X119823935Y-90164594D01*
X119829243Y-90163172D01*
X119867999Y-90145100D01*
X120031762Y-90068737D01*
X120031767Y-90068734D01*
X120036749Y-90066411D01*
X120141611Y-89992986D01*
X120219789Y-89938245D01*
X120219792Y-89938243D01*
X120224300Y-89935086D01*
X120386198Y-89773188D01*
X120412203Y-89736050D01*
X120514366Y-89590145D01*
X120517523Y-89585637D01*
X120519846Y-89580655D01*
X120519849Y-89580650D01*
X120611961Y-89383113D01*
X120611961Y-89383112D01*
X120614284Y-89378131D01*
X120673543Y-89156975D01*
X120693498Y-88928888D01*
X120673543Y-88700801D01*
X120672119Y-88695486D01*
X120615707Y-88484955D01*
X120615706Y-88484953D01*
X120614284Y-88479645D01*
X120611961Y-88474663D01*
X120519849Y-88277126D01*
X120519846Y-88277121D01*
X120517523Y-88272139D01*
X120513705Y-88266686D01*
X120513541Y-88266202D01*
X120511617Y-88262869D01*
X120512287Y-88262482D01*
X120491012Y-88199414D01*
X120508293Y-88130553D01*
X120531002Y-88105151D01*
X120529731Y-88103880D01*
X120536081Y-88097530D01*
X120543261Y-88092149D01*
X120630615Y-87975593D01*
X120681745Y-87839204D01*
X120688500Y-87777022D01*
X120688500Y-86080754D01*
X120685604Y-86054099D01*
X130210119Y-86054099D01*
X130211098Y-86059796D01*
X130211098Y-86059797D01*
X130245322Y-86258969D01*
X130246301Y-86264666D01*
X130320250Y-86465113D01*
X130323202Y-86470074D01*
X130323202Y-86470075D01*
X130351469Y-86517587D01*
X130429489Y-86648728D01*
X130433295Y-86653068D01*
X130433298Y-86653072D01*
X130534874Y-86768896D01*
X130570360Y-86809360D01*
X130738145Y-86941631D01*
X130743256Y-86944320D01*
X130743259Y-86944322D01*
X130791052Y-86969467D01*
X130927225Y-87041111D01*
X130932746Y-87042825D01*
X130932750Y-87042827D01*
X131125752Y-87102756D01*
X131125757Y-87102757D01*
X131131267Y-87104468D01*
X131161718Y-87108072D01*
X131301055Y-87124564D01*
X131301061Y-87124564D01*
X131304742Y-87125000D01*
X132736196Y-87125000D01*
X132846140Y-87114897D01*
X132889001Y-87110959D01*
X132889003Y-87110959D01*
X132894756Y-87110430D01*
X133038617Y-87069857D01*
X133094828Y-87054004D01*
X133094830Y-87054003D01*
X133100387Y-87052436D01*
X133105563Y-87049884D01*
X133105567Y-87049882D01*
X133286826Y-86960495D01*
X133292007Y-86957940D01*
X133298137Y-86953363D01*
X133458573Y-86833560D01*
X133458574Y-86833559D01*
X133463197Y-86830107D01*
X133479070Y-86812936D01*
X133604305Y-86677457D01*
X133604307Y-86677454D01*
X133608224Y-86673217D01*
X133722232Y-86492525D01*
X133801403Y-86294082D01*
X133802528Y-86288425D01*
X133802530Y-86288419D01*
X133841957Y-86090203D01*
X133841957Y-86090199D01*
X133843084Y-86084535D01*
X133843483Y-86054099D01*
X133845394Y-85908104D01*
X135915787Y-85908104D01*
X135925567Y-86119399D01*
X135926971Y-86125224D01*
X135926971Y-86125225D01*
X135967666Y-86294082D01*
X135975125Y-86325034D01*
X135977607Y-86330492D01*
X135977608Y-86330496D01*
X136021053Y-86426046D01*
X136062674Y-86517587D01*
X136185054Y-86690111D01*
X136337850Y-86836381D01*
X136515548Y-86951120D01*
X136542034Y-86961794D01*
X136706168Y-87027942D01*
X136706171Y-87027943D01*
X136711737Y-87030186D01*
X136919337Y-87070728D01*
X136924899Y-87071000D01*
X137080846Y-87071000D01*
X137238566Y-87055952D01*
X137441534Y-86996408D01*
X137487248Y-86972864D01*
X137624249Y-86902304D01*
X137624252Y-86902302D01*
X137629580Y-86899558D01*
X137795920Y-86768896D01*
X137799852Y-86764365D01*
X137799855Y-86764362D01*
X137930621Y-86613667D01*
X137934552Y-86609137D01*
X137937552Y-86603951D01*
X137937555Y-86603947D01*
X138037467Y-86431242D01*
X138040473Y-86426046D01*
X138109861Y-86226229D01*
X138140213Y-86016896D01*
X138135177Y-85908104D01*
X138415787Y-85908104D01*
X138425567Y-86119399D01*
X138426971Y-86125224D01*
X138426971Y-86125225D01*
X138467666Y-86294082D01*
X138475125Y-86325034D01*
X138477607Y-86330492D01*
X138477608Y-86330496D01*
X138521053Y-86426046D01*
X138562674Y-86517587D01*
X138685054Y-86690111D01*
X138837850Y-86836381D01*
X139015548Y-86951120D01*
X139042034Y-86961794D01*
X139206168Y-87027942D01*
X139206171Y-87027943D01*
X139211737Y-87030186D01*
X139419337Y-87070728D01*
X139424899Y-87071000D01*
X139580846Y-87071000D01*
X139738566Y-87055952D01*
X139941534Y-86996408D01*
X139987248Y-86972864D01*
X140124249Y-86902304D01*
X140124252Y-86902302D01*
X140129580Y-86899558D01*
X140295920Y-86768896D01*
X140299852Y-86764365D01*
X140299855Y-86764362D01*
X140430621Y-86613667D01*
X140434552Y-86609137D01*
X140437552Y-86603951D01*
X140437555Y-86603947D01*
X140537467Y-86431242D01*
X140540473Y-86426046D01*
X140609861Y-86226229D01*
X140640213Y-86016896D01*
X140630433Y-85805601D01*
X140589699Y-85636581D01*
X140582281Y-85605799D01*
X140582280Y-85605797D01*
X140580875Y-85599966D01*
X140563845Y-85562509D01*
X140517185Y-85459887D01*
X140493326Y-85407413D01*
X140370946Y-85234889D01*
X140218150Y-85088619D01*
X140040452Y-84973880D01*
X139980354Y-84949660D01*
X139849832Y-84897058D01*
X139849829Y-84897057D01*
X139844263Y-84894814D01*
X139636663Y-84854272D01*
X139631101Y-84854000D01*
X139475154Y-84854000D01*
X139317434Y-84869048D01*
X139114466Y-84928592D01*
X139109139Y-84931336D01*
X139109138Y-84931336D01*
X138931751Y-85022696D01*
X138931748Y-85022698D01*
X138926420Y-85025442D01*
X138760080Y-85156104D01*
X138756148Y-85160635D01*
X138756145Y-85160638D01*
X138687474Y-85239775D01*
X138621448Y-85315863D01*
X138618448Y-85321049D01*
X138618445Y-85321053D01*
X138571312Y-85402526D01*
X138515527Y-85498954D01*
X138446139Y-85698771D01*
X138445278Y-85704706D01*
X138445278Y-85704708D01*
X138437226Y-85760246D01*
X138415787Y-85908104D01*
X138135177Y-85908104D01*
X138130433Y-85805601D01*
X138089699Y-85636581D01*
X138082281Y-85605799D01*
X138082280Y-85605797D01*
X138080875Y-85599966D01*
X138063845Y-85562509D01*
X138017185Y-85459887D01*
X137993326Y-85407413D01*
X137870946Y-85234889D01*
X137718150Y-85088619D01*
X137540452Y-84973880D01*
X137480354Y-84949660D01*
X137349832Y-84897058D01*
X137349829Y-84897057D01*
X137344263Y-84894814D01*
X137136663Y-84854272D01*
X137131101Y-84854000D01*
X136975154Y-84854000D01*
X136817434Y-84869048D01*
X136614466Y-84928592D01*
X136609139Y-84931336D01*
X136609138Y-84931336D01*
X136431751Y-85022696D01*
X136431748Y-85022698D01*
X136426420Y-85025442D01*
X136260080Y-85156104D01*
X136256148Y-85160635D01*
X136256145Y-85160638D01*
X136187474Y-85239775D01*
X136121448Y-85315863D01*
X136118448Y-85321049D01*
X136118445Y-85321053D01*
X136071312Y-85402526D01*
X136015527Y-85498954D01*
X135946139Y-85698771D01*
X135945278Y-85704706D01*
X135945278Y-85704708D01*
X135937226Y-85760246D01*
X135915787Y-85908104D01*
X133845394Y-85908104D01*
X133845881Y-85870901D01*
X133834661Y-85805601D01*
X133810678Y-85666031D01*
X133810678Y-85666030D01*
X133809699Y-85660334D01*
X133735750Y-85459887D01*
X133707777Y-85412868D01*
X133629467Y-85281240D01*
X133629465Y-85281237D01*
X133626511Y-85276272D01*
X133622705Y-85271932D01*
X133622702Y-85271928D01*
X133489447Y-85119981D01*
X133485640Y-85115640D01*
X133317855Y-84983369D01*
X133312744Y-84980680D01*
X133312741Y-84980678D01*
X133147354Y-84893664D01*
X133128775Y-84883889D01*
X132962115Y-84832140D01*
X132902994Y-84792839D01*
X132874503Y-84727809D01*
X132885693Y-84657700D01*
X132933010Y-84604770D01*
X132965281Y-84590540D01*
X133094828Y-84554004D01*
X133094830Y-84554003D01*
X133100387Y-84552436D01*
X133105563Y-84549884D01*
X133105567Y-84549882D01*
X133286826Y-84460495D01*
X133292007Y-84457940D01*
X133463197Y-84330107D01*
X133479070Y-84312936D01*
X133604305Y-84177457D01*
X133604307Y-84177454D01*
X133608224Y-84173217D01*
X133722232Y-83992525D01*
X133801403Y-83794082D01*
X133802528Y-83788425D01*
X133802530Y-83788419D01*
X133841957Y-83590203D01*
X133841957Y-83590199D01*
X133843084Y-83584535D01*
X133843483Y-83554099D01*
X133845032Y-83435739D01*
X133845881Y-83370901D01*
X133827775Y-83265527D01*
X133810678Y-83166031D01*
X133810678Y-83166030D01*
X133809699Y-83160334D01*
X133735750Y-82959887D01*
X133732391Y-82954241D01*
X133629467Y-82781240D01*
X133629465Y-82781237D01*
X133626511Y-82776272D01*
X133622705Y-82771932D01*
X133622702Y-82771928D01*
X133489447Y-82619981D01*
X133485640Y-82615640D01*
X133317855Y-82483369D01*
X133312744Y-82480680D01*
X133312741Y-82480678D01*
X133145569Y-82392725D01*
X133128775Y-82383889D01*
X133123254Y-82382175D01*
X133123250Y-82382173D01*
X132930248Y-82322244D01*
X132930243Y-82322243D01*
X132924733Y-82320532D01*
X132874360Y-82314570D01*
X132754945Y-82300436D01*
X132754939Y-82300436D01*
X132751258Y-82300000D01*
X132283774Y-82300000D01*
X132215653Y-82279998D01*
X132169160Y-82226342D01*
X132159056Y-82156068D01*
X132188550Y-82091488D01*
X132248305Y-82053095D01*
X132334044Y-82027942D01*
X132441534Y-81996408D01*
X132525111Y-81953363D01*
X132624249Y-81902304D01*
X132624252Y-81902302D01*
X132629580Y-81899558D01*
X132795920Y-81768896D01*
X132799852Y-81764365D01*
X132799855Y-81764362D01*
X132883666Y-81667778D01*
X135866000Y-81667778D01*
X135866266Y-81673567D01*
X135880034Y-81823408D01*
X135882132Y-81834729D01*
X135936962Y-82029143D01*
X135941087Y-82039890D01*
X136030434Y-82221065D01*
X136036446Y-82230874D01*
X136157304Y-82392725D01*
X136165011Y-82401285D01*
X136313349Y-82538407D01*
X136322474Y-82545408D01*
X136493320Y-82653204D01*
X136503564Y-82658424D01*
X136691197Y-82733282D01*
X136702226Y-82736549D01*
X136756232Y-82747291D01*
X136769106Y-82746139D01*
X136773074Y-82733853D01*
X137282000Y-82733853D01*
X137285806Y-82746815D01*
X137300722Y-82748751D01*
X137324339Y-82744693D01*
X137335459Y-82741713D01*
X137524981Y-82671795D01*
X137535359Y-82666845D01*
X137708967Y-82563559D01*
X137718276Y-82556795D01*
X137870157Y-82423600D01*
X137878067Y-82415265D01*
X138003132Y-82256621D01*
X138009403Y-82246964D01*
X138103454Y-82068202D01*
X138107862Y-82057559D01*
X138167765Y-81864643D01*
X138170155Y-81853399D01*
X138189564Y-81689415D01*
X138190000Y-81682012D01*
X138190000Y-81234615D01*
X138185525Y-81219376D01*
X138184135Y-81218171D01*
X138176452Y-81216500D01*
X137300115Y-81216500D01*
X137284876Y-81220975D01*
X137283671Y-81222365D01*
X137282000Y-81230048D01*
X137282000Y-82733853D01*
X136773074Y-82733853D01*
X136774000Y-82730984D01*
X136774000Y-81234615D01*
X136769525Y-81219376D01*
X136768135Y-81218171D01*
X136760452Y-81216500D01*
X135884115Y-81216500D01*
X135868876Y-81220975D01*
X135867671Y-81222365D01*
X135866000Y-81230048D01*
X135866000Y-81667778D01*
X132883666Y-81667778D01*
X132930621Y-81613667D01*
X132934552Y-81609137D01*
X132937552Y-81603951D01*
X132937555Y-81603947D01*
X133037467Y-81431242D01*
X133040473Y-81426046D01*
X133109861Y-81226229D01*
X133110855Y-81219376D01*
X133139352Y-81022836D01*
X133139352Y-81022833D01*
X133140213Y-81016896D01*
X133130433Y-80805601D01*
X133102666Y-80690385D01*
X135866000Y-80690385D01*
X135870475Y-80705624D01*
X135871865Y-80706829D01*
X135879548Y-80708500D01*
X136755885Y-80708500D01*
X136771124Y-80704025D01*
X136772329Y-80702635D01*
X136774000Y-80694952D01*
X136774000Y-80690385D01*
X137282000Y-80690385D01*
X137286475Y-80705624D01*
X137287865Y-80706829D01*
X137295548Y-80708500D01*
X138171885Y-80708500D01*
X138187124Y-80704025D01*
X138188329Y-80702635D01*
X138190000Y-80694952D01*
X138190000Y-80257222D01*
X138189734Y-80251433D01*
X138175966Y-80101592D01*
X138173868Y-80090271D01*
X138119038Y-79895857D01*
X138114913Y-79885110D01*
X138025566Y-79703935D01*
X138019554Y-79694126D01*
X137898696Y-79532275D01*
X137890989Y-79523715D01*
X137742651Y-79386593D01*
X137733526Y-79379592D01*
X137562680Y-79271796D01*
X137552436Y-79266576D01*
X137364803Y-79191718D01*
X137353774Y-79188451D01*
X137299768Y-79177709D01*
X137286894Y-79178861D01*
X137282000Y-79194016D01*
X137282000Y-80690385D01*
X136774000Y-80690385D01*
X136774000Y-79191147D01*
X136770194Y-79178185D01*
X136755278Y-79176249D01*
X136731661Y-79180307D01*
X136720541Y-79183287D01*
X136531019Y-79253205D01*
X136520641Y-79258155D01*
X136347033Y-79361441D01*
X136337724Y-79368205D01*
X136185843Y-79501400D01*
X136177933Y-79509735D01*
X136052868Y-79668379D01*
X136046597Y-79678036D01*
X135952546Y-79856798D01*
X135948138Y-79867441D01*
X135888235Y-80060357D01*
X135885845Y-80071601D01*
X135866436Y-80235585D01*
X135866000Y-80242988D01*
X135866000Y-80690385D01*
X133102666Y-80690385D01*
X133080875Y-80599966D01*
X133069751Y-80575499D01*
X132995806Y-80412868D01*
X132993326Y-80407413D01*
X132886788Y-80257222D01*
X132874412Y-80239775D01*
X132874411Y-80239774D01*
X132870946Y-80234889D01*
X132718150Y-80088619D01*
X132540452Y-79973880D01*
X132472858Y-79946639D01*
X132349832Y-79897058D01*
X132349829Y-79897057D01*
X132344263Y-79894814D01*
X132241083Y-79874664D01*
X132178059Y-79841976D01*
X132142712Y-79780404D01*
X132146265Y-79709496D01*
X132187589Y-79651766D01*
X132253565Y-79625541D01*
X132265233Y-79625000D01*
X132736196Y-79625000D01*
X132846140Y-79614897D01*
X132889001Y-79610959D01*
X132889003Y-79610959D01*
X132894756Y-79610430D01*
X133024771Y-79573762D01*
X133094828Y-79554004D01*
X133094830Y-79554003D01*
X133100387Y-79552436D01*
X133105563Y-79549884D01*
X133105567Y-79549882D01*
X133286826Y-79460495D01*
X133292007Y-79457940D01*
X133313844Y-79441634D01*
X133458573Y-79333560D01*
X133458574Y-79333559D01*
X133463197Y-79330107D01*
X133479070Y-79312936D01*
X133604305Y-79177457D01*
X133604307Y-79177454D01*
X133608224Y-79173217D01*
X133722232Y-78992525D01*
X133801403Y-78794082D01*
X133802528Y-78788425D01*
X133802530Y-78788419D01*
X133841957Y-78590203D01*
X133841957Y-78590199D01*
X133843084Y-78584535D01*
X133843165Y-78578388D01*
X133844786Y-78454500D01*
X133845881Y-78370901D01*
X133838238Y-78326418D01*
X133810678Y-78166031D01*
X133810678Y-78166030D01*
X133809699Y-78160334D01*
X133735750Y-77959887D01*
X133685133Y-77874807D01*
X133629467Y-77781240D01*
X133629465Y-77781237D01*
X133626511Y-77776272D01*
X133622705Y-77771932D01*
X133622702Y-77771928D01*
X133489447Y-77619981D01*
X133485640Y-77615640D01*
X133317855Y-77483369D01*
X133312744Y-77480680D01*
X133312741Y-77480678D01*
X133209443Y-77426330D01*
X133128775Y-77383889D01*
X132962115Y-77332140D01*
X132902994Y-77292839D01*
X132874503Y-77227809D01*
X132885693Y-77157700D01*
X132933010Y-77104770D01*
X132965281Y-77090540D01*
X133094828Y-77054004D01*
X133094830Y-77054003D01*
X133100387Y-77052436D01*
X133105563Y-77049884D01*
X133105567Y-77049882D01*
X133286826Y-76960495D01*
X133292007Y-76957940D01*
X133298137Y-76953363D01*
X133458573Y-76833560D01*
X133458574Y-76833559D01*
X133463197Y-76830107D01*
X133479070Y-76812936D01*
X133604305Y-76677457D01*
X133604307Y-76677454D01*
X133608224Y-76673217D01*
X133722232Y-76492525D01*
X133801403Y-76294082D01*
X133802528Y-76288425D01*
X133802530Y-76288419D01*
X133841957Y-76090203D01*
X133841957Y-76090199D01*
X133843084Y-76084535D01*
X133843483Y-76054099D01*
X133845394Y-75908104D01*
X135915787Y-75908104D01*
X135925567Y-76119399D01*
X135926971Y-76125224D01*
X135926971Y-76125225D01*
X135967666Y-76294082D01*
X135975125Y-76325034D01*
X135977607Y-76330492D01*
X135977608Y-76330496D01*
X136021053Y-76426046D01*
X136062674Y-76517587D01*
X136185054Y-76690111D01*
X136337850Y-76836381D01*
X136515548Y-76951120D01*
X136575646Y-76975340D01*
X136706168Y-77027942D01*
X136706171Y-77027943D01*
X136711737Y-77030186D01*
X136919337Y-77070728D01*
X136924899Y-77071000D01*
X137080846Y-77071000D01*
X137238566Y-77055952D01*
X137441534Y-76996408D01*
X137446862Y-76993664D01*
X137624249Y-76902304D01*
X137624252Y-76902302D01*
X137629580Y-76899558D01*
X137795920Y-76768896D01*
X137799852Y-76764365D01*
X137799855Y-76764362D01*
X137930621Y-76613667D01*
X137934552Y-76609137D01*
X137937552Y-76603951D01*
X137937555Y-76603947D01*
X138037467Y-76431242D01*
X138040473Y-76426046D01*
X138109861Y-76226229D01*
X138140213Y-76016896D01*
X138135177Y-75908104D01*
X138415787Y-75908104D01*
X138425567Y-76119399D01*
X138426971Y-76125224D01*
X138426971Y-76125225D01*
X138467666Y-76294082D01*
X138475125Y-76325034D01*
X138477607Y-76330492D01*
X138477608Y-76330496D01*
X138521053Y-76426046D01*
X138562674Y-76517587D01*
X138685054Y-76690111D01*
X138837850Y-76836381D01*
X139015548Y-76951120D01*
X139075646Y-76975340D01*
X139206168Y-77027942D01*
X139206171Y-77027943D01*
X139211737Y-77030186D01*
X139419337Y-77070728D01*
X139424899Y-77071000D01*
X139580846Y-77071000D01*
X139738566Y-77055952D01*
X139941534Y-76996408D01*
X139946862Y-76993664D01*
X140124249Y-76902304D01*
X140124252Y-76902302D01*
X140129580Y-76899558D01*
X140295920Y-76768896D01*
X140299852Y-76764365D01*
X140299855Y-76764362D01*
X140430621Y-76613667D01*
X140434552Y-76609137D01*
X140437552Y-76603951D01*
X140437555Y-76603947D01*
X140537467Y-76431242D01*
X140540473Y-76426046D01*
X140609861Y-76226229D01*
X140640213Y-76016896D01*
X140630433Y-75805601D01*
X140589699Y-75636581D01*
X140582281Y-75605799D01*
X140582280Y-75605797D01*
X140580875Y-75599966D01*
X140563619Y-75562012D01*
X140517185Y-75459887D01*
X140493326Y-75407413D01*
X140370946Y-75234889D01*
X140230943Y-75100866D01*
X140222480Y-75092764D01*
X140218150Y-75088619D01*
X140040452Y-74973880D01*
X139980354Y-74949660D01*
X139849832Y-74897058D01*
X139849829Y-74897057D01*
X139844263Y-74894814D01*
X139636663Y-74854272D01*
X139631101Y-74854000D01*
X139475154Y-74854000D01*
X139317434Y-74869048D01*
X139114466Y-74928592D01*
X139109139Y-74931336D01*
X139109138Y-74931336D01*
X138931751Y-75022696D01*
X138931748Y-75022698D01*
X138926420Y-75025442D01*
X138760080Y-75156104D01*
X138756148Y-75160635D01*
X138756145Y-75160638D01*
X138687474Y-75239775D01*
X138621448Y-75315863D01*
X138618448Y-75321049D01*
X138618445Y-75321053D01*
X138556811Y-75427592D01*
X138515527Y-75498954D01*
X138446139Y-75698771D01*
X138445278Y-75704706D01*
X138445278Y-75704708D01*
X138417997Y-75892864D01*
X138415787Y-75908104D01*
X138135177Y-75908104D01*
X138130433Y-75805601D01*
X138089699Y-75636581D01*
X138082281Y-75605799D01*
X138082280Y-75605797D01*
X138080875Y-75599966D01*
X138063619Y-75562012D01*
X138017185Y-75459887D01*
X137993326Y-75407413D01*
X137870946Y-75234889D01*
X137730943Y-75100866D01*
X137722480Y-75092764D01*
X137718150Y-75088619D01*
X137540452Y-74973880D01*
X137480354Y-74949660D01*
X137349832Y-74897058D01*
X137349829Y-74897057D01*
X137344263Y-74894814D01*
X137136663Y-74854272D01*
X137131101Y-74854000D01*
X136975154Y-74854000D01*
X136817434Y-74869048D01*
X136614466Y-74928592D01*
X136609139Y-74931336D01*
X136609138Y-74931336D01*
X136431751Y-75022696D01*
X136431748Y-75022698D01*
X136426420Y-75025442D01*
X136260080Y-75156104D01*
X136256148Y-75160635D01*
X136256145Y-75160638D01*
X136187474Y-75239775D01*
X136121448Y-75315863D01*
X136118448Y-75321049D01*
X136118445Y-75321053D01*
X136056811Y-75427592D01*
X136015527Y-75498954D01*
X135946139Y-75698771D01*
X135945278Y-75704706D01*
X135945278Y-75704708D01*
X135917997Y-75892864D01*
X135915787Y-75908104D01*
X133845394Y-75908104D01*
X133845881Y-75870901D01*
X133834661Y-75805601D01*
X133810678Y-75666031D01*
X133810678Y-75666030D01*
X133809699Y-75660334D01*
X133735750Y-75459887D01*
X133706780Y-75411193D01*
X133629467Y-75281240D01*
X133629465Y-75281237D01*
X133626511Y-75276272D01*
X133622705Y-75271932D01*
X133622702Y-75271928D01*
X133489447Y-75119981D01*
X133485640Y-75115640D01*
X133317855Y-74983369D01*
X133312744Y-74980680D01*
X133312741Y-74980678D01*
X133182574Y-74912194D01*
X133128775Y-74883889D01*
X133123254Y-74882175D01*
X133123250Y-74882173D01*
X132930248Y-74822244D01*
X132930243Y-74822243D01*
X132924733Y-74820532D01*
X132874360Y-74814570D01*
X132754945Y-74800436D01*
X132754939Y-74800436D01*
X132751258Y-74800000D01*
X131319804Y-74800000D01*
X131209860Y-74810103D01*
X131166999Y-74814041D01*
X131166997Y-74814041D01*
X131161244Y-74814570D01*
X131044221Y-74847574D01*
X130961172Y-74870996D01*
X130961170Y-74870997D01*
X130955613Y-74872564D01*
X130950437Y-74875116D01*
X130950433Y-74875118D01*
X130792046Y-74953226D01*
X130763993Y-74967060D01*
X130759367Y-74970514D01*
X130759366Y-74970515D01*
X130601205Y-75088619D01*
X130592803Y-75094893D01*
X130588889Y-75099127D01*
X130588887Y-75099129D01*
X130463393Y-75234889D01*
X130447776Y-75251783D01*
X130333768Y-75432475D01*
X130254597Y-75630918D01*
X130253472Y-75636575D01*
X130253470Y-75636581D01*
X130218659Y-75811591D01*
X130212916Y-75840465D01*
X130212840Y-75846240D01*
X130212840Y-75846244D01*
X130212442Y-75876683D01*
X130210119Y-76054099D01*
X130246301Y-76264666D01*
X130320250Y-76465113D01*
X130323202Y-76470074D01*
X130323202Y-76470075D01*
X130351469Y-76517587D01*
X130429489Y-76648728D01*
X130433295Y-76653068D01*
X130433298Y-76653072D01*
X130534874Y-76768896D01*
X130570360Y-76809360D01*
X130738145Y-76941631D01*
X130743256Y-76944320D01*
X130743259Y-76944322D01*
X130762576Y-76954485D01*
X130927225Y-77041111D01*
X131093885Y-77092860D01*
X131153006Y-77132161D01*
X131181497Y-77197191D01*
X131170307Y-77267300D01*
X131122990Y-77320230D01*
X131090719Y-77334460D01*
X130961172Y-77370996D01*
X130961170Y-77370997D01*
X130955613Y-77372564D01*
X130950437Y-77375116D01*
X130950433Y-77375118D01*
X130769174Y-77464505D01*
X130763993Y-77467060D01*
X130592803Y-77594893D01*
X130588889Y-77599127D01*
X130588887Y-77599129D01*
X130573625Y-77615640D01*
X130447776Y-77751783D01*
X130333768Y-77932475D01*
X130254597Y-78130918D01*
X130253472Y-78136575D01*
X130253470Y-78136581D01*
X130216828Y-78320798D01*
X130212916Y-78340465D01*
X130212840Y-78346240D01*
X130212840Y-78346244D01*
X130212442Y-78376683D01*
X130210119Y-78554099D01*
X130211098Y-78559796D01*
X130211098Y-78559797D01*
X130243304Y-78747227D01*
X130246301Y-78764666D01*
X130320250Y-78965113D01*
X130323202Y-78970074D01*
X130323202Y-78970075D01*
X130407967Y-79112552D01*
X130429489Y-79148728D01*
X130433295Y-79153068D01*
X130433298Y-79153072D01*
X130483016Y-79209764D01*
X130570360Y-79309360D01*
X130738145Y-79441631D01*
X130743256Y-79444320D01*
X130743259Y-79444322D01*
X130817033Y-79483136D01*
X130927225Y-79541111D01*
X130932746Y-79542825D01*
X130932750Y-79542827D01*
X131125752Y-79602756D01*
X131125757Y-79602757D01*
X131131267Y-79604468D01*
X131161718Y-79608072D01*
X131301055Y-79624564D01*
X131301061Y-79624564D01*
X131304742Y-79625000D01*
X131772226Y-79625000D01*
X131840347Y-79645002D01*
X131886840Y-79698658D01*
X131896944Y-79768932D01*
X131867450Y-79833512D01*
X131807695Y-79871905D01*
X131762683Y-79885110D01*
X131614466Y-79928592D01*
X131609139Y-79931336D01*
X131609138Y-79931336D01*
X131431751Y-80022696D01*
X131431748Y-80022698D01*
X131426420Y-80025442D01*
X131260080Y-80156104D01*
X131256148Y-80160635D01*
X131256145Y-80160638D01*
X131166922Y-80263459D01*
X131121448Y-80315863D01*
X131118448Y-80321049D01*
X131118445Y-80321053D01*
X131071312Y-80402526D01*
X131015527Y-80498954D01*
X130946139Y-80698771D01*
X130945278Y-80704706D01*
X130945278Y-80704708D01*
X130931832Y-80797447D01*
X130915787Y-80908104D01*
X130925567Y-81119399D01*
X130926971Y-81125224D01*
X130926971Y-81125225D01*
X130969337Y-81301016D01*
X130975125Y-81325034D01*
X130977607Y-81330492D01*
X130977608Y-81330496D01*
X131021053Y-81426046D01*
X131062674Y-81517587D01*
X131145890Y-81634900D01*
X131173319Y-81673567D01*
X131185054Y-81690111D01*
X131337850Y-81836381D01*
X131515548Y-81951120D01*
X131521114Y-81953363D01*
X131706168Y-82027942D01*
X131706171Y-82027943D01*
X131711737Y-82030186D01*
X131791676Y-82045797D01*
X131814917Y-82050336D01*
X131877941Y-82083024D01*
X131913288Y-82144596D01*
X131909735Y-82215504D01*
X131868411Y-82273234D01*
X131802435Y-82299459D01*
X131790767Y-82300000D01*
X131319804Y-82300000D01*
X131209860Y-82310103D01*
X131166999Y-82314041D01*
X131166997Y-82314041D01*
X131161244Y-82314570D01*
X131031229Y-82351238D01*
X130961172Y-82370996D01*
X130961170Y-82370997D01*
X130955613Y-82372564D01*
X130950437Y-82375116D01*
X130950433Y-82375118D01*
X130789462Y-82454500D01*
X130763993Y-82467060D01*
X130759367Y-82470514D01*
X130759366Y-82470515D01*
X130618435Y-82575753D01*
X130592803Y-82594893D01*
X130588889Y-82599127D01*
X130588887Y-82599129D01*
X130457085Y-82741713D01*
X130447776Y-82751783D01*
X130333768Y-82932475D01*
X130254597Y-83130918D01*
X130253472Y-83136575D01*
X130253470Y-83136581D01*
X130215619Y-83326874D01*
X130212916Y-83340465D01*
X130212840Y-83346240D01*
X130212840Y-83346244D01*
X130212442Y-83376683D01*
X130210119Y-83554099D01*
X130246301Y-83764666D01*
X130320250Y-83965113D01*
X130429489Y-84148728D01*
X130433295Y-84153068D01*
X130433298Y-84153072D01*
X130470989Y-84196050D01*
X130570360Y-84309360D01*
X130738145Y-84441631D01*
X130743256Y-84444320D01*
X130743259Y-84444322D01*
X130762576Y-84454485D01*
X130927225Y-84541111D01*
X131093885Y-84592860D01*
X131153006Y-84632161D01*
X131181497Y-84697191D01*
X131170307Y-84767300D01*
X131122990Y-84820230D01*
X131090719Y-84834460D01*
X130961172Y-84870996D01*
X130961170Y-84870997D01*
X130955613Y-84872564D01*
X130950437Y-84875116D01*
X130950433Y-84875118D01*
X130784490Y-84956952D01*
X130763993Y-84967060D01*
X130759367Y-84970514D01*
X130759366Y-84970515D01*
X130601205Y-85088619D01*
X130592803Y-85094893D01*
X130588889Y-85099127D01*
X130588887Y-85099129D01*
X130463393Y-85234889D01*
X130447776Y-85251783D01*
X130333768Y-85432475D01*
X130254597Y-85630918D01*
X130253472Y-85636575D01*
X130253470Y-85636581D01*
X130218659Y-85811591D01*
X130212916Y-85840465D01*
X130212840Y-85846240D01*
X130212840Y-85846244D01*
X130212464Y-85874997D01*
X130210119Y-86054099D01*
X120685604Y-86054099D01*
X120681745Y-86018572D01*
X120630615Y-85882183D01*
X120543261Y-85765627D01*
X120426705Y-85678273D01*
X120290316Y-85627143D01*
X120228134Y-85620388D01*
X120214500Y-85620388D01*
X120146379Y-85600386D01*
X120099886Y-85546730D01*
X120088500Y-85494388D01*
X120088500Y-81759618D01*
X120108502Y-81691497D01*
X120162158Y-81645004D01*
X120232432Y-81634900D01*
X120279770Y-81651842D01*
X120335301Y-81685472D01*
X120342548Y-81687743D01*
X120342550Y-81687744D01*
X120408836Y-81708517D01*
X120498938Y-81736753D01*
X120572365Y-81743500D01*
X120575263Y-81743500D01*
X120904860Y-81743499D01*
X121235634Y-81743499D01*
X121238492Y-81743236D01*
X121238501Y-81743236D01*
X121274004Y-81739974D01*
X121309062Y-81736753D01*
X121315447Y-81734752D01*
X121465450Y-81687744D01*
X121465452Y-81687743D01*
X121472699Y-81685472D01*
X121619381Y-81596639D01*
X121635615Y-81580405D01*
X121697927Y-81546379D01*
X121724710Y-81543500D01*
X122877290Y-81543500D01*
X122945411Y-81563502D01*
X122966385Y-81580405D01*
X122982619Y-81596639D01*
X123129301Y-81685472D01*
X123136548Y-81687743D01*
X123136550Y-81687744D01*
X123202836Y-81708517D01*
X123292938Y-81736753D01*
X123366365Y-81743500D01*
X123369263Y-81743500D01*
X123698860Y-81743499D01*
X124029634Y-81743499D01*
X124032492Y-81743236D01*
X124032501Y-81743236D01*
X124068004Y-81739974D01*
X124103062Y-81736753D01*
X124109447Y-81734752D01*
X124259450Y-81687744D01*
X124259452Y-81687743D01*
X124266699Y-81685472D01*
X124413381Y-81596639D01*
X124534639Y-81475381D01*
X124623472Y-81328699D01*
X124632148Y-81301016D01*
X124653809Y-81231893D01*
X124674753Y-81165062D01*
X124681500Y-81091635D01*
X124681499Y-80578366D01*
X124674753Y-80504938D01*
X124645900Y-80412868D01*
X124625744Y-80348550D01*
X124625743Y-80348548D01*
X124623472Y-80341301D01*
X124534639Y-80194619D01*
X124439115Y-80099095D01*
X124405089Y-80036783D01*
X124410154Y-79965968D01*
X124439115Y-79920905D01*
X124534639Y-79825381D01*
X124623472Y-79678699D01*
X124631913Y-79651766D01*
X124662549Y-79554004D01*
X124674753Y-79515062D01*
X124681500Y-79441635D01*
X124681499Y-78928366D01*
X124681234Y-78925474D01*
X124675364Y-78861592D01*
X124674753Y-78854938D01*
X124658891Y-78804321D01*
X124625744Y-78698550D01*
X124625743Y-78698548D01*
X124623472Y-78691301D01*
X124534639Y-78544619D01*
X124443405Y-78453385D01*
X124409379Y-78391073D01*
X124406500Y-78364290D01*
X124406500Y-78201472D01*
X124426502Y-78133351D01*
X124480158Y-78086858D01*
X124550432Y-78076754D01*
X124567653Y-78080475D01*
X124696604Y-78117939D01*
X124710706Y-78117899D01*
X124714000Y-78110630D01*
X124714000Y-78104878D01*
X125222000Y-78104878D01*
X125225973Y-78118409D01*
X125233871Y-78119544D01*
X125373790Y-78078893D01*
X125388221Y-78072648D01*
X125517676Y-77996090D01*
X125525364Y-77990126D01*
X125591449Y-77964179D01*
X125661072Y-77978080D01*
X125677158Y-77988418D01*
X125681193Y-77992453D01*
X125824399Y-78077145D01*
X125832010Y-78079356D01*
X125832012Y-78079357D01*
X125859625Y-78087379D01*
X125984169Y-78123562D01*
X125990574Y-78124066D01*
X125990579Y-78124067D01*
X126019042Y-78126307D01*
X126019050Y-78126307D01*
X126021498Y-78126500D01*
X126454502Y-78126500D01*
X126456950Y-78126307D01*
X126456958Y-78126307D01*
X126485421Y-78124067D01*
X126485426Y-78124066D01*
X126491831Y-78123562D01*
X126616375Y-78087379D01*
X126643988Y-78079357D01*
X126643990Y-78079356D01*
X126651601Y-78077145D01*
X126680411Y-78060107D01*
X126787980Y-77996491D01*
X126787983Y-77996489D01*
X126794807Y-77992453D01*
X126912453Y-77874807D01*
X126916489Y-77867983D01*
X126916491Y-77867980D01*
X126993108Y-77738427D01*
X126997145Y-77731601D01*
X127043562Y-77571831D01*
X127046500Y-77534502D01*
X127046500Y-75751498D01*
X127043562Y-75714169D01*
X127010383Y-75599966D01*
X126999357Y-75562012D01*
X126999356Y-75562010D01*
X126997145Y-75554399D01*
X126938316Y-75454925D01*
X126916491Y-75418020D01*
X126916489Y-75418017D01*
X126912453Y-75411193D01*
X126794807Y-75293547D01*
X126787983Y-75289511D01*
X126787980Y-75289509D01*
X126658427Y-75212892D01*
X126658428Y-75212892D01*
X126651601Y-75208855D01*
X126643990Y-75206644D01*
X126643988Y-75206643D01*
X126556142Y-75181122D01*
X126491831Y-75162438D01*
X126485426Y-75161934D01*
X126485421Y-75161933D01*
X126456958Y-75159693D01*
X126456950Y-75159693D01*
X126454502Y-75159500D01*
X126021498Y-75159500D01*
X126019050Y-75159693D01*
X126019042Y-75159693D01*
X125990579Y-75161933D01*
X125990574Y-75161934D01*
X125984169Y-75162438D01*
X125919858Y-75181122D01*
X125832012Y-75206643D01*
X125832010Y-75206644D01*
X125824399Y-75208855D01*
X125681193Y-75293547D01*
X125678253Y-75296487D01*
X125613729Y-75321821D01*
X125544106Y-75307920D01*
X125525360Y-75295871D01*
X125517677Y-75289911D01*
X125388221Y-75213352D01*
X125373790Y-75207107D01*
X125239395Y-75168061D01*
X125225294Y-75168101D01*
X125222000Y-75175370D01*
X125222000Y-78104878D01*
X124714000Y-78104878D01*
X124714000Y-75181122D01*
X124710027Y-75167591D01*
X124702129Y-75166456D01*
X124562210Y-75207107D01*
X124547779Y-75213352D01*
X124418324Y-75289910D01*
X124410636Y-75295874D01*
X124344551Y-75321821D01*
X124274928Y-75307920D01*
X124258842Y-75297582D01*
X124254807Y-75293547D01*
X124218252Y-75271928D01*
X124118427Y-75212892D01*
X124118428Y-75212892D01*
X124111601Y-75208855D01*
X124103990Y-75206644D01*
X124103988Y-75206643D01*
X124016142Y-75181122D01*
X123951831Y-75162438D01*
X123945426Y-75161934D01*
X123945421Y-75161933D01*
X123916958Y-75159693D01*
X123916950Y-75159693D01*
X123914502Y-75159500D01*
X123481498Y-75159500D01*
X123479050Y-75159693D01*
X123479042Y-75159693D01*
X123450579Y-75161933D01*
X123450574Y-75161934D01*
X123444169Y-75162438D01*
X123379858Y-75181122D01*
X123292012Y-75206643D01*
X123292010Y-75206644D01*
X123284399Y-75208855D01*
X123141193Y-75293547D01*
X123138511Y-75296229D01*
X123074139Y-75321502D01*
X123004516Y-75307600D01*
X122988688Y-75297428D01*
X122984807Y-75293547D01*
X122841601Y-75208855D01*
X122833990Y-75206644D01*
X122833988Y-75206643D01*
X122746142Y-75181122D01*
X122681831Y-75162438D01*
X122675426Y-75161934D01*
X122675421Y-75161933D01*
X122646958Y-75159693D01*
X122646950Y-75159693D01*
X122644502Y-75159500D01*
X122480798Y-75159500D01*
X122412677Y-75139498D01*
X122391703Y-75122595D01*
X121373068Y-74103960D01*
X121367214Y-74097695D01*
X121366819Y-74097242D01*
X121329179Y-74054095D01*
X121276898Y-74017351D01*
X121271604Y-74013419D01*
X121227311Y-73978689D01*
X121221336Y-73974004D01*
X121214420Y-73970881D01*
X121212134Y-73969497D01*
X121197453Y-73961123D01*
X121195093Y-73959858D01*
X121188879Y-73955490D01*
X121181800Y-73952730D01*
X121181798Y-73952729D01*
X121129343Y-73932278D01*
X121123274Y-73929727D01*
X121065045Y-73903435D01*
X121057578Y-73902051D01*
X121055023Y-73901250D01*
X121038770Y-73896621D01*
X121036190Y-73895958D01*
X121029109Y-73893198D01*
X121021578Y-73892207D01*
X121021576Y-73892206D01*
X120991957Y-73888307D01*
X120965757Y-73884858D01*
X120959259Y-73883828D01*
X120896432Y-73872184D01*
X120888852Y-73872621D01*
X120888851Y-73872621D01*
X120834226Y-73875771D01*
X120826972Y-73875980D01*
X118801180Y-73875980D01*
X118733059Y-73855978D01*
X118712085Y-73839075D01*
X118663885Y-73790875D01*
X118629859Y-73728563D01*
X118626980Y-73701780D01*
X118626980Y-73611956D01*
X130781502Y-73611956D01*
X130787959Y-73621316D01*
X130809977Y-73640624D01*
X130816519Y-73645644D01*
X131062082Y-73809724D01*
X131069219Y-73813845D01*
X131334106Y-73944472D01*
X131341710Y-73947622D01*
X131621382Y-74042558D01*
X131629334Y-74044689D01*
X131919010Y-74102309D01*
X131927168Y-74103383D01*
X132221881Y-74122699D01*
X132230119Y-74122699D01*
X132524832Y-74103383D01*
X132532990Y-74102309D01*
X132822666Y-74044689D01*
X132830618Y-74042558D01*
X133110290Y-73947622D01*
X133117894Y-73944472D01*
X133382781Y-73813845D01*
X133389918Y-73809724D01*
X133635481Y-73645644D01*
X133642023Y-73640624D01*
X133662175Y-73622952D01*
X133670572Y-73609715D01*
X133664738Y-73599949D01*
X132238810Y-72174020D01*
X132224869Y-72166408D01*
X132223034Y-72166539D01*
X132216420Y-72170790D01*
X130789016Y-73598195D01*
X130781502Y-73611956D01*
X118626980Y-73611956D01*
X118626980Y-73301999D01*
X118646982Y-73233878D01*
X118700638Y-73187385D01*
X118752980Y-73175999D01*
X118831984Y-73175999D01*
X118836920Y-73175805D01*
X118865336Y-73173570D01*
X118877931Y-73171270D01*
X119023790Y-73128893D01*
X119038221Y-73122648D01*
X119167676Y-73046090D01*
X119175364Y-73040126D01*
X119241449Y-73014179D01*
X119311072Y-73028080D01*
X119327158Y-73038418D01*
X119331193Y-73042453D01*
X119474399Y-73127145D01*
X119482010Y-73129356D01*
X119482012Y-73129357D01*
X119485957Y-73130503D01*
X119634169Y-73173562D01*
X119640574Y-73174066D01*
X119640579Y-73174067D01*
X119669042Y-73176307D01*
X119669050Y-73176307D01*
X119671498Y-73176500D01*
X120104502Y-73176500D01*
X120106950Y-73176307D01*
X120106958Y-73176307D01*
X120135421Y-73174067D01*
X120135426Y-73174066D01*
X120141831Y-73173562D01*
X120290043Y-73130503D01*
X120293988Y-73129357D01*
X120293990Y-73129356D01*
X120301601Y-73127145D01*
X120444807Y-73042453D01*
X120447747Y-73039513D01*
X120512271Y-73014179D01*
X120581894Y-73028080D01*
X120600640Y-73040129D01*
X120608323Y-73046089D01*
X120737779Y-73122648D01*
X120752210Y-73128893D01*
X120886605Y-73167939D01*
X120900706Y-73167899D01*
X120904000Y-73160630D01*
X120904000Y-73154878D01*
X121412000Y-73154878D01*
X121415973Y-73168409D01*
X121423871Y-73169544D01*
X121563790Y-73128893D01*
X121578221Y-73122648D01*
X121707676Y-73046090D01*
X121715364Y-73040126D01*
X121781449Y-73014179D01*
X121851072Y-73028080D01*
X121867158Y-73038418D01*
X121871193Y-73042453D01*
X122014399Y-73127145D01*
X122022010Y-73129356D01*
X122022012Y-73129357D01*
X122025957Y-73130503D01*
X122174169Y-73173562D01*
X122180574Y-73174066D01*
X122180579Y-73174067D01*
X122209042Y-73176307D01*
X122209050Y-73176307D01*
X122211498Y-73176500D01*
X122644502Y-73176500D01*
X122646950Y-73176307D01*
X122646958Y-73176307D01*
X122675421Y-73174067D01*
X122675426Y-73174066D01*
X122681831Y-73173562D01*
X122830043Y-73130503D01*
X122833988Y-73129357D01*
X122833990Y-73129356D01*
X122841601Y-73127145D01*
X122984807Y-73042453D01*
X122987747Y-73039513D01*
X123052271Y-73014179D01*
X123121894Y-73028080D01*
X123140640Y-73040129D01*
X123148323Y-73046089D01*
X123277779Y-73122648D01*
X123292210Y-73128893D01*
X123426605Y-73167939D01*
X123440706Y-73167899D01*
X123444000Y-73160630D01*
X123444000Y-73154878D01*
X123952000Y-73154878D01*
X123955973Y-73168409D01*
X123963871Y-73169544D01*
X124103790Y-73128893D01*
X124118221Y-73122648D01*
X124247676Y-73046090D01*
X124255364Y-73040126D01*
X124321449Y-73014179D01*
X124391072Y-73028080D01*
X124407158Y-73038418D01*
X124411193Y-73042453D01*
X124554399Y-73127145D01*
X124562010Y-73129356D01*
X124562012Y-73129357D01*
X124565957Y-73130503D01*
X124714169Y-73173562D01*
X124720574Y-73174066D01*
X124720579Y-73174067D01*
X124749042Y-73176307D01*
X124749050Y-73176307D01*
X124751498Y-73176500D01*
X125184502Y-73176500D01*
X125186950Y-73176307D01*
X125186958Y-73176307D01*
X125215421Y-73174067D01*
X125215426Y-73174066D01*
X125221831Y-73173562D01*
X125370043Y-73130503D01*
X125373988Y-73129357D01*
X125373990Y-73129356D01*
X125381601Y-73127145D01*
X125524807Y-73042453D01*
X125527747Y-73039513D01*
X125592271Y-73014179D01*
X125661894Y-73028080D01*
X125680640Y-73040129D01*
X125688323Y-73046089D01*
X125817779Y-73122648D01*
X125832210Y-73128893D01*
X125966605Y-73167939D01*
X125980706Y-73167899D01*
X125984000Y-73160630D01*
X125984000Y-73154878D01*
X126492000Y-73154878D01*
X126495973Y-73168409D01*
X126503871Y-73169544D01*
X126643790Y-73128893D01*
X126658221Y-73122648D01*
X126787678Y-73046089D01*
X126800104Y-73036449D01*
X126906449Y-72930104D01*
X126916089Y-72917678D01*
X126992648Y-72788221D01*
X126998893Y-72773790D01*
X127041269Y-72627935D01*
X127043570Y-72615333D01*
X127045807Y-72586916D01*
X127046000Y-72581986D01*
X127046000Y-71965115D01*
X127041525Y-71949876D01*
X127040135Y-71948671D01*
X127032452Y-71947000D01*
X126510115Y-71947000D01*
X126494876Y-71951475D01*
X126493671Y-71952865D01*
X126492000Y-71960548D01*
X126492000Y-73154878D01*
X125984000Y-73154878D01*
X125984000Y-71806119D01*
X129905301Y-71806119D01*
X129924617Y-72100832D01*
X129925691Y-72108990D01*
X129983311Y-72398666D01*
X129985442Y-72406618D01*
X130080375Y-72686281D01*
X130083530Y-72693900D01*
X130214156Y-72958781D01*
X130218277Y-72965919D01*
X130382356Y-73211481D01*
X130387376Y-73218023D01*
X130405048Y-73238175D01*
X130418285Y-73246572D01*
X130428051Y-73240738D01*
X131853980Y-71814810D01*
X131860357Y-71803131D01*
X132590408Y-71803131D01*
X132590539Y-71804966D01*
X132594790Y-71811580D01*
X134022195Y-73238984D01*
X134035956Y-73246498D01*
X134045316Y-73240041D01*
X134064624Y-73218023D01*
X134069644Y-73211481D01*
X134233723Y-72965919D01*
X134237844Y-72958781D01*
X134368470Y-72693900D01*
X134371625Y-72686281D01*
X134466558Y-72406618D01*
X134468689Y-72398666D01*
X134526309Y-72108990D01*
X134527383Y-72100832D01*
X134546699Y-71806119D01*
X134546699Y-71797881D01*
X134527383Y-71503168D01*
X134526309Y-71495010D01*
X134468689Y-71205334D01*
X134466558Y-71197382D01*
X134371625Y-70917719D01*
X134368470Y-70910100D01*
X134237844Y-70645219D01*
X134233723Y-70638081D01*
X134069644Y-70392519D01*
X134064624Y-70385977D01*
X134046952Y-70365825D01*
X134033715Y-70357428D01*
X134023949Y-70363262D01*
X132598020Y-71789190D01*
X132590408Y-71803131D01*
X131860357Y-71803131D01*
X131861592Y-71800869D01*
X131861461Y-71799034D01*
X131857210Y-71792420D01*
X130429805Y-70365016D01*
X130416044Y-70357502D01*
X130406684Y-70363959D01*
X130387376Y-70385977D01*
X130382356Y-70392519D01*
X130218277Y-70638081D01*
X130214156Y-70645219D01*
X130083530Y-70910100D01*
X130080375Y-70917719D01*
X129985442Y-71197382D01*
X129983311Y-71205334D01*
X129925691Y-71495010D01*
X129924617Y-71503168D01*
X129905301Y-71797881D01*
X129905301Y-71806119D01*
X125984000Y-71806119D01*
X125984000Y-71420885D01*
X126492000Y-71420885D01*
X126496475Y-71436124D01*
X126497865Y-71437329D01*
X126505548Y-71439000D01*
X127027884Y-71439000D01*
X127043123Y-71434525D01*
X127044328Y-71433135D01*
X127045999Y-71425452D01*
X127045999Y-70804017D01*
X127045805Y-70799080D01*
X127043570Y-70770664D01*
X127041270Y-70758069D01*
X126998893Y-70612210D01*
X126992648Y-70597779D01*
X126916089Y-70468322D01*
X126906449Y-70455896D01*
X126800104Y-70349551D01*
X126787678Y-70339911D01*
X126658221Y-70263352D01*
X126643790Y-70257107D01*
X126509395Y-70218061D01*
X126495294Y-70218101D01*
X126492000Y-70225370D01*
X126492000Y-71420885D01*
X125984000Y-71420885D01*
X125984000Y-70231122D01*
X125980027Y-70217591D01*
X125972129Y-70216456D01*
X125832210Y-70257107D01*
X125817779Y-70263352D01*
X125688324Y-70339910D01*
X125680636Y-70345874D01*
X125614551Y-70371821D01*
X125544928Y-70357920D01*
X125528842Y-70347582D01*
X125524807Y-70343547D01*
X125381601Y-70258855D01*
X125373990Y-70256644D01*
X125373988Y-70256643D01*
X125286142Y-70231122D01*
X125221831Y-70212438D01*
X125215426Y-70211934D01*
X125215421Y-70211933D01*
X125186958Y-70209693D01*
X125186950Y-70209693D01*
X125184502Y-70209500D01*
X124751498Y-70209500D01*
X124749050Y-70209693D01*
X124749042Y-70209693D01*
X124720579Y-70211933D01*
X124720574Y-70211934D01*
X124714169Y-70212438D01*
X124649858Y-70231122D01*
X124562012Y-70256643D01*
X124562010Y-70256644D01*
X124554399Y-70258855D01*
X124411193Y-70343547D01*
X124408253Y-70346487D01*
X124343729Y-70371821D01*
X124274106Y-70357920D01*
X124255360Y-70345871D01*
X124247677Y-70339911D01*
X124118221Y-70263352D01*
X124103790Y-70257107D01*
X123969395Y-70218061D01*
X123955294Y-70218101D01*
X123952000Y-70225370D01*
X123952000Y-73154878D01*
X123444000Y-73154878D01*
X123444000Y-70231122D01*
X123440027Y-70217591D01*
X123432129Y-70216456D01*
X123292210Y-70257107D01*
X123277779Y-70263352D01*
X123148324Y-70339910D01*
X123140636Y-70345874D01*
X123074551Y-70371821D01*
X123004928Y-70357920D01*
X122988842Y-70347582D01*
X122984807Y-70343547D01*
X122841601Y-70258855D01*
X122833990Y-70256644D01*
X122833988Y-70256643D01*
X122746142Y-70231122D01*
X122681831Y-70212438D01*
X122675426Y-70211934D01*
X122675421Y-70211933D01*
X122646958Y-70209693D01*
X122646950Y-70209693D01*
X122644502Y-70209500D01*
X122211498Y-70209500D01*
X122209050Y-70209693D01*
X122209042Y-70209693D01*
X122180579Y-70211933D01*
X122180574Y-70211934D01*
X122174169Y-70212438D01*
X122109858Y-70231122D01*
X122022012Y-70256643D01*
X122022010Y-70256644D01*
X122014399Y-70258855D01*
X121871193Y-70343547D01*
X121868253Y-70346487D01*
X121803729Y-70371821D01*
X121734106Y-70357920D01*
X121715360Y-70345871D01*
X121707677Y-70339911D01*
X121578221Y-70263352D01*
X121563790Y-70257107D01*
X121429395Y-70218061D01*
X121415294Y-70218101D01*
X121412000Y-70225370D01*
X121412000Y-73154878D01*
X120904000Y-73154878D01*
X120904000Y-70231122D01*
X120900027Y-70217591D01*
X120892129Y-70216456D01*
X120752210Y-70257107D01*
X120737779Y-70263352D01*
X120608324Y-70339910D01*
X120600636Y-70345874D01*
X120534551Y-70371821D01*
X120464928Y-70357920D01*
X120448842Y-70347582D01*
X120444807Y-70343547D01*
X120301601Y-70258855D01*
X120293990Y-70256644D01*
X120293988Y-70256643D01*
X120206142Y-70231122D01*
X120141831Y-70212438D01*
X120135426Y-70211934D01*
X120135421Y-70211933D01*
X120106958Y-70209693D01*
X120106950Y-70209693D01*
X120104502Y-70209500D01*
X119671498Y-70209500D01*
X119669050Y-70209693D01*
X119669042Y-70209693D01*
X119640579Y-70211933D01*
X119640574Y-70211934D01*
X119634169Y-70212438D01*
X119569858Y-70231122D01*
X119482012Y-70256643D01*
X119482010Y-70256644D01*
X119474399Y-70258855D01*
X119331193Y-70343547D01*
X119328253Y-70346487D01*
X119263729Y-70371821D01*
X119194106Y-70357920D01*
X119175360Y-70345871D01*
X119167677Y-70339911D01*
X119038221Y-70263352D01*
X119023790Y-70257107D01*
X118877935Y-70214731D01*
X118865333Y-70212430D01*
X118836915Y-70210193D01*
X118831987Y-70210000D01*
X118718999Y-70210001D01*
X118650878Y-70190000D01*
X118604385Y-70136344D01*
X118602028Y-70130098D01*
X118601722Y-70128346D01*
X118576041Y-70069842D01*
X118573549Y-70063735D01*
X118553653Y-70011082D01*
X118553653Y-70011081D01*
X118550967Y-70003974D01*
X118546664Y-69997713D01*
X118545427Y-69995347D01*
X118544836Y-69994285D01*
X130781428Y-69994285D01*
X130787262Y-70004051D01*
X132213190Y-71429980D01*
X132227131Y-71437592D01*
X132228966Y-71437461D01*
X132235580Y-71433210D01*
X133662984Y-70005805D01*
X133670498Y-69992044D01*
X133664041Y-69982684D01*
X133642023Y-69963376D01*
X133635481Y-69958356D01*
X133389918Y-69794276D01*
X133382781Y-69790155D01*
X133117894Y-69659528D01*
X133110290Y-69656378D01*
X132830618Y-69561442D01*
X132822666Y-69559311D01*
X132532990Y-69501691D01*
X132524832Y-69500617D01*
X132230119Y-69481301D01*
X132221881Y-69481301D01*
X131927168Y-69500617D01*
X131919010Y-69501691D01*
X131629334Y-69559311D01*
X131621382Y-69561442D01*
X131341719Y-69656375D01*
X131334100Y-69659530D01*
X131069219Y-69790156D01*
X131062081Y-69794277D01*
X130816519Y-69958356D01*
X130809977Y-69963376D01*
X130789825Y-69981048D01*
X130781428Y-69994285D01*
X118544836Y-69994285D01*
X118537200Y-69980567D01*
X118535849Y-69978282D01*
X118532795Y-69971325D01*
X118528175Y-69965305D01*
X118528172Y-69965299D01*
X118493901Y-69920639D01*
X118490021Y-69915298D01*
X118458141Y-69868910D01*
X118458136Y-69868905D01*
X118453837Y-69862649D01*
X118407309Y-69821194D01*
X118402034Y-69816214D01*
X117197776Y-68611956D01*
X135281502Y-68611956D01*
X135287959Y-68621316D01*
X135309977Y-68640624D01*
X135316519Y-68645644D01*
X135562082Y-68809724D01*
X135569219Y-68813845D01*
X135834106Y-68944472D01*
X135841710Y-68947622D01*
X136121382Y-69042558D01*
X136129334Y-69044689D01*
X136419010Y-69102309D01*
X136427168Y-69103383D01*
X136721881Y-69122699D01*
X136730119Y-69122699D01*
X137024832Y-69103383D01*
X137032990Y-69102309D01*
X137322666Y-69044689D01*
X137330618Y-69042558D01*
X137610290Y-68947622D01*
X137617894Y-68944472D01*
X137882781Y-68813845D01*
X137889918Y-68809724D01*
X138135481Y-68645644D01*
X138142023Y-68640624D01*
X138162175Y-68622952D01*
X138170572Y-68609715D01*
X138164738Y-68599949D01*
X136738810Y-67174020D01*
X136724869Y-67166408D01*
X136723034Y-67166539D01*
X136716420Y-67170790D01*
X135289016Y-68598195D01*
X135281502Y-68611956D01*
X117197776Y-68611956D01*
X115803415Y-67217595D01*
X115769389Y-67155283D01*
X115774454Y-67084468D01*
X115817001Y-67027632D01*
X115883521Y-67002821D01*
X115892510Y-67002500D01*
X118449768Y-67002500D01*
X118458338Y-67002792D01*
X118508456Y-67006209D01*
X118508460Y-67006209D01*
X118516032Y-67006725D01*
X118523509Y-67005420D01*
X118523510Y-67005420D01*
X118549988Y-67000799D01*
X118578983Y-66995738D01*
X118585501Y-66994777D01*
X118648922Y-66987102D01*
X118656023Y-66984419D01*
X118658632Y-66983778D01*
X118674942Y-66979315D01*
X118677478Y-66978550D01*
X118684964Y-66977243D01*
X118743480Y-66951556D01*
X118749584Y-66949065D01*
X118802228Y-66929173D01*
X118802229Y-66929172D01*
X118809336Y-66926487D01*
X118815599Y-66922183D01*
X118817965Y-66920946D01*
X118832777Y-66912701D01*
X118835031Y-66911368D01*
X118841985Y-66908315D01*
X118892682Y-66869413D01*
X118898012Y-66865541D01*
X118944400Y-66833661D01*
X118944405Y-66833656D01*
X118950661Y-66829357D01*
X118986449Y-66789190D01*
X118992115Y-66782830D01*
X118997096Y-66777554D01*
X119019467Y-66755183D01*
X130438112Y-66755183D01*
X130438336Y-66759850D01*
X130438336Y-66759855D01*
X130440821Y-66811580D01*
X130450830Y-67019963D01*
X130463661Y-67084468D01*
X130490142Y-67217595D01*
X130502546Y-67279956D01*
X130504125Y-67284354D01*
X130504127Y-67284361D01*
X130545167Y-67398666D01*
X130592123Y-67529449D01*
X130717594Y-67762961D01*
X130876201Y-67975362D01*
X130879510Y-67978642D01*
X130879515Y-67978648D01*
X130982430Y-68080668D01*
X131064462Y-68161987D01*
X131068224Y-68164745D01*
X131068227Y-68164748D01*
X131178918Y-68245910D01*
X131278239Y-68318735D01*
X131282382Y-68320915D01*
X131282384Y-68320916D01*
X131508687Y-68439980D01*
X131508692Y-68439982D01*
X131512837Y-68442163D01*
X131517260Y-68443708D01*
X131517261Y-68443708D01*
X131661998Y-68494252D01*
X131763102Y-68529559D01*
X131767695Y-68530431D01*
X132018947Y-68578133D01*
X132018950Y-68578133D01*
X132023536Y-68579004D01*
X132149411Y-68583950D01*
X132283750Y-68589228D01*
X132283755Y-68589228D01*
X132288418Y-68589411D01*
X132391397Y-68578133D01*
X132547275Y-68561062D01*
X132547280Y-68561061D01*
X132551928Y-68560552D01*
X132675506Y-68528017D01*
X132803756Y-68494252D01*
X132803759Y-68494251D01*
X132808279Y-68493061D01*
X132819968Y-68488039D01*
X133047544Y-68390265D01*
X133047546Y-68390264D01*
X133051838Y-68388420D01*
X133151458Y-68326773D01*
X133273282Y-68251387D01*
X133273286Y-68251384D01*
X133277255Y-68248928D01*
X133479577Y-68077649D01*
X133553812Y-67993000D01*
X133651278Y-67881862D01*
X133651281Y-67881857D01*
X133654360Y-67878347D01*
X133797765Y-67655399D01*
X133906641Y-67413703D01*
X133976349Y-67166539D01*
X133977326Y-67163074D01*
X133977327Y-67163071D01*
X133978596Y-67158570D01*
X133999383Y-66995174D01*
X134011652Y-66898733D01*
X134011652Y-66898729D01*
X134012050Y-66895603D01*
X134014393Y-66806119D01*
X134405301Y-66806119D01*
X134424617Y-67100832D01*
X134425691Y-67108990D01*
X134483311Y-67398666D01*
X134485442Y-67406618D01*
X134580375Y-67686281D01*
X134583530Y-67693900D01*
X134714156Y-67958781D01*
X134718277Y-67965919D01*
X134882356Y-68211481D01*
X134887376Y-68218023D01*
X134905048Y-68238175D01*
X134918285Y-68246572D01*
X134928051Y-68240738D01*
X136353980Y-66814810D01*
X136360357Y-66803131D01*
X137090408Y-66803131D01*
X137090539Y-66804966D01*
X137094790Y-66811580D01*
X138522195Y-68238984D01*
X138535956Y-68246498D01*
X138545316Y-68240041D01*
X138564624Y-68218023D01*
X138569644Y-68211481D01*
X138733723Y-67965919D01*
X138737844Y-67958781D01*
X138868470Y-67693900D01*
X138871625Y-67686281D01*
X138966558Y-67406618D01*
X138968689Y-67398666D01*
X139026309Y-67108990D01*
X139027383Y-67100832D01*
X139046699Y-66806119D01*
X139046699Y-66797881D01*
X139027383Y-66503168D01*
X139026309Y-66495010D01*
X138968689Y-66205334D01*
X138966558Y-66197382D01*
X138871625Y-65917719D01*
X138868470Y-65910100D01*
X138737844Y-65645219D01*
X138733723Y-65638081D01*
X138569644Y-65392519D01*
X138564624Y-65385977D01*
X138546952Y-65365825D01*
X138533715Y-65357428D01*
X138523949Y-65363262D01*
X137098020Y-66789190D01*
X137090408Y-66803131D01*
X136360357Y-66803131D01*
X136361592Y-66800869D01*
X136361461Y-66799034D01*
X136357210Y-66792420D01*
X134929805Y-65365016D01*
X134916044Y-65357502D01*
X134906684Y-65363959D01*
X134887376Y-65385977D01*
X134882356Y-65392519D01*
X134718277Y-65638081D01*
X134714156Y-65645219D01*
X134583530Y-65910100D01*
X134580375Y-65917719D01*
X134485442Y-66197382D01*
X134483311Y-66205334D01*
X134425691Y-66495010D01*
X134424617Y-66503168D01*
X134405301Y-66797881D01*
X134405301Y-66806119D01*
X134014393Y-66806119D01*
X134014501Y-66802000D01*
X133994856Y-66537643D01*
X133936352Y-66279093D01*
X133934659Y-66274739D01*
X133841968Y-66036383D01*
X133841967Y-66036380D01*
X133840275Y-66032030D01*
X133708735Y-65801883D01*
X133544621Y-65593706D01*
X133351540Y-65412074D01*
X133133733Y-65260975D01*
X133129543Y-65258909D01*
X133129540Y-65258907D01*
X132900172Y-65145796D01*
X132900169Y-65145795D01*
X132895984Y-65143731D01*
X132643517Y-65062915D01*
X132499876Y-65039522D01*
X132386490Y-65021056D01*
X132386489Y-65021056D01*
X132381878Y-65020305D01*
X132249346Y-65018570D01*
X132121492Y-65016896D01*
X132121489Y-65016896D01*
X132116815Y-65016835D01*
X131854150Y-65052582D01*
X131849660Y-65053891D01*
X131849654Y-65053892D01*
X131741430Y-65085437D01*
X131599654Y-65126761D01*
X131595407Y-65128719D01*
X131595404Y-65128720D01*
X131565930Y-65142308D01*
X131358918Y-65237742D01*
X131355009Y-65240305D01*
X131141143Y-65380521D01*
X131141138Y-65380525D01*
X131137230Y-65383087D01*
X130939460Y-65559603D01*
X130769954Y-65763412D01*
X130632434Y-65990038D01*
X130529922Y-66234500D01*
X130528771Y-66239032D01*
X130528770Y-66239035D01*
X130518597Y-66279093D01*
X130464670Y-66491430D01*
X130438112Y-66755183D01*
X119019467Y-66755183D01*
X120780365Y-64994285D01*
X135281428Y-64994285D01*
X135287262Y-65004051D01*
X136713190Y-66429980D01*
X136727131Y-66437592D01*
X136728966Y-66437461D01*
X136735580Y-66433210D01*
X138162984Y-65005805D01*
X138170498Y-64992044D01*
X138164041Y-64982684D01*
X138142023Y-64963376D01*
X138135481Y-64958356D01*
X137889918Y-64794276D01*
X137882781Y-64790155D01*
X137617894Y-64659528D01*
X137610290Y-64656378D01*
X137330618Y-64561442D01*
X137322666Y-64559311D01*
X137032990Y-64501691D01*
X137024832Y-64500617D01*
X136730119Y-64481301D01*
X136721881Y-64481301D01*
X136427168Y-64500617D01*
X136419010Y-64501691D01*
X136129334Y-64559311D01*
X136121382Y-64561442D01*
X135841719Y-64656375D01*
X135834100Y-64659530D01*
X135569219Y-64790156D01*
X135562081Y-64794277D01*
X135316519Y-64958356D01*
X135309977Y-64963376D01*
X135289825Y-64981048D01*
X135281428Y-64994285D01*
X120780365Y-64994285D01*
X120914031Y-64860619D01*
X120920296Y-64854765D01*
X120958171Y-64821724D01*
X120963896Y-64816730D01*
X121000625Y-64764469D01*
X121004557Y-64759174D01*
X121039302Y-64714863D01*
X121043988Y-64708887D01*
X121047113Y-64701965D01*
X121048475Y-64699717D01*
X121056879Y-64684984D01*
X121058133Y-64682645D01*
X121062501Y-64676430D01*
X121065260Y-64669354D01*
X121065262Y-64669350D01*
X121085713Y-64616895D01*
X121088269Y-64610815D01*
X121111429Y-64559520D01*
X121114556Y-64552595D01*
X121115940Y-64545124D01*
X121116741Y-64542570D01*
X121121378Y-64526291D01*
X121122034Y-64523736D01*
X121124793Y-64516660D01*
X121133132Y-64453318D01*
X121134164Y-64446802D01*
X121144423Y-64391449D01*
X121145807Y-64383982D01*
X121142220Y-64321771D01*
X121142011Y-64314518D01*
X121142011Y-63705740D01*
X121142303Y-63697170D01*
X121145720Y-63647055D01*
X121145720Y-63647051D01*
X121146236Y-63639479D01*
X121141432Y-63611956D01*
X130781502Y-63611956D01*
X130787959Y-63621316D01*
X130809977Y-63640624D01*
X130816519Y-63645644D01*
X131062082Y-63809724D01*
X131069219Y-63813845D01*
X131334106Y-63944472D01*
X131341710Y-63947622D01*
X131621382Y-64042558D01*
X131629334Y-64044689D01*
X131919010Y-64102309D01*
X131927168Y-64103383D01*
X132221881Y-64122699D01*
X132230119Y-64122699D01*
X132524832Y-64103383D01*
X132532990Y-64102309D01*
X132822666Y-64044689D01*
X132830618Y-64042558D01*
X133110290Y-63947622D01*
X133117894Y-63944472D01*
X133382781Y-63813845D01*
X133389918Y-63809724D01*
X133635481Y-63645644D01*
X133642023Y-63640624D01*
X133662175Y-63622952D01*
X133670572Y-63609715D01*
X133664738Y-63599949D01*
X132238810Y-62174020D01*
X132224869Y-62166408D01*
X132223034Y-62166539D01*
X132216420Y-62170790D01*
X130789016Y-63598195D01*
X130781502Y-63611956D01*
X121141432Y-63611956D01*
X121135249Y-63576528D01*
X121134287Y-63570006D01*
X121127525Y-63514129D01*
X121126613Y-63506589D01*
X121123930Y-63499488D01*
X121123289Y-63496879D01*
X121118826Y-63480569D01*
X121118061Y-63478033D01*
X121116754Y-63470547D01*
X121091067Y-63412031D01*
X121088576Y-63405927D01*
X121068684Y-63353283D01*
X121068683Y-63353282D01*
X121065998Y-63346175D01*
X121061694Y-63339912D01*
X121060457Y-63337546D01*
X121052212Y-63322734D01*
X121050879Y-63320480D01*
X121047826Y-63313526D01*
X121008924Y-63262829D01*
X121005052Y-63257499D01*
X120973172Y-63211111D01*
X120973167Y-63211106D01*
X120968868Y-63204850D01*
X120922340Y-63163395D01*
X120917065Y-63158415D01*
X119564769Y-61806119D01*
X129905301Y-61806119D01*
X129924617Y-62100832D01*
X129925691Y-62108990D01*
X129983311Y-62398666D01*
X129985442Y-62406618D01*
X130080375Y-62686281D01*
X130083530Y-62693900D01*
X130214156Y-62958781D01*
X130218277Y-62965919D01*
X130382356Y-63211481D01*
X130387376Y-63218023D01*
X130405048Y-63238175D01*
X130418285Y-63246572D01*
X130428051Y-63240738D01*
X131853980Y-61814810D01*
X131860357Y-61803131D01*
X132590408Y-61803131D01*
X132590539Y-61804966D01*
X132594790Y-61811580D01*
X134022195Y-63238984D01*
X134035956Y-63246498D01*
X134045316Y-63240041D01*
X134064624Y-63218023D01*
X134069644Y-63211481D01*
X134233723Y-62965919D01*
X134237844Y-62958781D01*
X134368470Y-62693900D01*
X134371625Y-62686281D01*
X134466558Y-62406618D01*
X134468689Y-62398666D01*
X134526309Y-62108990D01*
X134527383Y-62100832D01*
X134546699Y-61806119D01*
X134546699Y-61797881D01*
X134527383Y-61503168D01*
X134526309Y-61495010D01*
X134468689Y-61205334D01*
X134466558Y-61197382D01*
X134371625Y-60917719D01*
X134368470Y-60910100D01*
X134237844Y-60645219D01*
X134233723Y-60638081D01*
X134069644Y-60392519D01*
X134064624Y-60385977D01*
X134046952Y-60365825D01*
X134033715Y-60357428D01*
X134023949Y-60363262D01*
X132598020Y-61789190D01*
X132590408Y-61803131D01*
X131860357Y-61803131D01*
X131861592Y-61800869D01*
X131861461Y-61799034D01*
X131857210Y-61792420D01*
X130429805Y-60365016D01*
X130416044Y-60357502D01*
X130406684Y-60363959D01*
X130387376Y-60385977D01*
X130382356Y-60392519D01*
X130218277Y-60638081D01*
X130214156Y-60645219D01*
X130083530Y-60910100D01*
X130080375Y-60917719D01*
X129985442Y-61197382D01*
X129983311Y-61205334D01*
X129925691Y-61495010D01*
X129924617Y-61503168D01*
X129905301Y-61797881D01*
X129905301Y-61806119D01*
X119564769Y-61806119D01*
X118346130Y-60587480D01*
X118340276Y-60581215D01*
X118339881Y-60580762D01*
X118302241Y-60537615D01*
X118249960Y-60500871D01*
X118244666Y-60496939D01*
X118200373Y-60462209D01*
X118194398Y-60457524D01*
X118187482Y-60454401D01*
X118185196Y-60453017D01*
X118170515Y-60444643D01*
X118168155Y-60443378D01*
X118161941Y-60439010D01*
X118154862Y-60436250D01*
X118154860Y-60436249D01*
X118102405Y-60415798D01*
X118096336Y-60413247D01*
X118038107Y-60386955D01*
X118030640Y-60385571D01*
X118028085Y-60384770D01*
X118011832Y-60380141D01*
X118009252Y-60379478D01*
X118002171Y-60376718D01*
X117994640Y-60375727D01*
X117994638Y-60375726D01*
X117965019Y-60371827D01*
X117938819Y-60368378D01*
X117932321Y-60367348D01*
X117869494Y-60355704D01*
X117861914Y-60356141D01*
X117861913Y-60356141D01*
X117807288Y-60359291D01*
X117800034Y-60359500D01*
X114112000Y-60359500D01*
X114043879Y-60339498D01*
X113997386Y-60285842D01*
X113986000Y-60233500D01*
X113986000Y-60096533D01*
X113979245Y-60034351D01*
X113964225Y-59994285D01*
X130781428Y-59994285D01*
X130787262Y-60004051D01*
X132213190Y-61429980D01*
X132227131Y-61437592D01*
X132228966Y-61437461D01*
X132235580Y-61433210D01*
X133662984Y-60005805D01*
X133670498Y-59992044D01*
X133664041Y-59982684D01*
X133642023Y-59963376D01*
X133635481Y-59958356D01*
X133389918Y-59794276D01*
X133382781Y-59790155D01*
X133117894Y-59659528D01*
X133110290Y-59656378D01*
X132830618Y-59561442D01*
X132822666Y-59559311D01*
X132532990Y-59501691D01*
X132524832Y-59500617D01*
X132230119Y-59481301D01*
X132221881Y-59481301D01*
X131927168Y-59500617D01*
X131919010Y-59501691D01*
X131629334Y-59559311D01*
X131621382Y-59561442D01*
X131341719Y-59656375D01*
X131334100Y-59659530D01*
X131069219Y-59790156D01*
X131062081Y-59794277D01*
X130816519Y-59958356D01*
X130809977Y-59963376D01*
X130789825Y-59981048D01*
X130781428Y-59994285D01*
X113964225Y-59994285D01*
X113928115Y-59897962D01*
X113840761Y-59781406D01*
X113833581Y-59776025D01*
X113829651Y-59772095D01*
X113795625Y-59709783D01*
X113800690Y-59638968D01*
X113829651Y-59593905D01*
X113833581Y-59589975D01*
X113840761Y-59584594D01*
X113928115Y-59468038D01*
X113979245Y-59331649D01*
X113986000Y-59269467D01*
X113986000Y-57326533D01*
X113979245Y-57264351D01*
X113928115Y-57127962D01*
X113840761Y-57011406D01*
X113724205Y-56924052D01*
X113587816Y-56872922D01*
X113525634Y-56866167D01*
X110362000Y-56866167D01*
X110293879Y-56846165D01*
X110247386Y-56792509D01*
X110236000Y-56740167D01*
X110236000Y-56651134D01*
X114607500Y-56651134D01*
X114614255Y-56713316D01*
X114665385Y-56849705D01*
X114752739Y-56966261D01*
X114869295Y-57053615D01*
X115005684Y-57104745D01*
X115067866Y-57111500D01*
X116864134Y-57111500D01*
X116926316Y-57104745D01*
X117062705Y-57053615D01*
X117179261Y-56966261D01*
X117266615Y-56849705D01*
X117307679Y-56740167D01*
X117310598Y-56732382D01*
X117353240Y-56675618D01*
X117419802Y-56650918D01*
X117489150Y-56666126D01*
X117523817Y-56694114D01*
X117552250Y-56726938D01*
X117724126Y-56869632D01*
X117917000Y-56982338D01*
X118125692Y-57062030D01*
X118130760Y-57063061D01*
X118130763Y-57063062D01*
X118238017Y-57084883D01*
X118344597Y-57106567D01*
X118349772Y-57106757D01*
X118349774Y-57106757D01*
X118562673Y-57114564D01*
X118562677Y-57114564D01*
X118567837Y-57114753D01*
X118572957Y-57114097D01*
X118572959Y-57114097D01*
X118784288Y-57087025D01*
X118784289Y-57087025D01*
X118789416Y-57086368D01*
X118794366Y-57084883D01*
X118998429Y-57023661D01*
X118998434Y-57023659D01*
X119003384Y-57022174D01*
X119203994Y-56923896D01*
X119385860Y-56794173D01*
X119544096Y-56636489D01*
X119674453Y-56455077D01*
X119675776Y-56456028D01*
X119722645Y-56412857D01*
X119792580Y-56400625D01*
X119858026Y-56428144D01*
X119885875Y-56459994D01*
X119945987Y-56558088D01*
X120092250Y-56726938D01*
X120264126Y-56869632D01*
X120457000Y-56982338D01*
X120665692Y-57062030D01*
X120670760Y-57063061D01*
X120670763Y-57063062D01*
X120778017Y-57084883D01*
X120884597Y-57106567D01*
X120889772Y-57106757D01*
X120889774Y-57106757D01*
X121102673Y-57114564D01*
X121102677Y-57114564D01*
X121107837Y-57114753D01*
X121112957Y-57114097D01*
X121112959Y-57114097D01*
X121324288Y-57087025D01*
X121324289Y-57087025D01*
X121329416Y-57086368D01*
X121334366Y-57084883D01*
X121538429Y-57023661D01*
X121538434Y-57023659D01*
X121543384Y-57022174D01*
X121743994Y-56923896D01*
X121925860Y-56794173D01*
X122084096Y-56636489D01*
X122214453Y-56455077D01*
X122235320Y-56412857D01*
X122311136Y-56259453D01*
X122311137Y-56259451D01*
X122313430Y-56254811D01*
X122364710Y-56086029D01*
X122376865Y-56046023D01*
X122376865Y-56046021D01*
X122378370Y-56041069D01*
X122407529Y-55819590D01*
X122407611Y-55816240D01*
X122409074Y-55756365D01*
X122409074Y-55756361D01*
X122409156Y-55753000D01*
X122390852Y-55530361D01*
X122336431Y-55313702D01*
X122247354Y-55108840D01*
X122126014Y-54921277D01*
X121975670Y-54756051D01*
X121971619Y-54752852D01*
X121971615Y-54752848D01*
X121804414Y-54620800D01*
X121804410Y-54620798D01*
X121800359Y-54617598D01*
X121604789Y-54509638D01*
X121599920Y-54507914D01*
X121599916Y-54507912D01*
X121399087Y-54436795D01*
X121399083Y-54436794D01*
X121394212Y-54435069D01*
X121389119Y-54434162D01*
X121389116Y-54434161D01*
X121179373Y-54396800D01*
X121179367Y-54396799D01*
X121174284Y-54395894D01*
X121100452Y-54394992D01*
X120956081Y-54393228D01*
X120956079Y-54393228D01*
X120950911Y-54393165D01*
X120730091Y-54426955D01*
X120517756Y-54496357D01*
X120319607Y-54599507D01*
X120315474Y-54602610D01*
X120315471Y-54602612D01*
X120206140Y-54684700D01*
X120140965Y-54733635D01*
X120137393Y-54737373D01*
X120016162Y-54864234D01*
X119986629Y-54895138D01*
X119879201Y-55052621D01*
X119824293Y-55097621D01*
X119753768Y-55105792D01*
X119690021Y-55074538D01*
X119669324Y-55050054D01*
X119588822Y-54925617D01*
X119588820Y-54925614D01*
X119586014Y-54921277D01*
X119435670Y-54756051D01*
X119431619Y-54752852D01*
X119431615Y-54752848D01*
X119264414Y-54620800D01*
X119264410Y-54620798D01*
X119260359Y-54617598D01*
X119064789Y-54509638D01*
X119059920Y-54507914D01*
X119059916Y-54507912D01*
X118859087Y-54436795D01*
X118859083Y-54436794D01*
X118854212Y-54435069D01*
X118849119Y-54434162D01*
X118849116Y-54434161D01*
X118639373Y-54396800D01*
X118639367Y-54396799D01*
X118634284Y-54395894D01*
X118560452Y-54394992D01*
X118416081Y-54393228D01*
X118416079Y-54393228D01*
X118410911Y-54393165D01*
X118190091Y-54426955D01*
X117977756Y-54496357D01*
X117779607Y-54599507D01*
X117775474Y-54602610D01*
X117775471Y-54602612D01*
X117666140Y-54684700D01*
X117600965Y-54733635D01*
X117544537Y-54792684D01*
X117520283Y-54818064D01*
X117458759Y-54853494D01*
X117387846Y-54850037D01*
X117330060Y-54808791D01*
X117311207Y-54775243D01*
X117269767Y-54664703D01*
X117266615Y-54656295D01*
X117179261Y-54539739D01*
X117062705Y-54452385D01*
X116926316Y-54401255D01*
X116864134Y-54394500D01*
X115067866Y-54394500D01*
X115005684Y-54401255D01*
X114869295Y-54452385D01*
X114752739Y-54539739D01*
X114665385Y-54656295D01*
X114614255Y-54792684D01*
X114607500Y-54854866D01*
X114607500Y-56651134D01*
X110236000Y-56651134D01*
X110236000Y-54101000D01*
X110256002Y-54032879D01*
X110309658Y-53986386D01*
X110362000Y-53975000D01*
X135462672Y-53975000D01*
X135482057Y-53976500D01*
G37*
G04 #@! TD.AperFunction*
M02*
