G04 #@! TF.GenerationSoftware,KiCad,Pcbnew,(6.0.0)*
G04 #@! TF.CreationDate,2022-11-09T00:51:05-05:00*
G04 #@! TF.ProjectId,Arrington 4 voice equivalent SMD,41727269-6e67-4746-9f6e-203420766f69,rev?*
G04 #@! TF.SameCoordinates,Original*
G04 #@! TF.FileFunction,Legend,Top*
G04 #@! TF.FilePolarity,Positive*
%FSLAX46Y46*%
G04 Gerber Fmt 4.6, Leading zero omitted, Abs format (unit mm)*
G04 Created by KiCad (PCBNEW (6.0.0)) date 2022-11-09 00:51:05*
%MOMM*%
%LPD*%
G01*
G04 APERTURE LIST*
G04 Aperture macros list*
%AMRoundRect*
0 Rectangle with rounded corners*
0 $1 Rounding radius*
0 $2 $3 $4 $5 $6 $7 $8 $9 X,Y pos of 4 corners*
0 Add a 4 corners polygon primitive as box body*
4,1,4,$2,$3,$4,$5,$6,$7,$8,$9,$2,$3,0*
0 Add four circle primitives for the rounded corners*
1,1,$1+$1,$2,$3*
1,1,$1+$1,$4,$5*
1,1,$1+$1,$6,$7*
1,1,$1+$1,$8,$9*
0 Add four rect primitives between the rounded corners*
20,1,$1+$1,$2,$3,$4,$5,0*
20,1,$1+$1,$4,$5,$6,$7,0*
20,1,$1+$1,$6,$7,$8,$9,0*
20,1,$1+$1,$8,$9,$2,$3,0*%
G04 Aperture macros list end*
%ADD10C,0.150000*%
%ADD11C,0.120000*%
%ADD12C,0.127000*%
%ADD13C,0.400000*%
%ADD14RoundRect,0.200000X0.275000X-0.200000X0.275000X0.200000X-0.275000X0.200000X-0.275000X-0.200000X0*%
%ADD15C,3.616000*%
%ADD16C,2.550000*%
%ADD17RoundRect,0.200000X-0.275000X0.200000X-0.275000X-0.200000X0.275000X-0.200000X0.275000X0.200000X0*%
%ADD18RoundRect,0.150000X0.150000X-0.825000X0.150000X0.825000X-0.150000X0.825000X-0.150000X-0.825000X0*%
%ADD19C,1.200000*%
%ADD20O,1.308000X2.616000*%
%ADD21O,2.616000X1.308000*%
%ADD22RoundRect,0.200000X0.200000X0.275000X-0.200000X0.275000X-0.200000X-0.275000X0.200000X-0.275000X0*%
%ADD23R,3.480000X1.846667*%
%ADD24R,1.700000X1.700000*%
%ADD25O,1.700000X1.700000*%
%ADD26RoundRect,0.225000X-0.250000X0.225000X-0.250000X-0.225000X0.250000X-0.225000X0.250000X0.225000X0*%
%ADD27R,1.600000X1.600000*%
%ADD28C,1.600000*%
G04 APERTURE END LIST*
D10*
X137064476Y-90459000D02*
X137159714Y-90506619D01*
X137302571Y-90506619D01*
X137445428Y-90459000D01*
X137540666Y-90363761D01*
X137588285Y-90268523D01*
X137635904Y-90078047D01*
X137635904Y-89935190D01*
X137588285Y-89744714D01*
X137540666Y-89649476D01*
X137445428Y-89554238D01*
X137302571Y-89506619D01*
X137207333Y-89506619D01*
X137064476Y-89554238D01*
X137016857Y-89601857D01*
X137016857Y-89935190D01*
X137207333Y-89935190D01*
X136207333Y-89554238D02*
X136302571Y-89506619D01*
X136493047Y-89506619D01*
X136588285Y-89554238D01*
X136635904Y-89649476D01*
X136635904Y-90030428D01*
X136588285Y-90125666D01*
X136493047Y-90173285D01*
X136302571Y-90173285D01*
X136207333Y-90125666D01*
X136159714Y-90030428D01*
X136159714Y-89935190D01*
X136635904Y-89839952D01*
X135731142Y-90173285D02*
X135731142Y-89506619D01*
X135731142Y-90078047D02*
X135683523Y-90125666D01*
X135588285Y-90173285D01*
X135445428Y-90173285D01*
X135350190Y-90125666D01*
X135302571Y-90030428D01*
X135302571Y-89506619D01*
X134397809Y-90173285D02*
X134397809Y-89506619D01*
X134826380Y-90173285D02*
X134826380Y-89649476D01*
X134778761Y-89554238D01*
X134683523Y-89506619D01*
X134540666Y-89506619D01*
X134445428Y-89554238D01*
X134397809Y-89601857D01*
X133921619Y-89506619D02*
X133921619Y-90173285D01*
X133921619Y-90506619D02*
X133969238Y-90459000D01*
X133921619Y-90411380D01*
X133874000Y-90459000D01*
X133921619Y-90506619D01*
X133921619Y-90411380D01*
X133445428Y-90173285D02*
X133445428Y-89506619D01*
X133445428Y-90078047D02*
X133397809Y-90125666D01*
X133302571Y-90173285D01*
X133159714Y-90173285D01*
X133064476Y-90125666D01*
X133016857Y-90030428D01*
X133016857Y-89506619D01*
X132159714Y-89554238D02*
X132254952Y-89506619D01*
X132445428Y-89506619D01*
X132540666Y-89554238D01*
X132588285Y-89649476D01*
X132588285Y-90030428D01*
X132540666Y-90125666D01*
X132445428Y-90173285D01*
X132254952Y-90173285D01*
X132159714Y-90125666D01*
X132112095Y-90030428D01*
X132112095Y-89935190D01*
X132588285Y-89839952D01*
X139469238Y-87896619D02*
X139469238Y-88896619D01*
X139135904Y-88182333D01*
X138802571Y-88896619D01*
X138802571Y-87896619D01*
X138183523Y-87896619D02*
X138278761Y-87944238D01*
X138326380Y-87991857D01*
X138374000Y-88087095D01*
X138374000Y-88372809D01*
X138326380Y-88468047D01*
X138278761Y-88515666D01*
X138183523Y-88563285D01*
X138040666Y-88563285D01*
X137945428Y-88515666D01*
X137897809Y-88468047D01*
X137850190Y-88372809D01*
X137850190Y-88087095D01*
X137897809Y-87991857D01*
X137945428Y-87944238D01*
X138040666Y-87896619D01*
X138183523Y-87896619D01*
X137421619Y-88563285D02*
X137421619Y-87896619D01*
X137421619Y-88468047D02*
X137374000Y-88515666D01*
X137278761Y-88563285D01*
X137135904Y-88563285D01*
X137040666Y-88515666D01*
X136993047Y-88420428D01*
X136993047Y-87896619D01*
X136374000Y-87896619D02*
X136469238Y-87944238D01*
X136516857Y-87991857D01*
X136564476Y-88087095D01*
X136564476Y-88372809D01*
X136516857Y-88468047D01*
X136469238Y-88515666D01*
X136374000Y-88563285D01*
X136231142Y-88563285D01*
X136135904Y-88515666D01*
X136088285Y-88468047D01*
X136040666Y-88372809D01*
X136040666Y-88087095D01*
X136088285Y-87991857D01*
X136135904Y-87944238D01*
X136231142Y-87896619D01*
X136374000Y-87896619D01*
X134897809Y-87944238D02*
X134754952Y-87896619D01*
X134516857Y-87896619D01*
X134421619Y-87944238D01*
X134374000Y-87991857D01*
X134326380Y-88087095D01*
X134326380Y-88182333D01*
X134374000Y-88277571D01*
X134421619Y-88325190D01*
X134516857Y-88372809D01*
X134707333Y-88420428D01*
X134802571Y-88468047D01*
X134850190Y-88515666D01*
X134897809Y-88610904D01*
X134897809Y-88706142D01*
X134850190Y-88801380D01*
X134802571Y-88849000D01*
X134707333Y-88896619D01*
X134469238Y-88896619D01*
X134326380Y-88849000D01*
X133754952Y-87896619D02*
X133850190Y-87944238D01*
X133897809Y-87991857D01*
X133945428Y-88087095D01*
X133945428Y-88372809D01*
X133897809Y-88468047D01*
X133850190Y-88515666D01*
X133754952Y-88563285D01*
X133612095Y-88563285D01*
X133516857Y-88515666D01*
X133469238Y-88468047D01*
X133421619Y-88372809D01*
X133421619Y-88087095D01*
X133469238Y-87991857D01*
X133516857Y-87944238D01*
X133612095Y-87896619D01*
X133754952Y-87896619D01*
X132564476Y-88563285D02*
X132564476Y-87896619D01*
X132993047Y-88563285D02*
X132993047Y-88039476D01*
X132945428Y-87944238D01*
X132850190Y-87896619D01*
X132707333Y-87896619D01*
X132612095Y-87944238D01*
X132564476Y-87991857D01*
X132088285Y-88563285D02*
X132088285Y-87896619D01*
X132088285Y-88468047D02*
X132040666Y-88515666D01*
X131945428Y-88563285D01*
X131802571Y-88563285D01*
X131707333Y-88515666D01*
X131659714Y-88420428D01*
X131659714Y-87896619D01*
X130754952Y-87896619D02*
X130754952Y-88896619D01*
X130754952Y-87944238D02*
X130850190Y-87896619D01*
X131040666Y-87896619D01*
X131135904Y-87944238D01*
X131183523Y-87991857D01*
X131231142Y-88087095D01*
X131231142Y-88372809D01*
X131183523Y-88468047D01*
X131135904Y-88515666D01*
X131040666Y-88563285D01*
X130850190Y-88563285D01*
X130754952Y-88515666D01*
X130278761Y-87991857D02*
X130231142Y-87944238D01*
X130278761Y-87896619D01*
X130326380Y-87944238D01*
X130278761Y-87991857D01*
X130278761Y-87896619D01*
X130278761Y-88277571D02*
X130326380Y-88849000D01*
X130278761Y-88896619D01*
X130231142Y-88849000D01*
X130278761Y-88277571D01*
X130278761Y-88896619D01*
X120531000Y-60594714D02*
X120483380Y-60689952D01*
X120483380Y-60832809D01*
X120531000Y-60975666D01*
X120626238Y-61070904D01*
X120721476Y-61118523D01*
X120911952Y-61166142D01*
X121054809Y-61166142D01*
X121245285Y-61118523D01*
X121340523Y-61070904D01*
X121435761Y-60975666D01*
X121483380Y-60832809D01*
X121483380Y-60737571D01*
X121435761Y-60594714D01*
X121388142Y-60547095D01*
X121054809Y-60547095D01*
X121054809Y-60737571D01*
X121483380Y-59689952D02*
X120959571Y-59689952D01*
X120864333Y-59737571D01*
X120816714Y-59832809D01*
X120816714Y-60023285D01*
X120864333Y-60118523D01*
X121435761Y-59689952D02*
X121483380Y-59785190D01*
X121483380Y-60023285D01*
X121435761Y-60118523D01*
X121340523Y-60166142D01*
X121245285Y-60166142D01*
X121150047Y-60118523D01*
X121102428Y-60023285D01*
X121102428Y-59785190D01*
X121054809Y-59689952D01*
X121483380Y-59213761D02*
X120816714Y-59213761D01*
X120911952Y-59213761D02*
X120864333Y-59166142D01*
X120816714Y-59070904D01*
X120816714Y-58928047D01*
X120864333Y-58832809D01*
X120959571Y-58785190D01*
X121483380Y-58785190D01*
X120959571Y-58785190D02*
X120864333Y-58737571D01*
X120816714Y-58642333D01*
X120816714Y-58499476D01*
X120864333Y-58404238D01*
X120959571Y-58356619D01*
X121483380Y-58356619D01*
X121435761Y-57499476D02*
X121483380Y-57594714D01*
X121483380Y-57785190D01*
X121435761Y-57880428D01*
X121340523Y-57928047D01*
X120959571Y-57928047D01*
X120864333Y-57880428D01*
X120816714Y-57785190D01*
X120816714Y-57594714D01*
X120864333Y-57499476D01*
X120959571Y-57451857D01*
X121054809Y-57451857D01*
X121150047Y-57928047D01*
X138635428Y-57534333D02*
X138159238Y-57534333D01*
X138730666Y-57248619D02*
X138397333Y-58248619D01*
X138064000Y-57248619D01*
X137730666Y-57248619D02*
X137730666Y-57915285D01*
X137730666Y-57724809D02*
X137683047Y-57820047D01*
X137635428Y-57867666D01*
X137540190Y-57915285D01*
X137444952Y-57915285D01*
X137111619Y-57248619D02*
X137111619Y-57915285D01*
X137111619Y-57724809D02*
X137064000Y-57820047D01*
X137016380Y-57867666D01*
X136921142Y-57915285D01*
X136825904Y-57915285D01*
X136492571Y-57248619D02*
X136492571Y-57915285D01*
X136492571Y-58248619D02*
X136540190Y-58201000D01*
X136492571Y-58153380D01*
X136444952Y-58201000D01*
X136492571Y-58248619D01*
X136492571Y-58153380D01*
X136016380Y-57915285D02*
X136016380Y-57248619D01*
X136016380Y-57820047D02*
X135968761Y-57867666D01*
X135873523Y-57915285D01*
X135730666Y-57915285D01*
X135635428Y-57867666D01*
X135587809Y-57772428D01*
X135587809Y-57248619D01*
X134683047Y-57915285D02*
X134683047Y-57105761D01*
X134730666Y-57010523D01*
X134778285Y-56962904D01*
X134873523Y-56915285D01*
X135016380Y-56915285D01*
X135111619Y-56962904D01*
X134683047Y-57296238D02*
X134778285Y-57248619D01*
X134968761Y-57248619D01*
X135064000Y-57296238D01*
X135111619Y-57343857D01*
X135159238Y-57439095D01*
X135159238Y-57724809D01*
X135111619Y-57820047D01*
X135064000Y-57867666D01*
X134968761Y-57915285D01*
X134778285Y-57915285D01*
X134683047Y-57867666D01*
X134349714Y-57915285D02*
X133968761Y-57915285D01*
X134206857Y-58248619D02*
X134206857Y-57391476D01*
X134159238Y-57296238D01*
X134064000Y-57248619D01*
X133968761Y-57248619D01*
X133492571Y-57248619D02*
X133587809Y-57296238D01*
X133635428Y-57343857D01*
X133683047Y-57439095D01*
X133683047Y-57724809D01*
X133635428Y-57820047D01*
X133587809Y-57867666D01*
X133492571Y-57915285D01*
X133349714Y-57915285D01*
X133254476Y-57867666D01*
X133206857Y-57820047D01*
X133159238Y-57724809D01*
X133159238Y-57439095D01*
X133206857Y-57343857D01*
X133254476Y-57296238D01*
X133349714Y-57248619D01*
X133492571Y-57248619D01*
X132730666Y-57915285D02*
X132730666Y-57248619D01*
X132730666Y-57820047D02*
X132683047Y-57867666D01*
X132587809Y-57915285D01*
X132444952Y-57915285D01*
X132349714Y-57867666D01*
X132302095Y-57772428D01*
X132302095Y-57248619D01*
X130730666Y-57772428D02*
X131064000Y-57772428D01*
X131064000Y-57248619D02*
X131064000Y-58248619D01*
X130587809Y-58248619D01*
X130064000Y-57248619D02*
X130159238Y-57296238D01*
X130206857Y-57343857D01*
X130254476Y-57439095D01*
X130254476Y-57724809D01*
X130206857Y-57820047D01*
X130159238Y-57867666D01*
X130064000Y-57915285D01*
X129921142Y-57915285D01*
X129825904Y-57867666D01*
X129778285Y-57820047D01*
X129730666Y-57724809D01*
X129730666Y-57439095D01*
X129778285Y-57343857D01*
X129825904Y-57296238D01*
X129921142Y-57248619D01*
X130064000Y-57248619D01*
X128873523Y-57915285D02*
X128873523Y-57248619D01*
X129302095Y-57915285D02*
X129302095Y-57391476D01*
X129254476Y-57296238D01*
X129159238Y-57248619D01*
X129016380Y-57248619D01*
X128921142Y-57296238D01*
X128873523Y-57343857D01*
X128397333Y-57248619D02*
X128397333Y-57915285D01*
X128397333Y-57724809D02*
X128349714Y-57820047D01*
X128302095Y-57867666D01*
X128206857Y-57915285D01*
X128111619Y-57915285D01*
X127159238Y-58248619D02*
X126825904Y-57248619D01*
X126492571Y-58248619D01*
X126016380Y-57248619D02*
X126111619Y-57296238D01*
X126159238Y-57343857D01*
X126206857Y-57439095D01*
X126206857Y-57724809D01*
X126159238Y-57820047D01*
X126111619Y-57867666D01*
X126016380Y-57915285D01*
X125873523Y-57915285D01*
X125778285Y-57867666D01*
X125730666Y-57820047D01*
X125683047Y-57724809D01*
X125683047Y-57439095D01*
X125730666Y-57343857D01*
X125778285Y-57296238D01*
X125873523Y-57248619D01*
X126016380Y-57248619D01*
X125254476Y-57248619D02*
X125254476Y-57915285D01*
X125254476Y-58248619D02*
X125302095Y-58201000D01*
X125254476Y-58153380D01*
X125206857Y-58201000D01*
X125254476Y-58248619D01*
X125254476Y-58153380D01*
X124349714Y-57296238D02*
X124444952Y-57248619D01*
X124635428Y-57248619D01*
X124730666Y-57296238D01*
X124778285Y-57343857D01*
X124825904Y-57439095D01*
X124825904Y-57724809D01*
X124778285Y-57820047D01*
X124730666Y-57867666D01*
X124635428Y-57915285D01*
X124444952Y-57915285D01*
X124349714Y-57867666D01*
X123540190Y-57296238D02*
X123635428Y-57248619D01*
X123825904Y-57248619D01*
X123921142Y-57296238D01*
X123968761Y-57391476D01*
X123968761Y-57772428D01*
X123921142Y-57867666D01*
X123825904Y-57915285D01*
X123635428Y-57915285D01*
X123540190Y-57867666D01*
X123492571Y-57772428D01*
X123492571Y-57677190D01*
X123968761Y-57581952D01*
X135944952Y-55638619D02*
X135944952Y-56638619D01*
X135611619Y-55924333D01*
X135278285Y-56638619D01*
X135278285Y-55638619D01*
X134373523Y-56305285D02*
X134373523Y-55638619D01*
X134802095Y-56305285D02*
X134802095Y-55781476D01*
X134754476Y-55686238D01*
X134659238Y-55638619D01*
X134516380Y-55638619D01*
X134421142Y-55686238D01*
X134373523Y-55733857D01*
X133944952Y-55686238D02*
X133849714Y-55638619D01*
X133659238Y-55638619D01*
X133564000Y-55686238D01*
X133516380Y-55781476D01*
X133516380Y-55829095D01*
X133564000Y-55924333D01*
X133659238Y-55971952D01*
X133802095Y-55971952D01*
X133897333Y-56019571D01*
X133944952Y-56114809D01*
X133944952Y-56162428D01*
X133897333Y-56257666D01*
X133802095Y-56305285D01*
X133659238Y-56305285D01*
X133564000Y-56257666D01*
X133087809Y-55638619D02*
X133087809Y-56305285D01*
X133087809Y-56638619D02*
X133135428Y-56591000D01*
X133087809Y-56543380D01*
X133040190Y-56591000D01*
X133087809Y-56638619D01*
X133087809Y-56543380D01*
X132183047Y-55686238D02*
X132278285Y-55638619D01*
X132468761Y-55638619D01*
X132564000Y-55686238D01*
X132611619Y-55733857D01*
X132659238Y-55829095D01*
X132659238Y-56114809D01*
X132611619Y-56210047D01*
X132564000Y-56257666D01*
X132468761Y-56305285D01*
X132278285Y-56305285D01*
X132183047Y-56257666D01*
X131040190Y-55686238D02*
X130897333Y-55638619D01*
X130659238Y-55638619D01*
X130564000Y-55686238D01*
X130516380Y-55733857D01*
X130468761Y-55829095D01*
X130468761Y-55924333D01*
X130516380Y-56019571D01*
X130564000Y-56067190D01*
X130659238Y-56114809D01*
X130849714Y-56162428D01*
X130944952Y-56210047D01*
X130992571Y-56257666D01*
X131040190Y-56352904D01*
X131040190Y-56448142D01*
X130992571Y-56543380D01*
X130944952Y-56591000D01*
X130849714Y-56638619D01*
X130611619Y-56638619D01*
X130468761Y-56591000D01*
X130135428Y-56305285D02*
X129897333Y-55638619D01*
X129659238Y-56305285D02*
X129897333Y-55638619D01*
X129992571Y-55400523D01*
X130040190Y-55352904D01*
X130135428Y-55305285D01*
X129325904Y-55686238D02*
X129230666Y-55638619D01*
X129040190Y-55638619D01*
X128944952Y-55686238D01*
X128897333Y-55781476D01*
X128897333Y-55829095D01*
X128944952Y-55924333D01*
X129040190Y-55971952D01*
X129183047Y-55971952D01*
X129278285Y-56019571D01*
X129325904Y-56114809D01*
X129325904Y-56162428D01*
X129278285Y-56257666D01*
X129183047Y-56305285D01*
X129040190Y-56305285D01*
X128944952Y-56257666D01*
X128611619Y-56305285D02*
X128230666Y-56305285D01*
X128468761Y-56638619D02*
X128468761Y-55781476D01*
X128421142Y-55686238D01*
X128325904Y-55638619D01*
X128230666Y-55638619D01*
X127516380Y-55686238D02*
X127611619Y-55638619D01*
X127802095Y-55638619D01*
X127897333Y-55686238D01*
X127944952Y-55781476D01*
X127944952Y-56162428D01*
X127897333Y-56257666D01*
X127802095Y-56305285D01*
X127611619Y-56305285D01*
X127516380Y-56257666D01*
X127468761Y-56162428D01*
X127468761Y-56067190D01*
X127944952Y-55971952D01*
X127040190Y-55638619D02*
X127040190Y-56305285D01*
X127040190Y-56210047D02*
X126992571Y-56257666D01*
X126897333Y-56305285D01*
X126754476Y-56305285D01*
X126659238Y-56257666D01*
X126611619Y-56162428D01*
X126611619Y-55638619D01*
X126611619Y-56162428D02*
X126564000Y-56257666D01*
X126468761Y-56305285D01*
X126325904Y-56305285D01*
X126230666Y-56257666D01*
X126183047Y-56162428D01*
X126183047Y-55638619D01*
X116403380Y-61166142D02*
X115403380Y-61166142D01*
X116117666Y-60832809D01*
X115403380Y-60499476D01*
X116403380Y-60499476D01*
X115736714Y-59594714D02*
X116403380Y-59594714D01*
X115736714Y-60023285D02*
X116260523Y-60023285D01*
X116355761Y-59975666D01*
X116403380Y-59880428D01*
X116403380Y-59737571D01*
X116355761Y-59642333D01*
X116308142Y-59594714D01*
X116355761Y-59166142D02*
X116403380Y-59070904D01*
X116403380Y-58880428D01*
X116355761Y-58785190D01*
X116260523Y-58737571D01*
X116212904Y-58737571D01*
X116117666Y-58785190D01*
X116070047Y-58880428D01*
X116070047Y-59023285D01*
X116022428Y-59118523D01*
X115927190Y-59166142D01*
X115879571Y-59166142D01*
X115784333Y-59118523D01*
X115736714Y-59023285D01*
X115736714Y-58880428D01*
X115784333Y-58785190D01*
X116403380Y-58309000D02*
X115736714Y-58309000D01*
X115403380Y-58309000D02*
X115451000Y-58356619D01*
X115498619Y-58309000D01*
X115451000Y-58261380D01*
X115403380Y-58309000D01*
X115498619Y-58309000D01*
X116355761Y-57404238D02*
X116403380Y-57499476D01*
X116403380Y-57689952D01*
X116355761Y-57785190D01*
X116308142Y-57832809D01*
X116212904Y-57880428D01*
X115927190Y-57880428D01*
X115831952Y-57832809D01*
X115784333Y-57785190D01*
X115736714Y-57689952D01*
X115736714Y-57499476D01*
X115784333Y-57404238D01*
X122213714Y-85320000D02*
X122880380Y-85320000D01*
X121832761Y-85558095D02*
X122547047Y-85796190D01*
X122547047Y-85177142D01*
X121880380Y-84605714D02*
X121880380Y-84510476D01*
X121928000Y-84415238D01*
X121975619Y-84367619D01*
X122070857Y-84320000D01*
X122261333Y-84272380D01*
X122499428Y-84272380D01*
X122689904Y-84320000D01*
X122785142Y-84367619D01*
X122832761Y-84415238D01*
X122880380Y-84510476D01*
X122880380Y-84605714D01*
X122832761Y-84700952D01*
X122785142Y-84748571D01*
X122689904Y-84796190D01*
X122499428Y-84843809D01*
X122261333Y-84843809D01*
X122070857Y-84796190D01*
X121975619Y-84748571D01*
X121928000Y-84700952D01*
X121880380Y-84605714D01*
X122785142Y-83843809D02*
X122832761Y-83796190D01*
X122880380Y-83843809D01*
X122832761Y-83891428D01*
X122785142Y-83843809D01*
X122880380Y-83843809D01*
X121975619Y-83415238D02*
X121928000Y-83367619D01*
X121880380Y-83272380D01*
X121880380Y-83034285D01*
X121928000Y-82939047D01*
X121975619Y-82891428D01*
X122070857Y-82843809D01*
X122166095Y-82843809D01*
X122308952Y-82891428D01*
X122880380Y-83462857D01*
X122880380Y-82843809D01*
X122880380Y-82415238D02*
X121880380Y-82415238D01*
X122880380Y-81843809D02*
X122308952Y-82272380D01*
X121880380Y-81843809D02*
X122451809Y-82415238D01*
X124848952Y-85605714D02*
X124801333Y-85700952D01*
X124753714Y-85748571D01*
X124658476Y-85796190D01*
X124610857Y-85796190D01*
X124515619Y-85748571D01*
X124468000Y-85700952D01*
X124420380Y-85605714D01*
X124420380Y-85415238D01*
X124468000Y-85320000D01*
X124515619Y-85272380D01*
X124610857Y-85224761D01*
X124658476Y-85224761D01*
X124753714Y-85272380D01*
X124801333Y-85320000D01*
X124848952Y-85415238D01*
X124848952Y-85605714D01*
X124896571Y-85700952D01*
X124944190Y-85748571D01*
X125039428Y-85796190D01*
X125229904Y-85796190D01*
X125325142Y-85748571D01*
X125372761Y-85700952D01*
X125420380Y-85605714D01*
X125420380Y-85415238D01*
X125372761Y-85320000D01*
X125325142Y-85272380D01*
X125229904Y-85224761D01*
X125039428Y-85224761D01*
X124944190Y-85272380D01*
X124896571Y-85320000D01*
X124848952Y-85415238D01*
X124515619Y-84843809D02*
X124468000Y-84796190D01*
X124420380Y-84700952D01*
X124420380Y-84462857D01*
X124468000Y-84367619D01*
X124515619Y-84320000D01*
X124610857Y-84272380D01*
X124706095Y-84272380D01*
X124848952Y-84320000D01*
X125420380Y-84891428D01*
X125420380Y-84272380D01*
X125325142Y-83843809D02*
X125372761Y-83796190D01*
X125420380Y-83843809D01*
X125372761Y-83891428D01*
X125325142Y-83843809D01*
X125420380Y-83843809D01*
X124420380Y-82891428D02*
X124420380Y-83367619D01*
X124896571Y-83415238D01*
X124848952Y-83367619D01*
X124801333Y-83272380D01*
X124801333Y-83034285D01*
X124848952Y-82939047D01*
X124896571Y-82891428D01*
X124991809Y-82843809D01*
X125229904Y-82843809D01*
X125325142Y-82891428D01*
X125372761Y-82939047D01*
X125420380Y-83034285D01*
X125420380Y-83272380D01*
X125372761Y-83367619D01*
X125325142Y-83415238D01*
X125420380Y-82415238D02*
X124420380Y-82415238D01*
X125420380Y-81843809D02*
X124848952Y-82272380D01*
X124420380Y-81843809D02*
X124991809Y-82415238D01*
X127198380Y-84510476D02*
X127198380Y-85081904D01*
X127198380Y-84796190D02*
X126198380Y-84796190D01*
X126341238Y-84891428D01*
X126436476Y-84986666D01*
X126484095Y-85081904D01*
X126198380Y-83891428D02*
X126198380Y-83796190D01*
X126246000Y-83700952D01*
X126293619Y-83653333D01*
X126388857Y-83605714D01*
X126579333Y-83558095D01*
X126817428Y-83558095D01*
X127007904Y-83605714D01*
X127103142Y-83653333D01*
X127150761Y-83700952D01*
X127198380Y-83796190D01*
X127198380Y-83891428D01*
X127150761Y-83986666D01*
X127103142Y-84034285D01*
X127007904Y-84081904D01*
X126817428Y-84129523D01*
X126579333Y-84129523D01*
X126388857Y-84081904D01*
X126293619Y-84034285D01*
X126246000Y-83986666D01*
X126198380Y-83891428D01*
X127198380Y-83129523D02*
X126198380Y-83129523D01*
X127198380Y-82558095D02*
X126626952Y-82986666D01*
X126198380Y-82558095D02*
X126769809Y-83129523D01*
X123483714Y-66016000D02*
X124150380Y-66016000D01*
X123102761Y-66254095D02*
X123817047Y-66492190D01*
X123817047Y-65873142D01*
X124055142Y-65492190D02*
X124102761Y-65444571D01*
X124150380Y-65492190D01*
X124102761Y-65539809D01*
X124055142Y-65492190D01*
X124150380Y-65492190D01*
X124150380Y-64968380D02*
X124150380Y-64777904D01*
X124102761Y-64682666D01*
X124055142Y-64635047D01*
X123912285Y-64539809D01*
X123721809Y-64492190D01*
X123340857Y-64492190D01*
X123245619Y-64539809D01*
X123198000Y-64587428D01*
X123150380Y-64682666D01*
X123150380Y-64873142D01*
X123198000Y-64968380D01*
X123245619Y-65016000D01*
X123340857Y-65063619D01*
X123578952Y-65063619D01*
X123674190Y-65016000D01*
X123721809Y-64968380D01*
X123769428Y-64873142D01*
X123769428Y-64682666D01*
X123721809Y-64587428D01*
X123674190Y-64539809D01*
X123578952Y-64492190D01*
X124150380Y-64016000D02*
X124150380Y-63825523D01*
X124102761Y-63730285D01*
X124055142Y-63682666D01*
X123912285Y-63587428D01*
X123721809Y-63539809D01*
X123340857Y-63539809D01*
X123245619Y-63587428D01*
X123198000Y-63635047D01*
X123150380Y-63730285D01*
X123150380Y-63920761D01*
X123198000Y-64016000D01*
X123245619Y-64063619D01*
X123340857Y-64111238D01*
X123578952Y-64111238D01*
X123674190Y-64063619D01*
X123721809Y-64016000D01*
X123769428Y-63920761D01*
X123769428Y-63730285D01*
X123721809Y-63635047D01*
X123674190Y-63587428D01*
X123578952Y-63539809D01*
X124150380Y-63111238D02*
X123150380Y-63111238D01*
X124150380Y-62539809D02*
X123578952Y-62968380D01*
X123150380Y-62539809D02*
X123721809Y-63111238D01*
X127160380Y-76810857D02*
X127160380Y-76144190D01*
X128160380Y-76572761D01*
X127493714Y-75334666D02*
X128160380Y-75334666D01*
X127112761Y-75572761D02*
X127827047Y-75810857D01*
X127827047Y-75191809D01*
X128160380Y-74334666D02*
X128160380Y-74810857D01*
X127160380Y-74810857D01*
X128112761Y-74048952D02*
X128160380Y-73906095D01*
X128160380Y-73668000D01*
X128112761Y-73572761D01*
X128065142Y-73525142D01*
X127969904Y-73477523D01*
X127874666Y-73477523D01*
X127779428Y-73525142D01*
X127731809Y-73572761D01*
X127684190Y-73668000D01*
X127636571Y-73858476D01*
X127588952Y-73953714D01*
X127541333Y-74001333D01*
X127446095Y-74048952D01*
X127350857Y-74048952D01*
X127255619Y-74001333D01*
X127208000Y-73953714D01*
X127160380Y-73858476D01*
X127160380Y-73620380D01*
X127208000Y-73477523D01*
X127160380Y-72858476D02*
X127160380Y-72763238D01*
X127208000Y-72668000D01*
X127255619Y-72620380D01*
X127350857Y-72572761D01*
X127541333Y-72525142D01*
X127779428Y-72525142D01*
X127969904Y-72572761D01*
X128065142Y-72620380D01*
X128112761Y-72668000D01*
X128160380Y-72763238D01*
X128160380Y-72858476D01*
X128112761Y-72953714D01*
X128065142Y-73001333D01*
X127969904Y-73048952D01*
X127779428Y-73096571D01*
X127541333Y-73096571D01*
X127350857Y-73048952D01*
X127255619Y-73001333D01*
X127208000Y-72953714D01*
X127160380Y-72858476D01*
X127160380Y-71620380D02*
X127160380Y-72096571D01*
X127636571Y-72144190D01*
X127588952Y-72096571D01*
X127541333Y-72001333D01*
X127541333Y-71763238D01*
X127588952Y-71668000D01*
X127636571Y-71620380D01*
X127731809Y-71572761D01*
X127969904Y-71572761D01*
X128065142Y-71620380D01*
X128112761Y-71668000D01*
X128160380Y-71763238D01*
X128160380Y-72001333D01*
X128112761Y-72096571D01*
X128065142Y-72144190D01*
X117911619Y-66516095D02*
X117864000Y-66468476D01*
X117816380Y-66373238D01*
X117816380Y-66135142D01*
X117864000Y-66039904D01*
X117911619Y-65992285D01*
X118006857Y-65944666D01*
X118102095Y-65944666D01*
X118244952Y-65992285D01*
X118816380Y-66563714D01*
X118816380Y-65944666D01*
X117911619Y-65563714D02*
X117864000Y-65516095D01*
X117816380Y-65420857D01*
X117816380Y-65182761D01*
X117864000Y-65087523D01*
X117911619Y-65039904D01*
X118006857Y-64992285D01*
X118102095Y-64992285D01*
X118244952Y-65039904D01*
X118816380Y-65611333D01*
X118816380Y-64992285D01*
X117816380Y-64373238D02*
X117816380Y-64278000D01*
X117864000Y-64182761D01*
X117911619Y-64135142D01*
X118006857Y-64087523D01*
X118197333Y-64039904D01*
X118435428Y-64039904D01*
X118625904Y-64087523D01*
X118721142Y-64135142D01*
X118768761Y-64182761D01*
X118816380Y-64278000D01*
X118816380Y-64373238D01*
X118768761Y-64468476D01*
X118721142Y-64516095D01*
X118625904Y-64563714D01*
X118435428Y-64611333D01*
X118197333Y-64611333D01*
X118006857Y-64563714D01*
X117911619Y-64516095D01*
X117864000Y-64468476D01*
X117816380Y-64373238D01*
X123737714Y-88176380D02*
X123166285Y-88176380D01*
X123452000Y-88176380D02*
X123452000Y-87176380D01*
X123356761Y-87319238D01*
X123261523Y-87414476D01*
X123166285Y-87462095D01*
X124166285Y-88176380D02*
X124166285Y-87176380D01*
X124737714Y-88176380D02*
X124309142Y-87604952D01*
X124737714Y-87176380D02*
X124166285Y-87747809D01*
X119435619Y-84319904D02*
X119388000Y-84272285D01*
X119340380Y-84177047D01*
X119340380Y-83938952D01*
X119388000Y-83843714D01*
X119435619Y-83796095D01*
X119530857Y-83748476D01*
X119626095Y-83748476D01*
X119768952Y-83796095D01*
X120340380Y-84367523D01*
X120340380Y-83748476D01*
X119340380Y-83129428D02*
X119340380Y-83034190D01*
X119388000Y-82938952D01*
X119435619Y-82891333D01*
X119530857Y-82843714D01*
X119721333Y-82796095D01*
X119959428Y-82796095D01*
X120149904Y-82843714D01*
X120245142Y-82891333D01*
X120292761Y-82938952D01*
X120340380Y-83034190D01*
X120340380Y-83129428D01*
X120292761Y-83224666D01*
X120245142Y-83272285D01*
X120149904Y-83319904D01*
X119959428Y-83367523D01*
X119721333Y-83367523D01*
X119530857Y-83319904D01*
X119435619Y-83272285D01*
X119388000Y-83224666D01*
X119340380Y-83129428D01*
X120340380Y-82367523D02*
X119340380Y-82367523D01*
X120340380Y-81796095D02*
X119768952Y-82224666D01*
X119340380Y-81796095D02*
X119911809Y-82367523D01*
X127722380Y-92402467D02*
X127722380Y-92307229D01*
X127770000Y-92211991D01*
X127817619Y-92164372D01*
X127912857Y-92116753D01*
X128103333Y-92069134D01*
X128341428Y-92069134D01*
X128531904Y-92116753D01*
X128627142Y-92164372D01*
X128674761Y-92211991D01*
X128722380Y-92307229D01*
X128722380Y-92402467D01*
X128674761Y-92497705D01*
X128627142Y-92545324D01*
X128531904Y-92592943D01*
X128341428Y-92640562D01*
X128103333Y-92640562D01*
X127912857Y-92592943D01*
X127817619Y-92545324D01*
X127770000Y-92497705D01*
X127722380Y-92402467D01*
X128627142Y-91640562D02*
X128674761Y-91592943D01*
X128722380Y-91640562D01*
X128674761Y-91688181D01*
X128627142Y-91640562D01*
X128722380Y-91640562D01*
X128055714Y-90735800D02*
X128722380Y-90735800D01*
X127674761Y-90973896D02*
X128389047Y-91211991D01*
X128389047Y-90592943D01*
X127722380Y-90307229D02*
X127722380Y-89640562D01*
X128722380Y-90069134D01*
X128055714Y-88831039D02*
X128722380Y-88831039D01*
X128055714Y-89259610D02*
X128579523Y-89259610D01*
X128674761Y-89211991D01*
X128722380Y-89116753D01*
X128722380Y-88973896D01*
X128674761Y-88878658D01*
X128627142Y-88831039D01*
X128198571Y-88021515D02*
X128198571Y-88354848D01*
X128722380Y-88354848D02*
X127722380Y-88354848D01*
X127722380Y-87878658D01*
X115530380Y-92368476D02*
X115530380Y-91749428D01*
X115911333Y-92082761D01*
X115911333Y-91939904D01*
X115958952Y-91844666D01*
X116006571Y-91797047D01*
X116101809Y-91749428D01*
X116339904Y-91749428D01*
X116435142Y-91797047D01*
X116482761Y-91844666D01*
X116530380Y-91939904D01*
X116530380Y-92225619D01*
X116482761Y-92320857D01*
X116435142Y-92368476D01*
X115530380Y-91416095D02*
X115530380Y-90797047D01*
X115911333Y-91130380D01*
X115911333Y-90987523D01*
X115958952Y-90892285D01*
X116006571Y-90844666D01*
X116101809Y-90797047D01*
X116339904Y-90797047D01*
X116435142Y-90844666D01*
X116482761Y-90892285D01*
X116530380Y-90987523D01*
X116530380Y-91273238D01*
X116482761Y-91368476D01*
X116435142Y-91416095D01*
X115863714Y-89939904D02*
X116530380Y-89939904D01*
X115863714Y-90368476D02*
X116387523Y-90368476D01*
X116482761Y-90320857D01*
X116530380Y-90225619D01*
X116530380Y-90082761D01*
X116482761Y-89987523D01*
X116435142Y-89939904D01*
X116006571Y-89130380D02*
X116006571Y-89463714D01*
X116530380Y-89463714D02*
X115530380Y-89463714D01*
X115530380Y-88987523D01*
X126690380Y-65714476D02*
X126690380Y-66285904D01*
X126690380Y-66000190D02*
X125690380Y-66000190D01*
X125833238Y-66095428D01*
X125928476Y-66190666D01*
X125976095Y-66285904D01*
X125690380Y-65095428D02*
X125690380Y-65000190D01*
X125738000Y-64904952D01*
X125785619Y-64857333D01*
X125880857Y-64809714D01*
X126071333Y-64762095D01*
X126309428Y-64762095D01*
X126499904Y-64809714D01*
X126595142Y-64857333D01*
X126642761Y-64904952D01*
X126690380Y-65000190D01*
X126690380Y-65095428D01*
X126642761Y-65190666D01*
X126595142Y-65238285D01*
X126499904Y-65285904D01*
X126309428Y-65333523D01*
X126071333Y-65333523D01*
X125880857Y-65285904D01*
X125785619Y-65238285D01*
X125738000Y-65190666D01*
X125690380Y-65095428D01*
X126690380Y-64333523D02*
X125690380Y-64333523D01*
X126690380Y-63762095D02*
X126118952Y-64190666D01*
X125690380Y-63762095D02*
X126261809Y-64333523D01*
X120705619Y-66396952D02*
X120658000Y-66349333D01*
X120610380Y-66254095D01*
X120610380Y-66016000D01*
X120658000Y-65920761D01*
X120705619Y-65873142D01*
X120800857Y-65825523D01*
X120896095Y-65825523D01*
X121038952Y-65873142D01*
X121610380Y-66444571D01*
X121610380Y-65825523D01*
X121515142Y-65396952D02*
X121562761Y-65349333D01*
X121610380Y-65396952D01*
X121562761Y-65444571D01*
X121515142Y-65396952D01*
X121610380Y-65396952D01*
X120943714Y-64492190D02*
X121610380Y-64492190D01*
X120562761Y-64730285D02*
X121277047Y-64968380D01*
X121277047Y-64349333D01*
X121610380Y-63920761D02*
X121610380Y-63730285D01*
X121562761Y-63635047D01*
X121515142Y-63587428D01*
X121372285Y-63492190D01*
X121181809Y-63444571D01*
X120800857Y-63444571D01*
X120705619Y-63492190D01*
X120658000Y-63539809D01*
X120610380Y-63635047D01*
X120610380Y-63825523D01*
X120658000Y-63920761D01*
X120705619Y-63968380D01*
X120800857Y-64016000D01*
X121038952Y-64016000D01*
X121134190Y-63968380D01*
X121181809Y-63920761D01*
X121229428Y-63825523D01*
X121229428Y-63635047D01*
X121181809Y-63539809D01*
X121134190Y-63492190D01*
X121038952Y-63444571D01*
X121610380Y-63016000D02*
X120610380Y-63016000D01*
X121229428Y-62920761D02*
X121610380Y-62635047D01*
X120943714Y-62635047D02*
X121324666Y-63016000D01*
D11*
X122950500Y-80247258D02*
X122950500Y-79772742D01*
X121905500Y-80247258D02*
X121905500Y-79772742D01*
X124445500Y-80247258D02*
X124445500Y-79772742D01*
X125490500Y-80247258D02*
X125490500Y-79772742D01*
D12*
X137426000Y-61502000D02*
X134326000Y-61502000D01*
X134226000Y-72102000D02*
X137426000Y-72102000D01*
X145426000Y-70952000D02*
X145426000Y-62652000D01*
X130926000Y-63452000D02*
X130926000Y-66002000D01*
X145426000Y-62652000D02*
X137426000Y-62652000D01*
X137426000Y-72102000D02*
X137426000Y-70952000D01*
X130926000Y-67702000D02*
X130926000Y-70202000D01*
X137426000Y-70952000D02*
X145426000Y-70952000D01*
X137426000Y-62652000D02*
X137426000Y-61502000D01*
D13*
X129576000Y-72002000D02*
G75*
G03*
X129576000Y-72002000I-200000J0D01*
G01*
D11*
X127268500Y-87105258D02*
X127268500Y-86630742D01*
X126223500Y-87105258D02*
X126223500Y-86630742D01*
X124220500Y-68088742D02*
X124220500Y-68563258D01*
X123175500Y-68088742D02*
X123175500Y-68563258D01*
X126863000Y-74168000D02*
X126863000Y-72218000D01*
X126863000Y-74168000D02*
X126863000Y-76118000D01*
X117993000Y-74168000D02*
X117993000Y-77618000D01*
X117993000Y-74168000D02*
X117993000Y-72218000D01*
D12*
X129528000Y-87162500D02*
X129528000Y-74762500D01*
X140528000Y-76462500D02*
X141328000Y-76462500D01*
X140528000Y-85462500D02*
X141328000Y-85462500D01*
X129528000Y-74762500D02*
X140528000Y-74762500D01*
X129528000Y-87162500D02*
X140528000Y-87162500D01*
X140528000Y-87162500D02*
X140528000Y-85462500D01*
X140528000Y-76462500D02*
X140528000Y-74762500D01*
D11*
X118886500Y-68088742D02*
X118886500Y-68563258D01*
X117841500Y-68088742D02*
X117841500Y-68563258D01*
X124189258Y-88631500D02*
X123714742Y-88631500D01*
X124189258Y-89676500D02*
X123714742Y-89676500D01*
X120410500Y-80247258D02*
X120410500Y-79772742D01*
X119365500Y-80247258D02*
X119365500Y-79772742D01*
X113737500Y-55729667D02*
X109997500Y-55729667D01*
X109997500Y-91336333D02*
X113737500Y-91336333D01*
X113737500Y-91336333D02*
X113737500Y-55729667D01*
X113977500Y-55489667D02*
X113977500Y-59683000D01*
X111737500Y-55489667D02*
X113977500Y-55489667D01*
X117236000Y-57083000D02*
X117236000Y-54423000D01*
X122376000Y-57083000D02*
X122376000Y-54423000D01*
X117236000Y-54423000D02*
X122376000Y-54423000D01*
X117236000Y-57083000D02*
X122376000Y-57083000D01*
X114636000Y-57083000D02*
X114636000Y-55753000D01*
X115966000Y-57083000D02*
X114636000Y-57083000D01*
X126236000Y-90283420D02*
X126236000Y-90564580D01*
X127256000Y-90283420D02*
X127256000Y-90564580D01*
X121881000Y-88568888D02*
X120420000Y-88568888D01*
X120631000Y-90209888D02*
X118129000Y-90209888D01*
X121604000Y-89249888D02*
X120420000Y-89249888D01*
X118340000Y-89849888D02*
X117637000Y-89849888D01*
X121960000Y-87928888D02*
X120420000Y-87928888D01*
X121165000Y-89809888D02*
X120420000Y-89809888D01*
X118340000Y-88969888D02*
X117015000Y-88969888D01*
X118340000Y-89529888D02*
X117345000Y-89529888D01*
X118340000Y-89449888D02*
X117285000Y-89449888D01*
X121281000Y-89689888D02*
X120420000Y-89689888D01*
X118340000Y-89329888D02*
X117205000Y-89329888D01*
X121502000Y-89409888D02*
X120420000Y-89409888D01*
X118340000Y-89409888D02*
X117258000Y-89409888D01*
X121351000Y-89609888D02*
X120420000Y-89609888D01*
X119898000Y-90489888D02*
X118862000Y-90489888D01*
X120185000Y-90409888D02*
X118575000Y-90409888D01*
X121945000Y-88208888D02*
X120420000Y-88208888D01*
X121960000Y-87968888D02*
X120420000Y-87968888D01*
X121244000Y-89729888D02*
X120420000Y-89729888D01*
X121871000Y-88608888D02*
X120420000Y-88608888D01*
X121745000Y-88969888D02*
X120420000Y-88969888D01*
X118340000Y-88088888D02*
X116804000Y-88088888D01*
X118340000Y-88929888D02*
X116998000Y-88929888D01*
X118340000Y-89209888D02*
X117133000Y-89209888D01*
X120934000Y-90009888D02*
X117826000Y-90009888D01*
X121690000Y-89089888D02*
X120420000Y-89089888D01*
X118340000Y-88248888D02*
X116819000Y-88248888D01*
X118340000Y-88769888D02*
X116938000Y-88769888D01*
X121105000Y-85374113D02*
X120605000Y-85374113D01*
X121475000Y-89449888D02*
X120420000Y-89449888D01*
X121555000Y-89329888D02*
X120420000Y-89329888D01*
X118340000Y-88408888D02*
X116844000Y-88408888D01*
X118340000Y-89249888D02*
X117156000Y-89249888D01*
X121317000Y-89649888D02*
X120420000Y-89649888D01*
X118340000Y-89729888D02*
X117516000Y-89729888D01*
X121835000Y-88729888D02*
X120420000Y-88729888D01*
X121959000Y-88008888D02*
X120420000Y-88008888D01*
X118340000Y-88729888D02*
X116925000Y-88729888D01*
X121206000Y-89769888D02*
X120420000Y-89769888D01*
X121415000Y-89529888D02*
X120420000Y-89529888D01*
X121033000Y-89929888D02*
X120420000Y-89929888D01*
X121648000Y-89169888D02*
X120420000Y-89169888D01*
X121923000Y-88368888D02*
X120420000Y-88368888D01*
X118340000Y-87928888D02*
X116800000Y-87928888D01*
X121916000Y-88408888D02*
X120420000Y-88408888D01*
X118340000Y-89129888D02*
X117090000Y-89129888D01*
X118340000Y-89889888D02*
X117681000Y-89889888D01*
X120699000Y-90169888D02*
X118061000Y-90169888D01*
X118340000Y-89169888D02*
X117112000Y-89169888D01*
X118340000Y-88568888D02*
X116879000Y-88568888D01*
X118340000Y-88649888D02*
X116900000Y-88649888D01*
X121529000Y-89369888D02*
X120420000Y-89369888D01*
X118340000Y-88128888D02*
X116807000Y-88128888D01*
X121848000Y-88689888D02*
X120420000Y-88689888D01*
X118340000Y-88809888D02*
X116952000Y-88809888D01*
X118340000Y-88488888D02*
X116860000Y-88488888D01*
X121670000Y-89129888D02*
X120420000Y-89129888D01*
X121728000Y-89009888D02*
X120420000Y-89009888D01*
X121941000Y-88248888D02*
X120420000Y-88248888D01*
X121822000Y-88769888D02*
X120420000Y-88769888D01*
X118340000Y-89009888D02*
X117032000Y-89009888D01*
X118340000Y-88689888D02*
X116912000Y-88689888D01*
X118340000Y-89809888D02*
X117595000Y-89809888D01*
X121908000Y-88448888D02*
X120420000Y-88448888D01*
X120763000Y-90129888D02*
X117997000Y-90129888D01*
X120391000Y-90329888D02*
X118369000Y-90329888D01*
X120880000Y-90049888D02*
X117880000Y-90049888D01*
X118340000Y-89489888D02*
X117315000Y-89489888D01*
X120855000Y-85124113D02*
X120855000Y-85624113D01*
X120823000Y-90089888D02*
X117937000Y-90089888D01*
X118340000Y-89769888D02*
X117554000Y-89769888D01*
X121900000Y-88488888D02*
X120420000Y-88488888D01*
X119664000Y-90529888D02*
X119096000Y-90529888D01*
X118340000Y-88889888D02*
X116982000Y-88889888D01*
X118340000Y-89609888D02*
X117409000Y-89609888D01*
X118340000Y-89649888D02*
X117443000Y-89649888D01*
X118340000Y-89369888D02*
X117231000Y-89369888D01*
X118340000Y-88368888D02*
X116837000Y-88368888D01*
X118340000Y-88168888D02*
X116811000Y-88168888D01*
X121384000Y-89569888D02*
X120420000Y-89569888D01*
X121953000Y-88128888D02*
X120420000Y-88128888D01*
X121079000Y-89889888D02*
X120420000Y-89889888D01*
X118340000Y-88208888D02*
X116815000Y-88208888D01*
X121709000Y-89049888D02*
X120420000Y-89049888D01*
X118340000Y-88448888D02*
X116852000Y-88448888D01*
X121956000Y-88088888D02*
X120420000Y-88088888D01*
X118340000Y-89569888D02*
X117376000Y-89569888D01*
X121936000Y-88288888D02*
X120420000Y-88288888D01*
X118340000Y-89049888D02*
X117051000Y-89049888D01*
X121949000Y-88168888D02*
X120420000Y-88168888D01*
X121627000Y-89209888D02*
X120420000Y-89209888D01*
X120478000Y-90289888D02*
X118282000Y-90289888D01*
X121891000Y-88528888D02*
X120420000Y-88528888D01*
X118340000Y-88288888D02*
X116824000Y-88288888D01*
X120985000Y-89969888D02*
X117775000Y-89969888D01*
X118340000Y-88849888D02*
X116966000Y-88849888D01*
X120558000Y-90249888D02*
X118202000Y-90249888D01*
X121123000Y-89849888D02*
X120420000Y-89849888D01*
X118340000Y-89929888D02*
X117727000Y-89929888D01*
X121808000Y-88809888D02*
X120420000Y-88809888D01*
X118340000Y-88048888D02*
X116802000Y-88048888D01*
X121445000Y-89489888D02*
X120420000Y-89489888D01*
X118340000Y-87968888D02*
X116800000Y-87968888D01*
X121930000Y-88328888D02*
X120420000Y-88328888D01*
X118340000Y-89689888D02*
X117479000Y-89689888D01*
X118340000Y-89089888D02*
X117070000Y-89089888D01*
X118340000Y-89289888D02*
X117180000Y-89289888D01*
X121580000Y-89289888D02*
X120420000Y-89289888D01*
X118340000Y-88608888D02*
X116889000Y-88608888D01*
X118340000Y-88008888D02*
X116801000Y-88008888D01*
X120057000Y-90449888D02*
X118703000Y-90449888D01*
X118340000Y-88328888D02*
X116830000Y-88328888D01*
X121794000Y-88849888D02*
X120420000Y-88849888D01*
X121762000Y-88929888D02*
X120420000Y-88929888D01*
X120295000Y-90369888D02*
X118465000Y-90369888D01*
X118340000Y-88528888D02*
X116869000Y-88528888D01*
X121778000Y-88889888D02*
X120420000Y-88889888D01*
X121860000Y-88649888D02*
X120420000Y-88649888D01*
X121958000Y-88048888D02*
X120420000Y-88048888D01*
X122000000Y-87928888D02*
G75*
G03*
X122000000Y-87928888I-2620000J0D01*
G01*
X125715500Y-68088742D02*
X125715500Y-68563258D01*
X126760500Y-68088742D02*
X126760500Y-68563258D01*
X121680500Y-68088742D02*
X121680500Y-68563258D01*
X120635500Y-68088742D02*
X120635500Y-68563258D01*
%LPC*%
D14*
X122428000Y-80835000D03*
X122428000Y-79185000D03*
X124968000Y-80835000D03*
X124968000Y-79185000D03*
D15*
X132226000Y-71802000D03*
X132226000Y-61802000D03*
X136726000Y-66802000D03*
D16*
X132226000Y-66802000D03*
D14*
X126746000Y-87693000D03*
X126746000Y-86043000D03*
D17*
X123698000Y-67501000D03*
X123698000Y-69151000D03*
D18*
X118618000Y-76643000D03*
X119888000Y-76643000D03*
X121158000Y-76643000D03*
X122428000Y-76643000D03*
X123698000Y-76643000D03*
X124968000Y-76643000D03*
X126238000Y-76643000D03*
X126238000Y-71693000D03*
X124968000Y-71693000D03*
X123698000Y-71693000D03*
X122428000Y-71693000D03*
X121158000Y-71693000D03*
X119888000Y-71693000D03*
X118618000Y-71693000D03*
D19*
X137028000Y-85962500D03*
X137028000Y-75962500D03*
X132028000Y-80962500D03*
X139528000Y-85962500D03*
X139528000Y-75962500D03*
D20*
X137028000Y-80962500D03*
D21*
X132028000Y-75962500D03*
X132028000Y-85962500D03*
X132028000Y-78462500D03*
X132028000Y-83462500D03*
D17*
X118364000Y-67501000D03*
X118364000Y-69151000D03*
D22*
X124777000Y-89154000D03*
X123127000Y-89154000D03*
D14*
X119888000Y-80835000D03*
X119888000Y-79185000D03*
D23*
X111737500Y-56913000D03*
X111737500Y-59683000D03*
X111737500Y-62453000D03*
X111737500Y-65223000D03*
X111737500Y-67993000D03*
X111737500Y-70763000D03*
X111737500Y-73533000D03*
X111737500Y-76303000D03*
X111737500Y-79073000D03*
X111737500Y-81843000D03*
X111737500Y-84613000D03*
X111737500Y-87383000D03*
X111737500Y-90153000D03*
D24*
X115966000Y-55753000D03*
D25*
X118506000Y-55753000D03*
X121046000Y-55753000D03*
D26*
X126746000Y-89649000D03*
X126746000Y-91199000D03*
D27*
X119380000Y-86928888D03*
D28*
X119380000Y-88928888D03*
D17*
X126238000Y-67501000D03*
X126238000Y-69151000D03*
X121158000Y-67501000D03*
X121158000Y-69151000D03*
M02*
