M48
; DRILL file {KiCad (6.0.0)} date Wed Nov  9 00:48:39 2022
; FORMAT={-:-/ absolute / metric / decimal}
; #@! TF.CreationDate,2022-11-09T00:48:39-05:00
; #@! TF.GenerationSoftware,Kicad,Pcbnew,(6.0.0)
; #@! TF.FileFunction,Plated,1,2,PTH
FMAT,2
METRIC
; #@! TA.AperFunction,Plated,PTH,ViaDrill
T1C0.400
; #@! TA.AperFunction,Plated,PTH,ComponentDrill
T2C0.800
; #@! TA.AperFunction,Plated,PTH,ComponentDrill
T3C1.000
%
G90
G05
T1
X77.47Y-95.885
X78.595Y-94.76
X80.01Y-97.155
X81.135Y-93.49
X82.55Y-98.425
X83.82Y-92.075
X86.36Y-100.965
X88.9Y-100.965
X91.44Y-112.395
X91.44Y-114.935
X92.71Y-111.125
X93.98Y-133.35
X96.52Y-109.22
X96.52Y-128.905
X99.06Y-107.315
X107.95Y-116.205
X109.855Y-114.935
X110.49Y-139.065
X112.395Y-110.49
X112.395Y-113.665
X112.395Y-128.27
X113.03Y-135.89
X114.935Y-113.665
X114.935Y-131.445
X116.205Y-112.395
X116.205Y-139.065
X120.65Y-118.11
X122.56Y-95.885
X123.825Y-94.615
X123.825Y-115.57
X125.1Y-97.155
X126.365Y-93.345
X126.365Y-117.475
X127.635Y-98.425
X128.905Y-92.075
X128.905Y-115.57
X130.18Y-99.7
X131.445Y-114.3
X132.72Y-81.275
X132.72Y-135.885
X133.985Y-100.965
X135.26Y-80.64
X135.26Y-135.885
X136.525Y-109.855
X137.8Y-80.005
X139.065Y-108.585
X140.335Y-128.905
X140.34Y-79.37
X141.605Y-107.315
X142.88Y-78.735
X144.145Y-106.045
X145.42Y-78.1
X145.42Y-88.26
X146.05Y-130.175
X146.685Y-115.57
X147.96Y-76.83
X148.59Y-124.46
X149.135Y-111.85
X149.225Y-114.935
X152.4Y-111.76
X152.4Y-117.475
X153.67Y-131.445
X154.305Y-110.49
X155.165Y-103.28
X157.48Y-119.38
X158.75Y-109.22
X160.02Y-111.76
X161.29Y-107.95
X161.29Y-128.905
X161.865Y-102.93
X161.925Y-104.775
X163.83Y-101.6
X163.83Y-106.045
X165.735Y-117.475
X168.275Y-116.84
X168.275Y-133.985
X168.275Y-135.255
X169.545Y-132.715
X170.18Y-128.905
X170.815Y-134.62
X171.45Y-112.395
X173.355Y-108.585
X178.435Y-113.03
X179.705Y-108.585
X187.55Y-95.66
X187.55Y-98.2
X187.55Y-100.74
X187.55Y-103.28
X187.55Y-105.82
X187.55Y-108.36
X187.55Y-118.52
X187.55Y-121.06
X187.55Y-123.6
X187.735Y-110.9
X187.735Y-113.44
X187.735Y-115.98
T2
X75.565Y-124.46
X75.565Y-128.27
X77.47Y-74.93
X77.47Y-90.17
X77.47Y-103.5
X77.47Y-118.74
X80.01Y-74.93
X80.01Y-90.17
X80.01Y-103.5
X80.01Y-118.74
X82.55Y-74.93
X82.55Y-90.17
X82.55Y-103.5
X82.55Y-118.74
X83.065Y-124.46
X83.065Y-128.27
X85.09Y-74.93
X85.09Y-90.17
X85.09Y-103.5
X85.09Y-118.74
X87.63Y-74.93
X87.63Y-90.17
X87.63Y-103.5
X87.63Y-118.74
X87.63Y-131.445
X87.63Y-139.065
X90.17Y-74.93
X90.17Y-90.17
X90.17Y-103.5
X90.17Y-118.74
X90.17Y-131.445
X90.17Y-139.065
X92.71Y-74.93
X92.71Y-90.17
X92.71Y-103.5
X92.71Y-118.74
X92.71Y-131.445
X92.71Y-139.065
X95.25Y-74.93
X95.25Y-90.17
X95.25Y-103.5
X95.25Y-118.74
X95.25Y-131.445
X95.25Y-139.065
X97.79Y-74.93
X97.79Y-90.17
X97.79Y-103.5
X97.79Y-118.74
X97.79Y-131.445
X97.79Y-139.065
X100.33Y-74.93
X100.33Y-90.17
X100.33Y-103.5
X100.33Y-118.74
X100.33Y-131.445
X100.33Y-139.065
X102.87Y-74.93
X102.87Y-90.17
X102.87Y-103.5
X102.87Y-118.74
X102.87Y-131.445
X102.87Y-139.065
X105.41Y-74.93
X105.41Y-90.17
X105.41Y-103.5
X105.41Y-118.74
X105.41Y-131.445
X105.41Y-139.065
X109.34Y-90.17
X116.84Y-90.17
X122.56Y-74.925
X122.56Y-90.165
X122.56Y-103.5
X122.56Y-118.74
X122.56Y-131.455
X122.56Y-139.075
X125.1Y-74.925
X125.1Y-90.165
X125.1Y-103.5
X125.1Y-118.74
X125.1Y-131.455
X125.1Y-139.075
X127.64Y-74.925
X127.64Y-90.165
X127.64Y-103.5
X127.64Y-118.74
X127.64Y-131.455
X127.64Y-139.075
X130.18Y-74.925
X130.18Y-90.165
X130.18Y-103.5
X130.18Y-118.74
X130.18Y-131.455
X130.18Y-139.075
X132.72Y-74.925
X132.72Y-90.165
X132.72Y-103.5
X132.72Y-118.74
X132.72Y-131.455
X132.72Y-139.075
X135.26Y-74.925
X135.26Y-90.165
X135.26Y-103.5
X135.26Y-118.74
X135.26Y-131.455
X135.26Y-139.075
X137.8Y-74.925
X137.8Y-90.165
X137.8Y-103.5
X137.8Y-118.74
X137.8Y-131.455
X137.8Y-139.075
X140.34Y-74.925
X140.34Y-90.165
X140.34Y-103.5
X140.34Y-118.74
X142.88Y-74.925
X142.88Y-90.165
X142.88Y-103.5
X142.88Y-118.74
X143.51Y-139.065
X145.42Y-74.925
X145.42Y-90.165
X145.42Y-103.5
X145.42Y-118.74
X147.96Y-74.925
X147.96Y-90.165
X147.96Y-103.5
X147.96Y-118.74
X150.5Y-74.925
X150.5Y-90.165
X150.5Y-103.5
X150.5Y-118.74
X151.01Y-139.065
X154.365Y-90.17
X161.865Y-90.17
X163.255Y-139.065
X170.18Y-108.585
X170.755Y-139.065
X172.205Y-122.555
X173.395Y-139.065
X176.53Y-127.635
X177.68Y-108.585
X178.395Y-139.065
X179.705Y-122.555
X181.015Y-139.065
X181.53Y-127.635
X186.015Y-139.065
T3
X80.01Y-134.62
X82.695Y-134.62
X87.63Y-124.46
X90.17Y-121.285
X90.17Y-124.46
X92.71Y-121.285
X92.71Y-124.46
X95.25Y-121.285
X95.25Y-124.46
X97.79Y-121.285
X97.79Y-124.46
X100.33Y-121.285
X100.33Y-124.46
X104.775Y-124.46
X107.315Y-124.46
X109.855Y-121.285
X109.855Y-124.46
X112.395Y-121.285
X112.395Y-124.46
X114.935Y-121.285
X117.475Y-118.745
X117.475Y-121.285
X117.475Y-124.46
X120.015Y-124.46
X122.555Y-124.46
X132.715Y-124.46
X135.255Y-121.285
X135.255Y-124.46
X137.795Y-121.285
X137.795Y-124.46
X140.335Y-121.285
X140.335Y-124.46
X140.97Y-133.985
X140.97Y-136.525
X142.875Y-121.285
X142.875Y-124.46
X145.415Y-121.285
X145.415Y-124.46
X146.05Y-133.985
X146.05Y-136.525
X151.13Y-124.46
X153.67Y-124.46
X154.305Y-135.255
X156.21Y-121.285
X156.21Y-124.46
X156.845Y-132.08
X156.845Y-135.255
X158.75Y-121.285
X158.75Y-124.46
X159.385Y-74.93
X159.385Y-132.08
X159.385Y-135.255
X161.29Y-121.285
X161.29Y-124.46
X161.925Y-74.93
X161.925Y-135.255
X163.83Y-121.285
X163.83Y-124.46
X164.465Y-72.39
X164.465Y-74.93
X166.37Y-121.285
X166.37Y-124.46
X167.005Y-72.39
X167.005Y-74.93
X168.91Y-124.46
X169.545Y-72.39
X169.545Y-74.93
T0
M30
