G04 #@! TF.GenerationSoftware,KiCad,Pcbnew,(6.0.0)*
G04 #@! TF.CreationDate,2022-11-09T00:48:37-05:00*
G04 #@! TF.ProjectId,Sorcerer Rom Pack,536f7263-6572-4657-9220-526f6d205061,rev?*
G04 #@! TF.SameCoordinates,Original*
G04 #@! TF.FileFunction,Copper,L1,Top*
G04 #@! TF.FilePolarity,Positive*
%FSLAX46Y46*%
G04 Gerber Fmt 4.6, Leading zero omitted, Abs format (unit mm)*
G04 Created by KiCad (PCBNEW (6.0.0)) date 2022-11-09 00:48:37*
%MOMM*%
%LPD*%
G01*
G04 APERTURE LIST*
G04 Aperture macros list*
%AMFreePoly0*
4,1,22,0.500000,-0.750000,0.000000,-0.750000,0.000000,-0.745033,-0.079941,-0.743568,-0.215256,-0.701293,-0.333266,-0.622738,-0.424486,-0.514219,-0.481581,-0.384460,-0.499164,-0.250000,-0.500000,-0.250000,-0.500000,0.250000,-0.499164,0.250000,-0.499963,0.256109,-0.478152,0.396186,-0.417904,0.524511,-0.324060,0.630769,-0.204165,0.706417,-0.067858,0.745374,0.000000,0.744959,0.000000,0.750000,
0.500000,0.750000,0.500000,-0.750000,0.500000,-0.750000,$1*%
%AMFreePoly1*
4,1,20,0.000000,0.744959,0.073905,0.744508,0.209726,0.703889,0.328688,0.626782,0.421226,0.519385,0.479903,0.390333,0.500000,0.250000,0.500000,-0.250000,0.499851,-0.262216,0.476331,-0.402017,0.414519,-0.529596,0.319384,-0.634700,0.198574,-0.708877,0.061801,-0.746166,0.000000,-0.745033,0.000000,-0.750000,-0.500000,-0.750000,-0.500000,0.750000,0.000000,0.750000,0.000000,0.744959,
0.000000,0.744959,$1*%
G04 Aperture macros list end*
%ADD10C,0.200000*%
G04 #@! TA.AperFunction,NonConductor*
%ADD11C,0.200000*%
G04 #@! TD*
%ADD12C,0.350000*%
G04 #@! TA.AperFunction,NonConductor*
%ADD13C,0.350000*%
G04 #@! TD*
G04 #@! TA.AperFunction,ComponentPad*
%ADD14R,1.700000X1.700000*%
G04 #@! TD*
G04 #@! TA.AperFunction,ComponentPad*
%ADD15R,1.600000X1.600000*%
G04 #@! TD*
G04 #@! TA.AperFunction,ComponentPad*
%ADD16O,1.600000X1.600000*%
G04 #@! TD*
G04 #@! TA.AperFunction,ConnectorPad*
%ADD17R,7.600000X1.270000*%
G04 #@! TD*
G04 #@! TA.AperFunction,ComponentPad*
%ADD18C,1.600000*%
G04 #@! TD*
G04 #@! TA.AperFunction,SMDPad,CuDef*
%ADD19FreePoly0,90.000000*%
G04 #@! TD*
G04 #@! TA.AperFunction,SMDPad,CuDef*
%ADD20FreePoly1,90.000000*%
G04 #@! TD*
G04 #@! TA.AperFunction,ViaPad*
%ADD21C,0.800000*%
G04 #@! TD*
G04 #@! TA.AperFunction,Conductor*
%ADD22C,0.800000*%
G04 #@! TD*
G04 #@! TA.AperFunction,Conductor*
%ADD23C,1.270000*%
G04 #@! TD*
G04 #@! TA.AperFunction,Conductor*
%ADD24C,0.250000*%
G04 #@! TD*
G04 #@! TA.AperFunction,Conductor*
%ADD25C,2.000000*%
G04 #@! TD*
G04 APERTURE END LIST*
D10*
D11*
X171230714Y-95461857D02*
X171230714Y-94261857D01*
X171687857Y-94261857D01*
X171802142Y-94319000D01*
X171859285Y-94376142D01*
X171916428Y-94490428D01*
X171916428Y-94661857D01*
X171859285Y-94776142D01*
X171802142Y-94833285D01*
X171687857Y-94890428D01*
X171230714Y-94890428D01*
X173116428Y-95347571D02*
X173059285Y-95404714D01*
X172887857Y-95461857D01*
X172773571Y-95461857D01*
X172602142Y-95404714D01*
X172487857Y-95290428D01*
X172430714Y-95176142D01*
X172373571Y-94947571D01*
X172373571Y-94776142D01*
X172430714Y-94547571D01*
X172487857Y-94433285D01*
X172602142Y-94319000D01*
X172773571Y-94261857D01*
X172887857Y-94261857D01*
X173059285Y-94319000D01*
X173116428Y-94376142D01*
X174030714Y-94833285D02*
X174202142Y-94890428D01*
X174259285Y-94947571D01*
X174316428Y-95061857D01*
X174316428Y-95233285D01*
X174259285Y-95347571D01*
X174202142Y-95404714D01*
X174087857Y-95461857D01*
X173630714Y-95461857D01*
X173630714Y-94261857D01*
X174030714Y-94261857D01*
X174145000Y-94319000D01*
X174202142Y-94376142D01*
X174259285Y-94490428D01*
X174259285Y-94604714D01*
X174202142Y-94719000D01*
X174145000Y-94776142D01*
X174030714Y-94833285D01*
X173630714Y-94833285D01*
X175630714Y-94261857D02*
X176430714Y-94261857D01*
X175916428Y-95461857D01*
X176773571Y-94261857D02*
X177573571Y-94261857D01*
X177059285Y-95461857D01*
X178030714Y-95004714D02*
X178945000Y-95004714D01*
X179402142Y-94261857D02*
X180145000Y-94261857D01*
X179745000Y-94719000D01*
X179916428Y-94719000D01*
X180030714Y-94776142D01*
X180087857Y-94833285D01*
X180145000Y-94947571D01*
X180145000Y-95233285D01*
X180087857Y-95347571D01*
X180030714Y-95404714D01*
X179916428Y-95461857D01*
X179573571Y-95461857D01*
X179459285Y-95404714D01*
X179402142Y-95347571D01*
X181287857Y-95461857D02*
X180602142Y-95461857D01*
X180945000Y-95461857D02*
X180945000Y-94261857D01*
X180830714Y-94433285D01*
X180716428Y-94547571D01*
X180602142Y-94604714D01*
X182430714Y-95461857D02*
X181745000Y-95461857D01*
X182087857Y-95461857D02*
X182087857Y-94261857D01*
X181973571Y-94433285D01*
X181859285Y-94547571D01*
X181745000Y-94604714D01*
X183173571Y-94261857D02*
X183287857Y-94261857D01*
X183402142Y-94319000D01*
X183459285Y-94376142D01*
X183516428Y-94490428D01*
X183573571Y-94719000D01*
X183573571Y-95004714D01*
X183516428Y-95233285D01*
X183459285Y-95347571D01*
X183402142Y-95404714D01*
X183287857Y-95461857D01*
X183173571Y-95461857D01*
X183059285Y-95404714D01*
X183002142Y-95347571D01*
X182945000Y-95233285D01*
X182887857Y-95004714D01*
X182887857Y-94719000D01*
X182945000Y-94490428D01*
X183002142Y-94376142D01*
X183059285Y-94319000D01*
X183173571Y-94261857D01*
X184487857Y-94833285D02*
X184659285Y-94890428D01*
X184716428Y-94947571D01*
X184773571Y-95061857D01*
X184773571Y-95233285D01*
X184716428Y-95347571D01*
X184659285Y-95404714D01*
X184545000Y-95461857D01*
X184087857Y-95461857D01*
X184087857Y-94261857D01*
X184487857Y-94261857D01*
X184602142Y-94319000D01*
X184659285Y-94376142D01*
X184716428Y-94490428D01*
X184716428Y-94604714D01*
X184659285Y-94719000D01*
X184602142Y-94776142D01*
X184487857Y-94833285D01*
X184087857Y-94833285D01*
X171173571Y-97051000D02*
X171745000Y-97051000D01*
X171059285Y-97393857D02*
X171459285Y-96193857D01*
X171859285Y-97393857D01*
X172202142Y-97336714D02*
X172373571Y-97393857D01*
X172659285Y-97393857D01*
X172773571Y-97336714D01*
X172830714Y-97279571D01*
X172887857Y-97165285D01*
X172887857Y-97051000D01*
X172830714Y-96936714D01*
X172773571Y-96879571D01*
X172659285Y-96822428D01*
X172430714Y-96765285D01*
X172316428Y-96708142D01*
X172259285Y-96651000D01*
X172202142Y-96536714D01*
X172202142Y-96422428D01*
X172259285Y-96308142D01*
X172316428Y-96251000D01*
X172430714Y-96193857D01*
X172716428Y-96193857D01*
X172887857Y-96251000D01*
X173345000Y-97336714D02*
X173516428Y-97393857D01*
X173802142Y-97393857D01*
X173916428Y-97336714D01*
X173973571Y-97279571D01*
X174030714Y-97165285D01*
X174030714Y-97051000D01*
X173973571Y-96936714D01*
X173916428Y-96879571D01*
X173802142Y-96822428D01*
X173573571Y-96765285D01*
X173459285Y-96708142D01*
X173402142Y-96651000D01*
X173345000Y-96536714D01*
X173345000Y-96422428D01*
X173402142Y-96308142D01*
X173459285Y-96251000D01*
X173573571Y-96193857D01*
X173859285Y-96193857D01*
X174030714Y-96251000D01*
X174773571Y-96822428D02*
X174773571Y-97393857D01*
X174373571Y-96193857D02*
X174773571Y-96822428D01*
X175173571Y-96193857D01*
X176373571Y-96193857D02*
X177173571Y-96193857D01*
X176659285Y-97393857D01*
X177516428Y-96193857D02*
X178316428Y-96193857D01*
X177802142Y-97393857D01*
X178773571Y-96936714D02*
X179687857Y-96936714D01*
X180145000Y-96193857D02*
X180887857Y-96193857D01*
X180487857Y-96651000D01*
X180659285Y-96651000D01*
X180773571Y-96708142D01*
X180830714Y-96765285D01*
X180887857Y-96879571D01*
X180887857Y-97165285D01*
X180830714Y-97279571D01*
X180773571Y-97336714D01*
X180659285Y-97393857D01*
X180316428Y-97393857D01*
X180202142Y-97336714D01*
X180145000Y-97279571D01*
X182030714Y-97393857D02*
X181345000Y-97393857D01*
X181687857Y-97393857D02*
X181687857Y-96193857D01*
X181573571Y-96365285D01*
X181459285Y-96479571D01*
X181345000Y-96536714D01*
X183173571Y-97393857D02*
X182487857Y-97393857D01*
X182830714Y-97393857D02*
X182830714Y-96193857D01*
X182716428Y-96365285D01*
X182602142Y-96479571D01*
X182487857Y-96536714D01*
X184259285Y-96193857D02*
X183687857Y-96193857D01*
X183630714Y-96765285D01*
X183687857Y-96708142D01*
X183802142Y-96651000D01*
X184087857Y-96651000D01*
X184202142Y-96708142D01*
X184259285Y-96765285D01*
X184316428Y-96879571D01*
X184316428Y-97165285D01*
X184259285Y-97279571D01*
X184202142Y-97336714D01*
X184087857Y-97393857D01*
X183802142Y-97393857D01*
X183687857Y-97336714D01*
X183630714Y-97279571D01*
D10*
D11*
X186782142Y-93687857D02*
X186725000Y-93630714D01*
X186667857Y-93516428D01*
X186667857Y-93230714D01*
X186725000Y-93116428D01*
X186782142Y-93059285D01*
X186896428Y-93002142D01*
X187010714Y-93002142D01*
X187182142Y-93059285D01*
X187867857Y-93745000D01*
X187867857Y-93002142D01*
D12*
D13*
X108520000Y-73780000D02*
X109820000Y-73780000D01*
X109120000Y-74580000D01*
X109420000Y-74580000D01*
X109620000Y-74680000D01*
X109720000Y-74780000D01*
X109820000Y-74980000D01*
X109820000Y-75480000D01*
X109720000Y-75680000D01*
X109620000Y-75780000D01*
X109420000Y-75880000D01*
X108820000Y-75880000D01*
X108620000Y-75780000D01*
X108520000Y-75680000D01*
D10*
D11*
X80965714Y-131422857D02*
X80394285Y-131422857D01*
X80337142Y-131994285D01*
X80394285Y-131937142D01*
X80508571Y-131880000D01*
X80794285Y-131880000D01*
X80908571Y-131937142D01*
X80965714Y-131994285D01*
X81022857Y-132108571D01*
X81022857Y-132394285D01*
X80965714Y-132508571D01*
X80908571Y-132565714D01*
X80794285Y-132622857D01*
X80508571Y-132622857D01*
X80394285Y-132565714D01*
X80337142Y-132508571D01*
X81937142Y-131994285D02*
X82108571Y-132051428D01*
X82165714Y-132108571D01*
X82222857Y-132222857D01*
X82222857Y-132394285D01*
X82165714Y-132508571D01*
X82108571Y-132565714D01*
X81994285Y-132622857D01*
X81537142Y-132622857D01*
X81537142Y-131422857D01*
X81937142Y-131422857D01*
X82051428Y-131480000D01*
X82108571Y-131537142D01*
X82165714Y-131651428D01*
X82165714Y-131765714D01*
X82108571Y-131880000D01*
X82051428Y-131937142D01*
X81937142Y-131994285D01*
X81537142Y-131994285D01*
D12*
D13*
X171935000Y-88750000D02*
X172635000Y-88750000D01*
X172935000Y-89850000D02*
X171935000Y-89850000D01*
X171935000Y-87750000D01*
X172935000Y-87750000D01*
X173635000Y-87750000D02*
X175035000Y-89850000D01*
X175035000Y-87750000D02*
X173635000Y-89850000D01*
X175835000Y-89850000D02*
X175835000Y-87750000D01*
X176835000Y-89850000D02*
X176835000Y-87750000D01*
X177335000Y-87750000D01*
X177635000Y-87850000D01*
X177835000Y-88050000D01*
X177935000Y-88250000D01*
X178035000Y-88650000D01*
X178035000Y-88950000D01*
X177935000Y-89350000D01*
X177835000Y-89550000D01*
X177635000Y-89750000D01*
X177335000Y-89850000D01*
X176835000Y-89850000D01*
X179335000Y-88850000D02*
X179335000Y-89850000D01*
X178635000Y-87750000D02*
X179335000Y-88850000D01*
X180035000Y-87750000D01*
X184035000Y-88250000D02*
X183835000Y-88150000D01*
X183435000Y-88150000D01*
X183235000Y-88250000D01*
X183035000Y-88450000D01*
X182935000Y-88650000D01*
X182935000Y-89050000D01*
X183035000Y-89250000D01*
X183235000Y-89450000D01*
X183435000Y-89550000D01*
X183835000Y-89550000D01*
X184035000Y-89450000D01*
X183635000Y-87450000D02*
X183135000Y-87550000D01*
X182635000Y-87850000D01*
X182335000Y-88350000D01*
X182235000Y-88850000D01*
X182335000Y-89350000D01*
X182635000Y-89850000D01*
X183135000Y-90150000D01*
X183635000Y-90250000D01*
X184135000Y-90150000D01*
X184635000Y-89850000D01*
X184935000Y-89350000D01*
X185035000Y-88850000D01*
X184935000Y-88350000D01*
X184635000Y-87850000D01*
X184135000Y-87550000D01*
X183635000Y-87450000D01*
D12*
D13*
X110890000Y-103050000D02*
X110890000Y-104450000D01*
X110390000Y-102250000D02*
X109890000Y-103750000D01*
X111190000Y-103750000D01*
D12*
D13*
X152435000Y-102555000D02*
X152535000Y-102455000D01*
X152735000Y-102355000D01*
X153235000Y-102355000D01*
X153435000Y-102455000D01*
X153535000Y-102555000D01*
X153635000Y-102755000D01*
X153635000Y-102955000D01*
X153535000Y-103255000D01*
X152335000Y-104455000D01*
X153635000Y-104455000D01*
D10*
D11*
X160883571Y-71732857D02*
X160655000Y-71732857D01*
X160540714Y-71790000D01*
X160483571Y-71847142D01*
X160369285Y-72018571D01*
X160312142Y-72247142D01*
X160312142Y-72704285D01*
X160369285Y-72818571D01*
X160426428Y-72875714D01*
X160540714Y-72932857D01*
X160769285Y-72932857D01*
X160883571Y-72875714D01*
X160940714Y-72818571D01*
X160997857Y-72704285D01*
X160997857Y-72418571D01*
X160940714Y-72304285D01*
X160883571Y-72247142D01*
X160769285Y-72190000D01*
X160540714Y-72190000D01*
X160426428Y-72247142D01*
X160369285Y-72304285D01*
X160312142Y-72418571D01*
D10*
D11*
X160362857Y-128812857D02*
X159677142Y-128812857D01*
X160020000Y-128812857D02*
X160020000Y-127612857D01*
X159905714Y-127784285D01*
X159791428Y-127898571D01*
X159677142Y-127955714D01*
D10*
D11*
X182778571Y-86902857D02*
X182092857Y-86902857D01*
X182435714Y-86902857D02*
X182435714Y-85702857D01*
X182321428Y-85874285D01*
X182207142Y-85988571D01*
X182092857Y-86045714D01*
X183350000Y-86902857D02*
X183578571Y-86902857D01*
X183692857Y-86845714D01*
X183750000Y-86788571D01*
X183864285Y-86617142D01*
X183921428Y-86388571D01*
X183921428Y-85931428D01*
X183864285Y-85817142D01*
X183807142Y-85760000D01*
X183692857Y-85702857D01*
X183464285Y-85702857D01*
X183350000Y-85760000D01*
X183292857Y-85817142D01*
X183235714Y-85931428D01*
X183235714Y-86217142D01*
X183292857Y-86331428D01*
X183350000Y-86388571D01*
X183464285Y-86445714D01*
X183692857Y-86445714D01*
X183807142Y-86388571D01*
X183864285Y-86331428D01*
X183921428Y-86217142D01*
X184321428Y-85702857D02*
X185121428Y-85702857D01*
X184607142Y-86902857D01*
X185750000Y-86217142D02*
X185635714Y-86160000D01*
X185578571Y-86102857D01*
X185521428Y-85988571D01*
X185521428Y-85931428D01*
X185578571Y-85817142D01*
X185635714Y-85760000D01*
X185750000Y-85702857D01*
X185978571Y-85702857D01*
X186092857Y-85760000D01*
X186150000Y-85817142D01*
X186207142Y-85931428D01*
X186207142Y-85988571D01*
X186150000Y-86102857D01*
X186092857Y-86160000D01*
X185978571Y-86217142D01*
X185750000Y-86217142D01*
X185635714Y-86274285D01*
X185578571Y-86331428D01*
X185521428Y-86445714D01*
X185521428Y-86674285D01*
X185578571Y-86788571D01*
X185635714Y-86845714D01*
X185750000Y-86902857D01*
X185978571Y-86902857D01*
X186092857Y-86845714D01*
X186150000Y-86788571D01*
X186207142Y-86674285D01*
X186207142Y-86445714D01*
X186150000Y-86331428D01*
X186092857Y-86274285D01*
X185978571Y-86217142D01*
D10*
D11*
X113265000Y-127612857D02*
X114007857Y-127612857D01*
X113607857Y-128070000D01*
X113779285Y-128070000D01*
X113893571Y-128127142D01*
X113950714Y-128184285D01*
X114007857Y-128298571D01*
X114007857Y-128584285D01*
X113950714Y-128698571D01*
X113893571Y-128755714D01*
X113779285Y-128812857D01*
X113436428Y-128812857D01*
X113322142Y-128755714D01*
X113265000Y-128698571D01*
D10*
D11*
X138722142Y-127727142D02*
X138779285Y-127670000D01*
X138893571Y-127612857D01*
X139179285Y-127612857D01*
X139293571Y-127670000D01*
X139350714Y-127727142D01*
X139407857Y-127841428D01*
X139407857Y-127955714D01*
X139350714Y-128127142D01*
X138665000Y-128812857D01*
X139407857Y-128812857D01*
D12*
D13*
X111525000Y-135375000D02*
X111125000Y-135375000D01*
X110925000Y-135475000D01*
X110825000Y-135575000D01*
X110625000Y-135875000D01*
X110525000Y-136275000D01*
X110525000Y-137075000D01*
X110625000Y-137275000D01*
X110725000Y-137375000D01*
X110925000Y-137475000D01*
X111325000Y-137475000D01*
X111525000Y-137375000D01*
X111625000Y-137275000D01*
X111725000Y-137075000D01*
X111725000Y-136575000D01*
X111625000Y-136375000D01*
X111525000Y-136275000D01*
X111325000Y-136175000D01*
X110925000Y-136175000D01*
X110725000Y-136275000D01*
X110625000Y-136375000D01*
X110525000Y-136575000D01*
D10*
D11*
X161525000Y-131422857D02*
X162325000Y-131422857D01*
X161810714Y-132622857D01*
D10*
D11*
X143281428Y-131422857D02*
X142710000Y-131422857D01*
X142652857Y-131994285D01*
X142710000Y-131937142D01*
X142824285Y-131880000D01*
X143110000Y-131880000D01*
X143224285Y-131937142D01*
X143281428Y-131994285D01*
X143338571Y-132108571D01*
X143338571Y-132394285D01*
X143281428Y-132508571D01*
X143224285Y-132565714D01*
X143110000Y-132622857D01*
X142824285Y-132622857D01*
X142710000Y-132565714D01*
X142652857Y-132508571D01*
X143795714Y-132280000D02*
X144367142Y-132280000D01*
X143681428Y-132622857D02*
X144081428Y-131422857D01*
X144481428Y-132622857D01*
D10*
D11*
X94208571Y-127377857D02*
X94208571Y-128177857D01*
X93922857Y-126920714D02*
X93637142Y-127777857D01*
X94380000Y-127777857D01*
D10*
D11*
X187302857Y-134956428D02*
X187302857Y-134213571D01*
X187760000Y-134613571D01*
X187760000Y-134442142D01*
X187817142Y-134327857D01*
X187874285Y-134270714D01*
X187988571Y-134213571D01*
X188274285Y-134213571D01*
X188388571Y-134270714D01*
X188445714Y-134327857D01*
X188502857Y-134442142D01*
X188502857Y-134785000D01*
X188445714Y-134899285D01*
X188388571Y-134956428D01*
X187302857Y-133470714D02*
X187302857Y-133356428D01*
X187360000Y-133242142D01*
X187417142Y-133185000D01*
X187531428Y-133127857D01*
X187760000Y-133070714D01*
X188045714Y-133070714D01*
X188274285Y-133127857D01*
X188388571Y-133185000D01*
X188445714Y-133242142D01*
X188502857Y-133356428D01*
X188502857Y-133470714D01*
X188445714Y-133585000D01*
X188388571Y-133642142D01*
X188274285Y-133699285D01*
X188045714Y-133756428D01*
X187760000Y-133756428D01*
X187531428Y-133699285D01*
X187417142Y-133642142D01*
X187360000Y-133585000D01*
X187302857Y-133470714D01*
D14*
X100330000Y-121285000D03*
X161925000Y-74930000D03*
X146050000Y-136525000D03*
X100330000Y-124460000D03*
D15*
X105410000Y-131445000D03*
D16*
X102870000Y-131445000D03*
X100330000Y-131445000D03*
X97790000Y-131445000D03*
X95250000Y-131445000D03*
X92710000Y-131445000D03*
X90170000Y-131445000D03*
X87630000Y-131445000D03*
X87630000Y-139065000D03*
X90170000Y-139065000D03*
X92710000Y-139065000D03*
X95250000Y-139065000D03*
X97790000Y-139065000D03*
X100330000Y-139065000D03*
X102870000Y-139065000D03*
X105410000Y-139065000D03*
D14*
X140970000Y-136525000D03*
X97790000Y-124460000D03*
X161290000Y-121285000D03*
X140335000Y-121285000D03*
X153670000Y-124460000D03*
D17*
X192985000Y-95660000D03*
X192985000Y-98200000D03*
X192985000Y-100740000D03*
X192985000Y-103280000D03*
X192985000Y-105820000D03*
X192985000Y-108360000D03*
X192985000Y-110900000D03*
X192985000Y-113440000D03*
X192985000Y-115980000D03*
X192985000Y-118520000D03*
X192985000Y-121060000D03*
X192985000Y-123600000D03*
X192985000Y-126140000D03*
X192985000Y-128680000D03*
X192985000Y-131220000D03*
D14*
X122555000Y-124460000D03*
D15*
X150500000Y-74925000D03*
D16*
X147960000Y-74925000D03*
X145420000Y-74925000D03*
X142880000Y-74925000D03*
X140340000Y-74925000D03*
X137800000Y-74925000D03*
X135260000Y-74925000D03*
X132720000Y-74925000D03*
X130180000Y-74925000D03*
X127640000Y-74925000D03*
X125100000Y-74925000D03*
X122560000Y-74925000D03*
X122560000Y-90165000D03*
X125100000Y-90165000D03*
X127640000Y-90165000D03*
X130180000Y-90165000D03*
X132720000Y-90165000D03*
X135260000Y-90165000D03*
X137800000Y-90165000D03*
X140340000Y-90165000D03*
X142880000Y-90165000D03*
X145420000Y-90165000D03*
X147960000Y-90165000D03*
X150500000Y-90165000D03*
D14*
X82695000Y-134620000D03*
X164465000Y-72390000D03*
X159385000Y-132080000D03*
X166370000Y-121285000D03*
D18*
X83065000Y-124460000D03*
X75565000Y-124460000D03*
D14*
X135255000Y-124460000D03*
X145415000Y-124460000D03*
X87630000Y-124460000D03*
X167005000Y-74930000D03*
X117475000Y-121285000D03*
D18*
X177680000Y-108585000D03*
X170180000Y-108585000D03*
D14*
X163830000Y-124460000D03*
X95250000Y-121285000D03*
X166370000Y-124460000D03*
X92710000Y-124460000D03*
X112395000Y-121285000D03*
X104775000Y-124460000D03*
X142875000Y-121285000D03*
X92710000Y-121285000D03*
X90170000Y-124460000D03*
X156845000Y-135255000D03*
X90170000Y-121285000D03*
X117475000Y-118745000D03*
X132715000Y-124460000D03*
X151130000Y-124460000D03*
X140970000Y-133985000D03*
X135255000Y-121285000D03*
X137795000Y-121285000D03*
X156845000Y-132080000D03*
X142875000Y-124460000D03*
D15*
X105410000Y-103500000D03*
D16*
X102870000Y-103500000D03*
X100330000Y-103500000D03*
X97790000Y-103500000D03*
X95250000Y-103500000D03*
X92710000Y-103500000D03*
X90170000Y-103500000D03*
X87630000Y-103500000D03*
X85090000Y-103500000D03*
X82550000Y-103500000D03*
X80010000Y-103500000D03*
X77470000Y-103500000D03*
X77470000Y-118740000D03*
X80010000Y-118740000D03*
X82550000Y-118740000D03*
X85090000Y-118740000D03*
X87630000Y-118740000D03*
X90170000Y-118740000D03*
X92710000Y-118740000D03*
X95250000Y-118740000D03*
X97790000Y-118740000D03*
X100330000Y-118740000D03*
X102870000Y-118740000D03*
X105410000Y-118740000D03*
D14*
X114935000Y-121285000D03*
X168910000Y-124460000D03*
X140335000Y-124460000D03*
X109855000Y-121285000D03*
X159385000Y-74930000D03*
X154305000Y-135255000D03*
X161290000Y-124460000D03*
X137795000Y-124460000D03*
D18*
X154365000Y-90170000D03*
X161865000Y-90170000D03*
D14*
X117475000Y-124460000D03*
X156210000Y-121285000D03*
X167005000Y-72390000D03*
X95250000Y-124460000D03*
X146050000Y-133985000D03*
X112395000Y-124460000D03*
X158750000Y-121285000D03*
X163830000Y-121285000D03*
X109855000Y-124460000D03*
X145415000Y-121285000D03*
D15*
X137800000Y-131455000D03*
D16*
X135260000Y-131455000D03*
X132720000Y-131455000D03*
X130180000Y-131455000D03*
X127640000Y-131455000D03*
X125100000Y-131455000D03*
X122560000Y-131455000D03*
X122560000Y-139075000D03*
X125100000Y-139075000D03*
X127640000Y-139075000D03*
X130180000Y-139075000D03*
X132720000Y-139075000D03*
X135260000Y-139075000D03*
X137800000Y-139075000D03*
D14*
X169545000Y-72390000D03*
X80010000Y-134620000D03*
D15*
X173395000Y-139065000D03*
D18*
X178395000Y-139065000D03*
X109340000Y-90170000D03*
X116840000Y-90170000D03*
D14*
X156210000Y-124460000D03*
X159385000Y-135255000D03*
D19*
X184785000Y-130190000D03*
D20*
X184785000Y-128890000D03*
D14*
X161925000Y-135255000D03*
X107315000Y-124460000D03*
D15*
X105410000Y-74930000D03*
D16*
X102870000Y-74930000D03*
X100330000Y-74930000D03*
X97790000Y-74930000D03*
X95250000Y-74930000D03*
X92710000Y-74930000D03*
X90170000Y-74930000D03*
X87630000Y-74930000D03*
X85090000Y-74930000D03*
X82550000Y-74930000D03*
X80010000Y-74930000D03*
X77470000Y-74930000D03*
X77470000Y-90170000D03*
X80010000Y-90170000D03*
X82550000Y-90170000D03*
X85090000Y-90170000D03*
X87630000Y-90170000D03*
X90170000Y-90170000D03*
X92710000Y-90170000D03*
X95250000Y-90170000D03*
X97790000Y-90170000D03*
X100330000Y-90170000D03*
X102870000Y-90170000D03*
X105410000Y-90170000D03*
D18*
X179705000Y-122555000D03*
X172205000Y-122555000D03*
D14*
X120015000Y-124460000D03*
D15*
X181530000Y-127635000D03*
D18*
X176530000Y-127635000D03*
D14*
X97790000Y-121285000D03*
D15*
X181015000Y-139065000D03*
D18*
X186015000Y-139065000D03*
X151010000Y-139065000D03*
X143510000Y-139065000D03*
X75565000Y-128270000D03*
X83065000Y-128270000D03*
D14*
X158750000Y-124460000D03*
D15*
X150500000Y-103500000D03*
D16*
X147960000Y-103500000D03*
X145420000Y-103500000D03*
X142880000Y-103500000D03*
X140340000Y-103500000D03*
X137800000Y-103500000D03*
X135260000Y-103500000D03*
X132720000Y-103500000D03*
X130180000Y-103500000D03*
X127640000Y-103500000D03*
X125100000Y-103500000D03*
X122560000Y-103500000D03*
X122560000Y-118740000D03*
X125100000Y-118740000D03*
X127640000Y-118740000D03*
X130180000Y-118740000D03*
X132720000Y-118740000D03*
X135260000Y-118740000D03*
X137800000Y-118740000D03*
X140340000Y-118740000D03*
X142880000Y-118740000D03*
X145420000Y-118740000D03*
X147960000Y-118740000D03*
X150500000Y-118740000D03*
D14*
X169545000Y-74930000D03*
D18*
X163255000Y-139065000D03*
X170755000Y-139065000D03*
D14*
X164465000Y-74930000D03*
D21*
X155164999Y-103280001D03*
X148590000Y-124460000D03*
X110490000Y-139065000D03*
X178435000Y-113030000D03*
X169545000Y-132715000D03*
X131445000Y-114300000D03*
X187550000Y-121060000D03*
X168275000Y-133985000D03*
X163830000Y-101600000D03*
X179705000Y-108585000D03*
X187550000Y-123600000D03*
X168275000Y-116840000D03*
X168275000Y-135255000D03*
X173355000Y-108585000D03*
X161925000Y-104775000D03*
X140335000Y-128905000D03*
X170180000Y-128905000D03*
X96520000Y-128905000D03*
X187550000Y-118520000D03*
X161290000Y-128905000D03*
X171450000Y-112395000D03*
X112395000Y-128270000D03*
X160020000Y-111760000D03*
X107950000Y-116205000D03*
X152400000Y-111760000D03*
X165735000Y-117475000D03*
X153670000Y-131445000D03*
X147960000Y-76830000D03*
X187550000Y-95660000D03*
X145420000Y-78100000D03*
X142880000Y-78735000D03*
X187550000Y-98200000D03*
X137800000Y-80005000D03*
X187550000Y-100740000D03*
X187550000Y-103280000D03*
X132720000Y-81275000D03*
X145420000Y-88260000D03*
X187550000Y-105820000D03*
X128905000Y-92075000D03*
X83820000Y-92075000D03*
X126365000Y-93345000D03*
X187550000Y-108360000D03*
X81134511Y-93490489D03*
X78594511Y-94760489D03*
X123825000Y-94615000D03*
X122560000Y-95885000D03*
X187735000Y-110900000D03*
X77470000Y-95885000D03*
X80010000Y-97155000D03*
X125100000Y-97155000D03*
X82550000Y-98425000D03*
X187735000Y-113440000D03*
X127635000Y-98425000D03*
X86360000Y-100965000D03*
X130180000Y-99700000D03*
X187735000Y-115980000D03*
X133985000Y-100965000D03*
X88900000Y-100965000D03*
X149135489Y-111849511D03*
X149225000Y-114935000D03*
X114935000Y-131445000D03*
X112395000Y-110490000D03*
X132720000Y-135885000D03*
X163830000Y-106045000D03*
X144145000Y-106045000D03*
X123825000Y-115570000D03*
X91440000Y-114935000D03*
X113030000Y-135890000D03*
X140340000Y-79370000D03*
X135260000Y-80640000D03*
X170815000Y-134620000D03*
X120650000Y-118110000D03*
X116205000Y-139065000D03*
X157480000Y-119380000D03*
X161865000Y-102930000D03*
X161290000Y-107950000D03*
X141605000Y-107315000D03*
X139065000Y-108585000D03*
X158750000Y-109220000D03*
X154305000Y-110490000D03*
X136525000Y-109855000D03*
X114935000Y-113665000D03*
X96520000Y-109220000D03*
X112395000Y-113665000D03*
X92710000Y-111125000D03*
X91440000Y-112395000D03*
X109855000Y-114935000D03*
X99060000Y-107315000D03*
X116205000Y-112395000D03*
X152400000Y-117475000D03*
X126365000Y-117475000D03*
X146050000Y-130175000D03*
X146685000Y-115570000D03*
X128905000Y-115570000D03*
X93980000Y-133350000D03*
X135260000Y-135885000D03*
D22*
X163255000Y-136644511D02*
X163255000Y-139065000D01*
D23*
X150500000Y-118740000D02*
X148590000Y-120650000D01*
D22*
X168910000Y-130989511D02*
X163255000Y-136644511D01*
D23*
X107950000Y-139065000D02*
X105410000Y-139065000D01*
D22*
X120650000Y-126724022D02*
X120650000Y-135255000D01*
D23*
X148590000Y-132715000D02*
X151010000Y-135135000D01*
X151010000Y-135135000D02*
X151010000Y-139065000D01*
X107315000Y-90170000D02*
X107315000Y-110490000D01*
X154365000Y-90170000D02*
X155164999Y-90969999D01*
X105410000Y-112395000D02*
X105410000Y-118740000D01*
D22*
X112395000Y-137795000D02*
X111125000Y-139065000D01*
D23*
X107950000Y-131004022D02*
X107950000Y-139065000D01*
X155164999Y-103280001D02*
X155164999Y-107090001D01*
D22*
X100330000Y-124460000D02*
X102870000Y-124460000D01*
D23*
X107950000Y-139065000D02*
X110490000Y-139065000D01*
X107315000Y-90170000D02*
X109340000Y-90170000D01*
X150500000Y-111765000D02*
X150500000Y-118740000D01*
D22*
X118110000Y-137795000D02*
X112395000Y-137795000D01*
D23*
X155164999Y-107090001D02*
X150495000Y-111760000D01*
X155164999Y-90969999D02*
X155164999Y-103280001D01*
D22*
X168910000Y-124460000D02*
X168910000Y-130989511D01*
D23*
X105410000Y-118740000D02*
X102870000Y-121280000D01*
X102870000Y-124460000D02*
X102870000Y-125924022D01*
X154360000Y-90165000D02*
X154365000Y-90170000D01*
X105410000Y-90170000D02*
X107315000Y-90170000D01*
D22*
X120650000Y-135255000D02*
X118110000Y-137795000D01*
D23*
X150495000Y-111760000D02*
X150500000Y-111765000D01*
D22*
X122555000Y-124460000D02*
X122555000Y-124819022D01*
D23*
X148590000Y-120650000D02*
X148590000Y-132715000D01*
X102870000Y-121280000D02*
X102870000Y-124460000D01*
D22*
X111125000Y-139065000D02*
X110490000Y-139065000D01*
X122555000Y-124819022D02*
X120650000Y-126724022D01*
D23*
X107315000Y-110490000D02*
X105410000Y-112395000D01*
X150500000Y-90165000D02*
X154360000Y-90165000D01*
X102870000Y-125924022D02*
X107950000Y-131004022D01*
X192985000Y-128680000D02*
X185010000Y-128680000D01*
D24*
X170180000Y-108585000D02*
X170180000Y-120650000D01*
X170180000Y-120650000D02*
X166370000Y-124460000D01*
D23*
X192985000Y-126140000D02*
X183025000Y-126140000D01*
X183025000Y-126140000D02*
X181530000Y-127635000D01*
D24*
X173725960Y-128534040D02*
X173725960Y-124089040D01*
X131445000Y-137810000D02*
X130180000Y-139075000D01*
X131445000Y-114300000D02*
X131445000Y-137810000D01*
X169545000Y-132715000D02*
X173725960Y-128534040D01*
X173725960Y-124089040D02*
X178435000Y-119380000D01*
X178435000Y-119380000D02*
X178435000Y-113030000D01*
X169457316Y-133985000D02*
X174175480Y-129266836D01*
X186055000Y-120015000D02*
X186055000Y-114935000D01*
X174175480Y-129266836D02*
X174175480Y-125543802D01*
X187100000Y-121060000D02*
X186055000Y-120015000D01*
X179705000Y-120014282D02*
X179705000Y-108585000D01*
X159385000Y-74930000D02*
X163830000Y-79375000D01*
X192985000Y-121060000D02*
X187550000Y-121060000D01*
X187550000Y-121060000D02*
X187100000Y-121060000D01*
X174175480Y-125543802D02*
X179705000Y-120014282D01*
X163830000Y-79375000D02*
X163830000Y-99060000D01*
X163830000Y-99060000D02*
X163830000Y-101600000D01*
X186055000Y-114935000D02*
X179705000Y-108585000D01*
X168275000Y-133985000D02*
X169457316Y-133985000D01*
X174625000Y-129453034D02*
X174625000Y-125730000D01*
X168275000Y-107315000D02*
X168275000Y-116840000D01*
X187100000Y-123600000D02*
X187550000Y-123600000D01*
X179705000Y-120650000D02*
X184150000Y-120650000D01*
X192985000Y-123600000D02*
X187550000Y-123600000D01*
X168275000Y-135255000D02*
X168823034Y-135255000D01*
X169545000Y-106045000D02*
X168275000Y-107315000D01*
X169501517Y-134576517D02*
X174625000Y-129453034D01*
X169545000Y-74930000D02*
X169545000Y-106045000D01*
X168823034Y-135255000D02*
X169501517Y-134576517D01*
X184150000Y-120650000D02*
X187100000Y-123600000D01*
X174625000Y-125730000D02*
X179705000Y-120650000D01*
X112395000Y-124460000D02*
X112395000Y-128270000D01*
X95250000Y-127635000D02*
X96520000Y-128905000D01*
X95250000Y-124460000D02*
X95250000Y-127635000D01*
X171450000Y-110490000D02*
X173355000Y-108585000D01*
X165100000Y-101600000D02*
X165100000Y-100965000D01*
X171450000Y-111125000D02*
X171450000Y-110490000D01*
X170629520Y-113215480D02*
X171450000Y-112395000D01*
X161925000Y-104775000D02*
X165100000Y-101600000D01*
X165100000Y-78740000D02*
X165100000Y-100965000D01*
X171450000Y-112395000D02*
X171450000Y-111125000D01*
X161925000Y-74930000D02*
X161925000Y-75565000D01*
X170629520Y-128455480D02*
X170629520Y-113215480D01*
X192985000Y-118520000D02*
X187550000Y-118520000D01*
X161290000Y-128905000D02*
X161290000Y-124460000D01*
X140335000Y-124460000D02*
X140335000Y-128905000D01*
X170180000Y-128905000D02*
X170629520Y-128455480D01*
X161925000Y-75565000D02*
X165100000Y-78740000D01*
X151130000Y-124460000D02*
X151130000Y-121920000D01*
X164465000Y-74930000D02*
X164465000Y-76200000D01*
X153670000Y-113030000D02*
X152400000Y-111760000D01*
X161044614Y-106680000D02*
X160020000Y-106680000D01*
X160020000Y-106680000D02*
X160020000Y-111760000D01*
X104775000Y-124460000D02*
X104775000Y-123825000D01*
X151130000Y-121920000D02*
X153670000Y-119380000D01*
X153670000Y-119380000D02*
X153670000Y-114935000D01*
X164465000Y-76200000D02*
X166370000Y-78105000D01*
X166370000Y-101354614D02*
X161044614Y-106680000D01*
X153670000Y-114935000D02*
X153670000Y-113030000D01*
X104775000Y-123825000D02*
X107950000Y-120650000D01*
X166370000Y-78105000D02*
X166370000Y-101354614D01*
X107950000Y-120650000D02*
X107950000Y-116205000D01*
X167640000Y-105410000D02*
X165735000Y-107315000D01*
X167005000Y-74930000D02*
X167005000Y-76200000D01*
X165735000Y-107315000D02*
X165735000Y-117475000D01*
X167005000Y-76200000D02*
X167640000Y-76835000D01*
X167640000Y-76835000D02*
X167640000Y-105410000D01*
X153670000Y-124460000D02*
X153670000Y-131445000D01*
X156210000Y-124460000D02*
X153670000Y-124460000D01*
X150495000Y-102235000D02*
X150495000Y-100965000D01*
X105410000Y-103500000D02*
X105410000Y-100965000D01*
X149225000Y-85090000D02*
X149225000Y-99695000D01*
X150500000Y-103500000D02*
X150500000Y-102240000D01*
X150500000Y-74925000D02*
X150500000Y-83815000D01*
X104140000Y-76200000D02*
X105410000Y-74930000D01*
X150500000Y-83815000D02*
X149225000Y-85090000D01*
X150500000Y-102240000D02*
X150495000Y-102235000D01*
X105410000Y-100965000D02*
X104140000Y-99695000D01*
X150495000Y-100965000D02*
X149225000Y-99695000D01*
X104140000Y-99695000D02*
X104140000Y-76200000D01*
X101600000Y-76200000D02*
X101600000Y-99695000D01*
X147960000Y-103500000D02*
X147960000Y-102240000D01*
X102870000Y-100965000D02*
X102870000Y-103500000D01*
X147960000Y-74925000D02*
X147960000Y-76830000D01*
X192985000Y-95660000D02*
X187550000Y-95660000D01*
X147955000Y-100965000D02*
X146685000Y-99695000D01*
X147960000Y-76830000D02*
X147960000Y-83815000D01*
X101600000Y-99695000D02*
X102870000Y-100965000D01*
X147960000Y-83815000D02*
X146685000Y-85090000D01*
X146685000Y-99695000D02*
X146685000Y-85090000D01*
X102870000Y-74930000D02*
X101600000Y-76200000D01*
X147955000Y-102235000D02*
X147955000Y-100965000D01*
X147960000Y-102240000D02*
X147955000Y-102235000D01*
X99060000Y-76200000D02*
X100330000Y-74930000D01*
X99060000Y-99695000D02*
X99060000Y-76200000D01*
X145415000Y-100965000D02*
X144145000Y-99695000D01*
X145420000Y-83815000D02*
X144145000Y-85090000D01*
X145420000Y-102240000D02*
X145420000Y-103500000D01*
X144145000Y-85090000D02*
X144145000Y-99695000D01*
X145415000Y-102235000D02*
X145420000Y-102240000D01*
X100330000Y-103500000D02*
X100330000Y-100965000D01*
X145420000Y-78100000D02*
X145420000Y-83815000D01*
X145415000Y-102235000D02*
X145415000Y-100965000D01*
X145420000Y-74925000D02*
X145420000Y-78100000D01*
X100330000Y-100965000D02*
X99060000Y-99695000D01*
X142880000Y-83815000D02*
X141605000Y-85090000D01*
X97790000Y-74930000D02*
X96520000Y-76200000D01*
X142880000Y-103500000D02*
X142880000Y-102240000D01*
X142875000Y-100965000D02*
X141605000Y-99695000D01*
X96520000Y-99695000D02*
X97790000Y-100965000D01*
X142880000Y-78735000D02*
X142880000Y-83815000D01*
X192985000Y-98200000D02*
X187550000Y-98200000D01*
X142875000Y-102235000D02*
X142875000Y-100965000D01*
X96520000Y-76200000D02*
X96520000Y-99695000D01*
X97790000Y-100965000D02*
X97790000Y-103500000D01*
X142880000Y-102240000D02*
X142875000Y-102235000D01*
X142880000Y-74925000D02*
X142880000Y-78735000D01*
X141605000Y-99695000D02*
X141605000Y-85090000D01*
X137795000Y-102235000D02*
X137795000Y-100965000D01*
X92710000Y-100965000D02*
X92710000Y-103500000D01*
X137800000Y-80005000D02*
X137800000Y-83815000D01*
X137795000Y-100965000D02*
X136525000Y-99695000D01*
X192985000Y-100740000D02*
X187550000Y-100740000D01*
X92710000Y-74930000D02*
X91440000Y-76200000D01*
X137800000Y-102240000D02*
X137795000Y-102235000D01*
X91440000Y-99695000D02*
X92710000Y-100965000D01*
X91440000Y-76200000D02*
X91440000Y-99695000D01*
X137800000Y-103500000D02*
X137800000Y-102240000D01*
X136525000Y-99695000D02*
X136525000Y-85090000D01*
X137800000Y-83815000D02*
X136525000Y-85090000D01*
X137800000Y-74925000D02*
X137800000Y-80005000D01*
X132720000Y-83815000D02*
X131445000Y-85090000D01*
X132720000Y-103500000D02*
X132720000Y-102240000D01*
X132720000Y-81275000D02*
X132720000Y-83815000D01*
X132720000Y-74925000D02*
X132720000Y-81275000D01*
X131445000Y-99695000D02*
X131445000Y-85090000D01*
X132720000Y-102240000D02*
X132715000Y-102235000D01*
X86360000Y-76200000D02*
X86360000Y-99695000D01*
X86360000Y-99695000D02*
X87630000Y-100965000D01*
X132715000Y-100965000D02*
X131445000Y-99695000D01*
X87630000Y-100965000D02*
X87630000Y-103500000D01*
X87630000Y-74930000D02*
X86360000Y-76200000D01*
X192985000Y-103280000D02*
X187550000Y-103280000D01*
X132715000Y-102235000D02*
X132715000Y-100965000D01*
X145420000Y-90165000D02*
X145420000Y-88260000D01*
X145420000Y-106040000D02*
X146685000Y-104775000D01*
X146685000Y-100955000D02*
X145420000Y-99690000D01*
X100330000Y-90170000D02*
X100330000Y-99695000D01*
X100330000Y-99695000D02*
X101600000Y-100965000D01*
X145420000Y-99690000D02*
X145420000Y-90165000D01*
X146685000Y-104775000D02*
X146685000Y-100955000D01*
X145420000Y-118740000D02*
X145420000Y-106040000D01*
X101600000Y-100965000D02*
X101600000Y-117470000D01*
X101600000Y-117470000D02*
X100330000Y-118740000D01*
X102870000Y-99695000D02*
X104140000Y-100965000D01*
X147960000Y-106040000D02*
X149225000Y-104775000D01*
X104140000Y-100965000D02*
X104140000Y-117470000D01*
X192985000Y-105820000D02*
X187550000Y-105820000D01*
X102870000Y-90170000D02*
X102870000Y-99695000D01*
X104140000Y-117470000D02*
X102870000Y-118740000D01*
X147960000Y-99700000D02*
X147960000Y-90165000D01*
X149225000Y-104775000D02*
X149225000Y-100965000D01*
X147960000Y-118740000D02*
X147960000Y-106040000D01*
X149225000Y-100965000D02*
X147960000Y-99700000D01*
X83820000Y-92075000D02*
X83820000Y-76200000D01*
X130180000Y-74925000D02*
X130180000Y-83815000D01*
X85090000Y-103500000D02*
X85090000Y-100965000D01*
X83820000Y-93345000D02*
X83820000Y-92075000D01*
X85090000Y-100965000D02*
X83820000Y-99695000D01*
X130180000Y-102240000D02*
X130175000Y-102235000D01*
X83820000Y-76200000D02*
X85090000Y-74930000D01*
X130175000Y-100965000D02*
X128905000Y-99695000D01*
X128905000Y-92075000D02*
X128905000Y-85090000D01*
X130180000Y-103500000D02*
X130180000Y-102240000D01*
X130180000Y-83815000D02*
X128905000Y-85090000D01*
X83820000Y-99695000D02*
X83820000Y-93345000D01*
X130175000Y-102235000D02*
X130175000Y-100965000D01*
X128905000Y-99695000D02*
X128905000Y-92075000D01*
X127635000Y-100965000D02*
X126365000Y-99695000D01*
X127640000Y-103500000D02*
X127640000Y-102240000D01*
X81134511Y-99549511D02*
X81134511Y-94760489D01*
X81134511Y-76345489D02*
X82550000Y-74930000D01*
X127635000Y-102235000D02*
X127635000Y-100965000D01*
X127640000Y-83815000D02*
X126365000Y-85090000D01*
X126365000Y-99695000D02*
X126365000Y-85090000D01*
X127640000Y-74925000D02*
X127640000Y-83815000D01*
X192985000Y-108360000D02*
X189005000Y-108360000D01*
X127640000Y-102240000D02*
X127635000Y-102235000D01*
X82550000Y-103500000D02*
X82550000Y-100965000D01*
X81134511Y-93490489D02*
X81134511Y-76345489D01*
X189005000Y-108360000D02*
X187550000Y-108360000D01*
X81134511Y-94760489D02*
X81134511Y-93490489D01*
X82550000Y-100965000D02*
X81134511Y-99549511D01*
X125095000Y-102235000D02*
X125095000Y-100965000D01*
X123825000Y-99695000D02*
X123825000Y-85090000D01*
X125100000Y-83815000D02*
X123825000Y-85090000D01*
X78594511Y-99549511D02*
X78594511Y-96030489D01*
X125095000Y-100965000D02*
X123825000Y-99695000D01*
X78594511Y-96030489D02*
X78594511Y-94760489D01*
X78594511Y-76345489D02*
X80010000Y-74930000D01*
X80010000Y-100965000D02*
X78594511Y-99549511D01*
X125100000Y-74925000D02*
X125100000Y-83815000D01*
X125100000Y-103500000D02*
X125100000Y-102240000D01*
X80010000Y-103500000D02*
X80010000Y-100965000D01*
X78594511Y-94760489D02*
X78594511Y-76345489D01*
X125100000Y-102240000D02*
X125095000Y-102235000D01*
X123825000Y-109855000D02*
X123825000Y-100965000D01*
X122560000Y-99700000D02*
X122560000Y-90165000D01*
X122560000Y-118740000D02*
X122560000Y-111120000D01*
X78740000Y-100965000D02*
X78740000Y-117470000D01*
X192985000Y-110900000D02*
X187735000Y-110900000D01*
X77470000Y-95885000D02*
X77470000Y-97790000D01*
X122560000Y-111120000D02*
X123825000Y-109855000D01*
X123825000Y-100965000D02*
X122560000Y-99700000D01*
X78740000Y-117470000D02*
X77470000Y-118740000D01*
X77470000Y-97790000D02*
X77470000Y-99695000D01*
X77470000Y-90170000D02*
X77470000Y-95885000D01*
X77470000Y-99695000D02*
X78740000Y-100965000D01*
X80010000Y-99695000D02*
X81280000Y-100965000D01*
X81280000Y-117470000D02*
X80010000Y-118740000D01*
X80010000Y-97155000D02*
X80010000Y-98425000D01*
X81280000Y-100965000D02*
X81280000Y-117470000D01*
X126365000Y-109855000D02*
X126365000Y-100965000D01*
X125100000Y-111120000D02*
X126365000Y-109855000D01*
X80010000Y-98425000D02*
X80010000Y-99695000D01*
X80010000Y-90170000D02*
X80010000Y-97155000D01*
X126365000Y-100965000D02*
X125100000Y-99700000D01*
X125100000Y-99700000D02*
X125100000Y-90165000D01*
X125100000Y-118740000D02*
X125100000Y-111120000D01*
X128905000Y-100955000D02*
X127640000Y-99690000D01*
X128905000Y-109855000D02*
X128905000Y-100955000D01*
X127640000Y-99690000D02*
X127640000Y-90165000D01*
X82550000Y-99695000D02*
X83820000Y-100965000D01*
X127640000Y-111120000D02*
X128905000Y-109855000D01*
X127640000Y-118740000D02*
X127640000Y-111120000D01*
X82550000Y-98425000D02*
X82550000Y-99060000D01*
X83820000Y-100965000D02*
X83820000Y-117470000D01*
X82550000Y-90170000D02*
X82550000Y-98425000D01*
X83820000Y-117470000D02*
X82550000Y-118740000D01*
X192985000Y-113440000D02*
X187735000Y-113440000D01*
X82550000Y-99060000D02*
X82550000Y-99695000D01*
X86360000Y-100965000D02*
X86360000Y-117470000D01*
X130180000Y-118740000D02*
X130180000Y-111120000D01*
X130180000Y-111120000D02*
X131445000Y-109855000D01*
X85090000Y-99695000D02*
X86360000Y-100965000D01*
X85090000Y-90170000D02*
X85090000Y-99695000D01*
X131445000Y-100965000D02*
X130180000Y-99700000D01*
X131445000Y-109855000D02*
X131445000Y-100965000D01*
X130180000Y-99700000D02*
X130180000Y-90165000D01*
X86360000Y-117470000D02*
X85090000Y-118740000D01*
X132720000Y-118740000D02*
X132720000Y-111120000D01*
X133985000Y-109855000D02*
X133985000Y-100965000D01*
X88900000Y-100965000D02*
X88900000Y-117470000D01*
X87630000Y-90170000D02*
X87630000Y-99695000D01*
X132720000Y-99690000D02*
X132720000Y-90165000D01*
X87630000Y-99695000D02*
X88900000Y-100965000D01*
X192985000Y-115980000D02*
X187735000Y-115980000D01*
X133985000Y-100965000D02*
X133985000Y-100955000D01*
X133985000Y-100955000D02*
X132720000Y-99690000D01*
X88900000Y-117470000D02*
X87630000Y-118740000D01*
X132720000Y-111120000D02*
X133985000Y-109855000D01*
X149135489Y-114845489D02*
X149225000Y-114935000D01*
X114935000Y-131445000D02*
X114935000Y-123825000D01*
X113665000Y-112395000D02*
X113665000Y-111760000D01*
X113665000Y-122555000D02*
X113665000Y-112395000D01*
X114935000Y-123825000D02*
X113665000Y-122555000D01*
X149135489Y-111849511D02*
X149135489Y-114845489D01*
X113665000Y-111760000D02*
X112395000Y-110490000D01*
X132720000Y-139075000D02*
X132720000Y-135885000D01*
X82695000Y-134620000D02*
X82695000Y-134765000D01*
X92710000Y-137160000D02*
X92710000Y-139065000D01*
X83185000Y-135255000D02*
X90805000Y-135255000D01*
X90805000Y-135255000D02*
X92710000Y-137160000D01*
X82695000Y-134765000D02*
X83185000Y-135255000D01*
X90170000Y-137160000D02*
X90170000Y-139065000D01*
X80010000Y-134620000D02*
X81280000Y-135890000D01*
X81280000Y-135890000D02*
X88900000Y-135890000D01*
X88900000Y-135890000D02*
X90170000Y-137160000D01*
X142880000Y-99700000D02*
X142880000Y-90165000D01*
X163830000Y-121285000D02*
X163830000Y-109220000D01*
X144145000Y-106045000D02*
X144145000Y-100965000D01*
X163830000Y-109220000D02*
X163830000Y-106045000D01*
X144145000Y-100965000D02*
X142880000Y-99700000D01*
X123825000Y-115570000D02*
X123825000Y-120650000D01*
X92710000Y-130175000D02*
X91440000Y-128905000D01*
X92710000Y-131445000D02*
X92710000Y-130175000D01*
X123825000Y-137810000D02*
X122560000Y-139075000D01*
X123825000Y-120650000D02*
X125730000Y-122555000D01*
X91440000Y-128905000D02*
X91440000Y-114935000D01*
X125730000Y-122555000D02*
X125730000Y-126365000D01*
X123825000Y-128270000D02*
X123825000Y-137810000D01*
X125730000Y-126365000D02*
X123825000Y-128270000D01*
X109855000Y-124460000D02*
X107315000Y-124460000D01*
X109855000Y-132715000D02*
X113030000Y-135890000D01*
X109855000Y-131445000D02*
X109855000Y-132715000D01*
X109855000Y-124460000D02*
X109855000Y-131445000D01*
X91440000Y-130175000D02*
X91440000Y-134620000D01*
X91440000Y-134620000D02*
X95250000Y-138430000D01*
X95250000Y-138430000D02*
X95250000Y-139065000D01*
X87630000Y-124460000D02*
X90170000Y-124460000D01*
X90170000Y-128905000D02*
X91440000Y-130175000D01*
X90170000Y-124460000D02*
X90170000Y-128905000D01*
X140335000Y-100965000D02*
X139065000Y-99695000D01*
X93980000Y-76200000D02*
X93980000Y-99695000D01*
X139065000Y-99695000D02*
X139065000Y-85090000D01*
X140335000Y-102235000D02*
X140335000Y-100965000D01*
X140340000Y-79370000D02*
X140340000Y-83815000D01*
X140340000Y-102240000D02*
X140335000Y-102235000D01*
X140340000Y-103500000D02*
X140340000Y-102240000D01*
X95250000Y-100965000D02*
X95250000Y-103500000D01*
X95250000Y-74930000D02*
X93980000Y-76200000D01*
X140340000Y-83815000D02*
X139065000Y-85090000D01*
X93980000Y-99695000D02*
X95250000Y-100965000D01*
X140340000Y-74925000D02*
X140340000Y-79370000D01*
X133985000Y-99695000D02*
X133985000Y-85090000D01*
X135260000Y-83815000D02*
X133985000Y-85090000D01*
X90170000Y-74930000D02*
X88900000Y-76200000D01*
X90170000Y-100965000D02*
X90170000Y-103500000D01*
X88900000Y-99695000D02*
X90170000Y-100965000D01*
X135255000Y-102235000D02*
X135255000Y-100965000D01*
X135260000Y-80640000D02*
X135260000Y-83815000D01*
X135255000Y-100965000D02*
X133985000Y-99695000D01*
X135260000Y-74925000D02*
X135260000Y-80640000D01*
X88900000Y-76200000D02*
X88900000Y-99695000D01*
X135260000Y-103500000D02*
X135260000Y-102240000D01*
X135260000Y-102240000D02*
X135255000Y-102235000D01*
D23*
X185195000Y-131220000D02*
X192985000Y-131220000D01*
X77470000Y-74930000D02*
X77470000Y-72390000D01*
D25*
X71755000Y-131445000D02*
X71755000Y-128270000D01*
D23*
X71760000Y-103500000D02*
X71755000Y-103505000D01*
X120015000Y-90170000D02*
X120015000Y-74930000D01*
D22*
X161865000Y-102930000D02*
X157480000Y-107315000D01*
D23*
X120650000Y-119141549D02*
X120650000Y-118110000D01*
D25*
X81915000Y-141605000D02*
X71755000Y-131445000D01*
D23*
X122560000Y-135250000D02*
X118745000Y-139065000D01*
X172205000Y-122555000D02*
X172205000Y-114060000D01*
X122560000Y-74925000D02*
X120020000Y-74925000D01*
D25*
X185195000Y-140560000D02*
X184150000Y-141605000D01*
D23*
X122560000Y-103500000D02*
X122560000Y-101605000D01*
X124239511Y-122731060D02*
X120650000Y-119141549D01*
D25*
X154305000Y-86360000D02*
X161925000Y-86360000D01*
D23*
X120015000Y-74930000D02*
X120015000Y-72390000D01*
D25*
X119380000Y-71755000D02*
X154305000Y-71755000D01*
X71755000Y-128270000D02*
X71755000Y-123825000D01*
D23*
X122560000Y-131455000D02*
X122560000Y-135250000D01*
D25*
X76835000Y-71755000D02*
X119380000Y-71755000D01*
D23*
X75565000Y-124460000D02*
X72390000Y-124460000D01*
X116840000Y-90170000D02*
X120015000Y-90170000D01*
D25*
X111125000Y-141605000D02*
X81915000Y-141605000D01*
D23*
X120015000Y-90170000D02*
X120015000Y-99060000D01*
D25*
X184150000Y-141605000D02*
X177165000Y-141605000D01*
D23*
X176530000Y-127635000D02*
X176530000Y-134620000D01*
X172085000Y-139065000D02*
X172085000Y-140970000D01*
X143510000Y-139065000D02*
X143510000Y-140970000D01*
D25*
X154305000Y-71755000D02*
X154305000Y-86360000D01*
D23*
X170755000Y-139065000D02*
X172085000Y-139065000D01*
D25*
X177165000Y-141605000D02*
X172720000Y-141605000D01*
X161865000Y-90170000D02*
X161865000Y-102930000D01*
D23*
X116205000Y-139065000D02*
X113665000Y-139065000D01*
D25*
X185195000Y-131220000D02*
X185195000Y-140560000D01*
D23*
X172085000Y-139065000D02*
X173395000Y-139065000D01*
X77470000Y-72390000D02*
X76835000Y-71755000D01*
D25*
X71755000Y-103505000D02*
X71755000Y-74295000D01*
D23*
X122560000Y-101605000D02*
X120015000Y-99060000D01*
X172085000Y-140970000D02*
X172720000Y-141605000D01*
X77470000Y-103500000D02*
X71760000Y-103500000D01*
D25*
X74295000Y-71755000D02*
X76835000Y-71755000D01*
D23*
X176530000Y-140970000D02*
X177165000Y-141605000D01*
X172205000Y-114060000D02*
X177680000Y-108585000D01*
X72390000Y-124460000D02*
X71755000Y-123825000D01*
D25*
X71755000Y-74295000D02*
X74295000Y-71755000D01*
D23*
X143510000Y-140970000D02*
X142875000Y-141605000D01*
X124239511Y-125950489D02*
X124239511Y-122731060D01*
X122560000Y-127630000D02*
X124239511Y-125950489D01*
X113665000Y-139065000D02*
X111125000Y-141605000D01*
D25*
X172720000Y-141605000D02*
X142875000Y-141605000D01*
X161865000Y-86420000D02*
X161865000Y-90170000D01*
X142875000Y-141605000D02*
X111125000Y-141605000D01*
X71755000Y-123825000D02*
X71755000Y-103505000D01*
D22*
X157480000Y-107315000D02*
X157480000Y-119380000D01*
D25*
X161925000Y-86360000D02*
X161865000Y-86420000D01*
D23*
X176530000Y-134620000D02*
X170815000Y-134620000D01*
X120650000Y-118110000D02*
X120650000Y-105410000D01*
X120650000Y-105410000D02*
X122560000Y-103500000D01*
X75565000Y-128270000D02*
X71755000Y-128270000D01*
X120020000Y-74925000D02*
X120015000Y-74930000D01*
X120015000Y-72390000D02*
X119380000Y-71755000D01*
X118745000Y-139065000D02*
X116205000Y-139065000D01*
X122560000Y-131455000D02*
X122560000Y-127630000D01*
X176530000Y-134620000D02*
X176530000Y-140970000D01*
X185010000Y-131035000D02*
X185195000Y-131220000D01*
D24*
X140340000Y-99700000D02*
X140340000Y-90165000D01*
X141605000Y-100965000D02*
X140340000Y-99700000D01*
X141605000Y-107315000D02*
X141605000Y-100965000D01*
X161290000Y-121285000D02*
X161290000Y-109855000D01*
X161290000Y-109855000D02*
X161290000Y-107950000D01*
X158750000Y-111125000D02*
X158750000Y-109220000D01*
X158750000Y-121285000D02*
X158750000Y-111125000D01*
X137800000Y-99700000D02*
X137800000Y-90165000D01*
X139065000Y-108585000D02*
X139065000Y-100965000D01*
X139065000Y-100965000D02*
X137800000Y-99700000D01*
X136525000Y-109855000D02*
X136525000Y-100965000D01*
X156210000Y-113665000D02*
X156210000Y-112395000D01*
X136525000Y-100965000D02*
X135260000Y-99700000D01*
X156210000Y-112395000D02*
X154305000Y-110490000D01*
X135260000Y-99700000D02*
X135260000Y-90165000D01*
X156210000Y-121285000D02*
X156210000Y-113665000D01*
D22*
X142875000Y-121285000D02*
X142875000Y-118745000D01*
X142875000Y-118745000D02*
X142880000Y-118740000D01*
X140335000Y-121285000D02*
X140335000Y-118745000D01*
X140335000Y-118745000D02*
X140340000Y-118740000D01*
X137795000Y-118745000D02*
X137800000Y-118740000D01*
X137795000Y-121285000D02*
X137795000Y-118745000D01*
X135255000Y-118745000D02*
X135260000Y-118740000D01*
X135255000Y-121285000D02*
X135255000Y-118745000D01*
D24*
X96520000Y-109220000D02*
X96520000Y-100965000D01*
X114935000Y-121285000D02*
X114935000Y-113665000D01*
X95250000Y-99695000D02*
X95250000Y-90170000D01*
X96520000Y-100965000D02*
X95250000Y-99695000D01*
X92710000Y-107315000D02*
X93980000Y-106045000D01*
X93980000Y-100965000D02*
X92710000Y-99695000D01*
X112395000Y-121285000D02*
X112395000Y-113665000D01*
X92710000Y-99695000D02*
X92710000Y-90170000D01*
X93980000Y-106045000D02*
X93980000Y-100965000D01*
X92710000Y-111125000D02*
X92710000Y-107315000D01*
X90170000Y-99695000D02*
X91440000Y-100965000D01*
X90170000Y-90170000D02*
X90170000Y-99695000D01*
X109855000Y-121285000D02*
X109855000Y-114935000D01*
X91440000Y-112395000D02*
X91440000Y-100965000D01*
D22*
X97790000Y-121285000D02*
X97790000Y-118740000D01*
X95250000Y-121285000D02*
X95250000Y-118740000D01*
X92710000Y-121285000D02*
X92710000Y-118740000D01*
X90170000Y-121285000D02*
X90170000Y-118740000D01*
D24*
X99060000Y-100965000D02*
X97790000Y-99695000D01*
X117475000Y-121285000D02*
X116205000Y-120015000D01*
X99060000Y-100965000D02*
X99060000Y-107315000D01*
X97790000Y-99695000D02*
X97790000Y-90170000D01*
X116205000Y-120015000D02*
X116205000Y-112395000D01*
X154940000Y-132715000D02*
X151765000Y-132715000D01*
X156845000Y-132080000D02*
X155575000Y-132080000D01*
X149549520Y-130499520D02*
X149549520Y-122230480D01*
X126365000Y-137810000D02*
X125100000Y-139075000D01*
X155575000Y-132080000D02*
X154940000Y-132715000D01*
X151765000Y-132715000D02*
X149549520Y-130499520D01*
X152400000Y-119380000D02*
X152400000Y-117475000D01*
X126365000Y-117475000D02*
X126365000Y-137810000D01*
X149549520Y-122230480D02*
X152400000Y-119380000D01*
X127640000Y-139075000D02*
X128905000Y-137810000D01*
X128905000Y-137810000D02*
X128905000Y-115570000D01*
X146050000Y-130175000D02*
X146589511Y-129635489D01*
X146589511Y-129635489D02*
X146589511Y-115665489D01*
X93980000Y-133350000D02*
X103505000Y-133350000D01*
X103505000Y-133350000D02*
X105410000Y-131445000D01*
X132715000Y-124460000D02*
X135255000Y-124460000D01*
X135255000Y-124460000D02*
X135255000Y-131450000D01*
X135255000Y-131450000D02*
X135260000Y-131455000D01*
X135260000Y-139075000D02*
X135260000Y-135885000D01*
M02*
