G04 #@! TF.GenerationSoftware,KiCad,Pcbnew,(6.0.0)*
G04 #@! TF.CreationDate,2022-11-09T00:48:37-05:00*
G04 #@! TF.ProjectId,Sorcerer Rom Pack,536f7263-6572-4657-9220-526f6d205061,rev?*
G04 #@! TF.SameCoordinates,Original*
G04 #@! TF.FileFunction,Legend,Top*
G04 #@! TF.FilePolarity,Positive*
%FSLAX46Y46*%
G04 Gerber Fmt 4.6, Leading zero omitted, Abs format (unit mm)*
G04 Created by KiCad (PCBNEW (6.0.0)) date 2022-11-09 00:48:37*
%MOMM*%
%LPD*%
G01*
G04 APERTURE LIST*
G04 Aperture macros list*
%AMFreePoly0*
4,1,22,0.500000,-0.750000,0.000000,-0.750000,0.000000,-0.745033,-0.079941,-0.743568,-0.215256,-0.701293,-0.333266,-0.622738,-0.424486,-0.514219,-0.481581,-0.384460,-0.499164,-0.250000,-0.500000,-0.250000,-0.500000,0.250000,-0.499164,0.250000,-0.499963,0.256109,-0.478152,0.396186,-0.417904,0.524511,-0.324060,0.630769,-0.204165,0.706417,-0.067858,0.745374,0.000000,0.744959,0.000000,0.750000,
0.500000,0.750000,0.500000,-0.750000,0.500000,-0.750000,$1*%
%AMFreePoly1*
4,1,20,0.000000,0.744959,0.073905,0.744508,0.209726,0.703889,0.328688,0.626782,0.421226,0.519385,0.479903,0.390333,0.500000,0.250000,0.500000,-0.250000,0.499851,-0.262216,0.476331,-0.402017,0.414519,-0.529596,0.319384,-0.634700,0.198574,-0.708877,0.061801,-0.746166,0.000000,-0.745033,0.000000,-0.750000,-0.500000,-0.750000,-0.500000,0.750000,0.000000,0.750000,0.000000,0.744959,
0.000000,0.744959,$1*%
G04 Aperture macros list end*
%ADD10C,0.150000*%
%ADD11C,0.100000*%
%ADD12C,0.350000*%
%ADD13C,0.120000*%
%ADD14R,1.700000X1.700000*%
%ADD15R,1.600000X1.600000*%
%ADD16O,1.600000X1.600000*%
%ADD17R,7.600000X1.270000*%
%ADD18C,1.600000*%
%ADD19FreePoly0,90.000000*%
%ADD20FreePoly1,90.000000*%
G04 APERTURE END LIST*
D10*
X113665000Y-132080000D02*
X113982500Y-132715000D01*
X112395000Y-121920000D02*
X112395000Y-123825000D01*
X97155000Y-121285000D02*
X95885000Y-121285000D01*
X141605000Y-133985000D02*
X145415000Y-133985000D01*
X93345000Y-121920000D02*
X94615000Y-123825000D01*
X184150000Y-131445000D02*
X185420000Y-131445000D01*
X185420000Y-131445000D02*
X184785000Y-130810000D01*
X169545000Y-73025000D02*
X169545000Y-74295000D01*
X112395000Y-133350000D02*
X114300000Y-132080000D01*
X114300000Y-132080000D02*
X113665000Y-132080000D01*
X113982500Y-132715000D02*
X114300000Y-132080000D01*
X164465000Y-73025000D02*
X164465000Y-74295000D01*
X141605000Y-136525000D02*
X145415000Y-136525000D01*
X158750000Y-121920000D02*
X160655000Y-123825000D01*
X161925000Y-121285000D02*
X163195000Y-121285000D01*
X156845000Y-132715000D02*
X156845000Y-134620000D01*
X184785000Y-132715000D02*
X184785000Y-130810000D01*
X156210000Y-121920000D02*
X156210000Y-123825000D01*
X134620000Y-121920000D02*
X133350000Y-123825000D01*
X138430000Y-121920000D02*
X139700000Y-123825000D01*
X99695000Y-121285000D02*
X98425000Y-121285000D01*
X159385000Y-132715000D02*
X159385000Y-134620000D01*
X164465000Y-121285000D02*
X165735000Y-121285000D01*
X89535000Y-121920000D02*
X88265000Y-123825000D01*
X167005000Y-73025000D02*
X167005000Y-74295000D01*
X117475000Y-120650000D02*
X117475000Y-119380000D01*
X142240000Y-121285000D02*
X140970000Y-121285000D01*
X144780000Y-121285000D02*
X143510000Y-121285000D01*
X116840000Y-121285000D02*
X115570000Y-121285000D01*
X109855000Y-121920000D02*
X109855000Y-123825000D01*
X184785000Y-130810000D02*
X184150000Y-131445000D01*
D11*
X135121666Y-122871666D02*
X134721666Y-122871666D01*
X134921666Y-122871666D02*
X134921666Y-122171666D01*
X134855000Y-122271666D01*
X134788333Y-122338333D01*
X134721666Y-122371666D01*
X135521666Y-122471666D02*
X135455000Y-122438333D01*
X135421666Y-122405000D01*
X135388333Y-122338333D01*
X135388333Y-122305000D01*
X135421666Y-122238333D01*
X135455000Y-122205000D01*
X135521666Y-122171666D01*
X135655000Y-122171666D01*
X135721666Y-122205000D01*
X135755000Y-122238333D01*
X135788333Y-122305000D01*
X135788333Y-122338333D01*
X135755000Y-122405000D01*
X135721666Y-122438333D01*
X135655000Y-122471666D01*
X135521666Y-122471666D01*
X135455000Y-122505000D01*
X135421666Y-122538333D01*
X135388333Y-122605000D01*
X135388333Y-122738333D01*
X135421666Y-122805000D01*
X135455000Y-122838333D01*
X135521666Y-122871666D01*
X135655000Y-122871666D01*
X135721666Y-122838333D01*
X135755000Y-122805000D01*
X135788333Y-122738333D01*
X135788333Y-122605000D01*
X135755000Y-122538333D01*
X135721666Y-122505000D01*
X135655000Y-122471666D01*
X154981666Y-131126666D02*
X154648333Y-131126666D01*
X154648333Y-130426666D01*
X155181666Y-131093333D02*
X155281666Y-131126666D01*
X155448333Y-131126666D01*
X155515000Y-131093333D01*
X155548333Y-131060000D01*
X155581666Y-130993333D01*
X155581666Y-130926666D01*
X155548333Y-130860000D01*
X155515000Y-130826666D01*
X155448333Y-130793333D01*
X155315000Y-130760000D01*
X155248333Y-130726666D01*
X155215000Y-130693333D01*
X155181666Y-130626666D01*
X155181666Y-130560000D01*
X155215000Y-130493333D01*
X155248333Y-130460000D01*
X155315000Y-130426666D01*
X155481666Y-130426666D01*
X155581666Y-130460000D01*
X156248333Y-131126666D02*
X155848333Y-131126666D01*
X156048333Y-131126666D02*
X156048333Y-130426666D01*
X155981666Y-130526666D01*
X155915000Y-130593333D01*
X155848333Y-130626666D01*
X156481666Y-130426666D02*
X156915000Y-130426666D01*
X156681666Y-130693333D01*
X156781666Y-130693333D01*
X156848333Y-130726666D01*
X156881666Y-130760000D01*
X156915000Y-130826666D01*
X156915000Y-130993333D01*
X156881666Y-131060000D01*
X156848333Y-131093333D01*
X156781666Y-131126666D01*
X156581666Y-131126666D01*
X156515000Y-131093333D01*
X156481666Y-131060000D01*
X157315000Y-130726666D02*
X157248333Y-130693333D01*
X157215000Y-130660000D01*
X157181666Y-130593333D01*
X157181666Y-130560000D01*
X157215000Y-130493333D01*
X157248333Y-130460000D01*
X157315000Y-130426666D01*
X157448333Y-130426666D01*
X157515000Y-130460000D01*
X157548333Y-130493333D01*
X157581666Y-130560000D01*
X157581666Y-130593333D01*
X157548333Y-130660000D01*
X157515000Y-130693333D01*
X157448333Y-130726666D01*
X157315000Y-130726666D01*
X157248333Y-130760000D01*
X157215000Y-130793333D01*
X157181666Y-130860000D01*
X157181666Y-130993333D01*
X157215000Y-131060000D01*
X157248333Y-131093333D01*
X157315000Y-131126666D01*
X157448333Y-131126666D01*
X157515000Y-131093333D01*
X157548333Y-131060000D01*
X157581666Y-130993333D01*
X157581666Y-130860000D01*
X157548333Y-130793333D01*
X157515000Y-130760000D01*
X157448333Y-130726666D01*
X158415000Y-130760000D02*
X158648333Y-130760000D01*
X158748333Y-131126666D02*
X158415000Y-131126666D01*
X158415000Y-130426666D01*
X158748333Y-130426666D01*
X159048333Y-130660000D02*
X159048333Y-131126666D01*
X159048333Y-130726666D02*
X159081666Y-130693333D01*
X159148333Y-130660000D01*
X159248333Y-130660000D01*
X159315000Y-130693333D01*
X159348333Y-130760000D01*
X159348333Y-131126666D01*
X159981666Y-131126666D02*
X159981666Y-130760000D01*
X159948333Y-130693333D01*
X159881666Y-130660000D01*
X159748333Y-130660000D01*
X159681666Y-130693333D01*
X159981666Y-131093333D02*
X159915000Y-131126666D01*
X159748333Y-131126666D01*
X159681666Y-131093333D01*
X159648333Y-131026666D01*
X159648333Y-130960000D01*
X159681666Y-130893333D01*
X159748333Y-130860000D01*
X159915000Y-130860000D01*
X159981666Y-130826666D01*
X160315000Y-131126666D02*
X160315000Y-130426666D01*
X160315000Y-130693333D02*
X160381666Y-130660000D01*
X160515000Y-130660000D01*
X160581666Y-130693333D01*
X160615000Y-130726666D01*
X160648333Y-130793333D01*
X160648333Y-130993333D01*
X160615000Y-131060000D01*
X160581666Y-131093333D01*
X160515000Y-131126666D01*
X160381666Y-131126666D01*
X160315000Y-131093333D01*
X161048333Y-131126666D02*
X160981666Y-131093333D01*
X160948333Y-131026666D01*
X160948333Y-130426666D01*
X161581666Y-131093333D02*
X161515000Y-131126666D01*
X161381666Y-131126666D01*
X161315000Y-131093333D01*
X161281666Y-131026666D01*
X161281666Y-130760000D01*
X161315000Y-130693333D01*
X161381666Y-130660000D01*
X161515000Y-130660000D01*
X161581666Y-130693333D01*
X161615000Y-130760000D01*
X161615000Y-130826666D01*
X161281666Y-130893333D01*
X156961666Y-138628333D02*
X156961666Y-138295000D01*
X157161666Y-138695000D02*
X156461666Y-138461666D01*
X157161666Y-138228333D01*
X157161666Y-137628333D02*
X157161666Y-138028333D01*
X157161666Y-137828333D02*
X156461666Y-137828333D01*
X156561666Y-137895000D01*
X156628333Y-137961666D01*
X156661666Y-138028333D01*
X156695000Y-137028333D02*
X157161666Y-137028333D01*
X156428333Y-137195000D02*
X156928333Y-137361666D01*
X156928333Y-136928333D01*
X165920000Y-119030000D02*
X165853333Y-118996666D01*
X165753333Y-118996666D01*
X165653333Y-119030000D01*
X165586666Y-119096666D01*
X165553333Y-119163333D01*
X165520000Y-119296666D01*
X165520000Y-119396666D01*
X165553333Y-119530000D01*
X165586666Y-119596666D01*
X165653333Y-119663333D01*
X165753333Y-119696666D01*
X165820000Y-119696666D01*
X165920000Y-119663333D01*
X165953333Y-119630000D01*
X165953333Y-119396666D01*
X165820000Y-119396666D01*
X166253333Y-119230000D02*
X166253333Y-119696666D01*
X166253333Y-119296666D02*
X166286666Y-119263333D01*
X166353333Y-119230000D01*
X166453333Y-119230000D01*
X166520000Y-119263333D01*
X166553333Y-119330000D01*
X166553333Y-119696666D01*
X167186666Y-119696666D02*
X167186666Y-118996666D01*
X167186666Y-119663333D02*
X167120000Y-119696666D01*
X166986666Y-119696666D01*
X166920000Y-119663333D01*
X166886666Y-119630000D01*
X166853333Y-119563333D01*
X166853333Y-119363333D01*
X166886666Y-119296666D01*
X166920000Y-119263333D01*
X166986666Y-119230000D01*
X167120000Y-119230000D01*
X167186666Y-119263333D01*
X168711666Y-76951666D02*
X169045000Y-76951666D01*
X168645000Y-77151666D02*
X168878333Y-76451666D01*
X169111666Y-77151666D01*
X169711666Y-77151666D02*
X169311666Y-77151666D01*
X169511666Y-77151666D02*
X169511666Y-76451666D01*
X169445000Y-76551666D01*
X169378333Y-76618333D01*
X169311666Y-76651666D01*
X169978333Y-76518333D02*
X170011666Y-76485000D01*
X170078333Y-76451666D01*
X170245000Y-76451666D01*
X170311666Y-76485000D01*
X170345000Y-76518333D01*
X170378333Y-76585000D01*
X170378333Y-76651666D01*
X170345000Y-76751666D01*
X169945000Y-77151666D01*
X170378333Y-77151666D01*
X94716666Y-122238333D02*
X94750000Y-122205000D01*
X94816666Y-122171666D01*
X94983333Y-122171666D01*
X95050000Y-122205000D01*
X95083333Y-122238333D01*
X95116666Y-122305000D01*
X95116666Y-122371666D01*
X95083333Y-122471666D01*
X94683333Y-122871666D01*
X95116666Y-122871666D01*
X95550000Y-122171666D02*
X95616666Y-122171666D01*
X95683333Y-122205000D01*
X95716666Y-122238333D01*
X95750000Y-122305000D01*
X95783333Y-122438333D01*
X95783333Y-122605000D01*
X95750000Y-122738333D01*
X95716666Y-122805000D01*
X95683333Y-122838333D01*
X95616666Y-122871666D01*
X95550000Y-122871666D01*
X95483333Y-122838333D01*
X95450000Y-122805000D01*
X95416666Y-122738333D01*
X95383333Y-122605000D01*
X95383333Y-122438333D01*
X95416666Y-122305000D01*
X95450000Y-122238333D01*
X95483333Y-122205000D01*
X95550000Y-122171666D01*
X79626666Y-138193333D02*
X79626666Y-138526666D01*
X79960000Y-138560000D01*
X79926666Y-138526666D01*
X79893333Y-138460000D01*
X79893333Y-138293333D01*
X79926666Y-138226666D01*
X79960000Y-138193333D01*
X80026666Y-138160000D01*
X80193333Y-138160000D01*
X80260000Y-138193333D01*
X80293333Y-138226666D01*
X80326666Y-138293333D01*
X80326666Y-138460000D01*
X80293333Y-138526666D01*
X80260000Y-138560000D01*
X80393333Y-138026666D02*
X80393333Y-137493333D01*
X80293333Y-137060000D02*
X80326666Y-137126666D01*
X80326666Y-137260000D01*
X80293333Y-137326666D01*
X80226666Y-137360000D01*
X79960000Y-137360000D01*
X79893333Y-137326666D01*
X79860000Y-137260000D01*
X79860000Y-137126666D01*
X79893333Y-137060000D01*
X79960000Y-137026666D01*
X80026666Y-137026666D01*
X80093333Y-137360000D01*
X79860000Y-136726666D02*
X80326666Y-136726666D01*
X79926666Y-136726666D02*
X79893333Y-136693333D01*
X79860000Y-136626666D01*
X79860000Y-136526666D01*
X79893333Y-136460000D01*
X79960000Y-136426666D01*
X80326666Y-136426666D01*
X80326666Y-135793333D02*
X79960000Y-135793333D01*
X79893333Y-135826666D01*
X79860000Y-135893333D01*
X79860000Y-136026666D01*
X79893333Y-136093333D01*
X80293333Y-135793333D02*
X80326666Y-135860000D01*
X80326666Y-136026666D01*
X80293333Y-136093333D01*
X80226666Y-136126666D01*
X80160000Y-136126666D01*
X80093333Y-136093333D01*
X80060000Y-136026666D01*
X80060000Y-135860000D01*
X80026666Y-135793333D01*
D10*
X90606666Y-127992142D02*
X90559047Y-128039761D01*
X90416190Y-128087380D01*
X90320952Y-128087380D01*
X90178095Y-128039761D01*
X90082857Y-127944523D01*
X90035238Y-127849285D01*
X89987619Y-127658809D01*
X89987619Y-127515952D01*
X90035238Y-127325476D01*
X90082857Y-127230238D01*
X90178095Y-127135000D01*
X90320952Y-127087380D01*
X90416190Y-127087380D01*
X90559047Y-127135000D01*
X90606666Y-127182619D01*
X91035238Y-128087380D02*
X91035238Y-127087380D01*
X91463809Y-128087380D02*
X91463809Y-127563571D01*
X91416190Y-127468333D01*
X91320952Y-127420714D01*
X91178095Y-127420714D01*
X91082857Y-127468333D01*
X91035238Y-127515952D01*
X91940000Y-128087380D02*
X91940000Y-127420714D01*
X91940000Y-127087380D02*
X91892380Y-127135000D01*
X91940000Y-127182619D01*
X91987619Y-127135000D01*
X91940000Y-127087380D01*
X91940000Y-127182619D01*
X92416190Y-127420714D02*
X92416190Y-128420714D01*
X92416190Y-127468333D02*
X92511428Y-127420714D01*
X92701904Y-127420714D01*
X92797142Y-127468333D01*
X92844761Y-127515952D01*
X92892380Y-127611190D01*
X92892380Y-127896904D01*
X92844761Y-127992142D01*
X92797142Y-128039761D01*
X92701904Y-128087380D01*
X92511428Y-128087380D01*
X92416190Y-128039761D01*
D11*
X163646666Y-126681666D02*
X164013333Y-126215000D01*
X163646666Y-126215000D02*
X164013333Y-126681666D01*
D10*
X110291666Y-128627142D02*
X110244047Y-128674761D01*
X110101190Y-128722380D01*
X110005952Y-128722380D01*
X109863095Y-128674761D01*
X109767857Y-128579523D01*
X109720238Y-128484285D01*
X109672619Y-128293809D01*
X109672619Y-128150952D01*
X109720238Y-127960476D01*
X109767857Y-127865238D01*
X109863095Y-127770000D01*
X110005952Y-127722380D01*
X110101190Y-127722380D01*
X110244047Y-127770000D01*
X110291666Y-127817619D01*
X110720238Y-128722380D02*
X110720238Y-127722380D01*
X111148809Y-128722380D02*
X111148809Y-128198571D01*
X111101190Y-128103333D01*
X111005952Y-128055714D01*
X110863095Y-128055714D01*
X110767857Y-128103333D01*
X110720238Y-128150952D01*
X111625000Y-128722380D02*
X111625000Y-128055714D01*
X111625000Y-127722380D02*
X111577380Y-127770000D01*
X111625000Y-127817619D01*
X111672619Y-127770000D01*
X111625000Y-127722380D01*
X111625000Y-127817619D01*
X112101190Y-128055714D02*
X112101190Y-129055714D01*
X112101190Y-128103333D02*
X112196428Y-128055714D01*
X112386904Y-128055714D01*
X112482142Y-128103333D01*
X112529761Y-128150952D01*
X112577380Y-128246190D01*
X112577380Y-128531904D01*
X112529761Y-128627142D01*
X112482142Y-128674761D01*
X112386904Y-128722380D01*
X112196428Y-128722380D01*
X112101190Y-128674761D01*
D11*
X114401666Y-119063333D02*
X114435000Y-119030000D01*
X114501666Y-118996666D01*
X114668333Y-118996666D01*
X114735000Y-119030000D01*
X114768333Y-119063333D01*
X114801666Y-119130000D01*
X114801666Y-119196666D01*
X114768333Y-119296666D01*
X114368333Y-119696666D01*
X114801666Y-119696666D01*
X115235000Y-118996666D02*
X115301666Y-118996666D01*
X115368333Y-119030000D01*
X115401666Y-119063333D01*
X115435000Y-119130000D01*
X115468333Y-119263333D01*
X115468333Y-119430000D01*
X115435000Y-119563333D01*
X115401666Y-119630000D01*
X115368333Y-119663333D01*
X115301666Y-119696666D01*
X115235000Y-119696666D01*
X115168333Y-119663333D01*
X115135000Y-119630000D01*
X115101666Y-119563333D01*
X115068333Y-119430000D01*
X115068333Y-119263333D01*
X115101666Y-119130000D01*
X115135000Y-119063333D01*
X115168333Y-119030000D01*
X115235000Y-118996666D01*
X142275000Y-126415000D02*
X142808333Y-126415000D01*
X143475000Y-125981666D02*
X143141666Y-125981666D01*
X143108333Y-126315000D01*
X143141666Y-126281666D01*
X143208333Y-126248333D01*
X143375000Y-126248333D01*
X143441666Y-126281666D01*
X143475000Y-126315000D01*
X143508333Y-126381666D01*
X143508333Y-126548333D01*
X143475000Y-126615000D01*
X143441666Y-126648333D01*
X143375000Y-126681666D01*
X143208333Y-126681666D01*
X143141666Y-126648333D01*
X143108333Y-126615000D01*
X97190000Y-126415000D02*
X97723333Y-126415000D01*
X98390000Y-125981666D02*
X98056666Y-125981666D01*
X98023333Y-126315000D01*
X98056666Y-126281666D01*
X98123333Y-126248333D01*
X98290000Y-126248333D01*
X98356666Y-126281666D01*
X98390000Y-126315000D01*
X98423333Y-126381666D01*
X98423333Y-126548333D01*
X98390000Y-126615000D01*
X98356666Y-126648333D01*
X98290000Y-126681666D01*
X98123333Y-126681666D01*
X98056666Y-126648333D01*
X98023333Y-126615000D01*
X132201666Y-126048333D02*
X132235000Y-126015000D01*
X132301666Y-125981666D01*
X132468333Y-125981666D01*
X132535000Y-126015000D01*
X132568333Y-126048333D01*
X132601666Y-126115000D01*
X132601666Y-126181666D01*
X132568333Y-126281666D01*
X132168333Y-126681666D01*
X132601666Y-126681666D01*
X132735000Y-126748333D02*
X133268333Y-126748333D01*
X133435000Y-126215000D02*
X133435000Y-126915000D01*
X133435000Y-126248333D02*
X133501666Y-126215000D01*
X133635000Y-126215000D01*
X133701666Y-126248333D01*
X133735000Y-126281666D01*
X133768333Y-126348333D01*
X133768333Y-126548333D01*
X133735000Y-126615000D01*
X133701666Y-126648333D01*
X133635000Y-126681666D01*
X133501666Y-126681666D01*
X133435000Y-126648333D01*
X134068333Y-126681666D02*
X134068333Y-126215000D01*
X134068333Y-126348333D02*
X134101666Y-126281666D01*
X134135000Y-126248333D01*
X134201666Y-126215000D01*
X134268333Y-126215000D01*
X134601666Y-126681666D02*
X134535000Y-126648333D01*
X134501666Y-126615000D01*
X134468333Y-126548333D01*
X134468333Y-126348333D01*
X134501666Y-126281666D01*
X134535000Y-126248333D01*
X134601666Y-126215000D01*
X134701666Y-126215000D01*
X134768333Y-126248333D01*
X134801666Y-126281666D01*
X134835000Y-126348333D01*
X134835000Y-126548333D01*
X134801666Y-126615000D01*
X134768333Y-126648333D01*
X134701666Y-126681666D01*
X134601666Y-126681666D01*
X135135000Y-126681666D02*
X135135000Y-126215000D01*
X135135000Y-126281666D02*
X135168333Y-126248333D01*
X135235000Y-126215000D01*
X135335000Y-126215000D01*
X135401666Y-126248333D01*
X135435000Y-126315000D01*
X135435000Y-126681666D01*
X135435000Y-126315000D02*
X135468333Y-126248333D01*
X135535000Y-126215000D01*
X135635000Y-126215000D01*
X135701666Y-126248333D01*
X135735000Y-126315000D01*
X135735000Y-126681666D01*
X109721666Y-119696666D02*
X109321666Y-119696666D01*
X109521666Y-119696666D02*
X109521666Y-118996666D01*
X109455000Y-119096666D01*
X109388333Y-119163333D01*
X109321666Y-119196666D01*
X110121666Y-119296666D02*
X110055000Y-119263333D01*
X110021666Y-119230000D01*
X109988333Y-119163333D01*
X109988333Y-119130000D01*
X110021666Y-119063333D01*
X110055000Y-119030000D01*
X110121666Y-118996666D01*
X110255000Y-118996666D01*
X110321666Y-119030000D01*
X110355000Y-119063333D01*
X110388333Y-119130000D01*
X110388333Y-119163333D01*
X110355000Y-119230000D01*
X110321666Y-119263333D01*
X110255000Y-119296666D01*
X110121666Y-119296666D01*
X110055000Y-119330000D01*
X110021666Y-119363333D01*
X109988333Y-119430000D01*
X109988333Y-119563333D01*
X110021666Y-119630000D01*
X110055000Y-119663333D01*
X110121666Y-119696666D01*
X110255000Y-119696666D01*
X110321666Y-119663333D01*
X110355000Y-119630000D01*
X110388333Y-119563333D01*
X110388333Y-119430000D01*
X110355000Y-119363333D01*
X110321666Y-119330000D01*
X110255000Y-119296666D01*
D10*
X93712619Y-71683571D02*
X94045952Y-71683571D01*
X94188809Y-72207380D02*
X93712619Y-72207380D01*
X93712619Y-71207380D01*
X94188809Y-71207380D01*
X94522142Y-72207380D02*
X95045952Y-71540714D01*
X94522142Y-71540714D02*
X95045952Y-72207380D01*
X95426904Y-72207380D02*
X95426904Y-71540714D01*
X95426904Y-71207380D02*
X95379285Y-71255000D01*
X95426904Y-71302619D01*
X95474523Y-71255000D01*
X95426904Y-71207380D01*
X95426904Y-71302619D01*
X96331666Y-72207380D02*
X96331666Y-71207380D01*
X96331666Y-72159761D02*
X96236428Y-72207380D01*
X96045952Y-72207380D01*
X95950714Y-72159761D01*
X95903095Y-72112142D01*
X95855476Y-72016904D01*
X95855476Y-71731190D01*
X95903095Y-71635952D01*
X95950714Y-71588333D01*
X96045952Y-71540714D01*
X96236428Y-71540714D01*
X96331666Y-71588333D01*
X96712619Y-71540714D02*
X96950714Y-72207380D01*
X97188809Y-71540714D02*
X96950714Y-72207380D01*
X96855476Y-72445476D01*
X96807857Y-72493095D01*
X96712619Y-72540714D01*
X98284047Y-72159761D02*
X98426904Y-72207380D01*
X98665000Y-72207380D01*
X98760238Y-72159761D01*
X98807857Y-72112142D01*
X98855476Y-72016904D01*
X98855476Y-71921666D01*
X98807857Y-71826428D01*
X98760238Y-71778809D01*
X98665000Y-71731190D01*
X98474523Y-71683571D01*
X98379285Y-71635952D01*
X98331666Y-71588333D01*
X98284047Y-71493095D01*
X98284047Y-71397857D01*
X98331666Y-71302619D01*
X98379285Y-71255000D01*
X98474523Y-71207380D01*
X98712619Y-71207380D01*
X98855476Y-71255000D01*
X99426904Y-72207380D02*
X99331666Y-72159761D01*
X99284047Y-72112142D01*
X99236428Y-72016904D01*
X99236428Y-71731190D01*
X99284047Y-71635952D01*
X99331666Y-71588333D01*
X99426904Y-71540714D01*
X99569761Y-71540714D01*
X99665000Y-71588333D01*
X99712619Y-71635952D01*
X99760238Y-71731190D01*
X99760238Y-72016904D01*
X99712619Y-72112142D01*
X99665000Y-72159761D01*
X99569761Y-72207380D01*
X99426904Y-72207380D01*
X100188809Y-72207380D02*
X100188809Y-71540714D01*
X100188809Y-71731190D02*
X100236428Y-71635952D01*
X100284047Y-71588333D01*
X100379285Y-71540714D01*
X100474523Y-71540714D01*
X101236428Y-72159761D02*
X101141190Y-72207380D01*
X100950714Y-72207380D01*
X100855476Y-72159761D01*
X100807857Y-72112142D01*
X100760238Y-72016904D01*
X100760238Y-71731190D01*
X100807857Y-71635952D01*
X100855476Y-71588333D01*
X100950714Y-71540714D01*
X101141190Y-71540714D01*
X101236428Y-71588333D01*
X102045952Y-72159761D02*
X101950714Y-72207380D01*
X101760238Y-72207380D01*
X101665000Y-72159761D01*
X101617380Y-72064523D01*
X101617380Y-71683571D01*
X101665000Y-71588333D01*
X101760238Y-71540714D01*
X101950714Y-71540714D01*
X102045952Y-71588333D01*
X102093571Y-71683571D01*
X102093571Y-71778809D01*
X101617380Y-71874047D01*
X102522142Y-72207380D02*
X102522142Y-71540714D01*
X102522142Y-71731190D02*
X102569761Y-71635952D01*
X102617380Y-71588333D01*
X102712619Y-71540714D01*
X102807857Y-71540714D01*
X103522142Y-72159761D02*
X103426904Y-72207380D01*
X103236428Y-72207380D01*
X103141190Y-72159761D01*
X103093571Y-72064523D01*
X103093571Y-71683571D01*
X103141190Y-71588333D01*
X103236428Y-71540714D01*
X103426904Y-71540714D01*
X103522142Y-71588333D01*
X103569761Y-71683571D01*
X103569761Y-71778809D01*
X103093571Y-71874047D01*
X103998333Y-72207380D02*
X103998333Y-71540714D01*
X103998333Y-71731190D02*
X104045952Y-71635952D01*
X104093571Y-71588333D01*
X104188809Y-71540714D01*
X104284047Y-71540714D01*
X105807857Y-72159761D02*
X105712619Y-72207380D01*
X105522142Y-72207380D01*
X105426904Y-72159761D01*
X105379285Y-72112142D01*
X105331666Y-72016904D01*
X105331666Y-71731190D01*
X105379285Y-71635952D01*
X105426904Y-71588333D01*
X105522142Y-71540714D01*
X105712619Y-71540714D01*
X105807857Y-71588333D01*
X106665000Y-72207380D02*
X106665000Y-71683571D01*
X106617380Y-71588333D01*
X106522142Y-71540714D01*
X106331666Y-71540714D01*
X106236428Y-71588333D01*
X106665000Y-72159761D02*
X106569761Y-72207380D01*
X106331666Y-72207380D01*
X106236428Y-72159761D01*
X106188809Y-72064523D01*
X106188809Y-71969285D01*
X106236428Y-71874047D01*
X106331666Y-71826428D01*
X106569761Y-71826428D01*
X106665000Y-71778809D01*
X107141190Y-72207380D02*
X107141190Y-71540714D01*
X107141190Y-71731190D02*
X107188809Y-71635952D01*
X107236428Y-71588333D01*
X107331666Y-71540714D01*
X107426904Y-71540714D01*
X107617380Y-71540714D02*
X107998333Y-71540714D01*
X107760238Y-71207380D02*
X107760238Y-72064523D01*
X107807857Y-72159761D01*
X107903095Y-72207380D01*
X107998333Y-72207380D01*
X109093571Y-72207380D02*
X109093571Y-71540714D01*
X109093571Y-71731190D02*
X109141190Y-71635952D01*
X109188809Y-71588333D01*
X109284047Y-71540714D01*
X109379285Y-71540714D01*
X110093571Y-72159761D02*
X109998333Y-72207380D01*
X109807857Y-72207380D01*
X109712619Y-72159761D01*
X109665000Y-72064523D01*
X109665000Y-71683571D01*
X109712619Y-71588333D01*
X109807857Y-71540714D01*
X109998333Y-71540714D01*
X110093571Y-71588333D01*
X110141190Y-71683571D01*
X110141190Y-71778809D01*
X109665000Y-71874047D01*
X110569761Y-71540714D02*
X110569761Y-72540714D01*
X110569761Y-71588333D02*
X110665000Y-71540714D01*
X110855476Y-71540714D01*
X110950714Y-71588333D01*
X110998333Y-71635952D01*
X111045952Y-71731190D01*
X111045952Y-72016904D01*
X110998333Y-72112142D01*
X110950714Y-72159761D01*
X110855476Y-72207380D01*
X110665000Y-72207380D01*
X110569761Y-72159761D01*
X111474523Y-72207380D02*
X111474523Y-71540714D01*
X111474523Y-71731190D02*
X111522142Y-71635952D01*
X111569761Y-71588333D01*
X111665000Y-71540714D01*
X111760238Y-71540714D01*
X112236428Y-72207380D02*
X112141190Y-72159761D01*
X112093571Y-72112142D01*
X112045952Y-72016904D01*
X112045952Y-71731190D01*
X112093571Y-71635952D01*
X112141190Y-71588333D01*
X112236428Y-71540714D01*
X112379285Y-71540714D01*
X112474523Y-71588333D01*
X112522142Y-71635952D01*
X112569761Y-71731190D01*
X112569761Y-72016904D01*
X112522142Y-72112142D01*
X112474523Y-72159761D01*
X112379285Y-72207380D01*
X112236428Y-72207380D01*
X113665000Y-71540714D02*
X113855476Y-72207380D01*
X114045952Y-71731190D01*
X114236428Y-72207380D01*
X114426904Y-71540714D01*
X114807857Y-72207380D02*
X114807857Y-71540714D01*
X114807857Y-71207380D02*
X114760238Y-71255000D01*
X114807857Y-71302619D01*
X114855476Y-71255000D01*
X114807857Y-71207380D01*
X114807857Y-71302619D01*
X115141190Y-71540714D02*
X115522142Y-71540714D01*
X115284047Y-71207380D02*
X115284047Y-72064523D01*
X115331666Y-72159761D01*
X115426904Y-72207380D01*
X115522142Y-72207380D01*
X115855476Y-72207380D02*
X115855476Y-71207380D01*
X116284047Y-72207380D02*
X116284047Y-71683571D01*
X116236428Y-71588333D01*
X116141190Y-71540714D01*
X115998333Y-71540714D01*
X115903095Y-71588333D01*
X115855476Y-71635952D01*
X117522142Y-72207380D02*
X117522142Y-71540714D01*
X117522142Y-71635952D02*
X117569761Y-71588333D01*
X117665000Y-71540714D01*
X117807857Y-71540714D01*
X117903095Y-71588333D01*
X117950714Y-71683571D01*
X117950714Y-72207380D01*
X117950714Y-71683571D02*
X117998333Y-71588333D01*
X118093571Y-71540714D01*
X118236428Y-71540714D01*
X118331666Y-71588333D01*
X118379285Y-71683571D01*
X118379285Y-72207380D01*
X118998333Y-72207380D02*
X118903095Y-72159761D01*
X118855476Y-72112142D01*
X118807857Y-72016904D01*
X118807857Y-71731190D01*
X118855476Y-71635952D01*
X118903095Y-71588333D01*
X118998333Y-71540714D01*
X119141190Y-71540714D01*
X119236428Y-71588333D01*
X119284047Y-71635952D01*
X119331666Y-71731190D01*
X119331666Y-72016904D01*
X119284047Y-72112142D01*
X119236428Y-72159761D01*
X119141190Y-72207380D01*
X118998333Y-72207380D01*
X120188809Y-72207380D02*
X120188809Y-71207380D01*
X120188809Y-72159761D02*
X120093571Y-72207380D01*
X119903095Y-72207380D01*
X119807857Y-72159761D01*
X119760238Y-72112142D01*
X119712619Y-72016904D01*
X119712619Y-71731190D01*
X119760238Y-71635952D01*
X119807857Y-71588333D01*
X119903095Y-71540714D01*
X120093571Y-71540714D01*
X120188809Y-71588333D01*
X120617380Y-72159761D02*
X120712619Y-72207380D01*
X120903095Y-72207380D01*
X120998333Y-72159761D01*
X121045952Y-72064523D01*
X121045952Y-72016904D01*
X120998333Y-71921666D01*
X120903095Y-71874047D01*
X120760238Y-71874047D01*
X120665000Y-71826428D01*
X120617380Y-71731190D01*
X120617380Y-71683571D01*
X120665000Y-71588333D01*
X120760238Y-71540714D01*
X120903095Y-71540714D01*
X120998333Y-71588333D01*
X122093571Y-71540714D02*
X122474523Y-71540714D01*
X122236428Y-72207380D02*
X122236428Y-71350238D01*
X122284047Y-71255000D01*
X122379285Y-71207380D01*
X122474523Y-71207380D01*
X122950714Y-72207380D02*
X122855476Y-72159761D01*
X122807857Y-72112142D01*
X122760238Y-72016904D01*
X122760238Y-71731190D01*
X122807857Y-71635952D01*
X122855476Y-71588333D01*
X122950714Y-71540714D01*
X123093571Y-71540714D01*
X123188809Y-71588333D01*
X123236428Y-71635952D01*
X123284047Y-71731190D01*
X123284047Y-72016904D01*
X123236428Y-72112142D01*
X123188809Y-72159761D01*
X123093571Y-72207380D01*
X122950714Y-72207380D01*
X123712619Y-72207380D02*
X123712619Y-71540714D01*
X123712619Y-71731190D02*
X123760238Y-71635952D01*
X123807857Y-71588333D01*
X123903095Y-71540714D01*
X123998333Y-71540714D01*
X125474523Y-72159761D02*
X125379285Y-72207380D01*
X125188809Y-72207380D01*
X125093571Y-72159761D01*
X125045952Y-72064523D01*
X125045952Y-71683571D01*
X125093571Y-71588333D01*
X125188809Y-71540714D01*
X125379285Y-71540714D01*
X125474523Y-71588333D01*
X125522142Y-71683571D01*
X125522142Y-71778809D01*
X125045952Y-71874047D01*
X126379285Y-72207380D02*
X126379285Y-71683571D01*
X126331666Y-71588333D01*
X126236428Y-71540714D01*
X126045952Y-71540714D01*
X125950714Y-71588333D01*
X126379285Y-72159761D02*
X126284047Y-72207380D01*
X126045952Y-72207380D01*
X125950714Y-72159761D01*
X125903095Y-72064523D01*
X125903095Y-71969285D01*
X125950714Y-71874047D01*
X126045952Y-71826428D01*
X126284047Y-71826428D01*
X126379285Y-71778809D01*
X126807857Y-72159761D02*
X126903095Y-72207380D01*
X127093571Y-72207380D01*
X127188809Y-72159761D01*
X127236428Y-72064523D01*
X127236428Y-72016904D01*
X127188809Y-71921666D01*
X127093571Y-71874047D01*
X126950714Y-71874047D01*
X126855476Y-71826428D01*
X126807857Y-71731190D01*
X126807857Y-71683571D01*
X126855476Y-71588333D01*
X126950714Y-71540714D01*
X127093571Y-71540714D01*
X127188809Y-71588333D01*
X128045952Y-72159761D02*
X127950714Y-72207380D01*
X127760238Y-72207380D01*
X127665000Y-72159761D01*
X127617380Y-72064523D01*
X127617380Y-71683571D01*
X127665000Y-71588333D01*
X127760238Y-71540714D01*
X127950714Y-71540714D01*
X128045952Y-71588333D01*
X128093571Y-71683571D01*
X128093571Y-71778809D01*
X127617380Y-71874047D01*
X129426904Y-72207380D02*
X129331666Y-72159761D01*
X129284047Y-72112142D01*
X129236428Y-72016904D01*
X129236428Y-71731190D01*
X129284047Y-71635952D01*
X129331666Y-71588333D01*
X129426904Y-71540714D01*
X129569761Y-71540714D01*
X129665000Y-71588333D01*
X129712619Y-71635952D01*
X129760238Y-71731190D01*
X129760238Y-72016904D01*
X129712619Y-72112142D01*
X129665000Y-72159761D01*
X129569761Y-72207380D01*
X129426904Y-72207380D01*
X130045952Y-71540714D02*
X130426904Y-71540714D01*
X130188809Y-72207380D02*
X130188809Y-71350238D01*
X130236428Y-71255000D01*
X130331666Y-71207380D01*
X130426904Y-71207380D01*
X131950714Y-71540714D02*
X131950714Y-72207380D01*
X131522142Y-71540714D02*
X131522142Y-72064523D01*
X131569761Y-72159761D01*
X131665000Y-72207380D01*
X131807857Y-72207380D01*
X131903095Y-72159761D01*
X131950714Y-72112142D01*
X132379285Y-72159761D02*
X132474523Y-72207380D01*
X132665000Y-72207380D01*
X132760238Y-72159761D01*
X132807857Y-72064523D01*
X132807857Y-72016904D01*
X132760238Y-71921666D01*
X132665000Y-71874047D01*
X132522142Y-71874047D01*
X132426904Y-71826428D01*
X132379285Y-71731190D01*
X132379285Y-71683571D01*
X132426904Y-71588333D01*
X132522142Y-71540714D01*
X132665000Y-71540714D01*
X132760238Y-71588333D01*
X133617380Y-72159761D02*
X133522142Y-72207380D01*
X133331666Y-72207380D01*
X133236428Y-72159761D01*
X133188809Y-72064523D01*
X133188809Y-71683571D01*
X133236428Y-71588333D01*
X133331666Y-71540714D01*
X133522142Y-71540714D01*
X133617380Y-71588333D01*
X133664999Y-71683571D01*
X133664999Y-71778809D01*
X133188809Y-71874047D01*
D11*
X158616666Y-119696666D02*
X158216666Y-119696666D01*
X158416666Y-119696666D02*
X158416666Y-118996666D01*
X158350000Y-119096666D01*
X158283333Y-119163333D01*
X158216666Y-119196666D01*
X158950000Y-119696666D02*
X159083333Y-119696666D01*
X159150000Y-119663333D01*
X159183333Y-119630000D01*
X159250000Y-119530000D01*
X159283333Y-119396666D01*
X159283333Y-119130000D01*
X159250000Y-119063333D01*
X159216666Y-119030000D01*
X159150000Y-118996666D01*
X159016666Y-118996666D01*
X158950000Y-119030000D01*
X158916666Y-119063333D01*
X158883333Y-119130000D01*
X158883333Y-119296666D01*
X158916666Y-119363333D01*
X158950000Y-119396666D01*
X159016666Y-119430000D01*
X159150000Y-119430000D01*
X159216666Y-119396666D01*
X159250000Y-119363333D01*
X159283333Y-119296666D01*
D10*
X152878333Y-115546190D02*
X152878333Y-116022380D01*
X152545000Y-115022380D02*
X152878333Y-115546190D01*
X153211666Y-115022380D01*
X153687857Y-116022380D02*
X153592619Y-115974761D01*
X153545000Y-115927142D01*
X153497380Y-115831904D01*
X153497380Y-115546190D01*
X153545000Y-115450952D01*
X153592619Y-115403333D01*
X153687857Y-115355714D01*
X153830714Y-115355714D01*
X153925952Y-115403333D01*
X153973571Y-115450952D01*
X154021190Y-115546190D01*
X154021190Y-115831904D01*
X153973571Y-115927142D01*
X153925952Y-115974761D01*
X153830714Y-116022380D01*
X153687857Y-116022380D01*
X154878333Y-115355714D02*
X154878333Y-116022380D01*
X154449761Y-115355714D02*
X154449761Y-115879523D01*
X154497380Y-115974761D01*
X154592619Y-116022380D01*
X154735476Y-116022380D01*
X154830714Y-115974761D01*
X154878333Y-115927142D01*
X156545000Y-115974761D02*
X156449761Y-116022380D01*
X156259285Y-116022380D01*
X156164047Y-115974761D01*
X156116428Y-115927142D01*
X156068809Y-115831904D01*
X156068809Y-115546190D01*
X156116428Y-115450952D01*
X156164047Y-115403333D01*
X156259285Y-115355714D01*
X156449761Y-115355714D01*
X156545000Y-115403333D01*
X157402142Y-116022380D02*
X157402142Y-115498571D01*
X157354523Y-115403333D01*
X157259285Y-115355714D01*
X157068809Y-115355714D01*
X156973571Y-115403333D01*
X157402142Y-115974761D02*
X157306904Y-116022380D01*
X157068809Y-116022380D01*
X156973571Y-115974761D01*
X156925952Y-115879523D01*
X156925952Y-115784285D01*
X156973571Y-115689047D01*
X157068809Y-115641428D01*
X157306904Y-115641428D01*
X157402142Y-115593809D01*
X157878333Y-115355714D02*
X157878333Y-116022380D01*
X157878333Y-115450952D02*
X157925952Y-115403333D01*
X158021190Y-115355714D01*
X158164047Y-115355714D01*
X158259285Y-115403333D01*
X158306904Y-115498571D01*
X158306904Y-116022380D01*
X159545000Y-116022380D02*
X159545000Y-115355714D01*
X159545000Y-115450952D02*
X159592619Y-115403333D01*
X159687857Y-115355714D01*
X159830714Y-115355714D01*
X159925952Y-115403333D01*
X159973571Y-115498571D01*
X159973571Y-116022380D01*
X159973571Y-115498571D02*
X160021190Y-115403333D01*
X160116428Y-115355714D01*
X160259285Y-115355714D01*
X160354523Y-115403333D01*
X160402142Y-115498571D01*
X160402142Y-116022380D01*
X160878333Y-116022380D02*
X160878333Y-115355714D01*
X160878333Y-115022380D02*
X160830714Y-115070000D01*
X160878333Y-115117619D01*
X160925952Y-115070000D01*
X160878333Y-115022380D01*
X160878333Y-115117619D01*
X161259285Y-116022380D02*
X161783095Y-115355714D01*
X161259285Y-115355714D02*
X161783095Y-116022380D01*
X163354523Y-116022380D02*
X163354523Y-115498571D01*
X163306904Y-115403333D01*
X163211666Y-115355714D01*
X163021190Y-115355714D01*
X162925952Y-115403333D01*
X163354523Y-115974761D02*
X163259285Y-116022380D01*
X163021190Y-116022380D01*
X162925952Y-115974761D01*
X162878333Y-115879523D01*
X162878333Y-115784285D01*
X162925952Y-115689047D01*
X163021190Y-115641428D01*
X163259285Y-115641428D01*
X163354523Y-115593809D01*
X163830714Y-115355714D02*
X163830714Y-116022380D01*
X163830714Y-115450952D02*
X163878333Y-115403333D01*
X163973571Y-115355714D01*
X164116428Y-115355714D01*
X164211666Y-115403333D01*
X164259285Y-115498571D01*
X164259285Y-116022380D01*
X165164047Y-116022380D02*
X165164047Y-115022380D01*
X165164047Y-115974761D02*
X165068809Y-116022380D01*
X164878333Y-116022380D01*
X164783095Y-115974761D01*
X164735476Y-115927142D01*
X164687857Y-115831904D01*
X164687857Y-115546190D01*
X164735476Y-115450952D01*
X164783095Y-115403333D01*
X164878333Y-115355714D01*
X165068809Y-115355714D01*
X165164047Y-115403333D01*
X166402142Y-116022380D02*
X166402142Y-115355714D01*
X166402142Y-115450952D02*
X166449761Y-115403333D01*
X166545000Y-115355714D01*
X166687857Y-115355714D01*
X166783095Y-115403333D01*
X166830714Y-115498571D01*
X166830714Y-116022380D01*
X166830714Y-115498571D02*
X166878333Y-115403333D01*
X166973571Y-115355714D01*
X167116428Y-115355714D01*
X167211666Y-115403333D01*
X167259285Y-115498571D01*
X167259285Y-116022380D01*
X168164047Y-116022380D02*
X168164047Y-115498571D01*
X168116428Y-115403333D01*
X168021190Y-115355714D01*
X167830714Y-115355714D01*
X167735476Y-115403333D01*
X168164047Y-115974761D02*
X168068809Y-116022380D01*
X167830714Y-116022380D01*
X167735476Y-115974761D01*
X167687857Y-115879523D01*
X167687857Y-115784285D01*
X167735476Y-115689047D01*
X167830714Y-115641428D01*
X168068809Y-115641428D01*
X168164047Y-115593809D01*
X168497380Y-115355714D02*
X168878333Y-115355714D01*
X168640238Y-115022380D02*
X168640238Y-115879523D01*
X168687857Y-115974761D01*
X168783095Y-116022380D01*
X168878333Y-116022380D01*
X169640238Y-115974761D02*
X169545000Y-116022380D01*
X169354523Y-116022380D01*
X169259285Y-115974761D01*
X169211666Y-115927142D01*
X169164047Y-115831904D01*
X169164047Y-115546190D01*
X169211666Y-115450952D01*
X169259285Y-115403333D01*
X169354523Y-115355714D01*
X169545000Y-115355714D01*
X169640238Y-115403333D01*
X170068809Y-116022380D02*
X170068809Y-115022380D01*
X170497380Y-116022380D02*
X170497380Y-115498571D01*
X170449761Y-115403333D01*
X170354523Y-115355714D01*
X170211666Y-115355714D01*
X170116428Y-115403333D01*
X170068809Y-115450952D01*
X172306904Y-116022380D02*
X171973571Y-115546190D01*
X171735476Y-116022380D02*
X171735476Y-115022380D01*
X172116428Y-115022380D01*
X172211666Y-115070000D01*
X172259285Y-115117619D01*
X172306904Y-115212857D01*
X172306904Y-115355714D01*
X172259285Y-115450952D01*
X172211666Y-115498571D01*
X172116428Y-115546190D01*
X171735476Y-115546190D01*
X172687857Y-115736666D02*
X173164047Y-115736666D01*
X172592619Y-116022380D02*
X172925952Y-115022380D01*
X173259285Y-116022380D01*
X173592619Y-116022380D02*
X173592619Y-115022380D01*
X173925952Y-115736666D01*
X174259285Y-115022380D01*
X174259285Y-116022380D01*
X175925952Y-116022380D02*
X175925952Y-115498571D01*
X175878333Y-115403333D01*
X175783095Y-115355714D01*
X175592619Y-115355714D01*
X175497380Y-115403333D01*
X175925952Y-115974761D02*
X175830714Y-116022380D01*
X175592619Y-116022380D01*
X175497380Y-115974761D01*
X175449761Y-115879523D01*
X175449761Y-115784285D01*
X175497380Y-115689047D01*
X175592619Y-115641428D01*
X175830714Y-115641428D01*
X175925952Y-115593809D01*
X176402142Y-115355714D02*
X176402142Y-116022380D01*
X176402142Y-115450952D02*
X176449761Y-115403333D01*
X176545000Y-115355714D01*
X176687857Y-115355714D01*
X176783095Y-115403333D01*
X176830714Y-115498571D01*
X176830714Y-116022380D01*
X177735476Y-116022380D02*
X177735476Y-115022380D01*
X177735476Y-115974761D02*
X177640238Y-116022380D01*
X177449761Y-116022380D01*
X177354523Y-115974761D01*
X177306904Y-115927142D01*
X177259285Y-115831904D01*
X177259285Y-115546190D01*
X177306904Y-115450952D01*
X177354523Y-115403333D01*
X177449761Y-115355714D01*
X177640238Y-115355714D01*
X177735476Y-115403333D01*
X179545000Y-116022380D02*
X179211666Y-115546190D01*
X178973571Y-116022380D02*
X178973571Y-115022380D01*
X179354523Y-115022380D01*
X179449761Y-115070000D01*
X179497380Y-115117619D01*
X179545000Y-115212857D01*
X179545000Y-115355714D01*
X179497380Y-115450952D01*
X179449761Y-115498571D01*
X179354523Y-115546190D01*
X178973571Y-115546190D01*
X180164047Y-115022380D02*
X180354523Y-115022380D01*
X180449761Y-115070000D01*
X180545000Y-115165238D01*
X180592619Y-115355714D01*
X180592619Y-115689047D01*
X180545000Y-115879523D01*
X180449761Y-115974761D01*
X180354523Y-116022380D01*
X180164047Y-116022380D01*
X180068809Y-115974761D01*
X179973571Y-115879523D01*
X179925952Y-115689047D01*
X179925952Y-115355714D01*
X179973571Y-115165238D01*
X180068809Y-115070000D01*
X180164047Y-115022380D01*
X181021190Y-116022380D02*
X181021190Y-115022380D01*
X181354523Y-115736666D01*
X181687857Y-115022380D01*
X181687857Y-116022380D01*
X183354523Y-115974761D02*
X183259285Y-116022380D01*
X183068809Y-116022380D01*
X182973571Y-115974761D01*
X182925952Y-115927142D01*
X182878333Y-115831904D01*
X182878333Y-115546190D01*
X182925952Y-115450952D01*
X182973571Y-115403333D01*
X183068809Y-115355714D01*
X183259285Y-115355714D01*
X183354523Y-115403333D01*
X183783095Y-116022380D02*
X183783095Y-115022380D01*
X184211666Y-116022380D02*
X184211666Y-115498571D01*
X184164047Y-115403333D01*
X184068809Y-115355714D01*
X183925952Y-115355714D01*
X183830714Y-115403333D01*
X183783095Y-115450952D01*
X184687857Y-116022380D02*
X184687857Y-115355714D01*
X184687857Y-115022380D02*
X184640238Y-115070000D01*
X184687857Y-115117619D01*
X184735476Y-115070000D01*
X184687857Y-115022380D01*
X184687857Y-115117619D01*
X185164047Y-115355714D02*
X185164047Y-116355714D01*
X185164047Y-115403333D02*
X185259285Y-115355714D01*
X185449761Y-115355714D01*
X185545000Y-115403333D01*
X185592619Y-115450952D01*
X185640238Y-115546190D01*
X185640238Y-115831904D01*
X185592619Y-115927142D01*
X185545000Y-115974761D01*
X185449761Y-116022380D01*
X185259285Y-116022380D01*
X185164047Y-115974761D01*
X186021190Y-115974761D02*
X186116428Y-116022380D01*
X186306904Y-116022380D01*
X186402142Y-115974761D01*
X186449761Y-115879523D01*
X186449761Y-115831904D01*
X186402142Y-115736666D01*
X186306904Y-115689047D01*
X186164047Y-115689047D01*
X186068809Y-115641428D01*
X186021190Y-115546190D01*
X186021190Y-115498571D01*
X186068809Y-115403333D01*
X186164047Y-115355714D01*
X186306904Y-115355714D01*
X186402142Y-115403333D01*
X160235476Y-84621666D02*
X160711666Y-84621666D01*
X160140238Y-84907380D02*
X160473571Y-83907380D01*
X160806904Y-84907380D01*
X161140238Y-84907380D02*
X161140238Y-83907380D01*
X161140238Y-84288333D02*
X161235476Y-84240714D01*
X161425952Y-84240714D01*
X161521190Y-84288333D01*
X161568809Y-84335952D01*
X161616428Y-84431190D01*
X161616428Y-84716904D01*
X161568809Y-84812142D01*
X161521190Y-84859761D01*
X161425952Y-84907380D01*
X161235476Y-84907380D01*
X161140238Y-84859761D01*
X161949761Y-84240714D02*
X162473571Y-84240714D01*
X161949761Y-84907380D01*
X162473571Y-84907380D01*
X162854523Y-84907380D02*
X162854523Y-84240714D01*
X162854523Y-84335952D02*
X162902142Y-84288333D01*
X162997380Y-84240714D01*
X163140238Y-84240714D01*
X163235476Y-84288333D01*
X163283095Y-84383571D01*
X163283095Y-84907380D01*
X163283095Y-84383571D02*
X163330714Y-84288333D01*
X163425952Y-84240714D01*
X163568809Y-84240714D01*
X163664047Y-84288333D01*
X163711666Y-84383571D01*
X163711666Y-84907380D01*
X164616428Y-84907380D02*
X164616428Y-84383571D01*
X164568809Y-84288333D01*
X164473571Y-84240714D01*
X164283095Y-84240714D01*
X164187857Y-84288333D01*
X164616428Y-84859761D02*
X164521190Y-84907380D01*
X164283095Y-84907380D01*
X164187857Y-84859761D01*
X164140238Y-84764523D01*
X164140238Y-84669285D01*
X164187857Y-84574047D01*
X164283095Y-84526428D01*
X164521190Y-84526428D01*
X164616428Y-84478809D01*
X165092619Y-84240714D02*
X165092619Y-84907380D01*
X165092619Y-84335952D02*
X165140238Y-84288333D01*
X165235476Y-84240714D01*
X165378333Y-84240714D01*
X165473571Y-84288333D01*
X165521190Y-84383571D01*
X165521190Y-84907380D01*
X165949761Y-84002619D02*
X165997380Y-83955000D01*
X166092619Y-83907380D01*
X166330714Y-83907380D01*
X166425952Y-83955000D01*
X166473571Y-84002619D01*
X166521190Y-84097857D01*
X166521190Y-84193095D01*
X166473571Y-84335952D01*
X165902142Y-84907380D01*
X166521190Y-84907380D01*
X166949761Y-84907380D02*
X166949761Y-83907380D01*
X167045000Y-84526428D02*
X167330714Y-84907380D01*
X167330714Y-84240714D02*
X166949761Y-84621666D01*
X167759285Y-84812142D02*
X167806904Y-84859761D01*
X167759285Y-84907380D01*
X167711666Y-84859761D01*
X167759285Y-84812142D01*
X167759285Y-84907380D01*
X168140238Y-84240714D02*
X168330714Y-84907380D01*
X168521190Y-84431190D01*
X168711666Y-84907380D01*
X168902142Y-84240714D01*
X169425952Y-84907380D02*
X169330714Y-84859761D01*
X169283095Y-84812142D01*
X169235476Y-84716904D01*
X169235476Y-84431190D01*
X169283095Y-84335952D01*
X169330714Y-84288333D01*
X169425952Y-84240714D01*
X169568809Y-84240714D01*
X169664047Y-84288333D01*
X169711666Y-84335952D01*
X169759285Y-84431190D01*
X169759285Y-84716904D01*
X169711666Y-84812142D01*
X169664047Y-84859761D01*
X169568809Y-84907380D01*
X169425952Y-84907380D01*
X170187857Y-84907380D02*
X170187857Y-84240714D01*
X170187857Y-84431190D02*
X170235476Y-84335952D01*
X170283095Y-84288333D01*
X170378333Y-84240714D01*
X170473571Y-84240714D01*
X171235476Y-84907380D02*
X171235476Y-83907380D01*
X171235476Y-84859761D02*
X171140238Y-84907380D01*
X170949761Y-84907380D01*
X170854523Y-84859761D01*
X170806904Y-84812142D01*
X170759285Y-84716904D01*
X170759285Y-84431190D01*
X170806904Y-84335952D01*
X170854523Y-84288333D01*
X170949761Y-84240714D01*
X171140238Y-84240714D01*
X171235476Y-84288333D01*
X171711666Y-84240714D02*
X171711666Y-85240714D01*
X171711666Y-84288333D02*
X171806904Y-84240714D01*
X171997380Y-84240714D01*
X172092619Y-84288333D01*
X172140238Y-84335952D01*
X172187857Y-84431190D01*
X172187857Y-84716904D01*
X172140238Y-84812142D01*
X172092619Y-84859761D01*
X171997380Y-84907380D01*
X171806904Y-84907380D01*
X171711666Y-84859761D01*
X172616428Y-84907380D02*
X172616428Y-84240714D01*
X172616428Y-84431190D02*
X172664047Y-84335952D01*
X172711666Y-84288333D01*
X172806904Y-84240714D01*
X172902142Y-84240714D01*
X173616428Y-84859761D02*
X173521190Y-84907380D01*
X173330714Y-84907380D01*
X173235476Y-84859761D01*
X173187857Y-84764523D01*
X173187857Y-84383571D01*
X173235476Y-84288333D01*
X173330714Y-84240714D01*
X173521190Y-84240714D01*
X173616428Y-84288333D01*
X173664047Y-84383571D01*
X173664047Y-84478809D01*
X173187857Y-84574047D01*
X174045000Y-84859761D02*
X174140238Y-84907380D01*
X174330714Y-84907380D01*
X174425952Y-84859761D01*
X174473571Y-84764523D01*
X174473571Y-84716904D01*
X174425952Y-84621666D01*
X174330714Y-84574047D01*
X174187857Y-84574047D01*
X174092619Y-84526428D01*
X174045000Y-84431190D01*
X174045000Y-84383571D01*
X174092619Y-84288333D01*
X174187857Y-84240714D01*
X174330714Y-84240714D01*
X174425952Y-84288333D01*
X174854523Y-84859761D02*
X174949761Y-84907380D01*
X175140238Y-84907380D01*
X175235476Y-84859761D01*
X175283095Y-84764523D01*
X175283095Y-84716904D01*
X175235476Y-84621666D01*
X175140238Y-84574047D01*
X174997380Y-84574047D01*
X174902142Y-84526428D01*
X174854523Y-84431190D01*
X174854523Y-84383571D01*
X174902142Y-84288333D01*
X174997380Y-84240714D01*
X175140238Y-84240714D01*
X175235476Y-84288333D01*
X175711666Y-84812142D02*
X175759285Y-84859761D01*
X175711666Y-84907380D01*
X175664047Y-84859761D01*
X175711666Y-84812142D01*
X175711666Y-84907380D01*
X176616428Y-84859761D02*
X176521190Y-84907380D01*
X176330714Y-84907380D01*
X176235476Y-84859761D01*
X176187857Y-84812142D01*
X176140238Y-84716904D01*
X176140238Y-84431190D01*
X176187857Y-84335952D01*
X176235476Y-84288333D01*
X176330714Y-84240714D01*
X176521190Y-84240714D01*
X176616428Y-84288333D01*
X177187857Y-84907380D02*
X177092619Y-84859761D01*
X177045000Y-84812142D01*
X176997380Y-84716904D01*
X176997380Y-84431190D01*
X177045000Y-84335952D01*
X177092619Y-84288333D01*
X177187857Y-84240714D01*
X177330714Y-84240714D01*
X177425952Y-84288333D01*
X177473571Y-84335952D01*
X177521190Y-84431190D01*
X177521190Y-84716904D01*
X177473571Y-84812142D01*
X177425952Y-84859761D01*
X177330714Y-84907380D01*
X177187857Y-84907380D01*
X177949761Y-84907380D02*
X177949761Y-84240714D01*
X177949761Y-84335952D02*
X177997380Y-84288333D01*
X178092619Y-84240714D01*
X178235476Y-84240714D01*
X178330714Y-84288333D01*
X178378333Y-84383571D01*
X178378333Y-84907380D01*
X178378333Y-84383571D02*
X178425952Y-84288333D01*
X178521190Y-84240714D01*
X178664047Y-84240714D01*
X178759285Y-84288333D01*
X178806904Y-84383571D01*
X178806904Y-84907380D01*
X140303571Y-127722380D02*
X140303571Y-128436666D01*
X140255952Y-128579523D01*
X140160714Y-128674761D01*
X140017857Y-128722380D01*
X139922619Y-128722380D01*
X141208333Y-128055714D02*
X141208333Y-128722380D01*
X140779761Y-128055714D02*
X140779761Y-128579523D01*
X140827380Y-128674761D01*
X140922619Y-128722380D01*
X141065476Y-128722380D01*
X141160714Y-128674761D01*
X141208333Y-128627142D01*
X141684523Y-128722380D02*
X141684523Y-128055714D01*
X141684523Y-128150952D02*
X141732142Y-128103333D01*
X141827380Y-128055714D01*
X141970238Y-128055714D01*
X142065476Y-128103333D01*
X142113095Y-128198571D01*
X142113095Y-128722380D01*
X142113095Y-128198571D02*
X142160714Y-128103333D01*
X142255952Y-128055714D01*
X142398809Y-128055714D01*
X142494047Y-128103333D01*
X142541666Y-128198571D01*
X142541666Y-128722380D01*
X143017857Y-128055714D02*
X143017857Y-129055714D01*
X143017857Y-128103333D02*
X143113095Y-128055714D01*
X143303571Y-128055714D01*
X143398809Y-128103333D01*
X143446428Y-128150952D01*
X143494047Y-128246190D01*
X143494047Y-128531904D01*
X143446428Y-128627142D01*
X143398809Y-128674761D01*
X143303571Y-128722380D01*
X143113095Y-128722380D01*
X143017857Y-128674761D01*
X144303571Y-128674761D02*
X144208333Y-128722380D01*
X144017857Y-128722380D01*
X143922619Y-128674761D01*
X143875000Y-128579523D01*
X143875000Y-128198571D01*
X143922619Y-128103333D01*
X144017857Y-128055714D01*
X144208333Y-128055714D01*
X144303571Y-128103333D01*
X144351190Y-128198571D01*
X144351190Y-128293809D01*
X143875000Y-128389047D01*
X144779761Y-128722380D02*
X144779761Y-128055714D01*
X144779761Y-128246190D02*
X144827380Y-128150952D01*
X144875000Y-128103333D01*
X144970238Y-128055714D01*
X145065476Y-128055714D01*
X145351190Y-128674761D02*
X145446428Y-128722380D01*
X145636904Y-128722380D01*
X145732142Y-128674761D01*
X145779761Y-128579523D01*
X145779761Y-128531904D01*
X145732142Y-128436666D01*
X145636904Y-128389047D01*
X145494047Y-128389047D01*
X145398809Y-128341428D01*
X145351190Y-128246190D01*
X145351190Y-128198571D01*
X145398809Y-128103333D01*
X145494047Y-128055714D01*
X145636904Y-128055714D01*
X145732142Y-128103333D01*
D11*
X166171666Y-76951666D02*
X166505000Y-76951666D01*
X166105000Y-77151666D02*
X166338333Y-76451666D01*
X166571666Y-77151666D01*
X167171666Y-77151666D02*
X166771666Y-77151666D01*
X166971666Y-77151666D02*
X166971666Y-76451666D01*
X166905000Y-76551666D01*
X166838333Y-76618333D01*
X166771666Y-76651666D01*
X167405000Y-76451666D02*
X167838333Y-76451666D01*
X167605000Y-76718333D01*
X167705000Y-76718333D01*
X167771666Y-76751666D01*
X167805000Y-76785000D01*
X167838333Y-76851666D01*
X167838333Y-77018333D01*
X167805000Y-77085000D01*
X167771666Y-77118333D01*
X167705000Y-77151666D01*
X167505000Y-77151666D01*
X167438333Y-77118333D01*
X167405000Y-77085000D01*
X103941666Y-126481666D02*
X104275000Y-126481666D01*
X103875000Y-126681666D02*
X104108333Y-125981666D01*
X104341666Y-126681666D01*
X104941666Y-126681666D02*
X104541666Y-126681666D01*
X104741666Y-126681666D02*
X104741666Y-125981666D01*
X104675000Y-126081666D01*
X104608333Y-126148333D01*
X104541666Y-126181666D01*
X105608333Y-126681666D02*
X105208333Y-126681666D01*
X105408333Y-126681666D02*
X105408333Y-125981666D01*
X105341666Y-126081666D01*
X105275000Y-126148333D01*
X105208333Y-126181666D01*
X94416666Y-126481666D02*
X94750000Y-126481666D01*
X94350000Y-126681666D02*
X94583333Y-125981666D01*
X94816666Y-126681666D01*
X95416666Y-126681666D02*
X95016666Y-126681666D01*
X95216666Y-126681666D02*
X95216666Y-125981666D01*
X95150000Y-126081666D01*
X95083333Y-126148333D01*
X95016666Y-126181666D01*
X95850000Y-125981666D02*
X95916666Y-125981666D01*
X95983333Y-126015000D01*
X96016666Y-126048333D01*
X96050000Y-126115000D01*
X96083333Y-126248333D01*
X96083333Y-126415000D01*
X96050000Y-126548333D01*
X96016666Y-126615000D01*
X95983333Y-126648333D01*
X95916666Y-126681666D01*
X95850000Y-126681666D01*
X95783333Y-126648333D01*
X95750000Y-126615000D01*
X95716666Y-126548333D01*
X95683333Y-126415000D01*
X95683333Y-126248333D01*
X95716666Y-126115000D01*
X95750000Y-126048333D01*
X95783333Y-126015000D01*
X95850000Y-125981666D01*
D10*
X161258571Y-127722380D02*
X161258571Y-128436666D01*
X161210952Y-128579523D01*
X161115714Y-128674761D01*
X160972857Y-128722380D01*
X160877619Y-128722380D01*
X162163333Y-128055714D02*
X162163333Y-128722380D01*
X161734761Y-128055714D02*
X161734761Y-128579523D01*
X161782380Y-128674761D01*
X161877619Y-128722380D01*
X162020476Y-128722380D01*
X162115714Y-128674761D01*
X162163333Y-128627142D01*
X162639523Y-128722380D02*
X162639523Y-128055714D01*
X162639523Y-128150952D02*
X162687142Y-128103333D01*
X162782380Y-128055714D01*
X162925238Y-128055714D01*
X163020476Y-128103333D01*
X163068095Y-128198571D01*
X163068095Y-128722380D01*
X163068095Y-128198571D02*
X163115714Y-128103333D01*
X163210952Y-128055714D01*
X163353809Y-128055714D01*
X163449047Y-128103333D01*
X163496666Y-128198571D01*
X163496666Y-128722380D01*
X163972857Y-128055714D02*
X163972857Y-129055714D01*
X163972857Y-128103333D02*
X164068095Y-128055714D01*
X164258571Y-128055714D01*
X164353809Y-128103333D01*
X164401428Y-128150952D01*
X164449047Y-128246190D01*
X164449047Y-128531904D01*
X164401428Y-128627142D01*
X164353809Y-128674761D01*
X164258571Y-128722380D01*
X164068095Y-128722380D01*
X163972857Y-128674761D01*
X165258571Y-128674761D02*
X165163333Y-128722380D01*
X164972857Y-128722380D01*
X164877619Y-128674761D01*
X164830000Y-128579523D01*
X164830000Y-128198571D01*
X164877619Y-128103333D01*
X164972857Y-128055714D01*
X165163333Y-128055714D01*
X165258571Y-128103333D01*
X165306190Y-128198571D01*
X165306190Y-128293809D01*
X164830000Y-128389047D01*
X165734761Y-128722380D02*
X165734761Y-128055714D01*
X165734761Y-128246190D02*
X165782380Y-128150952D01*
X165830000Y-128103333D01*
X165925238Y-128055714D01*
X166020476Y-128055714D01*
X166306190Y-128674761D02*
X166401428Y-128722380D01*
X166591904Y-128722380D01*
X166687142Y-128674761D01*
X166734761Y-128579523D01*
X166734761Y-128531904D01*
X166687142Y-128436666D01*
X166591904Y-128389047D01*
X166449047Y-128389047D01*
X166353809Y-128341428D01*
X166306190Y-128246190D01*
X166306190Y-128198571D01*
X166353809Y-128103333D01*
X166449047Y-128055714D01*
X166591904Y-128055714D01*
X166687142Y-128103333D01*
D11*
X165770000Y-126415000D02*
X166303333Y-126415000D01*
X166970000Y-125981666D02*
X166636666Y-125981666D01*
X166603333Y-126315000D01*
X166636666Y-126281666D01*
X166703333Y-126248333D01*
X166870000Y-126248333D01*
X166936666Y-126281666D01*
X166970000Y-126315000D01*
X167003333Y-126381666D01*
X167003333Y-126548333D01*
X166970000Y-126615000D01*
X166936666Y-126648333D01*
X166870000Y-126681666D01*
X166703333Y-126681666D01*
X166636666Y-126648333D01*
X166603333Y-126615000D01*
X92576666Y-122871666D02*
X92176666Y-122871666D01*
X92376666Y-122871666D02*
X92376666Y-122171666D01*
X92310000Y-122271666D01*
X92243333Y-122338333D01*
X92176666Y-122371666D01*
X92910000Y-122871666D02*
X93043333Y-122871666D01*
X93110000Y-122838333D01*
X93143333Y-122805000D01*
X93210000Y-122705000D01*
X93243333Y-122571666D01*
X93243333Y-122305000D01*
X93210000Y-122238333D01*
X93176666Y-122205000D01*
X93110000Y-122171666D01*
X92976666Y-122171666D01*
X92910000Y-122205000D01*
X92876666Y-122238333D01*
X92843333Y-122305000D01*
X92843333Y-122471666D01*
X92876666Y-122538333D01*
X92910000Y-122571666D01*
X92976666Y-122605000D01*
X93110000Y-122605000D01*
X93176666Y-122571666D01*
X93210000Y-122538333D01*
X93243333Y-122471666D01*
X150296666Y-126481666D02*
X150630000Y-126481666D01*
X150230000Y-126681666D02*
X150463333Y-125981666D01*
X150696666Y-126681666D01*
X151296666Y-126681666D02*
X150896666Y-126681666D01*
X151096666Y-126681666D02*
X151096666Y-125981666D01*
X151030000Y-126081666D01*
X150963333Y-126148333D01*
X150896666Y-126181666D01*
X151963333Y-126681666D02*
X151563333Y-126681666D01*
X151763333Y-126681666D02*
X151763333Y-125981666D01*
X151696666Y-126081666D01*
X151630000Y-126148333D01*
X151563333Y-126181666D01*
X147841666Y-136841666D02*
X147441666Y-136841666D01*
X147641666Y-136841666D02*
X147641666Y-136141666D01*
X147575000Y-136241666D01*
X147508333Y-136308333D01*
X147441666Y-136341666D01*
X147975000Y-136908333D02*
X148508333Y-136908333D01*
X148675000Y-136375000D02*
X148675000Y-137075000D01*
X148675000Y-136408333D02*
X148741666Y-136375000D01*
X148875000Y-136375000D01*
X148941666Y-136408333D01*
X148975000Y-136441666D01*
X149008333Y-136508333D01*
X149008333Y-136708333D01*
X148975000Y-136775000D01*
X148941666Y-136808333D01*
X148875000Y-136841666D01*
X148741666Y-136841666D01*
X148675000Y-136808333D01*
X149308333Y-136841666D02*
X149308333Y-136375000D01*
X149308333Y-136508333D02*
X149341666Y-136441666D01*
X149375000Y-136408333D01*
X149441666Y-136375000D01*
X149508333Y-136375000D01*
X149841666Y-136841666D02*
X149775000Y-136808333D01*
X149741666Y-136775000D01*
X149708333Y-136708333D01*
X149708333Y-136508333D01*
X149741666Y-136441666D01*
X149775000Y-136408333D01*
X149841666Y-136375000D01*
X149941666Y-136375000D01*
X150008333Y-136408333D01*
X150041666Y-136441666D01*
X150075000Y-136508333D01*
X150075000Y-136708333D01*
X150041666Y-136775000D01*
X150008333Y-136808333D01*
X149941666Y-136841666D01*
X149841666Y-136841666D01*
X150375000Y-136841666D02*
X150375000Y-136375000D01*
X150375000Y-136441666D02*
X150408333Y-136408333D01*
X150475000Y-136375000D01*
X150575000Y-136375000D01*
X150641666Y-136408333D01*
X150675000Y-136475000D01*
X150675000Y-136841666D01*
X150675000Y-136475000D02*
X150708333Y-136408333D01*
X150775000Y-136375000D01*
X150875000Y-136375000D01*
X150941666Y-136408333D01*
X150975000Y-136475000D01*
X150975000Y-136841666D01*
X160756666Y-119063333D02*
X160790000Y-119030000D01*
X160856666Y-118996666D01*
X161023333Y-118996666D01*
X161090000Y-119030000D01*
X161123333Y-119063333D01*
X161156666Y-119130000D01*
X161156666Y-119196666D01*
X161123333Y-119296666D01*
X160723333Y-119696666D01*
X161156666Y-119696666D01*
X161590000Y-118996666D02*
X161656666Y-118996666D01*
X161723333Y-119030000D01*
X161756666Y-119063333D01*
X161790000Y-119130000D01*
X161823333Y-119263333D01*
X161823333Y-119430000D01*
X161790000Y-119563333D01*
X161756666Y-119630000D01*
X161723333Y-119663333D01*
X161656666Y-119696666D01*
X161590000Y-119696666D01*
X161523333Y-119663333D01*
X161490000Y-119630000D01*
X161456666Y-119563333D01*
X161423333Y-119430000D01*
X161423333Y-119263333D01*
X161456666Y-119130000D01*
X161490000Y-119063333D01*
X161523333Y-119030000D01*
X161590000Y-118996666D01*
X107185000Y-126048333D02*
X107218333Y-126015000D01*
X107285000Y-125981666D01*
X107451666Y-125981666D01*
X107518333Y-126015000D01*
X107551666Y-126048333D01*
X107585000Y-126115000D01*
X107585000Y-126181666D01*
X107551666Y-126281666D01*
X107151666Y-126681666D01*
X107585000Y-126681666D01*
X107718333Y-126748333D02*
X108251666Y-126748333D01*
X108685000Y-126648333D02*
X108618333Y-126681666D01*
X108485000Y-126681666D01*
X108418333Y-126648333D01*
X108385000Y-126581666D01*
X108385000Y-126315000D01*
X108418333Y-126248333D01*
X108485000Y-126215000D01*
X108618333Y-126215000D01*
X108685000Y-126248333D01*
X108718333Y-126315000D01*
X108718333Y-126381666D01*
X108385000Y-126448333D01*
X109018333Y-126215000D02*
X109018333Y-126681666D01*
X109018333Y-126281666D02*
X109051666Y-126248333D01*
X109118333Y-126215000D01*
X109218333Y-126215000D01*
X109285000Y-126248333D01*
X109318333Y-126315000D01*
X109318333Y-126681666D01*
X109951666Y-126681666D02*
X109951666Y-126315000D01*
X109918333Y-126248333D01*
X109851666Y-126215000D01*
X109718333Y-126215000D01*
X109651666Y-126248333D01*
X109951666Y-126648333D02*
X109885000Y-126681666D01*
X109718333Y-126681666D01*
X109651666Y-126648333D01*
X109618333Y-126581666D01*
X109618333Y-126515000D01*
X109651666Y-126448333D01*
X109718333Y-126415000D01*
X109885000Y-126415000D01*
X109951666Y-126381666D01*
D10*
X184142142Y-126404761D02*
X183285000Y-127690476D01*
X184380238Y-126452380D02*
X184618333Y-127452380D01*
X184808809Y-126738095D01*
X184999285Y-127452380D01*
X185237380Y-126452380D01*
X186189761Y-127452380D02*
X185856428Y-126976190D01*
X185618333Y-127452380D02*
X185618333Y-126452380D01*
X185999285Y-126452380D01*
X186094523Y-126500000D01*
X186142142Y-126547619D01*
X186189761Y-126642857D01*
X186189761Y-126785714D01*
X186142142Y-126880952D01*
X186094523Y-126928571D01*
X185999285Y-126976190D01*
X185618333Y-126976190D01*
D11*
X87466666Y-125981666D02*
X87900000Y-125981666D01*
X87666666Y-126248333D01*
X87766666Y-126248333D01*
X87833333Y-126281666D01*
X87866666Y-126315000D01*
X87900000Y-126381666D01*
X87900000Y-126548333D01*
X87866666Y-126615000D01*
X87833333Y-126648333D01*
X87766666Y-126681666D01*
X87566666Y-126681666D01*
X87500000Y-126648333D01*
X87466666Y-126615000D01*
X88033333Y-126748333D02*
X88566666Y-126748333D01*
X89000000Y-126648333D02*
X88933333Y-126681666D01*
X88800000Y-126681666D01*
X88733333Y-126648333D01*
X88700000Y-126581666D01*
X88700000Y-126315000D01*
X88733333Y-126248333D01*
X88800000Y-126215000D01*
X88933333Y-126215000D01*
X89000000Y-126248333D01*
X89033333Y-126315000D01*
X89033333Y-126381666D01*
X88700000Y-126448333D01*
X89333333Y-126215000D02*
X89333333Y-126681666D01*
X89333333Y-126281666D02*
X89366666Y-126248333D01*
X89433333Y-126215000D01*
X89533333Y-126215000D01*
X89600000Y-126248333D01*
X89633333Y-126315000D01*
X89633333Y-126681666D01*
X90266666Y-126681666D02*
X90266666Y-126315000D01*
X90233333Y-126248333D01*
X90166666Y-126215000D01*
X90033333Y-126215000D01*
X89966666Y-126248333D01*
X90266666Y-126648333D02*
X90200000Y-126681666D01*
X90033333Y-126681666D01*
X89966666Y-126648333D01*
X89933333Y-126581666D01*
X89933333Y-126515000D01*
X89966666Y-126448333D01*
X90033333Y-126415000D01*
X90200000Y-126415000D01*
X90266666Y-126381666D01*
X112261666Y-119696666D02*
X111861666Y-119696666D01*
X112061666Y-119696666D02*
X112061666Y-118996666D01*
X111995000Y-119096666D01*
X111928333Y-119163333D01*
X111861666Y-119196666D01*
X112595000Y-119696666D02*
X112728333Y-119696666D01*
X112795000Y-119663333D01*
X112828333Y-119630000D01*
X112895000Y-119530000D01*
X112928333Y-119396666D01*
X112928333Y-119130000D01*
X112895000Y-119063333D01*
X112861666Y-119030000D01*
X112795000Y-118996666D01*
X112661666Y-118996666D01*
X112595000Y-119030000D01*
X112561666Y-119063333D01*
X112528333Y-119130000D01*
X112528333Y-119296666D01*
X112561666Y-119363333D01*
X112595000Y-119396666D01*
X112661666Y-119430000D01*
X112795000Y-119430000D01*
X112861666Y-119396666D01*
X112895000Y-119363333D01*
X112928333Y-119296666D01*
X119415000Y-126415000D02*
X119948333Y-126415000D01*
X120615000Y-125981666D02*
X120281666Y-125981666D01*
X120248333Y-126315000D01*
X120281666Y-126281666D01*
X120348333Y-126248333D01*
X120515000Y-126248333D01*
X120581666Y-126281666D01*
X120615000Y-126315000D01*
X120648333Y-126381666D01*
X120648333Y-126548333D01*
X120615000Y-126615000D01*
X120581666Y-126648333D01*
X120515000Y-126681666D01*
X120348333Y-126681666D01*
X120281666Y-126648333D01*
X120248333Y-126615000D01*
D10*
X107204285Y-93727380D02*
X106728095Y-93727380D01*
X106680476Y-94203571D01*
X106728095Y-94155952D01*
X106823333Y-94108333D01*
X107061428Y-94108333D01*
X107156666Y-94155952D01*
X107204285Y-94203571D01*
X107251904Y-94298809D01*
X107251904Y-94536904D01*
X107204285Y-94632142D01*
X107156666Y-94679761D01*
X107061428Y-94727380D01*
X106823333Y-94727380D01*
X106728095Y-94679761D01*
X106680476Y-94632142D01*
X108013809Y-94203571D02*
X108156666Y-94251190D01*
X108204285Y-94298809D01*
X108251904Y-94394047D01*
X108251904Y-94536904D01*
X108204285Y-94632142D01*
X108156666Y-94679761D01*
X108061428Y-94727380D01*
X107680476Y-94727380D01*
X107680476Y-93727380D01*
X108013809Y-93727380D01*
X108109047Y-93775000D01*
X108156666Y-93822619D01*
X108204285Y-93917857D01*
X108204285Y-94013095D01*
X108156666Y-94108333D01*
X108109047Y-94155952D01*
X108013809Y-94203571D01*
X107680476Y-94203571D01*
X109442380Y-94727380D02*
X109442380Y-94060714D01*
X109442380Y-94155952D02*
X109490000Y-94108333D01*
X109585238Y-94060714D01*
X109728095Y-94060714D01*
X109823333Y-94108333D01*
X109870952Y-94203571D01*
X109870952Y-94727380D01*
X109870952Y-94203571D02*
X109918571Y-94108333D01*
X110013809Y-94060714D01*
X110156666Y-94060714D01*
X110251904Y-94108333D01*
X110299523Y-94203571D01*
X110299523Y-94727380D01*
X111156666Y-94679761D02*
X111061428Y-94727380D01*
X110870952Y-94727380D01*
X110775714Y-94679761D01*
X110728095Y-94584523D01*
X110728095Y-94203571D01*
X110775714Y-94108333D01*
X110870952Y-94060714D01*
X111061428Y-94060714D01*
X111156666Y-94108333D01*
X111204285Y-94203571D01*
X111204285Y-94298809D01*
X110728095Y-94394047D01*
X112061428Y-94727380D02*
X112061428Y-94203571D01*
X112013809Y-94108333D01*
X111918571Y-94060714D01*
X111728095Y-94060714D01*
X111632857Y-94108333D01*
X112061428Y-94679761D02*
X111966190Y-94727380D01*
X111728095Y-94727380D01*
X111632857Y-94679761D01*
X111585238Y-94584523D01*
X111585238Y-94489285D01*
X111632857Y-94394047D01*
X111728095Y-94346428D01*
X111966190Y-94346428D01*
X112061428Y-94298809D01*
X112537619Y-94060714D02*
X112537619Y-94727380D01*
X112537619Y-94155952D02*
X112585238Y-94108333D01*
X112680476Y-94060714D01*
X112823333Y-94060714D01*
X112918571Y-94108333D01*
X112966190Y-94203571D01*
X112966190Y-94727380D01*
X113394761Y-94679761D02*
X113490000Y-94727380D01*
X113680476Y-94727380D01*
X113775714Y-94679761D01*
X113823333Y-94584523D01*
X113823333Y-94536904D01*
X113775714Y-94441666D01*
X113680476Y-94394047D01*
X113537619Y-94394047D01*
X113442380Y-94346428D01*
X113394761Y-94251190D01*
X113394761Y-94203571D01*
X113442380Y-94108333D01*
X113537619Y-94060714D01*
X113680476Y-94060714D01*
X113775714Y-94108333D01*
X114251904Y-94632142D02*
X114299523Y-94679761D01*
X114251904Y-94727380D01*
X114204285Y-94679761D01*
X114251904Y-94632142D01*
X114251904Y-94727380D01*
X114251904Y-94108333D02*
X114299523Y-94155952D01*
X114251904Y-94203571D01*
X114204285Y-94155952D01*
X114251904Y-94108333D01*
X114251904Y-94203571D01*
X103085238Y-95670714D02*
X103085238Y-96337380D01*
X102847142Y-95289761D02*
X102609047Y-96004047D01*
X103228095Y-96004047D01*
X104370952Y-95813571D02*
X104704285Y-95813571D01*
X104847142Y-96337380D02*
X104370952Y-96337380D01*
X104370952Y-95337380D01*
X104847142Y-95337380D01*
X105275714Y-96337380D02*
X105275714Y-95337380D01*
X105847142Y-96337380D01*
X105847142Y-95337380D01*
X106275714Y-96051666D02*
X106751904Y-96051666D01*
X106180476Y-96337380D02*
X106513809Y-95337380D01*
X106847142Y-96337380D01*
X107513809Y-95813571D02*
X107656666Y-95861190D01*
X107704285Y-95908809D01*
X107751904Y-96004047D01*
X107751904Y-96146904D01*
X107704285Y-96242142D01*
X107656666Y-96289761D01*
X107561428Y-96337380D01*
X107180476Y-96337380D01*
X107180476Y-95337380D01*
X107513809Y-95337380D01*
X107609047Y-95385000D01*
X107656666Y-95432619D01*
X107704285Y-95527857D01*
X107704285Y-95623095D01*
X107656666Y-95718333D01*
X107609047Y-95765952D01*
X107513809Y-95813571D01*
X107180476Y-95813571D01*
X108656666Y-96337380D02*
X108180476Y-96337380D01*
X108180476Y-95337380D01*
X108990000Y-95813571D02*
X109323333Y-95813571D01*
X109466190Y-96337380D02*
X108990000Y-96337380D01*
X108990000Y-95337380D01*
X109466190Y-95337380D01*
X110513809Y-95670714D02*
X110894761Y-95670714D01*
X110656666Y-95337380D02*
X110656666Y-96194523D01*
X110704285Y-96289761D01*
X110799523Y-96337380D01*
X110894761Y-96337380D01*
X111370952Y-96337380D02*
X111275714Y-96289761D01*
X111228095Y-96242142D01*
X111180476Y-96146904D01*
X111180476Y-95861190D01*
X111228095Y-95765952D01*
X111275714Y-95718333D01*
X111370952Y-95670714D01*
X111513809Y-95670714D01*
X111609047Y-95718333D01*
X111656666Y-95765952D01*
X111704285Y-95861190D01*
X111704285Y-96146904D01*
X111656666Y-96242142D01*
X111609047Y-96289761D01*
X111513809Y-96337380D01*
X111370952Y-96337380D01*
X113418571Y-96337380D02*
X112847142Y-96337380D01*
X113132857Y-96337380D02*
X113132857Y-95337380D01*
X113037619Y-95480238D01*
X112942380Y-95575476D01*
X112847142Y-95623095D01*
X114609047Y-96337380D02*
X114609047Y-95337380D01*
X114990000Y-95337380D01*
X115085238Y-95385000D01*
X115132857Y-95432619D01*
X115180476Y-95527857D01*
X115180476Y-95670714D01*
X115132857Y-95765952D01*
X115085238Y-95813571D01*
X114990000Y-95861190D01*
X114609047Y-95861190D01*
X116180476Y-96337380D02*
X115847142Y-95861190D01*
X115609047Y-96337380D02*
X115609047Y-95337380D01*
X115990000Y-95337380D01*
X116085238Y-95385000D01*
X116132857Y-95432619D01*
X116180476Y-95527857D01*
X116180476Y-95670714D01*
X116132857Y-95765952D01*
X116085238Y-95813571D01*
X115990000Y-95861190D01*
X115609047Y-95861190D01*
X116799523Y-95337380D02*
X116990000Y-95337380D01*
X117085238Y-95385000D01*
X117180476Y-95480238D01*
X117228095Y-95670714D01*
X117228095Y-96004047D01*
X117180476Y-96194523D01*
X117085238Y-96289761D01*
X116990000Y-96337380D01*
X116799523Y-96337380D01*
X116704285Y-96289761D01*
X116609047Y-96194523D01*
X116561428Y-96004047D01*
X116561428Y-95670714D01*
X116609047Y-95480238D01*
X116704285Y-95385000D01*
X116799523Y-95337380D01*
X117656666Y-96337380D02*
X117656666Y-95337380D01*
X117990000Y-96051666D01*
X118323333Y-95337380D01*
X118323333Y-96337380D01*
X103132857Y-96947380D02*
X102656666Y-96947380D01*
X102609047Y-97423571D01*
X102656666Y-97375952D01*
X102751904Y-97328333D01*
X102990000Y-97328333D01*
X103085238Y-97375952D01*
X103132857Y-97423571D01*
X103180476Y-97518809D01*
X103180476Y-97756904D01*
X103132857Y-97852142D01*
X103085238Y-97899761D01*
X102990000Y-97947380D01*
X102751904Y-97947380D01*
X102656666Y-97899761D01*
X102609047Y-97852142D01*
X104370952Y-97423571D02*
X104704285Y-97423571D01*
X104847142Y-97947380D02*
X104370952Y-97947380D01*
X104370952Y-96947380D01*
X104847142Y-96947380D01*
X105275714Y-97947380D02*
X105275714Y-96947380D01*
X105847142Y-97947380D01*
X105847142Y-96947380D01*
X106275714Y-97661666D02*
X106751904Y-97661666D01*
X106180476Y-97947380D02*
X106513809Y-96947380D01*
X106847142Y-97947380D01*
X107513809Y-97423571D02*
X107656666Y-97471190D01*
X107704285Y-97518809D01*
X107751904Y-97614047D01*
X107751904Y-97756904D01*
X107704285Y-97852142D01*
X107656666Y-97899761D01*
X107561428Y-97947380D01*
X107180476Y-97947380D01*
X107180476Y-96947380D01*
X107513809Y-96947380D01*
X107609047Y-96995000D01*
X107656666Y-97042619D01*
X107704285Y-97137857D01*
X107704285Y-97233095D01*
X107656666Y-97328333D01*
X107609047Y-97375952D01*
X107513809Y-97423571D01*
X107180476Y-97423571D01*
X108656666Y-97947380D02*
X108180476Y-97947380D01*
X108180476Y-96947380D01*
X108990000Y-97423571D02*
X109323333Y-97423571D01*
X109466190Y-97947380D02*
X108990000Y-97947380D01*
X108990000Y-96947380D01*
X109466190Y-96947380D01*
X110513809Y-97280714D02*
X110894761Y-97280714D01*
X110656666Y-96947380D02*
X110656666Y-97804523D01*
X110704285Y-97899761D01*
X110799523Y-97947380D01*
X110894761Y-97947380D01*
X111370952Y-97947380D02*
X111275714Y-97899761D01*
X111228095Y-97852142D01*
X111180476Y-97756904D01*
X111180476Y-97471190D01*
X111228095Y-97375952D01*
X111275714Y-97328333D01*
X111370952Y-97280714D01*
X111513809Y-97280714D01*
X111609047Y-97328333D01*
X111656666Y-97375952D01*
X111704285Y-97471190D01*
X111704285Y-97756904D01*
X111656666Y-97852142D01*
X111609047Y-97899761D01*
X111513809Y-97947380D01*
X111370952Y-97947380D01*
X112847142Y-97042619D02*
X112894761Y-96995000D01*
X112990000Y-96947380D01*
X113228095Y-96947380D01*
X113323333Y-96995000D01*
X113370952Y-97042619D01*
X113418571Y-97137857D01*
X113418571Y-97233095D01*
X113370952Y-97375952D01*
X112799523Y-97947380D01*
X113418571Y-97947380D01*
X114609047Y-97947380D02*
X114609047Y-96947380D01*
X114990000Y-96947380D01*
X115085238Y-96995000D01*
X115132857Y-97042619D01*
X115180476Y-97137857D01*
X115180476Y-97280714D01*
X115132857Y-97375952D01*
X115085238Y-97423571D01*
X114990000Y-97471190D01*
X114609047Y-97471190D01*
X116180476Y-97947380D02*
X115847142Y-97471190D01*
X115609047Y-97947380D02*
X115609047Y-96947380D01*
X115990000Y-96947380D01*
X116085238Y-96995000D01*
X116132857Y-97042619D01*
X116180476Y-97137857D01*
X116180476Y-97280714D01*
X116132857Y-97375952D01*
X116085238Y-97423571D01*
X115990000Y-97471190D01*
X115609047Y-97471190D01*
X116799523Y-96947380D02*
X116990000Y-96947380D01*
X117085238Y-96995000D01*
X117180476Y-97090238D01*
X117228095Y-97280714D01*
X117228095Y-97614047D01*
X117180476Y-97804523D01*
X117085238Y-97899761D01*
X116990000Y-97947380D01*
X116799523Y-97947380D01*
X116704285Y-97899761D01*
X116609047Y-97804523D01*
X116561428Y-97614047D01*
X116561428Y-97280714D01*
X116609047Y-97090238D01*
X116704285Y-96995000D01*
X116799523Y-96947380D01*
X117656666Y-97947380D02*
X117656666Y-96947380D01*
X117990000Y-97661666D01*
X118323333Y-96947380D01*
X118323333Y-97947380D01*
X162696428Y-133754761D02*
X162601190Y-133802380D01*
X162410714Y-133802380D01*
X162315476Y-133754761D01*
X162267857Y-133707142D01*
X162220238Y-133611904D01*
X162220238Y-133326190D01*
X162267857Y-133230952D01*
X162315476Y-133183333D01*
X162410714Y-133135714D01*
X162601190Y-133135714D01*
X162696428Y-133183333D01*
X163553571Y-133135714D02*
X163553571Y-133802380D01*
X163125000Y-133135714D02*
X163125000Y-133659523D01*
X163172619Y-133754761D01*
X163267857Y-133802380D01*
X163410714Y-133802380D01*
X163505952Y-133754761D01*
X163553571Y-133707142D01*
X163886904Y-133135714D02*
X164267857Y-133135714D01*
X164029761Y-132802380D02*
X164029761Y-133659523D01*
X164077380Y-133754761D01*
X164172619Y-133802380D01*
X164267857Y-133802380D01*
X165220238Y-133135714D02*
X165601190Y-133135714D01*
X165363095Y-132802380D02*
X165363095Y-133659523D01*
X165410714Y-133754761D01*
X165505952Y-133802380D01*
X165601190Y-133802380D01*
X166077380Y-133802380D02*
X165982142Y-133754761D01*
X165934523Y-133707142D01*
X165886904Y-133611904D01*
X165886904Y-133326190D01*
X165934523Y-133230952D01*
X165982142Y-133183333D01*
X166077380Y-133135714D01*
X166220238Y-133135714D01*
X166315476Y-133183333D01*
X166363095Y-133230952D01*
X166410714Y-133326190D01*
X166410714Y-133611904D01*
X166363095Y-133707142D01*
X166315476Y-133754761D01*
X166220238Y-133802380D01*
X166077380Y-133802380D01*
X167553571Y-133754761D02*
X167648809Y-133802380D01*
X167839285Y-133802380D01*
X167934523Y-133754761D01*
X167982142Y-133659523D01*
X167982142Y-133611904D01*
X167934523Y-133516666D01*
X167839285Y-133469047D01*
X167696428Y-133469047D01*
X167601190Y-133421428D01*
X167553571Y-133326190D01*
X167553571Y-133278571D01*
X167601190Y-133183333D01*
X167696428Y-133135714D01*
X167839285Y-133135714D01*
X167934523Y-133183333D01*
X168791666Y-133754761D02*
X168696428Y-133802380D01*
X168505952Y-133802380D01*
X168410714Y-133754761D01*
X168363095Y-133659523D01*
X168363095Y-133278571D01*
X168410714Y-133183333D01*
X168505952Y-133135714D01*
X168696428Y-133135714D01*
X168791666Y-133183333D01*
X168839285Y-133278571D01*
X168839285Y-133373809D01*
X168363095Y-133469047D01*
X169267857Y-133135714D02*
X169267857Y-134135714D01*
X169267857Y-133183333D02*
X169363095Y-133135714D01*
X169553571Y-133135714D01*
X169648809Y-133183333D01*
X169696428Y-133230952D01*
X169744047Y-133326190D01*
X169744047Y-133611904D01*
X169696428Y-133707142D01*
X169648809Y-133754761D01*
X169553571Y-133802380D01*
X169363095Y-133802380D01*
X169267857Y-133754761D01*
X170601190Y-133802380D02*
X170601190Y-133278571D01*
X170553571Y-133183333D01*
X170458333Y-133135714D01*
X170267857Y-133135714D01*
X170172619Y-133183333D01*
X170601190Y-133754761D02*
X170505952Y-133802380D01*
X170267857Y-133802380D01*
X170172619Y-133754761D01*
X170125000Y-133659523D01*
X170125000Y-133564285D01*
X170172619Y-133469047D01*
X170267857Y-133421428D01*
X170505952Y-133421428D01*
X170601190Y-133373809D01*
X171077380Y-133802380D02*
X171077380Y-133135714D01*
X171077380Y-133326190D02*
X171125000Y-133230952D01*
X171172619Y-133183333D01*
X171267857Y-133135714D01*
X171363095Y-133135714D01*
X172125000Y-133802380D02*
X172125000Y-133278571D01*
X172077380Y-133183333D01*
X171982142Y-133135714D01*
X171791666Y-133135714D01*
X171696428Y-133183333D01*
X172125000Y-133754761D02*
X172029761Y-133802380D01*
X171791666Y-133802380D01*
X171696428Y-133754761D01*
X171648809Y-133659523D01*
X171648809Y-133564285D01*
X171696428Y-133469047D01*
X171791666Y-133421428D01*
X172029761Y-133421428D01*
X172125000Y-133373809D01*
X172458333Y-133135714D02*
X172839285Y-133135714D01*
X172601190Y-132802380D02*
X172601190Y-133659523D01*
X172648809Y-133754761D01*
X172744047Y-133802380D01*
X172839285Y-133802380D01*
X173553571Y-133754761D02*
X173458333Y-133802380D01*
X173267857Y-133802380D01*
X173172619Y-133754761D01*
X173125000Y-133659523D01*
X173125000Y-133278571D01*
X173172619Y-133183333D01*
X173267857Y-133135714D01*
X173458333Y-133135714D01*
X173553571Y-133183333D01*
X173601190Y-133278571D01*
X173601190Y-133373809D01*
X173125000Y-133469047D01*
X174696428Y-132802380D02*
X174934523Y-133802380D01*
X175125000Y-133088095D01*
X175315476Y-133802380D01*
X175553571Y-132802380D01*
X176505952Y-133802380D02*
X176172619Y-133326190D01*
X175934523Y-133802380D02*
X175934523Y-132802380D01*
X176315476Y-132802380D01*
X176410714Y-132850000D01*
X176458333Y-132897619D01*
X176505952Y-132992857D01*
X176505952Y-133135714D01*
X176458333Y-133230952D01*
X176410714Y-133278571D01*
X176315476Y-133326190D01*
X175934523Y-133326190D01*
X177553571Y-133135714D02*
X177934523Y-133135714D01*
X177696428Y-133802380D02*
X177696428Y-132945238D01*
X177744047Y-132850000D01*
X177839285Y-132802380D01*
X177934523Y-132802380D01*
X178410714Y-133802380D02*
X178315476Y-133754761D01*
X178267857Y-133707142D01*
X178220238Y-133611904D01*
X178220238Y-133326190D01*
X178267857Y-133230952D01*
X178315476Y-133183333D01*
X178410714Y-133135714D01*
X178553571Y-133135714D01*
X178648809Y-133183333D01*
X178696428Y-133230952D01*
X178744047Y-133326190D01*
X178744047Y-133611904D01*
X178696428Y-133707142D01*
X178648809Y-133754761D01*
X178553571Y-133802380D01*
X178410714Y-133802380D01*
X179172619Y-133802380D02*
X179172619Y-133135714D01*
X179172619Y-133326190D02*
X179220238Y-133230952D01*
X179267857Y-133183333D01*
X179363095Y-133135714D01*
X179458333Y-133135714D01*
X181125000Y-133802380D02*
X180791666Y-133326190D01*
X180553571Y-133802380D02*
X180553571Y-132802380D01*
X180934523Y-132802380D01*
X181029761Y-132850000D01*
X181077380Y-132897619D01*
X181125000Y-132992857D01*
X181125000Y-133135714D01*
X181077380Y-133230952D01*
X181029761Y-133278571D01*
X180934523Y-133326190D01*
X180553571Y-133326190D01*
X181505952Y-133516666D02*
X181982142Y-133516666D01*
X181410714Y-133802380D02*
X181744047Y-132802380D01*
X182077380Y-133802380D01*
X182410714Y-133802380D02*
X182410714Y-132802380D01*
X182744047Y-133516666D01*
X183077380Y-132802380D01*
X183077380Y-133802380D01*
X184315476Y-133802380D02*
X184315476Y-133135714D01*
X184315476Y-133230952D02*
X184363095Y-133183333D01*
X184458333Y-133135714D01*
X184601190Y-133135714D01*
X184696428Y-133183333D01*
X184744047Y-133278571D01*
X184744047Y-133802380D01*
X184744047Y-133278571D02*
X184791666Y-133183333D01*
X184886904Y-133135714D01*
X185029761Y-133135714D01*
X185125000Y-133183333D01*
X185172619Y-133278571D01*
X185172619Y-133802380D01*
X185791666Y-133802380D02*
X185696428Y-133754761D01*
X185648809Y-133707142D01*
X185601190Y-133611904D01*
X185601190Y-133326190D01*
X185648809Y-133230952D01*
X185696428Y-133183333D01*
X185791666Y-133135714D01*
X185934523Y-133135714D01*
X186029761Y-133183333D01*
X186077380Y-133230952D01*
X186125000Y-133326190D01*
X186125000Y-133611904D01*
X186077380Y-133707142D01*
X186029761Y-133754761D01*
X185934523Y-133802380D01*
X185791666Y-133802380D01*
X186982142Y-133802380D02*
X186982142Y-132802380D01*
X186982142Y-133754761D02*
X186886904Y-133802380D01*
X186696428Y-133802380D01*
X186601190Y-133754761D01*
X186553571Y-133707142D01*
X186505952Y-133611904D01*
X186505952Y-133326190D01*
X186553571Y-133230952D01*
X186601190Y-133183333D01*
X186696428Y-133135714D01*
X186886904Y-133135714D01*
X186982142Y-133183333D01*
D11*
X139801666Y-122238333D02*
X139835000Y-122205000D01*
X139901666Y-122171666D01*
X140068333Y-122171666D01*
X140135000Y-122205000D01*
X140168333Y-122238333D01*
X140201666Y-122305000D01*
X140201666Y-122371666D01*
X140168333Y-122471666D01*
X139768333Y-122871666D01*
X140201666Y-122871666D01*
X140635000Y-122171666D02*
X140701666Y-122171666D01*
X140768333Y-122205000D01*
X140801666Y-122238333D01*
X140835000Y-122305000D01*
X140868333Y-122438333D01*
X140868333Y-122605000D01*
X140835000Y-122738333D01*
X140801666Y-122805000D01*
X140768333Y-122838333D01*
X140701666Y-122871666D01*
X140635000Y-122871666D01*
X140568333Y-122838333D01*
X140535000Y-122805000D01*
X140501666Y-122738333D01*
X140468333Y-122605000D01*
X140468333Y-122438333D01*
X140501666Y-122305000D01*
X140535000Y-122238333D01*
X140568333Y-122205000D01*
X140635000Y-122171666D01*
X136861666Y-126415000D02*
X137395000Y-126415000D01*
X137128333Y-126681666D02*
X137128333Y-126148333D01*
X138095000Y-126681666D02*
X137695000Y-126681666D01*
X137895000Y-126681666D02*
X137895000Y-125981666D01*
X137828333Y-126081666D01*
X137761666Y-126148333D01*
X137695000Y-126181666D01*
X138361666Y-126048333D02*
X138395000Y-126015000D01*
X138461666Y-125981666D01*
X138628333Y-125981666D01*
X138695000Y-126015000D01*
X138728333Y-126048333D01*
X138761666Y-126115000D01*
X138761666Y-126181666D01*
X138728333Y-126281666D01*
X138328333Y-126681666D01*
X138761666Y-126681666D01*
X157816666Y-126415000D02*
X158350000Y-126415000D01*
X158083333Y-126681666D02*
X158083333Y-126148333D01*
X159050000Y-126681666D02*
X158650000Y-126681666D01*
X158850000Y-126681666D02*
X158850000Y-125981666D01*
X158783333Y-126081666D01*
X158716666Y-126148333D01*
X158650000Y-126181666D01*
X159316666Y-126048333D02*
X159350000Y-126015000D01*
X159416666Y-125981666D01*
X159583333Y-125981666D01*
X159650000Y-126015000D01*
X159683333Y-126048333D01*
X159716666Y-126115000D01*
X159716666Y-126181666D01*
X159683333Y-126281666D01*
X159283333Y-126681666D01*
X159716666Y-126681666D01*
X163296666Y-119063333D02*
X163330000Y-119030000D01*
X163396666Y-118996666D01*
X163563333Y-118996666D01*
X163630000Y-119030000D01*
X163663333Y-119063333D01*
X163696666Y-119130000D01*
X163696666Y-119196666D01*
X163663333Y-119296666D01*
X163263333Y-119696666D01*
X163696666Y-119696666D01*
X164363333Y-119696666D02*
X163963333Y-119696666D01*
X164163333Y-119696666D02*
X164163333Y-118996666D01*
X164096666Y-119096666D01*
X164030000Y-119163333D01*
X163963333Y-119196666D01*
D10*
X156646666Y-128627142D02*
X156599047Y-128674761D01*
X156456190Y-128722380D01*
X156360952Y-128722380D01*
X156218095Y-128674761D01*
X156122857Y-128579523D01*
X156075238Y-128484285D01*
X156027619Y-128293809D01*
X156027619Y-128150952D01*
X156075238Y-127960476D01*
X156122857Y-127865238D01*
X156218095Y-127770000D01*
X156360952Y-127722380D01*
X156456190Y-127722380D01*
X156599047Y-127770000D01*
X156646666Y-127817619D01*
X157075238Y-128722380D02*
X157075238Y-127722380D01*
X157503809Y-128722380D02*
X157503809Y-128198571D01*
X157456190Y-128103333D01*
X157360952Y-128055714D01*
X157218095Y-128055714D01*
X157122857Y-128103333D01*
X157075238Y-128150952D01*
X157980000Y-128722380D02*
X157980000Y-128055714D01*
X157980000Y-127722380D02*
X157932380Y-127770000D01*
X157980000Y-127817619D01*
X158027619Y-127770000D01*
X157980000Y-127722380D01*
X157980000Y-127817619D01*
X158456190Y-128055714D02*
X158456190Y-129055714D01*
X158456190Y-128103333D02*
X158551428Y-128055714D01*
X158741904Y-128055714D01*
X158837142Y-128103333D01*
X158884761Y-128150952D01*
X158932380Y-128246190D01*
X158932380Y-128531904D01*
X158884761Y-128627142D01*
X158837142Y-128674761D01*
X158741904Y-128722380D01*
X158551428Y-128722380D01*
X158456190Y-128674761D01*
D11*
X170865000Y-72340000D02*
X170965000Y-72373333D01*
X170998333Y-72406666D01*
X171031666Y-72473333D01*
X171031666Y-72573333D01*
X170998333Y-72640000D01*
X170965000Y-72673333D01*
X170898333Y-72706666D01*
X170631666Y-72706666D01*
X170631666Y-72006666D01*
X170865000Y-72006666D01*
X170931666Y-72040000D01*
X170965000Y-72073333D01*
X170998333Y-72140000D01*
X170998333Y-72206666D01*
X170965000Y-72273333D01*
X170931666Y-72306666D01*
X170865000Y-72340000D01*
X170631666Y-72340000D01*
X117025000Y-116490000D02*
X116958333Y-116456666D01*
X116858333Y-116456666D01*
X116758333Y-116490000D01*
X116691666Y-116556666D01*
X116658333Y-116623333D01*
X116625000Y-116756666D01*
X116625000Y-116856666D01*
X116658333Y-116990000D01*
X116691666Y-117056666D01*
X116758333Y-117123333D01*
X116858333Y-117156666D01*
X116925000Y-117156666D01*
X117025000Y-117123333D01*
X117058333Y-117090000D01*
X117058333Y-116856666D01*
X116925000Y-116856666D01*
X117358333Y-116690000D02*
X117358333Y-117156666D01*
X117358333Y-116756666D02*
X117391666Y-116723333D01*
X117458333Y-116690000D01*
X117558333Y-116690000D01*
X117625000Y-116723333D01*
X117658333Y-116790000D01*
X117658333Y-117156666D01*
X118291666Y-117156666D02*
X118291666Y-116456666D01*
X118291666Y-117123333D02*
X118225000Y-117156666D01*
X118091666Y-117156666D01*
X118025000Y-117123333D01*
X117991666Y-117090000D01*
X117958333Y-117023333D01*
X117958333Y-116823333D01*
X117991666Y-116756666D01*
X118025000Y-116723333D01*
X118091666Y-116690000D01*
X118225000Y-116690000D01*
X118291666Y-116723333D01*
D10*
X126445238Y-95532380D02*
X126445238Y-94532380D01*
X127016666Y-95532380D01*
X127016666Y-94532380D01*
X127873809Y-95484761D02*
X127778571Y-95532380D01*
X127588095Y-95532380D01*
X127492857Y-95484761D01*
X127445238Y-95389523D01*
X127445238Y-95008571D01*
X127492857Y-94913333D01*
X127588095Y-94865714D01*
X127778571Y-94865714D01*
X127873809Y-94913333D01*
X127921428Y-95008571D01*
X127921428Y-95103809D01*
X127445238Y-95199047D01*
X128350000Y-95532380D02*
X128350000Y-94865714D01*
X128350000Y-94532380D02*
X128302380Y-94580000D01*
X128350000Y-94627619D01*
X128397619Y-94580000D01*
X128350000Y-94532380D01*
X128350000Y-94627619D01*
X128683333Y-94865714D02*
X129064285Y-94865714D01*
X128826190Y-94532380D02*
X128826190Y-95389523D01*
X128873809Y-95484761D01*
X128969047Y-95532380D01*
X129064285Y-95532380D01*
X129397619Y-95532380D02*
X129397619Y-94532380D01*
X129826190Y-95532380D02*
X129826190Y-95008571D01*
X129778571Y-94913333D01*
X129683333Y-94865714D01*
X129540476Y-94865714D01*
X129445238Y-94913333D01*
X129397619Y-94960952D01*
X130683333Y-95484761D02*
X130588095Y-95532380D01*
X130397619Y-95532380D01*
X130302380Y-95484761D01*
X130254761Y-95389523D01*
X130254761Y-95008571D01*
X130302380Y-94913333D01*
X130397619Y-94865714D01*
X130588095Y-94865714D01*
X130683333Y-94913333D01*
X130730952Y-95008571D01*
X130730952Y-95103809D01*
X130254761Y-95199047D01*
X131159523Y-95532380D02*
X131159523Y-94865714D01*
X131159523Y-95056190D02*
X131207142Y-94960952D01*
X131254761Y-94913333D01*
X131350000Y-94865714D01*
X131445238Y-94865714D01*
X133016666Y-94532380D02*
X132540476Y-94532380D01*
X132492857Y-95008571D01*
X132540476Y-94960952D01*
X132635714Y-94913333D01*
X132873809Y-94913333D01*
X132969047Y-94960952D01*
X133016666Y-95008571D01*
X133064285Y-95103809D01*
X133064285Y-95341904D01*
X133016666Y-95437142D01*
X132969047Y-95484761D01*
X132873809Y-95532380D01*
X132635714Y-95532380D01*
X132540476Y-95484761D01*
X132492857Y-95437142D01*
X133445238Y-95246666D02*
X133921428Y-95246666D01*
X133350000Y-95532380D02*
X133683333Y-94532380D01*
X134016666Y-95532380D01*
X135111904Y-94865714D02*
X135111904Y-95532380D01*
X135111904Y-94960952D02*
X135159523Y-94913333D01*
X135254761Y-94865714D01*
X135397619Y-94865714D01*
X135492857Y-94913333D01*
X135540476Y-95008571D01*
X135540476Y-95532380D01*
X136159523Y-95532380D02*
X136064285Y-95484761D01*
X136016666Y-95437142D01*
X135969047Y-95341904D01*
X135969047Y-95056190D01*
X136016666Y-94960952D01*
X136064285Y-94913333D01*
X136159523Y-94865714D01*
X136302380Y-94865714D01*
X136397619Y-94913333D01*
X136445238Y-94960952D01*
X136492857Y-95056190D01*
X136492857Y-95341904D01*
X136445238Y-95437142D01*
X136397619Y-95484761D01*
X136302380Y-95532380D01*
X136159523Y-95532380D01*
X136921428Y-95532380D02*
X136921428Y-94865714D01*
X136921428Y-95056190D02*
X136969047Y-94960952D01*
X137016666Y-94913333D01*
X137111904Y-94865714D01*
X137207142Y-94865714D01*
X138778571Y-94532380D02*
X138302380Y-94532380D01*
X138254761Y-95008571D01*
X138302380Y-94960952D01*
X138397619Y-94913333D01*
X138635714Y-94913333D01*
X138730952Y-94960952D01*
X138778571Y-95008571D01*
X138826190Y-95103809D01*
X138826190Y-95341904D01*
X138778571Y-95437142D01*
X138730952Y-95484761D01*
X138635714Y-95532380D01*
X138397619Y-95532380D01*
X138302380Y-95484761D01*
X138254761Y-95437142D01*
X139588095Y-95008571D02*
X139730952Y-95056190D01*
X139778571Y-95103809D01*
X139826190Y-95199047D01*
X139826190Y-95341904D01*
X139778571Y-95437142D01*
X139730952Y-95484761D01*
X139635714Y-95532380D01*
X139254761Y-95532380D01*
X139254761Y-94532380D01*
X139588095Y-94532380D01*
X139683333Y-94580000D01*
X139730952Y-94627619D01*
X139778571Y-94722857D01*
X139778571Y-94818095D01*
X139730952Y-94913333D01*
X139683333Y-94960952D01*
X139588095Y-95008571D01*
X139254761Y-95008571D01*
X140254761Y-95437142D02*
X140302380Y-95484761D01*
X140254761Y-95532380D01*
X140207142Y-95484761D01*
X140254761Y-95437142D01*
X140254761Y-95532380D01*
X140254761Y-94913333D02*
X140302380Y-94960952D01*
X140254761Y-95008571D01*
X140207142Y-94960952D01*
X140254761Y-94913333D01*
X140254761Y-95008571D01*
X126540476Y-96475714D02*
X126540476Y-97475714D01*
X126540476Y-96523333D02*
X126635714Y-96475714D01*
X126826190Y-96475714D01*
X126921428Y-96523333D01*
X126969047Y-96570952D01*
X127016666Y-96666190D01*
X127016666Y-96951904D01*
X126969047Y-97047142D01*
X126921428Y-97094761D01*
X126826190Y-97142380D01*
X126635714Y-97142380D01*
X126540476Y-97094761D01*
X127873809Y-96475714D02*
X127873809Y-97142380D01*
X127445238Y-96475714D02*
X127445238Y-96999523D01*
X127492857Y-97094761D01*
X127588095Y-97142380D01*
X127730952Y-97142380D01*
X127826190Y-97094761D01*
X127873809Y-97047142D01*
X128492857Y-97142380D02*
X128397619Y-97094761D01*
X128350000Y-96999523D01*
X128350000Y-96142380D01*
X129016666Y-97142380D02*
X128921428Y-97094761D01*
X128873809Y-96999523D01*
X128873809Y-96142380D01*
X130588095Y-96475714D02*
X130588095Y-97142380D01*
X130159523Y-96475714D02*
X130159523Y-96999523D01*
X130207142Y-97094761D01*
X130302380Y-97142380D01*
X130445238Y-97142380D01*
X130540476Y-97094761D01*
X130588095Y-97047142D01*
X131064285Y-96475714D02*
X131064285Y-97475714D01*
X131064285Y-96523333D02*
X131159523Y-96475714D01*
X131350000Y-96475714D01*
X131445238Y-96523333D01*
X131492857Y-96570952D01*
X131540476Y-96666190D01*
X131540476Y-96951904D01*
X131492857Y-97047142D01*
X131445238Y-97094761D01*
X131350000Y-97142380D01*
X131159523Y-97142380D01*
X131064285Y-97094761D01*
X132921428Y-96142380D02*
X133016666Y-96142380D01*
X133111904Y-96190000D01*
X133159523Y-96237619D01*
X133207142Y-96332857D01*
X133254761Y-96523333D01*
X133254761Y-96761428D01*
X133207142Y-96951904D01*
X133159523Y-97047142D01*
X133111904Y-97094761D01*
X133016666Y-97142380D01*
X132921428Y-97142380D01*
X132826190Y-97094761D01*
X132778571Y-97047142D01*
X132730952Y-96951904D01*
X132683333Y-96761428D01*
X132683333Y-96523333D01*
X132730952Y-96332857D01*
X132778571Y-96237619D01*
X132826190Y-96190000D01*
X132921428Y-96142380D01*
X134397619Y-96094761D02*
X133540476Y-97380476D01*
X135254761Y-97142380D02*
X134683333Y-97142380D01*
X134969047Y-97142380D02*
X134969047Y-96142380D01*
X134873809Y-96285238D01*
X134778571Y-96380476D01*
X134683333Y-96428095D01*
X136445238Y-97142380D02*
X136445238Y-96142380D01*
X136826190Y-96142380D01*
X136921428Y-96190000D01*
X136969047Y-96237619D01*
X137016666Y-96332857D01*
X137016666Y-96475714D01*
X136969047Y-96570952D01*
X136921428Y-96618571D01*
X136826190Y-96666190D01*
X136445238Y-96666190D01*
X138016666Y-97142380D02*
X137683333Y-96666190D01*
X137445238Y-97142380D02*
X137445238Y-96142380D01*
X137826190Y-96142380D01*
X137921428Y-96190000D01*
X137969047Y-96237619D01*
X138016666Y-96332857D01*
X138016666Y-96475714D01*
X137969047Y-96570952D01*
X137921428Y-96618571D01*
X137826190Y-96666190D01*
X137445238Y-96666190D01*
X138635714Y-96142380D02*
X138826190Y-96142380D01*
X138921428Y-96190000D01*
X139016666Y-96285238D01*
X139064285Y-96475714D01*
X139064285Y-96809047D01*
X139016666Y-96999523D01*
X138921428Y-97094761D01*
X138826190Y-97142380D01*
X138635714Y-97142380D01*
X138540476Y-97094761D01*
X138445238Y-96999523D01*
X138397619Y-96809047D01*
X138397619Y-96475714D01*
X138445238Y-96285238D01*
X138540476Y-96190000D01*
X138635714Y-96142380D01*
X139492857Y-97142380D02*
X139492857Y-96142380D01*
X139826190Y-96856666D01*
X140159523Y-96142380D01*
X140159523Y-97142380D01*
D11*
X144815000Y-126415000D02*
X145348333Y-126415000D01*
X145081666Y-126681666D02*
X145081666Y-126148333D01*
X146015000Y-125981666D02*
X145681666Y-125981666D01*
X145648333Y-126315000D01*
X145681666Y-126281666D01*
X145748333Y-126248333D01*
X145915000Y-126248333D01*
X145981666Y-126281666D01*
X146015000Y-126315000D01*
X146048333Y-126381666D01*
X146048333Y-126548333D01*
X146015000Y-126615000D01*
X145981666Y-126648333D01*
X145915000Y-126681666D01*
X145748333Y-126681666D01*
X145681666Y-126648333D01*
X145648333Y-126615000D01*
X163028333Y-72506666D02*
X163361666Y-72506666D01*
X162961666Y-72706666D02*
X163195000Y-72006666D01*
X163428333Y-72706666D01*
X141286666Y-132445000D02*
X141286666Y-132845000D01*
X141286666Y-132645000D02*
X140586666Y-132645000D01*
X140686666Y-132711666D01*
X140753333Y-132778333D01*
X140786666Y-132845000D01*
X141353333Y-132311666D02*
X141353333Y-131778333D01*
X141253333Y-131345000D02*
X141286666Y-131411666D01*
X141286666Y-131545000D01*
X141253333Y-131611666D01*
X141186666Y-131645000D01*
X140920000Y-131645000D01*
X140853333Y-131611666D01*
X140820000Y-131545000D01*
X140820000Y-131411666D01*
X140853333Y-131345000D01*
X140920000Y-131311666D01*
X140986666Y-131311666D01*
X141053333Y-131645000D01*
X140820000Y-131011666D02*
X141286666Y-131011666D01*
X140886666Y-131011666D02*
X140853333Y-130978333D01*
X140820000Y-130911666D01*
X140820000Y-130811666D01*
X140853333Y-130745000D01*
X140920000Y-130711666D01*
X141286666Y-130711666D01*
X141286666Y-130078333D02*
X140920000Y-130078333D01*
X140853333Y-130111666D01*
X140820000Y-130178333D01*
X140820000Y-130311666D01*
X140853333Y-130378333D01*
X141253333Y-130078333D02*
X141286666Y-130145000D01*
X141286666Y-130311666D01*
X141253333Y-130378333D01*
X141186666Y-130411666D01*
X141120000Y-130411666D01*
X141053333Y-130378333D01*
X141020000Y-130311666D01*
X141020000Y-130145000D01*
X140986666Y-130078333D01*
X118846666Y-120968333D02*
X118880000Y-120935000D01*
X118946666Y-120901666D01*
X119113333Y-120901666D01*
X119180000Y-120935000D01*
X119213333Y-120968333D01*
X119246666Y-121035000D01*
X119246666Y-121101666D01*
X119213333Y-121201666D01*
X118813333Y-121601666D01*
X119246666Y-121601666D01*
X119913333Y-121601666D02*
X119513333Y-121601666D01*
X119713333Y-121601666D02*
X119713333Y-120901666D01*
X119646666Y-121001666D01*
X119580000Y-121068333D01*
X119513333Y-121101666D01*
X116541666Y-126415000D02*
X117075000Y-126415000D01*
X116808333Y-126681666D02*
X116808333Y-126148333D01*
X117775000Y-126681666D02*
X117375000Y-126681666D01*
X117575000Y-126681666D02*
X117575000Y-125981666D01*
X117508333Y-126081666D01*
X117441666Y-126148333D01*
X117375000Y-126181666D01*
X118041666Y-126048333D02*
X118075000Y-126015000D01*
X118141666Y-125981666D01*
X118308333Y-125981666D01*
X118375000Y-126015000D01*
X118408333Y-126048333D01*
X118441666Y-126115000D01*
X118441666Y-126181666D01*
X118408333Y-126281666D01*
X118008333Y-126681666D01*
X118441666Y-126681666D01*
X137661666Y-122871666D02*
X137261666Y-122871666D01*
X137461666Y-122871666D02*
X137461666Y-122171666D01*
X137395000Y-122271666D01*
X137328333Y-122338333D01*
X137261666Y-122371666D01*
X137995000Y-122871666D02*
X138128333Y-122871666D01*
X138195000Y-122838333D01*
X138228333Y-122805000D01*
X138295000Y-122705000D01*
X138328333Y-122571666D01*
X138328333Y-122305000D01*
X138295000Y-122238333D01*
X138261666Y-122205000D01*
X138195000Y-122171666D01*
X138061666Y-122171666D01*
X137995000Y-122205000D01*
X137961666Y-122238333D01*
X137928333Y-122305000D01*
X137928333Y-122471666D01*
X137961666Y-122538333D01*
X137995000Y-122571666D01*
X138061666Y-122605000D01*
X138195000Y-122605000D01*
X138261666Y-122571666D01*
X138295000Y-122538333D01*
X138328333Y-122471666D01*
X97256666Y-122238333D02*
X97290000Y-122205000D01*
X97356666Y-122171666D01*
X97523333Y-122171666D01*
X97590000Y-122205000D01*
X97623333Y-122238333D01*
X97656666Y-122305000D01*
X97656666Y-122371666D01*
X97623333Y-122471666D01*
X97223333Y-122871666D01*
X97656666Y-122871666D01*
X98323333Y-122871666D02*
X97923333Y-122871666D01*
X98123333Y-122871666D02*
X98123333Y-122171666D01*
X98056666Y-122271666D01*
X97990000Y-122338333D01*
X97923333Y-122371666D01*
X154621666Y-140981666D02*
X154288333Y-141215000D01*
X154621666Y-141381666D02*
X153921666Y-141381666D01*
X153921666Y-141115000D01*
X153955000Y-141048333D01*
X153988333Y-141015000D01*
X154055000Y-140981666D01*
X154155000Y-140981666D01*
X154221666Y-141015000D01*
X154255000Y-141048333D01*
X154288333Y-141115000D01*
X154288333Y-141381666D01*
X153921666Y-140548333D02*
X153921666Y-140415000D01*
X153955000Y-140348333D01*
X154021666Y-140281666D01*
X154155000Y-140248333D01*
X154388333Y-140248333D01*
X154521666Y-140281666D01*
X154588333Y-140348333D01*
X154621666Y-140415000D01*
X154621666Y-140548333D01*
X154588333Y-140615000D01*
X154521666Y-140681666D01*
X154388333Y-140715000D01*
X154155000Y-140715000D01*
X154021666Y-140681666D01*
X153955000Y-140615000D01*
X153921666Y-140548333D01*
X154621666Y-139948333D02*
X153921666Y-139948333D01*
X154421666Y-139715000D01*
X153921666Y-139481666D01*
X154621666Y-139481666D01*
X154621666Y-138748333D02*
X154288333Y-138981666D01*
X154621666Y-139148333D02*
X153921666Y-139148333D01*
X153921666Y-138881666D01*
X153955000Y-138815000D01*
X153988333Y-138781666D01*
X154055000Y-138748333D01*
X154155000Y-138748333D01*
X154221666Y-138781666D01*
X154255000Y-138815000D01*
X154288333Y-138881666D01*
X154288333Y-139148333D01*
X154621666Y-138448333D02*
X153921666Y-138448333D01*
X153921666Y-138281666D01*
X153955000Y-138181666D01*
X154021666Y-138115000D01*
X154088333Y-138081666D01*
X154221666Y-138048333D01*
X154321666Y-138048333D01*
X154455000Y-138081666D01*
X154521666Y-138115000D01*
X154588333Y-138181666D01*
X154621666Y-138281666D01*
X154621666Y-138448333D01*
X154621666Y-137381666D02*
X154621666Y-137781666D01*
X154621666Y-137581666D02*
X153921666Y-137581666D01*
X154021666Y-137648333D01*
X154088333Y-137715000D01*
X154121666Y-137781666D01*
X153921666Y-136748333D02*
X153921666Y-137081666D01*
X154255000Y-137115000D01*
X154221666Y-137081666D01*
X154188333Y-137015000D01*
X154188333Y-136848333D01*
X154221666Y-136781666D01*
X154255000Y-136748333D01*
X154321666Y-136715000D01*
X154488333Y-136715000D01*
X154555000Y-136748333D01*
X154588333Y-136781666D01*
X154621666Y-136848333D01*
X154621666Y-137015000D01*
X154588333Y-137081666D01*
X154555000Y-137115000D01*
X101785000Y-120935000D02*
X101718333Y-120901666D01*
X101618333Y-120901666D01*
X101518333Y-120935000D01*
X101451666Y-121001666D01*
X101418333Y-121068333D01*
X101385000Y-121201666D01*
X101385000Y-121301666D01*
X101418333Y-121435000D01*
X101451666Y-121501666D01*
X101518333Y-121568333D01*
X101618333Y-121601666D01*
X101685000Y-121601666D01*
X101785000Y-121568333D01*
X101818333Y-121535000D01*
X101818333Y-121301666D01*
X101685000Y-121301666D01*
X102118333Y-121135000D02*
X102118333Y-121601666D01*
X102118333Y-121201666D02*
X102151666Y-121168333D01*
X102218333Y-121135000D01*
X102318333Y-121135000D01*
X102385000Y-121168333D01*
X102418333Y-121235000D01*
X102418333Y-121601666D01*
X103051666Y-121601666D02*
X103051666Y-120901666D01*
X103051666Y-121568333D02*
X102985000Y-121601666D01*
X102851666Y-121601666D01*
X102785000Y-121568333D01*
X102751666Y-121535000D01*
X102718333Y-121468333D01*
X102718333Y-121268333D01*
X102751666Y-121201666D01*
X102785000Y-121168333D01*
X102851666Y-121135000D01*
X102985000Y-121135000D01*
X103051666Y-121168333D01*
X139501666Y-126481666D02*
X139835000Y-126481666D01*
X139435000Y-126681666D02*
X139668333Y-125981666D01*
X139901666Y-126681666D01*
X140501666Y-126681666D02*
X140101666Y-126681666D01*
X140301666Y-126681666D02*
X140301666Y-125981666D01*
X140235000Y-126081666D01*
X140168333Y-126148333D01*
X140101666Y-126181666D01*
X140935000Y-125981666D02*
X141001666Y-125981666D01*
X141068333Y-126015000D01*
X141101666Y-126048333D01*
X141135000Y-126115000D01*
X141168333Y-126248333D01*
X141168333Y-126415000D01*
X141135000Y-126548333D01*
X141101666Y-126615000D01*
X141068333Y-126648333D01*
X141001666Y-126681666D01*
X140935000Y-126681666D01*
X140868333Y-126648333D01*
X140835000Y-126615000D01*
X140801666Y-126548333D01*
X140768333Y-126415000D01*
X140768333Y-126248333D01*
X140801666Y-126115000D01*
X140835000Y-126048333D01*
X140868333Y-126015000D01*
X140935000Y-125981666D01*
X168310000Y-126415000D02*
X168843333Y-126415000D01*
X168576666Y-126681666D02*
X168576666Y-126148333D01*
X169510000Y-125981666D02*
X169176666Y-125981666D01*
X169143333Y-126315000D01*
X169176666Y-126281666D01*
X169243333Y-126248333D01*
X169410000Y-126248333D01*
X169476666Y-126281666D01*
X169510000Y-126315000D01*
X169543333Y-126381666D01*
X169543333Y-126548333D01*
X169510000Y-126615000D01*
X169476666Y-126648333D01*
X169410000Y-126681666D01*
X169243333Y-126681666D01*
X169176666Y-126648333D01*
X169143333Y-126615000D01*
X82400000Y-138226666D02*
X82866666Y-138226666D01*
X82133333Y-138393333D02*
X82633333Y-138560000D01*
X82633333Y-138126666D01*
X82933333Y-138026666D02*
X82933333Y-137493333D01*
X82833333Y-137060000D02*
X82866666Y-137126666D01*
X82866666Y-137260000D01*
X82833333Y-137326666D01*
X82766666Y-137360000D01*
X82500000Y-137360000D01*
X82433333Y-137326666D01*
X82400000Y-137260000D01*
X82400000Y-137126666D01*
X82433333Y-137060000D01*
X82500000Y-137026666D01*
X82566666Y-137026666D01*
X82633333Y-137360000D01*
X82400000Y-136726666D02*
X82866666Y-136726666D01*
X82466666Y-136726666D02*
X82433333Y-136693333D01*
X82400000Y-136626666D01*
X82400000Y-136526666D01*
X82433333Y-136460000D01*
X82500000Y-136426666D01*
X82866666Y-136426666D01*
X82866666Y-135793333D02*
X82500000Y-135793333D01*
X82433333Y-135826666D01*
X82400000Y-135893333D01*
X82400000Y-136026666D01*
X82433333Y-136093333D01*
X82833333Y-135793333D02*
X82866666Y-135860000D01*
X82866666Y-136026666D01*
X82833333Y-136093333D01*
X82766666Y-136126666D01*
X82700000Y-136126666D01*
X82633333Y-136093333D01*
X82600000Y-136026666D01*
X82600000Y-135860000D01*
X82566666Y-135793333D01*
X146870000Y-120935000D02*
X146803333Y-120901666D01*
X146703333Y-120901666D01*
X146603333Y-120935000D01*
X146536666Y-121001666D01*
X146503333Y-121068333D01*
X146470000Y-121201666D01*
X146470000Y-121301666D01*
X146503333Y-121435000D01*
X146536666Y-121501666D01*
X146603333Y-121568333D01*
X146703333Y-121601666D01*
X146770000Y-121601666D01*
X146870000Y-121568333D01*
X146903333Y-121535000D01*
X146903333Y-121301666D01*
X146770000Y-121301666D01*
X147203333Y-121135000D02*
X147203333Y-121601666D01*
X147203333Y-121201666D02*
X147236666Y-121168333D01*
X147303333Y-121135000D01*
X147403333Y-121135000D01*
X147470000Y-121168333D01*
X147503333Y-121235000D01*
X147503333Y-121601666D01*
X148136666Y-121601666D02*
X148136666Y-120901666D01*
X148136666Y-121568333D02*
X148070000Y-121601666D01*
X147936666Y-121601666D01*
X147870000Y-121568333D01*
X147836666Y-121535000D01*
X147803333Y-121468333D01*
X147803333Y-121268333D01*
X147836666Y-121201666D01*
X147870000Y-121168333D01*
X147936666Y-121135000D01*
X148070000Y-121135000D01*
X148136666Y-121168333D01*
D10*
X147654047Y-72207380D02*
X147177857Y-72207380D01*
X147177857Y-71207380D01*
X147939761Y-72159761D02*
X148082619Y-72207380D01*
X148320714Y-72207380D01*
X148415952Y-72159761D01*
X148463571Y-72112142D01*
X148511190Y-72016904D01*
X148511190Y-71921666D01*
X148463571Y-71826428D01*
X148415952Y-71778809D01*
X148320714Y-71731190D01*
X148130238Y-71683571D01*
X148035000Y-71635952D01*
X147987380Y-71588333D01*
X147939761Y-71493095D01*
X147939761Y-71397857D01*
X147987380Y-71302619D01*
X148035000Y-71255000D01*
X148130238Y-71207380D01*
X148368333Y-71207380D01*
X148511190Y-71255000D01*
X149463571Y-72207380D02*
X148892142Y-72207380D01*
X149177857Y-72207380D02*
X149177857Y-71207380D01*
X149082619Y-71350238D01*
X148987380Y-71445476D01*
X148892142Y-71493095D01*
X149796904Y-71207380D02*
X150415952Y-71207380D01*
X150082619Y-71588333D01*
X150225476Y-71588333D01*
X150320714Y-71635952D01*
X150368333Y-71683571D01*
X150415952Y-71778809D01*
X150415952Y-72016904D01*
X150368333Y-72112142D01*
X150320714Y-72159761D01*
X150225476Y-72207380D01*
X149939761Y-72207380D01*
X149844523Y-72159761D01*
X149796904Y-72112142D01*
X150987380Y-71635952D02*
X150892142Y-71588333D01*
X150844523Y-71540714D01*
X150796904Y-71445476D01*
X150796904Y-71397857D01*
X150844523Y-71302619D01*
X150892142Y-71255000D01*
X150987380Y-71207380D01*
X151177857Y-71207380D01*
X151273095Y-71255000D01*
X151320714Y-71302619D01*
X151368333Y-71397857D01*
X151368333Y-71445476D01*
X151320714Y-71540714D01*
X151273095Y-71588333D01*
X151177857Y-71635952D01*
X150987380Y-71635952D01*
X150892142Y-71683571D01*
X150844523Y-71731190D01*
X150796904Y-71826428D01*
X150796904Y-72016904D01*
X150844523Y-72112142D01*
X150892142Y-72159761D01*
X150987380Y-72207380D01*
X151177857Y-72207380D01*
X151273095Y-72159761D01*
X151320714Y-72112142D01*
X151368333Y-72016904D01*
X151368333Y-71826428D01*
X151320714Y-71731190D01*
X151273095Y-71683571D01*
X151177857Y-71635952D01*
X152558809Y-72207380D02*
X152558809Y-71207380D01*
X152796904Y-71207380D01*
X152939761Y-71255000D01*
X153035000Y-71350238D01*
X153082619Y-71445476D01*
X153130238Y-71635952D01*
X153130238Y-71778809D01*
X153082619Y-71969285D01*
X153035000Y-72064523D01*
X152939761Y-72159761D01*
X152796904Y-72207380D01*
X152558809Y-72207380D01*
X153939761Y-72159761D02*
X153844523Y-72207380D01*
X153654047Y-72207380D01*
X153558809Y-72159761D01*
X153511190Y-72064523D01*
X153511190Y-71683571D01*
X153558809Y-71588333D01*
X153654047Y-71540714D01*
X153844523Y-71540714D01*
X153939761Y-71588333D01*
X153987380Y-71683571D01*
X153987380Y-71778809D01*
X153511190Y-71874047D01*
X154844523Y-72159761D02*
X154749285Y-72207380D01*
X154558809Y-72207380D01*
X154463571Y-72159761D01*
X154415952Y-72112142D01*
X154368333Y-72016904D01*
X154368333Y-71731190D01*
X154415952Y-71635952D01*
X154463571Y-71588333D01*
X154558809Y-71540714D01*
X154749285Y-71540714D01*
X154844523Y-71588333D01*
X155415952Y-72207380D02*
X155320714Y-72159761D01*
X155273095Y-72112142D01*
X155225476Y-72016904D01*
X155225476Y-71731190D01*
X155273095Y-71635952D01*
X155320714Y-71588333D01*
X155415952Y-71540714D01*
X155558809Y-71540714D01*
X155654047Y-71588333D01*
X155701666Y-71635952D01*
X155749285Y-71731190D01*
X155749285Y-72016904D01*
X155701666Y-72112142D01*
X155654047Y-72159761D01*
X155558809Y-72207380D01*
X155415952Y-72207380D01*
X156606428Y-72207380D02*
X156606428Y-71207380D01*
X156606428Y-72159761D02*
X156511190Y-72207380D01*
X156320714Y-72207380D01*
X156225476Y-72159761D01*
X156177857Y-72112142D01*
X156130238Y-72016904D01*
X156130238Y-71731190D01*
X156177857Y-71635952D01*
X156225476Y-71588333D01*
X156320714Y-71540714D01*
X156511190Y-71540714D01*
X156606428Y-71588333D01*
X157082619Y-72207380D02*
X157082619Y-71540714D01*
X157082619Y-71207380D02*
X157035000Y-71255000D01*
X157082619Y-71302619D01*
X157130238Y-71255000D01*
X157082619Y-71207380D01*
X157082619Y-71302619D01*
X157558809Y-71540714D02*
X157558809Y-72207380D01*
X157558809Y-71635952D02*
X157606428Y-71588333D01*
X157701666Y-71540714D01*
X157844523Y-71540714D01*
X157939761Y-71588333D01*
X157987380Y-71683571D01*
X157987380Y-72207380D01*
X158892142Y-71540714D02*
X158892142Y-72350238D01*
X158844523Y-72445476D01*
X158796904Y-72493095D01*
X158701666Y-72540714D01*
X158558809Y-72540714D01*
X158463571Y-72493095D01*
X158892142Y-72159761D02*
X158796904Y-72207380D01*
X158606428Y-72207380D01*
X158511190Y-72159761D01*
X158463571Y-72112142D01*
X158415952Y-72016904D01*
X158415952Y-71731190D01*
X158463571Y-71635952D01*
X158511190Y-71588333D01*
X158606428Y-71540714D01*
X158796904Y-71540714D01*
X158892142Y-71588333D01*
D11*
X167221666Y-71370000D02*
X167188333Y-71403333D01*
X167088333Y-71436666D01*
X167021666Y-71436666D01*
X166921666Y-71403333D01*
X166855000Y-71336666D01*
X166821666Y-71270000D01*
X166788333Y-71136666D01*
X166788333Y-71036666D01*
X166821666Y-70903333D01*
X166855000Y-70836666D01*
X166921666Y-70770000D01*
X167021666Y-70736666D01*
X167088333Y-70736666D01*
X167188333Y-70770000D01*
X167221666Y-70803333D01*
X90036666Y-122871666D02*
X89636666Y-122871666D01*
X89836666Y-122871666D02*
X89836666Y-122171666D01*
X89770000Y-122271666D01*
X89703333Y-122338333D01*
X89636666Y-122371666D01*
X90436666Y-122471666D02*
X90370000Y-122438333D01*
X90336666Y-122405000D01*
X90303333Y-122338333D01*
X90303333Y-122305000D01*
X90336666Y-122238333D01*
X90370000Y-122205000D01*
X90436666Y-122171666D01*
X90570000Y-122171666D01*
X90636666Y-122205000D01*
X90670000Y-122238333D01*
X90703333Y-122305000D01*
X90703333Y-122338333D01*
X90670000Y-122405000D01*
X90636666Y-122438333D01*
X90570000Y-122471666D01*
X90436666Y-122471666D01*
X90370000Y-122505000D01*
X90336666Y-122538333D01*
X90303333Y-122605000D01*
X90303333Y-122738333D01*
X90336666Y-122805000D01*
X90370000Y-122838333D01*
X90436666Y-122871666D01*
X90570000Y-122871666D01*
X90636666Y-122838333D01*
X90670000Y-122805000D01*
X90703333Y-122738333D01*
X90703333Y-122605000D01*
X90670000Y-122538333D01*
X90636666Y-122505000D01*
X90570000Y-122471666D01*
X111561666Y-126481666D02*
X111895000Y-126481666D01*
X111495000Y-126681666D02*
X111728333Y-125981666D01*
X111961666Y-126681666D01*
X112561666Y-126681666D02*
X112161666Y-126681666D01*
X112361666Y-126681666D02*
X112361666Y-125981666D01*
X112295000Y-126081666D01*
X112228333Y-126148333D01*
X112161666Y-126181666D01*
X112995000Y-125981666D02*
X113061666Y-125981666D01*
X113128333Y-126015000D01*
X113161666Y-126048333D01*
X113195000Y-126115000D01*
X113228333Y-126248333D01*
X113228333Y-126415000D01*
X113195000Y-126548333D01*
X113161666Y-126615000D01*
X113128333Y-126648333D01*
X113061666Y-126681666D01*
X112995000Y-126681666D01*
X112928333Y-126648333D01*
X112895000Y-126615000D01*
X112861666Y-126548333D01*
X112828333Y-126415000D01*
X112828333Y-126248333D01*
X112861666Y-126115000D01*
X112895000Y-126048333D01*
X112928333Y-126015000D01*
X112995000Y-125981666D01*
D10*
X135691666Y-128627142D02*
X135644047Y-128674761D01*
X135501190Y-128722380D01*
X135405952Y-128722380D01*
X135263095Y-128674761D01*
X135167857Y-128579523D01*
X135120238Y-128484285D01*
X135072619Y-128293809D01*
X135072619Y-128150952D01*
X135120238Y-127960476D01*
X135167857Y-127865238D01*
X135263095Y-127770000D01*
X135405952Y-127722380D01*
X135501190Y-127722380D01*
X135644047Y-127770000D01*
X135691666Y-127817619D01*
X136120238Y-128722380D02*
X136120238Y-127722380D01*
X136548809Y-128722380D02*
X136548809Y-128198571D01*
X136501190Y-128103333D01*
X136405952Y-128055714D01*
X136263095Y-128055714D01*
X136167857Y-128103333D01*
X136120238Y-128150952D01*
X137025000Y-128722380D02*
X137025000Y-128055714D01*
X137025000Y-127722380D02*
X136977380Y-127770000D01*
X137025000Y-127817619D01*
X137072619Y-127770000D01*
X137025000Y-127722380D01*
X137025000Y-127817619D01*
X137501190Y-128055714D02*
X137501190Y-129055714D01*
X137501190Y-128103333D02*
X137596428Y-128055714D01*
X137786904Y-128055714D01*
X137882142Y-128103333D01*
X137929761Y-128150952D01*
X137977380Y-128246190D01*
X137977380Y-128531904D01*
X137929761Y-128627142D01*
X137882142Y-128674761D01*
X137786904Y-128722380D01*
X137596428Y-128722380D01*
X137501190Y-128674761D01*
X109775952Y-133389761D02*
X108918809Y-134675476D01*
X110680714Y-134437380D02*
X110347380Y-133961190D01*
X110109285Y-134437380D02*
X110109285Y-133437380D01*
X110490238Y-133437380D01*
X110585476Y-133485000D01*
X110633095Y-133532619D01*
X110680714Y-133627857D01*
X110680714Y-133770714D01*
X110633095Y-133865952D01*
X110585476Y-133913571D01*
X110490238Y-133961190D01*
X110109285Y-133961190D01*
X111299761Y-133437380D02*
X111490238Y-133437380D01*
X111585476Y-133485000D01*
X111680714Y-133580238D01*
X111728333Y-133770714D01*
X111728333Y-134104047D01*
X111680714Y-134294523D01*
X111585476Y-134389761D01*
X111490238Y-134437380D01*
X111299761Y-134437380D01*
X111204523Y-134389761D01*
X111109285Y-134294523D01*
X111061666Y-134104047D01*
X111061666Y-133770714D01*
X111109285Y-133580238D01*
X111204523Y-133485000D01*
X111299761Y-133437380D01*
X112156904Y-134437380D02*
X112156904Y-133437380D01*
X112490238Y-134151666D01*
X112823571Y-133437380D01*
X112823571Y-134437380D01*
X113299761Y-134437380D02*
X113299761Y-133437380D01*
X113680714Y-133437380D01*
X113775952Y-133485000D01*
X113823571Y-133532619D01*
X113871190Y-133627857D01*
X113871190Y-133770714D01*
X113823571Y-133865952D01*
X113775952Y-133913571D01*
X113680714Y-133961190D01*
X113299761Y-133961190D01*
X114871190Y-134437380D02*
X114537857Y-133961190D01*
X114299761Y-134437380D02*
X114299761Y-133437380D01*
X114680714Y-133437380D01*
X114775952Y-133485000D01*
X114823571Y-133532619D01*
X114871190Y-133627857D01*
X114871190Y-133770714D01*
X114823571Y-133865952D01*
X114775952Y-133913571D01*
X114680714Y-133961190D01*
X114299761Y-133961190D01*
X115299761Y-133913571D02*
X115633095Y-133913571D01*
X115775952Y-134437380D02*
X115299761Y-134437380D01*
X115299761Y-133437380D01*
X115775952Y-133437380D01*
D11*
X142341666Y-122238333D02*
X142375000Y-122205000D01*
X142441666Y-122171666D01*
X142608333Y-122171666D01*
X142675000Y-122205000D01*
X142708333Y-122238333D01*
X142741666Y-122305000D01*
X142741666Y-122371666D01*
X142708333Y-122471666D01*
X142308333Y-122871666D01*
X142741666Y-122871666D01*
X143408333Y-122871666D02*
X143008333Y-122871666D01*
X143208333Y-122871666D02*
X143208333Y-122171666D01*
X143141666Y-122271666D01*
X143075000Y-122338333D01*
X143008333Y-122371666D01*
X156076666Y-119696666D02*
X155676666Y-119696666D01*
X155876666Y-119696666D02*
X155876666Y-118996666D01*
X155810000Y-119096666D01*
X155743333Y-119163333D01*
X155676666Y-119196666D01*
X156476666Y-119296666D02*
X156410000Y-119263333D01*
X156376666Y-119230000D01*
X156343333Y-119163333D01*
X156343333Y-119130000D01*
X156376666Y-119063333D01*
X156410000Y-119030000D01*
X156476666Y-118996666D01*
X156610000Y-118996666D01*
X156676666Y-119030000D01*
X156710000Y-119063333D01*
X156743333Y-119130000D01*
X156743333Y-119163333D01*
X156710000Y-119230000D01*
X156676666Y-119263333D01*
X156610000Y-119296666D01*
X156476666Y-119296666D01*
X156410000Y-119330000D01*
X156376666Y-119363333D01*
X156343333Y-119430000D01*
X156343333Y-119563333D01*
X156376666Y-119630000D01*
X156410000Y-119663333D01*
X156476666Y-119696666D01*
X156610000Y-119696666D01*
X156676666Y-119663333D01*
X156710000Y-119630000D01*
X156743333Y-119563333D01*
X156743333Y-119430000D01*
X156710000Y-119363333D01*
X156676666Y-119330000D01*
X156610000Y-119296666D01*
X161091666Y-76951666D02*
X161425000Y-76951666D01*
X161025000Y-77151666D02*
X161258333Y-76451666D01*
X161491666Y-77151666D01*
X162091666Y-77151666D02*
X161691666Y-77151666D01*
X161891666Y-77151666D02*
X161891666Y-76451666D01*
X161825000Y-76551666D01*
X161758333Y-76618333D01*
X161691666Y-76651666D01*
X162525000Y-76451666D02*
X162591666Y-76451666D01*
X162658333Y-76485000D01*
X162691666Y-76518333D01*
X162725000Y-76585000D01*
X162758333Y-76718333D01*
X162758333Y-76885000D01*
X162725000Y-77018333D01*
X162691666Y-77085000D01*
X162658333Y-77118333D01*
X162591666Y-77151666D01*
X162525000Y-77151666D01*
X162458333Y-77118333D01*
X162425000Y-77085000D01*
X162391666Y-77018333D01*
X162358333Y-76885000D01*
X162358333Y-76718333D01*
X162391666Y-76585000D01*
X162425000Y-76518333D01*
X162458333Y-76485000D01*
X162525000Y-76451666D01*
X147841666Y-134301666D02*
X147441666Y-134301666D01*
X147641666Y-134301666D02*
X147641666Y-133601666D01*
X147575000Y-133701666D01*
X147508333Y-133768333D01*
X147441666Y-133801666D01*
X147975000Y-134368333D02*
X148508333Y-134368333D01*
X148675000Y-133835000D02*
X148675000Y-134535000D01*
X148675000Y-133868333D02*
X148741666Y-133835000D01*
X148875000Y-133835000D01*
X148941666Y-133868333D01*
X148975000Y-133901666D01*
X149008333Y-133968333D01*
X149008333Y-134168333D01*
X148975000Y-134235000D01*
X148941666Y-134268333D01*
X148875000Y-134301666D01*
X148741666Y-134301666D01*
X148675000Y-134268333D01*
X149308333Y-134301666D02*
X149308333Y-133835000D01*
X149308333Y-133968333D02*
X149341666Y-133901666D01*
X149375000Y-133868333D01*
X149441666Y-133835000D01*
X149508333Y-133835000D01*
X149841666Y-134301666D02*
X149775000Y-134268333D01*
X149741666Y-134235000D01*
X149708333Y-134168333D01*
X149708333Y-133968333D01*
X149741666Y-133901666D01*
X149775000Y-133868333D01*
X149841666Y-133835000D01*
X149941666Y-133835000D01*
X150008333Y-133868333D01*
X150041666Y-133901666D01*
X150075000Y-133968333D01*
X150075000Y-134168333D01*
X150041666Y-134235000D01*
X150008333Y-134268333D01*
X149941666Y-134301666D01*
X149841666Y-134301666D01*
X150375000Y-134301666D02*
X150375000Y-133835000D01*
X150375000Y-133901666D02*
X150408333Y-133868333D01*
X150475000Y-133835000D01*
X150575000Y-133835000D01*
X150641666Y-133868333D01*
X150675000Y-133935000D01*
X150675000Y-134301666D01*
X150675000Y-133935000D02*
X150708333Y-133868333D01*
X150775000Y-133835000D01*
X150875000Y-133835000D01*
X150941666Y-133868333D01*
X150975000Y-133935000D01*
X150975000Y-134301666D01*
D12*
X154905000Y-75880000D02*
X153705000Y-75880000D01*
X154305000Y-75880000D02*
X154305000Y-73780000D01*
X154105000Y-74080000D01*
X153905000Y-74280000D01*
X153705000Y-74380000D01*
D11*
X140586666Y-140298333D02*
X140586666Y-140231666D01*
X140620000Y-140165000D01*
X140653333Y-140131666D01*
X140720000Y-140098333D01*
X140853333Y-140065000D01*
X141020000Y-140065000D01*
X141153333Y-140098333D01*
X141220000Y-140131666D01*
X141253333Y-140165000D01*
X141286666Y-140231666D01*
X141286666Y-140298333D01*
X141253333Y-140365000D01*
X141220000Y-140398333D01*
X141153333Y-140431666D01*
X141020000Y-140465000D01*
X140853333Y-140465000D01*
X140720000Y-140431666D01*
X140653333Y-140398333D01*
X140620000Y-140365000D01*
X140586666Y-140298333D01*
X141353333Y-139931666D02*
X141353333Y-139398333D01*
X141253333Y-138965000D02*
X141286666Y-139031666D01*
X141286666Y-139165000D01*
X141253333Y-139231666D01*
X141186666Y-139265000D01*
X140920000Y-139265000D01*
X140853333Y-139231666D01*
X140820000Y-139165000D01*
X140820000Y-139031666D01*
X140853333Y-138965000D01*
X140920000Y-138931666D01*
X140986666Y-138931666D01*
X141053333Y-139265000D01*
X140820000Y-138631666D02*
X141286666Y-138631666D01*
X140886666Y-138631666D02*
X140853333Y-138598333D01*
X140820000Y-138531666D01*
X140820000Y-138431666D01*
X140853333Y-138365000D01*
X140920000Y-138331666D01*
X141286666Y-138331666D01*
X141286666Y-137698333D02*
X140920000Y-137698333D01*
X140853333Y-137731666D01*
X140820000Y-137798333D01*
X140820000Y-137931666D01*
X140853333Y-137998333D01*
X141253333Y-137698333D02*
X141286666Y-137765000D01*
X141286666Y-137931666D01*
X141253333Y-137998333D01*
X141186666Y-138031666D01*
X141120000Y-138031666D01*
X141053333Y-137998333D01*
X141020000Y-137931666D01*
X141020000Y-137765000D01*
X140986666Y-137698333D01*
X162041666Y-138705333D02*
X162041666Y-138372000D01*
X162241666Y-138772000D02*
X161541666Y-138538666D01*
X162241666Y-138305333D01*
X162241666Y-137705333D02*
X162241666Y-138105333D01*
X162241666Y-137905333D02*
X161541666Y-137905333D01*
X161641666Y-137972000D01*
X161708333Y-138038666D01*
X161741666Y-138105333D01*
X161608333Y-137438666D02*
X161575000Y-137405333D01*
X161541666Y-137338666D01*
X161541666Y-137172000D01*
X161575000Y-137105333D01*
X161608333Y-137072000D01*
X161675000Y-137038666D01*
X161741666Y-137038666D01*
X161841666Y-137072000D01*
X162241666Y-137472000D01*
X162241666Y-137038666D01*
X158551666Y-76951666D02*
X158885000Y-76951666D01*
X158485000Y-77151666D02*
X158718333Y-76451666D01*
X158951666Y-77151666D01*
X159551666Y-77151666D02*
X159151666Y-77151666D01*
X159351666Y-77151666D02*
X159351666Y-76451666D01*
X159285000Y-76551666D01*
X159218333Y-76618333D01*
X159151666Y-76651666D01*
X160151666Y-76685000D02*
X160151666Y-77151666D01*
X159985000Y-76418333D02*
X159818333Y-76918333D01*
X160251666Y-76918333D01*
X153556666Y-126681666D02*
X153156666Y-126681666D01*
X153356666Y-126681666D02*
X153356666Y-125981666D01*
X153290000Y-126081666D01*
X153223333Y-126148333D01*
X153156666Y-126181666D01*
X153690000Y-126748333D02*
X154223333Y-126748333D01*
X154390000Y-126215000D02*
X154390000Y-126915000D01*
X154390000Y-126248333D02*
X154456666Y-126215000D01*
X154590000Y-126215000D01*
X154656666Y-126248333D01*
X154690000Y-126281666D01*
X154723333Y-126348333D01*
X154723333Y-126548333D01*
X154690000Y-126615000D01*
X154656666Y-126648333D01*
X154590000Y-126681666D01*
X154456666Y-126681666D01*
X154390000Y-126648333D01*
X155023333Y-126681666D02*
X155023333Y-126215000D01*
X155023333Y-126348333D02*
X155056666Y-126281666D01*
X155090000Y-126248333D01*
X155156666Y-126215000D01*
X155223333Y-126215000D01*
X155556666Y-126681666D02*
X155490000Y-126648333D01*
X155456666Y-126615000D01*
X155423333Y-126548333D01*
X155423333Y-126348333D01*
X155456666Y-126281666D01*
X155490000Y-126248333D01*
X155556666Y-126215000D01*
X155656666Y-126215000D01*
X155723333Y-126248333D01*
X155756666Y-126281666D01*
X155790000Y-126348333D01*
X155790000Y-126548333D01*
X155756666Y-126615000D01*
X155723333Y-126648333D01*
X155656666Y-126681666D01*
X155556666Y-126681666D01*
X156090000Y-126681666D02*
X156090000Y-126215000D01*
X156090000Y-126281666D02*
X156123333Y-126248333D01*
X156190000Y-126215000D01*
X156290000Y-126215000D01*
X156356666Y-126248333D01*
X156390000Y-126315000D01*
X156390000Y-126681666D01*
X156390000Y-126315000D02*
X156423333Y-126248333D01*
X156490000Y-126215000D01*
X156590000Y-126215000D01*
X156656666Y-126248333D01*
X156690000Y-126315000D01*
X156690000Y-126681666D01*
X121955000Y-126415000D02*
X122488333Y-126415000D01*
X122221666Y-126681666D02*
X122221666Y-126148333D01*
X123155000Y-125981666D02*
X122821666Y-125981666D01*
X122788333Y-126315000D01*
X122821666Y-126281666D01*
X122888333Y-126248333D01*
X123055000Y-126248333D01*
X123121666Y-126281666D01*
X123155000Y-126315000D01*
X123188333Y-126381666D01*
X123188333Y-126548333D01*
X123155000Y-126615000D01*
X123121666Y-126648333D01*
X123055000Y-126681666D01*
X122888333Y-126681666D01*
X122821666Y-126648333D01*
X122788333Y-126615000D01*
X99730000Y-126415000D02*
X100263333Y-126415000D01*
X99996666Y-126681666D02*
X99996666Y-126148333D01*
X100930000Y-125981666D02*
X100596666Y-125981666D01*
X100563333Y-126315000D01*
X100596666Y-126281666D01*
X100663333Y-126248333D01*
X100830000Y-126248333D01*
X100896666Y-126281666D01*
X100930000Y-126315000D01*
X100963333Y-126381666D01*
X100963333Y-126548333D01*
X100930000Y-126615000D01*
X100896666Y-126648333D01*
X100830000Y-126681666D01*
X100663333Y-126681666D01*
X100596666Y-126648333D01*
X100563333Y-126615000D01*
X159701666Y-140981666D02*
X159368333Y-141215000D01*
X159701666Y-141381666D02*
X159001666Y-141381666D01*
X159001666Y-141115000D01*
X159035000Y-141048333D01*
X159068333Y-141015000D01*
X159135000Y-140981666D01*
X159235000Y-140981666D01*
X159301666Y-141015000D01*
X159335000Y-141048333D01*
X159368333Y-141115000D01*
X159368333Y-141381666D01*
X159001666Y-140548333D02*
X159001666Y-140415000D01*
X159035000Y-140348333D01*
X159101666Y-140281666D01*
X159235000Y-140248333D01*
X159468333Y-140248333D01*
X159601666Y-140281666D01*
X159668333Y-140348333D01*
X159701666Y-140415000D01*
X159701666Y-140548333D01*
X159668333Y-140615000D01*
X159601666Y-140681666D01*
X159468333Y-140715000D01*
X159235000Y-140715000D01*
X159101666Y-140681666D01*
X159035000Y-140615000D01*
X159001666Y-140548333D01*
X159701666Y-139948333D02*
X159001666Y-139948333D01*
X159501666Y-139715000D01*
X159001666Y-139481666D01*
X159701666Y-139481666D01*
X159701666Y-138748333D02*
X159368333Y-138981666D01*
X159701666Y-139148333D02*
X159001666Y-139148333D01*
X159001666Y-138881666D01*
X159035000Y-138815000D01*
X159068333Y-138781666D01*
X159135000Y-138748333D01*
X159235000Y-138748333D01*
X159301666Y-138781666D01*
X159335000Y-138815000D01*
X159368333Y-138881666D01*
X159368333Y-139148333D01*
X159701666Y-138448333D02*
X159001666Y-138448333D01*
X159001666Y-138281666D01*
X159035000Y-138181666D01*
X159101666Y-138115000D01*
X159168333Y-138081666D01*
X159301666Y-138048333D01*
X159401666Y-138048333D01*
X159535000Y-138081666D01*
X159601666Y-138115000D01*
X159668333Y-138181666D01*
X159701666Y-138281666D01*
X159701666Y-138448333D01*
X159701666Y-137381666D02*
X159701666Y-137781666D01*
X159701666Y-137581666D02*
X159001666Y-137581666D01*
X159101666Y-137648333D01*
X159168333Y-137715000D01*
X159201666Y-137781666D01*
X159001666Y-136748333D02*
X159001666Y-137081666D01*
X159335000Y-137115000D01*
X159301666Y-137081666D01*
X159268333Y-137015000D01*
X159268333Y-136848333D01*
X159301666Y-136781666D01*
X159335000Y-136748333D01*
X159401666Y-136715000D01*
X159568333Y-136715000D01*
X159635000Y-136748333D01*
X159668333Y-136781666D01*
X159701666Y-136848333D01*
X159701666Y-137015000D01*
X159668333Y-137081666D01*
X159635000Y-137115000D01*
X163631666Y-76951666D02*
X163965000Y-76951666D01*
X163565000Y-77151666D02*
X163798333Y-76451666D01*
X164031666Y-77151666D01*
X164631666Y-77151666D02*
X164231666Y-77151666D01*
X164431666Y-77151666D02*
X164431666Y-76451666D01*
X164365000Y-76551666D01*
X164298333Y-76618333D01*
X164231666Y-76651666D01*
X165298333Y-77151666D02*
X164898333Y-77151666D01*
X165098333Y-77151666D02*
X165098333Y-76451666D01*
X165031666Y-76551666D01*
X164965000Y-76618333D01*
X164898333Y-76651666D01*
D10*
X114903571Y-127722380D02*
X114903571Y-128436666D01*
X114855952Y-128579523D01*
X114760714Y-128674761D01*
X114617857Y-128722380D01*
X114522619Y-128722380D01*
X115808333Y-128055714D02*
X115808333Y-128722380D01*
X115379761Y-128055714D02*
X115379761Y-128579523D01*
X115427380Y-128674761D01*
X115522619Y-128722380D01*
X115665476Y-128722380D01*
X115760714Y-128674761D01*
X115808333Y-128627142D01*
X116284523Y-128722380D02*
X116284523Y-128055714D01*
X116284523Y-128150952D02*
X116332142Y-128103333D01*
X116427380Y-128055714D01*
X116570238Y-128055714D01*
X116665476Y-128103333D01*
X116713095Y-128198571D01*
X116713095Y-128722380D01*
X116713095Y-128198571D02*
X116760714Y-128103333D01*
X116855952Y-128055714D01*
X116998809Y-128055714D01*
X117094047Y-128103333D01*
X117141666Y-128198571D01*
X117141666Y-128722380D01*
X117617857Y-128055714D02*
X117617857Y-129055714D01*
X117617857Y-128103333D02*
X117713095Y-128055714D01*
X117903571Y-128055714D01*
X117998809Y-128103333D01*
X118046428Y-128150952D01*
X118094047Y-128246190D01*
X118094047Y-128531904D01*
X118046428Y-128627142D01*
X117998809Y-128674761D01*
X117903571Y-128722380D01*
X117713095Y-128722380D01*
X117617857Y-128674761D01*
X118903571Y-128674761D02*
X118808333Y-128722380D01*
X118617857Y-128722380D01*
X118522619Y-128674761D01*
X118475000Y-128579523D01*
X118475000Y-128198571D01*
X118522619Y-128103333D01*
X118617857Y-128055714D01*
X118808333Y-128055714D01*
X118903571Y-128103333D01*
X118951190Y-128198571D01*
X118951190Y-128293809D01*
X118475000Y-128389047D01*
X119379761Y-128722380D02*
X119379761Y-128055714D01*
X119379761Y-128246190D02*
X119427380Y-128150952D01*
X119475000Y-128103333D01*
X119570238Y-128055714D01*
X119665476Y-128055714D01*
X119951190Y-128674761D02*
X120046428Y-128722380D01*
X120236904Y-128722380D01*
X120332142Y-128674761D01*
X120379761Y-128579523D01*
X120379761Y-128531904D01*
X120332142Y-128436666D01*
X120236904Y-128389047D01*
X120094047Y-128389047D01*
X119998809Y-128341428D01*
X119951190Y-128246190D01*
X119951190Y-128198571D01*
X119998809Y-128103333D01*
X120094047Y-128055714D01*
X120236904Y-128055714D01*
X120332142Y-128103333D01*
D11*
X160456666Y-126481666D02*
X160790000Y-126481666D01*
X160390000Y-126681666D02*
X160623333Y-125981666D01*
X160856666Y-126681666D01*
X161456666Y-126681666D02*
X161056666Y-126681666D01*
X161256666Y-126681666D02*
X161256666Y-125981666D01*
X161190000Y-126081666D01*
X161123333Y-126148333D01*
X161056666Y-126181666D01*
X161890000Y-125981666D02*
X161956666Y-125981666D01*
X162023333Y-126015000D01*
X162056666Y-126048333D01*
X162090000Y-126115000D01*
X162123333Y-126248333D01*
X162123333Y-126415000D01*
X162090000Y-126548333D01*
X162056666Y-126615000D01*
X162023333Y-126648333D01*
X161956666Y-126681666D01*
X161890000Y-126681666D01*
X161823333Y-126648333D01*
X161790000Y-126615000D01*
X161756666Y-126548333D01*
X161723333Y-126415000D01*
X161723333Y-126248333D01*
X161756666Y-126115000D01*
X161790000Y-126048333D01*
X161823333Y-126015000D01*
X161890000Y-125981666D01*
D10*
X88225714Y-93727380D02*
X87749523Y-93727380D01*
X87701904Y-94203571D01*
X87749523Y-94155952D01*
X87844761Y-94108333D01*
X88082857Y-94108333D01*
X88178095Y-94155952D01*
X88225714Y-94203571D01*
X88273333Y-94298809D01*
X88273333Y-94536904D01*
X88225714Y-94632142D01*
X88178095Y-94679761D01*
X88082857Y-94727380D01*
X87844761Y-94727380D01*
X87749523Y-94679761D01*
X87701904Y-94632142D01*
X88654285Y-94441666D02*
X89130476Y-94441666D01*
X88559047Y-94727380D02*
X88892380Y-93727380D01*
X89225714Y-94727380D01*
X90320952Y-94727380D02*
X90320952Y-94060714D01*
X90320952Y-94155952D02*
X90368571Y-94108333D01*
X90463809Y-94060714D01*
X90606666Y-94060714D01*
X90701904Y-94108333D01*
X90749523Y-94203571D01*
X90749523Y-94727380D01*
X90749523Y-94203571D02*
X90797142Y-94108333D01*
X90892380Y-94060714D01*
X91035238Y-94060714D01*
X91130476Y-94108333D01*
X91178095Y-94203571D01*
X91178095Y-94727380D01*
X92035238Y-94679761D02*
X91940000Y-94727380D01*
X91749523Y-94727380D01*
X91654285Y-94679761D01*
X91606666Y-94584523D01*
X91606666Y-94203571D01*
X91654285Y-94108333D01*
X91749523Y-94060714D01*
X91940000Y-94060714D01*
X92035238Y-94108333D01*
X92082857Y-94203571D01*
X92082857Y-94298809D01*
X91606666Y-94394047D01*
X92940000Y-94727380D02*
X92940000Y-94203571D01*
X92892380Y-94108333D01*
X92797142Y-94060714D01*
X92606666Y-94060714D01*
X92511428Y-94108333D01*
X92940000Y-94679761D02*
X92844761Y-94727380D01*
X92606666Y-94727380D01*
X92511428Y-94679761D01*
X92463809Y-94584523D01*
X92463809Y-94489285D01*
X92511428Y-94394047D01*
X92606666Y-94346428D01*
X92844761Y-94346428D01*
X92940000Y-94298809D01*
X93416190Y-94060714D02*
X93416190Y-94727380D01*
X93416190Y-94155952D02*
X93463809Y-94108333D01*
X93559047Y-94060714D01*
X93701904Y-94060714D01*
X93797142Y-94108333D01*
X93844761Y-94203571D01*
X93844761Y-94727380D01*
X94273333Y-94679761D02*
X94368571Y-94727380D01*
X94559047Y-94727380D01*
X94654285Y-94679761D01*
X94701904Y-94584523D01*
X94701904Y-94536904D01*
X94654285Y-94441666D01*
X94559047Y-94394047D01*
X94416190Y-94394047D01*
X94320952Y-94346428D01*
X94273333Y-94251190D01*
X94273333Y-94203571D01*
X94320952Y-94108333D01*
X94416190Y-94060714D01*
X94559047Y-94060714D01*
X94654285Y-94108333D01*
X95130476Y-94632142D02*
X95178095Y-94679761D01*
X95130476Y-94727380D01*
X95082857Y-94679761D01*
X95130476Y-94632142D01*
X95130476Y-94727380D01*
X95130476Y-94108333D02*
X95178095Y-94155952D01*
X95130476Y-94203571D01*
X95082857Y-94155952D01*
X95130476Y-94108333D01*
X95130476Y-94203571D01*
X83797142Y-95337380D02*
X83892380Y-95337380D01*
X83987619Y-95385000D01*
X84035238Y-95432619D01*
X84082857Y-95527857D01*
X84130476Y-95718333D01*
X84130476Y-95956428D01*
X84082857Y-96146904D01*
X84035238Y-96242142D01*
X83987619Y-96289761D01*
X83892380Y-96337380D01*
X83797142Y-96337380D01*
X83701904Y-96289761D01*
X83654285Y-96242142D01*
X83606666Y-96146904D01*
X83559047Y-95956428D01*
X83559047Y-95718333D01*
X83606666Y-95527857D01*
X83654285Y-95432619D01*
X83701904Y-95385000D01*
X83797142Y-95337380D01*
X85320952Y-95813571D02*
X85654285Y-95813571D01*
X85797142Y-96337380D02*
X85320952Y-96337380D01*
X85320952Y-95337380D01*
X85797142Y-95337380D01*
X86225714Y-96337380D02*
X86225714Y-95337380D01*
X86797142Y-96337380D01*
X86797142Y-95337380D01*
X87225714Y-96051666D02*
X87701904Y-96051666D01*
X87130476Y-96337380D02*
X87463809Y-95337380D01*
X87797142Y-96337380D01*
X88463809Y-95813571D02*
X88606666Y-95861190D01*
X88654285Y-95908809D01*
X88701904Y-96004047D01*
X88701904Y-96146904D01*
X88654285Y-96242142D01*
X88606666Y-96289761D01*
X88511428Y-96337380D01*
X88130476Y-96337380D01*
X88130476Y-95337380D01*
X88463809Y-95337380D01*
X88559047Y-95385000D01*
X88606666Y-95432619D01*
X88654285Y-95527857D01*
X88654285Y-95623095D01*
X88606666Y-95718333D01*
X88559047Y-95765952D01*
X88463809Y-95813571D01*
X88130476Y-95813571D01*
X89606666Y-96337380D02*
X89130476Y-96337380D01*
X89130476Y-95337380D01*
X89940000Y-95813571D02*
X90273333Y-95813571D01*
X90416190Y-96337380D02*
X89940000Y-96337380D01*
X89940000Y-95337380D01*
X90416190Y-95337380D01*
X91463809Y-95670714D02*
X91844761Y-95670714D01*
X91606666Y-95337380D02*
X91606666Y-96194523D01*
X91654285Y-96289761D01*
X91749523Y-96337380D01*
X91844761Y-96337380D01*
X92320952Y-96337380D02*
X92225714Y-96289761D01*
X92178095Y-96242142D01*
X92130476Y-96146904D01*
X92130476Y-95861190D01*
X92178095Y-95765952D01*
X92225714Y-95718333D01*
X92320952Y-95670714D01*
X92463809Y-95670714D01*
X92559047Y-95718333D01*
X92606666Y-95765952D01*
X92654285Y-95861190D01*
X92654285Y-96146904D01*
X92606666Y-96242142D01*
X92559047Y-96289761D01*
X92463809Y-96337380D01*
X92320952Y-96337380D01*
X94368571Y-96337380D02*
X93797142Y-96337380D01*
X94082857Y-96337380D02*
X94082857Y-95337380D01*
X93987619Y-95480238D01*
X93892380Y-95575476D01*
X93797142Y-95623095D01*
X95559047Y-96337380D02*
X95559047Y-95337380D01*
X95940000Y-95337380D01*
X96035238Y-95385000D01*
X96082857Y-95432619D01*
X96130476Y-95527857D01*
X96130476Y-95670714D01*
X96082857Y-95765952D01*
X96035238Y-95813571D01*
X95940000Y-95861190D01*
X95559047Y-95861190D01*
X97130476Y-96337380D02*
X96797142Y-95861190D01*
X96559047Y-96337380D02*
X96559047Y-95337380D01*
X96940000Y-95337380D01*
X97035238Y-95385000D01*
X97082857Y-95432619D01*
X97130476Y-95527857D01*
X97130476Y-95670714D01*
X97082857Y-95765952D01*
X97035238Y-95813571D01*
X96940000Y-95861190D01*
X96559047Y-95861190D01*
X97749523Y-95337380D02*
X97940000Y-95337380D01*
X98035238Y-95385000D01*
X98130476Y-95480238D01*
X98178095Y-95670714D01*
X98178095Y-96004047D01*
X98130476Y-96194523D01*
X98035238Y-96289761D01*
X97940000Y-96337380D01*
X97749523Y-96337380D01*
X97654285Y-96289761D01*
X97559047Y-96194523D01*
X97511428Y-96004047D01*
X97511428Y-95670714D01*
X97559047Y-95480238D01*
X97654285Y-95385000D01*
X97749523Y-95337380D01*
X98606666Y-96337380D02*
X98606666Y-95337380D01*
X98940000Y-96051666D01*
X99273333Y-95337380D01*
X99273333Y-96337380D01*
X84130476Y-97947380D02*
X83559047Y-97947380D01*
X83844761Y-97947380D02*
X83844761Y-96947380D01*
X83749523Y-97090238D01*
X83654285Y-97185476D01*
X83559047Y-97233095D01*
X85320952Y-97423571D02*
X85654285Y-97423571D01*
X85797142Y-97947380D02*
X85320952Y-97947380D01*
X85320952Y-96947380D01*
X85797142Y-96947380D01*
X86225714Y-97947380D02*
X86225714Y-96947380D01*
X86797142Y-97947380D01*
X86797142Y-96947380D01*
X87225714Y-97661666D02*
X87701904Y-97661666D01*
X87130476Y-97947380D02*
X87463809Y-96947380D01*
X87797142Y-97947380D01*
X88463809Y-97423571D02*
X88606666Y-97471190D01*
X88654285Y-97518809D01*
X88701904Y-97614047D01*
X88701904Y-97756904D01*
X88654285Y-97852142D01*
X88606666Y-97899761D01*
X88511428Y-97947380D01*
X88130476Y-97947380D01*
X88130476Y-96947380D01*
X88463809Y-96947380D01*
X88559047Y-96995000D01*
X88606666Y-97042619D01*
X88654285Y-97137857D01*
X88654285Y-97233095D01*
X88606666Y-97328333D01*
X88559047Y-97375952D01*
X88463809Y-97423571D01*
X88130476Y-97423571D01*
X89606666Y-97947380D02*
X89130476Y-97947380D01*
X89130476Y-96947380D01*
X89940000Y-97423571D02*
X90273333Y-97423571D01*
X90416190Y-97947380D02*
X89940000Y-97947380D01*
X89940000Y-96947380D01*
X90416190Y-96947380D01*
X91463809Y-97280714D02*
X91844761Y-97280714D01*
X91606666Y-96947380D02*
X91606666Y-97804523D01*
X91654285Y-97899761D01*
X91749523Y-97947380D01*
X91844761Y-97947380D01*
X92320952Y-97947380D02*
X92225714Y-97899761D01*
X92178095Y-97852142D01*
X92130476Y-97756904D01*
X92130476Y-97471190D01*
X92178095Y-97375952D01*
X92225714Y-97328333D01*
X92320952Y-97280714D01*
X92463809Y-97280714D01*
X92559047Y-97328333D01*
X92606666Y-97375952D01*
X92654285Y-97471190D01*
X92654285Y-97756904D01*
X92606666Y-97852142D01*
X92559047Y-97899761D01*
X92463809Y-97947380D01*
X92320952Y-97947380D01*
X93797142Y-97042619D02*
X93844761Y-96995000D01*
X93940000Y-96947380D01*
X94178095Y-96947380D01*
X94273333Y-96995000D01*
X94320952Y-97042619D01*
X94368571Y-97137857D01*
X94368571Y-97233095D01*
X94320952Y-97375952D01*
X93749523Y-97947380D01*
X94368571Y-97947380D01*
X95559047Y-97947380D02*
X95559047Y-96947380D01*
X95940000Y-96947380D01*
X96035238Y-96995000D01*
X96082857Y-97042619D01*
X96130476Y-97137857D01*
X96130476Y-97280714D01*
X96082857Y-97375952D01*
X96035238Y-97423571D01*
X95940000Y-97471190D01*
X95559047Y-97471190D01*
X97130476Y-97947380D02*
X96797142Y-97471190D01*
X96559047Y-97947380D02*
X96559047Y-96947380D01*
X96940000Y-96947380D01*
X97035238Y-96995000D01*
X97082857Y-97042619D01*
X97130476Y-97137857D01*
X97130476Y-97280714D01*
X97082857Y-97375952D01*
X97035238Y-97423571D01*
X96940000Y-97471190D01*
X96559047Y-97471190D01*
X97749523Y-96947380D02*
X97940000Y-96947380D01*
X98035238Y-96995000D01*
X98130476Y-97090238D01*
X98178095Y-97280714D01*
X98178095Y-97614047D01*
X98130476Y-97804523D01*
X98035238Y-97899761D01*
X97940000Y-97947380D01*
X97749523Y-97947380D01*
X97654285Y-97899761D01*
X97559047Y-97804523D01*
X97511428Y-97614047D01*
X97511428Y-97280714D01*
X97559047Y-97090238D01*
X97654285Y-96995000D01*
X97749523Y-96947380D01*
X98606666Y-97947380D02*
X98606666Y-96947380D01*
X98940000Y-97661666D01*
X99273333Y-96947380D01*
X99273333Y-97947380D01*
X95218571Y-127087380D02*
X95218571Y-127801666D01*
X95170952Y-127944523D01*
X95075714Y-128039761D01*
X94932857Y-128087380D01*
X94837619Y-128087380D01*
X96123333Y-127420714D02*
X96123333Y-128087380D01*
X95694761Y-127420714D02*
X95694761Y-127944523D01*
X95742380Y-128039761D01*
X95837619Y-128087380D01*
X95980476Y-128087380D01*
X96075714Y-128039761D01*
X96123333Y-127992142D01*
X96599523Y-128087380D02*
X96599523Y-127420714D01*
X96599523Y-127515952D02*
X96647142Y-127468333D01*
X96742380Y-127420714D01*
X96885238Y-127420714D01*
X96980476Y-127468333D01*
X97028095Y-127563571D01*
X97028095Y-128087380D01*
X97028095Y-127563571D02*
X97075714Y-127468333D01*
X97170952Y-127420714D01*
X97313809Y-127420714D01*
X97409047Y-127468333D01*
X97456666Y-127563571D01*
X97456666Y-128087380D01*
X97932857Y-127420714D02*
X97932857Y-128420714D01*
X97932857Y-127468333D02*
X98028095Y-127420714D01*
X98218571Y-127420714D01*
X98313809Y-127468333D01*
X98361428Y-127515952D01*
X98409047Y-127611190D01*
X98409047Y-127896904D01*
X98361428Y-127992142D01*
X98313809Y-128039761D01*
X98218571Y-128087380D01*
X98028095Y-128087380D01*
X97932857Y-128039761D01*
X99218571Y-128039761D02*
X99123333Y-128087380D01*
X98932857Y-128087380D01*
X98837619Y-128039761D01*
X98790000Y-127944523D01*
X98790000Y-127563571D01*
X98837619Y-127468333D01*
X98932857Y-127420714D01*
X99123333Y-127420714D01*
X99218571Y-127468333D01*
X99266190Y-127563571D01*
X99266190Y-127658809D01*
X98790000Y-127754047D01*
X99694761Y-128087380D02*
X99694761Y-127420714D01*
X99694761Y-127611190D02*
X99742380Y-127515952D01*
X99790000Y-127468333D01*
X99885238Y-127420714D01*
X99980476Y-127420714D01*
X100266190Y-128039761D02*
X100361428Y-128087380D01*
X100551904Y-128087380D01*
X100647142Y-128039761D01*
X100694761Y-127944523D01*
X100694761Y-127896904D01*
X100647142Y-127801666D01*
X100551904Y-127754047D01*
X100409047Y-127754047D01*
X100313809Y-127706428D01*
X100266190Y-127611190D01*
X100266190Y-127563571D01*
X100313809Y-127468333D01*
X100409047Y-127420714D01*
X100551904Y-127420714D01*
X100647142Y-127468333D01*
D11*
X91776666Y-126415000D02*
X92310000Y-126415000D01*
X92043333Y-126681666D02*
X92043333Y-126148333D01*
X93010000Y-126681666D02*
X92610000Y-126681666D01*
X92810000Y-126681666D02*
X92810000Y-125981666D01*
X92743333Y-126081666D01*
X92676666Y-126148333D01*
X92610000Y-126181666D01*
X93276666Y-126048333D02*
X93310000Y-126015000D01*
X93376666Y-125981666D01*
X93543333Y-125981666D01*
X93610000Y-126015000D01*
X93643333Y-126048333D01*
X93676666Y-126115000D01*
X93676666Y-126181666D01*
X93643333Y-126281666D01*
X93243333Y-126681666D01*
X93676666Y-126681666D01*
D10*
X95972380Y-136016904D02*
X96781904Y-136016904D01*
X96877142Y-135969285D01*
X96924761Y-135921666D01*
X96972380Y-135826428D01*
X96972380Y-135635952D01*
X96924761Y-135540714D01*
X96877142Y-135493095D01*
X96781904Y-135445476D01*
X95972380Y-135445476D01*
X95972380Y-134540714D02*
X95972380Y-134731190D01*
X96020000Y-134826428D01*
X96067619Y-134874047D01*
X96210476Y-134969285D01*
X96400952Y-135016904D01*
X96781904Y-135016904D01*
X96877142Y-134969285D01*
X96924761Y-134921666D01*
X96972380Y-134826428D01*
X96972380Y-134635952D01*
X96924761Y-134540714D01*
X96877142Y-134493095D01*
X96781904Y-134445476D01*
X96543809Y-134445476D01*
X96448571Y-134493095D01*
X96400952Y-134540714D01*
X96353333Y-134635952D01*
X96353333Y-134826428D01*
X96400952Y-134921666D01*
X96448571Y-134969285D01*
X96543809Y-135016904D01*
X84752380Y-138374047D02*
X84752380Y-137707380D01*
X85752380Y-138135952D01*
X85085714Y-136897857D02*
X85752380Y-136897857D01*
X84704761Y-137135952D02*
X85419047Y-137374047D01*
X85419047Y-136755000D01*
X85752380Y-135897857D02*
X85752380Y-136374047D01*
X84752380Y-136374047D01*
X85704761Y-135612142D02*
X85752380Y-135469285D01*
X85752380Y-135231190D01*
X85704761Y-135135952D01*
X85657142Y-135088333D01*
X85561904Y-135040714D01*
X85466666Y-135040714D01*
X85371428Y-135088333D01*
X85323809Y-135135952D01*
X85276190Y-135231190D01*
X85228571Y-135421666D01*
X85180952Y-135516904D01*
X85133333Y-135564523D01*
X85038095Y-135612142D01*
X84942857Y-135612142D01*
X84847619Y-135564523D01*
X84800000Y-135516904D01*
X84752380Y-135421666D01*
X84752380Y-135183571D01*
X84800000Y-135040714D01*
X85752380Y-134088333D02*
X85752380Y-134659761D01*
X85752380Y-134374047D02*
X84752380Y-134374047D01*
X84895238Y-134469285D01*
X84990476Y-134564523D01*
X85038095Y-134659761D01*
X84752380Y-133755000D02*
X84752380Y-133135952D01*
X85133333Y-133469285D01*
X85133333Y-133326428D01*
X85180952Y-133231190D01*
X85228571Y-133183571D01*
X85323809Y-133135952D01*
X85561904Y-133135952D01*
X85657142Y-133183571D01*
X85704761Y-133231190D01*
X85752380Y-133326428D01*
X85752380Y-133612142D01*
X85704761Y-133707380D01*
X85657142Y-133755000D01*
X85180952Y-132564523D02*
X85133333Y-132659761D01*
X85085714Y-132707380D01*
X84990476Y-132755000D01*
X84942857Y-132755000D01*
X84847619Y-132707380D01*
X84800000Y-132659761D01*
X84752380Y-132564523D01*
X84752380Y-132374047D01*
X84800000Y-132278809D01*
X84847619Y-132231190D01*
X84942857Y-132183571D01*
X84990476Y-132183571D01*
X85085714Y-132231190D01*
X85133333Y-132278809D01*
X85180952Y-132374047D01*
X85180952Y-132564523D01*
X85228571Y-132659761D01*
X85276190Y-132707380D01*
X85371428Y-132755000D01*
X85561904Y-132755000D01*
X85657142Y-132707380D01*
X85704761Y-132659761D01*
X85752380Y-132564523D01*
X85752380Y-132374047D01*
X85704761Y-132278809D01*
X85657142Y-132231190D01*
X85561904Y-132183571D01*
X85371428Y-132183571D01*
X85276190Y-132231190D01*
X85228571Y-132278809D01*
X85180952Y-132374047D01*
X79148333Y-124817142D02*
X79100714Y-124864761D01*
X78957857Y-124912380D01*
X78862619Y-124912380D01*
X78719761Y-124864761D01*
X78624523Y-124769523D01*
X78576904Y-124674285D01*
X78529285Y-124483809D01*
X78529285Y-124340952D01*
X78576904Y-124150476D01*
X78624523Y-124055238D01*
X78719761Y-123960000D01*
X78862619Y-123912380D01*
X78957857Y-123912380D01*
X79100714Y-123960000D01*
X79148333Y-124007619D01*
X80005476Y-123912380D02*
X79815000Y-123912380D01*
X79719761Y-123960000D01*
X79672142Y-124007619D01*
X79576904Y-124150476D01*
X79529285Y-124340952D01*
X79529285Y-124721904D01*
X79576904Y-124817142D01*
X79624523Y-124864761D01*
X79719761Y-124912380D01*
X79910238Y-124912380D01*
X80005476Y-124864761D01*
X80053095Y-124817142D01*
X80100714Y-124721904D01*
X80100714Y-124483809D01*
X80053095Y-124388571D01*
X80005476Y-124340952D01*
X79910238Y-124293333D01*
X79719761Y-124293333D01*
X79624523Y-124340952D01*
X79576904Y-124388571D01*
X79529285Y-124483809D01*
X77732142Y-121372380D02*
X77827380Y-121372380D01*
X77922619Y-121420000D01*
X77970238Y-121467619D01*
X78017857Y-121562857D01*
X78065476Y-121753333D01*
X78065476Y-121991428D01*
X78017857Y-122181904D01*
X77970238Y-122277142D01*
X77922619Y-122324761D01*
X77827380Y-122372380D01*
X77732142Y-122372380D01*
X77636904Y-122324761D01*
X77589285Y-122277142D01*
X77541666Y-122181904D01*
X77494047Y-121991428D01*
X77494047Y-121753333D01*
X77541666Y-121562857D01*
X77589285Y-121467619D01*
X77636904Y-121420000D01*
X77732142Y-121372380D01*
X78494047Y-122277142D02*
X78541666Y-122324761D01*
X78494047Y-122372380D01*
X78446428Y-122324761D01*
X78494047Y-122277142D01*
X78494047Y-122372380D01*
X79494047Y-122372380D02*
X78922619Y-122372380D01*
X79208333Y-122372380D02*
X79208333Y-121372380D01*
X79113095Y-121515238D01*
X79017857Y-121610476D01*
X78922619Y-121658095D01*
X80351190Y-121705714D02*
X80351190Y-122372380D01*
X79922619Y-121705714D02*
X79922619Y-122229523D01*
X79970238Y-122324761D01*
X80065476Y-122372380D01*
X80208333Y-122372380D01*
X80303571Y-122324761D01*
X80351190Y-122277142D01*
X81160714Y-121848571D02*
X80827380Y-121848571D01*
X80827380Y-122372380D02*
X80827380Y-121372380D01*
X81303571Y-121372380D01*
X173763333Y-108942142D02*
X173715714Y-108989761D01*
X173572857Y-109037380D01*
X173477619Y-109037380D01*
X173334761Y-108989761D01*
X173239523Y-108894523D01*
X173191904Y-108799285D01*
X173144285Y-108608809D01*
X173144285Y-108465952D01*
X173191904Y-108275476D01*
X173239523Y-108180238D01*
X173334761Y-108085000D01*
X173477619Y-108037380D01*
X173572857Y-108037380D01*
X173715714Y-108085000D01*
X173763333Y-108132619D01*
X174239523Y-109037380D02*
X174430000Y-109037380D01*
X174525238Y-108989761D01*
X174572857Y-108942142D01*
X174668095Y-108799285D01*
X174715714Y-108608809D01*
X174715714Y-108227857D01*
X174668095Y-108132619D01*
X174620476Y-108085000D01*
X174525238Y-108037380D01*
X174334761Y-108037380D01*
X174239523Y-108085000D01*
X174191904Y-108132619D01*
X174144285Y-108227857D01*
X174144285Y-108465952D01*
X174191904Y-108561190D01*
X174239523Y-108608809D01*
X174334761Y-108656428D01*
X174525238Y-108656428D01*
X174620476Y-108608809D01*
X174668095Y-108561190D01*
X174715714Y-108465952D01*
X172287142Y-110577380D02*
X172382380Y-110577380D01*
X172477619Y-110625000D01*
X172525238Y-110672619D01*
X172572857Y-110767857D01*
X172620476Y-110958333D01*
X172620476Y-111196428D01*
X172572857Y-111386904D01*
X172525238Y-111482142D01*
X172477619Y-111529761D01*
X172382380Y-111577380D01*
X172287142Y-111577380D01*
X172191904Y-111529761D01*
X172144285Y-111482142D01*
X172096666Y-111386904D01*
X172049047Y-111196428D01*
X172049047Y-110958333D01*
X172096666Y-110767857D01*
X172144285Y-110672619D01*
X172191904Y-110625000D01*
X172287142Y-110577380D01*
X173049047Y-111482142D02*
X173096666Y-111529761D01*
X173049047Y-111577380D01*
X173001428Y-111529761D01*
X173049047Y-111482142D01*
X173049047Y-111577380D01*
X174049047Y-111577380D02*
X173477619Y-111577380D01*
X173763333Y-111577380D02*
X173763333Y-110577380D01*
X173668095Y-110720238D01*
X173572857Y-110815476D01*
X173477619Y-110863095D01*
X174906190Y-110910714D02*
X174906190Y-111577380D01*
X174477619Y-110910714D02*
X174477619Y-111434523D01*
X174525238Y-111529761D01*
X174620476Y-111577380D01*
X174763333Y-111577380D01*
X174858571Y-111529761D01*
X174906190Y-111482142D01*
X175715714Y-111053571D02*
X175382380Y-111053571D01*
X175382380Y-111577380D02*
X175382380Y-110577380D01*
X175858571Y-110577380D01*
X157948333Y-90527142D02*
X157900714Y-90574761D01*
X157757857Y-90622380D01*
X157662619Y-90622380D01*
X157519761Y-90574761D01*
X157424523Y-90479523D01*
X157376904Y-90384285D01*
X157329285Y-90193809D01*
X157329285Y-90050952D01*
X157376904Y-89860476D01*
X157424523Y-89765238D01*
X157519761Y-89670000D01*
X157662619Y-89622380D01*
X157757857Y-89622380D01*
X157900714Y-89670000D01*
X157948333Y-89717619D01*
X158281666Y-89622380D02*
X158900714Y-89622380D01*
X158567380Y-90003333D01*
X158710238Y-90003333D01*
X158805476Y-90050952D01*
X158853095Y-90098571D01*
X158900714Y-90193809D01*
X158900714Y-90431904D01*
X158853095Y-90527142D01*
X158805476Y-90574761D01*
X158710238Y-90622380D01*
X158424523Y-90622380D01*
X158329285Y-90574761D01*
X158281666Y-90527142D01*
X156472142Y-87082380D02*
X156567380Y-87082380D01*
X156662619Y-87130000D01*
X156710238Y-87177619D01*
X156757857Y-87272857D01*
X156805476Y-87463333D01*
X156805476Y-87701428D01*
X156757857Y-87891904D01*
X156710238Y-87987142D01*
X156662619Y-88034761D01*
X156567380Y-88082380D01*
X156472142Y-88082380D01*
X156376904Y-88034761D01*
X156329285Y-87987142D01*
X156281666Y-87891904D01*
X156234047Y-87701428D01*
X156234047Y-87463333D01*
X156281666Y-87272857D01*
X156329285Y-87177619D01*
X156376904Y-87130000D01*
X156472142Y-87082380D01*
X157234047Y-87987142D02*
X157281666Y-88034761D01*
X157234047Y-88082380D01*
X157186428Y-88034761D01*
X157234047Y-87987142D01*
X157234047Y-88082380D01*
X158234047Y-88082380D02*
X157662619Y-88082380D01*
X157948333Y-88082380D02*
X157948333Y-87082380D01*
X157853095Y-87225238D01*
X157757857Y-87320476D01*
X157662619Y-87368095D01*
X159091190Y-87415714D02*
X159091190Y-88082380D01*
X158662619Y-87415714D02*
X158662619Y-87939523D01*
X158710238Y-88034761D01*
X158805476Y-88082380D01*
X158948333Y-88082380D01*
X159043571Y-88034761D01*
X159091190Y-87987142D01*
X159900714Y-87558571D02*
X159567380Y-87558571D01*
X159567380Y-88082380D02*
X159567380Y-87082380D01*
X160043571Y-87082380D01*
X129627380Y-136026904D02*
X130436904Y-136026904D01*
X130532142Y-135979285D01*
X130579761Y-135931666D01*
X130627380Y-135836428D01*
X130627380Y-135645952D01*
X130579761Y-135550714D01*
X130532142Y-135503095D01*
X130436904Y-135455476D01*
X129627380Y-135455476D01*
X129627380Y-134503095D02*
X129627380Y-134979285D01*
X130103571Y-135026904D01*
X130055952Y-134979285D01*
X130008333Y-134884047D01*
X130008333Y-134645952D01*
X130055952Y-134550714D01*
X130103571Y-134503095D01*
X130198809Y-134455476D01*
X130436904Y-134455476D01*
X130532142Y-134503095D01*
X130579761Y-134550714D01*
X130627380Y-134645952D01*
X130627380Y-134884047D01*
X130579761Y-134979285D01*
X130532142Y-135026904D01*
X119682380Y-137907857D02*
X119682380Y-137241190D01*
X120682380Y-137669761D01*
X120015714Y-136431666D02*
X120682380Y-136431666D01*
X119634761Y-136669761D02*
X120349047Y-136907857D01*
X120349047Y-136288809D01*
X120682380Y-135431666D02*
X120682380Y-135907857D01*
X119682380Y-135907857D01*
X120634761Y-135145952D02*
X120682380Y-135003095D01*
X120682380Y-134765000D01*
X120634761Y-134669761D01*
X120587142Y-134622142D01*
X120491904Y-134574523D01*
X120396666Y-134574523D01*
X120301428Y-134622142D01*
X120253809Y-134669761D01*
X120206190Y-134765000D01*
X120158571Y-134955476D01*
X120110952Y-135050714D01*
X120063333Y-135098333D01*
X119968095Y-135145952D01*
X119872857Y-135145952D01*
X119777619Y-135098333D01*
X119730000Y-135050714D01*
X119682380Y-134955476D01*
X119682380Y-134717380D01*
X119730000Y-134574523D01*
X120682380Y-133622142D02*
X120682380Y-134193571D01*
X120682380Y-133907857D02*
X119682380Y-133907857D01*
X119825238Y-134003095D01*
X119920476Y-134098333D01*
X119968095Y-134193571D01*
X120682380Y-132669761D02*
X120682380Y-133241190D01*
X120682380Y-132955476D02*
X119682380Y-132955476D01*
X119825238Y-133050714D01*
X119920476Y-133145952D01*
X119968095Y-133241190D01*
X175728333Y-139422142D02*
X175680714Y-139469761D01*
X175537857Y-139517380D01*
X175442619Y-139517380D01*
X175299761Y-139469761D01*
X175204523Y-139374523D01*
X175156904Y-139279285D01*
X175109285Y-139088809D01*
X175109285Y-138945952D01*
X175156904Y-138755476D01*
X175204523Y-138660238D01*
X175299761Y-138565000D01*
X175442619Y-138517380D01*
X175537857Y-138517380D01*
X175680714Y-138565000D01*
X175728333Y-138612619D01*
X176109285Y-138612619D02*
X176156904Y-138565000D01*
X176252142Y-138517380D01*
X176490238Y-138517380D01*
X176585476Y-138565000D01*
X176633095Y-138612619D01*
X176680714Y-138707857D01*
X176680714Y-138803095D01*
X176633095Y-138945952D01*
X176061666Y-139517380D01*
X176680714Y-139517380D01*
X174490238Y-142017380D02*
X174299761Y-142017380D01*
X174204523Y-142065000D01*
X174156904Y-142112619D01*
X174061666Y-142255476D01*
X174014047Y-142445952D01*
X174014047Y-142826904D01*
X174061666Y-142922142D01*
X174109285Y-142969761D01*
X174204523Y-143017380D01*
X174395000Y-143017380D01*
X174490238Y-142969761D01*
X174537857Y-142922142D01*
X174585476Y-142826904D01*
X174585476Y-142588809D01*
X174537857Y-142493571D01*
X174490238Y-142445952D01*
X174395000Y-142398333D01*
X174204523Y-142398333D01*
X174109285Y-142445952D01*
X174061666Y-142493571D01*
X174014047Y-142588809D01*
X175014047Y-142922142D02*
X175061666Y-142969761D01*
X175014047Y-143017380D01*
X174966428Y-142969761D01*
X175014047Y-142922142D01*
X175014047Y-143017380D01*
X175633095Y-142445952D02*
X175537857Y-142398333D01*
X175490238Y-142350714D01*
X175442619Y-142255476D01*
X175442619Y-142207857D01*
X175490238Y-142112619D01*
X175537857Y-142065000D01*
X175633095Y-142017380D01*
X175823571Y-142017380D01*
X175918809Y-142065000D01*
X175966428Y-142112619D01*
X176014047Y-142207857D01*
X176014047Y-142255476D01*
X175966428Y-142350714D01*
X175918809Y-142398333D01*
X175823571Y-142445952D01*
X175633095Y-142445952D01*
X175537857Y-142493571D01*
X175490238Y-142541190D01*
X175442619Y-142636428D01*
X175442619Y-142826904D01*
X175490238Y-142922142D01*
X175537857Y-142969761D01*
X175633095Y-143017380D01*
X175823571Y-143017380D01*
X175918809Y-142969761D01*
X175966428Y-142922142D01*
X176014047Y-142826904D01*
X176014047Y-142636428D01*
X175966428Y-142541190D01*
X175918809Y-142493571D01*
X175823571Y-142445952D01*
X176871190Y-142350714D02*
X176871190Y-143017380D01*
X176442619Y-142350714D02*
X176442619Y-142874523D01*
X176490238Y-142969761D01*
X176585476Y-143017380D01*
X176728333Y-143017380D01*
X176823571Y-142969761D01*
X176871190Y-142922142D01*
X177680714Y-142493571D02*
X177347380Y-142493571D01*
X177347380Y-143017380D02*
X177347380Y-142017380D01*
X177823571Y-142017380D01*
X112923333Y-90527142D02*
X112875714Y-90574761D01*
X112732857Y-90622380D01*
X112637619Y-90622380D01*
X112494761Y-90574761D01*
X112399523Y-90479523D01*
X112351904Y-90384285D01*
X112304285Y-90193809D01*
X112304285Y-90050952D01*
X112351904Y-89860476D01*
X112399523Y-89765238D01*
X112494761Y-89670000D01*
X112637619Y-89622380D01*
X112732857Y-89622380D01*
X112875714Y-89670000D01*
X112923333Y-89717619D01*
X113494761Y-90050952D02*
X113399523Y-90003333D01*
X113351904Y-89955714D01*
X113304285Y-89860476D01*
X113304285Y-89812857D01*
X113351904Y-89717619D01*
X113399523Y-89670000D01*
X113494761Y-89622380D01*
X113685238Y-89622380D01*
X113780476Y-89670000D01*
X113828095Y-89717619D01*
X113875714Y-89812857D01*
X113875714Y-89860476D01*
X113828095Y-89955714D01*
X113780476Y-90003333D01*
X113685238Y-90050952D01*
X113494761Y-90050952D01*
X113399523Y-90098571D01*
X113351904Y-90146190D01*
X113304285Y-90241428D01*
X113304285Y-90431904D01*
X113351904Y-90527142D01*
X113399523Y-90574761D01*
X113494761Y-90622380D01*
X113685238Y-90622380D01*
X113780476Y-90574761D01*
X113828095Y-90527142D01*
X113875714Y-90431904D01*
X113875714Y-90241428D01*
X113828095Y-90146190D01*
X113780476Y-90098571D01*
X113685238Y-90050952D01*
X111447142Y-86447380D02*
X111542380Y-86447380D01*
X111637619Y-86495000D01*
X111685238Y-86542619D01*
X111732857Y-86637857D01*
X111780476Y-86828333D01*
X111780476Y-87066428D01*
X111732857Y-87256904D01*
X111685238Y-87352142D01*
X111637619Y-87399761D01*
X111542380Y-87447380D01*
X111447142Y-87447380D01*
X111351904Y-87399761D01*
X111304285Y-87352142D01*
X111256666Y-87256904D01*
X111209047Y-87066428D01*
X111209047Y-86828333D01*
X111256666Y-86637857D01*
X111304285Y-86542619D01*
X111351904Y-86495000D01*
X111447142Y-86447380D01*
X112209047Y-87352142D02*
X112256666Y-87399761D01*
X112209047Y-87447380D01*
X112161428Y-87399761D01*
X112209047Y-87352142D01*
X112209047Y-87447380D01*
X113209047Y-87447380D02*
X112637619Y-87447380D01*
X112923333Y-87447380D02*
X112923333Y-86447380D01*
X112828095Y-86590238D01*
X112732857Y-86685476D01*
X112637619Y-86733095D01*
X114066190Y-86780714D02*
X114066190Y-87447380D01*
X113637619Y-86780714D02*
X113637619Y-87304523D01*
X113685238Y-87399761D01*
X113780476Y-87447380D01*
X113923333Y-87447380D01*
X114018571Y-87399761D01*
X114066190Y-87352142D01*
X114875714Y-86923571D02*
X114542380Y-86923571D01*
X114542380Y-87447380D02*
X114542380Y-86447380D01*
X115018571Y-86447380D01*
X175312142Y-122912142D02*
X175264523Y-122959761D01*
X175121666Y-123007380D01*
X175026428Y-123007380D01*
X174883571Y-122959761D01*
X174788333Y-122864523D01*
X174740714Y-122769285D01*
X174693095Y-122578809D01*
X174693095Y-122435952D01*
X174740714Y-122245476D01*
X174788333Y-122150238D01*
X174883571Y-122055000D01*
X175026428Y-122007380D01*
X175121666Y-122007380D01*
X175264523Y-122055000D01*
X175312142Y-122102619D01*
X176264523Y-123007380D02*
X175693095Y-123007380D01*
X175978809Y-123007380D02*
X175978809Y-122007380D01*
X175883571Y-122150238D01*
X175788333Y-122245476D01*
X175693095Y-122293095D01*
X176883571Y-122007380D02*
X176978809Y-122007380D01*
X177074047Y-122055000D01*
X177121666Y-122102619D01*
X177169285Y-122197857D01*
X177216904Y-122388333D01*
X177216904Y-122626428D01*
X177169285Y-122816904D01*
X177121666Y-122912142D01*
X177074047Y-122959761D01*
X176978809Y-123007380D01*
X176883571Y-123007380D01*
X176788333Y-122959761D01*
X176740714Y-122912142D01*
X176693095Y-122816904D01*
X176645476Y-122626428D01*
X176645476Y-122388333D01*
X176693095Y-122197857D01*
X176740714Y-122102619D01*
X176788333Y-122055000D01*
X176883571Y-122007380D01*
X172347142Y-124547380D02*
X172442380Y-124547380D01*
X172537619Y-124595000D01*
X172585238Y-124642619D01*
X172632857Y-124737857D01*
X172680476Y-124928333D01*
X172680476Y-125166428D01*
X172632857Y-125356904D01*
X172585238Y-125452142D01*
X172537619Y-125499761D01*
X172442380Y-125547380D01*
X172347142Y-125547380D01*
X172251904Y-125499761D01*
X172204285Y-125452142D01*
X172156666Y-125356904D01*
X172109047Y-125166428D01*
X172109047Y-124928333D01*
X172156666Y-124737857D01*
X172204285Y-124642619D01*
X172251904Y-124595000D01*
X172347142Y-124547380D01*
X173109047Y-125452142D02*
X173156666Y-125499761D01*
X173109047Y-125547380D01*
X173061428Y-125499761D01*
X173109047Y-125452142D01*
X173109047Y-125547380D01*
X174109047Y-125547380D02*
X173537619Y-125547380D01*
X173823333Y-125547380D02*
X173823333Y-124547380D01*
X173728095Y-124690238D01*
X173632857Y-124785476D01*
X173537619Y-124833095D01*
X174966190Y-124880714D02*
X174966190Y-125547380D01*
X174537619Y-124880714D02*
X174537619Y-125404523D01*
X174585238Y-125499761D01*
X174680476Y-125547380D01*
X174823333Y-125547380D01*
X174918571Y-125499761D01*
X174966190Y-125452142D01*
X175775714Y-125023571D02*
X175442380Y-125023571D01*
X175442380Y-125547380D02*
X175442380Y-124547380D01*
X175918571Y-124547380D01*
X178863333Y-127992142D02*
X178815714Y-128039761D01*
X178672857Y-128087380D01*
X178577619Y-128087380D01*
X178434761Y-128039761D01*
X178339523Y-127944523D01*
X178291904Y-127849285D01*
X178244285Y-127658809D01*
X178244285Y-127515952D01*
X178291904Y-127325476D01*
X178339523Y-127230238D01*
X178434761Y-127135000D01*
X178577619Y-127087380D01*
X178672857Y-127087380D01*
X178815714Y-127135000D01*
X178863333Y-127182619D01*
X179768095Y-127087380D02*
X179291904Y-127087380D01*
X179244285Y-127563571D01*
X179291904Y-127515952D01*
X179387142Y-127468333D01*
X179625238Y-127468333D01*
X179720476Y-127515952D01*
X179768095Y-127563571D01*
X179815714Y-127658809D01*
X179815714Y-127896904D01*
X179768095Y-127992142D01*
X179720476Y-128039761D01*
X179625238Y-128087380D01*
X179387142Y-128087380D01*
X179291904Y-128039761D01*
X179244285Y-127992142D01*
X177625238Y-130897380D02*
X177434761Y-130897380D01*
X177339523Y-130945000D01*
X177291904Y-130992619D01*
X177196666Y-131135476D01*
X177149047Y-131325952D01*
X177149047Y-131706904D01*
X177196666Y-131802142D01*
X177244285Y-131849761D01*
X177339523Y-131897380D01*
X177530000Y-131897380D01*
X177625238Y-131849761D01*
X177672857Y-131802142D01*
X177720476Y-131706904D01*
X177720476Y-131468809D01*
X177672857Y-131373571D01*
X177625238Y-131325952D01*
X177530000Y-131278333D01*
X177339523Y-131278333D01*
X177244285Y-131325952D01*
X177196666Y-131373571D01*
X177149047Y-131468809D01*
X178149047Y-131802142D02*
X178196666Y-131849761D01*
X178149047Y-131897380D01*
X178101428Y-131849761D01*
X178149047Y-131802142D01*
X178149047Y-131897380D01*
X178768095Y-131325952D02*
X178672857Y-131278333D01*
X178625238Y-131230714D01*
X178577619Y-131135476D01*
X178577619Y-131087857D01*
X178625238Y-130992619D01*
X178672857Y-130945000D01*
X178768095Y-130897380D01*
X178958571Y-130897380D01*
X179053809Y-130945000D01*
X179101428Y-130992619D01*
X179149047Y-131087857D01*
X179149047Y-131135476D01*
X179101428Y-131230714D01*
X179053809Y-131278333D01*
X178958571Y-131325952D01*
X178768095Y-131325952D01*
X178672857Y-131373571D01*
X178625238Y-131421190D01*
X178577619Y-131516428D01*
X178577619Y-131706904D01*
X178625238Y-131802142D01*
X178672857Y-131849761D01*
X178768095Y-131897380D01*
X178958571Y-131897380D01*
X179053809Y-131849761D01*
X179101428Y-131802142D01*
X179149047Y-131706904D01*
X179149047Y-131516428D01*
X179101428Y-131421190D01*
X179053809Y-131373571D01*
X178958571Y-131325952D01*
X180006190Y-131230714D02*
X180006190Y-131897380D01*
X179577619Y-131230714D02*
X179577619Y-131754523D01*
X179625238Y-131849761D01*
X179720476Y-131897380D01*
X179863333Y-131897380D01*
X179958571Y-131849761D01*
X180006190Y-131802142D01*
X180815714Y-131373571D02*
X180482380Y-131373571D01*
X180482380Y-131897380D02*
X180482380Y-130897380D01*
X180958571Y-130897380D01*
X183348333Y-139422142D02*
X183300714Y-139469761D01*
X183157857Y-139517380D01*
X183062619Y-139517380D01*
X182919761Y-139469761D01*
X182824523Y-139374523D01*
X182776904Y-139279285D01*
X182729285Y-139088809D01*
X182729285Y-138945952D01*
X182776904Y-138755476D01*
X182824523Y-138660238D01*
X182919761Y-138565000D01*
X183062619Y-138517380D01*
X183157857Y-138517380D01*
X183300714Y-138565000D01*
X183348333Y-138612619D01*
X184300714Y-139517380D02*
X183729285Y-139517380D01*
X184015000Y-139517380D02*
X184015000Y-138517380D01*
X183919761Y-138660238D01*
X183824523Y-138755476D01*
X183729285Y-138803095D01*
X182110238Y-142017380D02*
X181919761Y-142017380D01*
X181824523Y-142065000D01*
X181776904Y-142112619D01*
X181681666Y-142255476D01*
X181634047Y-142445952D01*
X181634047Y-142826904D01*
X181681666Y-142922142D01*
X181729285Y-142969761D01*
X181824523Y-143017380D01*
X182015000Y-143017380D01*
X182110238Y-142969761D01*
X182157857Y-142922142D01*
X182205476Y-142826904D01*
X182205476Y-142588809D01*
X182157857Y-142493571D01*
X182110238Y-142445952D01*
X182015000Y-142398333D01*
X181824523Y-142398333D01*
X181729285Y-142445952D01*
X181681666Y-142493571D01*
X181634047Y-142588809D01*
X182634047Y-142922142D02*
X182681666Y-142969761D01*
X182634047Y-143017380D01*
X182586428Y-142969761D01*
X182634047Y-142922142D01*
X182634047Y-143017380D01*
X183253095Y-142445952D02*
X183157857Y-142398333D01*
X183110238Y-142350714D01*
X183062619Y-142255476D01*
X183062619Y-142207857D01*
X183110238Y-142112619D01*
X183157857Y-142065000D01*
X183253095Y-142017380D01*
X183443571Y-142017380D01*
X183538809Y-142065000D01*
X183586428Y-142112619D01*
X183634047Y-142207857D01*
X183634047Y-142255476D01*
X183586428Y-142350714D01*
X183538809Y-142398333D01*
X183443571Y-142445952D01*
X183253095Y-142445952D01*
X183157857Y-142493571D01*
X183110238Y-142541190D01*
X183062619Y-142636428D01*
X183062619Y-142826904D01*
X183110238Y-142922142D01*
X183157857Y-142969761D01*
X183253095Y-143017380D01*
X183443571Y-143017380D01*
X183538809Y-142969761D01*
X183586428Y-142922142D01*
X183634047Y-142826904D01*
X183634047Y-142636428D01*
X183586428Y-142541190D01*
X183538809Y-142493571D01*
X183443571Y-142445952D01*
X184491190Y-142350714D02*
X184491190Y-143017380D01*
X184062619Y-142350714D02*
X184062619Y-142874523D01*
X184110238Y-142969761D01*
X184205476Y-143017380D01*
X184348333Y-143017380D01*
X184443571Y-142969761D01*
X184491190Y-142922142D01*
X185300714Y-142493571D02*
X184967380Y-142493571D01*
X184967380Y-143017380D02*
X184967380Y-142017380D01*
X185443571Y-142017380D01*
X146617142Y-139422142D02*
X146569523Y-139469761D01*
X146426666Y-139517380D01*
X146331428Y-139517380D01*
X146188571Y-139469761D01*
X146093333Y-139374523D01*
X146045714Y-139279285D01*
X145998095Y-139088809D01*
X145998095Y-138945952D01*
X146045714Y-138755476D01*
X146093333Y-138660238D01*
X146188571Y-138565000D01*
X146331428Y-138517380D01*
X146426666Y-138517380D01*
X146569523Y-138565000D01*
X146617142Y-138612619D01*
X147569523Y-139517380D02*
X146998095Y-139517380D01*
X147283809Y-139517380D02*
X147283809Y-138517380D01*
X147188571Y-138660238D01*
X147093333Y-138755476D01*
X146998095Y-138803095D01*
X148521904Y-139517380D02*
X147950476Y-139517380D01*
X148236190Y-139517380D02*
X148236190Y-138517380D01*
X148140952Y-138660238D01*
X148045714Y-138755476D01*
X147950476Y-138803095D01*
X145617142Y-141057380D02*
X145712380Y-141057380D01*
X145807619Y-141105000D01*
X145855238Y-141152619D01*
X145902857Y-141247857D01*
X145950476Y-141438333D01*
X145950476Y-141676428D01*
X145902857Y-141866904D01*
X145855238Y-141962142D01*
X145807619Y-142009761D01*
X145712380Y-142057380D01*
X145617142Y-142057380D01*
X145521904Y-142009761D01*
X145474285Y-141962142D01*
X145426666Y-141866904D01*
X145379047Y-141676428D01*
X145379047Y-141438333D01*
X145426666Y-141247857D01*
X145474285Y-141152619D01*
X145521904Y-141105000D01*
X145617142Y-141057380D01*
X146379047Y-141962142D02*
X146426666Y-142009761D01*
X146379047Y-142057380D01*
X146331428Y-142009761D01*
X146379047Y-141962142D01*
X146379047Y-142057380D01*
X147379047Y-142057380D02*
X146807619Y-142057380D01*
X147093333Y-142057380D02*
X147093333Y-141057380D01*
X146998095Y-141200238D01*
X146902857Y-141295476D01*
X146807619Y-141343095D01*
X148236190Y-141390714D02*
X148236190Y-142057380D01*
X147807619Y-141390714D02*
X147807619Y-141914523D01*
X147855238Y-142009761D01*
X147950476Y-142057380D01*
X148093333Y-142057380D01*
X148188571Y-142009761D01*
X148236190Y-141962142D01*
X149045714Y-141533571D02*
X148712380Y-141533571D01*
X148712380Y-142057380D02*
X148712380Y-141057380D01*
X149188571Y-141057380D01*
X79148333Y-128627142D02*
X79100714Y-128674761D01*
X78957857Y-128722380D01*
X78862619Y-128722380D01*
X78719761Y-128674761D01*
X78624523Y-128579523D01*
X78576904Y-128484285D01*
X78529285Y-128293809D01*
X78529285Y-128150952D01*
X78576904Y-127960476D01*
X78624523Y-127865238D01*
X78719761Y-127770000D01*
X78862619Y-127722380D01*
X78957857Y-127722380D01*
X79100714Y-127770000D01*
X79148333Y-127817619D01*
X79481666Y-127722380D02*
X80148333Y-127722380D01*
X79719761Y-128722380D01*
X75192142Y-130262380D02*
X75287380Y-130262380D01*
X75382619Y-130310000D01*
X75430238Y-130357619D01*
X75477857Y-130452857D01*
X75525476Y-130643333D01*
X75525476Y-130881428D01*
X75477857Y-131071904D01*
X75430238Y-131167142D01*
X75382619Y-131214761D01*
X75287380Y-131262380D01*
X75192142Y-131262380D01*
X75096904Y-131214761D01*
X75049285Y-131167142D01*
X75001666Y-131071904D01*
X74954047Y-130881428D01*
X74954047Y-130643333D01*
X75001666Y-130452857D01*
X75049285Y-130357619D01*
X75096904Y-130310000D01*
X75192142Y-130262380D01*
X75954047Y-131167142D02*
X76001666Y-131214761D01*
X75954047Y-131262380D01*
X75906428Y-131214761D01*
X75954047Y-131167142D01*
X75954047Y-131262380D01*
X76954047Y-131262380D02*
X76382619Y-131262380D01*
X76668333Y-131262380D02*
X76668333Y-130262380D01*
X76573095Y-130405238D01*
X76477857Y-130500476D01*
X76382619Y-130548095D01*
X77811190Y-130595714D02*
X77811190Y-131262380D01*
X77382619Y-130595714D02*
X77382619Y-131119523D01*
X77430238Y-131214761D01*
X77525476Y-131262380D01*
X77668333Y-131262380D01*
X77763571Y-131214761D01*
X77811190Y-131167142D01*
X78620714Y-130738571D02*
X78287380Y-130738571D01*
X78287380Y-131262380D02*
X78287380Y-130262380D01*
X78763571Y-130262380D01*
X166838333Y-139422142D02*
X166790714Y-139469761D01*
X166647857Y-139517380D01*
X166552619Y-139517380D01*
X166409761Y-139469761D01*
X166314523Y-139374523D01*
X166266904Y-139279285D01*
X166219285Y-139088809D01*
X166219285Y-138945952D01*
X166266904Y-138755476D01*
X166314523Y-138660238D01*
X166409761Y-138565000D01*
X166552619Y-138517380D01*
X166647857Y-138517380D01*
X166790714Y-138565000D01*
X166838333Y-138612619D01*
X167695476Y-138850714D02*
X167695476Y-139517380D01*
X167457380Y-138469761D02*
X167219285Y-139184047D01*
X167838333Y-139184047D01*
X165362142Y-141057380D02*
X165457380Y-141057380D01*
X165552619Y-141105000D01*
X165600238Y-141152619D01*
X165647857Y-141247857D01*
X165695476Y-141438333D01*
X165695476Y-141676428D01*
X165647857Y-141866904D01*
X165600238Y-141962142D01*
X165552619Y-142009761D01*
X165457380Y-142057380D01*
X165362142Y-142057380D01*
X165266904Y-142009761D01*
X165219285Y-141962142D01*
X165171666Y-141866904D01*
X165124047Y-141676428D01*
X165124047Y-141438333D01*
X165171666Y-141247857D01*
X165219285Y-141152619D01*
X165266904Y-141105000D01*
X165362142Y-141057380D01*
X166124047Y-141962142D02*
X166171666Y-142009761D01*
X166124047Y-142057380D01*
X166076428Y-142009761D01*
X166124047Y-141962142D01*
X166124047Y-142057380D01*
X167124047Y-142057380D02*
X166552619Y-142057380D01*
X166838333Y-142057380D02*
X166838333Y-141057380D01*
X166743095Y-141200238D01*
X166647857Y-141295476D01*
X166552619Y-141343095D01*
X167981190Y-141390714D02*
X167981190Y-142057380D01*
X167552619Y-141390714D02*
X167552619Y-141914523D01*
X167600238Y-142009761D01*
X167695476Y-142057380D01*
X167838333Y-142057380D01*
X167933571Y-142009761D01*
X167981190Y-141962142D01*
X168790714Y-141533571D02*
X168457380Y-141533571D01*
X168457380Y-142057380D02*
X168457380Y-141057380D01*
X168933571Y-141057380D01*
D13*
X106740000Y-134255000D02*
X106740000Y-132605000D01*
X106740000Y-132605000D02*
X86300000Y-132605000D01*
X86300000Y-132605000D02*
X86300000Y-137905000D01*
X106740000Y-137905000D02*
X106740000Y-136255000D01*
X86300000Y-137905000D02*
X106740000Y-137905000D01*
X106740000Y-134255000D02*
G75*
G03*
X106740000Y-136255000I0J-1000000D01*
G01*
G36*
X156305645Y-83734591D02*
G01*
X156381680Y-83734906D01*
X156442901Y-83735478D01*
X156490582Y-83736346D01*
X156525996Y-83737548D01*
X156550416Y-83739123D01*
X156565117Y-83741110D01*
X156571371Y-83743546D01*
X156571538Y-83745346D01*
X156563493Y-83757492D01*
X156548563Y-83779321D01*
X156529843Y-83806311D01*
X156528108Y-83808796D01*
X156484358Y-83877943D01*
X156442861Y-83955439D01*
X156408255Y-84032436D01*
X156400936Y-84051343D01*
X156388563Y-84087061D01*
X156375692Y-84128303D01*
X156363504Y-84170759D01*
X156353180Y-84210119D01*
X156345900Y-84242073D01*
X156342844Y-84262311D01*
X156342816Y-84263532D01*
X156336796Y-84273052D01*
X156319674Y-84293154D01*
X156292862Y-84322439D01*
X156257772Y-84359505D01*
X156215813Y-84402954D01*
X156168396Y-84451385D01*
X156116934Y-84503400D01*
X156062836Y-84557597D01*
X156007513Y-84612578D01*
X155952377Y-84666943D01*
X155898838Y-84719292D01*
X155848307Y-84768225D01*
X155802196Y-84812343D01*
X155761914Y-84850246D01*
X155728874Y-84880534D01*
X155704485Y-84901807D01*
X155690159Y-84912666D01*
X155687373Y-84913782D01*
X155665774Y-84911805D01*
X155644013Y-84909464D01*
X155566079Y-84900458D01*
X155502492Y-84893164D01*
X155450357Y-84887261D01*
X155406779Y-84882427D01*
X155368864Y-84878340D01*
X155333716Y-84874678D01*
X155305462Y-84871820D01*
X155262797Y-84867417D01*
X155223165Y-84863088D01*
X155191816Y-84859419D01*
X155177420Y-84857529D01*
X155144867Y-84852791D01*
X155144867Y-84065891D01*
X155177420Y-84061152D01*
X155199651Y-84058318D01*
X155233914Y-84054415D01*
X155274954Y-84050027D01*
X155305462Y-84046925D01*
X155357369Y-84041532D01*
X155417018Y-84034977D01*
X155474929Y-84028313D01*
X155500780Y-84025207D01*
X155550838Y-84019408D01*
X155604312Y-84013754D01*
X155653277Y-84009060D01*
X155677320Y-84007034D01*
X155713289Y-84003244D01*
X155740435Y-83998417D01*
X155755136Y-83993264D01*
X155756677Y-83991493D01*
X155764428Y-83965768D01*
X155776049Y-83929974D01*
X155789895Y-83888887D01*
X155804318Y-83847284D01*
X155817674Y-83809942D01*
X155828315Y-83781637D01*
X155832531Y-83771388D01*
X155848824Y-83734495D01*
X156213523Y-83734495D01*
X156305645Y-83734591D01*
G37*
G36*
X159135386Y-82807344D02*
G01*
X159201412Y-82873691D01*
X159259650Y-82932914D01*
X159309359Y-82984228D01*
X159349798Y-83026850D01*
X159380226Y-83059993D01*
X159399901Y-83082875D01*
X159408081Y-83094709D01*
X159408157Y-83096026D01*
X159400559Y-83105655D01*
X159384029Y-83126371D01*
X159360523Y-83155735D01*
X159331999Y-83191313D01*
X159300413Y-83230668D01*
X159267723Y-83271363D01*
X159235885Y-83310962D01*
X159206857Y-83347029D01*
X159182595Y-83377128D01*
X159165056Y-83398821D01*
X159156763Y-83408995D01*
X159145205Y-83423179D01*
X159125996Y-83446974D01*
X159102322Y-83476426D01*
X159088303Y-83493917D01*
X159034234Y-83561447D01*
X159080728Y-83654481D01*
X159100311Y-83694476D01*
X159118017Y-83732103D01*
X159131741Y-83762804D01*
X159138810Y-83780341D01*
X159150397Y-83813166D01*
X158899038Y-84064637D01*
X158844643Y-84118923D01*
X158794023Y-84169185D01*
X158748496Y-84214133D01*
X158709381Y-84252478D01*
X158677993Y-84282931D01*
X158655652Y-84304202D01*
X158643674Y-84315003D01*
X158642041Y-84316108D01*
X158634518Y-84309224D01*
X158631134Y-84302376D01*
X158626758Y-84282365D01*
X158625865Y-84269288D01*
X158623187Y-84247138D01*
X158615934Y-84212975D01*
X158605275Y-84171170D01*
X158592381Y-84126092D01*
X158578420Y-84082113D01*
X158567529Y-84051343D01*
X158537099Y-83977207D01*
X158503524Y-83910571D01*
X158463988Y-83844904D01*
X158426207Y-83786038D01*
X158426207Y-82876895D01*
X158454847Y-82852123D01*
X158480112Y-82830779D01*
X158508846Y-82807197D01*
X158517783Y-82800018D01*
X158534658Y-82786504D01*
X158562517Y-82764119D01*
X158598834Y-82734896D01*
X158641081Y-82700870D01*
X158686733Y-82664073D01*
X158703898Y-82650230D01*
X158855717Y-82527774D01*
X159135386Y-82807344D01*
G37*
G36*
X157882529Y-82152420D02*
G01*
X157885364Y-82174651D01*
X157889266Y-82208914D01*
X157893654Y-82249954D01*
X157896757Y-82280462D01*
X157902149Y-82332369D01*
X157908705Y-82392018D01*
X157915369Y-82449929D01*
X157918475Y-82475780D01*
X157924273Y-82525838D01*
X157929928Y-82579312D01*
X157934622Y-82628277D01*
X157936648Y-82652320D01*
X157940438Y-82688289D01*
X157945264Y-82715435D01*
X157950418Y-82730136D01*
X157952188Y-82731677D01*
X157977913Y-82739428D01*
X158013708Y-82751049D01*
X158054794Y-82764895D01*
X158096397Y-82779318D01*
X158133739Y-82792674D01*
X158162044Y-82803315D01*
X158172294Y-82807531D01*
X158209187Y-82823824D01*
X158209187Y-83188011D01*
X158209137Y-83265622D01*
X158208994Y-83337574D01*
X158208770Y-83402074D01*
X158208473Y-83457329D01*
X158208117Y-83501546D01*
X158207710Y-83532930D01*
X158207264Y-83549690D01*
X158207017Y-83552030D01*
X158199435Y-83547347D01*
X158180792Y-83534881D01*
X158154270Y-83516776D01*
X158135400Y-83503755D01*
X158019310Y-83433675D01*
X157893706Y-83377275D01*
X157760993Y-83335608D01*
X157740424Y-83330648D01*
X157675318Y-83315563D01*
X157351944Y-82993359D01*
X157028569Y-82671154D01*
X157033419Y-82627722D01*
X157036397Y-82601377D01*
X157040754Y-82563232D01*
X157045868Y-82518732D01*
X157050327Y-82480120D01*
X157056396Y-82426411D01*
X157062918Y-82366621D01*
X157068925Y-82309705D01*
X157071900Y-82280462D01*
X157076287Y-82237796D01*
X157080603Y-82198163D01*
X157084265Y-82166815D01*
X157086152Y-82152420D01*
X157090891Y-82119867D01*
X157877791Y-82119867D01*
X157882529Y-82152420D01*
G37*
G36*
X159308143Y-84007576D02*
G01*
X159337968Y-84010882D01*
X159379141Y-84015542D01*
X159425770Y-84020885D01*
X159463562Y-84025261D01*
X159517268Y-84031358D01*
X159577055Y-84037902D01*
X159633969Y-84043922D01*
X159663220Y-84046900D01*
X159705885Y-84051287D01*
X159745518Y-84055603D01*
X159776867Y-84059265D01*
X159791261Y-84061152D01*
X159823814Y-84065891D01*
X159823814Y-84852791D01*
X159791261Y-84857529D01*
X159769030Y-84860364D01*
X159734768Y-84864266D01*
X159693727Y-84868654D01*
X159663220Y-84871757D01*
X159611312Y-84877149D01*
X159551664Y-84883705D01*
X159493753Y-84890369D01*
X159467902Y-84893475D01*
X159417843Y-84899273D01*
X159364369Y-84904928D01*
X159315404Y-84909622D01*
X159291362Y-84911648D01*
X159255411Y-84915436D01*
X159228259Y-84920262D01*
X159213536Y-84925413D01*
X159211983Y-84927188D01*
X159202236Y-84959643D01*
X159188543Y-85001966D01*
X159173054Y-85047770D01*
X159157917Y-85090666D01*
X159148156Y-85116911D01*
X159125603Y-85175506D01*
X158762884Y-85175506D01*
X158685427Y-85175415D01*
X158613625Y-85175156D01*
X158549278Y-85174748D01*
X158494183Y-85174211D01*
X158450137Y-85173563D01*
X158418940Y-85172825D01*
X158402387Y-85172016D01*
X158400164Y-85171582D01*
X158404786Y-85163113D01*
X158417032Y-85144212D01*
X158434474Y-85118602D01*
X158438742Y-85112471D01*
X158484905Y-85039605D01*
X158527866Y-84959100D01*
X158563020Y-84879711D01*
X158567745Y-84867338D01*
X158581314Y-84828143D01*
X158594879Y-84784289D01*
X158607274Y-84740114D01*
X158617337Y-84699955D01*
X158623903Y-84668149D01*
X158625865Y-84650809D01*
X158632001Y-84639983D01*
X158650443Y-84617569D01*
X158681242Y-84583513D01*
X158724450Y-84537761D01*
X158780118Y-84480258D01*
X158848298Y-84410950D01*
X158929041Y-84329783D01*
X158941379Y-84317442D01*
X159256894Y-84002016D01*
X159308143Y-84007576D01*
G37*
G36*
X156332335Y-84601527D02*
G01*
X156337414Y-84620466D01*
X156338458Y-84626446D01*
X156366590Y-84758415D01*
X156408231Y-84884660D01*
X156462255Y-85002138D01*
X156504190Y-85073462D01*
X156542475Y-85132644D01*
X156542475Y-86041787D01*
X156513834Y-86066558D01*
X156488552Y-86087902D01*
X156459804Y-86111459D01*
X156450898Y-86118595D01*
X156433701Y-86132331D01*
X156405625Y-86154827D01*
X156369317Y-86183961D01*
X156327424Y-86217607D01*
X156282593Y-86253643D01*
X156273370Y-86261060D01*
X156230303Y-86295679D01*
X156191548Y-86326793D01*
X156159245Y-86352690D01*
X156135529Y-86371657D01*
X156122539Y-86381981D01*
X156121026Y-86383157D01*
X156112847Y-86378764D01*
X156093372Y-86362643D01*
X156063388Y-86335534D01*
X156023678Y-86298179D01*
X155975026Y-86251320D01*
X155918218Y-86195697D01*
X155854038Y-86132053D01*
X155832344Y-86110386D01*
X155552774Y-85830717D01*
X155675082Y-85678898D01*
X155711335Y-85633922D01*
X155744636Y-85592653D01*
X155773196Y-85557306D01*
X155795226Y-85530094D01*
X155808936Y-85513231D01*
X155811850Y-85509686D01*
X155823433Y-85495508D01*
X155842666Y-85471712D01*
X155866363Y-85442248D01*
X155880473Y-85424647D01*
X155934637Y-85357000D01*
X155896355Y-85281444D01*
X155876361Y-85241217D01*
X155856356Y-85199696D01*
X155839746Y-85163989D01*
X155835364Y-85154176D01*
X155812653Y-85102463D01*
X156066829Y-84848178D01*
X156121554Y-84793573D01*
X156172531Y-84742987D01*
X156218445Y-84697702D01*
X156257985Y-84658999D01*
X156289836Y-84628163D01*
X156312687Y-84606474D01*
X156325224Y-84595216D01*
X156327177Y-84593893D01*
X156332335Y-84601527D01*
G37*
G36*
X158618051Y-85392937D02*
G01*
X159064245Y-85393347D01*
X159103309Y-85442643D01*
X159124961Y-85469886D01*
X159144167Y-85493910D01*
X159156763Y-85509508D01*
X159167877Y-85523210D01*
X159187148Y-85547100D01*
X159212640Y-85578769D01*
X159242418Y-85615806D01*
X159274547Y-85655801D01*
X159307093Y-85696344D01*
X159338121Y-85735025D01*
X159365696Y-85769434D01*
X159387883Y-85797160D01*
X159402746Y-85815794D01*
X159408157Y-85822656D01*
X159403764Y-85830835D01*
X159387643Y-85850309D01*
X159360534Y-85880294D01*
X159323179Y-85920004D01*
X159276320Y-85968655D01*
X159220697Y-86025463D01*
X159157053Y-86089643D01*
X159135386Y-86111337D01*
X158855717Y-86390908D01*
X158703898Y-86268599D01*
X158658922Y-86232347D01*
X158617653Y-86199046D01*
X158582306Y-86170486D01*
X158555094Y-86148456D01*
X158538231Y-86134745D01*
X158534686Y-86131832D01*
X158520508Y-86120249D01*
X158496712Y-86101016D01*
X158467248Y-86077318D01*
X158449647Y-86063208D01*
X158382000Y-86009045D01*
X158306444Y-86047326D01*
X158266514Y-86067184D01*
X158225580Y-86086928D01*
X158190601Y-86103220D01*
X158180820Y-86107591D01*
X158130751Y-86129575D01*
X157874007Y-85873269D01*
X157819277Y-85818448D01*
X157768722Y-85767451D01*
X157723595Y-85721568D01*
X157685146Y-85682090D01*
X157654630Y-85650304D01*
X157633297Y-85627503D01*
X157622402Y-85614976D01*
X157621269Y-85612957D01*
X157631287Y-85609624D01*
X157653511Y-85604860D01*
X157680679Y-85600102D01*
X157809993Y-85570751D01*
X157937178Y-85524530D01*
X158061033Y-85461905D01*
X158105885Y-85434601D01*
X158171858Y-85392526D01*
X158618051Y-85392937D01*
G37*
G36*
X156782492Y-85380189D02*
G01*
X156804321Y-85395119D01*
X156831311Y-85413838D01*
X156833796Y-85415574D01*
X156902943Y-85459323D01*
X156980439Y-85500821D01*
X157057436Y-85535426D01*
X157076343Y-85542745D01*
X157112061Y-85555119D01*
X157153303Y-85567990D01*
X157195759Y-85580177D01*
X157235119Y-85590502D01*
X157267073Y-85597782D01*
X157287311Y-85600837D01*
X157288532Y-85600865D01*
X157297124Y-85606842D01*
X157316736Y-85624008D01*
X157346174Y-85651216D01*
X157384240Y-85687318D01*
X157429740Y-85731168D01*
X157481477Y-85781618D01*
X157538255Y-85837520D01*
X157598880Y-85897728D01*
X157621620Y-85920441D01*
X157941108Y-86240016D01*
X157935761Y-86287204D01*
X157932565Y-86315214D01*
X157928018Y-86354812D01*
X157922772Y-86400338D01*
X157918354Y-86438562D01*
X157912285Y-86492271D01*
X157905764Y-86552060D01*
X157899756Y-86608977D01*
X157896782Y-86638220D01*
X157892394Y-86680885D01*
X157888078Y-86720518D01*
X157884417Y-86751867D01*
X157882529Y-86766261D01*
X157877791Y-86798814D01*
X157090891Y-86798814D01*
X157086152Y-86766261D01*
X157083318Y-86744030D01*
X157079415Y-86709768D01*
X157075027Y-86668727D01*
X157071925Y-86638220D01*
X157066532Y-86586312D01*
X157059977Y-86526664D01*
X157053313Y-86468753D01*
X157050207Y-86442902D01*
X157044408Y-86392843D01*
X157038754Y-86339369D01*
X157034060Y-86290404D01*
X157032034Y-86266362D01*
X157028244Y-86230393D01*
X157023417Y-86203247D01*
X157018264Y-86188545D01*
X157016493Y-86187004D01*
X156990768Y-86179254D01*
X156954974Y-86167632D01*
X156913887Y-86153787D01*
X156872284Y-86139363D01*
X156834942Y-86126008D01*
X156806637Y-86115367D01*
X156796388Y-86111151D01*
X156759495Y-86094858D01*
X156759495Y-85730158D01*
X156759591Y-85638036D01*
X156759906Y-85562002D01*
X156760478Y-85500781D01*
X156761346Y-85453100D01*
X156762548Y-85417686D01*
X156764123Y-85393265D01*
X156766110Y-85378565D01*
X156768546Y-85372310D01*
X156770346Y-85372143D01*
X156782492Y-85380189D01*
G37*
G36*
X156965479Y-84132170D02*
G01*
X157010915Y-84053627D01*
X157070703Y-83979349D01*
X157089365Y-83959742D01*
X157162627Y-83894793D01*
X157240991Y-83844972D01*
X157328082Y-83808108D01*
X157358393Y-83798691D01*
X157396888Y-83788276D01*
X157428279Y-83781919D01*
X157458898Y-83778961D01*
X157495080Y-83778736D01*
X157535094Y-83780209D01*
X157611080Y-83787002D01*
X157676180Y-83800862D01*
X157736005Y-83823449D01*
X157796167Y-83856419D01*
X157799036Y-83858214D01*
X157864465Y-83909327D01*
X157920304Y-83973467D01*
X157964966Y-84048253D01*
X157996860Y-84131304D01*
X158006162Y-84168534D01*
X158012673Y-84211089D01*
X158016166Y-84259630D01*
X158016775Y-84309999D01*
X158014633Y-84358038D01*
X158009876Y-84399590D01*
X158002636Y-84430497D01*
X157997355Y-84441905D01*
X157983086Y-84463681D01*
X157184853Y-84463681D01*
X157185158Y-84500575D01*
X157193673Y-84583333D01*
X157217001Y-84660712D01*
X157253917Y-84730660D01*
X157303197Y-84791123D01*
X157363617Y-84840049D01*
X157399920Y-84860690D01*
X157428396Y-84874478D01*
X157450778Y-84883715D01*
X157471826Y-84889312D01*
X157496302Y-84892181D01*
X157528966Y-84893233D01*
X157570685Y-84893380D01*
X157616502Y-84893056D01*
X157649514Y-84891620D01*
X157674274Y-84888375D01*
X157695332Y-84882626D01*
X157717242Y-84873676D01*
X157726023Y-84869626D01*
X157762029Y-84849771D01*
X157803747Y-84822265D01*
X157845452Y-84791290D01*
X157881418Y-84761027D01*
X157900194Y-84742417D01*
X157917853Y-84728128D01*
X157936374Y-84726219D01*
X157959019Y-84737277D01*
X157984209Y-84757542D01*
X158021888Y-84790979D01*
X157991836Y-84840656D01*
X157933496Y-84921246D01*
X157864021Y-84989289D01*
X157784735Y-85043702D01*
X157696965Y-85083405D01*
X157692349Y-85084994D01*
X157656336Y-85096109D01*
X157622676Y-85103480D01*
X157585496Y-85107992D01*
X157538925Y-85110533D01*
X157519064Y-85111126D01*
X157473101Y-85111519D01*
X157428701Y-85110520D01*
X157391441Y-85108331D01*
X157369948Y-85105755D01*
X157298983Y-85087088D01*
X157225402Y-85057187D01*
X157156505Y-85019074D01*
X157149732Y-85014647D01*
X157080831Y-84958628D01*
X157022071Y-84889762D01*
X156974009Y-84809683D01*
X156937204Y-84720020D01*
X156912215Y-84622408D01*
X156899601Y-84518477D01*
X156899920Y-84409859D01*
X156910605Y-84316108D01*
X156912564Y-84307427D01*
X157184523Y-84307427D01*
X157421240Y-84307378D01*
X157487461Y-84307044D01*
X157548483Y-84306122D01*
X157601809Y-84304695D01*
X157644943Y-84302846D01*
X157675387Y-84300656D01*
X157689617Y-84298536D01*
X157721190Y-84283391D01*
X157741398Y-84257702D01*
X157751229Y-84219768D01*
X157752557Y-84190236D01*
X157743583Y-84128517D01*
X157718921Y-84071158D01*
X157680132Y-84020575D01*
X157628782Y-83979184D01*
X157608402Y-83967458D01*
X157563130Y-83951932D01*
X157509764Y-83946305D01*
X157454386Y-83950451D01*
X157403078Y-83964245D01*
X157385764Y-83972067D01*
X157328567Y-84010970D01*
X157278713Y-84063330D01*
X157238478Y-84125999D01*
X157210141Y-84195827D01*
X157202611Y-84225233D01*
X157196280Y-84254636D01*
X157190773Y-84279802D01*
X157188962Y-84287895D01*
X157184523Y-84307427D01*
X156912564Y-84307427D01*
X156932630Y-84218491D01*
X156965479Y-84132170D01*
G37*
G36*
X156166039Y-82569436D02*
G01*
X156187745Y-82586380D01*
X156219924Y-82611852D01*
X156259637Y-82643493D01*
X156303947Y-82678943D01*
X156349915Y-82715845D01*
X156394603Y-82751837D01*
X156435074Y-82784561D01*
X156468389Y-82811657D01*
X156491609Y-82830766D01*
X156494660Y-82833318D01*
X156511377Y-82846992D01*
X156535250Y-82866099D01*
X156550881Y-82878454D01*
X156589670Y-82908942D01*
X156650710Y-82875960D01*
X156690563Y-82855444D01*
X156736624Y-82833224D01*
X156778994Y-82814075D01*
X156779406Y-82813898D01*
X156847062Y-82784817D01*
X157102765Y-83040411D01*
X157157525Y-83095287D01*
X157208271Y-83146411D01*
X157253723Y-83192474D01*
X157292603Y-83232168D01*
X157323632Y-83264185D01*
X157345533Y-83287216D01*
X157357025Y-83299953D01*
X157358469Y-83302038D01*
X157350716Y-83306601D01*
X157330983Y-83311453D01*
X157317235Y-83313664D01*
X157281307Y-83320141D01*
X157234734Y-83330772D01*
X157183279Y-83344030D01*
X157132702Y-83358387D01*
X157088765Y-83372316D01*
X157068640Y-83379578D01*
X157016897Y-83401823D01*
X156959151Y-83430198D01*
X156903039Y-83460761D01*
X156858425Y-83488083D01*
X156814123Y-83517475D01*
X155893412Y-83517475D01*
X155879990Y-83496991D01*
X155865597Y-83477040D01*
X155854957Y-83464438D01*
X155845649Y-83453665D01*
X155827724Y-83432006D01*
X155803383Y-83402155D01*
X155774828Y-83366803D01*
X155759895Y-83348199D01*
X155726581Y-83306657D01*
X155693064Y-83264937D01*
X155662702Y-83227214D01*
X155638853Y-83197662D01*
X155633627Y-83191208D01*
X155610144Y-83161827D01*
X155588527Y-83134078D01*
X155573185Y-83113627D01*
X155572374Y-83112494D01*
X155553937Y-83086602D01*
X156112775Y-82528540D01*
X156166039Y-82569436D01*
G37*
X151830000Y-81545000D02*
X151830000Y-76085000D01*
X121230000Y-89005000D02*
X151830000Y-89005000D01*
X121230000Y-76085000D02*
X121230000Y-89005000D01*
X151830000Y-76085000D02*
X121230000Y-76085000D01*
X151830000Y-89005000D02*
X151830000Y-83545000D01*
X151830000Y-81545000D02*
G75*
G03*
X151830000Y-83545000I0J-1000000D01*
G01*
X74695000Y-123795000D02*
X74695000Y-122739000D01*
X83935000Y-123795000D02*
X83935000Y-122739000D01*
X83935000Y-122739000D02*
X74695000Y-122739000D01*
X83935000Y-126181000D02*
X83935000Y-125125000D01*
X74695000Y-126181000D02*
X74695000Y-125125000D01*
X83935000Y-126181000D02*
X74695000Y-126181000D01*
X178550000Y-106864000D02*
X169310000Y-106864000D01*
X178550000Y-110306000D02*
X169310000Y-110306000D01*
X169310000Y-107920000D02*
X169310000Y-106864000D01*
X169310000Y-110306000D02*
X169310000Y-109250000D01*
X178550000Y-107920000D02*
X178550000Y-106864000D01*
X178550000Y-110306000D02*
X178550000Y-109250000D01*
X106740000Y-117580000D02*
X106740000Y-112120000D01*
X106740000Y-104660000D02*
X76140000Y-104660000D01*
X106740000Y-110120000D02*
X106740000Y-104660000D01*
X76140000Y-104660000D02*
X76140000Y-117580000D01*
X76140000Y-117580000D02*
X106740000Y-117580000D01*
X106740000Y-110120000D02*
G75*
G03*
X106740000Y-112120000I0J-1000000D01*
G01*
X153495000Y-88449000D02*
X162735000Y-88449000D01*
X162735000Y-88449000D02*
X162735000Y-89505000D01*
X162735000Y-90835000D02*
X162735000Y-91891000D01*
X153495000Y-91891000D02*
X162735000Y-91891000D01*
X153495000Y-90835000D02*
X153495000Y-91891000D01*
X153495000Y-88449000D02*
X153495000Y-89505000D01*
X139130000Y-134265000D02*
X139130000Y-132615000D01*
X139130000Y-137915000D02*
X139130000Y-136265000D01*
X121230000Y-137915000D02*
X139130000Y-137915000D01*
X139130000Y-132615000D02*
X121230000Y-132615000D01*
X121230000Y-132615000D02*
X121230000Y-137915000D01*
X139130000Y-134265000D02*
G75*
G03*
X139130000Y-136265000I0J-1000000D01*
G01*
X173582712Y-137505000D02*
X173582712Y-137955000D01*
X173357712Y-137730000D02*
X173807712Y-137730000D01*
X173775259Y-140125000D02*
G75*
G03*
X178014741Y-140125000I2119741J1060001D01*
G01*
X178014741Y-138005000D02*
G75*
G03*
X173775259Y-138005000I-2119741J-1060001D01*
G01*
X108470000Y-88449000D02*
X117710000Y-88449000D01*
X108470000Y-88449000D02*
X108470000Y-89505000D01*
X117710000Y-88449000D02*
X117710000Y-89505000D01*
X108470000Y-91891000D02*
X117710000Y-91891000D01*
X108470000Y-90835000D02*
X108470000Y-91891000D01*
X117710000Y-90835000D02*
X117710000Y-91891000D01*
X184485000Y-128140000D02*
X185085000Y-128140000D01*
X185085000Y-130940000D02*
X184485000Y-130940000D01*
X185785000Y-128840000D02*
X185785000Y-130240000D01*
X183785000Y-130240000D02*
X183785000Y-128840000D01*
X185085000Y-130940000D02*
G75*
G03*
X185785000Y-130240000I1J699999D01*
G01*
X184485000Y-128140000D02*
G75*
G03*
X183785000Y-128840000I-1J-699999D01*
G01*
X183785000Y-130240000D02*
G75*
G03*
X184485000Y-130940000I699999J-1D01*
G01*
X185785000Y-128840000D02*
G75*
G03*
X185085000Y-128140000I-699999J1D01*
G01*
X106740000Y-89010000D02*
X106740000Y-83550000D01*
X76140000Y-89010000D02*
X106740000Y-89010000D01*
X106740000Y-81550000D02*
X106740000Y-76090000D01*
X106740000Y-76090000D02*
X76140000Y-76090000D01*
X76140000Y-76090000D02*
X76140000Y-89010000D01*
X106740000Y-81550000D02*
G75*
G03*
X106740000Y-83550000I0J-1000000D01*
G01*
X171335000Y-121890000D02*
X171335000Y-120834000D01*
X171335000Y-124276000D02*
X171335000Y-123220000D01*
X180575000Y-124276000D02*
X171335000Y-124276000D01*
X180575000Y-124276000D02*
X180575000Y-123220000D01*
X180575000Y-120834000D02*
X171335000Y-120834000D01*
X180575000Y-121890000D02*
X180575000Y-120834000D01*
X181567288Y-128970000D02*
X181117288Y-128970000D01*
X181342288Y-129195000D02*
X181342288Y-128745000D01*
X176910259Y-128695000D02*
G75*
G03*
X181149741Y-128695000I2119741J1060001D01*
G01*
X181149741Y-126575000D02*
G75*
G03*
X176910259Y-126575000I-2119741J-1060001D01*
G01*
X180977712Y-137730000D02*
X181427712Y-137730000D01*
X181202712Y-137505000D02*
X181202712Y-137955000D01*
X185634741Y-138005000D02*
G75*
G03*
X181395259Y-138005000I-2119741J-1060001D01*
G01*
X181395259Y-140125000D02*
G75*
G03*
X185634741Y-140125000I2119741J1060001D01*
G01*
X151880000Y-138400000D02*
X151880000Y-137344000D01*
X151880000Y-140786000D02*
X142640000Y-140786000D01*
X151880000Y-140786000D02*
X151880000Y-139730000D01*
X151880000Y-137344000D02*
X142640000Y-137344000D01*
X142640000Y-140786000D02*
X142640000Y-139730000D01*
X142640000Y-138400000D02*
X142640000Y-137344000D01*
X83935000Y-126549000D02*
X83935000Y-127605000D01*
X74695000Y-129991000D02*
X83935000Y-129991000D01*
X83935000Y-128935000D02*
X83935000Y-129991000D01*
X74695000Y-128935000D02*
X74695000Y-129991000D01*
X74695000Y-126549000D02*
X74695000Y-127605000D01*
X74695000Y-126549000D02*
X83935000Y-126549000D01*
X151830000Y-117580000D02*
X151830000Y-112120000D01*
X121230000Y-117580000D02*
X151830000Y-117580000D01*
X151830000Y-110120000D02*
X151830000Y-104660000D01*
X151830000Y-104660000D02*
X121230000Y-104660000D01*
X121230000Y-104660000D02*
X121230000Y-117580000D01*
X151830000Y-110120000D02*
G75*
G03*
X151830000Y-112120000I0J-1000000D01*
G01*
X162385000Y-137344000D02*
X162385000Y-138400000D01*
X171625000Y-139730000D02*
X171625000Y-140786000D01*
X162385000Y-139730000D02*
X162385000Y-140786000D01*
X162385000Y-137344000D02*
X171625000Y-137344000D01*
X171625000Y-137344000D02*
X171625000Y-138400000D01*
X162385000Y-140786000D02*
X171625000Y-140786000D01*
%LPC*%
D14*
X100330000Y-121285000D03*
X161925000Y-74930000D03*
X146050000Y-136525000D03*
X100330000Y-124460000D03*
D15*
X105410000Y-131445000D03*
D16*
X102870000Y-131445000D03*
X100330000Y-131445000D03*
X97790000Y-131445000D03*
X95250000Y-131445000D03*
X92710000Y-131445000D03*
X90170000Y-131445000D03*
X87630000Y-131445000D03*
X87630000Y-139065000D03*
X90170000Y-139065000D03*
X92710000Y-139065000D03*
X95250000Y-139065000D03*
X97790000Y-139065000D03*
X100330000Y-139065000D03*
X102870000Y-139065000D03*
X105410000Y-139065000D03*
D14*
X140970000Y-136525000D03*
X97790000Y-124460000D03*
X161290000Y-121285000D03*
X140335000Y-121285000D03*
X153670000Y-124460000D03*
D17*
X192985000Y-95660000D03*
X192985000Y-98200000D03*
X192985000Y-100740000D03*
X192985000Y-103280000D03*
X192985000Y-105820000D03*
X192985000Y-108360000D03*
X192985000Y-110900000D03*
X192985000Y-113440000D03*
X192985000Y-115980000D03*
X192985000Y-118520000D03*
X192985000Y-121060000D03*
X192985000Y-123600000D03*
X192985000Y-126140000D03*
X192985000Y-128680000D03*
X192985000Y-131220000D03*
D14*
X122555000Y-124460000D03*
D15*
X150500000Y-74925000D03*
D16*
X147960000Y-74925000D03*
X145420000Y-74925000D03*
X142880000Y-74925000D03*
X140340000Y-74925000D03*
X137800000Y-74925000D03*
X135260000Y-74925000D03*
X132720000Y-74925000D03*
X130180000Y-74925000D03*
X127640000Y-74925000D03*
X125100000Y-74925000D03*
X122560000Y-74925000D03*
X122560000Y-90165000D03*
X125100000Y-90165000D03*
X127640000Y-90165000D03*
X130180000Y-90165000D03*
X132720000Y-90165000D03*
X135260000Y-90165000D03*
X137800000Y-90165000D03*
X140340000Y-90165000D03*
X142880000Y-90165000D03*
X145420000Y-90165000D03*
X147960000Y-90165000D03*
X150500000Y-90165000D03*
D14*
X82695000Y-134620000D03*
X164465000Y-72390000D03*
X159385000Y-132080000D03*
X166370000Y-121285000D03*
D18*
X83065000Y-124460000D03*
X75565000Y-124460000D03*
D14*
X135255000Y-124460000D03*
X145415000Y-124460000D03*
X87630000Y-124460000D03*
X167005000Y-74930000D03*
X117475000Y-121285000D03*
D18*
X177680000Y-108585000D03*
X170180000Y-108585000D03*
D14*
X163830000Y-124460000D03*
X95250000Y-121285000D03*
X166370000Y-124460000D03*
X92710000Y-124460000D03*
X112395000Y-121285000D03*
X104775000Y-124460000D03*
X142875000Y-121285000D03*
X92710000Y-121285000D03*
X90170000Y-124460000D03*
X156845000Y-135255000D03*
X90170000Y-121285000D03*
X117475000Y-118745000D03*
X132715000Y-124460000D03*
X151130000Y-124460000D03*
X140970000Y-133985000D03*
X135255000Y-121285000D03*
X137795000Y-121285000D03*
X156845000Y-132080000D03*
X142875000Y-124460000D03*
D15*
X105410000Y-103500000D03*
D16*
X102870000Y-103500000D03*
X100330000Y-103500000D03*
X97790000Y-103500000D03*
X95250000Y-103500000D03*
X92710000Y-103500000D03*
X90170000Y-103500000D03*
X87630000Y-103500000D03*
X85090000Y-103500000D03*
X82550000Y-103500000D03*
X80010000Y-103500000D03*
X77470000Y-103500000D03*
X77470000Y-118740000D03*
X80010000Y-118740000D03*
X82550000Y-118740000D03*
X85090000Y-118740000D03*
X87630000Y-118740000D03*
X90170000Y-118740000D03*
X92710000Y-118740000D03*
X95250000Y-118740000D03*
X97790000Y-118740000D03*
X100330000Y-118740000D03*
X102870000Y-118740000D03*
X105410000Y-118740000D03*
D14*
X114935000Y-121285000D03*
X168910000Y-124460000D03*
X140335000Y-124460000D03*
X109855000Y-121285000D03*
X159385000Y-74930000D03*
X154305000Y-135255000D03*
X161290000Y-124460000D03*
X137795000Y-124460000D03*
D18*
X154365000Y-90170000D03*
X161865000Y-90170000D03*
D14*
X117475000Y-124460000D03*
X156210000Y-121285000D03*
X167005000Y-72390000D03*
X95250000Y-124460000D03*
X146050000Y-133985000D03*
X112395000Y-124460000D03*
X158750000Y-121285000D03*
X163830000Y-121285000D03*
X109855000Y-124460000D03*
X145415000Y-121285000D03*
D15*
X137800000Y-131455000D03*
D16*
X135260000Y-131455000D03*
X132720000Y-131455000D03*
X130180000Y-131455000D03*
X127640000Y-131455000D03*
X125100000Y-131455000D03*
X122560000Y-131455000D03*
X122560000Y-139075000D03*
X125100000Y-139075000D03*
X127640000Y-139075000D03*
X130180000Y-139075000D03*
X132720000Y-139075000D03*
X135260000Y-139075000D03*
X137800000Y-139075000D03*
D14*
X169545000Y-72390000D03*
X80010000Y-134620000D03*
D15*
X173395000Y-139065000D03*
D18*
X178395000Y-139065000D03*
X109340000Y-90170000D03*
X116840000Y-90170000D03*
D14*
X156210000Y-124460000D03*
X159385000Y-135255000D03*
D19*
X184785000Y-130190000D03*
D20*
X184785000Y-128890000D03*
D14*
X161925000Y-135255000D03*
X107315000Y-124460000D03*
D15*
X105410000Y-74930000D03*
D16*
X102870000Y-74930000D03*
X100330000Y-74930000D03*
X97790000Y-74930000D03*
X95250000Y-74930000D03*
X92710000Y-74930000D03*
X90170000Y-74930000D03*
X87630000Y-74930000D03*
X85090000Y-74930000D03*
X82550000Y-74930000D03*
X80010000Y-74930000D03*
X77470000Y-74930000D03*
X77470000Y-90170000D03*
X80010000Y-90170000D03*
X82550000Y-90170000D03*
X85090000Y-90170000D03*
X87630000Y-90170000D03*
X90170000Y-90170000D03*
X92710000Y-90170000D03*
X95250000Y-90170000D03*
X97790000Y-90170000D03*
X100330000Y-90170000D03*
X102870000Y-90170000D03*
X105410000Y-90170000D03*
D18*
X179705000Y-122555000D03*
X172205000Y-122555000D03*
D14*
X120015000Y-124460000D03*
D15*
X181530000Y-127635000D03*
D18*
X176530000Y-127635000D03*
D14*
X97790000Y-121285000D03*
D15*
X181015000Y-139065000D03*
D18*
X186015000Y-139065000D03*
X151010000Y-139065000D03*
X143510000Y-139065000D03*
X75565000Y-128270000D03*
X83065000Y-128270000D03*
D14*
X158750000Y-124460000D03*
D15*
X150500000Y-103500000D03*
D16*
X147960000Y-103500000D03*
X145420000Y-103500000D03*
X142880000Y-103500000D03*
X140340000Y-103500000D03*
X137800000Y-103500000D03*
X135260000Y-103500000D03*
X132720000Y-103500000D03*
X130180000Y-103500000D03*
X127640000Y-103500000D03*
X125100000Y-103500000D03*
X122560000Y-103500000D03*
X122560000Y-118740000D03*
X125100000Y-118740000D03*
X127640000Y-118740000D03*
X130180000Y-118740000D03*
X132720000Y-118740000D03*
X135260000Y-118740000D03*
X137800000Y-118740000D03*
X140340000Y-118740000D03*
X142880000Y-118740000D03*
X145420000Y-118740000D03*
X147960000Y-118740000D03*
X150500000Y-118740000D03*
D14*
X169545000Y-74930000D03*
D18*
X163255000Y-139065000D03*
X170755000Y-139065000D03*
D14*
X164465000Y-74930000D03*
M02*
