G04 #@! TF.GenerationSoftware,KiCad,Pcbnew,(6.0.0)*
G04 #@! TF.CreationDate,2022-11-09T00:48:37-05:00*
G04 #@! TF.ProjectId,Sorcerer Rom Pack,536f7263-6572-4657-9220-526f6d205061,rev?*
G04 #@! TF.SameCoordinates,Original*
G04 #@! TF.FileFunction,Copper,L2,Bot*
G04 #@! TF.FilePolarity,Positive*
%FSLAX46Y46*%
G04 Gerber Fmt 4.6, Leading zero omitted, Abs format (unit mm)*
G04 Created by KiCad (PCBNEW (6.0.0)) date 2022-11-09 00:48:37*
%MOMM*%
%LPD*%
G01*
G04 APERTURE LIST*
G04 #@! TA.AperFunction,ComponentPad*
%ADD10R,1.700000X1.700000*%
G04 #@! TD*
G04 #@! TA.AperFunction,ComponentPad*
%ADD11R,1.600000X1.600000*%
G04 #@! TD*
G04 #@! TA.AperFunction,ComponentPad*
%ADD12O,1.600000X1.600000*%
G04 #@! TD*
G04 #@! TA.AperFunction,ConnectorPad*
%ADD13R,7.600000X1.270000*%
G04 #@! TD*
G04 #@! TA.AperFunction,ComponentPad*
%ADD14C,1.600000*%
G04 #@! TD*
G04 #@! TA.AperFunction,ViaPad*
%ADD15C,0.800000*%
G04 #@! TD*
G04 #@! TA.AperFunction,Conductor*
%ADD16C,1.270000*%
G04 #@! TD*
G04 #@! TA.AperFunction,Conductor*
%ADD17C,0.800000*%
G04 #@! TD*
G04 #@! TA.AperFunction,Conductor*
%ADD18C,0.250000*%
G04 #@! TD*
G04 APERTURE END LIST*
D10*
X100330000Y-121285000D03*
X161925000Y-74930000D03*
X146050000Y-136525000D03*
X100330000Y-124460000D03*
D11*
X105410000Y-131445000D03*
D12*
X102870000Y-131445000D03*
X100330000Y-131445000D03*
X97790000Y-131445000D03*
X95250000Y-131445000D03*
X92710000Y-131445000D03*
X90170000Y-131445000D03*
X87630000Y-131445000D03*
X87630000Y-139065000D03*
X90170000Y-139065000D03*
X92710000Y-139065000D03*
X95250000Y-139065000D03*
X97790000Y-139065000D03*
X100330000Y-139065000D03*
X102870000Y-139065000D03*
X105410000Y-139065000D03*
D10*
X140970000Y-136525000D03*
X97790000Y-124460000D03*
X161290000Y-121285000D03*
X140335000Y-121285000D03*
X153670000Y-124460000D03*
D13*
X192985000Y-95660000D03*
X192985000Y-98200000D03*
X192985000Y-100740000D03*
X192985000Y-103280000D03*
X192985000Y-105820000D03*
X192985000Y-108360000D03*
X192985000Y-110900000D03*
X192985000Y-113440000D03*
X192985000Y-115980000D03*
X192985000Y-118520000D03*
X192985000Y-121060000D03*
X192985000Y-123600000D03*
X192985000Y-126140000D03*
X192985000Y-128680000D03*
X192985000Y-131220000D03*
D10*
X122555000Y-124460000D03*
D11*
X150500000Y-74925000D03*
D12*
X147960000Y-74925000D03*
X145420000Y-74925000D03*
X142880000Y-74925000D03*
X140340000Y-74925000D03*
X137800000Y-74925000D03*
X135260000Y-74925000D03*
X132720000Y-74925000D03*
X130180000Y-74925000D03*
X127640000Y-74925000D03*
X125100000Y-74925000D03*
X122560000Y-74925000D03*
X122560000Y-90165000D03*
X125100000Y-90165000D03*
X127640000Y-90165000D03*
X130180000Y-90165000D03*
X132720000Y-90165000D03*
X135260000Y-90165000D03*
X137800000Y-90165000D03*
X140340000Y-90165000D03*
X142880000Y-90165000D03*
X145420000Y-90165000D03*
X147960000Y-90165000D03*
X150500000Y-90165000D03*
D10*
X82695000Y-134620000D03*
X164465000Y-72390000D03*
X159385000Y-132080000D03*
X166370000Y-121285000D03*
D14*
X83065000Y-124460000D03*
X75565000Y-124460000D03*
D10*
X135255000Y-124460000D03*
X145415000Y-124460000D03*
X87630000Y-124460000D03*
X167005000Y-74930000D03*
X117475000Y-121285000D03*
D14*
X177680000Y-108585000D03*
X170180000Y-108585000D03*
D10*
X163830000Y-124460000D03*
X95250000Y-121285000D03*
X166370000Y-124460000D03*
X92710000Y-124460000D03*
X112395000Y-121285000D03*
X104775000Y-124460000D03*
X142875000Y-121285000D03*
X92710000Y-121285000D03*
X90170000Y-124460000D03*
X156845000Y-135255000D03*
X90170000Y-121285000D03*
X117475000Y-118745000D03*
X132715000Y-124460000D03*
X151130000Y-124460000D03*
X140970000Y-133985000D03*
X135255000Y-121285000D03*
X137795000Y-121285000D03*
X156845000Y-132080000D03*
X142875000Y-124460000D03*
D11*
X105410000Y-103500000D03*
D12*
X102870000Y-103500000D03*
X100330000Y-103500000D03*
X97790000Y-103500000D03*
X95250000Y-103500000D03*
X92710000Y-103500000D03*
X90170000Y-103500000D03*
X87630000Y-103500000D03*
X85090000Y-103500000D03*
X82550000Y-103500000D03*
X80010000Y-103500000D03*
X77470000Y-103500000D03*
X77470000Y-118740000D03*
X80010000Y-118740000D03*
X82550000Y-118740000D03*
X85090000Y-118740000D03*
X87630000Y-118740000D03*
X90170000Y-118740000D03*
X92710000Y-118740000D03*
X95250000Y-118740000D03*
X97790000Y-118740000D03*
X100330000Y-118740000D03*
X102870000Y-118740000D03*
X105410000Y-118740000D03*
D10*
X114935000Y-121285000D03*
X168910000Y-124460000D03*
X140335000Y-124460000D03*
X109855000Y-121285000D03*
X159385000Y-74930000D03*
X154305000Y-135255000D03*
X161290000Y-124460000D03*
X137795000Y-124460000D03*
D14*
X154365000Y-90170000D03*
X161865000Y-90170000D03*
D10*
X117475000Y-124460000D03*
X156210000Y-121285000D03*
X167005000Y-72390000D03*
X95250000Y-124460000D03*
X146050000Y-133985000D03*
X112395000Y-124460000D03*
X158750000Y-121285000D03*
X163830000Y-121285000D03*
X109855000Y-124460000D03*
X145415000Y-121285000D03*
D11*
X137800000Y-131455000D03*
D12*
X135260000Y-131455000D03*
X132720000Y-131455000D03*
X130180000Y-131455000D03*
X127640000Y-131455000D03*
X125100000Y-131455000D03*
X122560000Y-131455000D03*
X122560000Y-139075000D03*
X125100000Y-139075000D03*
X127640000Y-139075000D03*
X130180000Y-139075000D03*
X132720000Y-139075000D03*
X135260000Y-139075000D03*
X137800000Y-139075000D03*
D10*
X169545000Y-72390000D03*
X80010000Y-134620000D03*
D11*
X173395000Y-139065000D03*
D14*
X178395000Y-139065000D03*
X109340000Y-90170000D03*
X116840000Y-90170000D03*
D10*
X156210000Y-124460000D03*
X159385000Y-135255000D03*
X161925000Y-135255000D03*
X107315000Y-124460000D03*
D11*
X105410000Y-74930000D03*
D12*
X102870000Y-74930000D03*
X100330000Y-74930000D03*
X97790000Y-74930000D03*
X95250000Y-74930000D03*
X92710000Y-74930000D03*
X90170000Y-74930000D03*
X87630000Y-74930000D03*
X85090000Y-74930000D03*
X82550000Y-74930000D03*
X80010000Y-74930000D03*
X77470000Y-74930000D03*
X77470000Y-90170000D03*
X80010000Y-90170000D03*
X82550000Y-90170000D03*
X85090000Y-90170000D03*
X87630000Y-90170000D03*
X90170000Y-90170000D03*
X92710000Y-90170000D03*
X95250000Y-90170000D03*
X97790000Y-90170000D03*
X100330000Y-90170000D03*
X102870000Y-90170000D03*
X105410000Y-90170000D03*
D14*
X179705000Y-122555000D03*
X172205000Y-122555000D03*
D10*
X120015000Y-124460000D03*
D11*
X181530000Y-127635000D03*
D14*
X176530000Y-127635000D03*
D10*
X97790000Y-121285000D03*
D11*
X181015000Y-139065000D03*
D14*
X186015000Y-139065000D03*
X151010000Y-139065000D03*
X143510000Y-139065000D03*
X75565000Y-128270000D03*
X83065000Y-128270000D03*
D10*
X158750000Y-124460000D03*
D11*
X150500000Y-103500000D03*
D12*
X147960000Y-103500000D03*
X145420000Y-103500000D03*
X142880000Y-103500000D03*
X140340000Y-103500000D03*
X137800000Y-103500000D03*
X135260000Y-103500000D03*
X132720000Y-103500000D03*
X130180000Y-103500000D03*
X127640000Y-103500000D03*
X125100000Y-103500000D03*
X122560000Y-103500000D03*
X122560000Y-118740000D03*
X125100000Y-118740000D03*
X127640000Y-118740000D03*
X130180000Y-118740000D03*
X132720000Y-118740000D03*
X135260000Y-118740000D03*
X137800000Y-118740000D03*
X140340000Y-118740000D03*
X142880000Y-118740000D03*
X145420000Y-118740000D03*
X147960000Y-118740000D03*
X150500000Y-118740000D03*
D10*
X169545000Y-74930000D03*
D14*
X163255000Y-139065000D03*
X170755000Y-139065000D03*
D10*
X164465000Y-74930000D03*
D15*
X155164999Y-103280001D03*
X148590000Y-124460000D03*
X110490000Y-139065000D03*
X178435000Y-113030000D03*
X169545000Y-132715000D03*
X131445000Y-114300000D03*
X187550000Y-121060000D03*
X168275000Y-133985000D03*
X163830000Y-101600000D03*
X179705000Y-108585000D03*
X187550000Y-123600000D03*
X168275000Y-116840000D03*
X168275000Y-135255000D03*
X173355000Y-108585000D03*
X161925000Y-104775000D03*
X140335000Y-128905000D03*
X170180000Y-128905000D03*
X96520000Y-128905000D03*
X187550000Y-118520000D03*
X161290000Y-128905000D03*
X171450000Y-112395000D03*
X112395000Y-128270000D03*
X160020000Y-111760000D03*
X107950000Y-116205000D03*
X152400000Y-111760000D03*
X165735000Y-117475000D03*
X153670000Y-131445000D03*
X147960000Y-76830000D03*
X187550000Y-95660000D03*
X145420000Y-78100000D03*
X142880000Y-78735000D03*
X187550000Y-98200000D03*
X137800000Y-80005000D03*
X187550000Y-100740000D03*
X187550000Y-103280000D03*
X132720000Y-81275000D03*
X145420000Y-88260000D03*
X187550000Y-105820000D03*
X128905000Y-92075000D03*
X83820000Y-92075000D03*
X126365000Y-93345000D03*
X187550000Y-108360000D03*
X81134511Y-93490489D03*
X78594511Y-94760489D03*
X123825000Y-94615000D03*
X122560000Y-95885000D03*
X187735000Y-110900000D03*
X77470000Y-95885000D03*
X80010000Y-97155000D03*
X125100000Y-97155000D03*
X82550000Y-98425000D03*
X187735000Y-113440000D03*
X127635000Y-98425000D03*
X86360000Y-100965000D03*
X130180000Y-99700000D03*
X187735000Y-115980000D03*
X133985000Y-100965000D03*
X88900000Y-100965000D03*
X149135489Y-111849511D03*
X149225000Y-114935000D03*
X114935000Y-131445000D03*
X112395000Y-110490000D03*
X132720000Y-135885000D03*
X163830000Y-106045000D03*
X144145000Y-106045000D03*
X123825000Y-115570000D03*
X91440000Y-114935000D03*
X113030000Y-135890000D03*
X140340000Y-79370000D03*
X135260000Y-80640000D03*
X170815000Y-134620000D03*
X120650000Y-118110000D03*
X116205000Y-139065000D03*
X157480000Y-119380000D03*
X161865000Y-102930000D03*
X161290000Y-107950000D03*
X141605000Y-107315000D03*
X139065000Y-108585000D03*
X158750000Y-109220000D03*
X154305000Y-110490000D03*
X136525000Y-109855000D03*
X114935000Y-113665000D03*
X96520000Y-109220000D03*
X112395000Y-113665000D03*
X92710000Y-111125000D03*
X91440000Y-112395000D03*
X109855000Y-114935000D03*
X99060000Y-107315000D03*
X116205000Y-112395000D03*
X152400000Y-117475000D03*
X126365000Y-117475000D03*
X146050000Y-130175000D03*
X146685000Y-115570000D03*
X128905000Y-115570000D03*
X93980000Y-133350000D03*
X135260000Y-135885000D03*
D16*
X151010000Y-139065000D02*
X151010000Y-141485000D01*
X151130000Y-141605000D02*
X163195000Y-141605000D01*
X181015000Y-136485000D02*
X181015000Y-139065000D01*
X186280000Y-131220000D02*
X181015000Y-136485000D01*
X163195000Y-141605000D02*
X163255000Y-141545000D01*
X163255000Y-141545000D02*
X163255000Y-139065000D01*
D17*
X145415000Y-124460000D02*
X148590000Y-124460000D01*
D16*
X151010000Y-141485000D02*
X151130000Y-141605000D01*
X192985000Y-131220000D02*
X186280000Y-131220000D01*
X163195000Y-141605000D02*
X179070000Y-141605000D01*
X137795000Y-141605000D02*
X151130000Y-141605000D01*
X114935000Y-141605000D02*
X137795000Y-141605000D01*
X137795000Y-141605000D02*
X137800000Y-141600000D01*
X179070000Y-141605000D02*
X181015000Y-139660000D01*
X105410000Y-139065000D02*
X112395000Y-139065000D01*
X181015000Y-139660000D02*
X181015000Y-139065000D01*
X112395000Y-139065000D02*
X114935000Y-141605000D01*
X137800000Y-141600000D02*
X137800000Y-139075000D01*
X179070000Y-134620000D02*
X178435000Y-134620000D01*
X185010000Y-128680000D02*
X179070000Y-134620000D01*
X175895000Y-134620000D02*
X173990000Y-132715000D01*
D17*
X97790000Y-126365000D02*
X97790000Y-124460000D01*
X166370000Y-126365000D02*
X172085000Y-126365000D01*
X84970000Y-126365000D02*
X97790000Y-126365000D01*
D16*
X173990000Y-132715000D02*
X173990000Y-128270000D01*
X178435000Y-134620000D02*
X175895000Y-134620000D01*
D17*
X83065000Y-128270000D02*
X84970000Y-126365000D01*
D16*
X192985000Y-128680000D02*
X185010000Y-128680000D01*
D17*
X120015000Y-124460000D02*
X120015000Y-126365000D01*
X97790000Y-126365000D02*
X120015000Y-126365000D01*
D16*
X178395000Y-139065000D02*
X178395000Y-134660000D01*
X173990000Y-128270000D02*
X172085000Y-126365000D01*
D17*
X142875000Y-124460000D02*
X142875000Y-126365000D01*
X166370000Y-124460000D02*
X166370000Y-126365000D01*
D16*
X178395000Y-134660000D02*
X178435000Y-134620000D01*
D17*
X142875000Y-126365000D02*
X166370000Y-126365000D01*
X120015000Y-126365000D02*
X142875000Y-126365000D01*
X117475000Y-124460000D02*
X117475000Y-123190000D01*
X117475000Y-123190000D02*
X117295489Y-123010489D01*
X92710000Y-123190000D02*
X92889511Y-123010489D01*
X158929511Y-123010489D02*
X159205489Y-123010489D01*
D16*
X181530000Y-127555000D02*
X179705000Y-125730000D01*
D17*
X178305489Y-121155489D02*
X169495000Y-121155489D01*
X169495000Y-121155489D02*
X167640000Y-123010489D01*
X137795000Y-124460000D02*
X137795000Y-123190000D01*
X158750000Y-124460000D02*
X158750000Y-123190000D01*
X159205489Y-123010489D02*
X137974511Y-123010489D01*
X84514511Y-123010489D02*
X83065000Y-124460000D01*
X92889511Y-123010489D02*
X84514511Y-123010489D01*
X167640000Y-123010489D02*
X159205489Y-123010489D01*
X158750000Y-123190000D02*
X158929511Y-123010489D01*
D16*
X179705000Y-125730000D02*
X179705000Y-122555000D01*
X181530000Y-127635000D02*
X181530000Y-127555000D01*
D17*
X137974511Y-123010489D02*
X117295489Y-123010489D01*
X92710000Y-124460000D02*
X92710000Y-123190000D01*
X117295489Y-123010489D02*
X92889511Y-123010489D01*
X179705000Y-122555000D02*
X178305489Y-121155489D01*
X137795000Y-123190000D02*
X137974511Y-123010489D01*
D18*
X131445000Y-114300000D02*
X132625489Y-113119511D01*
X180975000Y-113030000D02*
X178435000Y-113030000D01*
X161925000Y-132715000D02*
X169545000Y-132715000D01*
X154305000Y-135255000D02*
X155479511Y-134080489D01*
X178345489Y-113119511D02*
X178435000Y-113030000D01*
X159385000Y-135255000D02*
X161925000Y-132715000D01*
X132625489Y-113119511D02*
X178345489Y-113119511D01*
X192985000Y-121060000D02*
X189005000Y-121060000D01*
X158210489Y-134080489D02*
X159385000Y-135255000D01*
X155479511Y-134080489D02*
X158210489Y-134080489D01*
X189005000Y-121060000D02*
X180975000Y-113030000D01*
X169545000Y-136525000D02*
X168910000Y-137160000D01*
X168275000Y-133985000D02*
X169545000Y-135255000D01*
X168910000Y-137160000D02*
X158750000Y-137160000D01*
X169545000Y-135255000D02*
X169545000Y-136525000D01*
X163830000Y-101600000D02*
X172720000Y-101600000D01*
X172720000Y-101600000D02*
X179705000Y-108585000D01*
X158750000Y-137160000D02*
X156845000Y-135255000D01*
X180790000Y-116840000D02*
X187550000Y-123600000D01*
X168275000Y-116840000D02*
X180790000Y-116840000D01*
X167640000Y-135255000D02*
X168275000Y-135255000D01*
X167640000Y-135255000D02*
X161925000Y-135255000D01*
X171539511Y-112305489D02*
X181335489Y-112305489D01*
X187550000Y-118520000D02*
X181835000Y-112805000D01*
X112395000Y-128270000D02*
X139700000Y-128270000D01*
X171450000Y-112395000D02*
X171539511Y-112305489D01*
X161290000Y-128905000D02*
X170180000Y-128905000D01*
X173355000Y-108585000D02*
X169545000Y-104775000D01*
X169545000Y-104775000D02*
X161925000Y-104775000D01*
X96520000Y-128905000D02*
X111760000Y-128905000D01*
X181335489Y-112305489D02*
X181835000Y-112805000D01*
X140335000Y-128905000D02*
X161290000Y-128905000D01*
X111760000Y-128905000D02*
X112395000Y-128270000D01*
X139700000Y-128270000D02*
X140335000Y-128905000D01*
X160020000Y-111760000D02*
X152400000Y-111760000D01*
X182085489Y-111670489D02*
X160109511Y-111670489D01*
X127455978Y-112574022D02*
X125730000Y-114300000D01*
X150495000Y-111760000D02*
X149680978Y-112574022D01*
X192985000Y-118520000D02*
X188935000Y-118520000D01*
X116205000Y-114300000D02*
X114300000Y-116205000D01*
X125730000Y-114300000D02*
X116205000Y-114300000D01*
X160109511Y-111670489D02*
X160020000Y-111760000D01*
X152400000Y-111760000D02*
X150495000Y-111760000D01*
X188935000Y-118520000D02*
X182085489Y-111670489D01*
X149680978Y-112574022D02*
X127455978Y-112574022D01*
X114300000Y-116205000D02*
X107950000Y-116205000D01*
X167005000Y-118745000D02*
X165735000Y-117475000D01*
X187735000Y-126140000D02*
X180340000Y-118745000D01*
X192985000Y-126140000D02*
X187735000Y-126140000D01*
X180340000Y-118745000D02*
X167005000Y-118745000D01*
X146050000Y-136525000D02*
X148590000Y-136525000D01*
X148590000Y-136525000D02*
X153670000Y-131445000D01*
X153660000Y-131455000D02*
X137800000Y-131455000D01*
X153670000Y-131445000D02*
X153660000Y-131455000D01*
X105410000Y-74930000D02*
X106529511Y-76049511D01*
X153680000Y-78105000D02*
X150500000Y-74925000D01*
X149375489Y-76049511D02*
X150500000Y-74925000D01*
X163195000Y-78105000D02*
X153680000Y-78105000D01*
X188574614Y-95660000D02*
X178004614Y-85090000D01*
X192985000Y-95660000D02*
X188574614Y-95660000D01*
X178004614Y-85090000D02*
X170180000Y-85090000D01*
X170180000Y-85090000D02*
X163195000Y-78105000D01*
X106529511Y-76049511D02*
X149375489Y-76049511D01*
X104775000Y-76835000D02*
X147955000Y-76835000D01*
X152400000Y-78740000D02*
X150490000Y-76830000D01*
X102870000Y-74930000D02*
X104775000Y-76835000D01*
X177615000Y-85725000D02*
X169545000Y-85725000D01*
X169545000Y-85725000D02*
X162560000Y-78740000D01*
X150490000Y-76830000D02*
X147960000Y-76830000D01*
X147955000Y-76835000D02*
X147960000Y-76830000D01*
X162560000Y-78740000D02*
X152400000Y-78740000D01*
X187550000Y-95660000D02*
X177615000Y-85725000D01*
X151765000Y-79375000D02*
X161925000Y-79375000D01*
X189005000Y-98200000D02*
X192985000Y-98200000D01*
X150490000Y-78100000D02*
X151765000Y-79375000D01*
X102870000Y-77470000D02*
X144790000Y-77470000D01*
X168910000Y-86360000D02*
X177165000Y-86360000D01*
X161925000Y-79375000D02*
X168910000Y-86360000D01*
X177165000Y-86360000D02*
X189005000Y-98200000D01*
X145420000Y-78100000D02*
X150490000Y-78100000D01*
X100330000Y-74930000D02*
X102870000Y-77470000D01*
X144790000Y-77470000D02*
X145420000Y-78100000D01*
X143520000Y-79375000D02*
X142880000Y-78735000D01*
X97790000Y-74930000D02*
X100965000Y-78105000D01*
X187550000Y-98200000D02*
X187550000Y-98015000D01*
X150495000Y-79375000D02*
X143520000Y-79375000D01*
X187550000Y-98015000D02*
X176530000Y-86995000D01*
X161290000Y-80010000D02*
X151130000Y-80010000D01*
X142250000Y-78105000D02*
X142880000Y-78735000D01*
X176530000Y-86995000D02*
X168275000Y-86995000D01*
X168275000Y-86995000D02*
X161290000Y-80010000D01*
X100965000Y-78105000D02*
X142250000Y-78105000D01*
X151130000Y-80010000D02*
X150495000Y-79375000D01*
X167005000Y-88265000D02*
X160020000Y-81280000D01*
X160020000Y-81280000D02*
X149860000Y-81280000D01*
X149860000Y-81280000D02*
X149225000Y-80645000D01*
X187550000Y-100555000D02*
X175260000Y-88265000D01*
X187550000Y-100740000D02*
X187550000Y-100555000D01*
X138440000Y-80645000D02*
X137800000Y-80005000D01*
X97155000Y-79375000D02*
X137170000Y-79375000D01*
X92710000Y-74930000D02*
X97155000Y-79375000D01*
X175260000Y-88265000D02*
X167005000Y-88265000D01*
X137170000Y-79375000D02*
X137800000Y-80005000D01*
X149225000Y-80645000D02*
X138440000Y-80645000D01*
X87630000Y-74930000D02*
X93345000Y-80645000D01*
X147955000Y-81915000D02*
X148590000Y-82550000D01*
X187550000Y-103095000D02*
X187550000Y-103280000D01*
X132090000Y-80645000D02*
X132720000Y-81275000D01*
X148590000Y-82550000D02*
X158750000Y-82550000D01*
X133360000Y-81915000D02*
X147955000Y-81915000D01*
X165735000Y-89535000D02*
X173990000Y-89535000D01*
X158750000Y-82550000D02*
X165735000Y-89535000D01*
X173990000Y-89535000D02*
X187550000Y-103095000D01*
X93345000Y-80645000D02*
X132090000Y-80645000D01*
X132720000Y-81275000D02*
X133360000Y-81915000D01*
X102240000Y-88260000D02*
X145420000Y-88260000D01*
X100330000Y-90170000D02*
X102240000Y-88260000D01*
X189005000Y-105820000D02*
X192985000Y-105820000D01*
X145420000Y-88260000D02*
X147320000Y-86360000D01*
X165100000Y-90170000D02*
X173355000Y-90170000D01*
X147320000Y-86360000D02*
X161290000Y-86360000D01*
X173355000Y-90170000D02*
X189005000Y-105820000D01*
X161290000Y-86360000D02*
X165100000Y-90170000D01*
X102870000Y-90170000D02*
X103999511Y-89040489D01*
X164465000Y-90805000D02*
X172720000Y-90805000D01*
X172720000Y-90805000D02*
X187550000Y-105635000D01*
X149225000Y-88900000D02*
X162560000Y-88900000D01*
X146835489Y-89040489D02*
X147960000Y-90165000D01*
X103999511Y-89040489D02*
X146835489Y-89040489D01*
X162560000Y-88900000D02*
X164465000Y-90805000D01*
X187550000Y-105635000D02*
X187550000Y-105820000D01*
X147960000Y-90165000D02*
X149225000Y-88900000D01*
X128905000Y-92075000D02*
X172720000Y-92075000D01*
X172720000Y-92075000D02*
X189005000Y-108360000D01*
X189005000Y-108360000D02*
X192985000Y-108360000D01*
X128905000Y-92075000D02*
X83820000Y-92075000D01*
X126365000Y-93345000D02*
X172720000Y-93345000D01*
X172720000Y-93345000D02*
X187550000Y-108175000D01*
X81280000Y-93345000D02*
X81134511Y-93490489D01*
X187550000Y-108175000D02*
X187550000Y-108360000D01*
X85725000Y-93345000D02*
X81280000Y-93345000D01*
X85725000Y-93345000D02*
X126365000Y-93345000D01*
X78740000Y-94615000D02*
X78594511Y-94760489D01*
X123825000Y-94615000D02*
X172720000Y-94615000D01*
X172720000Y-94615000D02*
X189005000Y-110900000D01*
X84455000Y-94615000D02*
X78740000Y-94615000D01*
X84455000Y-94615000D02*
X123825000Y-94615000D01*
X189005000Y-110900000D02*
X192985000Y-110900000D01*
X122560000Y-95885000D02*
X172720000Y-95885000D01*
X172720000Y-95885000D02*
X187735000Y-110900000D01*
X122560000Y-95885000D02*
X77470000Y-95885000D01*
X80010000Y-97155000D02*
X125100000Y-97155000D01*
X125100000Y-97155000D02*
X172720000Y-97155000D01*
X172720000Y-97155000D02*
X189005000Y-113440000D01*
X189005000Y-113440000D02*
X192985000Y-113440000D01*
X172630489Y-98335489D02*
X187735000Y-113440000D01*
X127724511Y-98335489D02*
X172630489Y-98335489D01*
X127635000Y-98425000D02*
X127724511Y-98335489D01*
X82550000Y-98425000D02*
X127635000Y-98425000D01*
X172725000Y-99700000D02*
X189005000Y-115980000D01*
X86360000Y-100965000D02*
X87630000Y-99695000D01*
X87630000Y-99695000D02*
X130175000Y-99695000D01*
X189005000Y-115980000D02*
X192985000Y-115980000D01*
X130180000Y-99700000D02*
X172725000Y-99700000D01*
X130175000Y-99695000D02*
X130180000Y-99700000D01*
X133985000Y-100965000D02*
X134074511Y-100875489D01*
X173264771Y-100875489D02*
X187735000Y-115345718D01*
X187735000Y-115345718D02*
X187735000Y-115980000D01*
X88900000Y-100965000D02*
X133985000Y-100965000D01*
X134074511Y-100875489D02*
X173264771Y-100875489D01*
X189065386Y-123600000D02*
X179765386Y-114300000D01*
X148410978Y-111125000D02*
X149135489Y-111849511D01*
X179765386Y-114300000D02*
X149860000Y-114300000D01*
X125100000Y-131455000D02*
X123975489Y-132579511D01*
X118745000Y-131445000D02*
X119879511Y-132579511D01*
X192985000Y-123600000D02*
X189065386Y-123600000D01*
X112395000Y-110490000D02*
X113030000Y-111125000D01*
X114935000Y-131445000D02*
X118745000Y-131445000D01*
X123975489Y-132579511D02*
X119879511Y-132579511D01*
X149860000Y-114300000D02*
X149225000Y-114935000D01*
X113030000Y-111125000D02*
X148410978Y-111125000D01*
X132720000Y-135885000D02*
X132720000Y-131455000D01*
X163830000Y-106045000D02*
X144145000Y-106045000D01*
X107315000Y-117475000D02*
X114300000Y-117475000D01*
X91440000Y-114935000D02*
X104775000Y-114935000D01*
X114300000Y-117475000D02*
X116205000Y-115570000D01*
X104775000Y-114935000D02*
X107315000Y-117475000D01*
X116205000Y-115570000D02*
X123825000Y-115570000D01*
X128905000Y-135890000D02*
X130180000Y-134615000D01*
X130180000Y-134615000D02*
X130180000Y-131455000D01*
X97790000Y-139065000D02*
X99060000Y-137795000D01*
X113030000Y-135890000D02*
X128905000Y-135890000D01*
X100965000Y-135890000D02*
X113030000Y-135890000D01*
X99060000Y-137795000D02*
X100965000Y-135890000D01*
X127640000Y-132710000D02*
X127640000Y-131455000D01*
X95250000Y-139065000D02*
X99695000Y-134620000D01*
X99695000Y-134620000D02*
X125730000Y-134620000D01*
X125730000Y-134620000D02*
X127640000Y-132710000D01*
X189005000Y-100740000D02*
X192985000Y-100740000D01*
X160655000Y-80645000D02*
X167640000Y-87630000D01*
X175895000Y-87630000D02*
X189005000Y-100740000D01*
X167640000Y-87630000D02*
X175895000Y-87630000D01*
X99060000Y-78740000D02*
X139710000Y-78740000D01*
X95250000Y-74930000D02*
X99060000Y-78740000D01*
X139710000Y-78740000D02*
X140340000Y-79370000D01*
X150495000Y-80645000D02*
X160655000Y-80645000D01*
X149860000Y-80010000D02*
X150495000Y-80645000D01*
X140980000Y-80010000D02*
X149860000Y-80010000D01*
X140340000Y-79370000D02*
X140980000Y-80010000D01*
X174625000Y-88900000D02*
X189005000Y-103280000D01*
X90170000Y-74930000D02*
X95250000Y-80010000D01*
X166370000Y-88900000D02*
X174625000Y-88900000D01*
X149225000Y-81915000D02*
X159385000Y-81915000D01*
X148590000Y-81280000D02*
X149225000Y-81915000D01*
X95250000Y-80010000D02*
X134630000Y-80010000D01*
X135900000Y-81280000D02*
X148590000Y-81280000D01*
X134630000Y-80010000D02*
X135260000Y-80640000D01*
X135260000Y-80640000D02*
X135900000Y-81280000D01*
X159385000Y-81915000D02*
X166370000Y-88900000D01*
X189005000Y-103280000D02*
X192985000Y-103280000D01*
D17*
X157480000Y-119380000D02*
X165100000Y-119380000D01*
D16*
X176530000Y-126880000D02*
X172205000Y-122555000D01*
D17*
X165100000Y-119380000D02*
X166370000Y-120650000D01*
D18*
X120650000Y-118110000D02*
X120015000Y-118745000D01*
D17*
X81280000Y-131445000D02*
X87630000Y-131445000D01*
X151130000Y-121285000D02*
X145415000Y-121285000D01*
X153035000Y-119380000D02*
X151130000Y-121285000D01*
D18*
X120015000Y-118745000D02*
X117475000Y-118745000D01*
X108585000Y-118745000D02*
X117475000Y-118745000D01*
X100330000Y-121285000D02*
X106045000Y-121285000D01*
X106045000Y-121285000D02*
X108585000Y-118745000D01*
D17*
X75565000Y-128270000D02*
X78105000Y-128270000D01*
D16*
X172025000Y-102930000D02*
X177680000Y-108585000D01*
X176530000Y-127635000D02*
X176530000Y-126880000D01*
D17*
X95250000Y-131445000D02*
X97790000Y-131445000D01*
D16*
X161865000Y-102930000D02*
X172025000Y-102930000D01*
D17*
X78105000Y-128270000D02*
X81280000Y-131445000D01*
X157480000Y-119380000D02*
X153035000Y-119380000D01*
X87630000Y-131445000D02*
X89029511Y-130045489D01*
X166370000Y-120650000D02*
X166370000Y-121285000D01*
X93850489Y-130045489D02*
X95250000Y-131445000D01*
X89029511Y-130045489D02*
X93850489Y-130045489D01*
D18*
X142240000Y-107950000D02*
X141605000Y-107315000D01*
X161290000Y-107950000D02*
X142240000Y-107950000D01*
X158750000Y-109220000D02*
X139700000Y-109220000D01*
X139700000Y-109220000D02*
X139065000Y-108585000D01*
X154305000Y-110490000D02*
X137160000Y-110490000D01*
X137160000Y-110490000D02*
X136525000Y-109855000D01*
X139699282Y-133985000D02*
X137069771Y-136614511D01*
X140970000Y-133985000D02*
X139699282Y-133985000D01*
X137069771Y-136614511D02*
X102780489Y-136614511D01*
X102780489Y-136614511D02*
X100330000Y-139065000D01*
X107315000Y-109220000D02*
X96520000Y-109220000D01*
X113030000Y-112395000D02*
X110490000Y-112395000D01*
X114935000Y-113665000D02*
X113665000Y-112395000D01*
X113665000Y-112395000D02*
X113030000Y-112395000D01*
X110490000Y-112395000D02*
X107315000Y-109220000D01*
X109220000Y-113665000D02*
X110490000Y-113665000D01*
X106680000Y-111125000D02*
X109220000Y-113665000D01*
X112395000Y-113665000D02*
X110490000Y-113665000D01*
X106680000Y-111125000D02*
X92710000Y-111125000D01*
X105410000Y-112395000D02*
X91440000Y-112395000D01*
X107950000Y-114935000D02*
X105410000Y-112395000D01*
X109855000Y-114935000D02*
X107950000Y-114935000D01*
X115570000Y-111760000D02*
X111760000Y-111760000D01*
X116205000Y-112395000D02*
X115570000Y-111760000D01*
X107315000Y-107315000D02*
X108585000Y-108585000D01*
X99060000Y-107315000D02*
X107315000Y-107315000D01*
X111760000Y-111760000D02*
X108585000Y-108585000D01*
X150495000Y-117475000D02*
X126365000Y-117475000D01*
X150495000Y-117475000D02*
X152400000Y-117475000D01*
X159385000Y-132080000D02*
X158025489Y-130720489D01*
X146595489Y-130720489D02*
X146050000Y-130175000D01*
X128905000Y-115570000D02*
X146685000Y-115570000D01*
X158025489Y-130720489D02*
X146595489Y-130720489D01*
X74295000Y-131254022D02*
X78930978Y-135890000D01*
X78930978Y-135890000D02*
X91440000Y-135890000D01*
X74295000Y-74930000D02*
X74295000Y-131254022D01*
X164465000Y-72390000D02*
X76835000Y-72390000D01*
X76835000Y-72390000D02*
X74295000Y-74930000D01*
X91440000Y-135890000D02*
X93980000Y-133350000D01*
X73845480Y-74743803D02*
X73845480Y-131440219D01*
X167005000Y-72390000D02*
X165830489Y-71215489D01*
X78744781Y-136339520D02*
X92895480Y-136339520D01*
X163099511Y-71215489D02*
X162374520Y-71940480D01*
X99060000Y-132715000D02*
X100330000Y-131445000D01*
X96520000Y-132715000D02*
X92895480Y-136339520D01*
X76648802Y-71940480D02*
X73845480Y-74743803D01*
X99060000Y-132715000D02*
X96520000Y-132715000D01*
X162374520Y-71940480D02*
X76648802Y-71940480D01*
X73845480Y-131440219D02*
X78744781Y-136339520D01*
X165830489Y-71215489D02*
X163099511Y-71215489D01*
X78558584Y-136789040D02*
X73395960Y-131626416D01*
X102870000Y-131445000D02*
X100965000Y-133350000D01*
X73395960Y-74557606D02*
X76462606Y-71490960D01*
X162279031Y-70765969D02*
X167920969Y-70765969D01*
X76462606Y-71490960D02*
X161554040Y-71490960D01*
X100965000Y-133350000D02*
X97048080Y-133350000D01*
X167920969Y-70765969D02*
X169545000Y-72390000D01*
X161554040Y-71490960D02*
X162279031Y-70765969D01*
X97048080Y-133350000D02*
X93609040Y-136789040D01*
X73395960Y-131626416D02*
X73395960Y-74557606D01*
X93609040Y-136789040D02*
X78558584Y-136789040D01*
X102870000Y-139065000D02*
X104140000Y-137795000D01*
X104140000Y-137795000D02*
X136525000Y-137795000D01*
X137795000Y-136525000D02*
X140970000Y-136525000D01*
X136525000Y-137795000D02*
X137795000Y-136525000D01*
X139700000Y-132080000D02*
X138430000Y-133350000D01*
X144145000Y-132080000D02*
X139700000Y-132080000D01*
X135260000Y-132720000D02*
X135260000Y-131455000D01*
X138430000Y-133350000D02*
X135890000Y-133350000D01*
X146050000Y-133985000D02*
X144145000Y-132080000D01*
X135890000Y-133350000D02*
X135260000Y-132720000D01*
X135260000Y-135885000D02*
X135260000Y-131455000D01*
M02*
