G04 #@! TF.GenerationSoftware,KiCad,Pcbnew,(6.0.0)*
G04 #@! TF.CreationDate,2022-11-09T00:48:37-05:00*
G04 #@! TF.ProjectId,Sorcerer Rom Pack,536f7263-6572-4657-9220-526f6d205061,rev?*
G04 #@! TF.SameCoordinates,Original*
G04 #@! TF.FileFunction,Soldermask,Top*
G04 #@! TF.FilePolarity,Negative*
%FSLAX46Y46*%
G04 Gerber Fmt 4.6, Leading zero omitted, Abs format (unit mm)*
G04 Created by KiCad (PCBNEW (6.0.0)) date 2022-11-09 00:48:37*
%MOMM*%
%LPD*%
G01*
G04 APERTURE LIST*
G04 Aperture macros list*
%AMFreePoly0*
4,1,22,0.500000,-0.750000,0.000000,-0.750000,0.000000,-0.745033,-0.079941,-0.743568,-0.215256,-0.701293,-0.333266,-0.622738,-0.424486,-0.514219,-0.481581,-0.384460,-0.499164,-0.250000,-0.500000,-0.250000,-0.500000,0.250000,-0.499164,0.250000,-0.499963,0.256109,-0.478152,0.396186,-0.417904,0.524511,-0.324060,0.630769,-0.204165,0.706417,-0.067858,0.745374,0.000000,0.744959,0.000000,0.750000,
0.500000,0.750000,0.500000,-0.750000,0.500000,-0.750000,$1*%
%AMFreePoly1*
4,1,20,0.000000,0.744959,0.073905,0.744508,0.209726,0.703889,0.328688,0.626782,0.421226,0.519385,0.479903,0.390333,0.500000,0.250000,0.500000,-0.250000,0.499851,-0.262216,0.476331,-0.402017,0.414519,-0.529596,0.319384,-0.634700,0.198574,-0.708877,0.061801,-0.746166,0.000000,-0.745033,0.000000,-0.750000,-0.500000,-0.750000,-0.500000,0.750000,0.000000,0.750000,0.000000,0.744959,
0.000000,0.744959,$1*%
G04 Aperture macros list end*
%ADD10R,1.700000X1.700000*%
%ADD11R,1.600000X1.600000*%
%ADD12O,1.600000X1.600000*%
%ADD13R,7.600000X1.270000*%
%ADD14C,1.600000*%
%ADD15FreePoly0,90.000000*%
%ADD16FreePoly1,90.000000*%
G04 APERTURE END LIST*
D10*
X100330000Y-121285000D03*
X161925000Y-74930000D03*
X146050000Y-136525000D03*
X100330000Y-124460000D03*
D11*
X105410000Y-131445000D03*
D12*
X102870000Y-131445000D03*
X100330000Y-131445000D03*
X97790000Y-131445000D03*
X95250000Y-131445000D03*
X92710000Y-131445000D03*
X90170000Y-131445000D03*
X87630000Y-131445000D03*
X87630000Y-139065000D03*
X90170000Y-139065000D03*
X92710000Y-139065000D03*
X95250000Y-139065000D03*
X97790000Y-139065000D03*
X100330000Y-139065000D03*
X102870000Y-139065000D03*
X105410000Y-139065000D03*
D10*
X140970000Y-136525000D03*
X97790000Y-124460000D03*
X161290000Y-121285000D03*
X140335000Y-121285000D03*
X153670000Y-124460000D03*
D13*
X192985000Y-95660000D03*
X192985000Y-98200000D03*
X192985000Y-100740000D03*
X192985000Y-103280000D03*
X192985000Y-105820000D03*
X192985000Y-108360000D03*
X192985000Y-110900000D03*
X192985000Y-113440000D03*
X192985000Y-115980000D03*
X192985000Y-118520000D03*
X192985000Y-121060000D03*
X192985000Y-123600000D03*
X192985000Y-126140000D03*
X192985000Y-128680000D03*
X192985000Y-131220000D03*
D10*
X122555000Y-124460000D03*
D11*
X150500000Y-74925000D03*
D12*
X147960000Y-74925000D03*
X145420000Y-74925000D03*
X142880000Y-74925000D03*
X140340000Y-74925000D03*
X137800000Y-74925000D03*
X135260000Y-74925000D03*
X132720000Y-74925000D03*
X130180000Y-74925000D03*
X127640000Y-74925000D03*
X125100000Y-74925000D03*
X122560000Y-74925000D03*
X122560000Y-90165000D03*
X125100000Y-90165000D03*
X127640000Y-90165000D03*
X130180000Y-90165000D03*
X132720000Y-90165000D03*
X135260000Y-90165000D03*
X137800000Y-90165000D03*
X140340000Y-90165000D03*
X142880000Y-90165000D03*
X145420000Y-90165000D03*
X147960000Y-90165000D03*
X150500000Y-90165000D03*
D10*
X82695000Y-134620000D03*
X164465000Y-72390000D03*
X159385000Y-132080000D03*
X166370000Y-121285000D03*
D14*
X83065000Y-124460000D03*
X75565000Y-124460000D03*
D10*
X135255000Y-124460000D03*
X145415000Y-124460000D03*
X87630000Y-124460000D03*
X167005000Y-74930000D03*
X117475000Y-121285000D03*
D14*
X177680000Y-108585000D03*
X170180000Y-108585000D03*
D10*
X163830000Y-124460000D03*
X95250000Y-121285000D03*
X166370000Y-124460000D03*
X92710000Y-124460000D03*
X112395000Y-121285000D03*
X104775000Y-124460000D03*
X142875000Y-121285000D03*
X92710000Y-121285000D03*
X90170000Y-124460000D03*
X156845000Y-135255000D03*
X90170000Y-121285000D03*
X117475000Y-118745000D03*
X132715000Y-124460000D03*
X151130000Y-124460000D03*
X140970000Y-133985000D03*
X135255000Y-121285000D03*
X137795000Y-121285000D03*
X156845000Y-132080000D03*
X142875000Y-124460000D03*
D11*
X105410000Y-103500000D03*
D12*
X102870000Y-103500000D03*
X100330000Y-103500000D03*
X97790000Y-103500000D03*
X95250000Y-103500000D03*
X92710000Y-103500000D03*
X90170000Y-103500000D03*
X87630000Y-103500000D03*
X85090000Y-103500000D03*
X82550000Y-103500000D03*
X80010000Y-103500000D03*
X77470000Y-103500000D03*
X77470000Y-118740000D03*
X80010000Y-118740000D03*
X82550000Y-118740000D03*
X85090000Y-118740000D03*
X87630000Y-118740000D03*
X90170000Y-118740000D03*
X92710000Y-118740000D03*
X95250000Y-118740000D03*
X97790000Y-118740000D03*
X100330000Y-118740000D03*
X102870000Y-118740000D03*
X105410000Y-118740000D03*
D10*
X114935000Y-121285000D03*
X168910000Y-124460000D03*
X140335000Y-124460000D03*
X109855000Y-121285000D03*
X159385000Y-74930000D03*
X154305000Y-135255000D03*
X161290000Y-124460000D03*
X137795000Y-124460000D03*
D14*
X154365000Y-90170000D03*
X161865000Y-90170000D03*
D10*
X117475000Y-124460000D03*
X156210000Y-121285000D03*
X167005000Y-72390000D03*
X95250000Y-124460000D03*
X146050000Y-133985000D03*
X112395000Y-124460000D03*
X158750000Y-121285000D03*
X163830000Y-121285000D03*
X109855000Y-124460000D03*
X145415000Y-121285000D03*
D11*
X137800000Y-131455000D03*
D12*
X135260000Y-131455000D03*
X132720000Y-131455000D03*
X130180000Y-131455000D03*
X127640000Y-131455000D03*
X125100000Y-131455000D03*
X122560000Y-131455000D03*
X122560000Y-139075000D03*
X125100000Y-139075000D03*
X127640000Y-139075000D03*
X130180000Y-139075000D03*
X132720000Y-139075000D03*
X135260000Y-139075000D03*
X137800000Y-139075000D03*
D10*
X169545000Y-72390000D03*
X80010000Y-134620000D03*
D11*
X173395000Y-139065000D03*
D14*
X178395000Y-139065000D03*
X109340000Y-90170000D03*
X116840000Y-90170000D03*
D10*
X156210000Y-124460000D03*
X159385000Y-135255000D03*
D15*
X184785000Y-130190000D03*
D16*
X184785000Y-128890000D03*
D10*
X161925000Y-135255000D03*
X107315000Y-124460000D03*
D11*
X105410000Y-74930000D03*
D12*
X102870000Y-74930000D03*
X100330000Y-74930000D03*
X97790000Y-74930000D03*
X95250000Y-74930000D03*
X92710000Y-74930000D03*
X90170000Y-74930000D03*
X87630000Y-74930000D03*
X85090000Y-74930000D03*
X82550000Y-74930000D03*
X80010000Y-74930000D03*
X77470000Y-74930000D03*
X77470000Y-90170000D03*
X80010000Y-90170000D03*
X82550000Y-90170000D03*
X85090000Y-90170000D03*
X87630000Y-90170000D03*
X90170000Y-90170000D03*
X92710000Y-90170000D03*
X95250000Y-90170000D03*
X97790000Y-90170000D03*
X100330000Y-90170000D03*
X102870000Y-90170000D03*
X105410000Y-90170000D03*
D14*
X179705000Y-122555000D03*
X172205000Y-122555000D03*
D10*
X120015000Y-124460000D03*
D11*
X181530000Y-127635000D03*
D14*
X176530000Y-127635000D03*
D10*
X97790000Y-121285000D03*
D11*
X181015000Y-139065000D03*
D14*
X186015000Y-139065000D03*
X151010000Y-139065000D03*
X143510000Y-139065000D03*
X75565000Y-128270000D03*
X83065000Y-128270000D03*
D10*
X158750000Y-124460000D03*
D11*
X150500000Y-103500000D03*
D12*
X147960000Y-103500000D03*
X145420000Y-103500000D03*
X142880000Y-103500000D03*
X140340000Y-103500000D03*
X137800000Y-103500000D03*
X135260000Y-103500000D03*
X132720000Y-103500000D03*
X130180000Y-103500000D03*
X127640000Y-103500000D03*
X125100000Y-103500000D03*
X122560000Y-103500000D03*
X122560000Y-118740000D03*
X125100000Y-118740000D03*
X127640000Y-118740000D03*
X130180000Y-118740000D03*
X132720000Y-118740000D03*
X135260000Y-118740000D03*
X137800000Y-118740000D03*
X140340000Y-118740000D03*
X142880000Y-118740000D03*
X145420000Y-118740000D03*
X147960000Y-118740000D03*
X150500000Y-118740000D03*
D10*
X169545000Y-74930000D03*
D14*
X163255000Y-139065000D03*
X170755000Y-139065000D03*
D10*
X164465000Y-74930000D03*
M02*
