%FSLAX45Y45*%
G04 Gerber Fmt 4.5, Leading zero omitted, Abs format (unit mm)*
G04 Created by KiCad (PCBNEW (6.0.0)) date 2022-11-09 00:48:39*
%MOMM*%
%LPD*%
G01*
G04 APERTURE LIST*
%TA.AperFunction,Profile*%
%ADD10C,0.100000*%
%TD*%
%ADD11C,0.200000*%
G04 APERTURE END LIST*
D10*
X18918500Y-9323430D02*
X18918500Y-8351430D01*
X11946500Y-10644930D02*
G75*
G03*
X11946500Y-10644930I-412500J0D01*
G01*
X18918500Y-8351430D02*
X17140500Y-8351430D01*
X17140500Y-8351430D02*
X17140500Y-7048430D01*
X18918500Y-13364570D02*
X18918500Y-14379570D01*
X6981500Y-7048430D02*
X6981500Y-13236430D01*
X8141500Y-14379570D02*
X6981500Y-13236430D01*
X18918500Y-14379570D02*
X8141500Y-14379570D01*
X17140500Y-7048430D02*
X6981500Y-7048430D01*
D11*
X7234119Y-14695046D02*
X7234119Y-14495046D01*
X7281738Y-14495046D01*
X7310309Y-14504570D01*
X7329357Y-14523618D01*
X7338881Y-14542665D01*
X7348405Y-14580760D01*
X7348405Y-14609332D01*
X7338881Y-14647427D01*
X7329357Y-14666475D01*
X7310309Y-14685522D01*
X7281738Y-14695046D01*
X7234119Y-14695046D01*
X7434119Y-14695046D02*
X7434119Y-14561713D01*
X7434119Y-14599808D02*
X7443643Y-14580760D01*
X7453167Y-14571237D01*
X7472214Y-14561713D01*
X7491262Y-14561713D01*
X7557928Y-14695046D02*
X7557928Y-14561713D01*
X7557928Y-14495046D02*
X7548405Y-14504570D01*
X7557928Y-14514094D01*
X7567452Y-14504570D01*
X7557928Y-14495046D01*
X7557928Y-14514094D01*
X7681738Y-14695046D02*
X7662690Y-14685522D01*
X7653167Y-14666475D01*
X7653167Y-14495046D01*
X7786500Y-14695046D02*
X7767452Y-14685522D01*
X7757928Y-14666475D01*
X7757928Y-14495046D01*
X8015071Y-14695046D02*
X8015071Y-14495046D01*
X8081738Y-14637903D01*
X8148405Y-14495046D01*
X8148405Y-14695046D01*
X8329357Y-14695046D02*
X8329357Y-14590284D01*
X8319833Y-14571237D01*
X8300786Y-14561713D01*
X8262690Y-14561713D01*
X8243643Y-14571237D01*
X8329357Y-14685522D02*
X8310309Y-14695046D01*
X8262690Y-14695046D01*
X8243643Y-14685522D01*
X8234119Y-14666475D01*
X8234119Y-14647427D01*
X8243643Y-14628379D01*
X8262690Y-14618856D01*
X8310309Y-14618856D01*
X8329357Y-14609332D01*
X8424595Y-14561713D02*
X8424595Y-14761713D01*
X8424595Y-14571237D02*
X8443643Y-14561713D01*
X8481738Y-14561713D01*
X8500786Y-14571237D01*
X8510310Y-14580760D01*
X8519833Y-14599808D01*
X8519833Y-14656951D01*
X8510310Y-14675998D01*
X8500786Y-14685522D01*
X8481738Y-14695046D01*
X8443643Y-14695046D01*
X8424595Y-14685522D01*
X8605548Y-14675998D02*
X8615071Y-14685522D01*
X8605548Y-14695046D01*
X8596024Y-14685522D01*
X8605548Y-14675998D01*
X8605548Y-14695046D01*
X8605548Y-14571237D02*
X8615071Y-14580760D01*
X8605548Y-14590284D01*
X8596024Y-14580760D01*
X8605548Y-14571237D01*
X8605548Y-14590284D01*
M02*
