%FSLAX45Y45*%
G04 Gerber Fmt 4.5, Leading zero omitted, Abs format (unit mm)*
G04 Created by KiCad (PCBNEW (6.0.0)) date 2022-11-09 00:48:39*
%MOMM*%
%LPD*%
G01*
G04 APERTURE LIST*
%TA.AperFunction,Profile*%
%ADD10C,0.100000*%
%TD*%
%ADD11C,0.200000*%
%ADD12C,0.040000*%
%ADD13C,0.080000*%
%ADD14C,0.100000*%
G04 APERTURE END LIST*
D10*
X18918500Y-9323430D02*
X18918500Y-8351430D01*
X11946500Y-10644930D02*
G75*
G03*
X11946500Y-10644930I-412500J0D01*
G01*
X18918500Y-8351430D02*
X17140500Y-8351430D01*
X17140500Y-8351430D02*
X17140500Y-7048430D01*
X18918500Y-13364570D02*
X18918500Y-14379570D01*
X6981500Y-7048430D02*
X6981500Y-13236430D01*
X8141500Y-14379570D02*
X6981500Y-13236430D01*
X18918500Y-14379570D02*
X8141500Y-14379570D01*
X17140500Y-7048430D02*
X6981500Y-7048430D01*
D11*
D12*
X7727000Y-9568500D02*
X7767000Y-9608500D01*
X7767000Y-9568500D02*
X7727000Y-9608500D01*
X7839451Y-9456049D02*
X7879451Y-9496049D01*
X7879451Y-9456049D02*
X7839451Y-9496049D01*
X7981000Y-9695500D02*
X8021000Y-9735500D01*
X8021000Y-9695500D02*
X7981000Y-9735500D01*
X8093451Y-9329049D02*
X8133451Y-9369049D01*
X8133451Y-9329049D02*
X8093451Y-9369049D01*
X8235000Y-9822500D02*
X8275000Y-9862500D01*
X8275000Y-9822500D02*
X8235000Y-9862500D01*
X8362000Y-9187500D02*
X8402000Y-9227500D01*
X8402000Y-9187500D02*
X8362000Y-9227500D01*
X8616000Y-10076500D02*
X8656000Y-10116500D01*
X8656000Y-10076500D02*
X8616000Y-10116500D01*
X8870000Y-10076500D02*
X8910000Y-10116500D01*
X8910000Y-10076500D02*
X8870000Y-10116500D01*
X9124000Y-11219500D02*
X9164000Y-11259500D01*
X9164000Y-11219500D02*
X9124000Y-11259500D01*
X9124000Y-11473500D02*
X9164000Y-11513500D01*
X9164000Y-11473500D02*
X9124000Y-11513500D01*
X9251000Y-11092500D02*
X9291000Y-11132500D01*
X9291000Y-11092500D02*
X9251000Y-11132500D01*
X9378000Y-13315000D02*
X9418000Y-13355000D01*
X9418000Y-13315000D02*
X9378000Y-13355000D01*
X9632000Y-10902000D02*
X9672000Y-10942000D01*
X9672000Y-10902000D02*
X9632000Y-10942000D01*
X9632000Y-12870500D02*
X9672000Y-12910500D01*
X9672000Y-12870500D02*
X9632000Y-12910500D01*
X9886000Y-10711500D02*
X9926000Y-10751500D01*
X9926000Y-10711500D02*
X9886000Y-10751500D01*
X10775000Y-11600500D02*
X10815000Y-11640500D01*
X10815000Y-11600500D02*
X10775000Y-11640500D01*
X10965500Y-11473500D02*
X11005500Y-11513500D01*
X11005500Y-11473500D02*
X10965500Y-11513500D01*
X11029000Y-13886500D02*
X11069000Y-13926500D01*
X11069000Y-13886500D02*
X11029000Y-13926500D01*
X11219500Y-11029000D02*
X11259500Y-11069000D01*
X11259500Y-11029000D02*
X11219500Y-11069000D01*
X11219500Y-11346500D02*
X11259500Y-11386500D01*
X11259500Y-11346500D02*
X11219500Y-11386500D01*
X11219500Y-12807000D02*
X11259500Y-12847000D01*
X11259500Y-12807000D02*
X11219500Y-12847000D01*
X11283000Y-13569000D02*
X11323000Y-13609000D01*
X11323000Y-13569000D02*
X11283000Y-13609000D01*
X11473500Y-11346500D02*
X11513500Y-11386500D01*
X11513500Y-11346500D02*
X11473500Y-11386500D01*
X11473500Y-13124500D02*
X11513500Y-13164500D01*
X11513500Y-13124500D02*
X11473500Y-13164500D01*
X11600500Y-11219500D02*
X11640500Y-11259500D01*
X11640500Y-11219500D02*
X11600500Y-11259500D01*
X11600500Y-13886500D02*
X11640500Y-13926500D01*
X11640500Y-13886500D02*
X11600500Y-13926500D01*
X12045000Y-11791000D02*
X12085000Y-11831000D01*
X12085000Y-11791000D02*
X12045000Y-11831000D01*
X12236000Y-9568500D02*
X12276000Y-9608500D01*
X12276000Y-9568500D02*
X12236000Y-9608500D01*
X12362500Y-9441500D02*
X12402500Y-9481500D01*
X12402500Y-9441500D02*
X12362500Y-9481500D01*
X12362500Y-11537000D02*
X12402500Y-11577000D01*
X12402500Y-11537000D02*
X12362500Y-11577000D01*
X12490000Y-9695500D02*
X12530000Y-9735500D01*
X12530000Y-9695500D02*
X12490000Y-9735500D01*
X12616500Y-9314500D02*
X12656500Y-9354500D01*
X12656500Y-9314500D02*
X12616500Y-9354500D01*
X12616500Y-11727500D02*
X12656500Y-11767500D01*
X12656500Y-11727500D02*
X12616500Y-11767500D01*
X12743500Y-9822500D02*
X12783500Y-9862500D01*
X12783500Y-9822500D02*
X12743500Y-9862500D01*
X12870500Y-9187500D02*
X12910500Y-9227500D01*
X12910500Y-9187500D02*
X12870500Y-9227500D01*
X12870500Y-11537000D02*
X12910500Y-11577000D01*
X12910500Y-11537000D02*
X12870500Y-11577000D01*
X12998000Y-9950000D02*
X13038000Y-9990000D01*
X13038000Y-9950000D02*
X12998000Y-9990000D01*
X13124500Y-11410000D02*
X13164500Y-11450000D01*
X13164500Y-11410000D02*
X13124500Y-11450000D01*
X13252000Y-8107500D02*
X13292000Y-8147500D01*
X13292000Y-8107500D02*
X13252000Y-8147500D01*
X13252000Y-13568500D02*
X13292000Y-13608500D01*
X13292000Y-13568500D02*
X13252000Y-13608500D01*
X13378500Y-10076500D02*
X13418500Y-10116500D01*
X13418500Y-10076500D02*
X13378500Y-10116500D01*
X13506000Y-8044000D02*
X13546000Y-8084000D01*
X13546000Y-8044000D02*
X13506000Y-8084000D01*
X13506000Y-13568500D02*
X13546000Y-13608500D01*
X13546000Y-13568500D02*
X13506000Y-13608500D01*
X13632500Y-10965500D02*
X13672500Y-11005500D01*
X13672500Y-10965500D02*
X13632500Y-11005500D01*
X13760000Y-7980500D02*
X13800000Y-8020500D01*
X13800000Y-7980500D02*
X13760000Y-8020500D01*
X13886500Y-10838500D02*
X13926500Y-10878500D01*
X13926500Y-10838500D02*
X13886500Y-10878500D01*
X14013500Y-12870500D02*
X14053500Y-12910500D01*
X14053500Y-12870500D02*
X14013500Y-12910500D01*
X14014000Y-7917000D02*
X14054000Y-7957000D01*
X14054000Y-7917000D02*
X14014000Y-7957000D01*
X14140500Y-10711500D02*
X14180500Y-10751500D01*
X14180500Y-10711500D02*
X14140500Y-10751500D01*
X14268000Y-7853500D02*
X14308000Y-7893500D01*
X14308000Y-7853500D02*
X14268000Y-7893500D01*
X14394500Y-10584500D02*
X14434500Y-10624500D01*
X14434500Y-10584500D02*
X14394500Y-10624500D01*
X14522000Y-7790000D02*
X14562000Y-7830000D01*
X14562000Y-7790000D02*
X14522000Y-7830000D01*
X14522000Y-8806000D02*
X14562000Y-8846000D01*
X14562000Y-8806000D02*
X14522000Y-8846000D01*
X14585000Y-12997500D02*
X14625000Y-13037500D01*
X14625000Y-12997500D02*
X14585000Y-13037500D01*
X14648500Y-11537000D02*
X14688500Y-11577000D01*
X14688500Y-11537000D02*
X14648500Y-11577000D01*
X14776000Y-7663000D02*
X14816000Y-7703000D01*
X14816000Y-7663000D02*
X14776000Y-7703000D01*
X14839000Y-12426000D02*
X14879000Y-12466000D01*
X14879000Y-12426000D02*
X14839000Y-12466000D01*
X14893549Y-11164951D02*
X14933549Y-11204951D01*
X14933549Y-11164951D02*
X14893549Y-11204951D01*
X14902500Y-11473500D02*
X14942500Y-11513500D01*
X14942500Y-11473500D02*
X14902500Y-11513500D01*
X15220000Y-11156000D02*
X15260000Y-11196000D01*
X15260000Y-11156000D02*
X15220000Y-11196000D01*
X15220000Y-11727500D02*
X15260000Y-11767500D01*
X15260000Y-11727500D02*
X15220000Y-11767500D01*
X15347000Y-13124500D02*
X15387000Y-13164500D01*
X15387000Y-13124500D02*
X15347000Y-13164500D01*
X15410500Y-11029000D02*
X15450500Y-11069000D01*
X15450500Y-11029000D02*
X15410500Y-11069000D01*
X15496500Y-10308000D02*
X15536500Y-10348000D01*
X15536500Y-10308000D02*
X15496500Y-10348000D01*
X15728000Y-11918000D02*
X15768000Y-11958000D01*
X15768000Y-11918000D02*
X15728000Y-11958000D01*
X15855000Y-10902000D02*
X15895000Y-10942000D01*
X15895000Y-10902000D02*
X15855000Y-10942000D01*
X15982000Y-11156000D02*
X16022000Y-11196000D01*
X16022000Y-11156000D02*
X15982000Y-11196000D01*
X16109000Y-10775000D02*
X16149000Y-10815000D01*
X16149000Y-10775000D02*
X16109000Y-10815000D01*
X16109000Y-12870500D02*
X16149000Y-12910500D01*
X16149000Y-12870500D02*
X16109000Y-12910500D01*
X16166500Y-10273000D02*
X16206500Y-10313000D01*
X16206500Y-10273000D02*
X16166500Y-10313000D01*
X16172500Y-10457500D02*
X16212500Y-10497500D01*
X16212500Y-10457500D02*
X16172500Y-10497500D01*
X16363000Y-10140000D02*
X16403000Y-10180000D01*
X16403000Y-10140000D02*
X16363000Y-10180000D01*
X16363000Y-10584500D02*
X16403000Y-10624500D01*
X16403000Y-10584500D02*
X16363000Y-10624500D01*
X16553500Y-11727500D02*
X16593500Y-11767500D01*
X16593500Y-11727500D02*
X16553500Y-11767500D01*
X16807500Y-11664000D02*
X16847500Y-11704000D01*
X16847500Y-11664000D02*
X16807500Y-11704000D01*
X16807500Y-13378500D02*
X16847500Y-13418500D01*
X16847500Y-13378500D02*
X16807500Y-13418500D01*
X16807500Y-13505500D02*
X16847500Y-13545500D01*
X16847500Y-13505500D02*
X16807500Y-13545500D01*
X16934500Y-13251500D02*
X16974500Y-13291500D01*
X16974500Y-13251500D02*
X16934500Y-13291500D01*
X16998000Y-12870500D02*
X17038000Y-12910500D01*
X17038000Y-12870500D02*
X16998000Y-12910500D01*
X17061500Y-13442000D02*
X17101500Y-13482000D01*
X17101500Y-13442000D02*
X17061500Y-13482000D01*
X17125000Y-11219500D02*
X17165000Y-11259500D01*
X17165000Y-11219500D02*
X17125000Y-11259500D01*
X17315500Y-10838500D02*
X17355500Y-10878500D01*
X17355500Y-10838500D02*
X17315500Y-10878500D01*
X17823500Y-11283000D02*
X17863500Y-11323000D01*
X17863500Y-11283000D02*
X17823500Y-11323000D01*
X17950500Y-10838500D02*
X17990500Y-10878500D01*
X17990500Y-10838500D02*
X17950500Y-10878500D01*
X18735000Y-9546000D02*
X18775000Y-9586000D01*
X18775000Y-9546000D02*
X18735000Y-9586000D01*
X18735000Y-9800000D02*
X18775000Y-9840000D01*
X18775000Y-9800000D02*
X18735000Y-9840000D01*
X18735000Y-10054000D02*
X18775000Y-10094000D01*
X18775000Y-10054000D02*
X18735000Y-10094000D01*
X18735000Y-10308000D02*
X18775000Y-10348000D01*
X18775000Y-10308000D02*
X18735000Y-10348000D01*
X18735000Y-10562000D02*
X18775000Y-10602000D01*
X18775000Y-10562000D02*
X18735000Y-10602000D01*
X18735000Y-10816000D02*
X18775000Y-10856000D01*
X18775000Y-10816000D02*
X18735000Y-10856000D01*
X18735000Y-11832000D02*
X18775000Y-11872000D01*
X18775000Y-11832000D02*
X18735000Y-11872000D01*
X18735000Y-12086000D02*
X18775000Y-12126000D01*
X18775000Y-12086000D02*
X18735000Y-12126000D01*
X18735000Y-12340000D02*
X18775000Y-12380000D01*
X18775000Y-12340000D02*
X18735000Y-12380000D01*
X18753500Y-11070000D02*
X18793500Y-11110000D01*
X18793500Y-11070000D02*
X18753500Y-11110000D01*
X18753500Y-11324000D02*
X18793500Y-11364000D01*
X18793500Y-11324000D02*
X18753500Y-11364000D01*
X18753500Y-11578000D02*
X18793500Y-11618000D01*
X18793500Y-11578000D02*
X18753500Y-11618000D01*
D13*
X7596500Y-12446000D02*
G75*
G03*
X7596500Y-12446000I-40000J0D01*
G01*
X7596500Y-12827000D02*
G75*
G03*
X7596500Y-12827000I-40000J0D01*
G01*
X7787000Y-7493000D02*
G75*
G03*
X7787000Y-7493000I-40000J0D01*
G01*
X7787000Y-9017000D02*
G75*
G03*
X7787000Y-9017000I-40000J0D01*
G01*
X7787000Y-10350000D02*
G75*
G03*
X7787000Y-10350000I-40000J0D01*
G01*
X7787000Y-11874000D02*
G75*
G03*
X7787000Y-11874000I-40000J0D01*
G01*
X8041000Y-7493000D02*
G75*
G03*
X8041000Y-7493000I-40000J0D01*
G01*
X8041000Y-9017000D02*
G75*
G03*
X8041000Y-9017000I-40000J0D01*
G01*
X8041000Y-10350000D02*
G75*
G03*
X8041000Y-10350000I-40000J0D01*
G01*
X8041000Y-11874000D02*
G75*
G03*
X8041000Y-11874000I-40000J0D01*
G01*
X8295000Y-7493000D02*
G75*
G03*
X8295000Y-7493000I-40000J0D01*
G01*
X8295000Y-9017000D02*
G75*
G03*
X8295000Y-9017000I-40000J0D01*
G01*
X8295000Y-10350000D02*
G75*
G03*
X8295000Y-10350000I-40000J0D01*
G01*
X8295000Y-11874000D02*
G75*
G03*
X8295000Y-11874000I-40000J0D01*
G01*
X8346500Y-12446000D02*
G75*
G03*
X8346500Y-12446000I-40000J0D01*
G01*
X8346500Y-12827000D02*
G75*
G03*
X8346500Y-12827000I-40000J0D01*
G01*
X8549000Y-7493000D02*
G75*
G03*
X8549000Y-7493000I-40000J0D01*
G01*
X8549000Y-9017000D02*
G75*
G03*
X8549000Y-9017000I-40000J0D01*
G01*
X8549000Y-10350000D02*
G75*
G03*
X8549000Y-10350000I-40000J0D01*
G01*
X8549000Y-11874000D02*
G75*
G03*
X8549000Y-11874000I-40000J0D01*
G01*
X8803000Y-7493000D02*
G75*
G03*
X8803000Y-7493000I-40000J0D01*
G01*
X8803000Y-9017000D02*
G75*
G03*
X8803000Y-9017000I-40000J0D01*
G01*
X8803000Y-10350000D02*
G75*
G03*
X8803000Y-10350000I-40000J0D01*
G01*
X8803000Y-11874000D02*
G75*
G03*
X8803000Y-11874000I-40000J0D01*
G01*
X8803000Y-13144500D02*
G75*
G03*
X8803000Y-13144500I-40000J0D01*
G01*
X8803000Y-13906500D02*
G75*
G03*
X8803000Y-13906500I-40000J0D01*
G01*
X9057000Y-7493000D02*
G75*
G03*
X9057000Y-7493000I-40000J0D01*
G01*
X9057000Y-9017000D02*
G75*
G03*
X9057000Y-9017000I-40000J0D01*
G01*
X9057000Y-10350000D02*
G75*
G03*
X9057000Y-10350000I-40000J0D01*
G01*
X9057000Y-11874000D02*
G75*
G03*
X9057000Y-11874000I-40000J0D01*
G01*
X9057000Y-13144500D02*
G75*
G03*
X9057000Y-13144500I-40000J0D01*
G01*
X9057000Y-13906500D02*
G75*
G03*
X9057000Y-13906500I-40000J0D01*
G01*
X9311000Y-7493000D02*
G75*
G03*
X9311000Y-7493000I-40000J0D01*
G01*
X9311000Y-9017000D02*
G75*
G03*
X9311000Y-9017000I-40000J0D01*
G01*
X9311000Y-10350000D02*
G75*
G03*
X9311000Y-10350000I-40000J0D01*
G01*
X9311000Y-11874000D02*
G75*
G03*
X9311000Y-11874000I-40000J0D01*
G01*
X9311000Y-13144500D02*
G75*
G03*
X9311000Y-13144500I-40000J0D01*
G01*
X9311000Y-13906500D02*
G75*
G03*
X9311000Y-13906500I-40000J0D01*
G01*
X9565000Y-7493000D02*
G75*
G03*
X9565000Y-7493000I-40000J0D01*
G01*
X9565000Y-9017000D02*
G75*
G03*
X9565000Y-9017000I-40000J0D01*
G01*
X9565000Y-10350000D02*
G75*
G03*
X9565000Y-10350000I-40000J0D01*
G01*
X9565000Y-11874000D02*
G75*
G03*
X9565000Y-11874000I-40000J0D01*
G01*
X9565000Y-13144500D02*
G75*
G03*
X9565000Y-13144500I-40000J0D01*
G01*
X9565000Y-13906500D02*
G75*
G03*
X9565000Y-13906500I-40000J0D01*
G01*
X9819000Y-7493000D02*
G75*
G03*
X9819000Y-7493000I-40000J0D01*
G01*
X9819000Y-9017000D02*
G75*
G03*
X9819000Y-9017000I-40000J0D01*
G01*
X9819000Y-10350000D02*
G75*
G03*
X9819000Y-10350000I-40000J0D01*
G01*
X9819000Y-11874000D02*
G75*
G03*
X9819000Y-11874000I-40000J0D01*
G01*
X9819000Y-13144500D02*
G75*
G03*
X9819000Y-13144500I-40000J0D01*
G01*
X9819000Y-13906500D02*
G75*
G03*
X9819000Y-13906500I-40000J0D01*
G01*
X10073000Y-7493000D02*
G75*
G03*
X10073000Y-7493000I-40000J0D01*
G01*
X10073000Y-9017000D02*
G75*
G03*
X10073000Y-9017000I-40000J0D01*
G01*
X10073000Y-10350000D02*
G75*
G03*
X10073000Y-10350000I-40000J0D01*
G01*
X10073000Y-11874000D02*
G75*
G03*
X10073000Y-11874000I-40000J0D01*
G01*
X10073000Y-13144500D02*
G75*
G03*
X10073000Y-13144500I-40000J0D01*
G01*
X10073000Y-13906500D02*
G75*
G03*
X10073000Y-13906500I-40000J0D01*
G01*
X10327000Y-7493000D02*
G75*
G03*
X10327000Y-7493000I-40000J0D01*
G01*
X10327000Y-9017000D02*
G75*
G03*
X10327000Y-9017000I-40000J0D01*
G01*
X10327000Y-10350000D02*
G75*
G03*
X10327000Y-10350000I-40000J0D01*
G01*
X10327000Y-11874000D02*
G75*
G03*
X10327000Y-11874000I-40000J0D01*
G01*
X10327000Y-13144500D02*
G75*
G03*
X10327000Y-13144500I-40000J0D01*
G01*
X10327000Y-13906500D02*
G75*
G03*
X10327000Y-13906500I-40000J0D01*
G01*
X10581000Y-7493000D02*
G75*
G03*
X10581000Y-7493000I-40000J0D01*
G01*
X10581000Y-9017000D02*
G75*
G03*
X10581000Y-9017000I-40000J0D01*
G01*
X10581000Y-10350000D02*
G75*
G03*
X10581000Y-10350000I-40000J0D01*
G01*
X10581000Y-11874000D02*
G75*
G03*
X10581000Y-11874000I-40000J0D01*
G01*
X10581000Y-13144500D02*
G75*
G03*
X10581000Y-13144500I-40000J0D01*
G01*
X10581000Y-13906500D02*
G75*
G03*
X10581000Y-13906500I-40000J0D01*
G01*
X10974000Y-9017000D02*
G75*
G03*
X10974000Y-9017000I-40000J0D01*
G01*
X11724000Y-9017000D02*
G75*
G03*
X11724000Y-9017000I-40000J0D01*
G01*
X12296000Y-7492500D02*
G75*
G03*
X12296000Y-7492500I-40000J0D01*
G01*
X12296000Y-9016500D02*
G75*
G03*
X12296000Y-9016500I-40000J0D01*
G01*
X12296000Y-10350000D02*
G75*
G03*
X12296000Y-10350000I-40000J0D01*
G01*
X12296000Y-11874000D02*
G75*
G03*
X12296000Y-11874000I-40000J0D01*
G01*
X12296000Y-13145500D02*
G75*
G03*
X12296000Y-13145500I-40000J0D01*
G01*
X12296000Y-13907500D02*
G75*
G03*
X12296000Y-13907500I-40000J0D01*
G01*
X12550000Y-7492500D02*
G75*
G03*
X12550000Y-7492500I-40000J0D01*
G01*
X12550000Y-9016500D02*
G75*
G03*
X12550000Y-9016500I-40000J0D01*
G01*
X12550000Y-10350000D02*
G75*
G03*
X12550000Y-10350000I-40000J0D01*
G01*
X12550000Y-11874000D02*
G75*
G03*
X12550000Y-11874000I-40000J0D01*
G01*
X12550000Y-13145500D02*
G75*
G03*
X12550000Y-13145500I-40000J0D01*
G01*
X12550000Y-13907500D02*
G75*
G03*
X12550000Y-13907500I-40000J0D01*
G01*
X12804000Y-7492500D02*
G75*
G03*
X12804000Y-7492500I-40000J0D01*
G01*
X12804000Y-9016500D02*
G75*
G03*
X12804000Y-9016500I-40000J0D01*
G01*
X12804000Y-10350000D02*
G75*
G03*
X12804000Y-10350000I-40000J0D01*
G01*
X12804000Y-11874000D02*
G75*
G03*
X12804000Y-11874000I-40000J0D01*
G01*
X12804000Y-13145500D02*
G75*
G03*
X12804000Y-13145500I-40000J0D01*
G01*
X12804000Y-13907500D02*
G75*
G03*
X12804000Y-13907500I-40000J0D01*
G01*
X13058000Y-7492500D02*
G75*
G03*
X13058000Y-7492500I-40000J0D01*
G01*
X13058000Y-9016500D02*
G75*
G03*
X13058000Y-9016500I-40000J0D01*
G01*
X13058000Y-10350000D02*
G75*
G03*
X13058000Y-10350000I-40000J0D01*
G01*
X13058000Y-11874000D02*
G75*
G03*
X13058000Y-11874000I-40000J0D01*
G01*
X13058000Y-13145500D02*
G75*
G03*
X13058000Y-13145500I-40000J0D01*
G01*
X13058000Y-13907500D02*
G75*
G03*
X13058000Y-13907500I-40000J0D01*
G01*
X13312000Y-7492500D02*
G75*
G03*
X13312000Y-7492500I-40000J0D01*
G01*
X13312000Y-9016500D02*
G75*
G03*
X13312000Y-9016500I-40000J0D01*
G01*
X13312000Y-10350000D02*
G75*
G03*
X13312000Y-10350000I-40000J0D01*
G01*
X13312000Y-11874000D02*
G75*
G03*
X13312000Y-11874000I-40000J0D01*
G01*
X13312000Y-13145500D02*
G75*
G03*
X13312000Y-13145500I-40000J0D01*
G01*
X13312000Y-13907500D02*
G75*
G03*
X13312000Y-13907500I-40000J0D01*
G01*
X13566000Y-7492500D02*
G75*
G03*
X13566000Y-7492500I-40000J0D01*
G01*
X13566000Y-9016500D02*
G75*
G03*
X13566000Y-9016500I-40000J0D01*
G01*
X13566000Y-10350000D02*
G75*
G03*
X13566000Y-10350000I-40000J0D01*
G01*
X13566000Y-11874000D02*
G75*
G03*
X13566000Y-11874000I-40000J0D01*
G01*
X13566000Y-13145500D02*
G75*
G03*
X13566000Y-13145500I-40000J0D01*
G01*
X13566000Y-13907500D02*
G75*
G03*
X13566000Y-13907500I-40000J0D01*
G01*
X13820000Y-7492500D02*
G75*
G03*
X13820000Y-7492500I-40000J0D01*
G01*
X13820000Y-9016500D02*
G75*
G03*
X13820000Y-9016500I-40000J0D01*
G01*
X13820000Y-10350000D02*
G75*
G03*
X13820000Y-10350000I-40000J0D01*
G01*
X13820000Y-11874000D02*
G75*
G03*
X13820000Y-11874000I-40000J0D01*
G01*
X13820000Y-13145500D02*
G75*
G03*
X13820000Y-13145500I-40000J0D01*
G01*
X13820000Y-13907500D02*
G75*
G03*
X13820000Y-13907500I-40000J0D01*
G01*
X14074000Y-7492500D02*
G75*
G03*
X14074000Y-7492500I-40000J0D01*
G01*
X14074000Y-9016500D02*
G75*
G03*
X14074000Y-9016500I-40000J0D01*
G01*
X14074000Y-10350000D02*
G75*
G03*
X14074000Y-10350000I-40000J0D01*
G01*
X14074000Y-11874000D02*
G75*
G03*
X14074000Y-11874000I-40000J0D01*
G01*
X14328000Y-7492500D02*
G75*
G03*
X14328000Y-7492500I-40000J0D01*
G01*
X14328000Y-9016500D02*
G75*
G03*
X14328000Y-9016500I-40000J0D01*
G01*
X14328000Y-10350000D02*
G75*
G03*
X14328000Y-10350000I-40000J0D01*
G01*
X14328000Y-11874000D02*
G75*
G03*
X14328000Y-11874000I-40000J0D01*
G01*
X14391000Y-13906500D02*
G75*
G03*
X14391000Y-13906500I-40000J0D01*
G01*
X14582000Y-7492500D02*
G75*
G03*
X14582000Y-7492500I-40000J0D01*
G01*
X14582000Y-9016500D02*
G75*
G03*
X14582000Y-9016500I-40000J0D01*
G01*
X14582000Y-10350000D02*
G75*
G03*
X14582000Y-10350000I-40000J0D01*
G01*
X14582000Y-11874000D02*
G75*
G03*
X14582000Y-11874000I-40000J0D01*
G01*
X14836000Y-7492500D02*
G75*
G03*
X14836000Y-7492500I-40000J0D01*
G01*
X14836000Y-9016500D02*
G75*
G03*
X14836000Y-9016500I-40000J0D01*
G01*
X14836000Y-10350000D02*
G75*
G03*
X14836000Y-10350000I-40000J0D01*
G01*
X14836000Y-11874000D02*
G75*
G03*
X14836000Y-11874000I-40000J0D01*
G01*
X15090000Y-7492500D02*
G75*
G03*
X15090000Y-7492500I-40000J0D01*
G01*
X15090000Y-9016500D02*
G75*
G03*
X15090000Y-9016500I-40000J0D01*
G01*
X15090000Y-10350000D02*
G75*
G03*
X15090000Y-10350000I-40000J0D01*
G01*
X15090000Y-11874000D02*
G75*
G03*
X15090000Y-11874000I-40000J0D01*
G01*
X15141000Y-13906500D02*
G75*
G03*
X15141000Y-13906500I-40000J0D01*
G01*
X15476500Y-9017000D02*
G75*
G03*
X15476500Y-9017000I-40000J0D01*
G01*
X16226500Y-9017000D02*
G75*
G03*
X16226500Y-9017000I-40000J0D01*
G01*
X16365500Y-13906500D02*
G75*
G03*
X16365500Y-13906500I-40000J0D01*
G01*
X17058000Y-10858500D02*
G75*
G03*
X17058000Y-10858500I-40000J0D01*
G01*
X17115500Y-13906500D02*
G75*
G03*
X17115500Y-13906500I-40000J0D01*
G01*
X17260500Y-12255500D02*
G75*
G03*
X17260500Y-12255500I-40000J0D01*
G01*
X17379500Y-13906500D02*
G75*
G03*
X17379500Y-13906500I-40000J0D01*
G01*
X17693000Y-12763500D02*
G75*
G03*
X17693000Y-12763500I-40000J0D01*
G01*
X17808000Y-10858500D02*
G75*
G03*
X17808000Y-10858500I-40000J0D01*
G01*
X17879500Y-13906500D02*
G75*
G03*
X17879500Y-13906500I-40000J0D01*
G01*
X18010500Y-12255500D02*
G75*
G03*
X18010500Y-12255500I-40000J0D01*
G01*
X18141500Y-13906500D02*
G75*
G03*
X18141500Y-13906500I-40000J0D01*
G01*
X18193000Y-12763500D02*
G75*
G03*
X18193000Y-12763500I-40000J0D01*
G01*
X18641500Y-13906500D02*
G75*
G03*
X18641500Y-13906500I-40000J0D01*
G01*
D14*
X8001000Y-13412000D02*
X8001000Y-13512000D01*
X7951000Y-13462000D02*
X8051000Y-13462000D01*
X8269500Y-13412000D02*
X8269500Y-13512000D01*
X8219500Y-13462000D02*
X8319500Y-13462000D01*
X8763000Y-12396000D02*
X8763000Y-12496000D01*
X8713000Y-12446000D02*
X8813000Y-12446000D01*
X9017000Y-12078500D02*
X9017000Y-12178500D01*
X8967000Y-12128500D02*
X9067000Y-12128500D01*
X9017000Y-12396000D02*
X9017000Y-12496000D01*
X8967000Y-12446000D02*
X9067000Y-12446000D01*
X9271000Y-12078500D02*
X9271000Y-12178500D01*
X9221000Y-12128500D02*
X9321000Y-12128500D01*
X9271000Y-12396000D02*
X9271000Y-12496000D01*
X9221000Y-12446000D02*
X9321000Y-12446000D01*
X9525000Y-12078500D02*
X9525000Y-12178500D01*
X9475000Y-12128500D02*
X9575000Y-12128500D01*
X9525000Y-12396000D02*
X9525000Y-12496000D01*
X9475000Y-12446000D02*
X9575000Y-12446000D01*
X9779000Y-12078500D02*
X9779000Y-12178500D01*
X9729000Y-12128500D02*
X9829000Y-12128500D01*
X9779000Y-12396000D02*
X9779000Y-12496000D01*
X9729000Y-12446000D02*
X9829000Y-12446000D01*
X10033000Y-12078500D02*
X10033000Y-12178500D01*
X9983000Y-12128500D02*
X10083000Y-12128500D01*
X10033000Y-12396000D02*
X10033000Y-12496000D01*
X9983000Y-12446000D02*
X10083000Y-12446000D01*
X10477500Y-12396000D02*
X10477500Y-12496000D01*
X10427500Y-12446000D02*
X10527500Y-12446000D01*
X10731500Y-12396000D02*
X10731500Y-12496000D01*
X10681500Y-12446000D02*
X10781500Y-12446000D01*
X10985500Y-12078500D02*
X10985500Y-12178500D01*
X10935500Y-12128500D02*
X11035500Y-12128500D01*
X10985500Y-12396000D02*
X10985500Y-12496000D01*
X10935500Y-12446000D02*
X11035500Y-12446000D01*
X11239500Y-12078500D02*
X11239500Y-12178500D01*
X11189500Y-12128500D02*
X11289500Y-12128500D01*
X11239500Y-12396000D02*
X11239500Y-12496000D01*
X11189500Y-12446000D02*
X11289500Y-12446000D01*
X11493500Y-12078500D02*
X11493500Y-12178500D01*
X11443500Y-12128500D02*
X11543500Y-12128500D01*
X11747500Y-11824500D02*
X11747500Y-11924500D01*
X11697500Y-11874500D02*
X11797500Y-11874500D01*
X11747500Y-12078500D02*
X11747500Y-12178500D01*
X11697500Y-12128500D02*
X11797500Y-12128500D01*
X11747500Y-12396000D02*
X11747500Y-12496000D01*
X11697500Y-12446000D02*
X11797500Y-12446000D01*
X12001500Y-12396000D02*
X12001500Y-12496000D01*
X11951500Y-12446000D02*
X12051500Y-12446000D01*
X12255500Y-12396000D02*
X12255500Y-12496000D01*
X12205500Y-12446000D02*
X12305500Y-12446000D01*
X13271500Y-12396000D02*
X13271500Y-12496000D01*
X13221500Y-12446000D02*
X13321500Y-12446000D01*
X13525500Y-12078500D02*
X13525500Y-12178500D01*
X13475500Y-12128500D02*
X13575500Y-12128500D01*
X13525500Y-12396000D02*
X13525500Y-12496000D01*
X13475500Y-12446000D02*
X13575500Y-12446000D01*
X13779500Y-12078500D02*
X13779500Y-12178500D01*
X13729500Y-12128500D02*
X13829500Y-12128500D01*
X13779500Y-12396000D02*
X13779500Y-12496000D01*
X13729500Y-12446000D02*
X13829500Y-12446000D01*
X14033500Y-12078500D02*
X14033500Y-12178500D01*
X13983500Y-12128500D02*
X14083500Y-12128500D01*
X14033500Y-12396000D02*
X14033500Y-12496000D01*
X13983500Y-12446000D02*
X14083500Y-12446000D01*
X14097000Y-13348500D02*
X14097000Y-13448500D01*
X14047000Y-13398500D02*
X14147000Y-13398500D01*
X14097000Y-13602500D02*
X14097000Y-13702500D01*
X14047000Y-13652500D02*
X14147000Y-13652500D01*
X14287500Y-12078500D02*
X14287500Y-12178500D01*
X14237500Y-12128500D02*
X14337500Y-12128500D01*
X14287500Y-12396000D02*
X14287500Y-12496000D01*
X14237500Y-12446000D02*
X14337500Y-12446000D01*
X14541500Y-12078500D02*
X14541500Y-12178500D01*
X14491500Y-12128500D02*
X14591500Y-12128500D01*
X14541500Y-12396000D02*
X14541500Y-12496000D01*
X14491500Y-12446000D02*
X14591500Y-12446000D01*
X14605000Y-13348500D02*
X14605000Y-13448500D01*
X14555000Y-13398500D02*
X14655000Y-13398500D01*
X14605000Y-13602500D02*
X14605000Y-13702500D01*
X14555000Y-13652500D02*
X14655000Y-13652500D01*
X15113000Y-12396000D02*
X15113000Y-12496000D01*
X15063000Y-12446000D02*
X15163000Y-12446000D01*
X15367000Y-12396000D02*
X15367000Y-12496000D01*
X15317000Y-12446000D02*
X15417000Y-12446000D01*
X15430500Y-13475500D02*
X15430500Y-13575500D01*
X15380500Y-13525500D02*
X15480500Y-13525500D01*
X15621000Y-12078500D02*
X15621000Y-12178500D01*
X15571000Y-12128500D02*
X15671000Y-12128500D01*
X15621000Y-12396000D02*
X15621000Y-12496000D01*
X15571000Y-12446000D02*
X15671000Y-12446000D01*
X15684500Y-13158000D02*
X15684500Y-13258000D01*
X15634500Y-13208000D02*
X15734500Y-13208000D01*
X15684500Y-13475500D02*
X15684500Y-13575500D01*
X15634500Y-13525500D02*
X15734500Y-13525500D01*
X15875000Y-12078500D02*
X15875000Y-12178500D01*
X15825000Y-12128500D02*
X15925000Y-12128500D01*
X15875000Y-12396000D02*
X15875000Y-12496000D01*
X15825000Y-12446000D02*
X15925000Y-12446000D01*
X15938500Y-7443000D02*
X15938500Y-7543000D01*
X15888500Y-7493000D02*
X15988500Y-7493000D01*
X15938500Y-13158000D02*
X15938500Y-13258000D01*
X15888500Y-13208000D02*
X15988500Y-13208000D01*
X15938500Y-13475500D02*
X15938500Y-13575500D01*
X15888500Y-13525500D02*
X15988500Y-13525500D01*
X16129000Y-12078500D02*
X16129000Y-12178500D01*
X16079000Y-12128500D02*
X16179000Y-12128500D01*
X16129000Y-12396000D02*
X16129000Y-12496000D01*
X16079000Y-12446000D02*
X16179000Y-12446000D01*
X16192500Y-7443000D02*
X16192500Y-7543000D01*
X16142500Y-7493000D02*
X16242500Y-7493000D01*
X16192500Y-13475500D02*
X16192500Y-13575500D01*
X16142500Y-13525500D02*
X16242500Y-13525500D01*
X16383000Y-12078500D02*
X16383000Y-12178500D01*
X16333000Y-12128500D02*
X16433000Y-12128500D01*
X16383000Y-12396000D02*
X16383000Y-12496000D01*
X16333000Y-12446000D02*
X16433000Y-12446000D01*
X16446500Y-7189000D02*
X16446500Y-7289000D01*
X16396500Y-7239000D02*
X16496500Y-7239000D01*
X16446500Y-7443000D02*
X16446500Y-7543000D01*
X16396500Y-7493000D02*
X16496500Y-7493000D01*
X16637000Y-12078500D02*
X16637000Y-12178500D01*
X16587000Y-12128500D02*
X16687000Y-12128500D01*
X16637000Y-12396000D02*
X16637000Y-12496000D01*
X16587000Y-12446000D02*
X16687000Y-12446000D01*
X16700500Y-7189000D02*
X16700500Y-7289000D01*
X16650500Y-7239000D02*
X16750500Y-7239000D01*
X16700500Y-7443000D02*
X16700500Y-7543000D01*
X16650500Y-7493000D02*
X16750500Y-7493000D01*
X16891000Y-12396000D02*
X16891000Y-12496000D01*
X16841000Y-12446000D02*
X16941000Y-12446000D01*
X16954500Y-7189000D02*
X16954500Y-7289000D01*
X16904500Y-7239000D02*
X17004500Y-7239000D01*
X16954500Y-7443000D02*
X16954500Y-7543000D01*
X16904500Y-7493000D02*
X17004500Y-7493000D01*
D11*
X7234119Y-14695046D02*
X7234119Y-14495046D01*
X7281738Y-14495046D01*
X7310309Y-14504570D01*
X7329357Y-14523618D01*
X7338881Y-14542665D01*
X7348405Y-14580760D01*
X7348405Y-14609332D01*
X7338881Y-14647427D01*
X7329357Y-14666475D01*
X7310309Y-14685522D01*
X7281738Y-14695046D01*
X7234119Y-14695046D01*
X7434119Y-14695046D02*
X7434119Y-14561713D01*
X7434119Y-14599808D02*
X7443643Y-14580760D01*
X7453167Y-14571237D01*
X7472214Y-14561713D01*
X7491262Y-14561713D01*
X7557928Y-14695046D02*
X7557928Y-14561713D01*
X7557928Y-14495046D02*
X7548405Y-14504570D01*
X7557928Y-14514094D01*
X7567452Y-14504570D01*
X7557928Y-14495046D01*
X7557928Y-14514094D01*
X7681738Y-14695046D02*
X7662690Y-14685522D01*
X7653167Y-14666475D01*
X7653167Y-14495046D01*
X7786500Y-14695046D02*
X7767452Y-14685522D01*
X7757928Y-14666475D01*
X7757928Y-14495046D01*
X8015071Y-14695046D02*
X8015071Y-14495046D01*
X8081738Y-14637903D01*
X8148405Y-14495046D01*
X8148405Y-14695046D01*
X8329357Y-14695046D02*
X8329357Y-14590284D01*
X8319833Y-14571237D01*
X8300786Y-14561713D01*
X8262690Y-14561713D01*
X8243643Y-14571237D01*
X8329357Y-14685522D02*
X8310309Y-14695046D01*
X8262690Y-14695046D01*
X8243643Y-14685522D01*
X8234119Y-14666475D01*
X8234119Y-14647427D01*
X8243643Y-14628379D01*
X8262690Y-14618856D01*
X8310309Y-14618856D01*
X8329357Y-14609332D01*
X8424595Y-14561713D02*
X8424595Y-14761713D01*
X8424595Y-14571237D02*
X8443643Y-14561713D01*
X8481738Y-14561713D01*
X8500786Y-14571237D01*
X8510310Y-14580760D01*
X8519833Y-14599808D01*
X8519833Y-14656951D01*
X8510310Y-14675998D01*
X8500786Y-14685522D01*
X8481738Y-14695046D01*
X8443643Y-14695046D01*
X8424595Y-14685522D01*
X8605548Y-14675998D02*
X8615071Y-14685522D01*
X8605548Y-14695046D01*
X8596024Y-14685522D01*
X8605548Y-14675998D01*
X8605548Y-14695046D01*
X8605548Y-14571237D02*
X8615071Y-14580760D01*
X8605548Y-14590284D01*
X8596024Y-14580760D01*
X8605548Y-14571237D01*
X8605548Y-14590284D01*
D12*
X6936500Y-15004570D02*
X6976500Y-15044570D01*
X6976500Y-15004570D02*
X6936500Y-15044570D01*
D11*
X7272214Y-14915046D02*
X7291262Y-14915046D01*
X7310309Y-14924570D01*
X7319833Y-14934094D01*
X7329357Y-14953141D01*
X7338881Y-14991237D01*
X7338881Y-15038856D01*
X7329357Y-15076951D01*
X7319833Y-15095998D01*
X7310309Y-15105522D01*
X7291262Y-15115046D01*
X7272214Y-15115046D01*
X7253167Y-15105522D01*
X7243643Y-15095998D01*
X7234119Y-15076951D01*
X7224595Y-15038856D01*
X7224595Y-14991237D01*
X7234119Y-14953141D01*
X7243643Y-14934094D01*
X7253167Y-14924570D01*
X7272214Y-14915046D01*
X7424595Y-15095998D02*
X7434119Y-15105522D01*
X7424595Y-15115046D01*
X7415071Y-15105522D01*
X7424595Y-15095998D01*
X7424595Y-15115046D01*
X7605548Y-14981713D02*
X7605548Y-15115046D01*
X7557928Y-14905522D02*
X7510309Y-15048379D01*
X7634119Y-15048379D01*
X7748405Y-14915046D02*
X7767452Y-14915046D01*
X7786500Y-14924570D01*
X7796024Y-14934094D01*
X7805548Y-14953141D01*
X7815071Y-14991237D01*
X7815071Y-15038856D01*
X7805548Y-15076951D01*
X7796024Y-15095998D01*
X7786500Y-15105522D01*
X7767452Y-15115046D01*
X7748405Y-15115046D01*
X7729357Y-15105522D01*
X7719833Y-15095998D01*
X7710309Y-15076951D01*
X7700786Y-15038856D01*
X7700786Y-14991237D01*
X7710309Y-14953141D01*
X7719833Y-14934094D01*
X7729357Y-14924570D01*
X7748405Y-14915046D01*
X7938881Y-14915046D02*
X7957928Y-14915046D01*
X7976976Y-14924570D01*
X7986500Y-14934094D01*
X7996024Y-14953141D01*
X8005548Y-14991237D01*
X8005548Y-15038856D01*
X7996024Y-15076951D01*
X7986500Y-15095998D01*
X7976976Y-15105522D01*
X7957928Y-15115046D01*
X7938881Y-15115046D01*
X7919833Y-15105522D01*
X7910309Y-15095998D01*
X7900786Y-15076951D01*
X7891262Y-15038856D01*
X7891262Y-14991237D01*
X7900786Y-14953141D01*
X7910309Y-14934094D01*
X7919833Y-14924570D01*
X7938881Y-14915046D01*
X8091262Y-15115046D02*
X8091262Y-14981713D01*
X8091262Y-15000760D02*
X8100786Y-14991237D01*
X8119833Y-14981713D01*
X8148405Y-14981713D01*
X8167452Y-14991237D01*
X8176976Y-15010284D01*
X8176976Y-15115046D01*
X8176976Y-15010284D02*
X8186500Y-14991237D01*
X8205548Y-14981713D01*
X8234119Y-14981713D01*
X8253167Y-14991237D01*
X8262690Y-15010284D01*
X8262690Y-15115046D01*
X8357928Y-15115046D02*
X8357928Y-14981713D01*
X8357928Y-15000760D02*
X8367452Y-14991237D01*
X8386500Y-14981713D01*
X8415071Y-14981713D01*
X8434119Y-14991237D01*
X8443643Y-15010284D01*
X8443643Y-15115046D01*
X8443643Y-15010284D02*
X8453167Y-14991237D01*
X8472214Y-14981713D01*
X8500786Y-14981713D01*
X8519833Y-14991237D01*
X8529357Y-15010284D01*
X8529357Y-15115046D01*
X8919833Y-14905522D02*
X8748405Y-15162665D01*
X9176976Y-14915046D02*
X9196024Y-14915046D01*
X9215071Y-14924570D01*
X9224595Y-14934094D01*
X9234119Y-14953141D01*
X9243643Y-14991237D01*
X9243643Y-15038856D01*
X9234119Y-15076951D01*
X9224595Y-15095998D01*
X9215071Y-15105522D01*
X9196024Y-15115046D01*
X9176976Y-15115046D01*
X9157929Y-15105522D01*
X9148405Y-15095998D01*
X9138881Y-15076951D01*
X9129357Y-15038856D01*
X9129357Y-14991237D01*
X9138881Y-14953141D01*
X9148405Y-14934094D01*
X9157929Y-14924570D01*
X9176976Y-14915046D01*
X9329357Y-15095998D02*
X9338881Y-15105522D01*
X9329357Y-15115046D01*
X9319833Y-15105522D01*
X9329357Y-15095998D01*
X9329357Y-15115046D01*
X9462690Y-14915046D02*
X9481738Y-14915046D01*
X9500786Y-14924570D01*
X9510310Y-14934094D01*
X9519833Y-14953141D01*
X9529357Y-14991237D01*
X9529357Y-15038856D01*
X9519833Y-15076951D01*
X9510310Y-15095998D01*
X9500786Y-15105522D01*
X9481738Y-15115046D01*
X9462690Y-15115046D01*
X9443643Y-15105522D01*
X9434119Y-15095998D01*
X9424595Y-15076951D01*
X9415071Y-15038856D01*
X9415071Y-14991237D01*
X9424595Y-14953141D01*
X9434119Y-14934094D01*
X9443643Y-14924570D01*
X9462690Y-14915046D01*
X9719833Y-15115046D02*
X9605548Y-15115046D01*
X9662690Y-15115046D02*
X9662690Y-14915046D01*
X9643643Y-14943618D01*
X9624595Y-14962665D01*
X9605548Y-14972189D01*
X9900786Y-14915046D02*
X9805548Y-14915046D01*
X9796024Y-15010284D01*
X9805548Y-15000760D01*
X9824595Y-14991237D01*
X9872214Y-14991237D01*
X9891262Y-15000760D01*
X9900786Y-15010284D01*
X9910310Y-15029332D01*
X9910310Y-15076951D01*
X9900786Y-15095998D01*
X9891262Y-15105522D01*
X9872214Y-15115046D01*
X9824595Y-15115046D01*
X9805548Y-15105522D01*
X9796024Y-15095998D01*
X9976976Y-14915046D02*
X10110310Y-14915046D01*
X10024595Y-15115046D01*
X10176976Y-14915046D02*
X10176976Y-14953141D01*
X10253167Y-14915046D02*
X10253167Y-14953141D01*
X10548405Y-15191237D02*
X10538881Y-15181713D01*
X10519833Y-15153141D01*
X10510310Y-15134094D01*
X10500786Y-15105522D01*
X10491262Y-15057903D01*
X10491262Y-15019808D01*
X10500786Y-14972189D01*
X10510310Y-14943618D01*
X10519833Y-14924570D01*
X10538881Y-14895998D01*
X10548405Y-14886475D01*
X10634119Y-15115046D02*
X10672214Y-15115046D01*
X10691262Y-15105522D01*
X10700786Y-15095998D01*
X10719833Y-15067427D01*
X10729357Y-15029332D01*
X10729357Y-14953141D01*
X10719833Y-14934094D01*
X10710310Y-14924570D01*
X10691262Y-14915046D01*
X10653167Y-14915046D01*
X10634119Y-14924570D01*
X10624595Y-14934094D01*
X10615071Y-14953141D01*
X10615071Y-15000760D01*
X10624595Y-15019808D01*
X10634119Y-15029332D01*
X10653167Y-15038856D01*
X10691262Y-15038856D01*
X10710310Y-15029332D01*
X10719833Y-15019808D01*
X10729357Y-15000760D01*
X10900786Y-14915046D02*
X10862690Y-14915046D01*
X10843643Y-14924570D01*
X10834119Y-14934094D01*
X10815071Y-14962665D01*
X10805548Y-15000760D01*
X10805548Y-15076951D01*
X10815071Y-15095998D01*
X10824595Y-15105522D01*
X10843643Y-15115046D01*
X10881738Y-15115046D01*
X10900786Y-15105522D01*
X10910310Y-15095998D01*
X10919833Y-15076951D01*
X10919833Y-15029332D01*
X10910310Y-15010284D01*
X10900786Y-15000760D01*
X10881738Y-14991237D01*
X10843643Y-14991237D01*
X10824595Y-15000760D01*
X10815071Y-15010284D01*
X10805548Y-15029332D01*
X11157929Y-15115046D02*
X11157929Y-14915046D01*
X11243643Y-15115046D02*
X11243643Y-15010284D01*
X11234119Y-14991237D01*
X11215071Y-14981713D01*
X11186500Y-14981713D01*
X11167452Y-14991237D01*
X11157929Y-15000760D01*
X11367452Y-15115046D02*
X11348405Y-15105522D01*
X11338881Y-15095998D01*
X11329357Y-15076951D01*
X11329357Y-15019808D01*
X11338881Y-15000760D01*
X11348405Y-14991237D01*
X11367452Y-14981713D01*
X11396024Y-14981713D01*
X11415071Y-14991237D01*
X11424595Y-15000760D01*
X11434119Y-15019808D01*
X11434119Y-15076951D01*
X11424595Y-15095998D01*
X11415071Y-15105522D01*
X11396024Y-15115046D01*
X11367452Y-15115046D01*
X11548405Y-15115046D02*
X11529357Y-15105522D01*
X11519833Y-15086475D01*
X11519833Y-14915046D01*
X11700786Y-15105522D02*
X11681738Y-15115046D01*
X11643643Y-15115046D01*
X11624595Y-15105522D01*
X11615071Y-15086475D01*
X11615071Y-15010284D01*
X11624595Y-14991237D01*
X11643643Y-14981713D01*
X11681738Y-14981713D01*
X11700786Y-14991237D01*
X11710309Y-15010284D01*
X11710309Y-15029332D01*
X11615071Y-15048379D01*
X11786500Y-15105522D02*
X11805548Y-15115046D01*
X11843643Y-15115046D01*
X11862690Y-15105522D01*
X11872214Y-15086475D01*
X11872214Y-15076951D01*
X11862690Y-15057903D01*
X11843643Y-15048379D01*
X11815071Y-15048379D01*
X11796024Y-15038856D01*
X11786500Y-15019808D01*
X11786500Y-15010284D01*
X11796024Y-14991237D01*
X11815071Y-14981713D01*
X11843643Y-14981713D01*
X11862690Y-14991237D01*
X11938881Y-15191237D02*
X11948405Y-15181713D01*
X11967452Y-15153141D01*
X11976976Y-15134094D01*
X11986500Y-15105522D01*
X11996024Y-15057903D01*
X11996024Y-15019808D01*
X11986500Y-14972189D01*
X11976976Y-14943618D01*
X11967452Y-14924570D01*
X11948405Y-14895998D01*
X11938881Y-14886475D01*
D13*
X6976500Y-15288570D02*
G75*
G03*
X6976500Y-15288570I-40000J0D01*
G01*
D11*
X7272214Y-15179046D02*
X7291262Y-15179046D01*
X7310309Y-15188570D01*
X7319833Y-15198094D01*
X7329357Y-15217141D01*
X7338881Y-15255237D01*
X7338881Y-15302856D01*
X7329357Y-15340951D01*
X7319833Y-15359998D01*
X7310309Y-15369522D01*
X7291262Y-15379046D01*
X7272214Y-15379046D01*
X7253167Y-15369522D01*
X7243643Y-15359998D01*
X7234119Y-15340951D01*
X7224595Y-15302856D01*
X7224595Y-15255237D01*
X7234119Y-15217141D01*
X7243643Y-15198094D01*
X7253167Y-15188570D01*
X7272214Y-15179046D01*
X7424595Y-15359998D02*
X7434119Y-15369522D01*
X7424595Y-15379046D01*
X7415071Y-15369522D01*
X7424595Y-15359998D01*
X7424595Y-15379046D01*
X7548405Y-15264760D02*
X7529357Y-15255237D01*
X7519833Y-15245713D01*
X7510309Y-15226665D01*
X7510309Y-15217141D01*
X7519833Y-15198094D01*
X7529357Y-15188570D01*
X7548405Y-15179046D01*
X7586500Y-15179046D01*
X7605548Y-15188570D01*
X7615071Y-15198094D01*
X7624595Y-15217141D01*
X7624595Y-15226665D01*
X7615071Y-15245713D01*
X7605548Y-15255237D01*
X7586500Y-15264760D01*
X7548405Y-15264760D01*
X7529357Y-15274284D01*
X7519833Y-15283808D01*
X7510309Y-15302856D01*
X7510309Y-15340951D01*
X7519833Y-15359998D01*
X7529357Y-15369522D01*
X7548405Y-15379046D01*
X7586500Y-15379046D01*
X7605548Y-15369522D01*
X7615071Y-15359998D01*
X7624595Y-15340951D01*
X7624595Y-15302856D01*
X7615071Y-15283808D01*
X7605548Y-15274284D01*
X7586500Y-15264760D01*
X7748405Y-15179046D02*
X7767452Y-15179046D01*
X7786500Y-15188570D01*
X7796024Y-15198094D01*
X7805548Y-15217141D01*
X7815071Y-15255237D01*
X7815071Y-15302856D01*
X7805548Y-15340951D01*
X7796024Y-15359998D01*
X7786500Y-15369522D01*
X7767452Y-15379046D01*
X7748405Y-15379046D01*
X7729357Y-15369522D01*
X7719833Y-15359998D01*
X7710309Y-15340951D01*
X7700786Y-15302856D01*
X7700786Y-15255237D01*
X7710309Y-15217141D01*
X7719833Y-15198094D01*
X7729357Y-15188570D01*
X7748405Y-15179046D01*
X7938881Y-15179046D02*
X7957928Y-15179046D01*
X7976976Y-15188570D01*
X7986500Y-15198094D01*
X7996024Y-15217141D01*
X8005548Y-15255237D01*
X8005548Y-15302856D01*
X7996024Y-15340951D01*
X7986500Y-15359998D01*
X7976976Y-15369522D01*
X7957928Y-15379046D01*
X7938881Y-15379046D01*
X7919833Y-15369522D01*
X7910309Y-15359998D01*
X7900786Y-15340951D01*
X7891262Y-15302856D01*
X7891262Y-15255237D01*
X7900786Y-15217141D01*
X7910309Y-15198094D01*
X7919833Y-15188570D01*
X7938881Y-15179046D01*
X8091262Y-15379046D02*
X8091262Y-15245713D01*
X8091262Y-15264760D02*
X8100786Y-15255237D01*
X8119833Y-15245713D01*
X8148405Y-15245713D01*
X8167452Y-15255237D01*
X8176976Y-15274284D01*
X8176976Y-15379046D01*
X8176976Y-15274284D02*
X8186500Y-15255237D01*
X8205548Y-15245713D01*
X8234119Y-15245713D01*
X8253167Y-15255237D01*
X8262690Y-15274284D01*
X8262690Y-15379046D01*
X8357928Y-15379046D02*
X8357928Y-15245713D01*
X8357928Y-15264760D02*
X8367452Y-15255237D01*
X8386500Y-15245713D01*
X8415071Y-15245713D01*
X8434119Y-15255237D01*
X8443643Y-15274284D01*
X8443643Y-15379046D01*
X8443643Y-15274284D02*
X8453167Y-15255237D01*
X8472214Y-15245713D01*
X8500786Y-15245713D01*
X8519833Y-15255237D01*
X8529357Y-15274284D01*
X8529357Y-15379046D01*
X8919833Y-15169522D02*
X8748405Y-15426665D01*
X9176976Y-15179046D02*
X9196024Y-15179046D01*
X9215071Y-15188570D01*
X9224595Y-15198094D01*
X9234119Y-15217141D01*
X9243643Y-15255237D01*
X9243643Y-15302856D01*
X9234119Y-15340951D01*
X9224595Y-15359998D01*
X9215071Y-15369522D01*
X9196024Y-15379046D01*
X9176976Y-15379046D01*
X9157929Y-15369522D01*
X9148405Y-15359998D01*
X9138881Y-15340951D01*
X9129357Y-15302856D01*
X9129357Y-15255237D01*
X9138881Y-15217141D01*
X9148405Y-15198094D01*
X9157929Y-15188570D01*
X9176976Y-15179046D01*
X9329357Y-15359998D02*
X9338881Y-15369522D01*
X9329357Y-15379046D01*
X9319833Y-15369522D01*
X9329357Y-15359998D01*
X9329357Y-15379046D01*
X9462690Y-15179046D02*
X9481738Y-15179046D01*
X9500786Y-15188570D01*
X9510310Y-15198094D01*
X9519833Y-15217141D01*
X9529357Y-15255237D01*
X9529357Y-15302856D01*
X9519833Y-15340951D01*
X9510310Y-15359998D01*
X9500786Y-15369522D01*
X9481738Y-15379046D01*
X9462690Y-15379046D01*
X9443643Y-15369522D01*
X9434119Y-15359998D01*
X9424595Y-15340951D01*
X9415071Y-15302856D01*
X9415071Y-15255237D01*
X9424595Y-15217141D01*
X9434119Y-15198094D01*
X9443643Y-15188570D01*
X9462690Y-15179046D01*
X9596024Y-15179046D02*
X9719833Y-15179046D01*
X9653167Y-15255237D01*
X9681738Y-15255237D01*
X9700786Y-15264760D01*
X9710310Y-15274284D01*
X9719833Y-15293332D01*
X9719833Y-15340951D01*
X9710310Y-15359998D01*
X9700786Y-15369522D01*
X9681738Y-15379046D01*
X9624595Y-15379046D01*
X9605548Y-15369522D01*
X9596024Y-15359998D01*
X9910310Y-15379046D02*
X9796024Y-15379046D01*
X9853167Y-15379046D02*
X9853167Y-15179046D01*
X9834119Y-15207618D01*
X9815071Y-15226665D01*
X9796024Y-15236189D01*
X10091262Y-15179046D02*
X9996024Y-15179046D01*
X9986500Y-15274284D01*
X9996024Y-15264760D01*
X10015071Y-15255237D01*
X10062690Y-15255237D01*
X10081738Y-15264760D01*
X10091262Y-15274284D01*
X10100786Y-15293332D01*
X10100786Y-15340951D01*
X10091262Y-15359998D01*
X10081738Y-15369522D01*
X10062690Y-15379046D01*
X10015071Y-15379046D01*
X9996024Y-15369522D01*
X9986500Y-15359998D01*
X10176976Y-15179046D02*
X10176976Y-15217141D01*
X10253167Y-15179046D02*
X10253167Y-15217141D01*
X10548405Y-15455237D02*
X10538881Y-15445713D01*
X10519833Y-15417141D01*
X10510310Y-15398094D01*
X10500786Y-15369522D01*
X10491262Y-15321903D01*
X10491262Y-15283808D01*
X10500786Y-15236189D01*
X10510310Y-15207618D01*
X10519833Y-15188570D01*
X10538881Y-15159998D01*
X10548405Y-15150475D01*
X10729357Y-15379046D02*
X10615071Y-15379046D01*
X10672214Y-15379046D02*
X10672214Y-15179046D01*
X10653167Y-15207618D01*
X10634119Y-15226665D01*
X10615071Y-15236189D01*
X10900786Y-15245713D02*
X10900786Y-15379046D01*
X10853167Y-15169522D02*
X10805548Y-15312379D01*
X10929357Y-15312379D01*
X11034119Y-15264760D02*
X11015071Y-15255237D01*
X11005548Y-15245713D01*
X10996024Y-15226665D01*
X10996024Y-15217141D01*
X11005548Y-15198094D01*
X11015071Y-15188570D01*
X11034119Y-15179046D01*
X11072214Y-15179046D01*
X11091262Y-15188570D01*
X11100786Y-15198094D01*
X11110310Y-15217141D01*
X11110310Y-15226665D01*
X11100786Y-15245713D01*
X11091262Y-15255237D01*
X11072214Y-15264760D01*
X11034119Y-15264760D01*
X11015071Y-15274284D01*
X11005548Y-15283808D01*
X10996024Y-15302856D01*
X10996024Y-15340951D01*
X11005548Y-15359998D01*
X11015071Y-15369522D01*
X11034119Y-15379046D01*
X11072214Y-15379046D01*
X11091262Y-15369522D01*
X11100786Y-15359998D01*
X11110310Y-15340951D01*
X11110310Y-15302856D01*
X11100786Y-15283808D01*
X11091262Y-15274284D01*
X11072214Y-15264760D01*
X11348405Y-15379046D02*
X11348405Y-15179046D01*
X11434119Y-15379046D02*
X11434119Y-15274284D01*
X11424595Y-15255237D01*
X11405548Y-15245713D01*
X11376976Y-15245713D01*
X11357928Y-15255237D01*
X11348405Y-15264760D01*
X11557928Y-15379046D02*
X11538881Y-15369522D01*
X11529357Y-15359998D01*
X11519833Y-15340951D01*
X11519833Y-15283808D01*
X11529357Y-15264760D01*
X11538881Y-15255237D01*
X11557928Y-15245713D01*
X11586500Y-15245713D01*
X11605548Y-15255237D01*
X11615071Y-15264760D01*
X11624595Y-15283808D01*
X11624595Y-15340951D01*
X11615071Y-15359998D01*
X11605548Y-15369522D01*
X11586500Y-15379046D01*
X11557928Y-15379046D01*
X11738881Y-15379046D02*
X11719833Y-15369522D01*
X11710309Y-15350475D01*
X11710309Y-15179046D01*
X11891262Y-15369522D02*
X11872214Y-15379046D01*
X11834119Y-15379046D01*
X11815071Y-15369522D01*
X11805548Y-15350475D01*
X11805548Y-15274284D01*
X11815071Y-15255237D01*
X11834119Y-15245713D01*
X11872214Y-15245713D01*
X11891262Y-15255237D01*
X11900786Y-15274284D01*
X11900786Y-15293332D01*
X11805548Y-15312379D01*
X11976976Y-15369522D02*
X11996024Y-15379046D01*
X12034119Y-15379046D01*
X12053167Y-15369522D01*
X12062690Y-15350475D01*
X12062690Y-15340951D01*
X12053167Y-15321903D01*
X12034119Y-15312379D01*
X12005548Y-15312379D01*
X11986500Y-15302856D01*
X11976976Y-15283808D01*
X11976976Y-15274284D01*
X11986500Y-15255237D01*
X12005548Y-15245713D01*
X12034119Y-15245713D01*
X12053167Y-15255237D01*
X12129357Y-15455237D02*
X12138881Y-15445713D01*
X12157928Y-15417141D01*
X12167452Y-15398094D01*
X12176976Y-15369522D01*
X12186500Y-15321903D01*
X12186500Y-15283808D01*
X12176976Y-15236189D01*
X12167452Y-15207618D01*
X12157928Y-15188570D01*
X12138881Y-15159998D01*
X12129357Y-15150475D01*
D14*
X6926500Y-15502570D02*
X6926500Y-15602570D01*
X6876500Y-15552570D02*
X6976500Y-15552570D01*
D11*
X7338881Y-15643046D02*
X7224595Y-15643046D01*
X7281738Y-15643046D02*
X7281738Y-15443046D01*
X7262690Y-15471618D01*
X7243643Y-15490665D01*
X7224595Y-15500189D01*
X7424595Y-15623998D02*
X7434119Y-15633522D01*
X7424595Y-15643046D01*
X7415071Y-15633522D01*
X7424595Y-15623998D01*
X7424595Y-15643046D01*
X7557928Y-15443046D02*
X7576976Y-15443046D01*
X7596024Y-15452570D01*
X7605548Y-15462094D01*
X7615071Y-15481141D01*
X7624595Y-15519237D01*
X7624595Y-15566856D01*
X7615071Y-15604951D01*
X7605548Y-15623998D01*
X7596024Y-15633522D01*
X7576976Y-15643046D01*
X7557928Y-15643046D01*
X7538881Y-15633522D01*
X7529357Y-15623998D01*
X7519833Y-15604951D01*
X7510309Y-15566856D01*
X7510309Y-15519237D01*
X7519833Y-15481141D01*
X7529357Y-15462094D01*
X7538881Y-15452570D01*
X7557928Y-15443046D01*
X7748405Y-15443046D02*
X7767452Y-15443046D01*
X7786500Y-15452570D01*
X7796024Y-15462094D01*
X7805548Y-15481141D01*
X7815071Y-15519237D01*
X7815071Y-15566856D01*
X7805548Y-15604951D01*
X7796024Y-15623998D01*
X7786500Y-15633522D01*
X7767452Y-15643046D01*
X7748405Y-15643046D01*
X7729357Y-15633522D01*
X7719833Y-15623998D01*
X7710309Y-15604951D01*
X7700786Y-15566856D01*
X7700786Y-15519237D01*
X7710309Y-15481141D01*
X7719833Y-15462094D01*
X7729357Y-15452570D01*
X7748405Y-15443046D01*
X7938881Y-15443046D02*
X7957928Y-15443046D01*
X7976976Y-15452570D01*
X7986500Y-15462094D01*
X7996024Y-15481141D01*
X8005548Y-15519237D01*
X8005548Y-15566856D01*
X7996024Y-15604951D01*
X7986500Y-15623998D01*
X7976976Y-15633522D01*
X7957928Y-15643046D01*
X7938881Y-15643046D01*
X7919833Y-15633522D01*
X7910309Y-15623998D01*
X7900786Y-15604951D01*
X7891262Y-15566856D01*
X7891262Y-15519237D01*
X7900786Y-15481141D01*
X7910309Y-15462094D01*
X7919833Y-15452570D01*
X7938881Y-15443046D01*
X8091262Y-15643046D02*
X8091262Y-15509713D01*
X8091262Y-15528760D02*
X8100786Y-15519237D01*
X8119833Y-15509713D01*
X8148405Y-15509713D01*
X8167452Y-15519237D01*
X8176976Y-15538284D01*
X8176976Y-15643046D01*
X8176976Y-15538284D02*
X8186500Y-15519237D01*
X8205548Y-15509713D01*
X8234119Y-15509713D01*
X8253167Y-15519237D01*
X8262690Y-15538284D01*
X8262690Y-15643046D01*
X8357928Y-15643046D02*
X8357928Y-15509713D01*
X8357928Y-15528760D02*
X8367452Y-15519237D01*
X8386500Y-15509713D01*
X8415071Y-15509713D01*
X8434119Y-15519237D01*
X8443643Y-15538284D01*
X8443643Y-15643046D01*
X8443643Y-15538284D02*
X8453167Y-15519237D01*
X8472214Y-15509713D01*
X8500786Y-15509713D01*
X8519833Y-15519237D01*
X8529357Y-15538284D01*
X8529357Y-15643046D01*
X8919833Y-15433522D02*
X8748405Y-15690665D01*
X9176976Y-15443046D02*
X9196024Y-15443046D01*
X9215071Y-15452570D01*
X9224595Y-15462094D01*
X9234119Y-15481141D01*
X9243643Y-15519237D01*
X9243643Y-15566856D01*
X9234119Y-15604951D01*
X9224595Y-15623998D01*
X9215071Y-15633522D01*
X9196024Y-15643046D01*
X9176976Y-15643046D01*
X9157929Y-15633522D01*
X9148405Y-15623998D01*
X9138881Y-15604951D01*
X9129357Y-15566856D01*
X9129357Y-15519237D01*
X9138881Y-15481141D01*
X9148405Y-15462094D01*
X9157929Y-15452570D01*
X9176976Y-15443046D01*
X9329357Y-15623998D02*
X9338881Y-15633522D01*
X9329357Y-15643046D01*
X9319833Y-15633522D01*
X9329357Y-15623998D01*
X9329357Y-15643046D01*
X9462690Y-15443046D02*
X9481738Y-15443046D01*
X9500786Y-15452570D01*
X9510310Y-15462094D01*
X9519833Y-15481141D01*
X9529357Y-15519237D01*
X9529357Y-15566856D01*
X9519833Y-15604951D01*
X9510310Y-15623998D01*
X9500786Y-15633522D01*
X9481738Y-15643046D01*
X9462690Y-15643046D01*
X9443643Y-15633522D01*
X9434119Y-15623998D01*
X9424595Y-15604951D01*
X9415071Y-15566856D01*
X9415071Y-15519237D01*
X9424595Y-15481141D01*
X9434119Y-15462094D01*
X9443643Y-15452570D01*
X9462690Y-15443046D01*
X9596024Y-15443046D02*
X9719833Y-15443046D01*
X9653167Y-15519237D01*
X9681738Y-15519237D01*
X9700786Y-15528760D01*
X9710310Y-15538284D01*
X9719833Y-15557332D01*
X9719833Y-15604951D01*
X9710310Y-15623998D01*
X9700786Y-15633522D01*
X9681738Y-15643046D01*
X9624595Y-15643046D01*
X9605548Y-15633522D01*
X9596024Y-15623998D01*
X9815071Y-15643046D02*
X9853167Y-15643046D01*
X9872214Y-15633522D01*
X9881738Y-15623998D01*
X9900786Y-15595427D01*
X9910310Y-15557332D01*
X9910310Y-15481141D01*
X9900786Y-15462094D01*
X9891262Y-15452570D01*
X9872214Y-15443046D01*
X9834119Y-15443046D01*
X9815071Y-15452570D01*
X9805548Y-15462094D01*
X9796024Y-15481141D01*
X9796024Y-15528760D01*
X9805548Y-15547808D01*
X9815071Y-15557332D01*
X9834119Y-15566856D01*
X9872214Y-15566856D01*
X9891262Y-15557332D01*
X9900786Y-15547808D01*
X9910310Y-15528760D01*
X10081738Y-15509713D02*
X10081738Y-15643046D01*
X10034119Y-15433522D02*
X9986500Y-15576379D01*
X10110310Y-15576379D01*
X10176976Y-15443046D02*
X10176976Y-15481141D01*
X10253167Y-15443046D02*
X10253167Y-15481141D01*
X10548405Y-15719237D02*
X10538881Y-15709713D01*
X10519833Y-15681141D01*
X10510310Y-15662094D01*
X10500786Y-15633522D01*
X10491262Y-15585903D01*
X10491262Y-15547808D01*
X10500786Y-15500189D01*
X10510310Y-15471618D01*
X10519833Y-15452570D01*
X10538881Y-15423998D01*
X10548405Y-15414475D01*
X10710310Y-15443046D02*
X10672214Y-15443046D01*
X10653167Y-15452570D01*
X10643643Y-15462094D01*
X10624595Y-15490665D01*
X10615071Y-15528760D01*
X10615071Y-15604951D01*
X10624595Y-15623998D01*
X10634119Y-15633522D01*
X10653167Y-15643046D01*
X10691262Y-15643046D01*
X10710310Y-15633522D01*
X10719833Y-15623998D01*
X10729357Y-15604951D01*
X10729357Y-15557332D01*
X10719833Y-15538284D01*
X10710310Y-15528760D01*
X10691262Y-15519237D01*
X10653167Y-15519237D01*
X10634119Y-15528760D01*
X10624595Y-15538284D01*
X10615071Y-15557332D01*
X10796024Y-15443046D02*
X10929357Y-15443046D01*
X10843643Y-15643046D01*
X11157929Y-15643046D02*
X11157929Y-15443046D01*
X11243643Y-15643046D02*
X11243643Y-15538284D01*
X11234119Y-15519237D01*
X11215071Y-15509713D01*
X11186500Y-15509713D01*
X11167452Y-15519237D01*
X11157929Y-15528760D01*
X11367452Y-15643046D02*
X11348405Y-15633522D01*
X11338881Y-15623998D01*
X11329357Y-15604951D01*
X11329357Y-15547808D01*
X11338881Y-15528760D01*
X11348405Y-15519237D01*
X11367452Y-15509713D01*
X11396024Y-15509713D01*
X11415071Y-15519237D01*
X11424595Y-15528760D01*
X11434119Y-15547808D01*
X11434119Y-15604951D01*
X11424595Y-15623998D01*
X11415071Y-15633522D01*
X11396024Y-15643046D01*
X11367452Y-15643046D01*
X11548405Y-15643046D02*
X11529357Y-15633522D01*
X11519833Y-15614475D01*
X11519833Y-15443046D01*
X11700786Y-15633522D02*
X11681738Y-15643046D01*
X11643643Y-15643046D01*
X11624595Y-15633522D01*
X11615071Y-15614475D01*
X11615071Y-15538284D01*
X11624595Y-15519237D01*
X11643643Y-15509713D01*
X11681738Y-15509713D01*
X11700786Y-15519237D01*
X11710309Y-15538284D01*
X11710309Y-15557332D01*
X11615071Y-15576379D01*
X11786500Y-15633522D02*
X11805548Y-15643046D01*
X11843643Y-15643046D01*
X11862690Y-15633522D01*
X11872214Y-15614475D01*
X11872214Y-15604951D01*
X11862690Y-15585903D01*
X11843643Y-15576379D01*
X11815071Y-15576379D01*
X11796024Y-15566856D01*
X11786500Y-15547808D01*
X11786500Y-15538284D01*
X11796024Y-15519237D01*
X11815071Y-15509713D01*
X11843643Y-15509713D01*
X11862690Y-15519237D01*
X11938881Y-15719237D02*
X11948405Y-15709713D01*
X11967452Y-15681141D01*
X11976976Y-15662094D01*
X11986500Y-15633522D01*
X11996024Y-15585903D01*
X11996024Y-15547808D01*
X11986500Y-15500189D01*
X11976976Y-15471618D01*
X11967452Y-15452570D01*
X11948405Y-15423998D01*
X11938881Y-15414475D01*
M02*
